<svg width="512" height="468" viewBox="0 0 512 468" fill="none" xmlns="http://www.w3.org/2000/svg">
<path fill-rule="evenodd" clip-rule="evenodd" d="M256.216 397.325C256.18 397.325 256.146 397.322 256.111 397.32C256.072 397.317 256.033 397.314 255.994 397.314C255.87 397.314 255.749 397.318 255.625 397.318C169.319 397.146 96.5419 338.298 75.1189 258.623C75.1055 258.571 75.0912 258.518 75.0769 258.466C75.0716 258.447 75.0663 258.428 75.0611 258.408L75.0529 258.378C70.9269 242.949 68.7149 226.746 68.7149 210.034C68.7149 143.342 104.621 81.1581 162.404 47.7541C170.24 43.2281 172.92 33.2091 168.394 25.3721C163.868 17.5351 153.858 14.8641 146.012 19.3821C139.915 22.9061 134.028 26.7081 128.358 30.7571L128.361 16.4711C128.37 7.41911 121.031 0.0891113 111.979 0.0891113C102.927 0.0891113 95.5969 7.41911 95.5969 16.4711L95.5889 59.4721C92.3939 62.8881 89.3139 66.4011 86.3489 70.0041L82.6309 56.1141C80.2879 47.3641 71.3069 42.1721 62.5659 44.5241C53.8249 46.8671 48.6329 55.8391 50.9759 64.5891L62.1169 106.174C59.9129 110.288 57.8399 114.473 55.8979 118.721L48.6949 106.246C44.1869 98.4101 34.167 95.7211 26.3219 100.247C18.4859 104.764 15.7969 114.784 20.3229 122.62L41.8059 159.826C40.7359 164.364 39.8099 168.944 39.0279 173.56L28.8959 163.425C22.5059 157.026 12.1409 157.026 5.72395 163.425C-0.675052 169.815 -0.675052 180.189 5.72395 186.597L36.0799 216.96C36.2259 221.658 36.5219 226.319 36.9589 230.939L24.5829 223.79C16.7559 219.264 6.72695 221.953 2.20095 229.78C-2.32505 237.616 0.354949 247.636 8.19095 252.162L45.3389 273.619C46.7009 278.122 48.1999 282.564 49.8379 286.94L36.0209 283.24C27.2879 280.915 18.2979 286.089 15.9559 294.83C13.6219 303.571 18.8049 312.553 27.5459 314.895L69.0929 326.02C71.561 329.983 74.1419 333.868 76.8499 337.658H62.4579C53.4059 337.658 46.0759 344.988 46.0759 354.04C46.0759 363.092 53.4059 370.422 62.4579 370.422H105.525C127.751 391.287 154.297 407.594 183.663 417.846C174.567 424.47 166.755 432.677 160.274 442.474C155.278 450.017 157.345 460.179 164.898 465.175C167.685 467.021 170.817 467.908 173.923 467.908C179.23 467.908 184.448 465.325 187.59 460.56C201.168 440.051 223.541 430.076 255.995 430.076H255.998H256.004C288.458 430.076 310.831 440.051 324.409 460.56C327.551 465.326 332.769 467.908 338.085 467.908C341.182 467.908 344.324 467.021 347.102 465.184C354.654 460.188 356.722 450.026 351.726 442.483C331.931 412.565 299.797 397.374 256.216 397.325ZM509.798 229.779C505.29 221.952 495.253 219.272 487.416 223.789L475.019 230.95C475.465 226.314 475.765 221.647 475.913 216.956L506.265 186.596C512.664 180.197 512.664 169.823 506.265 163.424C499.858 157.025 489.492 157.025 483.094 163.424L472.961 173.559C472.18 168.947 471.254 164.371 470.185 159.837L491.675 122.618C496.201 114.791 493.512 104.771 485.676 100.245C477.849 95.7282 467.838 98.3992 463.303 106.244L456.093 118.731C454.154 114.488 452.083 110.308 449.882 106.198L461.022 64.5782C463.356 55.8282 458.164 46.8552 449.432 44.5132C440.699 42.1882 431.709 47.3622 429.367 56.1032L425.643 70.0162C422.68 66.4162 419.602 62.9042 416.409 59.4912L416.401 16.4792C416.401 7.42718 409.071 0.0881762 400.019 0.0971762C390.976 0.0971762 383.637 7.42718 383.637 16.4712L383.64 30.7742C377.961 26.7182 372.066 22.9112 365.959 19.3822C358.132 14.8562 348.103 17.5452 343.577 25.3722C339.051 33.1992 341.731 43.2192 349.567 47.7542C407.347 81.1322 443.245 143.262 443.281 209.934C443.281 209.975 443.281 210.015 443.281 210.055C443.281 210.088 443.282 210.122 443.282 210.155C443.235 282.826 400.595 349.515 334.605 380.089C326.405 383.896 322.829 393.623 326.636 401.841C329.414 407.822 335.333 411.337 341.51 411.337C343.817 411.337 346.169 410.84 348.379 409.811C370.086 399.753 389.64 386.364 406.55 370.426H449.531C458.583 370.426 465.913 363.096 465.913 354.044C465.913 344.992 458.583 337.662 449.531 337.662H435.088C437.786 333.87 440.362 329.993 442.817 326.04L484.462 314.899C493.212 312.556 498.395 303.566 496.052 294.834C493.709 286.084 484.728 280.883 475.987 283.244L462.048 286.976C463.688 282.603 465.184 278.169 466.547 273.688L503.809 252.165C511.644 247.644 514.324 237.625 509.798 229.779ZM256.003 369.954C167.808 369.954 96.075 298.221 96.075 210.034C96.075 121.838 167.817 50.1062 256.003 50.1062C344.189 50.1062 415.931 121.847 415.931 210.034C415.923 298.221 344.181 369.954 256.003 369.954ZM383.168 210.033C383.168 139.916 326.122 82.8612 256.004 82.8612C185.886 82.8612 128.831 139.916 128.832 210.033C128.832 280.142 185.886 337.188 256.004 337.188C326.122 337.188 383.168 280.142 383.168 210.033ZM152.109 211.294C158.472 217.746 168.846 217.79 175.272 211.409L190.909 195.932V263.139C190.909 272.191 198.239 279.521 207.291 279.521C216.343 279.521 223.673 272.191 223.673 263.139V156.644C223.673 150.032 219.706 144.069 213.6 141.522C207.468 138.984 200.457 140.351 195.762 145.01L152.223 188.131C145.791 194.494 145.737 204.86 152.109 211.294ZM358.815 209.891C358.815 261.284 325.775 279.521 297.483 279.521C269.191 279.521 236.169 261.284 236.169 209.891C236.169 158.498 269.2 140.261 297.483 140.261C325.775 140.261 358.815 158.498 358.815 209.891ZM326.059 209.892C326.059 185.434 316.43 173.027 297.483 173.027C278.536 173.027 268.925 185.434 268.925 209.892C268.925 234.35 278.536 246.757 297.483 246.757C316.439 246.757 326.059 234.35 326.059 209.892Z" fill="url(#paint0_linear_318_1200)"/>
<defs>
<linearGradient id="paint0_linear_318_1200" x1="109" y1="436.5" x2="430.5" y2="-0.000143712" gradientUnits="userSpaceOnUse">
<stop offset="0.0569281" stop-color="#3A3D84"/>
<stop offset="0.426709" stop-color="#945CCC"/>
<stop offset="1" stop-color="#FFD0B6"/>
</linearGradient>
</defs>
</svg>
