<svg width="660" height="632" viewBox="0 0 660 632" fill="none" xmlns="http://www.w3.org/2000/svg">
<path d="M329.967 631.367C511.707 631.367 659.036 490.159 659.036 315.969C659.036 141.779 511.707 0.570312 329.967 0.570312C148.228 0.570312 0.898438 141.779 0.898438 315.969C0.898438 490.159 148.228 631.367 329.967 631.367Z" fill="url(#paint0_linear_317_1164)"/>
<path fill-rule="evenodd" clip-rule="evenodd" d="M307.174 239.422L272.05 244.31L297.475 268.064C299.708 270.157 300.718 273.155 300.188 276.091L294.188 309.612L325.611 293.775C326.988 293.082 328.499 292.736 330.011 292.735C331.521 292.735 333.033 293.082 334.411 293.776L365.834 309.612L359.832 276.082C359.302 273.153 360.314 270.157 362.539 268.07L387.971 244.31L352.831 239.418C349.746 238.977 347.096 237.128 345.721 234.469L330.011 203.963L314.304 234.462C312.928 237.144 310.26 239.002 307.174 239.422Z" fill="white"/>
<path fill-rule="evenodd" clip-rule="evenodd" d="M330.011 303.085L296.998 319.722C295.604 320.427 294.093 320.775 292.59 320.774C286.859 320.774 282.275 315.813 283.288 310.172L289.593 274.948L262.89 250.002C257.29 244.769 260.388 235.63 268.127 234.549L305.035 229.41L321.541 197.358C323.134 194.248 326.366 192.308 330.003 192.307C333.624 192.307 336.868 194.24 338.478 197.356L354.987 229.41L391.889 234.547C399.625 235.627 402.728 244.774 397.131 250.002L370.428 274.948L376.735 310.173C378.06 317.554 369.943 323.212 363.022 319.724L330.011 303.085ZM330.001 138.318C259.516 138.318 202.173 193.28 202.173 260.835C202.173 328.39 259.516 383.351 330.001 383.351C400.483 383.35 457.826 328.391 457.826 260.835C457.827 193.279 400.483 138.319 330.001 138.318Z" fill="white"/>
<path fill-rule="evenodd" clip-rule="evenodd" d="M430.982 395.895C409.795 410.488 385.051 420.621 358.257 424.847L402.481 527.181L420.523 485.923C422.37 481.673 427.521 479.613 432.002 481.341L475.232 498.293L430.982 395.895Z" fill="white"/>
<path fill-rule="evenodd" clip-rule="evenodd" d="M330 416.85C419.755 416.85 492.777 346.862 492.777 260.834C492.777 174.807 419.755 104.819 330 104.819C240.244 104.819 167.222 174.808 167.222 260.834C167.222 346.861 240.244 416.85 330 416.85ZM387.636 399.313C387.295 399.313 386.943 399.278 386.602 399.216C386.259 399.143 385.927 399.047 385.604 398.923C385.28 398.799 384.975 398.64 384.679 398.454C384.393 398.267 384.116 398.055 383.875 397.816C383.626 397.585 383.405 397.321 383.21 397.046C383.026 396.77 382.859 396.47 382.721 396.16C382.591 395.857 382.489 395.532 382.415 395.213C382.351 394.875 382.314 394.548 382.314 394.212C382.314 393.875 382.351 393.547 382.415 393.211C382.489 392.89 382.591 392.573 382.721 392.264C382.859 391.952 383.025 391.661 383.21 391.378C383.405 391.103 383.626 390.838 383.875 390.607C385.114 389.419 386.943 388.88 388.681 389.208C389.022 389.278 389.356 389.377 389.678 389.5C389.992 389.633 390.306 389.784 390.593 389.97C390.879 390.154 391.157 390.368 391.397 390.607C391.646 390.836 391.868 391.103 392.062 391.378C392.256 391.661 392.422 391.954 392.552 392.264C392.681 392.572 392.783 392.892 392.858 393.211C392.921 393.546 392.959 393.876 392.959 394.212C392.959 394.548 392.921 394.876 392.858 395.213C392.783 395.531 392.681 395.859 392.552 396.16C392.422 396.469 392.256 396.771 392.062 397.046C391.868 397.32 391.646 397.586 391.397 397.816C391.157 398.055 390.879 398.268 390.593 398.454C390.306 398.639 389.992 398.8 389.678 398.923C389.356 399.046 389.022 399.145 388.681 399.216C388.339 399.277 387.988 399.313 387.636 399.313ZM468.47 260.834C468.47 334.014 406.353 393.553 330 393.553C253.646 393.553 191.528 334.016 191.528 260.834C191.528 187.651 253.646 128.115 330 128.115C406.353 128.115 468.47 187.652 468.47 260.834ZM480.627 265.938C480.285 265.938 479.934 265.904 479.593 265.833C479.252 265.77 478.918 265.674 478.596 265.541C478.271 265.416 477.966 265.257 477.672 265.072C477.385 264.884 477.107 264.673 476.867 264.443C475.878 263.495 475.306 262.175 475.306 260.838C475.307 260.5 475.343 260.165 475.407 259.837C475.481 259.51 475.583 259.191 475.712 258.881C475.85 258.571 476.018 258.279 476.202 258.004C476.396 257.72 476.617 257.464 476.867 257.225C477.107 256.993 477.385 256.782 477.672 256.596C477.966 256.409 478.271 256.251 478.596 256.127C478.918 255.992 479.251 255.896 479.593 255.834C480.276 255.702 480.979 255.702 481.672 255.834C482.005 255.895 482.346 255.994 482.66 256.127C482.985 256.249 483.298 256.41 483.584 256.596C483.872 256.782 484.148 256.995 484.388 257.225C484.638 257.463 484.86 257.721 485.054 258.004C485.248 258.278 485.414 258.571 485.543 258.881C485.672 259.191 485.774 259.51 485.848 259.837C485.913 260.165 485.951 260.502 485.951 260.838C485.951 261.166 485.913 261.503 485.848 261.83C485.774 262.158 485.672 262.477 485.543 262.787C485.414 263.097 485.247 263.389 485.054 263.663C484.86 263.945 484.638 264.203 484.388 264.443C484.148 264.672 483.872 264.886 483.584 265.072C483.298 265.256 482.985 265.417 482.66 265.541C482.346 265.673 482.005 265.772 481.672 265.833C481.331 265.904 480.979 265.94 480.627 265.938ZM469.161 321.192C468.81 321.192 468.459 321.157 468.116 321.087C467.775 321.024 467.442 320.928 467.118 320.804C466.804 320.669 466.49 320.511 466.204 320.334C465.908 320.148 465.641 319.936 465.391 319.696C464.402 318.749 463.839 317.429 463.839 316.092C463.839 315.754 463.866 315.419 463.94 315.091C464.005 314.763 464.106 314.444 464.245 314.135C464.374 313.833 464.541 313.532 464.735 313.258C464.93 312.974 465.15 312.718 465.391 312.479C466.389 311.529 467.756 310.99 469.161 310.99C470.556 310.989 471.933 311.531 472.921 312.479C473.161 312.717 473.393 312.975 473.587 313.258C473.772 313.532 473.939 313.834 474.076 314.135C474.207 314.444 474.307 314.763 474.372 315.091C474.446 315.417 474.483 315.755 474.483 316.092C474.483 317.427 473.91 318.749 472.921 319.696C472.672 319.934 472.404 320.148 472.109 320.334C471.823 320.51 471.517 320.671 471.194 320.804C470.87 320.927 470.538 321.025 470.196 321.087C469.854 321.156 469.502 321.193 469.161 321.192ZM436.507 368.022C436.165 368.022 435.814 367.989 435.472 367.918C435.131 367.855 434.797 367.759 434.474 367.635C434.15 367.501 433.846 367.342 433.559 367.165C433.264 366.978 432.995 366.758 432.746 366.528C432.506 366.287 432.275 366.032 432.08 365.749C431.897 365.472 431.729 365.182 431.591 364.871C431.462 364.561 431.36 364.243 431.295 363.915C431.222 363.587 431.185 363.251 431.185 362.923C431.185 361.576 431.757 360.266 432.746 359.31C432.995 359.08 433.264 358.867 433.559 358.681C433.846 358.494 434.15 358.336 434.474 358.212C434.797 358.077 435.131 357.981 435.472 357.919C437.2 357.581 439.039 358.132 440.276 359.31C441.265 360.258 441.829 361.578 441.829 362.923C441.83 363.25 441.793 363.588 441.727 363.915C441.662 364.243 441.562 364.562 441.422 364.871C441.293 365.181 441.126 365.474 440.932 365.749C440.739 366.03 440.517 366.288 440.276 366.528C439.278 367.475 437.911 368.024 436.507 368.022ZM334.913 403.254C335.041 403.563 335.152 403.883 335.217 404.21C335.282 404.538 335.319 404.875 335.319 405.203C335.32 405.538 335.282 405.876 335.217 406.203C335.152 406.53 335.041 406.85 334.913 407.16C334.783 407.461 334.617 407.762 334.423 408.037C334.228 408.32 334.007 408.577 333.766 408.816C332.769 409.762 331.401 410.313 329.997 410.312C329.654 410.312 329.303 410.277 328.962 410.206C328.62 410.143 328.287 410.047 327.964 409.914C327.64 409.788 327.335 409.63 327.041 409.445C326.754 409.258 326.476 409.047 326.236 408.816C325.987 408.577 325.765 408.32 325.571 408.037C325.387 407.762 325.219 407.461 325.081 407.16C324.952 406.849 324.85 406.531 324.776 406.203C324.712 405.875 324.675 405.539 324.675 405.203C324.675 404.874 324.712 404.538 324.776 404.21C324.85 403.882 324.952 403.564 325.081 403.254C325.22 402.944 325.387 402.652 325.571 402.377C325.765 402.093 325.986 401.837 326.236 401.598C326.476 401.367 326.754 401.155 327.041 400.969C327.335 400.781 327.64 400.624 327.964 400.5C328.287 400.367 328.62 400.27 328.962 400.208C330.69 399.871 332.529 400.412 333.766 401.598C334.007 401.836 334.228 402.094 334.423 402.377C334.617 402.651 334.783 402.944 334.913 403.254ZM387.636 132.555C387.295 132.555 386.943 132.521 386.601 132.459C386.259 132.387 385.927 132.291 385.603 132.167C385.28 132.042 384.975 131.884 384.679 131.698C384.392 131.511 384.116 131.299 383.875 131.06C383.625 130.829 383.405 130.564 383.21 130.289C383.025 130.014 382.859 129.714 382.72 129.404C382.591 129.101 382.489 128.775 382.415 128.457C382.35 128.127 382.314 127.792 382.314 127.455C382.314 126.109 382.887 124.799 383.875 123.851C384.116 123.612 384.392 123.399 384.679 123.214C384.975 123.036 385.28 122.877 385.603 122.744C385.927 122.62 386.259 122.523 386.601 122.452C387.285 122.326 387.988 122.328 388.681 122.452C389.013 122.522 389.355 122.62 389.669 122.744C389.992 122.877 390.306 123.036 390.593 123.214C390.879 123.399 391.156 123.612 391.396 123.851C392.395 124.797 392.958 126.109 392.958 127.455C392.958 127.79 392.921 128.129 392.857 128.457C392.783 128.775 392.681 129.103 392.552 129.404C392.422 129.713 392.256 130.015 392.062 130.289C391.868 130.562 391.646 130.83 391.396 131.06C391.156 131.297 390.879 131.512 390.593 131.698C390.306 131.883 389.992 132.043 389.669 132.167C389.355 132.29 389.013 132.388 388.681 132.459C388.338 132.521 387.988 132.556 387.636 132.555ZM436.506 163.863C436.164 163.863 435.813 163.828 435.471 163.757C435.13 163.694 434.797 163.597 434.474 163.465C434.15 163.339 433.845 163.181 433.558 162.995C433.264 162.809 432.995 162.597 432.745 162.366C431.757 161.418 431.184 160.099 431.184 158.762C431.185 158.425 431.222 158.089 431.295 157.761C431.359 157.433 431.461 157.115 431.59 156.805C431.729 156.494 431.896 156.203 432.08 155.928C432.274 155.644 432.496 155.388 432.745 155.149C433.734 154.201 435.112 153.652 436.506 153.652C437.911 153.651 439.278 154.201 440.276 155.149C440.516 155.387 440.738 155.645 440.932 155.928C441.126 156.201 441.292 156.495 441.422 156.805C441.561 157.114 441.662 157.434 441.726 157.761C441.792 158.088 441.829 158.426 441.829 158.762C441.829 160.099 441.265 161.419 440.276 162.366C439.278 163.313 437.911 163.863 436.506 163.863ZM469.16 210.694C468.809 210.694 468.458 210.659 468.116 210.588C467.774 210.524 467.442 210.429 467.118 210.296C466.804 210.172 466.49 210.013 466.203 209.836C465.908 209.648 465.641 209.428 465.391 209.198C465.15 208.958 464.929 208.702 464.735 208.419C464.54 208.143 464.374 207.852 464.245 207.542C464.106 207.231 464.005 206.913 463.94 206.585C463.875 206.256 463.838 205.921 463.838 205.594C463.838 205.256 463.875 204.92 463.94 204.593C464.005 204.264 464.106 203.946 464.245 203.637C464.374 203.335 464.54 203.034 464.735 202.759C464.929 202.474 465.15 202.219 465.391 201.98C465.641 201.749 465.908 201.537 466.203 201.351C466.49 201.165 466.804 201.006 467.118 200.882C467.442 200.749 467.774 200.652 468.116 200.59C469.844 200.253 471.683 200.802 472.921 201.98C473.171 202.219 473.392 202.476 473.586 202.759C473.771 203.032 473.938 203.335 474.076 203.637C474.206 203.945 474.307 204.265 474.372 204.593C474.446 204.919 474.482 205.257 474.482 205.594C474.482 205.92 474.445 206.258 474.372 206.585C474.307 206.912 474.206 207.232 474.076 207.542C473.938 207.85 473.771 208.144 473.586 208.419C473.392 208.701 473.17 208.959 472.921 209.198C472.671 209.427 472.403 209.65 472.109 209.836C471.822 210.013 471.516 210.172 471.193 210.296C470.869 210.429 470.537 210.526 470.195 210.588C469.853 210.658 469.502 210.695 469.16 210.694ZM329.997 121.573C329.655 121.573 329.304 121.54 328.962 121.477C328.621 121.406 328.288 121.31 327.964 121.186C327.64 121.051 327.336 120.903 327.049 120.716C326.754 120.529 326.485 120.318 326.236 120.078C325.987 119.848 325.765 119.583 325.571 119.308C325.387 119.023 325.219 118.732 325.081 118.422C324.952 118.112 324.85 117.794 324.785 117.466C324.712 117.138 324.675 116.802 324.675 116.474C324.675 116.135 324.712 115.801 324.785 115.473C324.85 115.153 324.952 114.827 325.081 114.526C325.22 114.215 325.387 113.915 325.571 113.64C325.765 113.364 325.986 113.1 326.236 112.87C327.474 111.682 329.314 111.143 331.041 111.47C331.383 111.54 331.715 111.638 332.038 111.762C332.354 111.885 332.667 112.046 332.954 112.232C333.249 112.417 333.517 112.63 333.766 112.87C334.756 113.816 335.32 115.128 335.32 116.474C335.32 116.801 335.282 117.138 335.217 117.466C335.144 117.793 335.042 118.112 334.913 118.422C334.783 118.732 334.617 119.025 334.423 119.308C334.228 119.581 334.007 119.848 333.766 120.078C333.517 120.316 333.249 120.53 332.954 120.716C332.667 120.902 332.354 121.053 332.038 121.186C331.715 121.308 331.383 121.407 331.041 121.477C330.7 121.54 330.348 121.575 329.997 121.573ZM179.366 265.937C179.024 265.937 178.673 265.903 178.331 265.833C177.99 265.77 177.657 265.674 177.333 265.541C177.01 265.415 176.705 265.257 176.419 265.072C176.123 264.883 175.855 264.672 175.606 264.442C174.616 263.494 174.044 262.175 174.044 260.838C174.044 260.5 174.081 260.165 174.155 259.837C174.22 259.509 174.321 259.191 174.45 258.881C174.589 258.571 174.756 258.279 174.94 258.004C175.134 257.72 175.365 257.464 175.606 257.225C175.855 256.993 176.123 256.782 176.419 256.596C176.705 256.408 177.01 256.25 177.333 256.127C177.657 255.992 177.99 255.896 178.331 255.834C180.059 255.496 181.898 256.038 183.136 257.225C183.377 257.463 183.598 257.721 183.792 258.004C183.987 258.278 184.153 258.571 184.282 258.881C184.421 259.19 184.522 259.51 184.587 259.837C184.652 260.165 184.689 260.501 184.689 260.838C184.689 262.173 184.124 263.495 183.136 264.442C182.138 265.39 180.771 265.939 179.366 265.937ZM190.842 210.694C190.491 210.694 190.14 210.659 189.798 210.588C189.466 210.524 189.124 210.429 188.81 210.296C188.486 210.172 188.172 210.013 187.886 209.835C187.599 209.648 187.322 209.428 187.072 209.198C186.832 208.958 186.611 208.702 186.416 208.419C186.223 208.143 186.056 207.852 185.926 207.542C185.797 207.231 185.687 206.913 185.622 206.585C185.557 206.256 185.52 205.921 185.52 205.593C185.52 205.256 185.557 204.92 185.622 204.593C185.687 204.263 185.797 203.946 185.926 203.636C186.056 203.335 186.222 203.034 186.416 202.759C186.611 202.474 186.832 202.219 187.072 201.98C188.32 200.8 190.149 200.253 191.877 200.59C192.219 200.651 192.552 200.749 192.875 200.882C193.198 201.005 193.504 201.165 193.799 201.351C194.085 201.536 194.363 201.75 194.603 201.98C194.853 202.219 195.074 202.476 195.268 202.759C195.453 203.032 195.62 203.335 195.758 203.636C195.887 203.945 195.988 204.265 196.063 204.593C196.128 204.919 196.164 205.257 196.164 205.593C196.164 206.93 195.591 208.25 194.603 209.198C194.363 209.426 194.085 209.649 193.799 209.835C193.504 210.012 193.198 210.172 192.875 210.296C192.552 210.429 192.219 210.526 191.877 210.588C191.535 210.658 191.184 210.695 190.842 210.694ZM223.487 163.863C222.083 163.863 220.715 163.314 219.727 162.366C218.738 161.418 218.165 160.099 218.165 158.762C218.165 158.425 218.202 158.089 218.266 157.761C218.34 157.433 218.442 157.115 218.571 156.804C218.71 156.494 218.877 156.202 219.061 155.928C219.255 155.644 219.477 155.388 219.727 155.149C220.965 153.961 222.804 153.422 224.531 153.758C224.864 153.82 225.206 153.917 225.52 154.05C225.844 154.173 226.157 154.334 226.444 154.52C226.731 154.705 227.007 154.918 227.249 155.149C227.498 155.386 227.719 155.645 227.913 155.928C228.107 156.201 228.273 156.495 228.404 156.804C228.532 157.114 228.634 157.434 228.708 157.761C228.772 158.088 228.811 158.425 228.811 158.762C228.811 160.099 228.246 161.419 227.249 162.366C227.007 162.595 226.731 162.809 226.444 162.995C226.157 163.179 225.844 163.34 225.52 163.465C225.206 163.596 224.864 163.695 224.531 163.757C224.19 163.827 223.838 163.863 223.487 163.863ZM272.357 132.554C272.016 132.554 271.664 132.521 271.323 132.459C270.981 132.387 270.648 132.291 270.324 132.167C270.002 132.042 269.697 131.883 269.41 131.698C269.114 131.511 268.847 131.299 268.598 131.06C268.348 130.829 268.126 130.564 267.932 130.289C267.747 130.014 267.581 129.714 267.443 129.404C267.312 129.101 267.212 128.775 267.146 128.456C267.073 128.127 267.035 127.792 267.035 127.455C267.035 126.108 267.608 124.799 268.598 123.851C268.847 123.612 269.114 123.399 269.41 123.213C269.697 123.036 270.002 122.877 270.324 122.744C270.648 122.62 270.981 122.523 271.323 122.452C272.007 122.326 272.719 122.328 273.401 122.452C273.743 122.522 274.076 122.62 274.4 122.744C274.714 122.877 275.029 123.036 275.315 123.213C275.61 123.399 275.878 123.612 276.127 123.851C277.116 124.797 277.679 126.109 277.679 127.455C277.679 127.79 277.643 128.128 277.578 128.456C277.513 128.775 277.412 129.102 277.273 129.404C277.145 129.713 276.977 130.014 276.783 130.289C276.59 130.562 276.368 130.83 276.127 131.06C275.878 131.297 275.61 131.512 275.315 131.698C275.028 131.883 274.714 132.043 274.4 132.167C274.076 132.29 273.743 132.388 273.401 132.459C273.06 132.521 272.709 132.556 272.357 132.554ZM274.4 398.923C274.076 399.045 273.743 399.144 273.401 399.215C273.06 399.276 272.709 399.312 272.357 399.312C272.016 399.312 271.664 399.277 271.323 399.215C270.981 399.143 270.648 399.046 270.324 398.923C270.002 398.798 269.697 398.64 269.41 398.453C269.114 398.266 268.837 398.055 268.598 397.816C268.348 397.585 268.126 397.32 267.932 397.045C267.747 396.77 267.581 396.47 267.443 396.16C267.312 395.857 267.212 395.531 267.146 395.212C267.073 394.875 267.035 394.548 267.035 394.211C267.035 393.874 267.072 393.547 267.146 393.21C267.212 392.89 267.312 392.573 267.443 392.263C267.581 391.952 267.747 391.661 267.932 391.377C268.126 391.102 268.348 390.837 268.598 390.607C269.835 389.419 271.674 388.88 273.401 389.208C273.743 389.277 274.076 389.376 274.4 389.5C274.714 389.632 275.028 389.783 275.315 389.969C275.61 390.154 275.878 390.368 276.127 390.607C276.368 390.835 276.589 391.103 276.783 391.377C276.977 391.661 277.145 391.953 277.273 392.263C277.412 392.563 277.513 392.892 277.578 393.21C277.643 393.546 277.679 393.875 277.679 394.211C277.679 394.548 277.643 394.875 277.578 395.212C277.513 395.53 277.412 395.858 277.273 396.16C277.145 396.469 276.977 396.771 276.783 397.045C276.59 397.32 276.368 397.586 276.127 397.816C275.878 398.055 275.61 398.267 275.315 398.453C275.028 398.638 274.714 398.799 274.4 398.923ZM223.487 368.022C223.145 368.022 222.794 367.988 222.452 367.917C222.111 367.855 221.778 367.758 221.455 367.634C221.131 367.5 220.826 367.342 220.531 367.164C220.244 366.978 219.966 366.758 219.727 366.527C219.477 366.287 219.255 366.031 219.061 365.748C218.867 365.471 218.71 365.181 218.571 364.87C218.442 364.561 218.34 364.242 218.266 363.914C218.202 363.586 218.165 363.25 218.165 362.922C218.165 361.576 218.738 360.257 219.727 359.309C219.966 359.079 220.244 358.866 220.531 358.68C220.826 358.493 221.131 358.335 221.455 358.211C221.778 358.077 222.111 357.98 222.452 357.919C223.136 357.786 223.838 357.786 224.531 357.919C224.864 357.979 225.206 358.078 225.52 358.211C225.844 358.334 226.157 358.495 226.444 358.68C226.731 358.866 227.007 359.079 227.249 359.309C228.246 360.257 228.811 361.577 228.811 362.922C228.811 363.25 228.772 363.587 228.708 363.914C228.634 364.242 228.532 364.561 228.404 364.87C228.273 365.18 228.107 365.473 227.913 365.748C227.719 366.03 227.498 366.288 227.249 366.527C227.007 366.756 226.731 366.978 226.444 367.164C226.157 367.341 225.844 367.501 225.52 367.634C225.206 367.757 224.864 367.856 224.531 367.917C224.19 367.988 223.838 368.023 223.487 368.022ZM190.842 321.191C190.491 321.191 190.14 321.157 189.798 321.086C189.456 321.024 189.124 320.927 188.8 320.803C188.486 320.669 188.172 320.511 187.886 320.333C187.599 320.147 187.322 319.935 187.072 319.696C186.084 318.748 185.52 317.428 185.52 316.091C185.52 315.753 185.557 315.418 185.622 315.09C185.687 314.763 185.788 314.444 185.926 314.134C186.056 313.832 186.222 313.532 186.416 313.257C186.611 312.973 186.832 312.717 187.072 312.478C187.322 312.246 187.599 312.035 187.886 311.849C188.172 311.662 188.486 311.504 188.8 311.38C189.124 311.246 189.456 311.149 189.798 311.087C190.482 310.952 191.194 310.955 191.877 311.087C192.219 311.148 192.552 311.247 192.875 311.38C193.198 311.503 193.504 311.663 193.799 311.849C194.085 312.035 194.363 312.248 194.603 312.478C194.853 312.716 195.074 312.974 195.268 313.257C195.453 313.532 195.62 313.833 195.758 314.134C195.887 314.444 195.988 314.763 196.053 315.09C196.128 315.416 196.164 315.755 196.164 316.091C196.164 317.427 195.591 318.748 194.603 319.696C194.363 319.934 194.085 320.147 193.799 320.333C193.504 320.51 193.198 320.67 192.875 320.803C192.552 320.926 192.219 321.024 191.877 321.086C191.535 321.155 191.184 321.192 190.842 321.191Z" fill="white"/>
<path fill-rule="evenodd" clip-rule="evenodd" d="M257.52 527.181L301.743 424.847C274.95 420.621 250.205 410.489 229.019 395.896L184.767 498.293L227.969 481.352C232.455 479.62 237.602 481.671 239.472 485.91L257.52 527.181Z" fill="white"/>
<defs>
<linearGradient id="paint0_linear_317_1164" x1="51" y1="482.5" x2="630" y2="135.5" gradientUnits="userSpaceOnUse">
<stop stop-color="#3A3D84"/>
<stop offset="0.404053" stop-color="#945CCC"/>
<stop offset="1" stop-color="#FFD0B6"/>
</linearGradient>
</defs>
</svg>
