<svg width="492" height="492" viewBox="0 0 492 492" fill="none" xmlns="http://www.w3.org/2000/svg">
<g clip-path="url(#clip0_317_1151)">
<path fill-rule="evenodd" clip-rule="evenodd" d="M245.76 0C380.928 0 491.52 110.592 491.52 245.76C491.52 380.928 380.928 491.52 245.76 491.52C110.592 491.52 0 380.928 0 245.76C0 110.592 110.592 0 245.76 0Z" fill="url(#paint0_linear_317_1151)"/>
<path fill-rule="evenodd" clip-rule="evenodd" d="M245.76 0C380.928 0 491.52 110.592 491.52 245.76C491.52 380.928 380.928 491.52 245.76 491.52C110.592 491.52 0 380.928 0 245.76C0 110.592 110.592 0 245.76 0Z" fill="url(#paint1_linear_317_1151)"/>
<path fill-rule="evenodd" clip-rule="evenodd" d="M245.76 0C380.928 0 491.52 110.592 491.52 245.76C491.52 380.928 380.928 491.52 245.76 491.52C110.592 491.52 0 380.928 0 245.76C0 110.592 110.592 0 245.76 0Z" fill="url(#paint2_linear_317_1151)"/>
<path fill-rule="evenodd" clip-rule="evenodd" d="M191.564 303.758L110.903 380.16H204.541L234.393 342.859L191.564 303.758Z" fill="#FFFFFE"/>
<path fill-rule="evenodd" clip-rule="evenodd" d="M296.536 275.002L240.981 344.422C240.969 344.436 240.958 344.45 240.946 344.466L212.376 380.16H380.617L296.536 275.002Z" fill="#FFFFFE"/>
<path fill-rule="evenodd" clip-rule="evenodd" d="M136.25 214.701C138.222 215.037 140.179 214.549 141.759 213.322C143.341 212.097 144.304 210.324 144.47 208.331L146.575 183.056C146.613 182.601 146.85 182.19 147.222 181.929L164.678 169.676C164.937 169.494 165.24 169.399 165.558 169.399C165.805 169.399 166.051 169.459 166.267 169.572C166.776 169.838 167.089 170.361 167.086 170.937L166.72 224.479C166.72 224.598 166.704 224.717 166.673 224.839L150.068 289.291C148.959 293.596 151.26 298.016 155.425 299.576C156.424 299.95 157.453 300.136 158.477 300.136C159.853 300.136 161.217 299.8 162.485 299.137C164.699 297.978 166.256 296.008 166.869 293.584L182.594 231.453C182.704 231.022 182.993 230.662 183.386 230.462C183.782 230.263 184.245 230.244 184.655 230.41L202.377 237.63C202.963 237.868 203.336 238.432 203.329 239.065L203.067 261.879C203.02 265.965 206.044 269.406 210.098 269.882C212.286 270.139 214.422 269.508 216.114 268.102C217.808 266.697 218.823 264.714 218.975 262.518L221.22 229.843C221.363 227.724 220.165 225.705 218.236 224.817L191.066 212.324C190.534 212.079 190.184 211.542 190.177 210.956L189.816 183.425C189.809 182.867 190.105 182.349 190.588 182.074C191.072 181.798 191.669 181.806 192.144 182.097L206.364 190.777C207.349 191.379 208.431 191.769 209.58 191.937L232.185 195.22C234.49 195.556 236.82 194.874 238.585 193.348C240.345 191.824 241.355 189.615 241.355 187.286C241.355 183.36 238.546 180.036 234.677 179.381L209.954 175.198C209.648 175.146 209.368 175.006 209.144 174.787L186.093 152.379C180.075 146.531 170.772 145.855 163.972 150.774L136.228 170.848C134.17 172.337 132.88 174.644 132.688 177.176L130.397 207.207C130.118 210.864 132.635 214.085 136.25 214.701Z" fill="#FFFFFE"/>
<path fill-rule="evenodd" clip-rule="evenodd" d="M193.167 124.113C191.824 115.836 184.025 110.215 175.748 111.559C167.471 112.902 161.85 120.701 163.193 128.978C164.536 137.255 172.335 142.876 180.612 141.533C188.89 140.189 194.51 132.39 193.167 124.113Z" fill="#FFFFFE"/>
<path fill-rule="evenodd" clip-rule="evenodd" d="M299.596 269.033V210.689V205.619H355.429L327.563 179.64L355.429 153.662H299.596V147.847C299.596 146.156 298.226 144.788 296.537 144.788C294.846 144.788 293.478 146.157 293.478 147.847V158.167V207.63V269.029L299.596 269.033Z" fill="#FFFFFE"/>
</g>
<defs>
<linearGradient id="paint0_linear_317_1151" x1="78" y1="404" x2="455.5" y2="79.5" gradientUnits="userSpaceOnUse">
<stop offset="0.107919" stop-color="#3A3D84"/>
<stop offset="0.447384" stop-color="#945CCC"/>
<stop offset="0.948021" stop-color="#FFD0B6"/>
</linearGradient>
<linearGradient id="paint1_linear_317_1151" x1="78" y1="404" x2="455.5" y2="79.5" gradientUnits="userSpaceOnUse">
<stop offset="0.107919" stop-color="#3A3D84"/>
<stop offset="0.447384" stop-color="#945CCC"/>
<stop offset="0.948021" stop-color="#FFD0B6"/>
</linearGradient>
<linearGradient id="paint2_linear_317_1151" x1="78" y1="404" x2="455.5" y2="79.5" gradientUnits="userSpaceOnUse">
<stop offset="0.107919" stop-color="#3A3D84"/>
<stop offset="0.447384" stop-color="#945CCC"/>
<stop offset="0.948021" stop-color="#FFD0B6"/>
</linearGradient>
<clipPath id="clip0_317_1151">
<rect width="491.52" height="491.52" fill="white"/>
</clipPath>
</defs>
</svg>
