<svg width="801" height="651" viewBox="0 0 801 651" fill="none" xmlns="http://www.w3.org/2000/svg">
<path d="M570.775 99.9356C588.183 84.908 609.275 80.5471 609.275 80.5471C611.062 66.5462 607.662 33.7722 607.662 33.7722L605.639 18.6245C657.365 38.8889 679.572 80.7263 679.572 80.7263C752.761 133.9 741.176 221.088 741.176 221.088C760.639 467.411 573.055 517.463 564.545 521.871C496.753 556.971 370.2 536.297 370.2 536.297C288.999 516.019 265.635 486.396 265.635 486.396C243.48 460.175 202.938 449.287 202.938 449.287C161.954 442.701 135.564 467.299 135.564 467.299C91.036 521.622 124.718 575.345 124.718 575.345C160.006 628.813 224.858 586.263 224.858 586.263C246.219 614.733 195.016 632.156 195.016 632.156C50.9625 635.405 73.4124 497.669 73.4124 497.669C77.0499 427.565 157.569 395.052 157.569 395.052C217.596 374.935 229.956 397.686 229.956 397.686C228.449 339.806 250.476 306.152 250.476 306.152C246.822 266.884 216.776 241.954 216.776 241.954C215.131 207.252 234.821 186.654 234.821 186.654C259.469 107.492 274.373 82.4228 274.373 82.4228C303.016 66.1541 313.415 85.7278 313.415 85.7278C297.601 111.292 285.69 156.188 285.69 156.188L356.588 88.458C372.431 76.2795 368.025 89.6044 368.025 89.6044C362.537 108.261 326.92 160.821 326.92 160.821L305.717 208.262C304.637 217.693 308.321 218.551 308.321 218.551C339.927 229.861 345.275 247.469 345.275 247.469C358.35 278.939 385.073 296.124 385.073 296.124C400.427 311.817 414.227 312.77 414.227 312.77C404.89 261.8 405.32 264.216 405.32 264.216C390.045 245.032 397.878 219.28 397.878 219.28C405.183 209.466 413.822 217.382 413.822 217.382C420.368 203.871 434.423 215.172 434.423 215.172C443.233 205.086 452.472 226.023 452.472 226.023C458.388 247.187 451.064 261.346 451.064 261.346C447.394 278.064 458.428 294.939 458.428 294.939C467.035 305.412 476.876 306.092 476.876 306.092C516.336 303.586 549.081 282.842 549.081 282.842C553.847 278.063 547.66 272.34 547.66 272.34C521.596 254.852 516.385 233.656 516.385 233.656C509.415 221.876 511.911 211.582 511.911 211.582C499.316 201.578 492.805 186.669 492.805 186.669C494.643 178.099 486.683 163.661 486.683 163.661C480.227 159.631 479.85 156.593 479.85 156.593C468.835 157.822 466.102 151.022 466.102 151.022C465.439 139.869 472.759 138.996 472.759 138.996C486.321 136.608 493.601 145.794 493.601 145.794C506.313 150.053 515.284 159.49 515.284 159.49C518.934 151.744 513.078 140.744 512.38 138.243C507.39 120.351 493.716 99.4271 486.288 88.8998C483.301 84.6684 481.314 82.1189 481.314 82.1189C495.519 75.182 561.19 96.7515 570.775 99.9356Z" fill="url(#paint0_linear_302_1366)"/>
<path d="M383.819 223.383C384.041 222.859 384.262 222.33 384.504 221.807C385.317 220.041 385.997 218.208 386.957 216.522C387.01 216.425 385.31 220.858 386.301 221.003C387.344 221.157 388.608 216.441 388.374 216.27C387.818 215.884 387.164 218.605 387.207 217.932C387.395 215.273 387.795 214.44 388.557 211.873C388.761 211.191 389.867 209.7 389.168 209.825C387.622 210.099 387.919 214.908 387.818 215.884C387.765 216.385 387.104 217.466 387.596 217.378C389.674 217.009 390.447 207.419 389.686 207.308C388.612 207.151 386.465 215.356 386.021 216.688C385.173 219.229 384.056 221.231 384.42 221.338C386.479 221.948 390.979 207.386 390.075 206.754C389.043 206.035 388.94 207.914 387.918 211.017C386.758 214.55 384.936 218.069 384.504 221.807C384.446 222.283 384.282 223.301 384.755 223.217C385.247 223.13 384.85 222.213 384.977 221.723C385.229 220.688 385.578 219.677 385.883 218.653C387.071 214.651 388.701 210.91 389.602 206.838C389.789 206.002 389.965 205.164 390.12 204.322C390.214 203.827 389.935 202.539 390.341 202.827C390.874 203.194 390.63 207.018 390.621 207.142" fill="#F1E1B3"/>
<path d="M383.819 223.383C384.041 222.859 384.262 222.33 384.504 221.807M384.504 221.807C385.317 220.041 385.997 218.208 386.957 216.522C387.01 216.425 385.31 220.858 386.301 221.003C387.344 221.157 388.608 216.441 388.374 216.27C387.818 215.884 387.164 218.605 387.207 217.932C387.395 215.273 387.795 214.44 388.557 211.873C388.761 211.191 389.867 209.7 389.168 209.825C387.622 210.099 387.919 214.908 387.818 215.884C387.765 216.385 387.104 217.466 387.596 217.378C389.674 217.009 390.447 207.419 389.686 207.308C388.612 207.151 386.465 215.356 386.021 216.688C385.173 219.229 384.056 221.231 384.42 221.338C386.479 221.948 390.979 207.386 390.075 206.754C389.043 206.035 388.94 207.914 387.918 211.017C386.758 214.55 384.936 218.069 384.504 221.807ZM384.504 221.807C384.446 222.283 384.282 223.301 384.755 223.217C385.247 223.13 384.85 222.213 384.977 221.723C385.229 220.688 385.578 219.677 385.883 218.653C387.071 214.651 388.701 210.91 389.602 206.838C389.789 206.002 389.965 205.164 390.12 204.322C390.214 203.827 389.935 202.539 390.341 202.827C390.874 203.194 390.63 207.018 390.621 207.142" stroke="white" stroke-miterlimit="10" stroke-linecap="round" stroke-linejoin="round"/>
<path d="M388.016 212.939C387.282 212.924 386.079 213.532 385.825 212.844C385.39 211.711 386.371 210.485 386.648 209.304C387.193 206.944 387.717 204.575 388.294 202.222C388.501 201.39 387.995 203.912 387.776 204.739C387.219 206.8 386.479 208.81 385.954 210.882C384.701 215.891 383.527 221.742 382.987 226.926C382.894 227.888 382.134 229.442 383.025 229.829C383.808 230.176 384.874 227.029 385.478 224.544C385.972 222.468 388.81 207.926 387.638 206.702C386.926 205.956 385.799 209.098 385.491 210.964C385.348 211.815 384.212 226.166 387.359 224.21C389.27 223.021 392.411 207.041 391.315 205.564C390.889 204.993 390.855 206.914 390.705 207.612C390.504 208.597 390.275 209.592 390.271 210.599C390.27 211.394 391.237 212.376 390.689 212.949C390.071 213.591 388.913 212.957 388.016 212.939Z" fill="#F1E1B3" stroke="white" stroke-miterlimit="10" stroke-linecap="round" stroke-linejoin="round"/>
<path d="M486.091 83.3883C515.267 121.181 531.553 188.837 531.553 188.837C600.145 193.423 615.857 128.925 615.857 128.925C594.405 96.5941 483.567 81.8787 483.567 81.8787" fill="white"/>
<path d="M610.442 44.2106L606.659 19.4496C623.271 25.3089 640.561 39.4341 640.561 39.4341L619.501 32.3203L610.442 44.2106Z" fill="white"/>
<path d="M467.91 152.392C465.02 144.139 471.139 139.823 471.139 139.823C485.228 137.091 492.594 145.9 492.594 145.9C501.231 155.456 490.33 164.527 490.33 164.527C482.575 160.612 480.83 155.536 480.83 155.536C469.519 156.413 470.739 154.082 470.739 154.082C467.694 152.72 467.91 152.392 467.91 152.392Z" fill="white"/>
<path d="M408.307 270.108L402.255 255.662C398.871 250.681 397.487 244.897 397.152 239.415C396.957 236.377 397.093 233.431 397.372 230.769C398.097 223.996 399.818 219.053 399.818 219.053C407.552 212.281 412.591 218.686 412.591 218.686L413.746 219.354C421.746 203.967 434.953 217.634 434.953 217.634C443.064 206.99 449.875 223.243 449.875 223.243C457.309 242.262 452.137 256.587 452.137 256.587C428.38 235.852 408.307 270.108 408.307 270.108Z" fill="white"/>
<path d="M417.757 538.546C410.49 531.55 416.192 530.394 416.192 530.394C461.892 508.12 494.577 506.807 533.294 524.736C541.704 528.624 524.461 532.584 524.461 532.584C485.411 542.879 417.757 538.546 417.757 538.546Z" fill="white"/>
<path d="M418.923 330.953C422.358 323.251 431.762 329.815 431.762 329.815C451.162 346.268 452.29 371.918 452.29 371.918C450.746 379.971 442.942 376.812 442.942 376.812C422.489 362.148 425.419 359.373 425.419 359.373L418.923 330.953Z" fill="white"/>
<path d="M482.104 309.506L521.125 335.544C534.706 320.525 561.497 309.031 561.497 309.031C568.115 299.694 568.401 300.158 568.401 300.158C567.002 291.778 556.355 290.851 556.355 290.851C539.255 291.904 482.104 309.506 482.104 309.506Z" fill="white"/>
<path d="M461.167 396.936L424.902 362.92L415.494 317.264C406.176 312.443 394.179 315.175 394.179 315.175C371.955 324.409 375.598 385.885 375.598 385.885C416.158 399.259 457.16 399.134 457.16 399.134" fill="white"/>
<path d="M515.884 154.98C507.542 178.096 510.873 205.341 511.958 213.217M544.101 270.485C551.17 275.4 561.865 280.995 561.865 280.995C627.109 305.482 671.307 271.923 671.307 271.923" stroke="white" stroke-miterlimit="10" stroke-linecap="round" stroke-linejoin="round"/>
<path d="M604.152 306.951C593.692 297.079 558.082 309.532 558.082 309.532" stroke="white" stroke-miterlimit="10" stroke-linecap="round" stroke-linejoin="round"/>
<path d="M456.481 393.262L501.463 426.547C530.485 431.994 564.729 422.829 564.729 422.829" stroke="white" stroke-miterlimit="10" stroke-linecap="round" stroke-linejoin="round"/>
<path d="M389.02 400.294C389.02 400.294 379.276 393.748 377.704 387.758C376.427 382.892 361.046 370.222 361.046 370.222C338.89 362.162 322.765 344.825 322.765 344.825C315.438 313.959 311.713 283.217 311.713 283.217C290.951 262.364 278.174 248.453 278.174 248.453C276.628 239.335 272.062 218.833 274.98 202.675C279.861 175.653 288.347 147.705 288.347 147.705" stroke="white" stroke-miterlimit="10" stroke-linejoin="round"/>
<path d="M283.76 77.3908L280.952 85.1623" stroke="white" stroke-width="3.5" stroke-miterlimit="10" stroke-linecap="round" stroke-linejoin="round"/>
<path d="M294.155 75.6379L291.04 83.1308" stroke="white" stroke-width="3.5" stroke-miterlimit="10" stroke-linecap="round" stroke-linejoin="round"/>
<path d="M303.818 77.5051L300.026 85.0402" stroke="white" stroke-width="3.5" stroke-miterlimit="10" stroke-linecap="round" stroke-linejoin="round"/>
<path d="M310.782 84.3424L305.597 91.4357" stroke="white" stroke-width="3.5" stroke-miterlimit="10" stroke-linecap="round" stroke-linejoin="round"/>
<path d="M364.559 88.9014L356.876 97.5591" stroke="white" stroke-miterlimit="10" stroke-linejoin="round"/>
<path d="M366.08 94.3138L360.43 102.126" stroke="white" stroke-miterlimit="10" stroke-linejoin="round"/>
<path d="M421.631 83.9364C403.158 111.195 387.041 128.402 364.47 152.381C344.174 173.949 316.896 187.672 293.107 205.317C344.269 254.923 344.269 254.923 395.434 304.529C400.339 297.499 406.487 293.229 409.27 285.117C410.373 281.894 407.172 268.576 405.562 264.895C402.841 258.674 399.205 252.732 397.643 245.206C394.015 227.714 398.049 208.932 413.764 218.083C419.434 208.561 428.792 208.691 434.773 216.167C442.901 205.558 448.2 221.424 452.792 228.51C479.142 203.051 479.64 198.828 506 173.367C504.563 171.743 487.247 153.755 487.247 153.755C478.965 159.103 469.782 155.383 467.745 152.55C463.63 146.831 469.346 139.791 474.681 139.005C456.436 119.283 448.89 118.654 421.631 83.9364Z" fill="white" stroke="#7D3AA6" stroke-miterlimit="10" stroke-linejoin="round"/>
<path d="M292.878 207.079L288.579 216.745L386.111 319.155L393.85 305.787L292.878 207.079Z" stroke="white" stroke-miterlimit="10" stroke-linejoin="round"/>
<path d="M300.114 207.343L306.024 203.283L340.028 179.932" stroke="#7D3AA6" stroke-miterlimit="10" stroke-linejoin="round"/>
<path d="M347.282 175.045L367.63 157.87" stroke="#7D3AA6" stroke-miterlimit="10" stroke-linejoin="round"/>
<path d="M391.725 228.885L355.515 253.194L394.023 288.592L407.772 269.326C407.738 269.188 407.706 269.067 407.671 268.93C407.66 268.924 407.668 268.909 407.666 268.9C406.899 267.558 405.704 264.49 404.508 261.304C404.08 260.555 404.165 260.579 403.462 259.363C402.758 258.146 402.271 257.295 401.791 256.423C399.324 251.917 397.925 248.448 397.598 244.949C397.494 243.85 397.443 242.765 397.391 241.272C397.378 241.029 397.372 240.767 397.356 240.389C397.35 240.355 397.283 240.149 397.277 240.118C397.273 240.094 397.168 239.504 397.162 239.472C396.944 238.359 396.762 237.393 396.615 236.395C396.434 235.151 396.353 234.062 396.351 233.141C396.357 233.115 396.374 233.098 396.37 233.074L391.725 228.885Z" stroke="#7D3AA6" stroke-miterlimit="10" stroke-linejoin="round"/>
<path d="M361.995 259.159L395.692 233.433" stroke="#7D3AA6" stroke-miterlimit="10" stroke-linejoin="round"/>
<path d="M372.783 268.761L397.407 241.648" stroke="#7D3AA6" stroke-miterlimit="10" stroke-linejoin="round"/>
<path d="M384.449 280.393L401.529 255.691" stroke="#7D3AA6" stroke-miterlimit="10" stroke-linejoin="round"/>
<path d="M363.357 248.46L398.876 281.783" stroke="#7D3AA6" stroke-miterlimit="10" stroke-linejoin="round"/>
<path d="M370.571 243.64L404.941 273.792" stroke="#7D3AA6" stroke-miterlimit="10" stroke-linejoin="round"/>
<path d="M379.485 237.79L406.103 265.137" stroke="#7D3AA6" stroke-miterlimit="10" stroke-linejoin="round"/>
<path d="M385.605 233.366L397.574 244.529" stroke="#7D3AA6" stroke-miterlimit="10" stroke-linejoin="round"/>
<path d="M385.512 265.234L384.805 260.97L390.523 266.169" stroke="#7D3AA6" stroke-miterlimit="10" stroke-linejoin="round"/>
<path d="M381.68 249.393L382.642 245.44L386.669 250.948" stroke="#7D3AA6" stroke-miterlimit="10" stroke-linejoin="round"/>
<path d="M389.796 255.799L392.782 260.709L396.441 257.978L391.32 253.116" stroke="#7D3AA6" stroke-miterlimit="10" stroke-linejoin="round"/>
<path d="M390.013 255.929L391.373 253.466" stroke="#7D3AA6" stroke-miterlimit="10" stroke-linejoin="round"/>
<path d="M388.15 280.296L393.314 284.265L395.147 282.406L390.098 277.769L388.15 280.296Z" stroke="#7D3AA6" stroke-miterlimit="10" stroke-linejoin="round"/>
<path d="M377.548 270.081L383.297 274.882L385.442 271.978L379.935 266.371L377.548 270.081Z" stroke="#7D3AA6" stroke-miterlimit="10" stroke-linejoin="round"/>
<path d="M369.318 262.904L368.565 257.984L373.68 263.868" stroke="#7D3AA6" stroke-miterlimit="10" stroke-linejoin="round"/>
<path d="M369.418 249.776L368.842 246.311L371.964 250.5" stroke="#7D3AA6" stroke-miterlimit="10" stroke-linejoin="round"/>
<path d="M374.047 254.505L375.715 251.721L379.546 255.329L378.788 259.575L374.047 254.505Z" stroke="#7D3AA6" stroke-miterlimit="10" stroke-linejoin="round"/>
<path d="M389.647 206.802C388.397 207.375 387.386 209.395 386.948 210.704C386.914 210.798 386.29 212.429 386.779 212.324C389.039 211.84 393.847 207.004 395.268 204.998C395.763 204.301 396.897 202.968 396.852 202.029C396.846 201.767 395.487 202.405 395.304 202.46C393.432 203.013 392.193 203.815 390.945 205.365C390.156 206.352 389.39 207.361 388.706 208.425" stroke="#7D3AA6" stroke-miterlimit="10" stroke-linecap="round" stroke-linejoin="round"/>
<path d="M386.841 212.784C386.719 212.841 388.576 214.145 388.843 214.392" stroke="#7D3AA6" stroke-miterlimit="10" stroke-linecap="round" stroke-linejoin="round"/>
<path d="M397.225 202.069C397.204 202.751 398.08 203.223 398.533 203.713" stroke="#7D3AA6" stroke-miterlimit="10" stroke-linecap="round" stroke-linejoin="round"/>
<path d="M388.818 214.193C389.894 214.363 391.509 212.42 392.098 211.85C392.8 211.168 393.604 210.607 394.306 209.929C395.475 208.792 396.248 207.143 397.434 206.041" stroke="#7D3AA6" stroke-miterlimit="10" stroke-linecap="round" stroke-linejoin="round"/>
<path d="M397.965 205.376C398.023 205.303 398.081 205.228 398.149 205.153" stroke="#7D3AA6" stroke-miterlimit="10" stroke-linecap="round" stroke-linejoin="round"/>
<path d="M398.482 204.509C398.427 204.203 398.431 204.338 398.441 204.108" stroke="#7D3AA6" stroke-miterlimit="10" stroke-linecap="round" stroke-linejoin="round"/>
<path d="M388.245 212.003C388.497 212.559 388.286 212.173 389.058 213.031" stroke="#7D3AA6" stroke-miterlimit="10" stroke-linecap="round" stroke-linejoin="round"/>
<path d="M390.049 210.896C389.474 210.288 390.753 211.424 391.408 212.027" stroke="#7D3AA6" stroke-miterlimit="10" stroke-linecap="round" stroke-linejoin="round"/>
<path d="M391.787 209.187C392.107 209.44 391.868 209.24 392.39 209.893" stroke="#7D3AA6" stroke-miterlimit="10" stroke-linecap="round" stroke-linejoin="round"/>
<path d="M393.601 207.166C393.244 207.611 394.577 208.085 394.874 208.266" stroke="#7D3AA6" stroke-miterlimit="10" stroke-linecap="round" stroke-linejoin="round"/>
<path d="M395.043 205.103C395.482 205.576 395.904 206.064 396.325 206.547" stroke="#7D3AA6" stroke-miterlimit="10" stroke-linecap="round" stroke-linejoin="round"/>
<path d="M396.361 204.009C396.075 203.998 396.726 204.461 396.934 204.656" stroke="#7D3AA6" stroke-miterlimit="10" stroke-linecap="round" stroke-linejoin="round"/>
<path d="M389.948 207.926C389.685 208.046 389.634 208.445 389.81 208.691C389.959 208.899 390.28 208.479 390.474 208.316C390.953 207.92 390.886 207.433 391.118 206.968C391.637 205.944 392.173 206.443 392.943 205.574" stroke="#7D3AA6" stroke-miterlimit="10" stroke-linecap="round" stroke-linejoin="round"/>
<path d="M384.547 218.163C384.206 218.302 383.389 218.507 383.331 218.983C383.237 219.709 384.493 220.434 384.399 220.19C384.382 220.15 384.331 220.037 384.372 220.036C385.338 219.985 386.334 220.101 387.295 220.024C388.266 219.946 389.201 219.722 390.161 219.577C391.081 219.439 393.688 219.021 394.111 217.859C394.317 217.304 392.155 217.598 391.944 217.61C389.924 217.731 387.779 218.12 385.781 218.135C385.375 218.137 384.954 217.999 384.547 218.163Z" stroke="#7D3AA6" stroke-miterlimit="10" stroke-linecap="round" stroke-linejoin="round"/>
<path d="M383.519 221.294C383.187 220.795 383.225 219.985 383.256 219.416" stroke="#7D3AA6" stroke-miterlimit="10" stroke-linecap="round" stroke-linejoin="round"/>
<path d="M383.465 221.678C386.026 223.115 390.239 223.103 392.778 221.386" stroke="#7D3AA6" stroke-miterlimit="10" stroke-linecap="round" stroke-linejoin="round"/>
<path d="M393.054 221.626C393.689 221.196 393.892 220.338 394.238 219.658" stroke="#7D3AA6" stroke-miterlimit="10" stroke-linecap="round" stroke-linejoin="round"/>
<path d="M386.188 221.969C386.373 221.638 386.256 221.891 386.325 221.139" stroke="#7D3AA6" stroke-miterlimit="10" stroke-linecap="round" stroke-linejoin="round"/>
<path d="M388.321 222.426C388.82 222.089 388.485 221.234 388.5 220.635" stroke="#7D3AA6" stroke-miterlimit="10" stroke-linecap="round" stroke-linejoin="round"/>
<path d="M390.522 222.177C390.783 221.702 390.664 221.094 390.699 220.546" stroke="#7D3AA6" stroke-miterlimit="10" stroke-linecap="round" stroke-linejoin="round"/>
<path d="M392.628 221.798C392.842 221.918 392.642 221.305 392.629 221.059C392.587 220.37 392.689 219.685 392.638 219" stroke="#7D3AA6" stroke-miterlimit="10" stroke-linecap="round" stroke-linejoin="round"/>
<path d="M386.888 218.82C386.748 218.946 386.471 219.103 387.028 219.149C388.182 219.241 388.965 219.134 390.01 218.841" stroke="#7D3AA6" stroke-miterlimit="10" stroke-linecap="round" stroke-linejoin="round"/>
<path d="M362.813 154.197L368.328 159.11L427.246 211.652" stroke="#7D3AA6" stroke-miterlimit="10" stroke-linejoin="round"/>
<path d="M366.464 151.997L436.886 214.627M450.748 226.955L451.014 227.192" stroke="#7D3AA6" stroke-miterlimit="10" stroke-linejoin="round"/>
<path d="M310.342 211.065C311.304 210.401 311.989 209.253 313.105 208.906C314.134 208.585 314.268 211.28 315.018 210.588C317.703 208.104 319.365 204.892 322.136 202.416C323.584 201.124 323.496 202.743 325.041 201.912C326.729 201.002 327.327 199.297 328.691 198.139C330.381 196.703 332.376 196.343 334.124 195.136" stroke="#7D3AA6" stroke-miterlimit="10" stroke-linecap="round" stroke-linejoin="round"/>
<path d="M342.78 186.654C343.301 185.091 342.823 185.872 344.63 184.625" stroke="#7D3AA6" stroke-miterlimit="10" stroke-linecap="round" stroke-linejoin="round"/>
<path d="M357.359 177.332C356.66 176.946 359.253 175.303 361.521 173.207C362.446 172.352 363.445 170.888 364.792 170.697" stroke="#7D3AA6" stroke-miterlimit="10" stroke-linecap="round" stroke-linejoin="round"/>
<path d="M324.994 223.216C324.99 222.987 324.952 221.532 325.021 221.445C325.884 220.358 327.039 219.538 328.058 218.596C328.971 217.751 329.939 216.644 331.043 216.033C331.762 215.636 332.85 215.696 333.427 215.137C335.507 213.122 336.966 211.191 339.332 209.557" stroke="#7D3AA6" stroke-miterlimit="10" stroke-linecap="round" stroke-linejoin="round"/>
<path d="M351.819 197.928C353.255 196.017 356.795 196.137 358.034 193.883" stroke="#7D3AA6" stroke-miterlimit="10" stroke-linecap="round" stroke-linejoin="round"/>
<path d="M362.807 188.835C363.923 187.343 365.891 186.758 367.141 185.338C369.322 182.864 371.8 179.034 375.132 178.065" stroke="#7D3AA6" stroke-miterlimit="10" stroke-linecap="round" stroke-linejoin="round"/>
<path d="M336.414 236.848C336.127 236.796 335.401 236.939 335.554 236.692C336.255 235.558 337.403 234.772 338.304 233.79C340.073 231.865 341.627 229.738 343.52 227.936C343.89 227.583 345.091 227.85 345.682 227.443" stroke="#7D3AA6" stroke-miterlimit="10" stroke-linecap="round" stroke-linejoin="round"/>
<path d="M351.352 221.524C352.232 220.353 353.326 219.623 354.624 219.013" stroke="#7D3AA6" stroke-miterlimit="10" stroke-linecap="round" stroke-linejoin="round"/>
<path d="M366.078 207.344C367.791 205.498 369.713 204.541 371.607 203.025C373.589 201.435 374.734 199.365 376.833 197.913" stroke="#7D3AA6" stroke-miterlimit="10" stroke-linecap="round" stroke-linejoin="round"/>
<path d="M378.645 196.911C379.983 195.127 383.184 191.246 385.512 190.916" stroke="#7D3AA6" stroke-miterlimit="10" stroke-linecap="round" stroke-linejoin="round"/>
<path d="M344.508 242.769C344.159 242.264 344.937 241.564 345.395 241.155" stroke="#7D3AA6" stroke-miterlimit="10" stroke-linecap="round" stroke-linejoin="round"/>
<path d="M352.042 235.562C353.849 233.693 352.838 234.277 354.922 233.573" stroke="#7D3AA6" stroke-miterlimit="10" stroke-linecap="round" stroke-linejoin="round"/>
<path d="M366.168 223.048C368.08 219.576 374.307 216.671 377.5 213.721C378.992 212.342 379.314 210.215 381.015 209.038" stroke="#7D3AA6" stroke-miterlimit="10" stroke-linecap="round" stroke-linejoin="round"/>
<path d="M352.254 245.488C354.428 243.957 353.238 244.737 355.847 243.185" stroke="#7D3AA6" stroke-miterlimit="10" stroke-linecap="round" stroke-linejoin="round"/>
<path d="M364.436 238.157C363.781 238.354 363.126 238.55 362.471 238.747C361.816 238.944 365.091 237.96 364.436 238.157Z" stroke="#7D3AA6" stroke-miterlimit="10" stroke-linecap="round" stroke-linejoin="round"/>
<path d="M376.394 232.117C376.464 229.828 376.345 230.873 376.677 228.972" stroke="#7D3AA6" stroke-miterlimit="10" stroke-linecap="round" stroke-linejoin="round"/>
<path d="M378.128 149.621C377.381 148.958 377.602 149.404 378.363 148.143" stroke="#7D3AA6" stroke-miterlimit="10" stroke-linecap="round" stroke-linejoin="round"/>
<path d="M384.367 139.068L386.365 138.535" stroke="#7D3AA6" stroke-miterlimit="10" stroke-linecap="round" stroke-linejoin="round"/>
<path d="M389.583 134.188L391.661 131.132" stroke="#7D3AA6" stroke-miterlimit="10" stroke-linecap="round" stroke-linejoin="round"/>
<path d="M395.92 126.637C396.782 125.149 397.923 123.74 399.334 122.764" stroke="#7D3AA6" stroke-miterlimit="10" stroke-linecap="round" stroke-linejoin="round"/>
<path d="M400.332 121.807C401.841 118.242 403.507 116.245 406.915 114.158" stroke="#7D3AA6" stroke-miterlimit="10" stroke-linecap="round" stroke-linejoin="round"/>
<path d="M388.448 157.333L428.493 105.964L454.434 135.838L412.243 185.311L383.284 163.023" stroke="#7D3AA6" stroke-miterlimit="10" stroke-linejoin="round"/>
<path d="M392.049 153.936L417.591 178.717" stroke="#7D3AA6" stroke-miterlimit="10" stroke-linejoin="round"/>
<path d="M402.716 142.696L426.921 168.295" stroke="#7D3AA6" stroke-miterlimit="10" stroke-linejoin="round"/>
<path d="M411.888 129.847L437.485 156.819" stroke="#7D3AA6" stroke-miterlimit="10" stroke-linejoin="round"/>
<path d="M419.457 119.862L444.961 146.596" stroke="#7D3AA6" stroke-miterlimit="10" stroke-linejoin="round"/>
<path d="M390.16 167.705L433.243 115.656" stroke="#7D3AA6" stroke-miterlimit="10" stroke-linejoin="round"/>
<path d="M401.571 174.698L443.732 127.175" stroke="#7D3AA6" stroke-miterlimit="10" stroke-linejoin="round"/>
<path d="M430.958 188.716C430.433 189.246 428.163 191.676 428.661 190.418C429.991 186.989 434.017 178.386 438.844 178.343" stroke="#7D3AA6" stroke-miterlimit="10" stroke-linecap="round" stroke-linejoin="round"/>
<path d="M445.115 174.08C445.672 173.444 446.229 172.808 446.776 172.173" stroke="#7D3AA6" stroke-miterlimit="10" stroke-linecap="round" stroke-linejoin="round"/>
<path d="M459.483 158.81C460.002 157.213 463.249 154.738 465.802 153.105" stroke="#7D3AA6" stroke-miterlimit="10" stroke-linecap="round" stroke-linejoin="round"/>
<path d="M439.945 206.295C440.407 202.272 447.736 194.536 451.85 197.566" stroke="#7D3AA6" stroke-miterlimit="10" stroke-linecap="round" stroke-linejoin="round"/>
<path d="M460.588 187.815L463.507 185.265" stroke="#7D3AA6" stroke-miterlimit="10" stroke-linecap="round" stroke-linejoin="round"/>
<path d="M469.34 179.114C468.484 177.44 468.281 178.072 469.957 177.216" stroke="#7D3AA6" stroke-miterlimit="10" stroke-linecap="round" stroke-linejoin="round"/>
<path d="M448.02 215.894C447.461 216.179 445.976 217.254 446.344 216.75C451.137 210.236 457.589 204.878 463.212 199.145" stroke="#7D3AA6" stroke-miterlimit="10" stroke-linecap="round" stroke-linejoin="round"/>
<path d="M469.497 195.932C475.087 190.24 479.389 184.677 485.541 179.807" stroke="#7D3AA6" stroke-miterlimit="10" stroke-linecap="round" stroke-linejoin="round"/>
<path d="M290.858 215.889C293.242 216.062 295.855 220.102 296.964 221.404C300.378 225.41 303.869 229.578 307.929 232.949C309.663 234.387 311.18 236.112 313.053 237.409C314.457 238.38 316.068 238.913 317.405 239.996C319.461 241.66 321.203 243.692 323.135 245.483C329.381 251.272 336.511 256.128 342.831 261.827C345.069 263.845 347.85 265.093 350.095 267.048C352.941 269.525 355.238 273.101 357.772 275.931C360.638 279.132 364.311 281.553 367.359 284.576C371.174 288.359 373.978 292.438 378.689 295.239C380.029 296.031 380.842 297.463 382.103 298.212C383.42 298.996 385.527 299.308 386.487 300.423C386.794 300.778 388.43 302.835 388.506 301.78" fill="white"/>
<path d="M290.858 215.889C293.242 216.062 295.855 220.102 296.964 221.404C300.378 225.41 303.869 229.578 307.929 232.949C309.663 234.387 311.18 236.112 313.053 237.409C314.457 238.38 316.068 238.913 317.405 239.996C319.461 241.66 321.203 243.692 323.135 245.483C329.381 251.272 336.511 256.128 342.831 261.827C345.069 263.845 347.85 265.093 350.095 267.048C352.941 269.525 355.238 273.101 357.772 275.931C360.638 279.132 364.311 281.553 367.359 284.576C371.174 288.359 373.978 292.438 378.689 295.239C380.029 296.031 380.842 297.463 382.103 298.212C383.42 298.996 385.527 299.308 386.487 300.423C386.794 300.778 388.43 302.835 388.506 301.78" stroke="#7D3AA6" stroke-miterlimit="10" stroke-linecap="round" stroke-linejoin="round"/>
<path d="M296.751 216.015C296.151 215.493 295.921 214.657 295.539 213.96C295.458 213.811 295.635 214.289 295.732 214.428C295.935 214.72 296.192 214.97 296.429 215.235C296.869 215.726 297.299 216.225 297.761 216.695C298.451 217.395 299.178 218.056 299.882 218.741C301.668 220.478 303.736 222.497 305.456 224.293C311.039 230.121 316.448 235.622 323.143 240.187C326.841 242.709 330.697 245.254 333.977 248.317C335.807 250.024 337.045 252.028 338.643 253.878C340.574 256.113 343.352 257.676 345.567 259.604C347.541 261.322 349.052 263.472 350.984 265.221C357.739 271.332 364.62 277.702 370.774 284.446C372.083 285.88 372.774 287.961 373.805 289.586C376.131 293.244 380.526 295.286 382.585 298.928C383.874 301.206 383.609 304.455 385.201 306.611C385.762 307.369 390.641 309.445 390.102 310.069" fill="white"/>
<path d="M296.751 216.015C296.151 215.493 295.921 214.657 295.539 213.96C295.458 213.811 295.635 214.289 295.732 214.428C295.935 214.72 296.192 214.97 296.429 215.235C296.869 215.726 297.299 216.225 297.761 216.695C298.451 217.395 299.178 218.056 299.882 218.741C301.668 220.478 303.736 222.497 305.456 224.293C311.039 230.121 316.448 235.622 323.143 240.187C326.841 242.709 330.697 245.254 333.977 248.317C335.807 250.024 337.045 252.028 338.643 253.878C340.574 256.113 343.352 257.676 345.567 259.604C347.541 261.322 349.052 263.472 350.984 265.221C357.739 271.332 364.62 277.702 370.774 284.446C372.083 285.88 372.774 287.961 373.805 289.586C376.131 293.244 380.526 295.286 382.585 298.928C383.874 301.206 383.609 304.455 385.201 306.611C385.762 307.369 390.641 309.445 390.102 310.069" stroke="#7D3AA6" stroke-miterlimit="10" stroke-linecap="round" stroke-linejoin="round"/>
<path d="M295.073 220.358C296.02 222.656 298.025 224.128 299.582 225.984C300.977 227.648 302.287 229.382 303.678 231.05C307.291 235.385 310.824 239.493 314.964 243.375C318.93 247.093 323.508 250.11 327.608 253.68C331.55 257.111 334.647 261.197 338.132 265.041C340.224 267.348 342.747 269.193 344.69 271.649C346.222 273.585 345.622 273.358 347.104 274.852C349.41 277.175 352.325 278.91 354.662 281.229C357.044 283.591 358.515 286.702 360.98 289.03C365.587 293.381 370.858 296.623 375.057 301.482C377.12 303.869 379.208 306.208 381.277 308.594C381.689 309.08 382.105 310.105 382.73 310.367C383.925 310.86 385.508 311.309 386.549 312.081C387.053 312.456 388.783 313.448 389.065 313.78C389.256 313.997 388.971 314.733 389.236 314.623C389.302 314.597 389.903 310.896 390.331 311.07C390.792 311.266 390.508 312.126 390.305 312.357" fill="white"/>
<path d="M295.073 220.358C296.02 222.656 298.025 224.128 299.582 225.984C300.977 227.648 302.287 229.382 303.678 231.05C307.291 235.385 310.824 239.493 314.964 243.375C318.93 247.093 323.508 250.11 327.608 253.68C331.55 257.111 334.647 261.197 338.132 265.041C340.224 267.348 342.747 269.193 344.69 271.649C346.222 273.585 345.622 273.358 347.104 274.852C349.41 277.175 352.325 278.91 354.662 281.229C357.044 283.591 358.515 286.702 360.98 289.03C365.587 293.381 370.858 296.623 375.057 301.482C377.12 303.869 379.208 306.208 381.277 308.594C381.689 309.08 382.105 310.105 382.73 310.367C383.925 310.86 385.508 311.309 386.549 312.081C387.053 312.456 388.783 313.448 389.065 313.78C389.256 313.997 388.971 314.733 389.236 314.623C389.302 314.597 389.903 310.896 390.331 311.07C390.792 311.266 390.508 312.126 390.305 312.357" stroke="#7D3AA6" stroke-miterlimit="10" stroke-linecap="round" stroke-linejoin="round"/>
<path d="M292.738 212.923C292.224 213.514 293.772 214.105 294.354 214.63C295.578 215.734 296.567 217.125 297.559 218.421C302.213 224.492 307.446 230.318 312.63 235.94C316.833 240.497 321.459 243.93 326.138 247.897C328.543 249.937 330.511 252.459 332.759 254.66C337.657 259.457 343.217 263.679 348.26 268.352C353.929 273.607 360.316 277.978 365.936 283.337C369.304 286.549 371.354 290.886 374.45 294.249C375.987 295.92 377.436 297.673 378.516 299.691C379.234 301.041 379.33 302.614 380.099 303.968C381.623 306.655 383.886 309.672 383.924 312.798C383.941 314.551 387.327 314.4 385.962 315.973" fill="white"/>
<path d="M292.738 212.923C292.224 213.514 293.772 214.105 294.354 214.63C295.578 215.734 296.567 217.125 297.559 218.421C302.213 224.492 307.446 230.318 312.63 235.94C316.833 240.497 321.459 243.93 326.138 247.897C328.543 249.937 330.511 252.459 332.759 254.66C337.657 259.457 343.217 263.679 348.26 268.352C353.929 273.607 360.316 277.978 365.936 283.337C369.304 286.549 371.354 290.886 374.45 294.249C375.987 295.92 377.436 297.673 378.516 299.691C379.234 301.041 379.33 302.614 380.099 303.968C381.623 306.655 383.886 309.672 383.924 312.798C383.941 314.551 387.327 314.4 385.962 315.973" stroke="#7D3AA6" stroke-miterlimit="10" stroke-linecap="round" stroke-linejoin="round"/>
<path d="M294.336 212.812C294.142 213.781 292.832 211.864 292.343 211.078C292.194 210.839 292.13 210.038 292.022 210.298C291.336 211.946 297.91 216.98 298.744 217.75C304.306 222.882 308.91 229.524 313.97 235.205C316.45 237.989 320.888 239.888 322.822 242.509C323.056 242.826 323.636 243.753 323.272 243.601C323.104 243.532 322.099 242.718 321.913 242.518C321.671 242.259 321.079 241.383 321.215 241.711C322.878 245.746 330.226 249.554 333.456 252.365C337.931 256.26 341.452 261.109 346.091 264.864C349.486 267.612 352.904 269.705 356.541 272.057C360.895 274.875 364.838 278.558 368.68 282.023C372.105 285.111 375.546 287.955 379.082 290.879C380.285 291.873 380.625 293.272 381.627 294.394C383.034 295.965 385.195 297.208 386.283 299.046C387.418 300.974 384.871 303.669 386.392 305.94C386.987 306.833 388.25 310.334 389.072 310.676C389.292 310.769 392.946 308.983 391.082 311.125" fill="white"/>
<path d="M294.336 212.812C294.142 213.781 292.832 211.864 292.343 211.078C292.194 210.839 292.13 210.038 292.022 210.298C291.336 211.946 297.91 216.98 298.744 217.75C304.306 222.882 308.91 229.524 313.97 235.205C316.45 237.989 320.888 239.888 322.822 242.509C323.056 242.826 323.636 243.753 323.272 243.601C323.104 243.532 322.099 242.718 321.913 242.518C321.671 242.259 321.079 241.383 321.215 241.711C322.878 245.746 330.226 249.554 333.456 252.365C337.931 256.26 341.452 261.109 346.091 264.864C349.486 267.612 352.904 269.705 356.541 272.057C360.895 274.875 364.838 278.558 368.68 282.023C372.105 285.111 375.546 287.955 379.082 290.879C380.285 291.873 380.625 293.272 381.627 294.394C383.034 295.965 385.195 297.208 386.283 299.046C387.418 300.974 384.871 303.669 386.392 305.94C386.987 306.833 388.25 310.334 389.072 310.676C389.292 310.769 392.946 308.983 391.082 311.125" stroke="#7D3AA6" stroke-miterlimit="10" stroke-linecap="round" stroke-linejoin="round"/>
<path d="M391.468 308.958C392.08 308.916 391.299 307.548 390.757 307.243C389.3 306.416 387.604 306.133 386.036 305.537C382.722 304.268 379.36 302.554 377.076 299.738C373.706 295.591 369.647 292.457 365.928 288.634C361.054 283.621 356.504 278.349 351.602 273.363C347.583 269.275 343.503 265.234 339.719 260.918C337.156 257.996 334.986 254.766 332.354 251.907C330.43 249.816 328.133 248.082 326.118 246.079C323.867 243.84 321.825 241.241 319.434 239.16C317.721 237.67 316.066 236.597 314.685 234.727C310.859 229.544 309.001 223.581 305.271 218.528C302.011 214.112 295.276 217.952 292.27 213.116C291.476 211.839 290.76 209.958 290.873 208.399C290.943 207.443 291.834 206.833 292.58 206.782C293.242 206.736 292.479 208.294 292.755 208.535C292.817 208.588 293.66 208.176 293.912 208.241C294.55 208.406 295.192 209.576 294.987 209.076" fill="white"/>
<path d="M391.468 308.958C392.08 308.916 391.299 307.548 390.757 307.243C389.3 306.416 387.604 306.133 386.036 305.537C382.722 304.268 379.36 302.554 377.076 299.738C373.706 295.591 369.647 292.457 365.928 288.634C361.054 283.621 356.504 278.349 351.602 273.363C347.583 269.275 343.503 265.234 339.719 260.918C337.156 257.996 334.986 254.766 332.354 251.907C330.43 249.816 328.133 248.082 326.118 246.079C323.867 243.84 321.825 241.241 319.434 239.16C317.721 237.67 316.066 236.597 314.685 234.727C310.859 229.544 309.001 223.581 305.271 218.528C302.011 214.112 295.276 217.952 292.27 213.116C291.476 211.839 290.76 209.958 290.873 208.399C290.943 207.443 291.834 206.833 292.58 206.782C293.242 206.736 292.479 208.294 292.755 208.535C292.817 208.588 293.66 208.176 293.912 208.241C294.55 208.406 295.192 209.576 294.987 209.076" stroke="#7D3AA6" stroke-miterlimit="10" stroke-linecap="round" stroke-linejoin="round"/>
<path d="M391.576 307.453C389.859 305.964 387.052 305.828 385.031 304.857C381.955 303.382 378.848 301.842 375.828 300.252C372.246 298.363 368.313 296.457 365.168 293.876C361.309 290.708 357.655 286.775 354.056 283.304C347.717 277.188 342.223 270.794 337.177 263.61C332.865 257.469 330.131 250.212 325.411 244.363C323.804 242.371 321.136 240.699 319.213 239.068C316.413 236.693 313.683 234.34 310.958 231.883C309.702 230.751 308.251 230.2 307.165 228.883C305.767 227.186 304.932 224.833 303.409 223.311C302.837 222.74 300.904 222.739 300.141 222.468C297.815 221.64 295.513 219.853 294.043 217.862C292.326 215.534 293.596 214.655 293.766 212.317C293.803 211.813 294.72 210.236 294.399 209.866C293.979 209.381 291.246 211.517 290.93 210.748C290.88 210.631 292.472 210.273 292.553 210.261C293.227 210.162 294.846 208.919 294.803 209.517" fill="white"/>
<path d="M391.576 307.453C389.859 305.964 387.052 305.828 385.031 304.857C381.955 303.382 378.848 301.842 375.828 300.252C372.246 298.363 368.313 296.457 365.168 293.876C361.309 290.708 357.655 286.775 354.056 283.304C347.717 277.188 342.223 270.794 337.177 263.61C332.865 257.469 330.131 250.212 325.411 244.363C323.804 242.371 321.136 240.699 319.213 239.068C316.413 236.693 313.683 234.34 310.958 231.883C309.702 230.751 308.251 230.2 307.165 228.883C305.767 227.186 304.932 224.833 303.409 223.311C302.837 222.74 300.904 222.739 300.141 222.468C297.815 221.64 295.513 219.853 294.043 217.862C292.326 215.534 293.596 214.655 293.766 212.317C293.803 211.813 294.72 210.236 294.399 209.866C293.979 209.381 291.246 211.517 290.93 210.748C290.88 210.631 292.472 210.273 292.553 210.261C293.227 210.162 294.846 208.919 294.803 209.517" stroke="#7D3AA6" stroke-miterlimit="10" stroke-linecap="round" stroke-linejoin="round"/>
<path d="M388.692 310.649C388.83 310.97 389.456 311.863 388.803 312.246C387.718 312.887 384.431 313.649 383.207 313.276C381.457 312.744 379.91 311.187 378.594 310.065C374.194 306.326 373.866 303.94 371.119 299.455C368.862 295.772 365.626 291.981 362.577 288.919C353.983 280.288 342.786 275.06 334.507 265.988C332.879 264.204 331.589 262.12 329.841 260.426C328.106 258.745 326.236 257.559 324.745 255.59C322.953 253.225 322.239 250.288 320.62 247.798C319.636 246.283 317.855 245.922 316.7 244.485C314.686 241.979 313.241 239.178 311.134 236.739C307.923 233.024 305.639 228.825 301.555 225.901C298.795 223.925 295.594 222.913 293.007 220.662C291.397 219.26 289.851 216.627 290.279 214.484C290.481 213.47 291.898 210.966 291.875 211.271" fill="white"/>
<path d="M388.692 310.649C388.83 310.97 389.456 311.863 388.803 312.246C387.718 312.887 384.431 313.649 383.207 313.276C381.457 312.744 379.91 311.187 378.594 310.065C374.194 306.326 373.866 303.94 371.119 299.455C368.862 295.772 365.626 291.981 362.577 288.919C353.983 280.288 342.786 275.06 334.507 265.988C332.879 264.204 331.589 262.12 329.841 260.426C328.106 258.745 326.236 257.559 324.745 255.59C322.953 253.225 322.239 250.288 320.62 247.798C319.636 246.283 317.855 245.922 316.7 244.485C314.686 241.979 313.241 239.178 311.134 236.739C307.923 233.024 305.639 228.825 301.555 225.901C298.795 223.925 295.594 222.913 293.007 220.662C291.397 219.26 289.851 216.627 290.279 214.484C290.481 213.47 291.898 210.966 291.875 211.271" stroke="#7D3AA6" stroke-miterlimit="10" stroke-linecap="round" stroke-linejoin="round"/>
<path d="M409.817 284.197C408.832 286.196 408.051 288.32 407.239 290.432L409.939 286.143C409.913 285.65 409.891 285.187 409.945 284.745C409.901 284.556 409.858 284.374 409.817 284.197ZM407.239 290.432L400.4 301.265C401.915 299.333 403.407 297.387 404.792 295.406C405.835 293.908 406.564 292.177 407.239 290.432ZM400.4 301.265C399.241 302.747 398.066 304.19 397.046 305.766C395.708 307.841 389.011 315.988 390.158 317.528L400.4 301.265Z" fill="white"/>
<path d="M407.239 290.432C408.051 288.32 408.832 286.196 409.817 284.197C409.858 284.374 409.901 284.556 409.945 284.745C409.891 285.187 409.913 285.65 409.939 286.143L407.239 290.432ZM407.239 290.432L400.4 301.265M407.239 290.432C406.564 292.177 405.835 293.908 404.792 295.406C403.407 297.387 401.915 299.333 400.4 301.265M400.4 301.265C399.241 302.747 398.066 304.19 397.046 305.766C395.708 307.841 389.011 315.988 390.158 317.528L400.4 301.265Z" stroke="#7D3AA6" stroke-miterlimit="10" stroke-linecap="round" stroke-linejoin="round"/>
<defs>
<linearGradient id="paint0_linear_302_1366" x1="46.6876" y1="388.269" x2="754.25" y2="262.456" gradientUnits="userSpaceOnUse">
<stop offset="0.28125" stop-color="#3A3D84"/>
<stop offset="0.619792" stop-color="#945CCC"/>
<stop offset="1" stop-color="#FFD0B6"/>
</linearGradient>
</defs>
</svg>
