<svg width="813" height="799" viewBox="0 0 813 799" fill="none" xmlns="http://www.w3.org/2000/svg">
<path d="M387.782 7.84204H805.07V421.977H387.782V7.84204Z" fill="white" fill-opacity="0.146482" stroke="url(#paint0_linear_320_1189)" stroke-width="14.8106" stroke-miterlimit="10" stroke-linejoin="round"/>
<path d="M465.465 52.9329L466.247 380.66" stroke="white" stroke-width="14.8106" stroke-miterlimit="10" stroke-linejoin="round"/>
<path d="M553.85 52.1509L549.94 375.967" stroke="white" stroke-width="14.8106" stroke-miterlimit="10" stroke-linejoin="round"/>
<path d="M646.14 43.5469L651.62 370.491" stroke="white" stroke-width="14.8106" stroke-miterlimit="10" stroke-linejoin="round"/>
<path d="M726.71 48.24L734.53 362.67" stroke="white" stroke-width="14.8106" stroke-miterlimit="10" stroke-linejoin="round"/>
<path d="M427.921 103.774L754.87 92.0408" stroke="white" stroke-width="14.8106" stroke-miterlimit="10" stroke-linejoin="round"/>
<path d="M436.091 169.952L753.98 166.644" stroke="white" stroke-width="14.8106" stroke-miterlimit="10" stroke-linejoin="round"/>
<path d="M429.612 246.29L756.55 249.236" stroke="white" stroke-width="14.8106" stroke-miterlimit="10" stroke-linejoin="round"/>
<path d="M428.793 337.231L757.3 320.023" stroke="white" stroke-width="14.8106" stroke-miterlimit="10" stroke-linejoin="round"/>
<path d="M103.884 404.643C103.884 311.24 143.106 235.523 191.49 235.523C239.873 235.523 279.095 311.24 279.095 404.643C279.095 498.046 239.873 573.763 191.49 573.763C143.106 573.763 103.884 498.046 103.884 404.643Z" fill="#DADDE9" stroke="#DADDE9" stroke-width="24" stroke-miterlimit="10" stroke-linejoin="round"/>
<path d="M218 106.835L268.612 73.4231C268.612 73.4231 269.445 86.4781 264.974 103.276C260.503 120.074 251.614 134.846 251.614 134.846L218 106.835Z" fill="#F6CBCE" stroke="#DADDE9" stroke-width="17.0485" stroke-miterlimit="10" stroke-linejoin="round"/>
<path d="M160.357 103.864L118.435 74.6912C118.435 74.6912 119.17 94.9082 122.698 113.075C126.226 131.242 136.522 142.165 136.522 142.165L160.357 103.864Z" fill="#F6CBCE" stroke="#DADDE9" stroke-width="16.4976" stroke-miterlimit="10" stroke-linejoin="round"/>
<path d="M477.742 318.033L529.33 256.446L587.36 187.168" stroke="url(#paint1_linear_320_1189)" stroke-width="11.0653" stroke-miterlimit="10" stroke-linecap="round" stroke-linejoin="round"/>
<path d="M134.607 773.095C134.607 770.08 140.351 750.008 142.792 732.617C144.367 721.392 141.625 706.388 145.563 700.947C158.696 682.799 172.156 695.235 178.408 695.235C189.439 695.235 183.984 719.352 183.984 730.804C183.984 742.256 201.588 764.269 196.264 773.93C191.171 783.171 181.324 791.114 171.159 791.108C157.529 791.1 134.607 779.655 134.607 773.095Z" fill="#DADDE9" stroke="#DADDE9" stroke-width="15.431" stroke-miterlimit="10" stroke-linejoin="round"/>
<path d="M255.667 730.316C255.667 718.231 253.563 705.587 265.016 705.587C270.862 705.587 297.326 687.542 305.631 706.797C319.67 739.343 365.189 745.058 366.049 756.511C366.908 767.963 344.726 771.802 328.432 765.705C317.702 761.69 274.582 752.198 270.711 752.198C259.257 752.198 255.667 742.401 255.667 730.316Z" fill="#DADDE9" stroke="#DADDE9" stroke-width="15.431" stroke-miterlimit="10" stroke-linejoin="round"/>
<path d="M457.945 312.37C457.945 296.083 469.091 282.879 482.84 282.879C496.589 282.879 514.764 288.116 514.764 304.403C514.764 320.69 496.589 341.86 482.84 341.86C469.091 341.86 457.945 328.657 457.945 312.37Z" fill="#DADDE9" stroke="#DADDE9" stroke-width="15.431" stroke-miterlimit="10" stroke-linejoin="round"/>
<path d="M112.124 413.328L278.143 406.078L285.036 471.793C285.036 471.793 306.594 515.288 315.407 551.307C324.219 587.327 332.283 653.194 332.283 653.194L323.527 709.536L250.544 707.752C250.544 707.752 257.278 665.685 244.577 629.56C231.875 593.435 212.402 571.916 212.402 571.916C212.402 571.916 202.457 559.364 199.969 575.285C196.474 597.654 195.683 601.889 194.436 632.551C192.961 668.786 203.337 701.129 203.337 701.129L121.987 705.898L112.303 641.779C112.303 641.779 97.2629 530.089 108.12 487.771C118.976 445.452 110.036 471.303 110.036 471.303L111.941 413.295" fill="#4A3470"/>
<path d="M112.124 413.328L278.143 406.078L285.036 471.793C285.036 471.793 306.594 515.288 315.407 551.307C324.219 587.327 332.283 653.194 332.283 653.194L323.527 709.536L250.544 707.752C250.544 707.752 257.278 665.685 244.577 629.56C231.875 593.435 212.402 571.916 212.402 571.916C212.402 571.916 202.457 559.364 199.969 575.285C196.474 597.654 195.683 601.889 194.436 632.551C192.961 668.786 203.337 701.129 203.337 701.129L121.987 705.898L112.303 641.779C112.303 641.779 97.2629 530.089 108.12 487.771C118.976 445.452 110.036 471.303 110.036 471.303L111.941 413.295" stroke="#4A3470" stroke-width="11.0653" stroke-miterlimit="10" stroke-linejoin="round"/>
<path d="M241.186 246.566L224.534 266.943L218 501.825L295.047 478.178C295.047 478.178 287.298 446.929 285 402.089C282.702 357.249 275.876 313.894 275.876 313.894C275.876 313.894 281.756 335.552 302.702 356.283C323.649 377.013 330.452 385.765 330.452 385.765L462.164 349.495L449.951 300.619L342.545 324.018C342.545 324.018 306.105 275.903 274.302 254.262C242.5 232.621 252.054 243.426 242.926 240" fill="url(#paint2_linear_320_1189)"/>
<path d="M241.186 246.566L224.534 266.943L218 501.825L295.047 478.178C295.047 478.178 287.298 446.929 285 402.089C282.702 357.249 275.876 313.894 275.876 313.894C275.876 313.894 281.756 335.552 302.702 356.283C323.649 377.013 330.452 385.765 330.452 385.765L462.164 349.495L449.951 300.619L342.545 324.018C342.545 324.018 306.105 275.903 274.302 254.262C242.5 232.621 252.054 243.426 242.926 240" stroke="url(#paint3_linear_320_1189)" stroke-width="15.431" stroke-miterlimit="10" stroke-linejoin="round"/>
<path d="M138.704 227.411L168.097 249.196L172.776 502.856L98.884 500.291L105.022 295.233L128 291.728L121.032 340.318L129.596 388.954L120.263 444.143L7.84106 354.02L90.222 253.158C123.192 217.154 138.704 227.411 138.704 227.411Z" fill="url(#paint4_linear_320_1189)" stroke="url(#paint5_linear_320_1189)" stroke-width="15.431" stroke-miterlimit="10" stroke-linejoin="round"/>
<path d="M111.969 406.938C108.449 406.608 105.786 408.073 100.5 412.906C95.4911 417.486 97.5941 429.406 97.5941 429.406C97.5941 429.406 97.8281 429.814 97.8441 429.844C98.2011 429.833 98.5091 429.781 98.8751 429.781C106.144 429.019 122.807 427.918 123 427.906C126.854 427.667 128.359 427.525 130.906 427.344C131.533 420.721 137.414 413.983 128.625 411.688C119.872 409.401 115.489 407.267 111.969 406.938Z" fill="#DADDE9" stroke="#DADDE9" stroke-width="15.431" stroke-miterlimit="10" stroke-linejoin="round"/>
<path d="M143.662 218.704L122.071 215.714L160.935 272.184L175.551 255.907L179.102 414.735L215.744 403.725L219.73 267.201L232.353 274.841L260.656 233.494L227.027 230.106L216.076 252.253L201.793 268.862L184.187 246.606L143.662 218.704Z" fill="#FFF8F3" stroke="#FFF8F3" stroke-width="0.962171" stroke-miterlimit="10" stroke-linejoin="round"/>
<path d="M116.375 184.634C110.608 172.226 122.132 163.544 125.897 151.124C129.487 139.283 123.02 132.895 125.49 127.98C136.706 105.667 166.271 93.8721 191.525 93.8721C217.502 93.8721 245.064 103.857 255.961 127.224C258.283 132.203 254.909 137.533 257.767 151.482C260.626 165.43 272.957 168.67 267.395 183.018C257.509 208.527 228.176 236.507 191.525 236.507C154.874 236.507 128.821 211.409 116.375 184.634Z" fill="#DADDE9" stroke="#DADDE9" stroke-width="7.98466" stroke-miterlimit="10" stroke-linejoin="round"/>
<path d="M208.415 168.846C208.415 168.846 229.049 173.919 245.227 165.604C249.662 163.324 222.52 118.67 208.415 168.846Z" fill="white" stroke="white" stroke-width="5.88512" stroke-miterlimit="10" stroke-linejoin="round"/>
<path d="M187.962 183.059L192.925 189.938L198.409 183.628" stroke="#4F4F4F" stroke-width="5.56674" stroke-miterlimit="10" stroke-linecap="round" stroke-linejoin="round"/>
<path d="M192.262 197.942C192.262 197.942 177.981 206.817 150.05 198.23C150.05 198.23 172.393 226.316 193.676 227.041C214.959 227.766 239.251 193.599 239.251 193.599C218.395 208.228 192.262 197.942 192.262 197.942Z" fill="#4C3734"/>
<path d="M165.644 202.466L174.431 212.555L175.441 207.316L214.928 207.239L216.266 212.331L223.951 201.145C202.59 205.111 191.971 199.233 191.971 199.233C191.971 199.233 185.846 204.512 165.644 202.466Z" fill="#FFF8F3"/>
<path d="M177.583 212.906C177.447 208.549 186.869 211.927 194.206 211.699C201.543 211.47 212.445 208.379 212.581 212.737C212.716 217.094 201.309 223.592 193.972 223.821C186.635 224.049 177.719 217.264 177.583 212.906Z" fill="#9C736E"/>
<path d="M216.663 170.664C223.6 140.649 232.409 153.314 235.093 166.993C235.889 171.051 216.833 170.672 216.833 170.672" fill="#000002"/>
<path d="M216.663 170.664C223.6 140.649 232.409 153.314 235.093 166.993C235.889 171.051 216.833 170.672 216.833 170.672" stroke="#000002" stroke-opacity="0.918919" stroke-width="5.88512" stroke-miterlimit="10" stroke-linecap="round" stroke-linejoin="round"/>
<path d="M226.202 156.326C226.568 153.949 228.121 152.215 229.672 152.454C231.222 152.693 232.183 154.814 231.817 157.191C231.451 159.568 229.897 161.302 228.346 161.063C226.796 160.824 225.835 158.703 226.202 156.326Z" fill="white"/>
<path d="M178.019 167.016C178.019 167.016 157.388 174.83 139.173 168.682C134.18 166.996 155.011 118.793 178.019 167.016Z" fill="white" stroke="white" stroke-width="5.88512" stroke-miterlimit="10" stroke-linejoin="round"/>
<path d="M147.701 170.091C159.303 141.045 166.02 154.863 166.516 168.881C166.664 173.039 147.868 170.122 147.868 170.122" fill="#000002"/>
<path d="M147.701 170.091C159.303 141.045 166.02 154.863 166.516 168.881C166.664 173.039 147.868 170.122 147.868 170.122" stroke="#000002" stroke-opacity="0.918919" stroke-width="5.88512" stroke-miterlimit="10" stroke-linecap="round" stroke-linejoin="round"/>
<path d="M163.107 157.2C163.131 154.749 161.826 152.688 160.193 152.597C158.56 152.505 157.217 154.418 157.194 156.869C157.17 159.32 158.475 161.38 160.108 161.472C161.741 161.563 163.084 159.651 163.107 157.2Z" fill="white"/>
<path d="M190.688 89.9379C177.581 90.3289 168.5 93.1879 168.5 93.1879L172.031 100.625C176.427 98.1549 181.428 96.8589 187.031 96.7189C189.275 96.6629 191.619 96.7859 194.031 97.0619C200.269 97.7769 206.745 99.6309 213.656 102.156L217.562 93.0619C207.872 90.3719 198.552 89.7029 190.688 89.9379ZM186.25 106.469C182.374 106.694 179.063 107.744 176.219 109.5L179.438 116.312C183.674 115.801 187.394 115.488 194.406 115.125C194.752 115.107 194.749 115.112 195.094 115.094C201.293 114.773 205.088 114.458 208.531 114.094L209.781 111.188C200.772 107.943 192.753 106.091 186.25 106.469ZM204.188 124.312C201.694 124.492 199.255 124.655 195.594 124.844C195.249 124.862 195.251 124.888 194.906 124.906C189.677 125.177 186.995 125.454 183.906 125.75L194.219 147.531L204.188 124.312Z" fill="white" fill-opacity="0.835631"/>
<path d="M193.597 196.255C193.21 193.749 196.226 190.393 198.714 188.036C202.826 184.14 207.803 180.66 216.607 179.302C230.736 177.122 240.342 180.703 241.368 187.352C242.394 194.002 237.111 197.893 222.981 200.074C208.851 202.254 194.623 202.904 193.597 196.255Z" fill="white" fill-opacity="0.835631"/>
<path d="M193.042 194.639C193.21 192.109 189.824 189.02 187.068 186.882C182.513 183.348 177.111 180.302 167.99 179.694C153.35 178.718 143.856 183.101 143.408 189.814C142.961 196.527 148.713 199.958 163.352 200.934C177.992 201.909 192.594 201.352 193.042 194.639Z" fill="white" fill-opacity="0.835631"/>
<defs>
<linearGradient id="paint0_linear_320_1189" x1="387.782" y1="214.908" x2="805.07" y2="214.908" gradientUnits="userSpaceOnUse">
<stop offset="0.28125" stop-color="#3A3D84"/>
<stop offset="0.619792" stop-color="#945CCC"/>
<stop offset="1" stop-color="#FFD0B6"/>
</linearGradient>
<linearGradient id="paint1_linear_320_1189" x1="477.742" y1="252.6" x2="587.36" y2="252.6" gradientUnits="userSpaceOnUse">
<stop offset="0.28125" stop-color="#3A3D84"/>
<stop offset="0.619792" stop-color="#945CCC"/>
<stop offset="1" stop-color="#FFD0B6"/>
</linearGradient>
<linearGradient id="paint2_linear_320_1189" x1="340.082" y1="240" x2="340.082" y2="501.825" gradientUnits="userSpaceOnUse">
<stop stop-color="#D6B085"/>
<stop offset="0.526042" stop-color="#AA60A7"/>
</linearGradient>
<linearGradient id="paint3_linear_320_1189" x1="340.082" y1="240" x2="340.082" y2="501.825" gradientUnits="userSpaceOnUse">
<stop stop-color="#D6B085"/>
<stop offset="0.526042" stop-color="#AA60A7"/>
</linearGradient>
<linearGradient id="paint4_linear_320_1189" x1="90.3086" y1="226.06" x2="90.3086" y2="502.856" gradientUnits="userSpaceOnUse">
<stop stop-color="#D6B085"/>
<stop offset="0.526042" stop-color="#AA60A7"/>
</linearGradient>
<linearGradient id="paint5_linear_320_1189" x1="90.3086" y1="226.06" x2="90.3086" y2="502.856" gradientUnits="userSpaceOnUse">
<stop stop-color="#D6B085"/>
<stop offset="0.526042" stop-color="#AA60A7"/>
</linearGradient>
</defs>
</svg>
