<svg width="596" height="531" viewBox="0 0 596 531" fill="none" xmlns="http://www.w3.org/2000/svg">
<path fill-rule="evenodd" clip-rule="evenodd" d="M595.404 9.74321C595.187 4.22462 590.537 -0.0732678 585.019 0.143602L456.73 5.18508C455.551 4.47611 454.206 4.00048 452.75 3.82932C450.184 3.52761 447.731 4.22555 445.781 5.61536L228.945 14.1366C223.426 14.3535 219.128 19.003 219.345 24.5216C219.399 25.8984 219.729 27.1993 220.28 28.373L166.851 431.84C165.106 433.213 163.805 435.173 163.281 437.509C162.073 442.898 165.463 448.246 170.852 449.454L271.587 472.034L387.133 497.934C388.713 500.184 391.208 501.778 394.154 502.124C396.361 502.384 398.485 501.904 400.277 500.88L527.58 529.415C527.647 529.43 527.714 529.444 527.781 529.458C528.862 530.018 530.064 530.389 531.348 530.523C536.841 531.095 541.758 527.106 542.33 521.613L594.928 16.4655C595.032 15.4714 594.986 14.4963 594.809 13.5623C595.242 12.3748 595.456 11.0847 595.404 9.74321ZM523.636 508.034L406.612 481.803L424.016 333.802L540.25 348.478L523.636 508.034ZM386.991 477.406L283.829 454.282L301.902 318.384L404.173 331.297L386.991 477.406ZM264.237 449.89L186.93 432.562L203.692 305.985L282.059 315.879L264.237 449.89ZM222.03 167.507L206.318 286.157L284.696 296.053L301.347 170.85L222.03 167.507ZM321.41 171.696L304.539 298.559L406.509 311.433L422.44 175.954L321.41 171.696ZM442.479 176.799L426.352 313.939L542.321 328.581L557.62 181.652L442.479 176.799ZM559.695 161.722L444.821 156.88L460.322 25.0594L574.392 20.5766L559.695 161.722ZM424.783 156.035L324.058 151.79L340.284 29.7766L440.091 25.8544L424.783 156.035ZM303.994 150.944L224.666 147.6L239.746 33.7276L320.002 30.5737L303.994 150.944Z" fill="url(#paint0_linear_308_1165)"/>
<path d="M488.567 85.1689L524.678 45.6722L507.622 129.34" stroke="url(#paint1_linear_308_1165)" stroke-width="24" stroke-miterlimit="10" stroke-linecap="round" stroke-linejoin="round"/>
<path d="M214.385 378.638L243.041 347.295L229.507 413.69" stroke="url(#paint2_linear_308_1165)" stroke-width="24" stroke-miterlimit="10" stroke-linecap="round" stroke-linejoin="round"/>
<path d="M388.31 243.538C390.314 220.677 379.97 200.126 365.208 197.636C350.445 195.146 336.854 211.66 334.85 234.521C332.847 257.382 343.19 277.933 357.953 280.423C372.715 282.913 386.307 266.399 388.31 243.538Z" stroke="url(#paint3_linear_308_1165)" stroke-width="24" stroke-miterlimit="10" stroke-linejoin="round"/>
<path d="M500.578 424.31C502.581 401.449 492.238 380.898 477.476 378.408C462.712 375.918 449.121 392.432 447.119 415.293C445.115 438.154 455.458 458.705 470.221 461.195C484.983 463.685 498.574 447.171 500.578 424.31Z" stroke="url(#paint4_linear_308_1165)" stroke-width="24" stroke-miterlimit="10" stroke-linejoin="round"/>
<path d="M67.3397 454.748L67.9286 490.005C136.654 526.251 246.962 494.61 246.962 494.61L247.493 455.388" stroke="#CB9328" stroke-width="28" stroke-miterlimit="10" stroke-linecap="round" stroke-linejoin="round"/>
<path d="M249.21 459.193C249.21 443.199 208.111 430.234 157.412 430.234C106.709 430.234 65.6137 443.199 65.6137 459.193C65.6137 475.187 106.709 488.152 157.412 488.152C208.111 488.152 249.21 475.187 249.21 459.193Z" fill="#FFEE52" stroke="#FFEE52" stroke-width="24" stroke-miterlimit="10" stroke-linejoin="round"/>
<path d="M14.0501 465.265L34.2185 492.396C103.485 480.563 164.391 391.576 164.391 391.576L142.81 360.702" stroke="#CB9328" stroke-width="28" stroke-miterlimit="10" stroke-linecap="round" stroke-linejoin="round"/>
<path d="M146.163 362.667C137.208 350.203 100.661 364.067 64.5257 393.633C28.3904 423.199 6.35592 457.271 15.3074 469.734C24.2689 482.198 60.8134 468.334 96.9487 438.768C133.085 409.202 155.118 375.13 146.163 362.667Z" fill="#FFEE52" stroke="#FFEE52" stroke-width="24" stroke-miterlimit="10" stroke-linejoin="round"/>
<defs>
<linearGradient id="paint0_linear_308_1165" x1="594.931" y1="5.99635e-06" x2="161.909" y2="443.647" gradientUnits="userSpaceOnUse">
<stop stop-color="#FFD0B6"/>
<stop offset="0.552083" stop-color="#945CCC"/>
<stop offset="1" stop-color="#3A3D84"/>
</linearGradient>
<linearGradient id="paint1_linear_308_1165" x1="517.196" y1="43.4328" x2="492.811" y2="124.907" gradientUnits="userSpaceOnUse">
<stop offset="0.00520833" stop-color="#FFD0B6"/>
<stop offset="0.484375" stop-color="#945CCC"/>
<stop offset="1" stop-color="#3A3D84"/>
</linearGradient>
<linearGradient id="paint2_linear_308_1165" x1="237.104" y1="345.518" x2="217.753" y2="410.172" gradientUnits="userSpaceOnUse">
<stop offset="0.00520833" stop-color="#FFD0B6"/>
<stop offset="0.484375" stop-color="#945CCC"/>
<stop offset="1" stop-color="#3A3D84"/>
</linearGradient>
<linearGradient id="paint3_linear_308_1165" x1="361.58" y1="197.388" x2="361.58" y2="280.671" gradientUnits="userSpaceOnUse">
<stop offset="0.00520833" stop-color="#FFD0B6"/>
<stop offset="0.484375" stop-color="#945CCC"/>
<stop offset="1" stop-color="#3A3D84"/>
</linearGradient>
<linearGradient id="paint4_linear_308_1165" x1="473.848" y1="378.16" x2="473.848" y2="461.443" gradientUnits="userSpaceOnUse">
<stop offset="0.00520833" stop-color="#FFD0B6"/>
<stop offset="0.484375" stop-color="#945CCC"/>
<stop offset="1" stop-color="#3A3D84"/>
</linearGradient>
</defs>
</svg>
