<svg width="399" height="348" viewBox="0 0 399 348" fill="none" xmlns="http://www.w3.org/2000/svg">
<g clip-path="url(#clip0_104_69)">
<path d="M310.75 104.991C310.75 104.991 294 130.991 318.297 140.011C342.595 149.031 306.159 235.366 306.159 235.366C303.161 257.477 255.582 301.462 266.23 319.491L302.371 332.991C316.576 317.129 348.84 264.841 351.333 240.656L346.557 144.796L344.115 115.551L336 94.9909L316.841 99.9144C316.841 99.9144 313.341 102.557 311.274 106.455L310.75 104.991Z" fill="white"/>
<path d="M91.3821 223.185C91.3821 223.185 117.781 245.567 94.7046 263.135C71.6285 280.703 131 343.991 131 343.991C141.409 366.687 144.277 358.872 138.747 381.641L121.941 410.868C101.568 398.511 102.65 406.722 92.1055 381.641L66.0085 277.459L59.1002 245.354L61.0943 220.7L83.209 219.733C83.209 219.733 87.8165 221.422 91.2989 224.923L91.3821 223.185Z" fill="white"/>
<g filter="url(#filter0_f_104_69)">
<ellipse cx="201" cy="219.491" rx="186" ry="191" fill="#FFD362" fill-opacity="0.1"/>
<path d="M386.5 219.491C386.5 324.714 303.436 409.991 201 409.991C98.5636 409.991 15.5 324.714 15.5 219.491C15.5 114.268 98.5636 28.991 201 28.991C303.436 28.991 386.5 114.268 386.5 219.491Z" stroke="black"/>
<path d="M386.5 219.491C386.5 324.714 303.436 409.991 201 409.991C98.5636 409.991 15.5 324.714 15.5 219.491C15.5 114.268 98.5636 28.991 201 28.991C303.436 28.991 386.5 114.268 386.5 219.491Z" stroke="black" stroke-opacity="0.2"/>
</g>
<path d="M176.009 435.472C176.009 364.037 97.2754 288.004 188.96 292.388C197.53 292.798 182.915 254.158 193.245 258.934C261.77 290.614 189.697 231.282 212.937 254.838C221.395 263.411 220.055 267.144 225.71 280.925C231.951 296.132 284.486 287.276 290.295 309.017C294.021 322.964 257.3 354.424 252.31 381.242C246.959 410.003 262.073 431.645 262.073 446.166C262.073 539.569 249.412 517.585 201.029 517.585C152.646 517.585 176.009 528.874 176.009 435.472Z" fill="white" stroke="white" stroke-width="24" stroke-miterlimit="10" stroke-linejoin="round"/>
<path d="M230.179 143.049L280.791 109.637C280.791 109.637 281.624 122.692 277.153 139.49C272.682 156.288 263.793 171.06 263.793 171.06L230.179 143.049Z" fill="#B1777B" stroke="#2D2145" stroke-width="17.0485" stroke-miterlimit="10" stroke-linejoin="round"/>
<path d="M172.536 140.078L130.614 110.905C130.614 110.905 131.349 131.122 134.877 149.289C138.405 167.456 148.701 178.379 148.701 178.379L172.536 140.078Z" fill="#B1777B" stroke="white" stroke-width="16.4976" stroke-miterlimit="10" stroke-linejoin="round"/>
<path fill-rule="evenodd" clip-rule="evenodd" d="M116.554 216.464C116.247 216.802 116.045 217.197 115.945 217.61C115.626 217.91 115.299 218.192 114.96 218.433C114.738 218.592 114.495 218.732 114.251 218.874H114.25C113.767 219.154 113.278 219.438 112.929 219.87C112.587 220.295 112.266 220.762 112.085 221.276C111.914 221.762 111.832 222.302 111.929 222.808C112.052 223.449 112.311 224.072 112.71 224.589C112.992 224.953 113.451 225.164 113.871 225.357L113.898 225.37C115.416 226.069 117.863 224.973 119.273 224.339C119.416 224.274 119.559 224.209 119.701 224.144C121.323 223.981 122.939 223.779 124.553 223.557L124.617 223.558C124.604 223.571 124.591 223.584 124.578 223.597L124.565 223.609L124.548 223.626L124.533 223.641L124.523 223.652C124.381 223.801 124.241 223.946 124.102 224.089C123.824 224.377 123.55 224.659 123.273 224.964C122.674 225.622 121.981 226.412 121.429 227.058C120.567 228.067 120.099 228.65 119.304 229.683L119.187 229.835C118.754 230.395 118.224 231.08 117.866 231.805C117.566 232.054 117.114 232.45 116.991 232.683C116.954 232.755 116.914 232.827 116.873 232.9C116.681 233.248 116.483 233.606 116.491 233.995C116.507 234.692 116.73 235.427 117.085 236.026C117.299 236.385 117.678 236.6 118.046 236.808C118.101 236.839 118.156 236.87 118.21 236.902C118.587 237.119 119.069 237.173 119.547 237.16C119.889 237.364 120.285 237.493 120.71 237.526C122.171 237.639 123.64 237.594 125.111 237.516C125.393 237.578 125.689 237.594 125.991 237.558C126.323 237.518 126.657 237.467 126.993 237.409C128.519 237.324 130.043 237.263 131.556 237.367C132.321 237.608 133.079 237.866 133.824 238.152C134.277 239.117 135.299 239.74 136.429 239.652C136.897 239.761 137.24 239.84 137.494 239.898C138.257 240.35 138.997 240.857 139.71 241.433C140.105 241.75 140.562 241.941 141.031 242.012C141.353 242.147 141.689 242.246 142.043 242.31C149.658 251.555 159.163 259.588 170.387 265.072L170.261 265.142C169.185 265.738 168.109 266.334 167.304 267.308C166.382 268.422 165.802 270.017 167.023 271.152C168.024 272.082 169.542 271.65 170.693 271.322L170.741 271.308C170.803 271.291 170.864 271.269 170.924 271.247C170.988 271.224 171.052 271.201 171.117 271.183C171.192 271.194 171.257 271.212 171.324 271.23C171.386 271.247 171.45 271.264 171.523 271.276C173.594 271.609 175.682 271.65 177.683 271.271C177.686 271.366 177.689 271.459 177.692 271.553C177.713 272.162 177.733 272.753 177.679 273.276C177.625 273.797 177.449 274.344 177.283 274.857V274.858C177.247 274.968 177.212 275.077 177.179 275.183C176.904 276.064 176.615 276.942 176.327 277.82L176.325 277.827C176.234 278.102 176.144 278.377 176.054 278.652C175.955 278.956 175.813 279.261 175.669 279.568C175.329 280.298 174.981 281.045 175.179 281.839C175.305 282.343 175.61 282.787 176.054 283.058C176.074 283.07 176.399 283.217 176.491 283.245C176.498 283.247 176.514 283.255 176.528 283.263C176.541 283.271 176.554 283.276 176.554 283.276C176.555 283.273 176.555 283.269 176.555 283.265L176.554 283.261C176.553 283.255 176.552 283.25 176.554 283.245C176.607 283.273 176.878 283.336 177.117 283.339C178.66 283.357 179.564 281.578 180.163 280.399L180.241 280.245C181.073 278.618 181.025 277.969 180.874 275.962L180.867 275.87C180.921 275.691 180.98 275.513 181.039 275.335L181.04 275.332V275.331C181.22 274.785 181.399 274.239 181.46 273.683C181.531 273.039 181.492 272.393 181.453 271.747C181.418 271.161 181.382 270.576 181.429 269.995C181.51 269.951 181.587 269.904 181.662 269.852C181.795 269.778 181.928 269.701 182.059 269.622C188.789 271.616 196.013 272.721 203.704 272.721C225.041 272.721 254.355 252.347 269.044 237.801C272.3 234.577 282.761 233.833 282.761 233.833C282.761 233.833 270.586 224.352 273.006 220.044C274.749 216.941 287.913 220.431 287.913 220.431C287.913 220.431 281.213 209.899 279.645 206.446C278.736 204.444 277.462 202.578 276.12 200.613C273.711 197.085 271.081 193.235 269.946 187.696C268.397 180.137 268.679 175.11 268.892 171.297C269.072 168.074 269.204 165.719 268.14 163.438C261.889 150.033 241.506 136.52 227.731 131.282C226.479 130.806 223.839 127.577 220.551 123.554C214.513 116.167 206.287 106.103 200.443 105.491C200.443 105.491 204.644 134.217 200.267 132.007C197.307 130.512 194.047 128.391 190.758 126.25C184.034 121.874 177.184 117.416 172.501 118.056C172.501 118.056 190.412 129.017 180.266 132.81C165.387 138.372 144.337 150.928 137.669 164.194C136.609 166.304 137.195 168.685 137.926 171.653C138.898 175.598 140.125 180.58 138.076 187.338C138.038 187.464 137.999 187.589 137.959 187.714C136.889 189.144 135.845 190.593 134.867 192.089C133.297 194.488 131.868 196.97 130.438 199.453C129.824 200.519 129.21 201.585 128.585 202.645C124.631 207.299 120.657 211.933 116.554 216.464ZM137.002 239.616L136.964 239.614C136.867 239.609 136.778 239.604 136.835 239.62C136.949 239.652 137.063 239.683 137.176 239.714L137.148 239.698C137.114 239.679 137.08 239.66 137.046 239.641L137.002 239.616ZM232.96 265.964C232.823 264.933 233.522 263.976 234.554 263.839C235.586 263.702 236.542 264.432 236.679 265.464C236.933 267.325 237.232 269.18 237.532 271.036C237.8 272.698 238.069 274.36 238.304 276.026C238.453 277.116 237.705 278.127 236.617 278.276C235.527 278.426 234.516 277.647 234.367 276.558C234.207 275.353 234.046 274.149 233.885 272.944C233.574 270.618 233.263 268.293 232.96 265.964Z" fill="white"/>
<path d="M115.945 217.61L118.129 219.934C118.581 219.51 118.899 218.964 119.045 218.361L115.945 217.61ZM116.554 216.464L118.917 218.608L118.919 218.605L116.554 216.464ZM114.251 218.874L112.652 216.114C112.638 216.122 112.624 216.13 112.61 216.138L114.251 218.874ZM114.25 218.874L115.849 221.634C115.863 221.626 115.877 221.618 115.891 221.61L114.25 218.874ZM112.929 219.87L110.446 217.868L110.444 217.87L112.929 219.87ZM112.085 221.276L109.077 220.216L109.076 220.217L112.085 221.276ZM111.929 222.808L108.797 223.408L108.797 223.409L111.929 222.808ZM112.71 224.589L110.185 226.538L110.188 226.542L112.71 224.589ZM113.871 225.357L112.538 228.255C112.587 228.278 112.637 228.299 112.687 228.319L113.871 225.357ZM113.871 225.357L115.204 222.459C115.155 222.437 115.106 222.416 115.056 222.396L113.871 225.357ZM113.898 225.37L115.233 222.472H115.231L113.898 225.37ZM119.273 224.339L120.582 227.248L120.584 227.247L119.273 224.339ZM119.701 224.144L119.383 220.97C119.029 221.005 118.684 221.1 118.361 221.249L119.701 224.144ZM124.553 223.557L124.59 220.368C124.433 220.366 124.275 220.376 124.12 220.397L124.553 223.557ZM124.617 223.558L126.908 225.778C127.795 224.863 128.052 223.507 127.561 222.331C127.071 221.155 125.928 220.383 124.654 220.368L124.617 223.558ZM124.578 223.597L126.788 225.896L126.794 225.891L124.578 223.597ZM124.578 223.597L122.366 221.298L122.359 221.305L124.578 223.597ZM124.565 223.609L122.347 221.316C122.34 221.323 122.333 221.33 122.326 221.337L124.565 223.609ZM124.548 223.626L122.309 221.354C122.294 221.369 122.279 221.383 122.265 221.398L124.548 223.626ZM124.533 223.641L122.25 221.414C122.232 221.432 122.215 221.45 122.197 221.469L124.533 223.641ZM124.523 223.652L126.832 225.852C126.841 225.843 126.85 225.834 126.859 225.824L124.523 223.652ZM119.304 229.683L121.829 231.632L121.832 231.628L119.304 229.683ZM119.187 229.835L121.71 231.786L121.712 231.785L119.187 229.835ZM117.866 231.805L119.901 234.262C120.246 233.976 120.527 233.621 120.725 233.219L117.866 231.805ZM116.991 232.683L114.168 231.198L114.166 231.202L116.991 232.683ZM116.873 232.9L114.081 231.357V231.358L116.873 232.9ZM116.491 233.995L113.302 234.063L113.303 234.068L116.491 233.995ZM117.085 236.026L114.341 237.652L114.342 237.653L117.085 236.026ZM118.21 236.902L116.608 239.66L116.616 239.665L118.21 236.902ZM119.547 237.16L121.176 234.418C120.657 234.109 120.06 233.954 119.456 233.971L119.547 237.16ZM120.71 237.526L120.957 234.346H120.955L120.71 237.526ZM125.111 237.516L125.796 234.401C125.516 234.339 125.229 234.316 124.943 234.331L125.111 237.516ZM126.993 237.409L126.815 234.224C126.692 234.231 126.57 234.245 126.448 234.266L126.993 237.409ZM131.556 237.367L132.515 234.325C132.275 234.249 132.027 234.202 131.776 234.185L131.556 237.367ZM133.824 238.152L136.711 236.796C136.361 236.05 135.736 235.469 134.967 235.174L133.824 238.152ZM136.429 239.652L137.153 236.545C136.835 236.471 136.508 236.446 136.182 236.472L136.429 239.652ZM137.494 239.898L139.119 237.153C138.835 236.985 138.527 236.863 138.206 236.789L137.494 239.898ZM139.71 241.433L137.704 243.913L137.715 243.922L139.71 241.433ZM141.031 242.012L142.261 239.069C142.02 238.968 141.768 238.898 141.51 238.858L141.031 242.012ZM142.043 242.31L144.506 240.282C144.025 239.698 143.352 239.304 142.607 239.17L142.043 242.31ZM170.387 265.072L171.934 267.861C172.974 267.285 173.607 266.177 173.576 264.989C173.545 263.8 172.855 262.728 171.787 262.206L170.387 265.072ZM170.261 265.142L171.807 267.932L171.808 267.931L170.261 265.142ZM167.304 267.308L169.761 269.342L169.762 269.341L167.304 267.308ZM167.023 271.152L164.851 273.488L164.852 273.489L167.023 271.152ZM170.741 271.308L169.871 268.239L169.868 268.24L170.741 271.308ZM171.117 271.183L171.571 268.026C171.136 267.963 170.693 267.991 170.269 268.108L171.117 271.183ZM171.523 271.276L172.03 268.127H172.027L171.523 271.276ZM177.683 271.271L180.871 271.173C180.843 270.241 180.407 269.368 179.68 268.784C178.953 268.2 178.007 267.964 177.091 268.137L177.683 271.271ZM177.692 271.553L180.88 271.446V271.445L177.692 271.553ZM177.283 274.857L174.248 273.877C174.231 273.927 174.216 273.977 174.203 274.028L177.283 274.857ZM177.283 274.858L180.318 275.838C180.334 275.788 180.349 275.738 180.363 275.687L177.283 274.858ZM177.179 275.183L174.134 274.232V274.233L177.179 275.183ZM176.327 277.82L173.297 276.824L173.296 276.827L176.327 277.82ZM176.325 277.827L179.355 278.823L179.356 278.82L176.325 277.827ZM176.054 278.652L173.022 277.661V277.662L176.054 278.652ZM176.054 283.058L174.392 285.781C174.399 285.784 174.405 285.788 174.411 285.792L176.054 283.058ZM176.491 283.245L175.562 286.297C175.579 286.301 175.595 286.306 175.611 286.311L176.491 283.245ZM176.528 283.263L174.989 286.058C175.026 286.078 175.063 286.097 175.101 286.116L176.528 283.263ZM176.528 283.263L178.065 280.468C178.029 280.448 177.992 280.429 177.954 280.41L176.528 283.263ZM176.554 283.276L179.577 284.294L179.58 284.285L176.554 283.276ZM176.555 283.265L179.725 282.917C179.723 282.899 179.721 282.88 179.719 282.862L176.555 283.265ZM176.554 283.261L179.718 282.857C179.716 282.843 179.715 282.83 179.713 282.816L176.554 283.261ZM176.554 283.245L178.044 280.425C177.202 279.979 176.204 279.934 175.325 280.302C174.445 280.669 173.776 281.41 173.501 282.322L176.554 283.245ZM177.117 283.339L177.077 286.528H177.079L177.117 283.339ZM180.163 280.399L177.32 278.952L177.319 278.954L180.163 280.399ZM180.241 280.245L177.401 278.792L177.398 278.798L180.241 280.245ZM180.867 275.87L177.816 274.94C177.701 275.318 177.657 275.714 177.686 276.108L180.867 275.87ZM181.039 275.335L178.012 274.326L178.008 274.338L181.039 275.335ZM181.039 275.335L184.065 276.343C184.069 276.332 184.072 276.321 184.076 276.311L181.039 275.335ZM181.04 275.332L178.005 274.35L178.003 274.356L181.04 275.332ZM181.04 275.331L178.01 274.335C178.008 274.34 178.007 274.346 178.005 274.35L181.04 275.331ZM181.453 271.747H178.263C178.263 271.811 178.265 271.875 178.269 271.939L181.453 271.747ZM181.453 271.747H184.643C184.643 271.683 184.641 271.619 184.637 271.555L181.453 271.747ZM181.429 269.995L179.911 267.19C178.961 267.704 178.336 268.663 178.249 269.74L181.429 269.995ZM181.662 269.852L180.115 267.062C180.022 267.114 179.931 267.171 179.843 267.232L181.662 269.852ZM182.059 269.622L182.966 266.564C182.107 266.309 181.18 266.428 180.413 266.89L182.059 269.622ZM282.761 233.833L282.987 237.015C284.305 236.921 285.428 236.025 285.813 234.761C286.197 233.498 285.763 232.128 284.721 231.316L282.761 233.833ZM287.913 220.431L287.096 223.514C288.365 223.851 289.712 223.375 290.487 222.315C291.263 221.254 291.309 219.827 290.604 218.719L287.913 220.431ZM200.443 105.491L200.775 102.318C199.796 102.216 198.824 102.571 198.142 103.282C197.46 103.992 197.144 104.978 197.287 105.952L200.443 105.491ZM172.501 118.056L172.069 114.895C170.733 115.078 169.656 116.081 169.379 117.401C169.102 118.721 169.686 120.073 170.836 120.777L172.501 118.056ZM137.959 187.714L140.513 189.625C140.727 189.339 140.892 189.019 141 188.679L137.959 187.714ZM130.438 199.453L127.674 197.861C127.661 197.882 127.649 197.904 127.638 197.926L130.438 199.453ZM130.438 199.453L133.202 201.046C133.214 201.024 133.226 201.003 133.238 200.981L130.438 199.453ZM128.585 202.645L131.016 204.71C131.134 204.571 131.24 204.422 131.332 204.265L128.585 202.645ZM136.964 239.614L137.134 236.429C137.078 236.426 137.021 236.424 136.964 236.424V239.614ZM137.002 239.616L138.553 236.829C138.129 236.593 137.657 236.457 137.172 236.431L137.002 239.616ZM136.964 239.614L136.791 242.799C136.849 242.802 136.906 242.804 136.964 242.804V239.614ZM136.835 239.62L137.704 236.551C137.699 236.549 137.694 236.548 137.689 236.547L136.835 239.62ZM137.176 239.714L136.346 242.794C137.897 243.212 139.517 242.412 140.127 240.926C140.737 239.439 140.147 237.731 138.749 236.939L137.176 239.714ZM137.148 239.698L138.721 236.923L138.718 236.922L137.148 239.698ZM137.046 239.641L138.601 236.855L138.597 236.853L137.046 239.641ZM283.711 485.476H280.521C280.521 485.759 280.558 486.04 280.633 486.313L283.711 485.476ZM266.862 357.491V354.301C265.88 354.301 264.953 354.753 264.348 355.527C263.744 356.301 263.529 357.31 263.767 358.263L266.862 357.491ZM232.96 265.964L236.123 265.552L236.122 265.544L232.96 265.964ZM236.679 265.464L233.517 265.884L233.518 265.895L236.679 265.464ZM238.304 276.026L241.464 275.594C241.464 275.589 241.463 275.585 241.462 275.58L238.304 276.026ZM236.617 278.276L236.184 275.116H236.182L236.617 278.276ZM234.367 276.558L231.205 276.978L231.207 276.99L234.367 276.558ZM139.362 374.216L142.371 375.275C142.714 374.299 142.563 373.217 141.965 372.373C141.367 371.528 140.397 371.026 139.362 371.026V374.216ZM138.277 374.216L135.129 374.727C135.379 376.271 136.713 377.406 138.277 377.406V374.216ZM133.862 346.991L137.011 346.48C136.772 345.008 135.545 343.898 134.057 343.807C132.568 343.716 131.216 344.668 130.799 346.1L133.862 346.991ZM129.232 362.912L126.407 364.392C127.011 365.545 128.255 366.215 129.55 366.085C130.846 365.956 131.932 365.052 132.295 363.802L129.232 362.912ZM116.367 338.359L113.521 339.801C113.528 339.814 113.534 339.827 113.541 339.84L116.367 338.359ZM97.8704 297.191L94.8381 296.201C94.6522 296.771 94.6304 297.381 94.7754 297.963L97.8704 297.191ZM77.8624 307.991L78.9824 310.978C80.0748 310.568 80.8565 309.595 81.0205 308.439C81.1846 307.284 80.7049 306.132 79.7698 305.434L77.8624 307.991ZM119.045 218.361C119.022 218.457 118.975 218.543 118.917 218.608L114.192 214.32C113.52 215.061 113.068 215.937 112.845 216.858L119.045 218.361ZM116.813 221.029C117.308 220.676 117.75 220.291 118.129 219.934L113.761 215.285C113.502 215.528 113.289 215.707 113.107 215.836L116.813 221.029ZM115.85 221.634C116.07 221.506 116.447 221.291 116.813 221.029L113.107 215.836C113.029 215.892 112.921 215.958 112.652 216.114L115.85 221.634ZM115.892 221.609L112.61 216.138L112.61 216.139L115.892 221.609ZM115.891 221.61L115.892 221.609L112.61 216.139L115.891 221.61ZM115.412 221.872C115.344 221.957 115.307 221.972 115.38 221.92C115.416 221.895 115.469 221.86 115.549 221.811C115.633 221.76 115.723 221.707 115.849 221.634L112.651 216.114C112.266 216.337 111.23 216.896 110.446 217.868L115.412 221.872ZM115.094 222.335C115.09 222.347 115.101 222.312 115.156 222.224C115.211 222.136 115.292 222.022 115.415 221.87L110.444 217.87C110.025 218.391 109.437 219.193 109.077 220.216L115.094 222.335ZM115.062 222.207C115.084 222.321 115.077 222.39 115.076 222.398C115.075 222.407 115.077 222.384 115.094 222.335L109.076 220.217C108.781 221.058 108.563 222.188 108.797 223.408L115.062 222.207ZM115.236 222.64C115.181 222.569 115.104 222.424 115.062 222.207L108.797 223.409C109.001 224.474 109.442 225.575 110.185 226.538L115.236 222.64ZM115.205 222.46C115.15 222.435 115.107 222.415 115.066 222.395C115.025 222.377 114.993 222.361 114.966 222.348C114.91 222.32 114.89 222.308 114.89 222.308C114.89 222.308 114.929 222.332 114.989 222.381C115.049 222.431 115.138 222.514 115.233 222.636L110.188 226.542C111.037 227.638 112.289 228.141 112.538 228.255L115.205 222.46ZM115.231 222.472L115.204 222.459L112.539 228.256L112.566 228.268L115.231 222.472ZM117.965 221.43C117.233 221.759 116.489 222.086 115.789 222.276C115.45 222.368 115.218 222.4 115.082 222.405C114.943 222.409 115.032 222.38 115.233 222.472L112.564 228.267C114.397 229.111 116.337 228.739 117.463 228.432C118.719 228.091 119.904 227.553 120.582 227.248L117.965 221.43ZM118.361 221.249C118.228 221.31 118.095 221.371 117.963 221.431L120.584 227.247C120.737 227.178 120.889 227.108 121.04 227.039L118.361 221.249ZM124.12 220.397C122.529 220.615 120.954 220.812 119.383 220.97L120.019 227.318C121.692 227.15 123.349 226.942 124.987 226.717L124.12 220.397ZM124.654 220.368H124.59L124.517 226.747H124.58L124.654 220.368ZM126.794 225.891C126.801 225.884 126.852 225.835 126.908 225.778L122.326 221.337C122.344 221.319 122.357 221.307 122.362 221.302C122.365 221.299 122.366 221.298 122.366 221.298C122.366 221.298 122.365 221.299 122.361 221.303L126.794 225.891ZM126.788 225.896L122.367 221.297L122.366 221.298L126.788 225.896ZM126.783 225.901L126.795 225.89L122.359 221.305L122.347 221.316L126.783 225.901ZM126.788 225.896L126.805 225.88L122.326 221.337L122.309 221.354L126.788 225.896ZM126.816 225.868L126.831 225.853L122.265 221.398L122.25 221.414L126.816 225.868ZM126.859 225.824L126.869 225.813L122.197 221.469L122.187 221.48L126.859 225.824ZM126.394 226.308C126.532 226.165 126.68 226.012 126.832 225.852L122.214 221.451C122.082 221.59 121.95 221.726 121.81 221.871L126.394 226.308ZM125.632 227.111C125.871 226.848 126.111 226.6 126.394 226.308L121.81 221.871C121.537 222.153 121.23 222.47 120.915 222.817L125.632 227.111ZM123.854 229.13C124.388 228.505 125.059 227.74 125.632 227.111L120.915 222.817C120.289 223.503 119.574 224.319 119.004 224.986L123.854 229.13ZM121.832 231.628C122.598 230.632 123.032 230.092 123.854 229.13L119.004 224.986C118.103 226.041 117.6 226.667 116.777 227.737L121.832 231.628ZM121.712 231.785L121.829 231.632L116.78 227.734L116.662 227.886L121.712 231.785ZM120.725 233.219C120.919 232.827 121.244 232.39 121.71 231.786L116.663 227.885C116.264 228.4 115.53 229.333 115.006 230.392L120.725 233.219ZM119.815 234.167C119.773 234.248 119.733 234.312 119.703 234.36C119.671 234.409 119.644 234.448 119.623 234.476C119.583 234.531 119.553 234.566 119.542 234.578C119.53 234.592 119.527 234.595 119.534 234.588C119.54 234.581 119.553 234.569 119.571 234.551C119.61 234.514 119.661 234.467 119.721 234.414C119.781 234.362 119.843 234.31 119.901 234.262L115.831 229.349C115.655 229.495 115.4 229.712 115.153 229.949C115.013 230.083 114.501 230.565 114.168 231.198L119.815 234.167ZM119.665 234.443C119.702 234.376 119.76 234.272 119.817 234.163L114.166 231.202C114.147 231.238 114.125 231.279 114.081 231.357L119.665 234.443ZM119.681 233.927C119.688 234.3 119.594 234.553 119.57 234.615C119.557 234.647 119.552 234.654 119.569 234.62C119.589 234.582 119.613 234.537 119.665 234.443L114.081 231.358C113.986 231.531 113.273 232.661 113.302 234.063L119.681 233.927ZM119.83 234.4C119.735 234.24 119.683 234.036 119.68 233.922L113.303 234.068C113.332 235.348 113.726 236.614 114.341 237.652L119.83 234.4ZM119.617 234.032C119.518 233.976 119.468 233.947 119.426 233.922C119.388 233.899 119.389 233.898 119.411 233.914C119.454 233.946 119.651 234.098 119.829 234.398L114.342 237.653C115.065 238.872 116.272 239.469 116.475 239.584L119.617 234.032ZM119.813 234.144C119.74 234.102 119.669 234.061 119.617 234.032L116.475 239.584C116.533 239.617 116.572 239.639 116.608 239.66L119.813 234.144ZM119.456 233.971C119.358 233.974 119.34 233.967 119.38 233.973C119.42 233.98 119.586 234.013 119.805 234.139L116.616 239.665C117.76 240.325 118.959 240.367 119.637 240.348L119.456 233.971ZM120.955 234.346C121.026 234.351 121.104 234.375 121.176 234.418L117.917 239.902C118.675 240.352 119.543 240.636 120.466 240.707L120.955 234.346ZM124.943 234.331C123.502 234.407 122.202 234.442 120.957 234.346L120.464 240.706C122.139 240.836 123.779 240.781 125.28 240.701L124.943 234.331ZM125.612 234.391C125.67 234.384 125.733 234.387 125.796 234.401L124.426 240.631C125.052 240.769 125.709 240.805 126.371 240.725L125.612 234.391ZM126.448 234.266C126.153 234.317 125.875 234.359 125.612 234.391L126.371 240.725C126.772 240.677 127.162 240.617 127.537 240.552L126.448 234.266ZM131.776 234.185C130.05 234.066 128.355 234.138 126.815 234.224L127.171 240.594C128.684 240.509 130.037 240.46 131.336 240.549L131.776 234.185ZM134.967 235.174C134.147 234.86 133.326 234.58 132.515 234.325L130.598 240.41C131.317 240.636 132.01 240.873 132.682 241.13L134.967 235.174ZM136.182 236.472C136.387 236.456 136.606 236.572 136.711 236.796L130.937 239.509C131.949 241.662 134.211 243.024 136.676 242.832L136.182 236.472ZM138.206 236.789C137.957 236.732 137.619 236.654 137.153 236.545L135.705 242.758C136.176 242.868 136.523 242.948 136.783 243.008L138.206 236.789ZM141.715 238.952C140.873 238.271 140.004 237.677 139.119 237.153L135.869 242.643C136.51 243.022 137.121 243.442 137.704 243.913L141.715 238.952ZM141.51 238.858C141.577 238.869 141.648 238.898 141.705 238.944L137.715 243.922C138.563 244.601 139.547 245.013 140.553 245.166L141.51 238.858ZM142.607 239.17C142.481 239.148 142.368 239.114 142.261 239.069L139.802 244.956C140.338 245.179 140.897 245.345 141.48 245.449L142.607 239.17ZM171.787 262.206C161.029 256.949 151.872 249.227 144.506 240.282L139.581 244.337C147.443 253.884 157.296 262.226 168.987 267.938L171.787 262.206ZM171.808 267.931L171.934 267.861L168.84 262.282L168.713 262.352L171.808 267.931ZM169.762 269.341C170.121 268.907 170.646 268.576 171.807 267.932L168.714 262.352C167.724 262.901 166.097 263.762 164.846 265.275L169.762 269.341ZM169.195 268.816C169.27 268.886 169.392 269.04 169.464 269.271C169.533 269.488 169.521 269.655 169.51 269.721C169.502 269.777 169.495 269.758 169.542 269.667C169.587 269.578 169.66 269.464 169.761 269.342L164.847 265.274C164.164 266.099 163.436 267.293 163.209 268.724C162.957 270.32 163.37 272.111 164.851 273.488L169.195 268.816ZM169.819 268.254C169.519 268.339 169.293 268.403 169.073 268.453C168.857 268.501 168.72 268.519 168.64 268.523C168.561 268.527 168.605 268.514 168.725 268.548C168.865 268.587 169.041 268.673 169.194 268.815L164.852 273.489C166.21 274.751 167.823 274.952 168.963 274.894C170.037 274.84 171.056 274.535 171.566 274.39L169.819 268.254ZM169.868 268.24L169.819 268.254L171.566 274.39L171.615 274.376L169.868 268.24ZM169.846 268.245C169.838 268.248 169.831 268.25 169.825 268.252C169.82 268.254 169.816 268.256 169.812 268.257C169.806 268.259 169.804 268.26 169.806 268.259C169.808 268.259 169.814 268.255 169.825 268.252C169.836 268.249 169.851 268.245 169.871 268.239L171.611 274.377C171.796 274.324 171.96 274.264 172.004 274.249L169.846 268.245ZM170.269 268.108C170.068 268.164 169.889 268.229 169.846 268.245L172.004 274.249C172.021 274.243 172.029 274.239 172.037 274.237C172.044 274.234 172.045 274.234 172.042 274.235C172.039 274.236 172.031 274.239 172.018 274.243C172.006 274.247 171.987 274.252 171.965 274.258L170.269 268.108ZM172.165 268.153C172.116 268.14 171.869 268.069 171.571 268.026L170.663 274.341C170.583 274.329 170.52 274.315 170.486 274.307C170.47 274.303 170.459 274.3 170.459 274.3C170.459 274.3 170.46 274.301 170.464 274.302C170.469 274.303 170.474 274.304 170.482 274.307L172.165 268.153ZM172.027 268.127C172.093 268.137 172.143 268.148 172.17 268.155C172.182 268.158 172.189 268.16 172.189 268.16C172.187 268.159 172.183 268.158 172.165 268.153L170.482 274.307C170.533 274.321 170.752 274.383 171.019 274.426L172.027 268.127ZM177.091 268.137C175.525 268.433 173.816 268.414 172.03 268.127L171.016 274.425C173.371 274.804 175.84 274.866 178.275 274.406L177.091 268.137ZM180.88 271.445C180.877 271.352 180.874 271.262 180.871 271.173L174.495 271.37C174.498 271.469 174.501 271.567 174.504 271.66L180.88 271.445ZM180.852 273.602C180.932 272.821 180.899 271.998 180.88 271.446L174.504 271.66C174.527 272.326 174.533 272.685 174.506 272.951L180.852 273.602ZM180.318 275.838C180.461 275.397 180.758 274.519 180.852 273.602L174.506 272.95C174.493 273.075 174.437 273.292 174.248 273.877L180.318 275.838ZM180.224 276.133C180.252 276.045 180.282 275.951 180.318 275.838L174.247 273.877C174.213 273.985 174.173 274.108 174.134 274.232L180.224 276.133ZM179.357 278.816C179.645 277.942 179.941 277.041 180.224 276.133L174.134 274.233C173.867 275.088 173.586 275.942 173.297 276.824L179.357 278.816ZM179.356 278.82L179.358 278.813L173.296 276.827L173.293 276.834L179.356 278.82ZM179.086 279.643C179.175 279.371 179.264 279.098 179.355 278.823L173.294 276.831C173.204 277.106 173.113 277.383 173.022 277.661L179.086 279.643ZM178.56 280.917C178.686 280.645 178.916 280.163 179.086 279.643L173.022 277.662C172.993 277.75 172.939 277.876 172.778 278.22L178.56 280.917ZM178.274 281.066C178.307 281.201 178.314 281.324 178.309 281.417C178.305 281.505 178.291 281.549 178.295 281.533C178.3 281.515 178.317 281.461 178.364 281.35C178.412 281.234 178.47 281.109 178.56 280.917L172.778 278.22C172.543 278.723 171.565 280.534 172.084 282.612L178.274 281.066ZM177.716 280.335C178.051 280.54 178.215 280.834 178.274 281.066L172.084 282.612C172.395 283.853 173.169 285.034 174.392 285.781L177.716 280.335ZM177.42 280.193C177.471 280.209 177.51 280.222 177.53 280.229C177.552 280.237 177.569 280.243 177.577 280.247C177.594 280.253 177.601 280.256 177.596 280.254C177.584 280.249 177.56 280.239 177.526 280.224C177.494 280.21 177.464 280.197 177.446 280.188C177.437 280.184 177.437 280.184 177.445 280.188C177.448 280.189 177.463 280.196 177.483 280.206C177.493 280.211 177.513 280.221 177.538 280.234C177.551 280.241 177.57 280.251 177.592 280.264C177.613 280.275 177.651 280.296 177.697 280.324L174.411 285.792C174.493 285.841 174.559 285.876 174.576 285.885C174.603 285.899 174.626 285.91 174.639 285.917C174.667 285.931 174.69 285.942 174.704 285.949C174.734 285.963 174.764 285.977 174.789 285.988C174.841 286.012 174.902 286.039 174.965 286.067C175.001 286.083 175.297 286.216 175.562 286.297L177.42 280.193ZM178.066 280.469C178.063 280.467 178.05 280.46 178.036 280.453C178.022 280.445 177.996 280.431 177.965 280.415C177.937 280.4 177.882 280.373 177.812 280.341C177.767 280.321 177.598 280.244 177.371 280.179L175.611 286.311C175.484 286.275 175.385 286.238 175.329 286.215C175.267 286.191 175.217 286.169 175.184 286.154C175.119 286.125 175.07 286.1 175.048 286.089C175.007 286.068 174.974 286.049 174.989 286.058L178.066 280.469ZM173.531 282.258C173.968 280.961 175.025 280.383 175.727 280.195C176.317 280.037 176.799 280.092 176.963 280.113C177.338 280.161 177.617 280.268 177.668 280.287C177.84 280.352 177.969 280.418 177.981 280.424C178.04 280.454 178.093 280.484 178.065 280.468L174.99 286.058C174.99 286.058 175.005 286.066 175.02 286.074C175.032 286.081 175.067 286.1 175.111 286.122C175.128 286.13 175.261 286.198 175.436 286.264C175.488 286.283 175.768 286.391 176.143 286.439C176.308 286.461 176.79 286.515 177.38 286.357C178.082 286.169 179.14 285.591 179.577 284.294L173.531 282.258ZM173.384 283.613C173.375 283.537 173.36 283.37 173.367 283.157C173.375 282.94 173.408 282.626 173.528 282.267L179.58 284.285C179.808 283.6 179.737 283.024 179.725 282.917L173.384 283.613ZM173.39 283.665V283.669L179.719 282.862L179.718 282.857L173.39 283.665ZM173.501 282.322C173.364 282.775 173.358 283.157 173.366 283.37C173.37 283.48 173.379 283.569 173.385 283.621C173.388 283.648 173.39 283.67 173.392 283.683C173.393 283.69 173.394 283.696 173.395 283.7C173.395 283.703 173.395 283.706 173.395 283.706L179.713 282.816C179.708 282.784 179.734 282.946 179.741 283.136C179.748 283.343 179.743 283.72 179.607 284.167L173.501 282.322ZM177.157 280.149C177.274 280.151 177.339 280.163 177.356 280.167C177.371 280.169 177.407 280.176 177.463 280.192C177.49 280.199 177.543 280.214 177.612 280.237C177.647 280.249 177.698 280.268 177.761 280.293C177.817 280.315 177.92 280.359 178.044 280.425L175.064 286.065C175.426 286.257 175.768 286.342 175.798 286.35C175.928 286.385 176.056 286.414 176.176 286.436C176.401 286.479 176.721 286.524 177.077 286.528L177.157 280.149ZM177.319 278.954C177.164 279.258 177.034 279.513 176.893 279.756C176.752 279.998 176.637 280.164 176.548 280.271C176.455 280.381 176.448 280.359 176.545 280.302C176.669 280.229 176.888 280.146 177.155 280.149L177.079 286.528C179.228 286.554 180.665 285.292 181.44 284.365C182.206 283.45 182.736 282.376 183.007 281.843L177.319 278.954ZM177.398 278.798L177.32 278.952L183.006 281.846L183.084 281.692L177.398 278.798ZM177.693 276.201C177.776 277.308 177.787 277.627 177.758 277.871C177.746 277.975 177.721 278.167 177.401 278.792L183.081 281.697C183.593 280.696 183.96 279.749 184.094 278.621C184.211 277.632 184.122 276.623 184.055 275.723L177.693 276.201ZM177.686 276.108L177.693 276.201L184.055 275.724L184.048 275.632L177.686 276.108ZM178.008 274.338C177.952 274.511 177.882 274.722 177.816 274.94L183.918 276.8C183.961 276.66 184.008 276.515 184.069 276.332L178.008 274.338ZM178.013 274.326H178.012L184.065 276.343L178.013 274.326ZM178.003 274.356L178.002 274.358L184.076 276.311V276.308L178.003 274.356ZM178.289 273.334C178.271 273.501 178.209 273.728 178.01 274.335L184.07 276.328C184.23 275.842 184.527 274.976 184.631 274.03L178.289 273.334ZM178.269 271.939C178.311 272.631 178.326 273.005 178.289 273.334L184.631 274.032C184.736 273.073 184.673 272.155 184.637 271.555L178.269 271.939ZM178.249 269.74C178.182 270.582 178.236 271.393 178.269 271.939L184.637 271.555C184.599 270.931 184.583 270.57 184.609 270.25L178.249 269.74ZM179.843 267.232C179.869 267.213 179.892 267.2 179.911 267.19L182.947 272.8C183.127 272.703 183.306 272.594 183.48 272.473L179.843 267.232ZM180.413 266.89C180.314 266.949 180.215 267.007 180.115 267.062L183.208 272.642C183.375 272.549 183.541 272.453 183.706 272.354L180.413 266.89ZM203.704 269.531C196.323 269.531 189.404 268.471 182.966 266.564L181.153 272.68C188.175 274.761 195.704 275.911 203.704 275.911V269.531ZM266.8 235.534C259.644 242.621 248.856 251.186 237.258 257.961C225.57 264.789 213.51 269.531 203.704 269.531V275.911C215.235 275.911 228.5 270.466 240.476 263.47C252.542 256.422 263.755 247.527 271.289 240.068L266.8 235.534ZM282.761 233.833C282.535 230.651 282.534 230.651 282.534 230.651H282.532L282.529 230.652C282.527 230.652 282.524 230.652 282.52 230.652C282.512 230.653 282.503 230.654 282.49 230.655C282.465 230.656 282.431 230.659 282.387 230.663C282.299 230.67 282.174 230.68 282.016 230.695C281.7 230.723 281.252 230.768 280.707 230.831C279.62 230.958 278.126 231.163 276.513 231.477C274.912 231.789 273.123 232.222 271.471 232.823C269.886 233.399 268.105 234.242 266.8 235.534L271.288 240.068C271.611 239.748 272.359 239.289 273.651 238.819C274.876 238.373 276.313 238.016 277.734 237.739C279.143 237.464 280.468 237.282 281.445 237.168C281.931 237.111 282.325 237.072 282.595 237.048C282.729 237.036 282.832 237.027 282.899 237.022C282.932 237.019 282.957 237.017 282.972 237.016C282.979 237.015 282.984 237.015 282.987 237.015H282.989C282.989 237.015 282.987 237.015 282.761 233.833ZM270.225 218.482C268.763 221.084 269.799 223.846 270.698 225.523C271.696 227.385 273.215 229.214 274.655 230.742C276.124 232.301 277.656 233.697 278.808 234.695C279.387 235.197 279.878 235.605 280.227 235.889C280.401 236.032 280.541 236.143 280.639 236.221C280.688 236.26 280.726 236.291 280.754 236.312C280.767 236.323 280.778 236.332 280.786 236.338C280.79 236.341 280.793 236.344 280.796 236.346L280.799 236.348L280.8 236.349C280.8 236.349 280.801 236.35 282.761 233.833C284.721 231.316 284.721 231.317 284.721 231.317C284.721 231.317 284.72 231.316 284.718 231.314C284.715 231.311 284.708 231.306 284.699 231.299C284.68 231.284 284.651 231.261 284.611 231.23C284.532 231.166 284.412 231.071 284.259 230.945C283.951 230.695 283.51 230.328 282.985 229.873C281.93 228.959 280.569 227.716 279.297 226.366C277.996 224.986 276.925 223.636 276.321 222.509C275.617 221.197 276.039 221.158 275.787 221.606L270.225 218.482ZM287.913 220.431C288.73 217.348 288.73 217.347 288.73 217.347H288.728L288.725 217.346C288.722 217.346 288.719 217.345 288.715 217.344C288.706 217.341 288.695 217.338 288.68 217.335C288.651 217.327 288.609 217.316 288.556 217.303C288.45 217.275 288.298 217.237 288.106 217.19C287.722 217.095 287.176 216.965 286.517 216.82C285.207 216.53 283.417 216.172 281.55 215.914C279.718 215.661 277.649 215.48 275.836 215.614C274.933 215.681 273.935 215.835 273.007 216.191C272.089 216.542 270.941 217.208 270.225 218.482L275.787 221.606C275.507 222.105 275.151 222.201 275.287 222.149C275.412 222.101 275.729 222.019 276.305 221.977C277.451 221.892 279 222.002 280.677 222.234C282.318 222.46 283.929 222.781 285.141 223.049C285.743 223.182 286.24 223.3 286.582 223.385C286.753 223.427 286.886 223.46 286.973 223.483C287.017 223.494 287.05 223.502 287.07 223.508C287.081 223.51 287.088 223.512 287.092 223.513C287.094 223.514 287.096 223.514 287.096 223.514C287.096 223.514 287.096 223.514 287.913 220.431ZM276.741 207.765C277.623 209.707 279.808 213.387 281.645 216.396C282.588 217.942 283.482 219.377 284.139 220.425C284.468 220.95 284.738 221.378 284.926 221.676C285.02 221.825 285.093 221.941 285.144 222.02C285.169 222.06 285.188 222.09 285.201 222.111C285.208 222.121 285.213 222.129 285.216 222.135C285.218 222.137 285.219 222.139 285.22 222.141L285.221 222.142L285.222 222.143C285.222 222.143 285.222 222.143 287.913 220.431C290.604 218.719 290.604 218.719 290.604 218.719L290.603 218.717C290.603 218.717 290.602 218.715 290.6 218.712C290.597 218.707 290.592 218.7 290.586 218.69C290.574 218.671 290.555 218.642 290.531 218.604C290.483 218.527 290.411 218.413 290.319 218.268C290.134 217.976 289.868 217.554 289.545 217.038C288.896 216.003 288.017 214.59 287.09 213.071C285.184 209.951 283.235 206.638 282.549 205.127L276.741 207.765ZM273.485 202.412C274.859 204.424 275.966 206.059 276.741 207.765L282.549 205.127C281.506 202.829 280.064 200.733 278.754 198.814L273.485 202.412ZM266.821 188.336C268.099 194.569 271.081 198.891 273.485 202.412L278.754 198.814C276.34 195.278 274.064 191.9 273.071 187.055L266.821 188.336ZM265.707 171.119C265.489 175.024 265.19 180.375 266.821 188.336L273.071 187.055C271.605 179.899 271.869 175.195 272.077 171.475L265.707 171.119ZM265.249 164.786C265.913 166.209 265.898 167.709 265.707 171.119L272.077 171.475C272.246 168.439 272.495 165.228 271.031 162.09L265.249 164.786ZM226.597 134.263C233.177 136.765 241.456 141.299 248.841 146.848C256.289 152.443 262.453 158.79 265.249 164.786L271.031 162.09C267.576 154.681 260.423 147.569 252.673 141.747C244.86 135.878 236.06 131.037 228.865 128.3L226.597 134.263ZM218.082 125.573C219.709 127.564 221.243 129.441 222.529 130.877C223.173 131.595 223.805 132.259 224.395 132.797C224.905 133.261 225.681 133.915 226.597 134.263L228.865 128.3C229.155 128.41 229.131 128.482 228.691 128.081C228.332 127.754 227.864 127.271 227.28 126.619C226.112 125.316 224.682 123.567 223.021 121.535L218.082 125.573ZM200.111 108.663C200.812 108.737 201.905 109.151 203.41 110.172C204.871 111.163 206.479 112.56 208.177 114.246C211.58 117.624 215.04 121.851 218.082 125.573L223.021 121.535C220.025 117.87 216.353 113.372 212.672 109.718C210.828 107.888 208.907 106.192 206.993 104.893C205.123 103.625 202.996 102.551 200.775 102.318L200.111 108.663ZM198.829 134.854C199.704 135.296 200.945 135.558 202.237 135.009C203.396 134.518 204.028 133.604 204.35 132.995C204.972 131.822 205.202 130.331 205.317 129.092C205.565 126.428 205.431 122.82 205.178 119.346C204.921 115.821 204.526 112.243 204.197 109.557C204.032 108.211 203.884 107.084 203.776 106.291C203.722 105.894 203.678 105.581 203.647 105.366C203.632 105.258 203.62 105.175 203.612 105.119C203.608 105.09 203.605 105.069 203.603 105.054C203.602 105.046 203.601 105.04 203.6 105.036C203.6 105.034 203.6 105.031 203.6 105.031L203.599 105.03C203.599 105.03 203.599 105.029 200.443 105.491C197.287 105.952 197.287 105.952 197.287 105.952V105.956C197.288 105.959 197.288 105.963 197.289 105.97C197.291 105.982 197.294 106.002 197.298 106.028C197.305 106.08 197.316 106.158 197.331 106.26C197.36 106.465 197.402 106.766 197.454 107.151C197.559 107.92 197.704 109.02 197.865 110.332C198.187 112.964 198.569 116.429 198.815 119.809C199.065 123.241 199.161 126.4 198.965 128.501C198.859 129.644 198.699 130.035 198.713 130.009C198.731 129.974 199.004 129.451 199.744 129.137C200.616 128.767 201.377 128.994 201.705 129.159L198.829 134.854ZM189.018 128.923C192.266 131.037 195.682 133.265 198.829 134.854L201.705 129.159C198.932 127.76 195.829 125.745 192.498 123.577L189.018 128.923ZM172.933 121.216C174.238 121.038 176.356 121.572 179.429 123.121C182.379 124.607 185.616 126.71 189.018 128.923L192.498 123.577C189.176 121.415 185.626 119.1 182.3 117.424C179.095 115.809 175.447 114.434 172.069 114.895L172.933 121.216ZM181.383 135.798C182.989 135.197 184.447 134.31 185.426 132.961C186.472 131.522 186.725 129.899 186.482 128.395C186.054 125.75 184.085 123.399 182.446 121.757C180.663 119.971 178.581 118.366 176.996 117.233C176.193 116.659 175.496 116.191 174.996 115.864C174.746 115.701 174.544 115.572 174.402 115.482C174.331 115.437 174.275 115.402 174.235 115.378C174.215 115.365 174.199 115.356 174.188 115.348C174.182 115.345 174.177 115.342 174.174 115.34C174.172 115.339 174.169 115.337 174.169 115.337L174.167 115.336C174.167 115.336 174.166 115.335 172.501 118.056C170.836 120.777 170.835 120.776 170.835 120.776C170.835 120.776 170.837 120.777 170.84 120.779C170.846 120.783 170.856 120.789 170.869 120.797C170.897 120.814 170.94 120.841 170.998 120.878C171.113 120.95 171.286 121.061 171.506 121.204C171.946 121.492 172.568 121.91 173.286 122.423C174.742 123.464 176.504 124.835 177.931 126.264C179.501 127.836 180.107 128.936 180.184 129.413C180.194 129.471 180.182 129.326 180.264 129.213C180.281 129.189 180.08 129.474 179.149 129.822L181.383 135.798ZM140.519 165.626C143.492 159.713 149.891 153.629 157.701 148.238C165.434 142.899 174.182 138.49 181.383 135.798L179.149 129.822C171.471 132.692 162.254 137.342 154.076 142.988C145.974 148.581 138.515 155.409 134.819 162.761L140.519 165.626ZM141.023 170.89C140.641 169.339 140.384 168.261 140.304 167.329C140.231 166.472 140.336 165.991 140.519 165.626L134.819 162.761C133.942 164.507 133.81 166.271 133.948 167.874C134.079 169.402 134.48 170.998 134.829 172.415L141.023 170.89ZM141.129 188.263C143.443 180.631 142.018 174.927 141.023 170.89L134.829 172.415C135.778 176.269 136.807 180.528 135.023 186.412L141.129 188.263ZM141 188.679C141.043 188.541 141.086 188.403 141.129 188.263L135.023 186.412C134.989 186.525 134.955 186.637 134.919 186.748L141 188.679ZM137.536 193.835C138.464 192.417 139.464 191.026 140.513 189.625L135.406 185.802C134.314 187.261 133.226 188.77 132.197 190.343L137.536 193.835ZM133.202 201.046C134.64 198.55 136.025 196.145 137.536 193.835L132.197 190.343C130.57 192.83 129.096 195.391 127.674 197.861L133.202 201.046ZM131.332 204.265C131.967 203.189 132.589 202.109 133.202 201.046L127.674 197.861C127.058 198.929 126.453 199.981 125.838 201.024L131.332 204.265ZM118.919 218.605C123.057 214.035 127.059 209.369 131.016 204.71L126.154 200.579C122.204 205.229 118.257 209.832 114.19 214.323L118.919 218.605ZM136.794 242.799L136.832 242.801L137.172 236.431L137.134 236.429L136.794 242.799ZM137.689 236.547C137.7 236.55 137.938 236.611 138.216 236.747C138.258 236.767 138.835 237.024 139.315 237.628C139.597 237.983 140.057 238.728 140.003 239.776C139.947 240.871 139.368 241.608 138.951 241.983C138.295 242.573 137.576 242.71 137.545 242.717C137.349 242.763 137.192 242.779 137.128 242.785C136.988 242.799 136.88 242.799 136.855 242.799C136.764 242.799 136.692 242.794 136.791 242.799L137.137 236.429C137.116 236.428 137.077 236.426 137.038 236.424C137.01 236.423 136.926 236.419 136.829 236.419C136.79 236.42 136.671 236.42 136.523 236.434C136.455 236.441 136.294 236.458 136.095 236.504C136.062 236.512 135.341 236.649 134.684 237.24C134.267 237.616 133.688 238.353 133.632 239.449C133.578 240.497 134.038 241.242 134.321 241.598C134.802 242.203 135.38 242.461 135.425 242.483C135.709 242.621 135.956 242.686 135.981 242.693L137.689 236.547ZM138.007 236.634C137.905 236.607 137.804 236.579 137.704 236.551L135.966 242.689C136.094 242.725 136.221 242.76 136.346 242.794L138.007 236.634ZM135.575 242.473L135.604 242.489L138.749 236.939L138.721 236.923L135.575 242.473ZM135.491 242.426C135.52 242.442 135.549 242.458 135.578 242.474L138.718 236.922C138.679 236.899 138.64 236.877 138.601 236.855L135.491 242.426ZM135.451 242.403L135.495 242.428L138.597 236.853L138.553 236.829L135.451 242.403ZM234.134 260.677C231.275 261.057 229.44 263.689 229.798 266.384L236.122 265.544C236.206 266.177 235.769 266.895 234.974 267.001L234.134 260.677ZM239.841 265.044C239.472 262.261 236.908 260.309 234.134 260.677L234.974 267.001C234.264 267.095 233.612 266.603 233.517 265.884L239.841 265.044ZM240.681 270.527C240.38 268.665 240.087 266.849 239.84 265.033L233.518 265.895C233.778 267.801 234.084 269.695 234.383 271.544L240.681 270.527ZM241.462 275.58C241.222 273.878 240.948 272.184 240.681 270.527L234.383 271.544C234.652 273.212 234.915 274.843 235.146 276.472L241.462 275.58ZM237.05 281.436C239.931 281.042 241.845 278.381 241.464 275.594L235.144 276.458C235.061 275.851 235.479 275.212 236.184 275.116L237.05 281.436ZM231.207 276.99C231.591 279.799 234.189 281.83 237.052 281.436L236.182 275.116C236.865 275.022 237.441 275.495 237.527 276.126L231.207 276.99ZM230.723 273.367C230.884 274.572 231.045 275.774 231.205 276.978L237.529 276.138C237.369 274.932 237.208 273.726 237.047 272.522L230.723 273.367ZM229.797 266.376C230.101 268.711 230.412 271.042 230.723 273.367L237.047 272.522C236.736 270.195 236.425 267.875 236.123 265.552L229.797 266.376ZM139.362 374.216C136.353 373.157 136.354 373.156 136.354 373.156C136.354 373.156 136.353 373.158 136.352 373.16C136.351 373.163 136.349 373.169 136.346 373.177C136.34 373.193 136.331 373.219 136.319 373.253C136.295 373.321 136.257 373.425 136.207 373.562C136.108 373.835 135.959 374.24 135.764 374.755C135.373 375.787 134.8 377.26 134.074 379.014C132.618 382.53 130.565 387.127 128.155 391.53C125.716 395.985 123.034 400.011 120.378 402.559C117.619 405.206 115.859 405.419 114.656 404.881L112.049 410.703C116.974 412.908 121.529 410.296 124.795 407.163C128.164 403.93 131.219 399.218 133.751 394.594C136.311 389.916 138.463 385.091 139.969 381.454C140.723 379.631 141.321 378.096 141.731 377.013C141.936 376.471 142.094 376.041 142.202 375.745C142.256 375.597 142.297 375.482 142.325 375.403C142.34 375.363 142.35 375.333 142.358 375.311C142.362 375.301 142.365 375.292 142.367 375.286C142.368 375.283 142.369 375.281 142.369 375.279L142.37 375.277C142.37 375.277 142.371 375.275 139.362 374.216ZM138.277 377.406H139.362V371.026H138.277V377.406ZM130.713 347.502L135.129 374.727L141.426 373.705L137.011 346.48L130.713 347.502ZM132.295 363.802L136.925 347.882L130.799 346.1L126.17 362.021L132.295 363.802ZM113.541 339.84L126.407 364.392L132.058 361.431L119.192 336.879L113.541 339.84ZM114.656 404.881C113.053 404.163 111.062 402.377 108.804 399.258C106.597 396.208 104.352 392.192 102.134 387.472C97.7016 378.04 93.5358 366.14 90.0575 354.368C86.5831 342.608 83.8253 331.079 82.1885 322.431C81.3677 318.094 80.8427 314.554 80.6404 312.1C80.5375 310.851 80.53 310.016 80.5713 309.543C80.5933 309.29 80.6161 309.31 80.5563 309.475C80.5431 309.511 80.2043 310.519 78.9824 310.978L76.7424 305.004C75.2705 305.556 74.7297 306.83 74.5607 307.295C74.3451 307.888 74.2585 308.499 74.2158 308.989C74.1276 310 74.1697 311.257 74.2824 312.624C74.5114 315.401 75.0824 319.191 75.9202 323.617C77.6007 332.496 80.411 344.233 83.9394 356.175C87.4639 368.104 91.7357 380.344 96.36 390.185C98.6703 395.102 101.109 399.507 103.637 402.999C106.115 406.422 108.912 409.299 112.049 410.703L114.656 404.881Z" fill="white"/>
<path d="M160.591 279.914C160.591 279.914 207.679 337.214 257.141 278.221C257.141 278.221 277.087 275.973 299.179 293.714L279.439 357.708L279.913 379.615L278.964 335.801L281.941 473.119L288.179 511.214L127.179 523.214L140.627 451.128L135.618 337.214L136.686 361.491L127.362 353.991L110.862 319.491L121.179 293.714L160.591 279.914Z" fill="#BBC1F1"/>
<path d="M218.873 207.817C218.873 207.817 245.5 195.491 260.27 202.967C265.296 200.011 239.555 161.564 218.873 207.817Z" fill="white" stroke="#000002" stroke-width="1.5" stroke-miterlimit="10" stroke-linejoin="round"/>
<path d="M201.179 222.214L205.104 226.152C205.104 226.152 208.308 223.791 209.679 222.214" stroke="#823F4B" stroke-width="8" stroke-miterlimit="10" stroke-linecap="round" stroke-linejoin="round"/>
<path d="M204.441 234.156C204.441 234.156 190.16 243.031 162.229 234.444C162.229 234.444 184.572 262.53 205.855 263.255C227.138 263.98 251.43 229.813 251.43 229.813C230.574 244.442 204.441 234.156 204.441 234.156Z" fill="#541F17"/>
<path d="M177.823 238.681L186.61 248.77L187.62 243.531L227.107 243.454L228.445 248.546L236.13 237.36C214.769 241.326 204.15 235.448 204.15 235.448C204.15 235.448 198.025 240.727 177.823 238.681Z" fill="#FFF8F3"/>
<path d="M189.762 249.121C189.626 244.764 199.048 248.142 206.385 247.914C213.722 247.685 224.624 244.594 224.76 248.952C224.895 253.309 213.488 259.807 206.151 260.036C198.814 260.264 189.898 253.479 189.762 249.121Z" fill="#E19F97"/>
<path d="M229 200.476C235.946 180.883 249.293 189.194 251.98 198.124C247 198.124 229.17 200.481 229.17 200.481" fill="black"/>
<path d="M229 200.476C235.946 180.883 249.293 189.194 251.98 198.124C247 198.124 229.17 200.481 229.17 200.481" stroke="#000002" stroke-opacity="0.918919" stroke-width="5.88512" stroke-miterlimit="10" stroke-linecap="round" stroke-linejoin="round"/>
<path d="M239.102 199.082C238.5 197.481 238.828 195.877 239.835 195.498C240.842 195.12 242.146 196.11 242.748 197.711C243.35 199.312 243.021 200.916 242.014 201.295C241.008 201.673 239.704 200.683 239.102 199.082Z" fill="white"/>
<path d="M193.203 208.016C193.203 208.016 165.946 198.617 152.526 207.843C147.306 205.434 167.677 163.713 193.203 208.016Z" fill="white" stroke="#000002" stroke-width="1.5" stroke-miterlimit="10" stroke-linejoin="round"/>
<path d="M183.161 202.491C177.5 180.491 158.5 188.491 160.212 201.468C165.162 200.885 183.161 202.143 183.161 202.143" fill="black"/>
<path d="M183.161 202.491C177.5 180.491 158.5 188.491 160.212 201.468C165.162 200.885 183.161 202.143 183.161 202.143" stroke="#000002" stroke-opacity="0.918919" stroke-width="5.88512" stroke-miterlimit="10" stroke-linecap="round" stroke-linejoin="round"/>
<path d="M256.795 212.801C256.795 212.723 256.858 212.66 256.935 212.66C257.013 212.66 257.076 212.723 257.076 212.801C257.076 212.878 257.013 212.941 256.935 212.941C256.858 212.941 256.795 212.878 256.795 212.801Z" fill="white" stroke="#000002" stroke-width="0.706675" stroke-miterlimit="10" stroke-linejoin="round"/>
<path d="M236.574 222.07C236.574 221.992 236.637 221.929 236.714 221.929C236.792 221.929 236.855 221.992 236.855 222.07C236.855 222.147 236.792 222.21 236.714 222.21C236.637 222.21 236.574 222.147 236.574 222.07Z" fill="white" stroke="#000002" stroke-width="0.706675" stroke-miterlimit="10" stroke-linejoin="round"/>
<path d="M246.123 221.086C246.123 220.931 246.186 220.805 246.263 220.805C246.341 220.805 246.404 220.931 246.404 221.086C246.404 221.241 246.341 221.367 246.263 221.367C246.186 221.367 246.123 221.241 246.123 221.086Z" fill="white" stroke="#000002" stroke-width="0.706675" stroke-miterlimit="10" stroke-linejoin="round"/>
<path d="M187.707 219.402C187.707 219.402 187.769 219.402 187.847 219.402C187.924 219.402 187.987 219.402 187.987 219.402" stroke="#000002" stroke-width="0.492477" stroke-miterlimit="10" stroke-linecap="round" stroke-linejoin="round"/>
<path d="M170.575 224.456C170.575 224.456 170.763 224.456 170.996 224.456C171.229 224.456 171.417 224.456 171.417 224.456" stroke="#000002" stroke-width="1.78404" stroke-miterlimit="10" stroke-linecap="round" stroke-linejoin="round"/>
<path d="M155.128 227.826C155.128 227.671 155.191 227.545 155.269 227.545C155.346 227.545 155.409 227.671 155.409 227.826C155.409 227.981 155.346 228.107 155.269 228.107C155.191 228.107 155.128 227.981 155.128 227.826Z" stroke="#000002" stroke-width="1.78404" stroke-miterlimit="10" stroke-linecap="round" stroke-linejoin="round"/>
<path d="M188.549 223.193C188.549 223.116 188.612 223.053 188.689 223.053C188.767 223.053 188.83 223.116 188.83 223.193C188.83 223.271 188.767 223.333 188.689 223.333C188.612 223.333 188.549 223.271 188.549 223.193Z" stroke="#000002" stroke-width="1.78404" stroke-miterlimit="10" stroke-linecap="round" stroke-linejoin="round"/>
<path d="M221.785 230.893C221.785 230.851 222.041 230.817 222.356 230.817C222.672 230.817 222.928 230.851 222.928 230.893C222.928 230.935 222.672 230.969 222.356 230.969C222.041 230.969 221.785 230.935 221.785 230.893Z" stroke="#000002" stroke-width="1.78404" stroke-miterlimit="10" stroke-linecap="round" stroke-linejoin="round"/>
<path d="M191.643 372.164L191.733 343.471C191.738 341.732 190.364 340.318 188.663 340.312L160.601 340.224C158.899 340.218 157.516 341.624 157.51 343.364L157.42 372.056C157.414 373.796 158.789 375.21 160.49 375.215L188.553 375.304C190.254 375.309 191.637 373.904 191.643 372.164ZM163.651 370.021C162.214 370.017 161.054 368.828 161.058 367.358C161.063 365.894 162.231 364.708 163.668 364.712C165.1 364.717 166.26 365.91 166.256 367.375C166.251 368.844 165.084 370.026 163.651 370.021ZM163.712 350.747C162.274 350.743 161.114 349.554 161.119 348.084C161.124 346.62 162.291 345.434 163.729 345.438C165.161 345.443 166.321 346.636 166.316 348.101C166.312 349.57 165.144 350.752 163.712 350.747ZM174.571 360.419C173.134 360.414 171.973 359.225 171.978 357.756C171.982 356.291 173.15 355.105 174.588 355.109C176.02 355.114 177.18 356.308 177.175 357.772C177.171 359.242 176.003 360.423 174.571 360.419ZM185.429 370.09C183.992 370.085 182.832 368.897 182.837 367.427C182.841 365.963 184.009 364.776 185.446 364.781C186.878 364.785 188.039 365.979 188.035 367.443C188.03 368.913 186.863 370.094 185.429 370.09ZM185.49 350.816C184.053 350.811 182.893 349.623 182.898 348.153C182.902 346.688 184.07 345.502 185.507 345.507C186.939 345.511 188.1 346.705 188.095 348.169C188.091 349.639 186.923 350.82 185.49 350.816Z" fill="#2D2145"/>
<path d="M170.301 201.155C169.699 199.554 170.027 197.95 171.034 197.571C172.041 197.193 173.345 198.183 173.947 199.784C174.549 201.385 174.22 202.989 173.213 203.368C172.207 203.746 170.903 202.756 170.301 201.155Z" fill="white"/>
<path d="M273.696 336.887L265.991 309.248C265.524 307.572 263.817 306.584 262.178 307.041L235.146 314.577C233.508 315.034 232.558 316.762 233.025 318.438L240.73 346.077C241.197 347.752 242.904 348.74 244.543 348.283L271.575 340.748C273.213 340.291 274.163 338.562 273.696 336.887ZM246.174 342.426C244.789 342.812 243.35 341.983 242.956 340.568C242.562 339.157 243.364 337.698 244.748 337.312C246.128 336.927 247.569 337.761 247.962 339.172C248.357 340.587 247.554 342.041 246.174 342.426ZM240.998 323.86C239.614 324.246 238.174 323.417 237.78 322.001C237.386 320.59 238.188 319.132 239.573 318.746C240.952 318.361 242.393 319.195 242.786 320.606C243.181 322.021 242.378 323.475 240.998 323.86ZM254.076 330.219C252.691 330.605 251.251 329.776 250.857 328.36C250.463 326.949 251.266 325.49 252.65 325.105C254.03 324.72 255.47 325.554 255.864 326.964C256.258 328.38 255.456 329.834 254.076 330.219ZM267.153 336.578C265.768 336.964 264.329 336.135 263.934 334.719C263.541 333.308 264.342 331.85 265.727 331.464C267.107 331.079 268.548 331.913 268.941 333.323C269.336 334.739 268.533 336.193 267.153 336.578ZM261.977 318.012C260.592 318.398 259.153 317.569 258.759 316.153C258.365 314.742 259.167 313.283 260.551 312.898C261.931 312.513 263.372 313.346 263.766 314.757C264.16 316.173 263.357 317.627 261.977 318.012Z" fill="#2D2145"/>
<path d="M166.592 309.943L149.687 286.759C148.662 285.353 146.717 285.026 145.342 286.029L122.668 302.563C121.294 303.565 121.01 305.517 122.035 306.923L138.94 330.106C139.965 331.512 141.91 331.838 143.285 330.836L165.959 314.302C167.334 313.3 167.617 311.348 166.592 309.943ZM142.759 324.778C141.598 325.625 139.959 325.354 139.093 324.166C138.23 322.983 138.47 321.336 139.631 320.489C140.788 319.645 142.43 319.921 143.293 321.104C144.159 322.291 143.916 323.934 142.759 324.778ZM131.403 309.205C130.242 310.052 128.603 309.78 127.737 308.593C126.874 307.409 127.114 305.762 128.275 304.915C129.432 304.071 131.074 304.347 131.937 305.531C132.803 306.718 132.56 308.361 131.403 309.205ZM145.88 310.576C144.718 311.423 143.079 311.151 142.213 309.964C141.35 308.78 141.59 307.133 142.752 306.286C143.909 305.442 145.55 305.718 146.413 306.901C147.279 308.089 147.037 309.732 145.88 310.576ZM160.356 311.947C159.195 312.794 157.556 312.522 156.69 311.335C155.827 310.151 156.067 308.504 157.228 307.657C158.385 306.813 160.027 307.089 160.89 308.272C161.756 309.459 161.514 311.103 160.356 311.947ZM149 296.374C147.839 297.22 146.2 296.949 145.334 295.761C144.471 294.578 144.711 292.931 145.872 292.084C147.029 291.24 148.671 291.515 149.534 292.699C150.4 293.886 150.158 295.529 149 296.374Z" fill="#F1E8FF"/>
<path d="M263.179 279.149L261.179 382.714L265.179 464.149" stroke="#2D2145" stroke-width="12"/>
<path d="M180.179 332.149L182.179 517.149" stroke="#F1F3FF" stroke-width="12"/>
<path d="M221 173.991C221 173.991 224.183 171.268 226.683 170.268C229.183 169.268 233.5 168.491 233.5 168.491" stroke="#2D2145" stroke-width="5" stroke-linecap="round"/>
<path d="M176 168.491C176 168.491 180.188 168.61 182.712 169.548C185.236 170.486 188.956 172.809 188.956 172.809" stroke="#2D2145" stroke-width="5" stroke-linecap="round"/>
<path d="M286 239.491L353 282.991L316.5 322.491L280.5 351.991L273 282.991L286 239.491Z" fill="#BBC1F1"/>
<g clip-path="url(#clip1_104_69)">
<path d="M226.337 94.0404C222.521 93.3205 220.011 89.6438 220.73 85.8282C220.783 85.5497 220.853 85.2743 220.938 85.0037L225.084 70.3523L217.078 57.0898C216.101 55.4892 215.817 53.5602 216.293 51.7459C216.75 49.966 217.889 48.4362 219.463 47.4871C220.496 46.8596 221.679 46.5202 222.888 46.5018L238.27 45.9163L248.392 34.1959C250.003 32.3153 252.495 31.4389 254.928 31.8969C256.158 32.1068 257.31 32.6392 258.267 33.4402C259.182 34.2287 259.871 35.2448 260.266 36.3858L265.592 50.8535L270.2 52.8244C271.217 53.2526 272.316 53.6867 273.432 54.1331C275.848 55.0968 278.352 56.0859 280.369 57.1359C283.794 58.9231 285.119 63.1484 283.332 66.5731C282.878 67.4427 282.247 68.2061 281.479 68.8155L269.303 78.4035L267.969 93.8474C267.816 95.7165 266.907 97.4433 265.453 98.6274C264.044 99.8069 262.229 100.386 260.398 100.242C260.192 100.205 259.984 100.167 259.773 100.128C258.838 99.9561 257.949 99.5941 257.16 99.0633L244.269 90.4396L229.193 93.9711C228.268 94.1918 227.307 94.2209 226.371 94.0561L226.337 94.0404Z" fill="#FFE64C"/>
<path d="M246.25 79.8185C242.63 79.1744 239.986 76.0365 239.965 72.3603L239.968 71.2664L255.07 74.016L254.676 75.0481C253.379 78.4544 249.847 80.4603 246.257 79.8292L246.25 79.8185Z" fill="#EB6B75"/>
<path d="M237.071 62.0582C238.938 64.7462 243.025 61.9263 241.159 59.2293C239.293 56.5323 235.214 59.3628 237.071 62.0582Z" fill="white"/>
<path d="M258.152 62.2766C257 63.077 256.715 64.6592 257.515 65.8115C258.316 66.9637 259.898 67.249 261.05 66.4485C262.199 65.6503 262.486 64.0731 261.692 62.9211C260.896 61.7659 259.314 61.4751 258.16 62.2714C258.158 62.2729 258.155 62.2751 258.152 62.2766Z" fill="white"/>
<path d="M226.337 94.0405C222.521 93.3205 220.011 89.6439 220.73 85.8283C220.783 85.5498 220.853 85.2744 220.938 85.0037L225.084 70.3524L217.078 57.0899C216.101 55.4893 215.817 53.5602 216.293 51.746C216.751 49.966 217.889 48.4362 219.463 47.4871C220.496 46.8597 221.679 46.5203 222.888 46.5019L238.27 45.9163L248.392 34.1959C250.003 32.3153 252.495 31.439 254.928 31.8969L247.621 72.033L239.852 70.6186C239.688 70.5886 239.529 70.6982 239.499 70.863C239.093 73.0153 239.572 75.2399 240.826 77.0351C242.024 78.8247 243.897 80.0506 246.017 80.4309L244.269 90.4396L229.193 93.9712C228.256 94.1916 227.283 94.2147 226.337 94.0405ZM239.673 57.6305C238.001 57.3327 236.405 58.4472 236.108 60.1179C235.967 60.9107 236.143 61.7285 236.598 62.3932C237.039 63.0655 237.734 63.5298 238.525 63.6794C240.176 64.0744 241.834 63.0566 242.229 61.4055C242.625 59.7544 241.607 58.0958 239.956 57.7007C239.846 57.6743 239.736 57.6542 239.625 57.6405L239.673 57.6305Z" fill="#F9C65B"/>
<path d="M263.88 48.9047L259.411 36.7634C259.069 35.7628 258.466 34.872 257.665 34.1817C256.851 33.4854 255.87 33.013 254.818 32.8121C253.765 32.6063 252.677 32.6824 251.663 33.0328C250.661 33.3864 249.772 33.999 249.085 34.8084L239.049 46.4136L238.704 46.8185L238.177 46.8348L222.974 47.4155C221.927 47.4372 220.905 47.7356 220.011 48.279C219.1 48.8334 218.348 49.615 217.83 50.5478C217.308 51.4818 217.042 52.5371 217.058 53.6064C217.078 54.6717 217.382 55.7122 217.94 56.62L225.817 69.7656L226.091 70.2175L225.951 70.7254L221.827 85.259C221.474 86.3088 221.421 87.4365 221.674 88.5144C221.918 89.5429 222.422 90.4905 223.137 91.269C223.843 92.0634 224.744 92.6587 225.75 92.9982C226.794 93.3332 227.909 93.3744 228.974 93.1175L243.94 89.5752L244.458 89.4543L244.9 89.7499L257.665 98.2946C258.505 98.8628 259.476 99.207 260.486 99.2946C261.574 99.3833 262.666 99.1827 263.651 98.7109C264.639 98.2398 265.483 97.5114 266.093 96.6019C266.659 95.7509 266.999 94.7697 267.08 93.7508L268.374 78.4213L268.423 77.897L268.838 77.5703L280.909 68.0942C281.592 67.5629 282.152 66.8895 282.55 66.12C283.625 63.997 283.384 61.4452 281.929 59.562C281.396 58.8963 280.726 58.3534 279.964 57.9696C277.963 56.941 275.46 55.9428 273.07 54.9932C271.945 54.5451 270.836 54.1094 269.838 53.6844L265.339 51.7802L264.852 51.5793L264.672 51.0788L263.88 48.9047ZM240.017 69.7131L255.563 72.5435C256.228 72.6647 256.669 73.3015 256.548 73.967C255.645 78.922 250.896 82.2069 245.94 81.3036C240.986 80.4007 237.701 75.6531 238.603 70.6997C238.723 70.0378 239.354 69.5971 240.017 69.7131ZM247.345 73.5449L240.89 72.3695C240.897 76.0592 243.894 79.0444 247.585 79.0372C250.356 79.0321 252.837 77.3155 253.819 74.7236L247.345 73.5449ZM240.397 59.7641C239.911 59.061 238.946 58.8853 238.243 59.3718C237.539 59.8583 237.364 60.8235 237.85 61.5266C238.342 62.2223 239.3 62.3967 240.005 61.919C240.705 61.43 240.88 60.4684 240.397 59.7641ZM239.838 56.725C242.002 57.121 243.436 59.1968 243.04 61.3621C242.85 62.3995 242.257 63.3196 241.39 63.9203C239.584 65.1696 237.108 64.7197 235.859 62.9142C235.859 62.9142 235.859 62.9142 235.858 62.9131C234.608 61.1037 235.059 58.6247 236.867 57.3721C237.732 56.7701 238.801 56.5372 239.838 56.725ZM260.868 63.4913C260.384 62.7885 259.421 62.6113 258.718 63.096C258.717 63.0968 258.715 63.0983 258.714 63.099C258.018 63.5906 257.843 64.5486 258.321 65.2538C258.813 65.9495 259.771 66.1239 260.476 65.6462C261.176 65.1572 261.351 64.1956 260.868 63.4913ZM260.309 60.4522C262.473 60.8482 263.907 62.924 263.511 65.0893C263.321 66.1268 262.728 67.0468 261.861 67.6475C260.055 68.8968 257.579 68.4469 256.33 66.6414C256.33 66.6414 256.33 66.6414 256.329 66.6403C255.076 64.837 255.523 62.36 257.326 61.1074C257.33 61.1045 257.333 61.1023 257.338 61.0993C258.203 60.4982 259.272 60.2653 260.309 60.4522ZM261.677 35.9318L266.138 48.0624L266.768 49.7393L270.777 51.4046C271.784 51.8312 272.866 52.262 273.965 52.696C276.408 53.6646 278.973 54.6835 281.076 55.768C282.152 56.3166 283.096 57.0918 283.843 58.0397C285.906 60.6781 286.244 64.2755 284.71 67.2523C284.152 68.3313 283.368 69.2763 282.409 70.0232L270.752 79.1817L269.497 93.9852C269.396 95.412 268.933 96.7897 268.151 97.9869C266.402 100.552 263.409 101.979 260.315 101.724C258.893 101.601 257.525 101.117 256.343 100.317L243.974 92.0602L229.534 95.4364C228.039 95.7965 226.474 95.7379 225.009 95.2673C222.146 94.3409 219.97 91.9925 219.263 89.067C218.916 87.58 218.981 86.0261 219.454 84.5744L223.418 70.5634L215.785 57.8739C215.002 56.5967 214.574 55.1335 214.546 53.6354C214.526 52.1398 214.901 50.6665 215.632 49.362C216.354 48.0529 217.405 46.9544 218.682 46.1756C219.96 45.4019 221.422 44.9833 222.916 44.9634L237.563 44.4032L247.207 33.2037C248.173 32.07 249.424 31.2126 250.83 30.7204C252.246 30.2307 253.766 30.1239 255.236 30.4095C256.705 30.6899 258.075 31.3491 259.21 32.321C260.338 33.2849 261.188 34.5314 261.677 35.9318Z" fill="#98402F"/>
</g>
<g clip-path="url(#clip2_104_69)">
<path d="M122.43 91.5846C118.226 92.7948 113.837 90.3687 112.626 86.1658C112.538 85.8589 112.468 85.5465 112.418 85.2308L109.16 68.3902L94.3821 59.1074C92.5878 57.9925 91.3242 56.1959 90.8825 54.1299C90.4406 52.1071 90.81 49.9911 91.9123 48.2383C92.6341 47.083 93.6515 46.1421 94.8584 45.5106L110.035 37.123L114.276 20.2006C114.943 17.4921 117.006 15.3468 119.685 14.574C121.029 14.1616 122.458 14.1132 123.827 14.4337C125.146 14.7634 126.355 15.4359 127.331 16.3836L140.024 28.2374L145.659 27.8837C146.898 27.7992 148.225 27.6783 149.574 27.5616C152.492 27.3063 155.513 27.0316 158.074 27.0655C162.425 27.1271 165.901 30.7054 165.84 35.0566C165.824 36.1615 165.576 37.2494 165.112 38.252L157.725 54.0703L164.213 70.2827C165.007 72.2407 164.967 74.4388 164.105 76.3672C163.286 78.2677 161.754 79.7712 159.838 80.5544C159.612 80.621 159.384 80.6884 159.152 80.7567C158.124 81.0576 157.046 81.1441 155.984 81.0098L138.644 78.8705L125.268 90.0668C124.449 90.7578 123.498 91.274 122.472 91.5828L122.43 91.5846Z" fill="#FFE64C"/>
<path d="M135.251 67.1818C131.283 68.369 127.033 66.5527 125.148 62.8652L124.596 61.7633L141.182 56.8727L141.31 58.1106C141.731 62.195 139.195 66.0038 135.264 67.1888L135.251 67.1818Z" fill="#EB6B75"/>
<path d="M117.013 53.9692C120.255 55.7262 122.936 50.8176 119.691 49.0506C116.447 47.2837 113.778 52.1993 117.013 53.9692Z" fill="white"/>
<path d="M138.331 43.5006C137.578 44.89 138.093 46.6263 139.483 47.3796C140.872 48.1329 142.608 47.6177 143.362 46.2283C144.113 44.8427 143.602 43.1105 142.219 42.3542C140.833 41.5958 139.094 42.1053 138.336 43.4916C138.335 43.4942 138.333 43.498 138.331 43.5006Z" fill="white"/>
<path d="M122.43 91.5845C118.226 92.7947 113.837 90.3686 112.626 86.1657C112.538 85.8589 112.468 85.5464 112.418 85.2307L109.16 68.3901L94.3821 59.1073C92.5878 57.9924 91.3242 56.1958 90.8825 54.1298C90.4406 52.107 90.81 49.991 91.9123 48.2382C92.6341 47.0829 93.6515 46.142 94.8584 45.5105L110.035 37.1229L114.276 20.2005C114.943 17.492 117.006 15.3468 119.685 14.574L132.683 58.6547L124.151 61.1703C123.97 61.2237 123.866 61.4143 123.92 61.5952C124.603 63.9663 126.212 65.9613 128.384 67.1314C130.496 68.3243 133.002 68.608 135.327 67.9159L138.644 78.8704L125.268 90.0667C124.437 90.7635 123.47 91.2798 122.43 91.5845ZM117.386 48.1957C115.553 48.7436 114.513 50.6738 115.06 52.5053C115.321 53.3743 115.912 54.1078 116.707 54.5457C117.491 54.9986 118.427 55.1131 119.297 54.8628C121.159 54.4231 122.311 52.5583 121.872 50.697C121.432 48.8358 119.567 47.6833 117.706 48.123C117.582 48.1518 117.461 48.1875 117.343 48.23L117.386 48.1957Z" fill="#F9C65B"/>
<path d="M137.313 27.1451L126.663 17.1967C125.811 16.3638 124.753 15.7733 123.596 15.4852C122.425 15.1971 121.199 15.2194 120.038 15.5508C118.874 15.8777 117.819 16.5057 116.976 17.3723C116.148 18.2359 115.564 19.3029 115.283 20.4655L111.071 37.2281L110.93 37.8103L110.408 38.0938L95.4084 46.386C94.3662 46.9386 93.4889 47.7572 92.8651 48.7571C92.2297 49.7767 91.8693 50.9444 91.8213 52.1453C91.7699 53.3493 92.0374 54.5458 92.5954 55.6135C93.1558 56.6749 93.9896 57.5672 95.011 58.1977L109.6 67.428L110.104 67.7441L110.221 68.3256L113.441 85.037C113.618 86.272 114.136 87.4337 114.938 88.3894C115.705 89.3003 116.692 89.9982 117.806 90.4187C118.918 90.8602 120.127 91.0023 121.311 90.8335C122.531 90.6414 123.673 90.1175 124.615 89.3189L137.874 78.1677L138.334 77.7836L138.929 77.8569L156.102 79.9806C157.235 80.1266 158.386 79.9806 159.447 79.5565C160.587 79.0939 161.583 78.3386 162.335 77.3647C163.09 76.3897 163.569 75.2292 163.722 74.005C163.86 72.8617 163.704 71.7026 163.269 70.6366L156.799 54.5593L156.582 54.0072L156.834 53.4682L164.173 37.8156C164.591 36.9347 164.813 35.9731 164.823 34.9976C164.829 32.3164 163.292 29.8718 160.873 28.7151C160 28.3155 159.051 28.109 158.09 28.1091C155.555 28.0892 152.531 28.354 149.645 28.6104C148.286 28.7301 146.95 28.8539 145.73 28.9325L140.239 29.2978L139.647 29.3427L139.212 28.9305L137.313 27.1451ZM123.858 60.176L140.931 55.1417C141.662 54.9262 142.428 55.3434 142.644 56.0743C144.248 61.5168 141.136 67.2288 135.693 68.8328C130.251 70.4362 124.539 67.3258 122.935 61.8855C122.721 61.1586 123.133 60.3953 123.858 60.176ZM133.173 60.3153L126.083 62.4058C127.961 66.1138 132.489 67.5974 136.198 65.7191C138.984 64.3087 140.609 61.3241 140.282 58.2189L133.173 60.3153ZM119.196 49.9748C118.35 49.5141 117.29 49.8267 116.83 50.6726C116.369 51.5186 116.682 52.5786 117.528 53.0392C118.375 53.4898 119.427 53.1796 119.894 52.3414C120.35 51.4947 120.039 50.4386 119.196 49.9748ZM117.092 47.2014C119.471 46.5023 121.966 47.8635 122.665 50.2426C123 51.3825 122.87 52.6087 122.302 53.6526C121.119 55.8248 118.4 56.6277 116.228 55.4448C116.228 55.4448 116.228 55.4448 116.226 55.4441C114.051 54.2578 113.248 51.5352 114.432 49.3585C114.997 48.3141 115.954 47.5381 117.092 47.2014ZM141.679 43.3455C140.835 42.8843 139.777 43.1943 139.315 44.0382C139.315 44.0395 139.313 44.0421 139.313 44.0434C138.862 44.8906 139.172 45.9427 140.01 46.41C140.858 46.8605 141.91 46.5503 142.377 45.7122C142.833 44.8654 142.522 43.8094 141.679 43.3455ZM139.575 40.5721C141.953 39.8731 144.448 41.2342 145.148 43.6134C145.483 44.7532 145.353 45.9794 144.785 47.0234C143.602 49.1955 140.883 49.9984 138.711 48.8155C138.711 48.8155 138.711 48.8155 138.709 48.8148C136.535 47.6358 135.728 44.9176 136.907 42.7434C136.91 42.7382 136.912 42.7344 136.915 42.7292C137.481 41.6859 138.437 40.9098 139.575 40.5721ZM128.52 15.2115L139.158 25.1529L140.642 26.5204L145.519 26.1631C146.749 26.0815 148.055 25.9665 149.381 25.8457C152.33 25.5816 155.426 25.3063 158.092 25.3308C159.453 25.3371 160.795 25.6384 162.027 26.2133C165.44 27.8214 167.604 31.2688 167.57 35.0413C167.556 36.4094 167.246 37.7579 166.661 38.9951L159.577 54.1186L165.82 69.6468C166.442 71.1332 166.674 72.754 166.495 74.3547C166.036 77.8221 163.749 80.775 160.506 82.0867C159.014 82.6846 157.393 82.8912 155.798 82.686L139.169 80.6503L126.354 91.3677C125.033 92.4879 123.428 93.2226 121.717 93.4917C118.366 94.0117 114.987 92.7524 112.792 90.1677C111.689 88.848 110.967 87.2515 110.707 85.5513L107.591 69.4472L93.4786 60.5518C92.0431 59.664 90.871 58.4089 90.0829 56.9163C89.305 55.4218 88.9351 53.7496 89.0095 52.0664C89.0721 50.3835 89.5727 48.7455 90.4619 47.3149C91.3556 45.8884 92.6136 44.7263 94.1062 43.949L108.557 35.9591L112.581 19.8033C112.978 18.1731 113.801 16.6765 114.966 15.4682C116.142 14.258 117.617 13.38 119.241 12.9215C120.86 12.4593 122.573 12.4278 124.208 12.8298C125.831 13.2278 127.318 14.0505 128.52 15.2115Z" fill="#98402F"/>
</g>
<g clip-path="url(#clip3_104_69)">
<path d="M71.9695 197.627C70.59 199.424 68.0152 199.762 66.2186 198.383C66.0875 198.282 65.9625 198.173 65.8442 198.057L59.3101 192.041L50.2986 192.715C49.2081 192.802 48.1293 192.442 47.3102 191.716C46.5043 191.009 46.0078 190.014 45.9283 188.945C45.874 188.241 46.0087 187.537 46.3176 186.902L50.0639 178.742L46.6293 170.387C46.0747 169.053 46.275 167.525 47.154 166.379C47.5873 165.794 48.1678 165.335 48.8367 165.048C49.488 164.779 50.1985 164.688 50.8963 164.783L59.8294 165.821L62.0689 163.942C62.5595 163.525 63.075 163.067 63.6013 162.604C64.739 161.6 65.9135 160.557 66.991 159.784C68.8232 158.473 71.3717 158.895 72.6835 160.727C73.0166 161.193 73.2478 161.722 73.3625 162.283L75.1465 171.145L82.8336 175.907C83.7662 176.479 84.4255 177.407 84.6589 178.476C84.9019 179.519 84.7254 180.617 84.1679 181.532C84.0943 181.629 84.0197 181.728 83.9441 181.827C83.6083 182.269 83.1857 182.636 82.7018 182.906L74.8181 187.345L72.6857 196.122C72.557 196.662 72.3192 197.17 71.9868 197.613L71.9695 197.627Z" fill="#FFE64C"/>
<path d="M69.8115 183.517C68.523 185.231 66.1935 185.781 64.2745 184.824L63.7058 184.534L69.1143 177.398L69.5478 177.875C70.9791 179.447 71.0928 181.814 69.819 183.516L69.8115 183.517Z" fill="#EB6B75"/>
<path d="M58.1499 183.617C60.0409 183.353 59.6494 180.483 57.7542 180.744C55.8589 181.005 56.2578 183.874 58.1499 183.617Z" fill="white"/>
<path d="M63.8157 172.702C63.9289 173.512 64.6773 174.078 65.4878 173.964C66.2984 173.851 66.8636 173.103 66.7504 172.292C66.6375 171.484 65.8922 170.919 65.0835 171.029C64.2726 171.139 63.7045 171.886 63.815 172.697C63.8152 172.698 63.8155 172.7 63.8157 172.702Z" fill="white"/>
<path d="M71.9695 197.627C70.59 199.424 68.0152 199.762 66.2186 198.383C66.0875 198.282 65.9625 198.173 65.8442 198.057L59.31 192.041L50.2986 192.715C49.2081 192.802 48.1293 192.442 47.3102 191.716C46.5043 191.009 46.0078 190.014 45.9283 188.945C45.874 188.241 46.0087 187.537 46.3176 186.902L50.0639 178.742L46.6293 170.387C46.0747 169.053 46.275 167.525 47.154 166.379L66.1202 180.753L63.3381 184.424C63.2791 184.502 63.2944 184.613 63.3723 184.672C64.3857 185.45 65.6697 185.787 66.9343 185.607C68.1813 185.455 69.3127 184.803 70.0688 183.8L74.8181 187.345L72.6857 196.122C72.5536 196.668 72.3096 197.18 71.9695 197.627ZM56.5305 181.097C55.9353 181.888 56.0951 183.013 56.8863 183.607C57.262 183.889 57.7339 184.013 58.1997 183.952C58.6657 183.899 59.0906 183.659 59.3766 183.287C60.0171 182.532 59.9241 181.401 59.1687 180.76C58.4134 180.12 57.282 180.213 56.6416 180.968C56.599 181.018 56.5595 181.07 56.5232 181.124L56.5305 181.097Z" fill="#F9C65B"/>
<path d="M58.3641 166.199L50.8678 165.327C50.2568 165.242 49.6343 165.321 49.0639 165.557C48.4874 165.797 47.9831 166.183 47.6013 166.678C47.2169 167.172 46.97 167.758 46.8853 168.378C46.8055 168.992 46.8903 169.617 47.1306 170.187L50.528 178.467L50.6479 178.754L50.5176 179.032L46.8159 187.098C46.5515 187.649 46.4375 188.26 46.4849 188.868C46.5335 189.488 46.7422 190.086 47.0914 190.601C47.4401 191.118 47.9193 191.535 48.48 191.808C49.0399 192.078 49.6616 192.194 50.281 192.143L59.1979 191.504L59.505 191.481L59.7327 191.688L66.2113 197.662C66.6647 198.122 67.2375 198.447 67.8654 198.599C68.465 198.743 69.0909 198.73 69.6844 198.563C70.2837 198.405 70.8308 198.093 71.2726 197.658C71.7218 197.203 72.0369 196.634 72.1838 196.011L74.2816 187.289L74.355 186.987L74.6253 186.835L82.4347 182.441C82.9515 182.154 83.3864 181.739 83.698 181.237C84.0309 180.693 84.214 180.072 84.2278 179.435C84.2429 178.797 84.0859 178.166 83.7731 177.609C83.4794 177.09 83.0582 176.655 82.5491 176.345L74.911 171.634L74.6509 171.47L74.5902 171.168L72.837 162.39C72.7404 161.894 72.5374 161.425 72.2416 161.015C71.4199 159.896 70.0281 159.35 68.6647 159.611C68.1779 159.713 67.7189 159.919 67.3185 160.214C66.256 160.985 65.0772 162.025 63.9535 163.019C63.424 163.487 62.9052 163.949 62.4211 164.357L60.2452 166.197L60.0122 166.398L59.7043 166.359L58.3641 166.199ZM62.9102 184.1L68.4776 176.754C68.716 176.439 69.1635 176.378 69.4779 176.616C71.8192 178.391 72.2783 181.728 70.503 184.069C68.7282 186.41 65.392 186.87 63.0513 185.096C62.7385 184.859 62.6754 184.414 62.9102 184.1ZM66.8346 181.295L64.5227 184.345C66.4451 185.313 68.7882 184.539 69.7564 182.617C70.4837 181.173 70.2436 179.429 69.153 178.236L66.8346 181.295ZM57.832 181.282C57.3379 181.35 56.9922 181.806 57.0603 182.3C57.1283 182.794 57.5844 183.14 58.0785 183.072C58.5701 182.999 58.9131 182.546 58.8502 182.053C58.78 181.56 58.3257 181.216 57.832 181.282ZM56.1027 180.773C56.8788 179.75 58.3369 179.551 59.3597 180.327C59.8497 180.699 60.1723 181.25 60.2566 181.86C60.4314 183.128 59.545 184.299 58.2762 184.474C58.2762 184.474 58.2762 184.474 58.2755 184.474C57.0043 184.648 55.8329 183.76 55.6571 182.489C55.5717 181.88 55.7319 181.263 56.1027 180.773ZM65.1633 171.608C64.6698 171.675 64.324 172.13 64.3912 172.623C64.3913 172.624 64.3915 172.626 64.3916 172.626C64.4643 173.118 64.9169 173.461 65.4098 173.398C65.9014 173.325 66.2445 172.873 66.1816 172.38C66.1113 171.887 65.657 171.542 65.1633 171.608ZM63.434 171.099C64.2102 170.077 65.6682 169.877 66.691 170.654C67.181 171.026 67.5036 171.577 67.588 172.186C67.7627 173.455 66.8763 174.625 65.6075 174.8C65.6075 174.8 65.6075 174.8 65.6068 174.8C64.3383 174.977 63.1666 174.093 62.9896 172.824C62.9891 172.821 62.9888 172.819 62.9884 172.816C62.9034 172.207 63.0636 171.59 63.434 171.099ZM51.0316 163.929L58.5203 164.802L59.5591 164.916L61.4817 163.268C61.9691 162.856 62.4781 162.406 62.9936 161.948C64.1411 160.932 65.3469 159.865 66.4654 159.056C67.0343 158.64 67.6864 158.353 68.3765 158.214C70.293 157.835 72.2546 158.607 73.3999 160.189C73.8147 160.764 74.0999 161.421 74.2363 162.116L75.933 170.596L83.3077 175.148C84.0239 175.576 84.619 176.18 85.0361 176.902C85.9109 178.488 85.8653 180.422 84.9173 181.965C84.4791 182.673 83.8672 183.258 83.1393 183.662L75.584 187.926L73.5382 196.331C73.332 197.204 72.8892 198.003 72.2586 198.641C71.0222 199.888 69.2269 200.402 67.518 199.999C66.6525 199.789 65.8611 199.345 65.23 198.717L58.9812 192.964L50.3661 193.595C49.495 193.666 48.6207 193.503 47.8335 193.123C47.0499 192.74 46.3818 192.157 45.8954 191.432C45.4042 190.712 45.1093 189.875 45.0401 189.006C44.974 188.137 45.1411 187.266 45.5241 186.483L49.0902 178.711L45.8008 170.742C45.4651 169.941 45.3482 169.064 45.4624 168.202C45.5804 167.337 45.9251 166.517 46.4611 165.827C46.9937 165.137 47.6976 164.597 48.5025 164.262C49.3011 163.929 50.174 163.815 51.0316 163.929Z" fill="#98402F"/>
</g>
</g>
<defs>
<filter id="filter0_f_104_69" x="-48" y="-34.509" width="498" height="508" filterUnits="userSpaceOnUse" color-interpolation-filters="sRGB">
<feFlood flood-opacity="0" result="BackgroundImageFix"/>
<feBlend mode="normal" in="SourceGraphic" in2="BackgroundImageFix" result="shape"/>
<feGaussianBlur stdDeviation="31.5" result="effect1_foregroundBlur_104_69"/>
</filter>
<clipPath id="clip0_104_69">
<rect width="399" height="348" rx="174" fill="white"/>
</clipPath>
<clipPath id="clip1_104_69">
<rect width="72" height="72" fill="white" transform="translate(220.031 22.6245) rotate(10.319)"/>
</clipPath>
<clipPath id="clip2_104_69">
<rect width="81.1087" height="81.1087" fill="white" transform="translate(79.8785 22.9392) rotate(-16.4286)"/>
</clipPath>
<clipPath id="clip3_104_69">
<rect width="42" height="42" fill="white" transform="translate(33.1371 182.101) rotate(-52.8422)"/>
</clipPath>
</defs>
</svg>
