<svg width="307" height="460" viewBox="0 0 307 460" fill="none" xmlns="http://www.w3.org/2000/svg">
<path d="M116.246 362.981C116.246 291.546 37.5123 215.513 129.197 219.897C137.767 220.307 123.152 181.667 133.482 186.443C202.007 218.123 129.934 158.791 153.174 182.347C161.632 190.92 160.292 194.653 165.947 208.434C172.188 223.641 224.723 214.785 230.532 236.526C234.258 250.473 197.537 281.933 192.547 308.751C187.196 337.512 202.31 359.154 202.31 373.675C202.31 467.078 189.649 445.094 141.266 445.094C92.8833 445.094 116.246 456.383 116.246 362.981Z" fill="white" stroke="white" stroke-width="24" stroke-miterlimit="10" stroke-linejoin="round"/>
<path d="M170.416 70.558L221.028 37.146C221.028 37.146 221.861 50.201 217.39 66.999C212.919 83.797 204.03 98.569 204.03 98.569L170.416 70.558Z" fill="#B1777B" stroke="#2D2145" stroke-width="17.0485" stroke-miterlimit="10" stroke-linejoin="round"/>
<path d="M112.773 67.5869L70.8513 38.4139C70.8513 38.4139 71.5863 58.6309 75.1143 76.7979C78.6423 94.9649 88.9383 105.888 88.9383 105.888L112.773 67.5869Z" fill="#B1777B" stroke="white" stroke-width="16.4976" stroke-miterlimit="10" stroke-linejoin="round"/>
<path fill-rule="evenodd" clip-rule="evenodd" d="M56.1818 145.119C56.2819 144.706 56.4843 144.311 56.7913 143.973C60.8941 139.442 64.8688 134.808 68.8224 130.154C69.4474 129.094 70.0612 128.028 70.6751 126.963L70.6752 126.962C72.1051 124.479 73.5348 121.997 75.1043 119.598C76.0825 118.102 77.1264 116.653 78.1967 115.223C78.2363 115.098 78.2752 114.973 78.3133 114.847C80.3623 108.089 79.1353 103.107 78.1635 99.1617C77.4326 96.1942 76.8461 93.813 77.9063 91.7031C84.5743 78.4371 105.624 65.8811 120.503 60.3191C130.649 56.5261 112.738 45.5651 112.738 45.5651C117.421 44.9252 124.272 49.3836 130.995 53.7593C134.285 55.9003 137.544 58.0216 140.504 59.5161C144.881 61.7261 140.68 33.0001 140.68 33.0001C146.525 33.6126 154.751 43.6764 160.789 51.0633C164.077 55.086 166.716 58.3148 167.968 58.7911C181.743 64.0291 202.126 77.5421 208.377 90.9471C209.441 93.2281 209.309 95.5828 209.129 98.8061C208.916 102.619 208.635 107.647 210.183 115.205C211.319 120.744 213.948 124.594 216.357 128.122C217.699 130.087 218.973 131.953 219.882 133.955C221.45 137.408 228.15 147.94 228.15 147.94C228.15 147.94 214.986 144.45 213.243 147.553C210.823 151.861 222.998 161.342 222.998 161.342C222.998 161.342 212.537 162.086 209.281 165.31C194.592 179.856 165.278 200.23 143.941 200.23C136.251 200.23 129.026 199.125 122.297 197.131C122.165 197.211 122.032 197.287 121.899 197.361C121.825 197.413 121.747 197.46 121.666 197.504C121.62 198.086 121.655 198.67 121.69 199.256V199.256C121.729 199.902 121.768 200.549 121.697 201.192C121.636 201.748 121.457 202.294 121.277 202.84L121.277 202.841C121.218 203.02 121.159 203.199 121.104 203.379L121.111 203.471C121.262 205.479 121.311 206.127 120.478 207.754L120.4 207.908C119.801 209.087 118.897 210.866 117.354 210.848C117.115 210.845 116.844 210.782 116.791 210.754C116.79 210.759 116.791 210.765 116.791 210.77V210.77C116.792 210.775 116.793 210.781 116.791 210.785C116.791 210.786 116.789 210.785 116.786 210.784C116.781 210.781 116.774 210.777 116.765 210.772C116.759 210.769 116.753 210.766 116.747 210.763C116.739 210.758 116.732 210.755 116.728 210.754C116.636 210.726 116.311 210.579 116.291 210.567C115.847 210.296 115.542 209.852 115.416 209.348C115.218 208.554 115.566 207.807 115.906 207.077C116.05 206.77 116.192 206.465 116.291 206.161C116.378 205.895 116.465 205.63 116.553 205.364L116.564 205.33L116.564 205.329L116.564 205.329C116.853 204.451 117.141 203.573 117.416 202.692C117.45 202.586 117.485 202.477 117.52 202.367L117.52 202.367C117.686 201.853 117.863 201.306 117.916 200.785C117.97 200.262 117.95 199.672 117.93 199.062V199.062C117.928 199.001 117.925 198.939 117.923 198.877C117.922 198.845 117.921 198.813 117.92 198.781C115.92 199.159 113.831 199.119 111.76 198.785C111.687 198.774 111.624 198.756 111.561 198.739C111.495 198.721 111.429 198.703 111.354 198.692C111.289 198.71 111.225 198.733 111.162 198.756C111.101 198.778 111.04 198.8 110.978 198.817L110.93 198.831C109.779 199.159 108.261 199.591 107.26 198.661C106.039 197.526 106.619 195.931 107.541 194.817C108.347 193.844 109.422 193.247 110.498 192.651L110.498 192.651C110.54 192.627 110.582 192.604 110.624 192.581C99.3999 187.097 89.8949 179.065 82.2807 169.819C81.9266 169.755 81.5906 169.656 81.2687 169.521C80.7994 169.45 80.3427 169.259 79.9473 168.942C79.2346 168.366 78.4943 167.859 77.7316 167.407C77.477 167.349 77.1346 167.27 76.6663 167.161C75.5362 167.249 74.5146 166.626 74.0614 165.661C73.3159 165.375 72.5586 165.117 71.7937 164.876C70.2808 164.772 68.7567 164.833 67.2303 164.918C66.8947 164.976 66.5606 165.027 66.2284 165.067C65.9262 165.103 65.63 165.087 65.3487 165.025C63.8778 165.103 62.4081 165.149 60.9474 165.035C60.5214 165.003 60.1263 164.873 59.7834 164.669C59.3058 164.682 58.824 164.628 58.4473 164.411C58.3932 164.38 58.3382 164.348 58.283 164.317C57.9147 164.109 57.5354 163.894 57.3223 163.535C56.9673 162.936 56.7443 162.201 56.7283 161.504C56.7201 161.115 56.9181 160.757 57.1102 160.409C57.1505 160.337 57.1905 160.264 57.2283 160.192C57.3507 159.959 57.8031 159.563 58.1026 159.315C58.4612 158.589 58.9908 157.904 59.4235 157.345L59.5413 157.192C60.3363 156.159 60.8043 155.576 61.6663 154.567C62.2183 153.921 62.9113 153.131 63.5103 152.473C63.7875 152.168 64.0612 151.886 64.339 151.599C64.4781 151.455 64.6182 151.31 64.7603 151.161L64.7704 151.15L64.7854 151.135L64.8026 151.118L64.8143 151.106L64.8149 151.106C64.8281 151.093 64.8414 151.08 64.8543 151.067L64.7906 151.066C63.1764 151.288 61.5598 151.49 59.9377 151.653C59.7956 151.719 59.6531 151.784 59.5103 151.848C58.1003 152.482 55.6533 153.578 54.1353 152.879L54.1083 152.867L54.1082 152.867C53.6875 152.673 53.2292 152.462 52.9473 152.098C52.5483 151.581 52.2893 150.958 52.1663 150.317C52.0693 149.811 52.1513 149.271 52.3223 148.785C52.5033 148.271 52.8243 147.804 53.1663 147.379C53.5149 146.947 54.0037 146.663 54.4869 146.383C54.7314 146.242 54.9745 146.101 55.1973 145.942C55.5354 145.701 55.8627 145.419 56.1818 145.119ZM77.2016 167.123L77.2393 167.125L77.2832 167.15C77.3173 167.169 77.3513 167.188 77.3854 167.207L77.4138 167.223C77.3001 167.193 77.1863 167.161 77.0723 167.129C77.0159 167.113 77.1043 167.118 77.2012 167.123H77.2016ZM259.099 356.261L248.554 285H207.099L223.948 352.535V412.986L230.476 437L259.099 356.261ZM174.791 191.348C173.759 191.485 173.06 192.442 173.197 193.473C173.501 195.803 173.812 198.129 174.123 200.456C174.284 201.66 174.444 202.863 174.604 204.067C174.753 205.156 175.764 205.935 176.854 205.785C177.942 205.636 178.69 204.625 178.541 203.535C178.306 201.87 178.038 200.208 177.769 198.546L177.769 198.546L177.769 198.546L177.769 198.545L177.769 198.544C177.469 196.689 177.17 194.834 176.916 192.973C176.779 191.941 175.823 191.211 174.791 191.348Z" fill="white"/>
<path d="M56.7913 143.973L59.1534 146.117L59.1558 146.114L56.7913 143.973ZM56.1818 145.119L58.3662 147.444C58.8177 147.019 59.1358 146.473 59.2818 145.871L56.1818 145.119ZM68.8224 130.154L71.2535 132.219C71.3714 132.08 71.4772 131.931 71.5698 131.774L68.8224 130.154ZM70.6751 126.963L73.4393 128.554C73.4516 128.533 73.4636 128.512 73.4754 128.49L70.6751 126.963ZM70.6752 126.962L67.911 125.37C67.8988 125.392 67.8867 125.413 67.8749 125.435L70.6752 126.962ZM75.1043 119.598L77.7735 121.345L77.774 121.344L75.1043 119.598ZM78.1967 115.223L80.7503 117.134C80.9644 116.849 81.1289 116.529 81.237 116.188L78.1967 115.223ZM78.3133 114.847L75.2607 113.922L75.2607 113.922L78.3133 114.847ZM78.1635 99.1617L75.0662 99.9245L75.0662 99.9245L78.1635 99.1617ZM77.9063 91.7031L75.0563 90.2706L75.0562 90.2708L77.9063 91.7031ZM120.503 60.3191L121.62 63.307L121.62 63.307L120.503 60.3191ZM112.738 45.5651L112.307 42.4047C110.97 42.5873 109.893 43.5906 109.616 44.9105C109.34 46.2305 109.923 47.5819 111.073 48.2859L112.738 45.5651ZM130.995 53.7593L129.255 56.4327L129.255 56.4327L130.995 53.7593ZM140.504 59.5161L141.942 56.6687L141.942 56.6687L140.504 59.5161ZM140.68 33.0001L141.013 29.8277C140.033 29.7251 139.061 30.0806 138.379 30.7911C137.697 31.5015 137.382 32.4872 137.524 33.4617L140.68 33.0001ZM160.789 51.0633L163.258 49.0446L163.258 49.0446L160.789 51.0633ZM167.968 58.7911L166.834 61.7725L166.835 61.7726L167.968 58.7911ZM208.377 90.9471L205.486 92.2952L205.486 92.2953L208.377 90.9471ZM209.129 98.8061L205.944 98.628L205.944 98.628L209.129 98.8061ZM210.183 115.205L207.059 115.845L207.059 115.846L210.183 115.205ZM216.357 128.122L213.723 129.921L213.723 129.921L216.357 128.122ZM219.882 133.955L222.787 132.636L222.787 132.636L219.882 133.955ZM228.15 147.94L227.333 151.023C228.603 151.36 229.949 150.884 230.725 149.824C231.5 148.764 231.547 147.336 230.842 146.228L228.15 147.94ZM213.243 147.553L216.024 149.115L216.024 149.115L213.243 147.553ZM222.998 161.342L223.225 164.524C224.542 164.43 225.666 163.534 226.05 162.27C226.434 161.007 226 159.637 224.958 158.825L222.998 161.342ZM209.281 165.31L207.037 163.043L207.037 163.044L209.281 165.31ZM122.297 197.131L123.203 194.073C122.344 193.818 121.417 193.937 120.65 194.399L122.297 197.131ZM121.899 197.361L120.353 194.571C120.259 194.623 120.168 194.68 120.08 194.741L121.899 197.361ZM121.666 197.504L120.148 194.699C119.198 195.213 118.573 196.173 118.487 197.249L121.666 197.504ZM121.69 199.256H124.88C124.88 199.192 124.878 199.128 124.874 199.064L121.69 199.256ZM121.69 199.256H118.5C118.5 199.32 118.502 199.384 118.506 199.448L121.69 199.256ZM121.697 201.192L118.527 200.843L118.526 200.845L121.697 201.192ZM121.277 202.84L124.303 203.849L124.307 203.837L121.277 202.84ZM121.277 202.841L118.251 201.832L118.247 201.845L121.277 202.841ZM121.104 203.379L118.053 202.449C117.938 202.827 117.894 203.223 117.923 203.618L121.104 203.379ZM121.111 203.471L117.93 203.71L117.93 203.71L121.111 203.471ZM120.478 207.754L117.638 206.301L117.635 206.308L120.478 207.754ZM120.4 207.908L117.557 206.462L117.556 206.464L120.4 207.908ZM117.354 210.848L117.314 214.038L117.317 214.038L117.354 210.848ZM116.791 210.754L118.281 207.934C117.438 207.488 116.439 207.443 115.559 207.812C114.679 208.181 114.01 208.924 113.736 209.837L116.791 210.754ZM116.791 210.77H119.981C119.981 210.621 119.971 210.473 119.95 210.325L116.791 210.77ZM116.791 210.77H113.602C113.602 210.916 113.612 211.062 113.632 211.207L116.791 210.77ZM116.791 210.785L113.766 209.773C113.763 209.782 113.76 209.792 113.757 209.801L116.791 210.785ZM116.786 210.784L118.134 207.893L118.125 207.888L116.786 210.784ZM116.765 210.772L115.226 213.566L115.23 213.568L116.765 210.772ZM116.747 210.763L118.23 207.938L118.227 207.937L116.747 210.763ZM116.728 210.754L115.8 213.806C115.818 213.811 115.838 213.817 115.857 213.822L116.728 210.754ZM116.291 210.567L114.629 213.29C114.636 213.294 114.643 213.298 114.65 213.302L116.291 210.567ZM115.416 209.348L112.322 210.121L112.322 210.122L115.416 209.348ZM115.906 207.077L118.797 208.426L118.797 208.426L115.906 207.077ZM116.291 206.161L113.259 205.17L113.259 205.171L116.291 206.161ZM116.553 205.364L113.523 204.368L113.522 204.369L116.553 205.364ZM116.564 205.33L119.594 206.326C119.603 206.3 119.611 206.273 119.619 206.246L116.564 205.33ZM116.564 205.329L113.56 204.256C113.542 204.308 113.525 204.36 113.509 204.413L116.564 205.329ZM116.564 205.329L119.568 206.401C119.577 206.376 119.586 206.35 119.595 206.325L116.564 205.329ZM117.416 202.692L114.372 201.741L114.371 201.742L117.416 202.692ZM117.52 202.367L114.494 201.358C114.491 201.367 114.488 201.377 114.485 201.386L117.52 202.367ZM117.52 202.367L120.546 203.375C120.55 203.366 120.553 203.356 120.556 203.347L117.52 202.367ZM117.916 200.785L121.089 201.111L121.089 201.11L117.916 200.785ZM117.93 199.062H114.74C114.74 199.098 114.74 199.134 114.742 199.169L117.93 199.062ZM117.93 199.062H121.119C121.119 199.026 121.119 198.99 121.118 198.955L117.93 199.062ZM117.923 198.877L121.112 198.774L121.112 198.773L117.923 198.877ZM117.92 198.781L121.109 198.683C121.08 197.75 120.645 196.878 119.918 196.294C119.191 195.71 118.244 195.473 117.328 195.646L117.92 198.781ZM111.76 198.785L112.267 195.636L112.265 195.636L111.76 198.785ZM111.561 198.739L112.402 195.662L112.402 195.662L111.561 198.739ZM111.354 198.692L111.808 195.535C111.373 195.472 110.93 195.5 110.507 195.617L111.354 198.692ZM111.162 198.756L110.083 195.754L110.082 195.754L111.162 198.756ZM110.978 198.817L110.108 195.748L110.105 195.749L110.978 198.817ZM110.93 198.831L110.057 195.763L110.056 195.763L110.93 198.831ZM107.26 198.661L105.089 200.998L105.089 200.998L107.26 198.661ZM107.541 194.817L109.999 196.851L109.999 196.85L107.541 194.817ZM110.498 192.651L112.045 195.441C112.065 195.429 112.085 195.418 112.105 195.406L110.498 192.651ZM110.498 192.651L108.952 189.861C108.932 189.872 108.911 189.884 108.891 189.895L110.498 192.651ZM110.624 192.581L112.172 195.37C113.212 194.793 113.844 193.686 113.813 192.497C113.782 191.309 113.093 190.237 112.025 189.715L110.624 192.581ZM82.2807 169.819L84.743 167.791C84.262 167.207 83.589 166.813 82.8442 166.679L82.2807 169.819ZM81.2687 169.521L82.4979 166.578C82.2573 166.477 82.0052 166.407 81.7473 166.368L81.2687 169.521ZM79.9473 168.942L77.9418 171.422L77.9527 171.431L79.9473 168.942ZM77.7316 167.407L79.3564 164.663C79.0727 164.495 78.7646 164.372 78.4433 164.298L77.7316 167.407ZM76.6663 167.161L77.3905 164.054C77.0725 163.98 76.7449 163.955 76.4194 163.981L76.6663 167.161ZM74.0614 165.661L76.9483 164.305C76.5979 163.559 75.9729 162.978 75.204 162.683L74.0614 165.661ZM71.7937 164.876L72.7519 161.834C72.5122 161.758 72.2644 161.711 72.0137 161.694L71.7937 164.876ZM67.2303 164.918L67.0527 161.733C66.9297 161.74 66.8071 161.754 66.6857 161.775L67.2303 164.918ZM66.2284 165.067L65.8495 161.9L65.848 161.9L66.2284 165.067ZM65.3487 165.025L66.0337 161.91C65.7537 161.848 65.4667 161.825 65.1804 161.84L65.3487 165.025ZM60.9474 165.035L61.1939 161.855L61.1922 161.855L60.9474 165.035ZM59.7834 164.669L61.413 161.927C60.8936 161.618 60.2972 161.463 59.6932 161.48L59.7834 164.669ZM58.4473 164.411L56.8451 167.169L56.8529 167.174L58.4473 164.411ZM58.283 164.317L59.854 161.541L59.8539 161.541L58.283 164.317ZM57.3223 163.535L54.5783 165.161L54.5789 165.162L57.3223 163.535ZM56.7283 161.504L53.5393 161.572L53.5394 161.577L56.7283 161.504ZM57.1102 160.409L54.3184 158.867L54.3183 158.867L57.1102 160.409ZM57.2283 160.192L54.405 158.707L54.4029 158.711L57.2283 160.192ZM58.1026 159.315L60.1376 161.771C60.4825 161.485 60.7634 161.13 60.9619 160.728L58.1026 159.315ZM59.4235 157.345L61.9471 159.295L61.9484 159.294L59.4235 157.345ZM59.5413 157.192L62.0662 159.141L62.0692 159.137L59.5413 157.192ZM61.6663 154.567L59.2412 152.495L59.2411 152.495L61.6663 154.567ZM63.5103 152.473L65.8691 154.62L65.8691 154.62L63.5103 152.473ZM64.339 151.599L62.0469 149.38L62.0468 149.38L64.339 151.599ZM64.7603 151.161L67.0694 153.362C67.0784 153.352 67.0873 153.343 67.0961 153.333L64.7603 151.161ZM64.7704 151.15L62.4872 148.923C62.4694 148.941 62.4519 148.959 62.4346 148.978L64.7704 151.15ZM64.7854 151.135L62.546 148.863C62.5312 148.878 62.5166 148.892 62.5021 148.907L64.7854 151.135ZM64.8026 151.118L62.5846 148.825C62.5775 148.832 62.5703 148.839 62.5632 148.846L64.8026 151.118ZM64.8143 151.106L62.6034 148.807L62.5964 148.814L64.8143 151.106ZM64.8149 151.106L67.0258 153.405L67.0311 153.4L64.8149 151.106ZM64.8543 151.067L67.145 153.287C68.0318 152.372 68.2889 151.016 67.7987 149.84C67.3085 148.664 66.1652 147.892 64.8909 147.877L64.8543 151.067ZM64.7906 151.066L64.8272 147.877C64.67 147.875 64.5129 147.885 64.3571 147.906L64.7906 151.066ZM59.9377 151.653L59.6194 148.479C59.2658 148.514 58.9206 148.609 58.5981 148.758L59.9377 151.653ZM59.5103 151.848L60.8184 154.757L60.821 154.756L59.5103 151.848ZM54.1353 152.879L55.4695 149.982L55.468 149.981L54.1353 152.879ZM54.1083 152.867L55.441 149.969C55.3922 149.946 55.3428 149.925 55.293 149.905L54.1083 152.867ZM54.1082 152.867L52.775 155.764C52.824 155.787 52.8735 155.808 52.9235 155.828L54.1082 152.867ZM52.9473 152.098L50.4221 154.047L50.4251 154.051L52.9473 152.098ZM52.1663 150.317L49.0336 150.918L49.0337 150.918L52.1663 150.317ZM52.3223 148.785L49.3136 147.726L49.3134 147.726L52.3223 148.785ZM53.1663 147.379L50.6833 145.377L50.6812 145.379L53.1663 147.379ZM54.4869 146.383L52.8876 143.624L52.8876 143.624L54.4869 146.383ZM55.1973 145.942L57.0498 148.539L57.0504 148.538L55.1973 145.942ZM77.2393 167.125L78.7905 164.338C78.3664 164.102 77.894 163.966 77.4093 163.94L77.2393 167.125ZM77.2016 167.123L77.3716 163.938C77.315 163.935 77.2583 163.934 77.2016 163.934V167.123ZM77.2832 167.15L78.838 164.365L78.8343 164.362L77.2832 167.15ZM77.3854 167.207L78.9583 164.432L78.9557 164.431L77.3854 167.207ZM77.4138 167.223L76.5831 170.303C78.1342 170.721 79.7544 169.921 80.3646 168.435C80.9748 166.949 80.3845 165.241 78.9868 164.448L77.4138 167.223ZM77.0723 167.129L77.9411 164.06C77.9363 164.058 77.9315 164.057 77.9267 164.056L77.0723 167.129ZM77.2012 167.123L77.0283 170.308C77.0859 170.312 77.1436 170.313 77.2012 170.313V167.123ZM248.554 285L251.709 284.533C251.478 282.969 250.135 281.81 248.554 281.81V285ZM259.099 356.261L262.106 357.327C262.28 356.836 262.331 356.31 262.255 355.795L259.099 356.261ZM207.099 285V281.81C206.117 281.81 205.19 282.263 204.586 283.036C203.981 283.81 203.767 284.819 204.004 285.772L207.099 285ZM223.948 352.535H227.138C227.138 352.275 227.106 352.015 227.043 351.763L223.948 352.535ZM223.948 412.986H220.758C220.758 413.268 220.796 413.55 220.87 413.822L223.948 412.986ZM230.476 437L227.398 437.837C227.764 439.183 228.962 440.135 230.356 440.188C231.75 440.24 233.016 439.381 233.482 438.066L230.476 437ZM173.197 193.473L176.36 193.061L176.359 193.053L173.197 193.473ZM174.791 191.348L175.211 194.51L175.211 194.51L174.791 191.348ZM174.123 200.456L170.961 200.879L170.961 200.879L174.123 200.456ZM174.604 204.067L171.442 204.487L171.444 204.5L174.604 204.067ZM176.854 205.785L176.421 202.625L176.419 202.625L176.854 205.785ZM178.541 203.535L181.702 203.103C181.701 203.098 181.7 203.094 181.7 203.089L178.541 203.535ZM177.769 198.546L180.918 198.038C180.918 198.033 180.917 198.027 180.916 198.022L177.769 198.546ZM177.769 198.546L174.615 199.019C174.617 199.036 174.62 199.054 174.623 199.071L177.769 198.546ZM177.769 198.546L174.613 199.007L174.615 199.019L177.769 198.546ZM177.769 198.545L180.925 198.083C180.92 198.047 180.914 198.01 180.908 197.974L177.769 198.545ZM177.769 198.544L174.62 199.052C174.623 199.073 174.627 199.094 174.631 199.115L177.769 198.544ZM176.916 192.973L173.754 193.393L173.756 193.404L176.916 192.973ZM54.4292 141.83C53.7567 142.571 53.3051 143.446 53.0818 144.368L59.2818 145.871C59.2587 145.966 59.2119 146.052 59.1534 146.117L54.4292 141.83ZM66.3914 128.089C62.4417 132.738 58.4939 137.341 54.4269 141.832L59.1558 146.114C63.2942 141.544 67.296 136.878 71.2535 132.219L66.3914 128.089ZM67.9109 125.371C67.2957 126.439 66.6901 127.49 66.0751 128.533L71.5698 131.774C72.2046 130.698 72.8268 129.618 73.4393 128.554L67.9109 125.371ZM67.8749 125.435L67.8748 125.435L73.4754 128.49L73.4755 128.49L67.8749 125.435ZM72.4351 117.852C70.8077 120.339 69.3333 122.901 67.911 125.37L73.4394 128.554C74.8768 126.058 76.262 123.655 77.7735 121.345L72.4351 117.852ZM75.6431 113.311C74.551 114.77 73.4636 116.279 72.4347 117.852L77.774 121.344C78.7014 119.926 79.7017 118.535 80.7503 117.134L75.6431 113.311ZM75.2607 113.922C75.2267 114.034 75.192 114.146 75.1564 114.258L81.237 116.188C81.2807 116.05 81.3238 115.912 81.3659 115.773L75.2607 113.922ZM75.0662 99.9245C76.0154 103.778 77.0447 108.037 75.2607 113.922L81.3659 115.773C83.6798 108.141 82.2551 102.436 81.2607 98.3988L75.0662 99.9245ZM75.0562 90.2708C74.1789 92.0165 74.0476 93.7799 74.1851 95.3833C74.3161 96.9113 74.7173 98.5077 75.0662 99.9245L81.2607 98.3988C80.8788 96.8482 80.6213 95.7703 80.5414 94.8383C80.4679 93.9818 80.5735 93.4996 80.7565 93.1355L75.0562 90.2708ZM119.386 57.3313C111.708 60.2014 102.492 64.8512 94.3135 70.4971C86.2112 76.0907 78.7518 82.9184 75.0563 90.2706L80.7564 93.1357C83.7289 87.2219 90.1285 81.1385 97.9379 75.7471C105.672 70.4081 114.419 65.9988 121.62 63.307L119.386 57.3313ZM112.738 45.5651C111.073 48.2859 111.073 48.2856 111.072 48.2853C111.072 48.2853 111.072 48.2851 111.072 48.285C111.072 48.2849 111.072 48.285 111.072 48.2852C111.073 48.2856 111.075 48.2867 111.078 48.2884C111.083 48.2919 111.093 48.2979 111.107 48.3064C111.134 48.3234 111.177 48.3504 111.235 48.3869C111.35 48.4597 111.524 48.5701 111.743 48.7136C112.183 49.0012 112.806 49.419 113.524 49.9321C114.98 50.9729 116.742 52.3448 118.168 53.7736C119.738 55.3457 120.344 56.4456 120.421 56.9227C120.431 56.9804 120.419 56.8356 120.502 56.7219C120.519 56.6984 120.317 56.9834 119.386 57.3313L121.62 63.307C123.226 62.7066 124.684 61.8193 125.664 60.4705C126.709 59.0313 126.962 57.4078 126.719 55.9045C126.292 53.2597 124.323 50.9082 122.683 49.2659C120.9 47.4804 118.818 45.8749 117.233 44.742C116.431 44.1683 115.733 43.7001 115.233 43.3734C114.983 43.2098 114.781 43.081 114.639 42.9914C114.568 42.9467 114.512 42.9116 114.472 42.887C114.452 42.8746 114.437 42.8648 114.425 42.8577C114.419 42.8542 114.415 42.8513 114.411 42.849C114.409 42.8479 114.408 42.847 114.406 42.8462C114.406 42.8458 114.405 42.8454 114.405 42.8452C114.404 42.8447 114.403 42.8444 112.738 45.5651ZM132.735 51.0858C129.413 48.9238 125.863 46.6092 122.537 44.9328C119.332 43.3179 115.684 41.9431 112.307 42.4047L113.17 48.7255C114.475 48.5472 116.594 49.0817 119.666 50.6299C122.616 52.1166 125.854 54.219 129.255 56.4327L132.735 51.0858ZM141.942 56.6687C139.169 55.2689 136.067 53.2542 132.735 51.0858L129.255 56.4327C132.503 58.5464 135.919 60.7743 139.067 62.3636L141.942 56.6687ZM140.68 33.0001C137.524 33.4617 137.524 33.4616 137.524 33.4616C137.524 33.4618 137.524 33.4619 137.524 33.4622C137.524 33.4627 137.524 33.4638 137.525 33.4652C137.525 33.4681 137.526 33.4727 137.527 33.4791C137.528 33.4917 137.531 33.5111 137.535 33.537C137.542 33.5889 137.554 33.6669 137.568 33.7692C137.597 33.9739 137.639 34.2757 137.692 34.6603C137.796 35.4297 137.941 36.5288 138.102 37.8416C138.424 40.473 138.806 43.9381 139.052 47.3187C139.302 50.75 139.398 53.9089 139.202 56.0098C139.096 57.1532 138.936 57.5438 138.95 57.5182C138.968 57.4833 139.242 56.9603 139.981 56.6463C140.854 56.276 141.615 56.5034 141.942 56.6687L139.067 62.3636C139.941 62.8051 141.182 63.067 142.474 62.5188C143.633 62.0268 144.265 61.1132 144.587 60.5043C145.209 59.3308 145.439 57.8398 145.554 56.6009C145.802 53.9372 145.668 50.329 145.415 46.8551C145.158 43.3304 144.763 39.7521 144.435 37.0664C144.27 35.7207 144.121 34.5929 144.013 33.7999C143.959 33.4034 143.915 33.0902 143.885 32.8752C143.87 32.7677 143.858 32.6846 143.849 32.6279C143.845 32.5996 143.842 32.5778 143.84 32.5628C143.839 32.5553 143.838 32.5495 143.838 32.5455C143.837 32.5435 143.837 32.5419 143.837 32.5407C143.837 32.5401 143.837 32.5396 143.837 32.5393C143.837 32.5389 143.837 32.5385 140.68 33.0001ZM163.258 49.0446C160.262 45.3792 156.59 40.8815 152.909 37.2275C151.066 35.3976 149.144 33.7016 147.23 32.4026C145.36 31.1341 143.234 30.0604 141.013 29.8277L140.348 36.1725C141.049 36.246 142.142 36.6601 143.648 37.6816C145.108 38.6727 146.716 40.0691 148.415 41.7551C151.817 45.1328 155.277 49.3604 158.319 53.082L163.258 49.0446ZM169.102 55.8097C169.392 55.9198 169.369 55.9911 168.928 55.5901C168.569 55.263 168.101 54.7799 167.517 54.1283C166.349 52.8248 164.919 51.0765 163.258 49.0446L158.319 53.082C159.946 55.0728 161.48 56.9502 162.766 58.3859C163.41 59.1038 164.042 59.7687 164.633 60.3067C165.142 60.7707 165.919 61.4243 166.834 61.7725L169.102 55.8097ZM211.268 89.599C207.814 82.1904 200.66 75.0783 192.91 69.2562C185.098 63.3872 176.298 58.5458 169.102 55.8096L166.835 61.7726C173.414 64.2744 181.693 68.8086 189.078 74.3568C196.526 79.9519 202.69 86.2988 205.486 92.2952L211.268 89.599ZM212.314 98.9843C212.484 95.9478 212.732 92.7377 211.268 89.5989L205.486 92.2953C206.15 93.7186 206.135 95.2178 205.944 98.628L212.314 98.9843ZM213.308 114.565C211.842 107.409 212.106 102.704 212.314 98.9842L205.944 98.628C205.726 102.534 205.427 107.884 207.059 115.845L213.308 114.565ZM218.991 126.323C216.577 122.788 214.301 119.41 213.308 114.565L207.059 115.846C208.336 122.078 211.319 126.4 213.723 129.921L218.991 126.323ZM222.787 132.636C221.743 130.338 220.302 128.242 218.991 126.323L213.723 129.921C215.097 131.933 216.203 133.568 216.978 135.274L222.787 132.636ZM228.15 147.94C230.842 146.228 230.842 146.228 230.842 146.228C230.842 146.228 230.842 146.228 230.842 146.228C230.841 146.228 230.841 146.227 230.841 146.227C230.84 146.225 230.839 146.224 230.837 146.221C230.834 146.217 230.83 146.209 230.824 146.2C230.811 146.18 230.793 146.151 230.768 146.113C230.72 146.036 230.648 145.923 230.556 145.777C230.371 145.485 230.106 145.063 229.782 144.547C229.134 143.512 228.254 142.099 227.327 140.58C225.422 137.46 223.473 134.147 222.787 132.636L216.978 135.274C217.86 137.216 220.045 140.896 221.882 143.905C222.826 145.451 223.719 146.886 224.376 147.934C224.705 148.459 224.975 148.887 225.163 149.185C225.257 149.334 225.331 149.45 225.381 149.529C225.406 149.569 225.425 149.599 225.439 149.62C225.445 149.63 225.45 149.638 225.454 149.644C225.455 149.646 225.457 149.648 225.457 149.65C225.458 149.651 225.458 149.651 225.459 149.652C225.459 149.652 225.459 149.652 225.459 149.652C225.459 149.652 225.459 149.652 228.15 147.94ZM216.024 149.115C215.745 149.614 215.388 149.71 215.524 149.658C215.65 149.61 215.966 149.528 216.543 149.486C217.688 149.401 219.237 149.511 220.914 149.743C222.555 149.969 224.166 150.29 225.378 150.558C225.981 150.691 226.477 150.809 226.819 150.894C226.991 150.936 227.123 150.969 227.211 150.992C227.254 151.003 227.287 151.011 227.308 151.017C227.318 151.019 227.325 151.021 227.33 151.023C227.332 151.023 227.333 151.023 227.334 151.024C227.334 151.024 227.334 151.024 227.334 151.024C227.334 151.024 227.334 151.024 227.334 151.024C227.333 151.024 227.333 151.023 228.15 147.94C228.968 144.857 228.967 144.857 228.967 144.857C228.967 144.857 228.966 144.856 228.966 144.856C228.965 144.856 228.964 144.856 228.962 144.855C228.96 144.855 228.956 144.854 228.952 144.853C228.944 144.85 228.932 144.847 228.917 144.844C228.888 144.836 228.847 144.825 228.794 144.812C228.688 144.784 228.535 144.746 228.343 144.699C227.959 144.604 227.413 144.474 226.754 144.329C225.444 144.039 223.654 143.681 221.787 143.423C219.955 143.17 217.886 142.99 216.073 143.123C215.17 143.19 214.173 143.345 213.245 143.7C212.327 144.051 211.178 144.717 210.462 145.991L216.024 149.115ZM222.998 161.342C224.958 158.825 224.959 158.826 224.959 158.826C224.959 158.826 224.959 158.826 224.959 158.826C224.959 158.826 224.959 158.826 224.959 158.826C224.959 158.826 224.958 158.825 224.956 158.823C224.952 158.821 224.945 158.815 224.936 158.808C224.918 158.794 224.888 158.77 224.848 158.739C224.769 158.676 224.65 158.58 224.496 158.454C224.189 158.204 223.747 157.837 223.223 157.383C222.167 156.468 220.807 155.225 219.535 153.875C218.234 152.495 217.162 151.146 216.558 150.018C215.855 148.706 216.276 148.667 216.024 149.115L210.462 145.991C209.001 148.593 210.036 151.355 210.935 153.032C211.933 154.894 213.452 156.723 214.892 158.251C216.361 159.81 217.894 161.207 219.045 162.204C219.624 162.706 220.115 163.114 220.464 163.398C220.638 163.541 220.778 163.653 220.876 163.731C220.925 163.769 220.963 163.8 220.991 163.821C221.004 163.832 221.015 163.841 221.023 163.847C221.027 163.85 221.031 163.853 221.033 163.855C221.034 163.856 221.035 163.856 221.036 163.857C221.037 163.858 221.037 163.858 221.038 163.858C221.038 163.858 221.038 163.859 222.998 161.342ZM211.526 167.577C211.849 167.257 212.596 166.798 213.888 166.328C215.113 165.882 216.55 165.525 217.971 165.248C219.38 164.973 220.705 164.791 221.682 164.677C222.168 164.621 222.563 164.582 222.832 164.557C222.966 164.545 223.069 164.536 223.136 164.531C223.17 164.528 223.194 164.526 223.209 164.525C223.217 164.524 223.222 164.524 223.224 164.524C223.226 164.524 223.226 164.524 223.226 164.524C223.226 164.524 223.226 164.524 223.226 164.524C223.226 164.524 223.225 164.524 223.225 164.524C223.225 164.524 223.225 164.524 222.998 161.342C222.772 158.16 222.772 158.16 222.771 158.16C222.771 158.16 222.77 158.16 222.77 158.161C222.769 158.161 222.768 158.161 222.767 158.161C222.764 158.161 222.761 158.161 222.757 158.161C222.75 158.162 222.74 158.163 222.727 158.164C222.703 158.166 222.668 158.168 222.624 158.172C222.536 158.179 222.411 158.189 222.253 158.204C221.937 158.232 221.489 158.277 220.944 158.34C219.857 158.467 218.364 158.672 216.751 158.986C215.15 159.298 213.36 159.732 211.708 160.332C210.123 160.909 208.342 161.751 207.037 163.043L211.526 167.577ZM143.941 203.42C155.472 203.42 168.737 197.975 180.713 190.979C192.779 183.931 203.993 175.036 211.526 167.577L207.037 163.044C199.881 170.13 189.093 178.695 177.495 185.471C165.808 192.298 153.747 197.04 143.941 197.04V203.42ZM121.391 200.19C128.412 202.27 135.941 203.42 143.941 203.42V197.04C136.56 197.04 129.641 195.98 123.203 194.073L121.391 200.19ZM120.65 194.399C120.552 194.459 120.453 194.516 120.353 194.571L123.445 200.151C123.612 200.059 123.778 199.963 123.944 199.863L120.65 194.399ZM120.08 194.741C120.106 194.722 120.129 194.709 120.148 194.699L123.185 200.309C123.364 200.212 123.543 200.103 123.718 199.981L120.08 194.741ZM118.487 197.249C118.419 198.091 118.473 198.901 118.506 199.448L124.874 199.064C124.837 198.44 124.82 198.08 124.846 197.759L118.487 197.249ZM118.5 199.256V199.256H124.88V199.256H118.5ZM118.506 199.448C118.548 200.14 118.563 200.514 118.527 200.843L124.868 201.541C124.973 200.583 124.91 199.664 124.874 199.064L118.506 199.448ZM118.526 200.845C118.508 201.011 118.447 201.237 118.247 201.844L124.307 203.837C124.467 203.351 124.764 202.485 124.868 201.539L118.526 200.845ZM118.251 201.832L118.251 201.832L124.303 203.85L124.303 203.849L118.251 201.832ZM118.247 201.845C118.19 202.018 118.12 202.23 118.053 202.449L124.155 204.309C124.198 204.169 124.246 204.023 124.307 203.838L118.247 201.845ZM117.923 203.618L117.93 203.71L124.292 203.233L124.285 203.14L117.923 203.618ZM117.93 203.71C118.014 204.817 118.025 205.136 117.996 205.38C117.983 205.484 117.958 205.676 117.638 206.301L123.318 209.207C123.831 208.205 124.197 207.259 124.331 206.13C124.448 205.141 124.36 204.133 124.292 203.233L117.93 203.71ZM117.635 206.308L117.557 206.462L123.243 209.354L123.321 209.2L117.635 206.308ZM117.556 206.464C117.402 206.768 117.271 207.022 117.13 207.265C116.99 207.507 116.875 207.673 116.785 207.78C116.692 207.89 116.685 207.868 116.782 207.811C116.906 207.739 117.126 207.655 117.392 207.658L117.317 214.038C119.465 214.063 120.902 212.801 121.677 211.874C122.444 210.959 122.974 209.885 123.244 209.353L117.556 206.464ZM117.394 207.658C117.512 207.66 117.576 207.672 117.593 207.676C117.608 207.678 117.644 207.686 117.7 207.701C117.727 207.708 117.78 207.723 117.849 207.746C117.884 207.758 117.935 207.777 117.998 207.802C118.054 207.824 118.157 207.868 118.281 207.934L115.301 213.575C115.664 213.766 116.005 213.851 116.036 213.859C116.165 213.894 116.294 213.923 116.413 213.945C116.639 213.988 116.958 214.033 117.314 214.038L117.394 207.658ZM113.736 209.837C113.601 210.289 113.595 210.67 113.603 210.881C113.607 210.991 113.616 211.079 113.622 211.131C113.625 211.157 113.628 211.179 113.63 211.193C113.631 211.199 113.631 211.205 113.632 211.209C113.632 211.212 113.633 211.215 113.633 211.215L119.95 210.325C119.946 210.294 119.971 210.454 119.978 210.642C119.986 210.848 119.981 211.224 119.847 211.671L113.736 209.837ZM113.602 210.77V210.77H119.981V210.77H113.602ZM113.632 211.207C113.637 211.246 113.611 211.08 113.604 210.887C113.597 210.678 113.602 210.264 113.766 209.773L119.816 211.797C119.982 211.302 119.987 210.883 119.98 210.668C119.976 210.555 119.967 210.465 119.961 210.414C119.958 210.388 119.956 210.366 119.954 210.354C119.953 210.347 119.952 210.342 119.952 210.338C119.952 210.337 119.951 210.335 119.951 210.335C119.951 210.334 119.951 210.334 119.951 210.334C119.951 210.333 119.951 210.333 119.951 210.333L113.632 211.207ZM113.757 209.801C114.06 208.866 114.729 208.235 115.415 207.908C116 207.628 116.52 207.598 116.763 207.596C117.245 207.591 117.61 207.701 117.691 207.725C117.931 207.796 118.109 207.881 118.134 207.893L115.438 213.675C115.467 213.688 115.647 213.774 115.889 213.845C115.971 213.869 116.336 213.979 116.819 213.975C117.091 213.973 119.141 213.88 119.826 211.769L113.757 209.801ZM118.125 207.888C118.175 207.912 118.214 207.931 118.234 207.941C118.256 207.952 118.273 207.961 118.281 207.966C118.296 207.974 118.309 207.981 118.3 207.976L115.23 213.568C115.231 213.569 115.237 213.572 115.243 213.576C115.249 213.579 115.26 213.585 115.273 213.592C115.285 213.598 115.356 213.637 115.448 213.679L118.125 207.888ZM118.304 207.979C118.299 207.976 118.267 207.958 118.23 207.938L115.264 213.587C115.249 213.579 115.238 213.573 115.233 213.57C115.228 213.567 115.224 213.565 115.226 213.566L118.304 207.979ZM118.227 207.937C118.203 207.924 118.149 207.896 118.081 207.864C118.047 207.849 117.856 207.758 117.6 207.686L115.857 213.822C115.71 213.781 115.598 213.737 115.54 213.714C115.476 213.688 115.424 213.665 115.392 213.65C115.33 213.621 115.283 213.597 115.267 213.588L118.227 207.937ZM117.657 207.702C117.708 207.718 117.747 207.731 117.767 207.739C117.79 207.746 117.806 207.752 117.815 207.756C117.832 207.762 117.839 207.765 117.833 207.763C117.822 207.758 117.797 207.748 117.763 207.733C117.731 207.719 117.702 207.706 117.684 207.697C117.674 207.693 117.674 207.693 117.682 207.697C117.685 207.698 117.7 207.705 117.72 207.715C117.73 207.72 117.75 207.73 117.775 207.743C117.787 207.75 117.806 207.76 117.829 207.772C117.85 207.784 117.887 207.805 117.933 207.832L114.65 213.302C114.731 213.351 114.797 213.385 114.813 213.394C114.841 213.408 114.864 213.42 114.877 213.426C114.904 213.44 114.928 213.451 114.942 213.458C114.972 213.472 115.002 213.486 115.026 213.497C115.078 213.521 115.139 213.548 115.202 213.576C115.238 213.592 115.534 213.725 115.8 213.806L117.657 207.702ZM117.953 207.844C118.289 208.049 118.453 208.342 118.511 208.574L112.322 210.122C112.632 211.362 113.406 212.543 114.629 213.29L117.953 207.844ZM118.511 208.575C118.545 208.71 118.552 208.833 118.547 208.927C118.542 209.014 118.528 209.058 118.533 209.042C118.538 209.024 118.555 208.97 118.601 208.86C118.649 208.744 118.707 208.618 118.797 208.426L113.016 205.729C112.781 206.233 111.803 208.043 112.322 210.121L118.511 208.575ZM118.797 208.426C118.924 208.154 119.154 207.671 119.324 207.151L113.259 205.171C113.23 205.259 113.176 205.385 113.016 205.729L118.797 208.426ZM119.323 207.152C119.409 206.889 119.496 206.626 119.583 206.36L113.522 204.369C113.435 204.634 113.347 204.901 113.259 205.17L119.323 207.152ZM119.583 206.361L119.594 206.326L113.534 204.333L113.523 204.368L119.583 206.361ZM119.619 206.246L119.619 206.246L113.509 204.413L113.509 204.413L119.619 206.246ZM119.568 206.402L119.568 206.401L113.56 204.256L113.56 204.256L119.568 206.402ZM119.595 206.325C119.882 205.451 120.178 204.55 120.461 203.642L114.371 201.742C114.105 202.597 113.824 203.451 113.534 204.333L119.595 206.325ZM120.461 203.643C120.489 203.554 120.519 203.46 120.556 203.347L114.485 201.386C114.45 201.494 114.41 201.617 114.372 201.741L120.461 203.643ZM120.546 203.375L120.546 203.375L114.494 201.358L114.494 201.358L120.546 203.375ZM120.556 203.347C120.698 202.906 120.995 202.028 121.089 201.111L114.743 200.459C114.73 200.584 114.674 200.801 114.485 201.386L120.556 203.347ZM121.089 201.11C121.17 200.329 121.136 199.508 121.118 198.955L114.742 199.169C114.764 199.836 114.77 200.195 114.743 200.46L121.089 201.11ZM121.119 199.062V199.062H114.74V199.062H121.119ZM121.118 198.955C121.116 198.893 121.114 198.833 121.112 198.774L114.735 198.981C114.737 199.045 114.74 199.108 114.742 199.169L121.118 198.955ZM121.112 198.773C121.111 198.743 121.11 198.713 121.109 198.683L114.732 198.878C114.733 198.913 114.734 198.947 114.735 198.981L121.112 198.773ZM117.328 195.646C115.762 195.942 114.054 195.924 112.267 195.636L111.253 201.935C113.609 202.314 116.077 202.375 118.513 201.915L117.328 195.646ZM112.265 195.636C112.33 195.646 112.38 195.657 112.407 195.664C112.42 195.667 112.427 195.669 112.426 195.669C112.424 195.668 112.42 195.667 112.402 195.662L110.719 201.816C110.77 201.83 110.99 201.892 111.256 201.935L112.265 195.636ZM112.402 195.662C112.353 195.649 112.107 195.578 111.808 195.535L110.9 201.85C110.82 201.838 110.758 201.824 110.723 201.816C110.707 201.812 110.697 201.81 110.696 201.81C110.696 201.81 110.697 201.81 110.702 201.811C110.706 201.812 110.711 201.814 110.72 201.816L112.402 195.662ZM110.507 195.617C110.305 195.673 110.127 195.738 110.083 195.754L112.241 201.758C112.258 201.752 112.267 201.749 112.274 201.746C112.281 201.743 112.282 201.743 112.279 201.744C112.277 201.745 112.268 201.748 112.255 201.752C112.243 201.756 112.224 201.761 112.202 201.767L110.507 195.617ZM110.082 195.754C110.074 195.757 110.068 195.759 110.063 195.761C110.057 195.763 110.053 195.765 110.05 195.766C110.043 195.769 110.041 195.769 110.043 195.768C110.045 195.768 110.052 195.766 110.062 195.762C110.073 195.759 110.089 195.754 110.108 195.748L111.849 201.886C112.034 201.834 112.198 201.773 112.241 201.758L110.082 195.754ZM110.105 195.749L110.057 195.763L111.803 201.899L111.852 201.885L110.105 195.749ZM110.056 195.763C109.757 195.849 109.53 195.912 109.31 195.962C109.094 196.011 108.957 196.028 108.878 196.032C108.799 196.036 108.843 196.023 108.962 196.057C109.102 196.096 109.279 196.182 109.431 196.324L105.089 200.998C106.447 202.26 108.06 202.461 109.2 202.403C110.274 202.349 111.294 202.044 111.804 201.899L110.056 195.763ZM109.432 196.325C109.507 196.395 109.629 196.549 109.702 196.78C109.77 196.997 109.758 197.164 109.748 197.23C109.739 197.287 109.732 197.267 109.779 197.176C109.824 197.087 109.897 196.973 109.999 196.851L105.084 192.783C104.401 193.608 103.673 194.802 103.447 196.233C103.194 197.829 103.607 199.62 105.089 200.998L109.432 196.325ZM109.999 196.85C110.359 196.416 110.883 196.085 112.045 195.441L108.951 189.861C107.961 190.41 106.335 191.271 105.083 192.784L109.999 196.85ZM112.105 195.406L112.106 195.406L108.891 189.895L108.891 189.896L112.105 195.406ZM112.045 195.441C112.087 195.417 112.13 195.393 112.172 195.37L109.076 189.792C109.035 189.815 108.994 189.838 108.952 189.861L112.045 195.441ZM79.8184 171.847C87.6802 181.393 97.5338 189.735 109.224 195.447L112.025 189.715C101.266 184.458 92.1096 176.736 84.743 167.791L79.8184 171.847ZM80.0394 172.465C80.5755 172.688 81.1347 172.854 81.7173 172.958L82.8442 166.679C82.7185 166.657 82.6058 166.623 82.4979 166.578L80.0394 172.465ZM77.9527 171.431C78.8004 172.11 79.7842 172.522 80.79 172.675L81.7473 166.368C81.8146 166.378 81.8849 166.407 81.9419 166.453L77.9527 171.431ZM76.1068 170.152C76.747 170.531 77.3587 170.951 77.9418 171.422L81.9528 166.461C81.1106 165.78 80.2416 165.186 79.3564 164.663L76.1068 170.152ZM75.9421 170.267C76.4132 170.377 76.7599 170.457 77.0199 170.517L78.4433 164.298C78.194 164.241 77.856 164.163 77.3905 164.054L75.9421 170.267ZM71.1745 167.018C72.1862 169.171 74.448 170.533 76.9133 170.341L76.4194 163.981C76.6244 163.965 76.8431 164.081 76.9483 164.305L71.1745 167.018ZM70.8354 167.919C71.5539 168.145 72.2476 168.382 72.9188 168.64L75.204 162.683C74.3841 162.369 73.5634 162.089 72.7519 161.834L70.8354 167.919ZM67.4078 168.103C68.9212 168.019 70.2745 167.969 71.5736 168.058L72.0137 161.694C70.2872 161.575 68.5923 161.647 67.0527 161.733L67.4078 168.103ZM66.6072 168.234C67.0084 168.186 67.3995 168.126 67.7748 168.061L66.6857 161.775C66.3899 161.826 66.1128 161.868 65.8495 161.9L66.6072 168.234ZM64.6637 168.14C65.2899 168.278 65.9462 168.314 66.6087 168.234L65.848 161.9C65.9062 161.893 65.9701 161.896 66.0337 161.91L64.6637 168.14ZM60.7008 168.216C62.3768 168.345 64.0162 168.29 65.517 168.21L65.1804 161.84C63.7394 161.916 62.4395 161.952 61.1939 161.855L60.7008 168.216ZM58.1537 167.411C58.9121 167.862 59.7801 168.145 60.7025 168.216L61.1922 161.855C61.2628 161.86 61.3406 161.884 61.413 161.927L58.1537 167.411ZM56.8529 167.174C57.9971 167.834 59.1956 167.877 59.8735 167.857L59.6932 161.48C59.5944 161.483 59.5765 161.476 59.6169 161.483C59.6567 161.489 59.823 161.522 60.0417 161.648L56.8529 167.174ZM56.7119 167.093C56.7702 167.126 56.8092 167.148 56.8451 167.169L60.0495 161.653C59.9771 161.611 59.9062 161.571 59.854 161.541L56.7119 167.093ZM54.5789 165.162C55.302 166.381 56.5092 166.979 56.712 167.093L59.8539 161.541C59.7547 161.485 59.7046 161.456 59.6626 161.431C59.6245 161.408 59.626 161.407 59.6483 161.423C59.6906 161.455 59.8877 161.607 60.0657 161.908L54.5789 165.162ZM53.5394 161.577C53.5688 162.857 53.9629 164.123 54.5783 165.161L60.0664 161.909C59.9718 161.749 59.9199 161.545 59.9173 161.431L53.5394 161.577ZM54.3183 158.867C54.2224 159.04 53.5094 160.171 53.5393 161.572L59.9174 161.436C59.9254 161.809 59.8311 162.063 59.8067 162.124C59.7936 162.156 59.7889 162.163 59.8062 162.129C59.8256 162.091 59.8501 162.046 59.9021 161.952L54.3183 158.867ZM54.4029 158.711C54.3844 158.747 54.3617 158.788 54.3184 158.867L59.9021 161.952C59.9394 161.885 59.9967 161.781 60.0537 161.672L54.4029 158.711ZM56.0676 156.858C55.8919 157.004 55.6365 157.221 55.3898 157.458C55.2499 157.593 54.7379 158.074 54.405 158.707L60.0517 161.676C60.0094 161.757 59.9702 161.822 59.9395 161.869C59.9084 161.918 59.881 161.957 59.8601 161.985C59.8196 162.04 59.7897 162.075 59.7791 162.087C59.7672 162.101 59.7634 162.105 59.7706 162.097C59.7772 162.09 59.7895 162.078 59.8083 162.06C59.8469 162.023 59.8976 161.977 59.9583 161.923C60.018 161.871 60.0796 161.819 60.1376 161.771L56.0676 156.858ZM56.8998 155.394C56.5013 155.909 55.7666 156.842 55.2433 157.901L60.9619 160.728C61.1557 160.337 61.4804 159.899 61.9471 159.295L56.8998 155.394ZM57.0164 155.243L56.8986 155.395L61.9484 159.294L62.0662 159.141L57.0164 155.243ZM59.2411 152.495C58.3393 153.551 57.837 154.176 57.0134 155.247L62.0692 159.137C62.8356 158.142 63.2693 157.601 64.0916 156.639L59.2411 152.495ZM61.1515 150.326C60.5264 151.012 59.8111 151.828 59.2412 152.495L64.0914 156.639C64.6255 156.014 65.2962 155.25 65.8691 154.62L61.1515 150.326ZM62.0468 149.38C61.7736 149.663 61.4666 149.98 61.1515 150.326L65.8691 154.62C66.1085 154.357 66.3488 154.109 66.6312 153.817L62.0468 149.38ZM62.4512 148.96C62.3189 149.099 62.1872 149.235 62.0469 149.38L66.6312 153.817C66.769 153.674 66.9175 153.521 67.0694 153.362L62.4512 148.96ZM62.4346 148.978L62.4245 148.989L67.0961 153.333L67.1063 153.322L62.4346 148.978ZM62.5021 148.907L62.4872 148.923L67.0537 153.378L67.0686 153.362L62.5021 148.907ZM62.5632 148.846L62.546 148.863L67.0247 153.406L67.0419 153.389L62.5632 148.846ZM62.5964 148.814L62.5846 148.825L67.0205 153.41L67.0322 153.399L62.5964 148.814ZM62.604 148.807L62.6034 148.807L67.0252 153.406L67.0258 153.405L62.604 148.807ZM62.5636 148.847C62.5809 148.829 62.5941 148.816 62.5996 148.811C62.6024 148.808 62.6041 148.806 62.6039 148.807C62.6033 148.807 62.6024 148.808 62.5987 148.812L67.0311 153.4C67.0382 153.393 67.0894 153.344 67.145 153.287L62.5636 148.847ZM64.7539 154.256L64.8176 154.257L64.8909 147.877L64.8272 147.877L64.7539 154.256ZM60.256 154.827C61.9289 154.659 63.5863 154.451 65.224 154.226L64.3571 147.906C62.7665 148.124 61.1906 148.321 59.6194 148.479L60.256 154.827ZM60.821 154.756C60.9741 154.687 61.1261 154.618 61.2772 154.548L58.5981 148.758C58.465 148.819 58.3322 148.88 58.1996 148.94L60.821 154.756ZM52.8011 155.776C54.634 156.62 56.5741 156.248 57.7003 155.941C58.9563 155.6 60.1404 155.062 60.8184 154.757L58.2022 148.939C57.4702 149.268 56.7257 149.595 56.0263 149.785C55.687 149.878 55.4544 149.909 55.3188 149.914C55.1794 149.918 55.2692 149.889 55.4695 149.982L52.8011 155.776ZM52.7757 155.765L52.8026 155.777L55.468 149.981L55.441 149.969L52.7757 155.765ZM52.9235 155.828L52.9237 155.828L55.293 149.905L55.2929 149.905L52.9235 155.828ZM50.4251 154.051C51.2737 155.147 52.5258 155.65 52.775 155.764L55.4414 149.969C55.3872 149.944 55.3442 149.924 55.3027 149.905C55.2624 149.886 55.2301 149.87 55.2028 149.857C55.1464 149.829 55.1261 149.817 55.1266 149.817C55.1276 149.817 55.1663 149.841 55.2254 149.89C55.2858 149.94 55.375 150.023 55.4696 150.145L50.4251 154.051ZM49.0337 150.918C49.2379 151.983 49.6788 153.084 50.4221 154.047L55.4725 150.149C55.4179 150.078 55.3407 149.933 55.299 149.716L49.0337 150.918ZM49.3134 147.726C49.0176 148.567 48.7996 149.697 49.0336 150.918L55.2991 149.716C55.3209 149.831 55.3137 149.899 55.3128 149.908C55.3118 149.916 55.3139 149.893 55.3313 149.844L49.3134 147.726ZM50.6812 145.379C50.2618 145.9 49.6741 146.702 49.3136 147.726L55.331 149.844C55.327 149.856 55.3379 149.821 55.3925 149.733C55.4476 149.645 55.5291 149.531 55.6514 149.379L50.6812 145.379ZM52.8876 143.624C52.503 143.846 51.467 144.405 50.6833 145.377L55.6493 149.381C55.581 149.466 55.5434 149.481 55.6171 149.429C55.6529 149.404 55.7055 149.369 55.7862 149.32C55.8699 149.269 55.9602 149.216 56.0862 149.143L52.8876 143.624ZM53.3448 143.345C53.2661 143.401 53.1568 143.468 52.8876 143.624L56.0862 149.143C56.3061 149.016 56.683 148.8 57.0498 148.539L53.3448 143.345ZM53.9974 142.795C53.7389 143.037 53.5257 143.216 53.3443 143.346L57.0504 148.538C57.5452 148.185 57.9865 147.8 58.3662 147.444L53.9974 142.795ZM77.4093 163.94L77.3716 163.938L77.0316 170.309L77.0694 170.311L77.4093 163.94ZM78.8343 164.362L78.7905 164.338L75.6882 169.913L75.732 169.937L78.8343 164.362ZM78.9557 164.431C78.9162 164.408 78.877 164.386 78.838 164.365L75.7283 169.935C75.7576 169.951 75.7864 169.967 75.815 169.984L78.9557 164.431ZM78.9868 164.448L78.9583 164.432L75.8124 169.982L75.8409 169.998L78.9868 164.448ZM76.2035 170.198C76.3314 170.234 76.458 170.269 76.5831 170.303L78.2446 164.144C78.1422 164.116 78.0411 164.088 77.9411 164.06L76.2035 170.198ZM77.3742 163.938C77.3538 163.937 77.3142 163.935 77.2752 163.933C77.247 163.932 77.163 163.928 77.0667 163.929C77.0277 163.929 76.9087 163.929 76.7602 163.943C76.692 163.95 76.5317 163.967 76.3327 164.013C76.2991 164.021 75.5783 164.159 74.9216 164.749C74.5042 165.125 73.9252 165.863 73.869 166.958C73.8153 168.006 74.2754 168.752 74.5578 169.107C75.0388 169.712 75.6172 169.97 75.662 169.992C75.9459 170.13 76.1931 170.195 76.218 170.202L77.9267 164.056C77.9374 164.059 78.1751 164.12 78.4534 164.256C78.4953 164.276 79.072 164.533 79.5521 165.137C79.8341 165.492 80.294 166.238 80.2403 167.285C80.1841 168.38 79.6054 169.117 79.1885 169.492C78.5327 170.082 77.8136 170.219 77.7827 170.226C77.5863 170.272 77.4293 170.288 77.3653 170.294C77.2251 170.308 77.1173 170.308 77.0918 170.308C77.0017 170.308 76.9297 170.303 77.0283 170.308L77.3742 163.938ZM77.2016 163.934H77.2012V170.313H77.2016V163.934ZM245.398 285.467L255.944 356.728L262.255 355.795L251.709 284.533L245.398 285.467ZM207.099 288.19H248.554V281.81H207.099V288.19ZM227.043 351.763L210.194 284.228L204.004 285.772L220.853 353.307L227.043 351.763ZM227.138 412.986V352.535H220.758V412.986H227.138ZM233.554 436.163L227.026 412.149L220.87 413.822L227.398 437.837L233.554 436.163ZM256.093 355.196L227.47 435.934L233.482 438.066L262.106 357.327L256.093 355.196ZM176.359 193.053C176.443 193.686 176.007 194.405 175.211 194.51L174.372 188.186C171.512 188.566 169.677 191.198 170.035 193.893L176.359 193.053ZM177.284 200.034C176.973 197.706 176.663 195.385 176.36 193.061L170.034 193.885C170.338 196.221 170.65 198.553 170.961 200.879L177.284 200.034ZM177.766 203.647C177.606 202.442 177.445 201.237 177.284 200.034L170.961 200.879C171.122 202.082 171.283 203.284 171.442 204.487L177.766 203.647ZM176.419 202.625C177.102 202.531 177.678 203.004 177.765 203.635L171.444 204.5C171.828 207.308 174.426 209.339 177.289 208.945L176.419 202.625ZM175.381 203.967C175.298 203.36 175.717 202.721 176.421 202.625L177.287 208.945C180.168 208.551 182.083 205.89 181.702 203.103L175.381 203.967ZM174.62 199.055C174.89 200.722 175.153 202.353 175.383 203.981L181.7 203.089C181.459 201.387 181.186 199.695 180.918 198.038L174.62 199.055ZM174.623 199.071L174.623 199.071L180.916 198.022L180.916 198.022L174.623 199.071ZM174.615 199.019L174.615 199.019L180.924 198.073L180.924 198.072L174.615 199.019ZM174.613 199.007L174.613 199.007L180.925 198.084L180.925 198.083L174.613 199.007ZM174.631 199.115L174.631 199.116L180.908 197.974L180.907 197.973L174.631 199.115ZM173.756 193.404C174.016 195.31 174.322 197.204 174.62 199.052L180.918 198.035C180.617 196.174 180.324 194.357 180.077 192.542L173.756 193.404ZM175.211 194.51C174.501 194.604 173.85 194.112 173.754 193.393L180.078 192.553C179.709 189.77 177.145 187.818 174.372 188.186L175.211 194.51Z" fill="white"/>
<path d="M100.828 207.423C100.828 207.423 147.916 264.723 197.378 205.73C197.378 205.73 217.324 203.482 239.416 221.223L265.416 300.223L220.151 307.124L219.201 263.31L222.178 400.628L228.416 438.723L67.4163 450.723L80.8643 378.637L75.8553 264.723L76.9228 289L67.5993 281.5L51.0993 247L61.4163 221.223L100.828 207.423Z" fill="#BBC1F1"/>
<path d="M141.416 149.723L145.341 153.661C145.341 153.661 148.545 151.3 149.916 149.723" stroke="#823F4B" stroke-width="8" stroke-miterlimit="10" stroke-linecap="round" stroke-linejoin="round"/>
<path d="M145.925 164C145.925 164 145.925 164 140.123 164C140.123 164 139.329 171.45 146.983 171.968C154.638 172.487 149.27 166.44 149.27 166.44C146.213 164.296 145.925 164 145.925 164Z" fill="#541F17"/>
<path d="M180.339 127.591C179.737 125.99 180.065 124.386 181.072 124.007C182.079 123.629 183.383 124.619 183.985 126.22C184.587 127.821 184.258 129.425 183.251 129.804C182.245 130.182 180.941 129.192 180.339 127.591Z" fill="white"/>
<path d="M131.099 135.908C131.099 135.908 109.099 135.908 89.6047 132.696C84.6349 130.729 117.636 103.211 131.099 135.908Z" fill="white" stroke="#2D2145" stroke-width="1.5" stroke-miterlimit="10" stroke-linejoin="round"/>
<path d="M104.099 131.5C94.5994 118.5 129.099 117.5 115.099 133.5L104.099 131.5Z" fill="#000002" stroke="#000002" stroke-opacity="0.918919" stroke-width="5.88512" stroke-miterlimit="10" stroke-linecap="round" stroke-linejoin="round"/>
<path d="M108.389 127.386C109.944 127.081 111.229 125.744 111.258 124.399C111.286 123.053 110.049 122.209 108.494 122.513C106.938 122.817 105.654 124.155 105.624 125.5C105.595 126.846 106.833 127.69 108.389 127.386Z" fill="white"/>
<path d="M201.253 131.628C201.253 131.628 179.681 135.95 159.935 136.629C154.676 135.677 181.629 102.213 201.253 131.628Z" fill="white" stroke="#2D2145" stroke-width="1.5" stroke-miterlimit="10" stroke-linejoin="round"/>
<path d="M173.913 132.61C162.044 121.729 195.676 113.971 185.091 132.41L173.913 132.61Z" fill="#000002" stroke="#000002" stroke-opacity="0.918919" stroke-width="5.88512" stroke-miterlimit="10" stroke-linecap="round" stroke-linejoin="round"/>
<path d="M177.311 127.733C178.776 127.129 179.773 125.565 179.537 124.241C179.301 122.915 177.922 122.331 176.456 122.934C174.99 123.538 173.994 125.102 174.229 126.427C174.465 127.752 175.845 128.337 177.311 127.733Z" fill="white"/>
<path d="M197.032 140.31C197.032 140.232 197.095 140.169 197.172 140.169C197.25 140.169 197.313 140.232 197.313 140.31C197.313 140.387 197.25 140.45 197.172 140.45C197.095 140.45 197.032 140.387 197.032 140.31Z" fill="white" stroke="#000002" stroke-width="0.706675" stroke-miterlimit="10" stroke-linejoin="round"/>
<path d="M176.811 149.578C176.811 149.5 176.874 149.437 176.951 149.437C177.029 149.437 177.092 149.5 177.092 149.578C177.092 149.655 177.029 149.718 176.951 149.718C176.874 149.718 176.811 149.655 176.811 149.578Z" fill="white" stroke="#000002" stroke-width="0.706675" stroke-miterlimit="10" stroke-linejoin="round"/>
<path d="M186.36 148.595C186.36 148.44 186.423 148.314 186.5 148.314C186.578 148.314 186.641 148.44 186.641 148.595C186.641 148.75 186.578 148.876 186.5 148.876C186.423 148.876 186.36 148.75 186.36 148.595Z" fill="white" stroke="#000002" stroke-width="0.706675" stroke-miterlimit="10" stroke-linejoin="round"/>
<path d="M127.944 146.91C127.944 146.91 128.006 146.91 128.084 146.91C128.161 146.91 128.224 146.91 128.224 146.91" stroke="#000002" stroke-width="0.492477" stroke-miterlimit="10" stroke-linecap="round" stroke-linejoin="round"/>
<path d="M110.812 151.965C110.812 151.965 111 151.965 111.233 151.965C111.466 151.965 111.654 151.965 111.654 151.965" stroke="#000002" stroke-width="1.78404" stroke-miterlimit="10" stroke-linecap="round" stroke-linejoin="round"/>
<path d="M95.3654 155.335C95.3654 155.18 95.4284 155.054 95.5064 155.054C95.5834 155.054 95.6464 155.18 95.6464 155.335C95.6464 155.49 95.5834 155.616 95.5064 155.616C95.4284 155.616 95.3654 155.49 95.3654 155.335Z" stroke="#000002" stroke-width="1.78404" stroke-miterlimit="10" stroke-linecap="round" stroke-linejoin="round"/>
<path d="M128.786 150.701C128.786 150.624 128.849 150.561 128.926 150.561C129.004 150.561 129.067 150.624 129.067 150.701C129.067 150.779 129.004 150.842 128.926 150.842C128.849 150.842 128.786 150.779 128.786 150.701Z" stroke="#000002" stroke-width="1.78404" stroke-miterlimit="10" stroke-linecap="round" stroke-linejoin="round"/>
<path d="M162.022 158.402C162.022 158.36 162.278 158.326 162.593 158.326C162.909 158.326 163.165 158.36 163.165 158.402C163.165 158.444 162.909 158.478 162.593 158.478C162.278 158.478 162.022 158.444 162.022 158.402Z" stroke="#000002" stroke-width="1.78404" stroke-miterlimit="10" stroke-linecap="round" stroke-linejoin="round"/>
<path d="M136.632 169.047C134.388 166.165 139.674 164.774 144.26 164.725C144.26 164.725 150.805 166.646 152.599 169.047C154.394 171.449 151.207 172.26 147.401 171.929C147.401 171.929 138.875 171.929 136.632 169.047Z" fill="#1C0D0D"/>
<path d="M144.26 158V164.725M144.26 164.725C139.674 164.774 134.388 166.165 136.632 169.047C138.875 171.929 147.401 171.929 147.401 171.929C151.207 172.26 154.394 171.449 152.599 169.047C150.805 166.646 144.26 164.725 144.26 164.725Z" stroke="black"/>
<path d="M151.463 291.058L133.123 278.5L133.091 288.706C133.162 288.507 133.248 288.311 133.369 288.127C134.166 286.91 135.781 286.584 136.975 287.401C138.165 288.216 138.484 289.867 137.687 291.084C136.887 292.305 135.275 292.628 134.086 291.813C133.598 291.48 133.266 291.006 133.085 290.482L133.056 299.678C133.049 302.078 131.13 304.022 128.789 304.015L127.088 304.009C127.748 304.888 127.833 306.128 127.197 307.099C126.396 308.32 124.785 308.643 123.595 307.828C122.4 307.01 122.078 305.364 122.878 304.142C122.914 304.089 122.958 304.047 122.996 303.996L108.846 303.952C108.931 304.025 109.008 304.104 109.102 304.169L132.417 320.133C133.831 321.1 135.745 320.713 136.691 319.268L152.308 295.427C153.255 293.982 152.877 292.026 151.463 291.058ZM136.244 313.294C135.444 314.515 133.832 314.838 132.642 314.023C131.447 313.205 131.125 311.558 131.925 310.337C132.722 309.12 134.337 308.793 135.531 309.611C136.722 310.426 137.041 312.077 136.244 313.294ZM141.489 305.286C140.689 306.508 139.077 306.83 137.887 306.015C136.693 305.197 136.371 303.551 137.171 302.329C137.968 301.112 139.583 300.786 140.777 301.603C141.967 302.418 142.286 304.069 141.489 305.286ZM146.735 297.279C145.934 298.5 144.323 298.822 143.133 298.008C141.938 297.19 141.617 295.543 142.416 294.322C143.213 293.105 144.828 292.778 146.022 293.596C147.213 294.411 147.532 296.062 146.735 297.279Z" fill="url(#paint0_linear_101_229)"/>
<path d="M131.88 299.673L131.97 270.98C131.976 269.241 130.601 267.827 128.9 267.821L100.838 267.733C99.1367 267.727 97.7531 269.133 97.7476 270.873L97.6572 299.565C97.6517 301.305 99.0264 302.719 100.728 302.724L128.79 302.813C130.491 302.818 131.874 301.413 131.88 299.673ZM103.888 297.53C102.451 297.526 101.291 296.337 101.295 294.867C101.3 293.403 102.468 292.217 103.905 292.221C105.338 292.226 106.498 293.419 106.493 294.884C106.489 296.353 105.321 297.535 103.888 297.53ZM103.949 278.256C102.512 278.252 101.352 277.063 101.356 275.593C101.361 274.129 102.529 272.943 103.966 272.947C105.398 272.952 106.558 274.145 106.554 275.61C106.549 277.079 105.382 278.261 103.949 278.256ZM114.808 287.928C113.371 287.923 112.21 286.734 112.215 285.265C112.219 283.8 113.388 282.614 114.825 282.618C116.257 282.623 117.417 283.817 117.413 285.281C117.408 286.751 116.241 287.932 114.808 287.928ZM125.667 297.599C124.23 297.594 123.069 296.406 123.074 294.936C123.079 293.472 124.246 292.285 125.683 292.29C127.116 292.294 128.277 293.488 128.272 294.952C128.267 296.422 127.1 297.603 125.667 297.599ZM125.727 278.325C124.29 278.32 123.13 277.132 123.135 275.662C123.139 274.197 124.307 273.011 125.744 273.016C127.177 273.02 128.337 274.214 128.333 275.678C128.328 277.148 127.161 278.329 125.727 278.325Z" fill="#2D2145"/>
<path d="M188.475 315.936L169.281 327.145L178.493 331.538C178.343 331.389 178.204 331.227 178.089 331.039C177.33 329.798 177.725 328.199 178.975 327.469C180.22 326.742 181.849 327.159 182.608 328.4C183.37 329.645 182.972 331.241 181.727 331.967C181.217 332.266 180.647 332.364 180.096 332.303L188.397 336.261C190.563 337.294 191.5 339.86 190.492 341.973L189.76 343.509C190.836 343.287 191.994 343.741 192.599 344.731C193.361 345.977 192.963 347.572 191.718 348.299C190.468 349.029 188.842 348.616 188.08 347.371C188.047 347.316 188.027 347.258 187.998 347.202L181.907 359.974C182.009 359.928 182.114 359.893 182.213 359.835L206.614 345.585C208.093 344.721 208.561 342.826 207.659 341.353L192.787 317.041C191.885 315.567 189.955 315.072 188.475 315.936ZM202.068 339.202C202.83 340.447 202.432 342.043 201.186 342.77C199.936 343.5 198.31 343.087 197.548 341.842C196.789 340.601 197.184 339.001 198.434 338.271C199.68 337.544 201.309 337.961 202.068 339.202ZM197.072 331.037C197.834 332.282 197.436 333.877 196.191 334.604C194.941 335.334 193.315 334.921 192.553 333.675C191.794 332.434 192.189 330.835 193.439 330.105C194.684 329.378 196.313 329.795 197.072 331.037ZM192.077 322.87C192.839 324.116 192.441 325.711 191.195 326.438C189.945 327.168 188.319 326.755 187.557 325.51C186.798 324.269 187.193 322.669 188.443 321.94C189.689 321.212 191.318 321.629 192.077 322.87Z" fill="url(#paint1_linear_101_229)"/>
<path d="M187.889 337.322L161.991 324.971C160.421 324.222 158.554 324.86 157.822 326.396L145.742 351.725C145.01 353.261 145.689 355.112 147.259 355.861L173.157 368.212C174.727 368.961 176.594 368.323 177.326 366.788L189.406 341.458C190.138 339.923 189.459 338.071 187.889 337.322ZM173.982 361.709C173.364 363.007 171.793 363.547 170.467 362.915C169.145 362.284 168.572 360.721 169.19 359.424C169.807 358.131 171.382 357.593 172.704 358.223C174.03 358.856 174.599 360.416 173.982 361.709ZM156.585 353.413C155.967 354.71 154.396 355.25 153.07 354.618C151.748 353.987 151.175 352.425 151.793 351.127C152.41 349.834 153.985 349.296 155.307 349.926C156.633 350.559 157.202 352.12 156.585 353.413ZM169.971 347.732C169.353 349.029 167.782 349.57 166.455 348.938C165.133 348.307 164.561 346.744 165.179 345.447C165.796 344.154 167.371 343.616 168.693 344.246C170.019 344.879 170.588 346.439 169.971 347.732ZM183.357 342.052C182.738 343.349 181.168 343.889 179.841 343.257C178.52 342.626 177.946 341.064 178.565 339.767C179.182 338.474 180.757 337.935 182.079 338.565C183.405 339.198 183.974 340.758 183.357 342.052ZM165.96 333.755C165.341 335.052 163.771 335.593 162.444 334.96C161.122 334.33 160.549 332.767 161.168 331.47C161.785 330.177 163.36 329.638 164.682 330.268C166.008 330.901 166.577 332.462 165.96 333.755Z" fill="#2D2145"/>
<path d="M213.933 264.396L206.228 236.757C205.761 235.081 204.054 234.093 202.415 234.55L175.384 242.086C173.745 242.543 172.795 244.271 173.262 245.947L180.967 273.586C181.434 275.261 183.141 276.249 184.78 275.792L211.812 268.257C213.45 267.8 214.4 266.071 213.933 264.396ZM186.411 269.935C185.027 270.321 183.587 269.492 183.193 268.077C182.799 266.666 183.601 265.207 184.986 264.821C186.365 264.436 187.806 265.27 188.199 266.681C188.594 268.096 187.791 269.55 186.411 269.935ZM181.236 251.369C179.851 251.755 178.412 250.926 178.017 249.51C177.624 248.099 178.425 246.641 179.81 246.255C181.19 245.87 182.63 246.704 183.024 248.115C183.418 249.53 182.615 250.984 181.236 251.369ZM194.313 257.728C192.929 258.114 191.489 257.285 191.094 255.869C190.701 254.458 191.503 252.999 192.887 252.614C194.267 252.229 195.708 253.063 196.101 254.473C196.496 255.889 195.693 257.343 194.313 257.728ZM207.39 264.087C206.005 264.473 204.566 263.644 204.172 262.228C203.778 260.817 204.58 259.359 205.964 258.973C207.344 258.588 208.785 259.422 209.179 260.832C209.573 262.248 208.77 263.702 207.39 264.087ZM202.214 245.521C200.83 245.907 199.39 245.078 198.996 243.662C198.603 242.251 199.404 240.792 200.788 240.407C202.168 240.022 203.609 240.855 204.003 242.266C204.397 243.682 203.595 245.136 202.214 245.521Z" fill="#2D2145"/>
<path d="M106.829 237.452L89.9239 214.268C88.8991 212.862 86.9542 212.535 85.5797 213.538L62.9053 230.072C61.5307 231.074 61.2471 233.026 62.272 234.432L79.1773 257.615C80.2022 259.021 82.1473 259.347 83.5219 258.345L106.196 241.811C107.571 240.809 107.854 238.857 106.829 237.452ZM82.9963 252.287C81.8348 253.134 80.1964 252.863 79.3304 251.675C78.4676 250.492 78.7069 248.845 79.8683 247.998C81.0256 247.154 82.6672 247.43 83.53 248.613C84.396 249.8 84.1538 251.443 82.9963 252.287ZM71.6403 236.714C70.4788 237.561 68.8403 237.289 67.9744 236.102C67.1115 234.918 67.3509 233.271 68.5122 232.424C69.6696 231.58 71.3111 231.856 72.174 233.04C73.04 234.227 72.7977 235.87 71.6403 236.714ZM86.1169 238.085C84.9557 238.932 83.3166 238.66 82.4507 237.473C81.5878 236.289 81.8276 234.642 82.9888 233.795C84.1462 232.951 85.7877 233.227 86.6506 234.41C87.5165 235.598 87.2743 237.241 86.1169 238.085ZM100.593 239.456C99.432 240.303 97.7935 240.031 96.9276 238.844C96.0648 237.66 96.3039 236.013 97.4651 235.166C98.6225 234.322 100.265 234.598 101.127 235.781C101.993 236.968 101.751 238.612 100.593 239.456ZM89.2371 223.883C88.0759 224.729 86.4375 224.458 85.5716 223.27C84.7086 222.087 84.9479 220.44 86.1091 219.593C87.2665 218.749 88.9085 219.024 89.7714 220.208C90.6373 221.395 90.3952 223.038 89.2371 223.883Z" fill="#F1E8FF"/>
<path d="M146.829 397.452L129.924 374.268C128.899 372.862 126.954 372.535 125.58 373.538L102.905 390.072C101.531 391.074 101.247 393.026 102.272 394.432L119.177 417.615C120.202 419.021 122.147 419.347 123.522 418.345L146.196 401.811C147.571 400.809 147.854 398.857 146.829 397.452ZM122.996 412.287C121.835 413.134 120.196 412.863 119.33 411.675C118.468 410.492 118.707 408.845 119.868 407.998C121.026 407.154 122.667 407.43 123.53 408.613C124.396 409.8 124.154 411.443 122.996 412.287ZM111.64 396.714C110.479 397.561 108.84 397.289 107.974 396.102C107.111 394.918 107.351 393.271 108.512 392.424C109.67 391.58 111.311 391.856 112.174 393.04C113.04 394.227 112.798 395.87 111.64 396.714ZM126.117 398.085C124.956 398.932 123.317 398.66 122.451 397.473C121.588 396.289 121.828 394.642 122.989 393.795C124.146 392.951 125.788 393.227 126.651 394.41C127.516 395.598 127.274 397.241 126.117 398.085ZM140.593 399.456C139.432 400.303 137.793 400.031 136.928 398.844C136.065 397.66 136.304 396.013 137.465 395.166C138.622 394.322 140.265 394.598 141.127 395.781C141.993 396.968 141.751 398.612 140.593 399.456ZM129.237 383.883C128.076 384.729 126.437 384.458 125.572 383.27C124.709 382.087 124.948 380.44 126.109 379.593C127.266 378.749 128.908 379.024 129.771 380.208C130.637 381.395 130.395 383.038 129.237 383.883Z" fill="#F1E8FF"/>
<path d="M208.915 416.648L217.861 389.386C218.403 387.733 217.533 385.963 215.917 385.433L189.253 376.684C187.636 376.153 185.886 377.063 185.344 378.716L176.398 405.978C175.856 407.631 176.727 409.401 178.343 409.931L205.007 418.68C206.623 419.211 208.373 418.301 208.915 416.648ZM182.953 405.967C181.587 405.519 180.851 404.03 181.309 402.633C181.766 401.242 183.243 400.474 184.609 400.922C185.97 401.369 186.704 402.862 186.248 404.254C185.79 405.65 184.314 406.413 182.953 405.967ZM188.963 387.653C187.597 387.205 186.86 385.716 187.319 384.32C187.775 382.928 189.252 382.161 190.618 382.609C191.979 383.055 192.714 384.549 192.257 385.941C191.799 387.337 190.324 388.1 188.963 387.653ZM196.305 400.205C194.939 399.757 194.202 398.268 194.66 396.872C195.117 395.48 196.594 394.713 197.96 395.161C199.321 395.607 200.056 397.101 199.599 398.492C199.141 399.889 197.666 400.652 196.305 400.205ZM203.646 412.757C202.281 412.309 201.544 410.82 202.002 409.424C202.459 408.032 203.936 407.264 205.301 407.712C206.662 408.159 207.398 409.653 206.941 411.044C206.483 412.44 205.008 413.204 203.646 412.757ZM209.655 394.443C208.29 393.995 207.554 392.507 208.012 391.11C208.468 389.719 209.945 388.951 211.311 389.399C212.672 389.846 213.407 391.339 212.951 392.731C212.492 394.127 211.017 394.89 209.655 394.443Z" fill="#F1E8FF"/>
<path d="M203.416 206.658L201.416 310.223L205.416 391.658" stroke="#2D2145" stroke-width="12"/>
<line x1="120.416" y1="259.658" x2="122.416" y2="444.658" stroke="#F1F3FF" stroke-width="12"/>
<path d="M103.124 104.982C103.124 104.982 110.319 103.326 114.996 103.924C119.673 104.522 126.936 107.139 126.936 107.139" stroke="#2D2145" stroke-width="5" stroke-linecap="round"/>
<path d="M165.473 108.945C165.473 108.945 172.037 105.562 176.716 104.987C181.396 104.411 189.081 105.153 189.081 105.153" stroke="#2D2145" stroke-width="5" stroke-linecap="round"/>
<path d="M138.099 197L149.599 205.5" stroke="#ADADAD"/>
<path d="M142.599 189L153.599 198.5" stroke="#ADADAD"/>
<path d="M255.441 75.4049L255.558 75.013C256.847 70.8675 258.273 67.6885 259.837 65.4759C261.401 63.2633 263.173 61.6231 265.153 60.5553C267.134 59.4875 269.383 58.6308 271.901 57.985C273.421 57.5858 274.852 57.0059 276.194 56.2454C277.544 55.4632 278.724 54.4524 279.735 53.2132C280.769 51.9805 281.543 50.5042 282.058 48.7841C282.697 46.6504 282.75 44.6499 282.218 42.7824C281.686 40.9149 280.708 39.3057 279.286 37.9546C277.864 36.6036 276.129 35.6217 274.083 35.009C272.297 34.4745 270.467 34.3297 268.59 34.5745C266.714 34.8194 264.983 35.5703 263.396 36.8272C261.81 38.0842 260.545 39.9712 259.602 42.4882L251.372 40.0242C252.654 36.3751 254.561 33.494 257.091 31.381C259.644 29.2745 262.565 27.9548 265.856 27.4217C269.169 26.8953 272.589 27.16 276.117 28.216C279.948 29.3632 283.052 31.1226 285.426 33.494C287.822 35.872 289.395 38.6205 290.145 41.7396C290.918 44.8651 290.796 48.1262 289.779 51.5227C289.062 53.9176 288.043 55.9732 286.723 57.6893C285.424 59.4119 283.861 60.83 282.033 61.9434C280.226 63.0633 278.189 63.9243 275.921 64.5264C273.647 65.1503 271.734 65.9535 270.182 66.9362C268.637 67.8971 267.333 69.2028 266.269 70.8535C265.206 72.5042 264.248 74.6729 263.396 77.3596L263.279 77.7515L255.441 75.4049ZM253.833 95.9904C252.222 95.508 251.012 94.5171 250.203 93.0177C249.395 91.5183 249.232 89.963 249.714 88.3519C250.197 86.7407 251.188 85.5309 252.687 84.7224C254.186 83.914 255.742 83.7509 257.353 84.2333C258.964 84.7156 260.174 85.7065 260.982 87.2059C261.791 88.7053 261.954 90.2606 261.471 91.8718C261.152 92.9386 260.587 93.8369 259.775 94.5666C258.985 95.3029 258.063 95.8095 257.007 96.0866C255.98 96.3484 254.922 96.3163 253.833 95.9904Z" fill="white"/>
<path d="M245.238 180.476L245.372 180.238C246.815 177.73 248.207 175.87 249.548 174.659C250.888 173.448 252.28 172.64 253.724 172.235C255.169 171.829 256.757 171.6 258.489 171.548C259.536 171.51 260.551 171.342 261.536 171.043C262.528 170.731 263.443 170.246 264.282 169.588C265.134 168.937 265.853 168.09 266.439 167.046C267.166 165.751 267.493 164.458 267.42 163.165C267.346 161.873 266.945 160.683 266.218 159.597C265.49 158.51 264.505 157.618 263.263 156.921C262.18 156.313 261.01 155.951 259.754 155.836C258.498 155.722 257.262 155.957 256.046 156.543C254.831 157.129 253.733 158.172 252.752 159.672L247.758 156.867C249.125 154.681 250.786 153.085 252.74 152.08C254.708 151.083 256.801 150.651 259.02 150.785C261.252 150.926 263.438 151.597 265.578 152.799C267.903 154.105 269.665 155.703 270.863 157.592C272.074 159.489 272.696 161.506 272.729 163.645C272.775 165.791 272.219 167.894 271.062 169.955C270.245 171.408 269.283 172.596 268.173 173.52C267.077 174.451 265.853 175.145 264.501 175.602C263.163 176.067 261.712 176.33 260.149 176.39C258.578 176.464 257.217 176.707 256.064 177.12C254.919 177.519 253.88 178.178 252.947 179.096C252.014 180.015 251.074 181.286 250.128 182.909L249.994 183.147L245.238 180.476ZM241.187 193.631C240.209 193.082 239.567 192.261 239.26 191.168C238.953 190.074 239.074 189.039 239.623 188.061C240.172 187.084 240.993 186.441 242.086 186.134C243.18 185.827 244.215 185.949 245.193 186.498C246.171 187.047 246.813 187.868 247.12 188.961C247.427 190.055 247.306 191.09 246.757 192.068C246.393 192.715 245.894 193.217 245.26 193.573C244.638 193.936 243.964 194.131 243.237 194.157C242.531 194.178 241.847 194.002 241.187 193.631Z" fill="white"/>
<path d="M31.6678 116.598L31.5512 116.351C30.3419 113.722 29.6317 111.51 29.4206 109.716C29.2095 107.922 29.3567 106.319 29.8624 104.907C30.368 103.495 31.101 102.067 32.0615 100.625C32.6366 99.7495 33.0874 98.8242 33.4139 97.8487C33.734 96.8594 33.8686 95.8322 33.8175 94.767C33.7802 93.6953 33.5058 92.6184 32.9943 91.5362C32.3598 90.1938 31.4943 89.1783 30.398 88.4899C29.3017 87.8015 28.0999 87.4394 26.7926 87.4037C25.4853 87.3681 24.1879 87.6545 22.9002 88.2632C21.7769 88.7941 20.8049 89.5385 19.9839 90.4963C19.163 91.4542 18.6396 92.5982 18.4136 93.9284C18.1877 95.2586 18.4019 96.7578 19.0564 98.426L13.8784 100.873C12.8872 98.493 12.5479 96.215 12.8603 94.0395C13.1864 91.8575 14.0463 89.9008 15.4401 88.1695C16.8476 86.4316 18.6609 85.0382 20.8801 83.9893C23.291 82.8497 25.6134 82.3385 27.8475 82.4557C30.0952 82.5663 32.1003 83.2274 33.8628 84.4389C35.639 85.6439 37.0322 87.3149 38.0423 89.4518C38.7545 90.9586 39.1659 92.4317 39.2764 93.871C39.4006 95.3038 39.2578 96.7036 38.8481 98.0704C38.452 99.4308 37.8261 100.766 36.9703 102.075C36.1209 103.398 35.5308 104.649 35.1997 105.828C34.8622 106.993 34.7978 108.222 35.0064 109.514C35.2151 110.807 35.7071 112.309 36.4826 114.02L36.5992 114.267L31.6678 116.598ZM40.0475 127.519C39.0338 127.998 37.9924 128.046 36.9232 127.663C35.8541 127.28 35.0799 126.582 34.6008 125.568C34.1216 124.555 34.0735 123.513 34.4563 122.444C34.8392 121.375 35.5374 120.601 36.5511 120.121C37.5648 119.642 38.6062 119.594 39.6754 119.977C40.7446 120.36 41.5187 121.058 41.9979 122.072C42.3151 122.743 42.4353 123.44 42.3583 124.164C42.295 124.881 42.0635 125.543 41.6637 126.151C41.2712 126.739 40.7324 127.195 40.0475 127.519Z" fill="white"/>
<path d="M147.973 214.068C147.973 214.068 146.914 216.874 133.003 208.419C119.093 199.963 78.4733 287.777 78.4733 287.777C65.9716 306.301 56.1837 312.383 35.8062 318.705L24.1112 314.291C23.7034 292.915 25.5015 281.156 39.7871 261.421L107.813 193.034L129.332 172.83L161.036 179.45C161.036 179.45 181.213 185.461 172.369 189.071C163.525 192.681 136.393 182.442 136.393 182.442L156.976 190.21L152.916 200.969L147.973 214.068Z" fill="white" stroke="#ADADAD"/>
<path fill-rule="evenodd" clip-rule="evenodd" d="M24.0617 308.896C24.113 290.799 26.7498 279.431 39.7871 261.421L62.3766 238.711C67.8816 245.918 71.0993 254.624 71.0993 264C71.0993 287.816 50.3371 307.31 24.0617 308.896Z" fill="#2D2145"/>
<defs>
<linearGradient id="paint0_linear_101_229" x1="130.902" y1="278.493" x2="130.769" y2="320.655" gradientUnits="userSpaceOnUse">
<stop stop-color="#F8D9AC"/>
<stop offset="1" stop-color="#FFE4BB" stop-opacity="0"/>
</linearGradient>
<linearGradient id="paint1_linear_101_229" x1="168.325" y1="329.15" x2="206.381" y2="347.299" gradientUnits="userSpaceOnUse">
<stop stop-color="#F8D9AC"/>
<stop offset="1" stop-color="#FFE4BB" stop-opacity="0"/>
</linearGradient>
</defs>
</svg>
