<svg width="499" height="589" viewBox="0 0 499 589" fill="none" xmlns="http://www.w3.org/2000/svg">
<g filter="url(#filter0_d_101_493)">
<path d="M222.293 492.981C222.293 421.546 143.559 345.513 235.244 349.897C243.814 350.307 229.199 311.667 239.529 316.443C308.054 348.123 235.981 288.791 259.221 312.347C267.679 320.92 266.339 324.653 271.994 338.434C278.235 353.641 330.77 344.785 336.579 366.526C340.305 380.473 303.584 411.933 298.594 438.751C293.243 467.512 308.357 489.154 308.357 503.675C308.357 597.078 301.929 548.5 253.546 548.5C205.163 548.5 222.293 586.383 222.293 492.981Z" fill="#E9994F" stroke="#E9994F" stroke-width="24" stroke-miterlimit="10" stroke-linejoin="round"/>
<path d="M276.463 200.558L327.075 167.146C327.075 167.146 327.908 180.201 323.437 196.999C318.966 213.797 310.077 228.569 310.077 228.569L276.463 200.558Z" fill="#B1777B" stroke="#E7944A" stroke-width="17.0485" stroke-miterlimit="10" stroke-linejoin="round"/>
<path d="M218.82 197.587L176.898 168.414C176.898 168.414 177.633 188.631 181.161 206.798C184.689 224.965 194.985 235.888 194.985 235.888L218.82 197.587Z" fill="#B1777B" stroke="#E9994F" stroke-width="16.4976" stroke-miterlimit="10" stroke-linejoin="round"/>
<path fill-rule="evenodd" clip-rule="evenodd" d="M178.858 256.434C174.785 263.553 171.018 270.138 174.838 278.357C176.522 281.98 178.455 285.572 180.63 289.076C180.272 289.054 179.914 289.03 179.557 289.004C178.101 288.895 176.822 289.986 176.713 291.442C176.604 292.897 177.695 294.176 179.151 294.285C179.872 294.341 180.61 294.382 181.356 294.423L181.357 294.423C182.342 294.478 183.34 294.533 184.335 294.625C192.517 306.037 203.391 316.092 216.671 322.581C216.629 322.604 216.587 322.627 216.545 322.65L216.544 322.651C215.469 323.247 214.393 323.843 213.588 324.817C212.666 325.931 212.086 327.526 213.307 328.661C214.308 329.591 215.826 329.159 216.976 328.831L217.025 328.817C217.087 328.8 217.148 328.778 217.208 328.756L217.209 328.756C217.272 328.733 217.336 328.71 217.401 328.692C217.476 328.703 217.541 328.721 217.607 328.739C217.67 328.756 217.734 328.773 217.807 328.785C219.878 329.118 221.966 329.159 223.967 328.78C223.97 328.875 223.973 328.968 223.976 329.062C223.997 329.671 224.016 330.262 223.963 330.785C223.909 331.306 223.732 331.853 223.567 332.367L223.567 332.367C223.531 332.477 223.496 332.586 223.463 332.692C223.188 333.573 222.899 334.451 222.611 335.329L222.611 335.329L222.611 335.329C222.52 335.607 222.428 335.884 222.338 336.161C222.238 336.465 222.096 336.77 221.953 337.077C221.612 337.807 221.264 338.554 221.463 339.348C221.589 339.852 221.894 340.296 222.338 340.567C222.358 340.579 222.683 340.726 222.775 340.754C222.782 340.756 222.797 340.764 222.811 340.772L222.812 340.772C222.825 340.78 222.837 340.786 222.838 340.785C222.839 340.78 222.839 340.775 222.838 340.77C222.837 340.764 222.836 340.759 222.838 340.754C222.891 340.782 223.162 340.845 223.401 340.848C224.944 340.866 225.847 339.087 226.446 337.908L226.525 337.754C227.357 336.127 227.308 335.478 227.158 333.471L227.151 333.379C227.206 333.199 227.265 333.02 227.324 332.841L227.324 332.84C227.503 332.294 227.683 331.748 227.744 331.192C227.815 330.548 227.776 329.902 227.737 329.256C227.701 328.67 227.666 328.085 227.713 327.504C227.793 327.46 227.871 327.413 227.945 327.361C228.079 327.287 228.212 327.21 228.343 327.131C235.073 329.125 242.297 330.23 249.988 330.23C271.325 330.23 300.639 309.856 315.328 295.31C318.584 292.086 329.045 291.342 329.045 291.342C329.045 291.342 316.87 281.861 319.29 277.553C321.033 274.45 334.197 277.94 334.197 277.94C334.197 277.94 327.497 267.408 325.929 263.955C325.02 261.953 323.746 260.087 322.403 258.122C319.994 254.594 317.365 250.744 316.23 245.205C314.681 237.646 314.962 232.619 315.176 228.806C315.356 225.583 315.488 223.228 314.424 220.947C308.173 207.542 287.79 194.029 274.015 188.791C272.763 188.315 270.123 185.086 266.835 181.063C260.797 173.676 252.571 163.612 246.727 163C246.727 163 250.928 191.726 246.551 189.516C243.591 188.021 240.331 185.9 237.042 183.759L237.041 183.759C230.318 179.383 223.468 174.925 218.785 175.565C218.785 175.565 236.696 186.526 226.55 190.319C211.671 195.881 190.621 208.437 183.953 221.703C182.893 223.813 183.479 226.194 184.21 229.162C185.182 233.107 186.409 238.089 184.36 244.847C183.089 249.04 180.934 252.806 178.858 256.434ZM365.146 486.261L354.6 415H313.146L329.994 482.535V542.985L336.523 567L365.146 486.261ZM280.838 321.348C279.806 321.485 279.107 322.442 279.244 323.473C279.547 325.803 279.858 328.129 280.169 330.456C280.33 331.659 280.491 332.863 280.651 334.067C280.8 335.156 281.811 335.935 282.901 335.785C283.989 335.636 284.737 334.625 284.588 333.535C284.353 331.87 284.084 330.208 283.816 328.546L283.816 328.546L283.816 328.545L283.816 328.545C283.516 326.689 283.216 324.834 282.963 322.973C282.826 321.941 281.87 321.211 280.838 321.348Z" fill="#E9994F"/>
<path d="M174.838 278.357L171.945 279.701L171.945 279.702L174.838 278.357ZM178.858 256.434L181.627 258.018L181.627 258.018L178.858 256.434ZM180.63 289.076L180.434 292.259C181.625 292.333 182.757 291.735 183.369 290.711C183.98 289.687 183.969 288.407 183.34 287.393L180.63 289.076ZM179.557 289.004L179.319 292.185L179.325 292.185L179.557 289.004ZM176.713 291.442L179.894 291.68L179.894 291.68L176.713 291.442ZM179.151 294.285L179.396 291.105L179.389 291.104L179.151 294.285ZM181.356 294.423L181.594 291.242C181.574 291.241 181.553 291.239 181.533 291.238L181.356 294.423ZM181.357 294.423L181.119 297.604C181.139 297.606 181.16 297.607 181.18 297.608L181.357 294.423ZM184.335 294.625L186.927 292.766C186.388 292.014 185.548 291.533 184.626 291.448L184.335 294.625ZM216.671 322.581L218.219 325.37C219.258 324.793 219.891 323.686 219.859 322.497C219.828 321.309 219.139 320.237 218.071 319.715L216.671 322.581ZM216.545 322.65L214.999 319.861C214.978 319.872 214.958 319.883 214.938 319.895L216.545 322.65ZM216.544 322.651L218.091 325.441C218.111 325.429 218.132 325.418 218.152 325.406L216.544 322.651ZM213.588 324.817L216.045 326.851L216.046 326.85L213.588 324.817ZM213.307 328.661L211.135 330.997L211.136 330.998L213.307 328.661ZM216.976 328.831L216.103 325.763L216.103 325.763L216.976 328.831ZM217.025 328.817L216.155 325.748L216.152 325.749L217.025 328.817ZM217.208 328.756L216.248 325.714C216.208 325.727 216.168 325.74 216.129 325.754L217.208 328.756ZM217.209 328.756L218.169 331.798C218.209 331.785 218.248 331.772 218.288 331.758L217.209 328.756ZM217.401 328.692L217.855 325.535C217.42 325.472 216.977 325.5 216.554 325.617L217.401 328.692ZM217.607 328.739L218.449 325.662L218.449 325.662L217.607 328.739ZM217.807 328.785L218.314 325.636L218.311 325.635L217.807 328.785ZM223.967 328.78L227.155 328.682C227.126 327.75 226.691 326.877 225.964 326.293C225.237 325.709 224.291 325.473 223.375 325.646L223.967 328.78ZM223.976 329.062L220.788 329.169L220.788 329.169L223.976 329.062ZM223.963 330.785L227.136 331.111L227.136 331.11L223.963 330.785ZM223.567 332.367L226.583 333.403C226.59 333.385 226.596 333.366 226.602 333.347L223.567 332.367ZM223.567 332.367L220.55 331.33C220.544 331.349 220.537 331.368 220.531 331.387L223.567 332.367ZM223.463 332.692L220.418 331.741L220.418 331.742L223.463 332.692ZM222.611 335.329L219.58 334.333C219.576 334.348 219.571 334.363 219.566 334.378L222.611 335.329ZM222.611 335.329L225.641 336.326C225.646 336.311 225.651 336.296 225.655 336.281L222.611 335.329ZM222.611 335.329L219.581 334.333L219.58 334.334L222.611 335.329ZM222.338 336.161L219.306 335.169L219.306 335.171L222.338 336.161ZM221.953 337.077L224.844 338.426L224.844 338.425L221.953 337.077ZM221.463 339.348L218.368 340.121L218.368 340.122L221.463 339.348ZM222.338 340.567L220.676 343.29C220.683 343.294 220.689 343.298 220.696 343.302L222.338 340.567ZM222.775 340.754L221.846 343.805C221.864 343.811 221.883 343.816 221.901 343.822L222.775 340.754ZM222.811 340.772L221.272 343.566C221.309 343.586 221.347 343.606 221.385 343.625L222.811 340.772ZM222.812 340.772L224.349 337.977C224.312 337.957 224.275 337.938 224.238 337.919L222.812 340.772ZM222.838 340.785L225.862 341.798L225.863 341.795L222.838 340.785ZM222.838 340.77L225.997 340.33L225.997 340.329L222.838 340.77ZM222.838 340.754L224.328 337.933C223.484 337.488 222.485 337.443 221.605 337.812C220.725 338.18 220.057 338.923 219.783 339.837L222.838 340.754ZM223.401 340.848L223.361 344.037L223.363 344.037L223.401 340.848ZM226.446 337.908L223.603 336.461L223.602 336.463L226.446 337.908ZM226.525 337.754L223.685 336.301L223.682 336.307L226.525 337.754ZM227.158 333.471L223.977 333.71L223.977 333.71L227.158 333.471ZM227.151 333.379L224.1 332.448C223.984 332.827 223.94 333.223 223.97 333.618L227.151 333.379ZM227.324 332.841L224.337 331.721C224.322 331.761 224.307 331.802 224.293 331.844L227.324 332.841ZM227.324 332.84L230.31 333.96C230.326 333.92 230.34 333.878 230.354 333.837L227.324 332.84ZM227.744 331.192L224.573 330.843L224.573 330.844L227.744 331.192ZM227.737 329.256L230.921 329.064L230.921 329.064L227.737 329.256ZM227.713 327.504L226.194 324.699C225.245 325.213 224.619 326.173 224.533 327.249L227.713 327.504ZM227.945 327.361L226.399 324.571C226.306 324.623 226.214 324.68 226.126 324.741L227.945 327.361ZM228.343 327.131L229.249 324.073C228.39 323.818 227.464 323.937 226.697 324.399L228.343 327.131ZM315.328 295.31L313.083 293.043L313.083 293.043L315.328 295.31ZM329.045 291.342L329.271 294.524C330.589 294.43 331.712 293.534 332.097 292.27C332.481 291.007 332.047 289.637 331.005 288.825L329.045 291.342ZM319.29 277.553L322.071 279.115L322.071 279.115L319.29 277.553ZM334.197 277.94L333.379 281.023C334.649 281.36 335.995 280.884 336.771 279.824C337.547 278.763 337.593 277.336 336.888 276.228L334.197 277.94ZM325.929 263.955L328.833 262.636L328.833 262.636L325.929 263.955ZM322.403 258.122L319.769 259.921L319.769 259.921L322.403 258.122ZM316.23 245.205L313.105 245.845L313.105 245.846L316.23 245.205ZM315.176 228.806L311.991 228.628L311.991 228.628L315.176 228.806ZM314.424 220.947L311.533 222.295L311.533 222.295L314.424 220.947ZM274.015 188.791L272.881 191.772L272.881 191.773L274.015 188.791ZM266.835 181.063L269.305 179.044L269.305 179.044L266.835 181.063ZM246.727 163L247.059 159.828C246.08 159.725 245.108 160.08 244.426 160.791C243.744 161.501 243.428 162.487 243.571 163.462L246.727 163ZM246.551 189.516L247.989 186.669L247.989 186.669L246.551 189.516ZM237.042 183.759L238.781 181.086C238.765 181.075 238.749 181.065 238.732 181.054L237.042 183.759ZM237.041 183.759L235.302 186.433C235.318 186.443 235.334 186.454 235.351 186.464L237.041 183.759ZM218.785 175.565L218.353 172.405C217.017 172.587 215.94 173.59 215.663 174.91C215.386 176.23 215.97 177.582 217.12 178.286L218.785 175.565ZM226.55 190.319L227.667 193.307L227.667 193.307L226.55 190.319ZM183.953 221.703L181.103 220.27L181.103 220.271L183.953 221.703ZM184.21 229.162L181.113 229.924L181.113 229.924L184.21 229.162ZM184.36 244.847L181.307 243.922L181.307 243.922L184.36 244.847ZM354.6 415L357.756 414.533C357.524 412.969 356.182 411.81 354.6 411.81V415ZM365.146 486.261L368.152 487.327C368.326 486.836 368.378 486.31 368.301 485.794L365.146 486.261ZM313.146 415V411.81C312.164 411.81 311.237 412.262 310.632 413.036C310.028 413.81 309.813 414.819 310.051 415.772L313.146 415ZM329.994 482.535H333.184C333.184 482.275 333.152 482.015 333.089 481.763L329.994 482.535ZM329.994 542.985H326.805C326.805 543.268 326.842 543.549 326.916 543.822L329.994 542.985ZM336.523 567L333.444 567.837C333.81 569.183 335.009 570.135 336.403 570.188C337.796 570.24 339.063 569.381 339.529 568.066L336.523 567ZM279.244 323.473L282.407 323.061L282.406 323.053L279.244 323.473ZM280.838 321.348L281.258 324.51L281.258 324.51L280.838 321.348ZM280.169 330.456L277.008 330.879L277.008 330.879L280.169 330.456ZM280.651 334.067L277.489 334.487L277.49 334.499L280.651 334.067ZM282.901 335.785L282.468 332.625L282.466 332.625L282.901 335.785ZM284.588 333.535L287.748 333.103C287.748 333.098 287.747 333.094 287.746 333.089L284.588 333.535ZM283.816 328.546L286.965 328.038C286.964 328.033 286.963 328.027 286.962 328.022L283.816 328.546ZM283.816 328.546L280.661 329.019C280.664 329.036 280.667 329.053 280.669 329.07L283.816 328.546ZM283.816 328.545L280.66 329.007L280.661 329.019L283.816 328.545ZM283.816 328.545L286.972 328.083C286.97 328.067 286.967 328.052 286.965 328.036L283.816 328.545ZM282.963 322.973L279.801 323.393L279.802 323.404L282.963 322.973ZM177.73 277.013C174.698 270.487 177.423 265.365 181.627 258.018L176.089 254.85C172.147 261.741 167.338 269.788 171.945 279.701L177.73 277.013ZM183.34 287.393C181.234 284 179.361 280.521 177.73 277.012L171.945 279.702C173.683 283.439 175.677 287.144 177.92 290.758L183.34 287.393ZM179.325 292.185C179.697 292.213 180.068 292.237 180.434 292.259L180.825 285.892C180.476 285.87 180.131 285.848 179.789 285.823L179.325 292.185ZM179.894 291.68C179.87 291.997 179.603 292.206 179.319 292.185L179.795 285.823C176.599 285.584 173.774 287.975 173.532 291.204L179.894 291.68ZM179.389 291.104C179.705 291.128 179.915 291.394 179.894 291.68L173.532 291.204C173.293 294.4 175.684 297.224 178.913 297.466L179.389 291.104ZM181.533 291.238C180.781 291.197 180.078 291.157 179.396 291.105L178.905 297.465C179.667 297.524 180.44 297.567 181.179 297.608L181.533 291.238ZM181.595 291.242L181.594 291.242L181.118 297.604L181.119 297.604L181.595 291.242ZM184.626 291.448C183.565 291.351 182.509 291.293 181.534 291.238L181.18 297.608C182.174 297.663 183.116 297.716 184.044 297.801L184.626 291.448ZM218.071 319.715C205.341 313.495 194.855 303.822 186.927 292.766L181.743 296.483C190.18 308.251 201.44 318.69 215.27 325.447L218.071 319.715ZM218.091 325.44C218.134 325.417 218.176 325.393 218.219 325.37L215.123 319.792C215.081 319.815 215.04 319.838 214.999 319.861L218.091 325.44ZM218.152 325.406L218.152 325.406L214.938 319.895L214.937 319.896L218.152 325.406ZM216.046 326.85C216.405 326.416 216.929 326.085 218.091 325.441L214.998 319.861C214.008 320.41 212.381 321.271 211.13 322.784L216.046 326.85ZM215.479 326.325C215.554 326.395 215.675 326.549 215.748 326.779C215.817 326.997 215.805 327.164 215.794 327.23C215.785 327.286 215.779 327.267 215.826 327.176C215.871 327.087 215.944 326.973 216.045 326.851L211.13 322.783C210.448 323.608 209.72 324.802 209.493 326.233C209.24 327.829 209.653 329.62 211.135 330.997L215.479 326.325ZM216.103 325.763C215.803 325.848 215.576 325.912 215.357 325.962C215.141 326.01 215.004 326.028 214.924 326.032C214.845 326.036 214.889 326.023 215.008 326.057C215.149 326.096 215.325 326.182 215.478 326.324L211.136 330.998C212.494 332.26 214.106 332.461 215.247 332.403C216.321 332.349 217.34 332.044 217.85 331.899L216.103 325.763ZM216.152 325.749L216.103 325.763L217.849 331.899L217.898 331.885L216.152 325.749ZM216.129 325.754C216.121 325.757 216.115 325.759 216.109 325.761C216.104 325.763 216.1 325.765 216.096 325.766C216.089 325.768 216.088 325.769 216.089 325.768C216.091 325.768 216.098 325.765 216.109 325.762C216.119 325.759 216.135 325.754 216.155 325.748L217.895 331.886C218.08 331.833 218.244 331.773 218.288 331.757L216.129 325.754ZM216.248 325.714L216.248 325.714L218.169 331.798L218.169 331.798L216.248 325.714ZM216.554 325.617C216.352 325.673 216.173 325.738 216.13 325.754L218.288 331.758C218.305 331.751 218.314 331.748 218.321 331.746C218.328 331.743 218.329 331.743 218.326 331.744C218.323 331.745 218.315 331.748 218.302 331.752C218.289 331.756 218.271 331.761 218.248 331.767L216.554 325.617ZM218.449 325.662C218.399 325.649 218.153 325.578 217.855 325.535L216.947 331.85C216.866 331.838 216.804 331.824 216.77 331.816C216.753 331.812 216.743 331.81 216.743 331.809C216.742 331.809 216.744 331.81 216.748 331.811C216.752 331.812 216.757 331.813 216.766 331.816L218.449 325.662ZM218.311 325.635C218.376 325.646 218.426 325.657 218.453 325.664C218.466 325.667 218.474 325.669 218.473 325.669C218.471 325.668 218.466 325.667 218.449 325.662L216.766 331.816C216.816 331.83 217.036 331.892 217.303 331.935L218.311 325.635ZM223.375 325.646C221.809 325.942 220.1 325.923 218.314 325.636L217.3 331.934C219.655 332.313 222.124 332.375 224.559 331.915L223.375 325.646ZM227.164 328.955C227.161 328.861 227.158 328.771 227.155 328.682L220.779 328.879C220.782 328.978 220.785 329.076 220.788 329.169L227.164 328.955ZM227.136 331.11C227.216 330.329 227.183 329.507 227.164 328.955L220.788 329.169C220.811 329.835 220.817 330.194 220.79 330.46L227.136 331.11ZM226.602 333.347C226.745 332.906 227.042 332.028 227.136 331.111L220.79 330.459C220.777 330.584 220.72 330.801 220.531 331.386L226.602 333.347ZM226.583 333.404L226.583 333.403L220.55 331.33L220.55 331.33L226.583 333.404ZM226.508 333.643C226.535 333.554 226.566 333.46 226.602 333.347L220.531 331.387C220.496 331.494 220.457 331.617 220.418 331.741L226.508 333.643ZM225.641 336.325C225.928 335.451 226.224 334.55 226.508 333.642L220.418 331.742C220.151 332.597 219.87 333.451 219.58 334.333L225.641 336.325ZM225.655 336.281L225.655 336.28L219.566 334.378L219.566 334.378L225.655 336.281ZM225.641 336.326L225.641 336.326L219.581 334.332L219.581 334.333L225.641 336.326ZM225.37 337.152C225.459 336.878 225.55 336.603 225.641 336.325L219.58 334.334C219.489 334.61 219.398 334.89 219.306 335.169L225.37 337.152ZM224.844 338.425C224.97 338.154 225.2 337.671 225.37 337.151L219.306 335.171C219.277 335.259 219.223 335.385 219.062 335.729L224.844 338.425ZM224.558 338.575C224.591 338.71 224.598 338.833 224.593 338.926C224.589 339.014 224.575 339.058 224.579 339.042C224.584 339.024 224.601 338.97 224.647 338.859C224.696 338.743 224.754 338.618 224.844 338.426L219.062 335.729C218.827 336.232 217.849 338.043 218.368 340.121L224.558 338.575ZM224 337.844C224.335 338.049 224.499 338.342 224.557 338.574L218.368 340.122C218.678 341.362 219.453 342.543 220.676 343.29L224 337.844ZM223.704 337.702C223.755 337.718 223.793 337.731 223.814 337.738C223.836 337.746 223.853 337.752 223.861 337.756C223.878 337.762 223.885 337.765 223.88 337.763C223.868 337.758 223.844 337.748 223.81 337.733C223.777 337.719 223.748 337.705 223.73 337.697C223.72 337.693 223.721 337.693 223.729 337.697C223.732 337.698 223.746 337.705 223.767 337.715C223.776 337.72 223.796 337.73 223.821 337.743C223.834 337.75 223.853 337.76 223.876 337.772C223.896 337.784 223.934 337.805 223.98 337.832L220.696 343.302C220.777 343.35 220.843 343.385 220.86 343.394C220.887 343.408 220.91 343.419 220.923 343.426C220.951 343.44 220.974 343.451 220.988 343.458C221.018 343.472 221.048 343.486 221.073 343.497C221.125 343.521 221.186 343.548 221.249 343.576C221.285 343.592 221.581 343.725 221.846 343.805L223.704 337.702ZM224.351 337.978C224.348 337.977 224.335 337.97 224.321 337.962C224.306 337.954 224.28 337.94 224.249 337.924C224.22 337.909 224.164 337.881 224.094 337.849C224.048 337.829 223.877 337.751 223.648 337.686L221.901 343.822C221.773 343.785 221.673 343.748 221.616 343.725C221.554 343.701 221.503 343.679 221.47 343.664C221.404 343.634 221.354 343.609 221.332 343.598C221.291 343.576 221.257 343.558 221.272 343.566L224.351 337.978ZM224.238 337.919L224.238 337.919L221.385 343.625L221.385 343.625L224.238 337.919ZM219.813 339.772C220.253 338.459 221.327 337.884 222.026 337.7C222.614 337.545 223.095 337.602 223.256 337.623C223.628 337.672 223.904 337.779 223.954 337.797C224.125 337.861 224.252 337.927 224.265 337.933C224.323 337.963 224.375 337.992 224.349 337.977L221.274 343.567C221.276 343.568 221.289 343.575 221.304 343.583C221.317 343.59 221.351 343.609 221.395 343.631C221.412 343.639 221.543 343.707 221.717 343.772C221.768 343.791 222.046 343.898 222.418 343.947C222.58 343.969 223.06 344.025 223.649 343.87C224.349 343.686 225.422 343.111 225.862 341.798L219.813 339.772ZM219.679 341.21C219.684 341.247 219.658 341.081 219.651 340.889C219.644 340.681 219.648 340.266 219.812 339.775L225.863 341.795C226.029 341.299 226.034 340.879 226.026 340.666C226.023 340.553 226.013 340.463 226.008 340.412C226.005 340.386 226.002 340.364 226 340.351C225.999 340.344 225.998 340.339 225.998 340.336C225.998 340.334 225.997 340.332 225.997 340.332C225.997 340.331 225.997 340.33 225.997 340.33L219.679 341.21ZM219.783 339.837C219.647 340.288 219.642 340.669 219.649 340.879C219.653 340.988 219.662 341.076 219.668 341.127C219.671 341.154 219.674 341.175 219.676 341.189C219.677 341.195 219.677 341.201 219.678 341.204C219.678 341.206 219.678 341.208 219.678 341.209C219.678 341.21 219.679 341.21 219.679 341.21L225.997 340.329C225.993 340.297 226.018 340.457 226.025 340.644C226.032 340.85 226.027 341.225 225.893 341.67L219.783 339.837ZM223.441 337.658C223.558 337.66 223.622 337.672 223.64 337.676C223.655 337.678 223.691 337.685 223.747 337.701C223.774 337.708 223.827 337.723 223.895 337.746C223.93 337.758 223.982 337.776 224.044 337.802C224.101 337.824 224.203 337.868 224.328 337.933L221.348 343.574C221.71 343.766 222.052 343.851 222.082 343.859C222.212 343.894 222.34 343.923 222.459 343.945C222.685 343.988 223.004 344.033 223.361 344.037L223.441 337.658ZM223.602 336.463C223.448 336.767 223.318 337.022 223.177 337.265C223.036 337.507 222.921 337.673 222.832 337.78C222.739 337.89 222.732 337.868 222.828 337.811C222.953 337.738 223.172 337.655 223.438 337.658L223.363 344.037C225.512 344.063 226.948 342.801 227.724 341.874C228.49 340.959 229.02 339.885 229.29 339.352L223.602 336.463ZM223.682 336.307L223.603 336.461L229.289 339.354L229.368 339.2L223.682 336.307ZM223.977 333.71C224.06 334.817 224.071 335.136 224.042 335.38C224.03 335.484 224.005 335.676 223.685 336.301L229.365 339.206C229.877 338.205 230.244 337.258 230.378 336.13C230.495 335.141 230.406 334.132 230.339 333.232L223.977 333.71ZM223.97 333.618L223.977 333.71L230.339 333.233L230.332 333.14L223.97 333.618ZM224.293 331.844C224.236 332.018 224.166 332.23 224.1 332.448L230.202 334.309C230.245 334.168 230.293 334.022 230.354 333.837L224.293 331.844ZM224.337 331.72L224.337 331.721L230.31 333.961L230.31 333.96L224.337 331.72ZM224.573 330.844C224.555 331.011 224.493 331.237 224.294 331.844L230.354 333.837C230.513 333.351 230.811 332.485 230.915 331.539L224.573 330.844ZM224.553 329.448C224.594 330.14 224.609 330.514 224.573 330.843L230.914 331.541C231.02 330.582 230.957 329.664 230.921 329.064L224.553 329.448ZM224.533 327.249C224.466 328.091 224.52 328.901 224.553 329.448L230.921 329.064C230.883 328.44 230.867 328.08 230.892 327.759L224.533 327.249ZM226.126 324.741C226.153 324.722 226.176 324.709 226.194 324.699L229.231 330.309C229.411 330.212 229.589 330.103 229.764 329.981L226.126 324.741ZM226.697 324.399C226.598 324.459 226.499 324.516 226.399 324.571L229.492 330.151C229.659 330.058 229.825 329.962 229.99 329.863L226.697 324.399ZM249.988 327.04C242.606 327.04 235.687 325.98 229.249 324.073L227.437 330.189C234.459 332.27 241.988 333.42 249.988 333.42V327.04ZM313.083 293.043C305.927 300.13 295.14 308.695 283.542 315.47C271.854 322.298 259.794 327.04 249.988 327.04V333.42C261.519 333.42 274.784 327.975 286.76 320.979C298.825 313.931 310.039 305.036 317.572 297.577L313.083 293.043ZM329.045 291.342C328.819 288.16 328.818 288.16 328.818 288.16C328.817 288.16 328.817 288.16 328.816 288.16C328.815 288.16 328.814 288.161 328.813 288.161C328.811 288.161 328.808 288.161 328.804 288.161C328.796 288.162 328.786 288.163 328.774 288.164C328.749 288.165 328.714 288.168 328.67 288.172C328.583 288.179 328.457 288.189 328.3 288.204C327.984 288.232 327.536 288.277 326.99 288.34C325.904 288.467 324.41 288.672 322.797 288.986C321.196 289.298 319.407 289.731 317.755 290.332C316.17 290.908 314.388 291.751 313.083 293.043L317.572 297.577C317.895 297.257 318.642 296.798 319.935 296.328C321.16 295.882 322.596 295.525 324.018 295.248C325.427 294.973 326.752 294.791 327.728 294.677C328.215 294.62 328.609 294.581 328.878 294.557C329.013 294.545 329.116 294.536 329.183 294.531C329.216 294.528 329.241 294.526 329.256 294.525C329.263 294.524 329.268 294.524 329.271 294.524C329.272 294.524 329.273 294.524 329.273 294.524C329.273 294.524 329.273 294.524 329.272 294.524C329.272 294.524 329.272 294.524 329.272 294.524C329.272 294.524 329.271 294.524 329.045 291.342ZM316.509 275.991C315.047 278.593 316.083 281.355 316.982 283.032C317.98 284.894 319.498 286.723 320.938 288.251C322.408 289.81 323.94 291.206 325.092 292.204C325.671 292.706 326.161 293.114 326.51 293.398C326.685 293.541 326.825 293.652 326.922 293.73C326.971 293.769 327.01 293.8 327.037 293.821C327.051 293.832 327.062 293.841 327.07 293.847C327.074 293.85 327.077 293.853 327.08 293.855C327.081 293.856 327.082 293.856 327.083 293.857C327.083 293.857 327.084 293.858 327.084 293.858C327.085 293.858 327.085 293.859 329.045 291.342C331.005 288.825 331.005 288.826 331.005 288.826C331.005 288.826 331.006 288.826 331.006 288.826C331.006 288.826 331.006 288.826 331.006 288.826C331.005 288.826 331.004 288.825 331.002 288.823C330.998 288.82 330.992 288.815 330.983 288.808C330.964 288.793 330.935 288.77 330.895 288.739C330.816 288.675 330.696 288.58 330.542 288.454C330.235 288.204 329.793 287.837 329.269 287.382C328.213 286.468 326.853 285.225 325.581 283.875C324.28 282.495 323.209 281.145 322.605 280.018C321.901 278.706 322.323 278.667 322.071 279.115L316.509 275.991ZM334.197 277.94C335.014 274.857 335.014 274.857 335.013 274.856C335.013 274.856 335.013 274.856 335.012 274.856C335.011 274.856 335.01 274.856 335.009 274.855C335.006 274.855 335.003 274.854 334.999 274.853C334.99 274.85 334.979 274.847 334.964 274.844C334.935 274.836 334.893 274.825 334.84 274.812C334.734 274.784 334.582 274.746 334.39 274.699C334.006 274.604 333.46 274.474 332.801 274.329C331.49 274.039 329.701 273.681 327.833 273.423C326.002 273.17 323.933 272.989 322.12 273.123C321.217 273.19 320.219 273.344 319.291 273.7C318.373 274.051 317.225 274.717 316.509 275.991L322.071 279.115C321.791 279.614 321.435 279.71 321.571 279.658C321.696 279.61 322.013 279.528 322.589 279.486C323.735 279.401 325.283 279.511 326.961 279.743C328.602 279.969 330.212 280.29 331.425 280.558C332.027 280.691 332.523 280.809 332.866 280.894C333.037 280.936 333.17 280.969 333.257 280.992C333.301 281.003 333.334 281.011 333.354 281.017C333.365 281.019 333.372 281.021 333.376 281.022C333.378 281.023 333.38 281.023 333.38 281.023C333.38 281.024 333.38 281.024 333.38 281.024C333.38 281.024 333.38 281.023 333.38 281.023C333.38 281.023 333.379 281.023 334.197 277.94ZM323.024 265.274C323.906 267.216 326.092 270.896 327.928 273.905C328.872 275.451 329.766 276.886 330.423 277.934C330.751 278.459 331.021 278.887 331.209 279.185C331.304 279.334 331.377 279.45 331.427 279.529C331.453 279.569 331.472 279.599 331.485 279.62C331.492 279.63 331.497 279.638 331.5 279.644C331.502 279.646 331.503 279.648 331.504 279.65C331.504 279.65 331.505 279.651 331.505 279.651C331.505 279.652 331.505 279.652 331.505 279.652C331.505 279.652 331.506 279.652 334.197 277.94C336.888 276.228 336.888 276.228 336.888 276.228C336.888 276.228 336.888 276.228 336.888 276.228C336.888 276.227 336.888 276.227 336.887 276.226C336.887 276.225 336.885 276.224 336.884 276.221C336.881 276.216 336.876 276.209 336.87 276.199C336.858 276.18 336.839 276.151 336.815 276.113C336.766 276.036 336.695 275.922 336.602 275.777C336.418 275.485 336.152 275.063 335.828 274.547C335.18 273.512 334.301 272.099 333.373 270.58C331.468 267.46 329.519 264.147 328.833 262.636L323.024 265.274ZM319.769 259.921C321.143 261.933 322.25 263.568 323.025 265.274L328.833 262.636C327.789 260.338 326.348 258.242 325.038 256.323L319.769 259.921ZM313.105 245.846C314.383 252.078 317.365 256.4 319.769 259.921L325.038 256.323C322.623 252.787 320.348 249.409 319.355 244.564L313.105 245.846ZM311.991 228.628C311.772 232.533 311.474 237.884 313.105 245.845L319.355 244.565C317.889 237.409 318.152 232.704 318.36 228.984L311.991 228.628ZM311.533 222.295C312.197 223.718 312.182 225.218 311.991 228.628L318.36 228.984C318.53 225.948 318.779 222.738 317.315 219.599L311.533 222.295ZM272.881 191.773C279.46 194.274 287.739 198.808 295.125 204.357C302.573 209.952 308.737 216.299 311.533 222.295L317.315 219.599C313.86 212.19 306.707 205.078 298.957 199.256C291.144 193.387 282.344 188.546 275.149 185.809L272.881 191.773ZM264.365 183.082C265.993 185.073 267.526 186.95 268.813 188.386C269.456 189.104 270.089 189.769 270.679 190.307C271.189 190.771 271.965 191.424 272.881 191.772L275.149 185.81C275.438 185.92 275.415 185.991 274.975 185.59C274.616 185.263 274.148 184.78 273.564 184.128C272.396 182.825 270.966 181.076 269.305 179.044L264.365 183.082ZM246.394 166.172C247.096 166.246 248.189 166.66 249.694 167.681C251.155 168.673 252.763 170.069 254.461 171.755C257.864 175.133 261.324 179.36 264.365 183.082L269.305 179.044C266.309 175.379 262.637 170.881 258.956 167.227C257.112 165.398 255.191 163.701 253.276 162.402C251.407 161.134 249.28 160.06 247.059 159.828L246.394 166.172ZM245.113 192.363C245.988 192.805 247.229 193.067 248.52 192.519C249.68 192.027 250.311 191.113 250.634 190.504C251.255 189.331 251.486 187.84 251.601 186.601C251.849 183.937 251.715 180.329 251.462 176.855C251.205 173.33 250.81 169.752 250.481 167.066C250.316 165.721 250.167 164.593 250.059 163.8C250.005 163.403 249.962 163.09 249.931 162.875C249.916 162.768 249.904 162.685 249.896 162.628C249.892 162.599 249.889 162.578 249.887 162.563C249.886 162.555 249.885 162.549 249.884 162.545C249.884 162.543 249.884 162.542 249.883 162.541C249.883 162.54 249.883 162.539 249.883 162.539C249.883 162.539 249.883 162.538 246.727 163C243.571 163.462 243.571 163.461 243.571 163.461C243.571 163.462 243.571 163.462 243.571 163.462C243.571 163.463 243.571 163.464 243.571 163.465C243.572 163.468 243.572 163.473 243.573 163.479C243.575 163.492 243.578 163.511 243.582 163.537C243.589 163.589 243.6 163.667 243.615 163.769C243.644 163.974 243.686 164.276 243.738 164.66C243.843 165.43 243.988 166.529 244.149 167.842C244.471 170.473 244.853 173.938 245.099 177.319C245.349 180.75 245.444 183.909 245.249 186.01C245.142 187.153 244.983 187.544 244.996 187.518C245.015 187.483 245.288 186.96 246.028 186.646C246.9 186.276 247.661 186.503 247.989 186.669L245.113 192.363ZM235.302 186.433C238.549 188.546 241.965 190.774 245.113 192.363L247.989 186.669C245.216 185.269 242.113 183.254 238.781 181.086L235.302 186.433ZM235.351 186.464L235.351 186.464L238.732 181.054L238.732 181.054L235.351 186.464ZM219.217 178.725C220.522 178.547 222.64 179.082 225.712 180.63C228.663 182.116 231.9 184.219 235.302 186.433L238.781 181.086C235.459 178.924 231.91 176.609 228.583 174.933C225.379 173.318 221.731 171.943 218.353 172.405L219.217 178.725ZM227.667 193.307C229.273 192.706 230.731 191.819 231.71 190.47C232.755 189.031 233.009 187.408 232.766 185.904C232.338 183.26 230.369 180.908 228.729 179.266C226.946 177.48 224.865 175.875 223.28 174.742C222.477 174.168 221.78 173.7 221.28 173.373C221.029 173.21 220.828 173.081 220.686 172.991C220.615 172.947 220.559 172.912 220.519 172.887C220.499 172.874 220.483 172.865 220.472 172.858C220.466 172.854 220.461 172.851 220.458 172.849C220.456 172.848 220.454 172.847 220.453 172.846C220.452 172.846 220.452 172.845 220.451 172.845C220.451 172.845 220.45 172.844 218.785 175.565C217.12 178.286 217.119 178.285 217.119 178.285C217.119 178.285 217.119 178.285 217.119 178.285C217.118 178.285 217.118 178.285 217.119 178.285C217.119 178.286 217.121 178.287 217.124 178.288C217.13 178.292 217.139 178.298 217.153 178.306C217.18 178.323 217.224 178.35 217.281 178.387C217.397 178.46 217.57 178.57 217.79 178.714C218.23 179.001 218.852 179.419 219.57 179.932C221.026 180.973 222.788 182.345 224.215 183.773C225.785 185.346 226.391 186.445 226.468 186.923C226.477 186.98 226.466 186.835 226.548 186.722C226.565 186.698 226.363 186.983 225.433 187.331L227.667 193.307ZM186.803 223.136C189.775 217.222 196.175 211.138 203.984 205.747C211.718 200.408 220.466 195.999 227.667 193.307L225.433 187.331C217.755 190.201 208.538 194.851 200.36 200.497C192.258 206.091 184.798 212.918 181.103 220.27L186.803 223.136ZM187.307 228.399C186.925 226.848 186.668 225.77 186.588 224.838C186.514 223.982 186.62 223.499 186.803 223.135L181.103 220.271C180.225 222.016 180.094 223.78 180.232 225.383C180.363 226.911 180.764 228.508 181.113 229.924L187.307 228.399ZM187.412 245.772C189.726 238.14 188.302 232.436 187.307 228.399L181.113 229.924C182.062 233.778 183.091 238.037 181.307 243.922L187.412 245.772ZM181.627 258.018C183.674 254.439 186.02 250.366 187.412 245.772L181.307 243.922C180.158 247.713 178.193 251.173 176.089 254.85L181.627 258.018ZM351.445 415.467L361.99 486.728L368.301 485.794L357.756 414.533L351.445 415.467ZM313.146 418.19H354.6V411.81H313.146V418.19ZM333.089 481.763L316.241 414.228L310.051 415.772L326.899 483.307L333.089 481.763ZM333.184 542.985V482.535H326.805V542.985H333.184ZM339.601 566.163L333.073 542.149L326.916 543.822L333.444 567.837L339.601 566.163ZM362.139 485.195L333.516 565.934L339.529 568.066L368.152 487.327L362.139 485.195ZM282.406 323.053C282.49 323.686 282.053 324.404 281.258 324.51L280.418 318.186C277.558 318.566 275.724 321.198 276.082 323.893L282.406 323.053ZM283.331 330.033C283.02 327.705 282.709 325.384 282.407 323.061L276.081 323.885C276.385 326.221 276.697 328.553 277.008 330.879L283.331 330.033ZM283.813 333.647C283.653 332.441 283.492 331.236 283.331 330.033L277.008 330.879C277.168 332.082 277.329 333.284 277.489 334.487L283.813 333.647ZM282.466 332.625C283.149 332.531 283.725 333.004 283.811 333.635L277.49 334.499C277.875 337.308 280.473 339.339 283.336 338.945L282.466 332.625ZM281.427 333.967C281.344 333.36 281.763 332.721 282.468 332.625L283.334 338.945C286.214 338.551 288.129 335.89 287.748 333.103L281.427 333.967ZM280.667 329.055C280.936 330.722 281.199 332.352 281.429 333.981L287.746 333.089C287.506 331.387 287.232 329.694 286.965 328.038L280.667 329.055ZM280.669 329.07L280.67 329.071L286.962 328.022L286.962 328.022L280.669 329.07ZM280.661 329.019L280.661 329.019L286.97 328.073L286.97 328.072L280.661 329.019ZM280.659 329.007L280.66 329.007L286.972 328.084L286.972 328.083L280.659 329.007ZM279.802 323.404C280.062 325.31 280.368 327.204 280.667 329.053L286.965 328.036C286.664 326.174 286.371 324.358 286.123 322.542L279.802 323.404ZM281.258 324.51C280.548 324.604 279.896 324.112 279.801 323.393L286.125 322.553C285.755 319.77 283.192 317.818 280.418 318.186L281.258 324.51Z" fill="#E9994F"/>
<path d="M311.547 301L286.547 319.5V334.5L290.547 350L277.547 357.5L256.547 365.5L229.047 357.5L212.047 323.5L200.547 316.5L187.047 301H311.547Z" fill="#D9D9D9"/>
<path d="M339.246 277.28C338.047 293 323.238 301.616 300.046 305.5C276.855 309.384 253.093 300.234 251.547 291C255.046 281 271.355 275.384 294.546 271.5C317.738 267.616 335.047 274.5 339.246 277.28Z" fill="#D9D9D9"/>
<path d="M172.821 285.66C191.783 306.832 190.378 306.446 210.401 309.253C230.424 312.06 263.656 305.42 265.046 295.5C262.08 285.053 235.377 275.546 215.354 272.738C195.331 269.931 167.944 280.214 172.821 285.66Z" fill="#D9D9D9"/>
<path d="M305.029 256.628C305.029 256.628 289.276 269.5 263.776 261C261.848 260.357 288.276 267.5 305.029 256.628Z" fill="white" stroke="#82573F" stroke-width="1.5" stroke-miterlimit="10" stroke-linejoin="round"/>
<path d="M235.476 260.395C235.476 260.395 217.727 270.334 194.091 257.533C192.304 256.565 217.09 268.191 235.476 260.395Z" fill="white" stroke="#82573F" stroke-width="1.5" stroke-miterlimit="10" stroke-linejoin="round"/>
<path d="M228.762 237.843C228.762 237.843 221.589 239.594 216.905 239.058C212.221 238.521 204.923 236 204.923 236" stroke="#82573F" stroke-width="5" stroke-linecap="round"/>
<path d="M294.683 238.314C294.683 238.314 287.704 240.726 282.99 240.628C278.276 240.53 270.776 238.7 270.776 238.7" stroke="#82573F" stroke-width="5" stroke-linecap="round"/>
<path d="M206.874 337.423C206.874 337.423 253.963 394.723 303.424 335.73C303.424 335.73 323.371 333.482 345.463 351.223L371.463 430.223L326.197 437.124L325.247 393.31L328.224 530.628L334.463 568.723L173.463 580.723L186.911 508.637L181.902 394.723L182.969 419L173.646 411.5L157.146 377L167.463 351.223L206.874 337.423Z" fill="#53B84A"/>
<path d="M247.463 279.723L251.388 283.661C251.388 283.661 254.592 281.3 255.963 279.723" stroke="#823F4B" stroke-width="8" stroke-miterlimit="10" stroke-linecap="round" stroke-linejoin="round"/>
<path d="M286.386 257.591C285.784 255.99 286.112 254.386 287.119 254.007C288.126 253.629 289.43 254.619 290.032 256.22C290.634 257.821 290.305 259.425 289.298 259.804C288.292 260.182 286.988 259.192 286.386 257.591Z" fill="#E9994F"/>
<path d="M214.435 257.385C215.991 257.081 217.276 255.744 217.305 254.399C217.333 253.053 216.096 252.209 214.541 252.513C212.984 252.817 211.701 254.155 211.671 255.5C211.642 256.846 212.879 257.69 214.435 257.385Z" fill="white"/>
<path d="M303.079 270.31C303.079 270.232 303.142 270.169 303.219 270.169C303.297 270.169 303.36 270.232 303.36 270.31C303.36 270.387 303.297 270.45 303.219 270.45C303.142 270.45 303.079 270.387 303.079 270.31Z" fill="#E9994F" stroke="#000002" stroke-width="0.706675" stroke-miterlimit="10" stroke-linejoin="round"/>
<path d="M282.858 279.578C282.858 279.5 282.921 279.437 282.998 279.437C283.076 279.437 283.139 279.5 283.139 279.578C283.139 279.655 283.076 279.718 282.998 279.718C282.921 279.718 282.858 279.655 282.858 279.578Z" fill="#E9994F" stroke="#000002" stroke-width="0.706675" stroke-miterlimit="10" stroke-linejoin="round"/>
<path d="M292.407 278.595C292.407 278.44 292.47 278.314 292.547 278.314C292.625 278.314 292.688 278.44 292.688 278.595C292.688 278.75 292.625 278.876 292.547 278.876C292.47 278.876 292.407 278.75 292.407 278.595Z" fill="#E9994F" stroke="#000002" stroke-width="0.706675" stroke-miterlimit="10" stroke-linejoin="round"/>
<path d="M233.991 276.91C233.991 276.91 234.053 276.91 234.131 276.91C234.208 276.91 234.271 276.91 234.271 276.91" stroke="#000002" stroke-width="0.492477" stroke-miterlimit="10" stroke-linecap="round" stroke-linejoin="round"/>
<path d="M216.859 281.965C216.859 281.965 217.047 281.965 217.28 281.965C217.513 281.965 217.701 281.965 217.701 281.965" stroke="#000002" stroke-width="1.78404" stroke-miterlimit="10" stroke-linecap="round" stroke-linejoin="round"/>
<path d="M201.412 285.335C201.412 285.18 201.475 285.054 201.553 285.054C201.63 285.054 201.693 285.18 201.693 285.335C201.693 285.49 201.63 285.616 201.553 285.616C201.475 285.616 201.412 285.49 201.412 285.335Z" stroke="#000002" stroke-width="1.78404" stroke-miterlimit="10" stroke-linecap="round" stroke-linejoin="round"/>
<path d="M234.833 280.701C234.833 280.624 234.896 280.561 234.973 280.561C235.051 280.561 235.114 280.624 235.114 280.701C235.114 280.779 235.051 280.842 234.973 280.842C234.896 280.842 234.833 280.779 234.833 280.701Z" stroke="#000002" stroke-width="1.78404" stroke-miterlimit="10" stroke-linecap="round" stroke-linejoin="round"/>
<path d="M268.069 288.402C268.069 288.36 268.325 288.326 268.64 288.326C268.956 288.326 269.212 288.36 269.212 288.402C269.212 288.444 268.956 288.478 268.64 288.478C268.325 288.478 268.069 288.444 268.069 288.402Z" stroke="#000002" stroke-width="1.78404" stroke-miterlimit="10" stroke-linecap="round" stroke-linejoin="round"/>
<path d="M244.146 327L255.646 335.5" stroke="#ADADAD"/>
<path d="M248.646 319L259.646 328.5" stroke="#ADADAD"/>
<path d="M250.381 284.597C250.381 284.597 237.381 306.597 229.381 316.597C221.381 326.597 194.381 425.097 194.381 425.097C188.777 446.731 176.284 451.167 159.184 463.925L146.686 463.667C139.169 443.652 136.941 431.967 143.823 408.596L189.381 327.597L199.881 306.597L202.881 272.097L210.381 257.097C210.381 257.097 214.013 260.097 214.013 267.097L214.013 284.597C214.013 284.597 222.513 259.097 229.381 253.097C236.249 247.097 236.381 250.097 234.381 257.097C232.381 264.097 225.881 277.097 225.881 277.097C225.881 277.097 237.382 261.097 242.381 257.097C247.381 253.097 254.063 253.097 236.881 284.597C241.791 275.597 247.881 272.097 252.881 272.097C257.881 272.097 250.381 284.597 250.381 284.597Z" fill="#E9984F" stroke="#82573F"/>
<path d="M172.546 307.5C181.046 309.167 198.546 312.4 200.546 312L187.046 300L172.546 307.5Z" fill="#D9D9D9"/>
<path d="M161.047 288L177.547 280L195.047 302.5C190.213 301.167 173.947 298.1 171.547 296.5C169.147 294.9 163.547 290.167 161.047 288Z" fill="#D9D9D9"/>
<path d="M314.547 309.5C307.88 313.5 284.047 324.5 284.047 324.5L296.547 302.5L314.547 309.5Z" fill="#D9D9D9"/>
<path d="M327.546 303L298.546 312L312.046 299L327.546 303Z" fill="#D9D9D9"/>
<path d="M338.046 296.5L333.546 282L327.046 296.5H338.046Z" fill="#D9D9D9"/>
<ellipse cx="253.046" cy="219.5" rx="18" ry="2.5" fill="#82573F"/>
<ellipse cx="253.046" cy="219.5" rx="18" ry="2.5" fill="#82573F"/>
<ellipse cx="253.046" cy="219.5" rx="18" ry="2.5" fill="#82573F"/>
<path d="M281.046 209C281.046 210.381 264.749 209 252.046 209C239.344 209 226.546 210.381 226.546 209C226.546 207.619 239.344 204 252.046 204C264.749 204 281.046 207.619 281.046 209Z" fill="#82573F"/>
<path d="M281.046 209C281.046 210.381 264.749 209 252.046 209C239.344 209 226.546 210.381 226.546 209C226.546 207.619 239.344 204 252.046 204C264.749 204 281.046 207.619 281.046 209Z" fill="#82573F"/>
<path d="M281.046 209C281.046 210.381 264.749 209 252.046 209C239.344 209 226.546 210.381 226.546 209C226.546 207.619 239.344 204 252.046 204C264.749 204 281.046 207.619 281.046 209Z" fill="#82573F"/>
<path d="M284.046 198C284.046 199.381 269.391 198 252.546 198C235.702 198 220.546 199.381 220.546 198C220.546 196.619 235.702 193 252.546 193C269.391 193 284.046 196.619 284.046 198Z" fill="#82573F"/>
<path d="M284.046 198C284.046 199.381 269.391 198 252.546 198C235.702 198 220.546 199.381 220.546 198C220.546 196.619 235.702 193 252.546 193C269.391 193 284.046 196.619 284.046 198Z" fill="#82573F"/>
<path d="M284.046 198C284.046 199.381 269.391 198 252.546 198C235.702 198 220.546 199.381 220.546 198C220.546 196.619 235.702 193 252.546 193C269.391 193 284.046 196.619 284.046 198Z" fill="#82573F"/>
<path d="M184.046 437L236.813 440L326.046 432" stroke="#FFD747" stroke-width="13"/>
<path d="M162.823 427.798C162.004 429.85 153.44 428.361 143.693 424.472C133.947 420.583 145.046 416.425 140.546 419.5C140.546 421 136.912 413.153 146.658 417.042C156.404 420.931 163.642 425.747 162.823 427.798Z" fill="#82573F"/>
<path d="M169.823 413.799C169.004 415.85 160.44 414.361 150.693 410.472C140.947 406.583 144.228 406.552 145.047 404.5C145.865 402.448 143.912 399.153 153.658 403.042C163.404 406.931 170.642 411.747 169.823 413.799Z" fill="#82573F"/>
<path d="M184.046 463L236.813 466L326.046 458" stroke="#FFD747" stroke-width="13"/>
<line x1="134.048" y1="195.016" x2="134.048" y2="131.984" stroke="#ECE9FF" stroke-width="2"/>
<line x1="210.047" y1="163.032" x2="210.047" y2="100" stroke="#ECE9FF" stroke-width="2"/>
<line x1="269.047" y1="143" x2="269.047" y2="100" stroke="#ECE9FF" stroke-width="2"/>
<line x1="348.047" y1="252" x2="348.047" y2="209" stroke="#ECE9FF" stroke-width="2"/>
<line x1="371.047" y1="221.014" x2="370.047" y2="152.014" stroke="#ECE9FF" stroke-width="2"/>
<line x1="99.0481" y1="243.032" x2="99.0481" y2="180" stroke="#ECE9FF" stroke-width="2"/>
<path d="M234.146 329L245.646 337.5" stroke="#ADADAD"/>
<path d="M238.646 321L249.646 330.5" stroke="#ADADAD"/>
<g filter="url(#filter1_f_101_493)">
<path d="M435.048 254C435.048 359.486 351.773 445 249.048 445C146.323 445 63.0481 359.486 63.0481 254C63.0481 148.514 146.323 63 249.048 63C351.773 63 435.048 148.514 435.048 254Z" fill="#6562FF" fill-opacity="0.1"/>
<path d="M434.548 254C434.548 359.223 351.484 444.5 249.048 444.5C146.612 444.5 63.5481 359.223 63.5481 254C63.5481 148.777 146.612 63.5 249.048 63.5C351.484 63.5 434.548 148.777 434.548 254Z" stroke="black"/>
<path d="M434.548 254C434.548 359.223 351.484 444.5 249.048 444.5C146.612 444.5 63.5481 359.223 63.5481 254C63.5481 148.777 146.612 63.5 249.048 63.5C351.484 63.5 434.548 148.777 434.548 254Z" stroke="black" stroke-opacity="0.2"/>
</g>
<g filter="url(#filter2_f_101_493)">
<path d="M338.048 204C338.048 257.019 296.187 300 244.548 300C192.91 300 151.048 257.019 151.048 204C151.048 150.981 192.91 108 244.548 108C296.187 108 338.048 150.981 338.048 204Z" fill="#6562FF" fill-opacity="0.33"/>
<path d="M337.548 204C337.548 256.756 295.898 299.5 244.548 299.5C193.198 299.5 151.548 256.756 151.548 204C151.548 151.244 193.198 108.5 244.548 108.5C295.898 108.5 337.548 151.244 337.548 204Z" stroke="black"/>
<path d="M337.548 204C337.548 256.756 295.898 299.5 244.548 299.5C193.198 299.5 151.548 256.756 151.548 204C151.548 151.244 193.198 108.5 244.548 108.5C295.898 108.5 337.548 151.244 337.548 204Z" stroke="black" stroke-opacity="0.2"/>
</g>
<line x1="268.047" y1="226" x2="268.047" y2="187" stroke="#211F2E" stroke-width="2"/>
<line x1="235.047" y1="246" x2="235.047" y2="207" stroke="#211F2E" stroke-width="2"/>
<line x1="177.048" y1="265" x2="177.048" y2="226" stroke="#211F2E" stroke-width="2"/>
<line x1="206.047" y1="227" x2="206.047" y2="188" stroke="#211F2E" stroke-width="2"/>
<path d="M241.035 299.937C246.02 298.245 251.39 298.613 256.39 299.937C261.39 301.262 267.619 302.859 267.619 302.859" stroke="black" stroke-width="2" stroke-linejoin="round"/>
</g>
<defs>
<filter id="filter0_d_101_493" x="59.0481" y="63" width="380" height="525.723" filterUnits="userSpaceOnUse" color-interpolation-filters="sRGB">
<feFlood flood-opacity="0" result="BackgroundImageFix"/>
<feColorMatrix in="SourceAlpha" type="matrix" values="0 0 0 0 0 0 0 0 0 0 0 0 0 0 0 0 0 0 127 0" result="hardAlpha"/>
<feOffset dy="4"/>
<feGaussianBlur stdDeviation="2"/>
<feComposite in2="hardAlpha" operator="out"/>
<feColorMatrix type="matrix" values="0 0 0 0 0 0 0 0 0 0 0 0 0 0 0 0 0 0 0.25 0"/>
<feBlend mode="normal" in2="BackgroundImageFix" result="effect1_dropShadow_101_493"/>
<feBlend mode="normal" in="SourceGraphic" in2="effect1_dropShadow_101_493" result="shape"/>
</filter>
<filter id="filter1_f_101_493" x="0.0480957" y="0" width="498" height="508" filterUnits="userSpaceOnUse" color-interpolation-filters="sRGB">
<feFlood flood-opacity="0" result="BackgroundImageFix"/>
<feBlend mode="normal" in="SourceGraphic" in2="BackgroundImageFix" result="shape"/>
<feGaussianBlur stdDeviation="31.5" result="effect1_foregroundBlur_101_493"/>
</filter>
<filter id="filter2_f_101_493" x="88.0482" y="45" width="313" height="318" filterUnits="userSpaceOnUse" color-interpolation-filters="sRGB">
<feFlood flood-opacity="0" result="BackgroundImageFix"/>
<feBlend mode="normal" in="SourceGraphic" in2="BackgroundImageFix" result="shape"/>
<feGaussianBlur stdDeviation="31.5" result="effect1_foregroundBlur_101_493"/>
</filter>
</defs>
</svg>
