<svg width="498" height="600" viewBox="0 0 498 600" fill="none" xmlns="http://www.w3.org/2000/svg">
<g filter="url(#filter0_d_101_230)">
<line x1="134" y1="195.016" x2="134" y2="131.984" stroke="#ECE9FF" stroke-width="2"/>
<line x1="210" y1="163.032" x2="210" y2="100" stroke="#ECE9FF" stroke-width="2"/>
<line x1="269" y1="143" x2="269" y2="100" stroke="#ECE9FF" stroke-width="2"/>
<line x1="348" y1="252" x2="348" y2="209" stroke="#ECE9FF" stroke-width="2"/>
<line x1="371" y1="221.014" x2="370" y2="152.014" stroke="#ECE9FF" stroke-width="2"/>
<line x1="99" y1="243.032" x2="99" y2="180" stroke="#ECE9FF" stroke-width="2"/>
<path d="M212.246 494.981C212.246 423.546 133.512 347.513 225.197 351.897C233.767 352.307 219.152 313.667 229.482 318.443C298.007 350.123 225.934 290.791 249.174 314.347C257.632 322.92 256.292 326.653 261.947 340.434C268.188 355.641 320.723 346.785 326.532 368.526C330.258 382.473 293.537 413.933 288.547 440.751C283.196 469.512 298.31 491.154 298.31 505.675C298.31 599.078 285.649 577.094 237.266 577.094C188.883 577.094 212.246 588.383 212.246 494.981Z" fill="white" stroke="white" stroke-width="24" stroke-miterlimit="10" stroke-linejoin="round"/>
<path d="M266.416 202.558L317.028 169.146C317.028 169.146 317.861 182.201 313.39 198.999C308.919 215.797 300.03 230.569 300.03 230.569L266.416 202.558Z" fill="#B1777B" stroke="#2D2145" stroke-width="17.0485" stroke-miterlimit="10" stroke-linejoin="round"/>
<path d="M208.773 199.587L166.851 170.414C166.851 170.414 167.586 190.631 171.114 208.798C174.642 226.965 184.938 237.888 184.938 237.888L208.773 199.587Z" fill="#B1777B" stroke="white" stroke-width="16.4976" stroke-miterlimit="10" stroke-linejoin="round"/>
<path fill-rule="evenodd" clip-rule="evenodd" d="M152.182 277.119C152.282 276.706 152.484 276.311 152.791 275.973C156.894 271.442 160.869 266.808 164.822 262.154C165.447 261.094 166.061 260.028 166.675 258.962C168.105 256.479 169.535 253.997 171.104 251.598C172.083 250.102 173.126 248.653 174.197 247.223C174.236 247.098 174.275 246.973 174.313 246.847C176.362 240.089 175.135 235.107 174.163 231.162C173.433 228.194 172.846 225.813 173.906 223.703C180.574 210.437 201.624 197.881 216.503 192.319C226.649 188.526 208.738 177.565 208.738 177.565C213.421 176.925 220.272 181.384 226.995 185.759C230.285 187.9 233.544 190.022 236.504 191.516C240.881 193.726 236.68 165 236.68 165C242.525 165.613 250.751 175.676 256.789 183.063C260.077 187.086 262.716 190.315 263.968 190.791C277.743 196.029 298.126 209.542 304.377 222.947C305.441 225.228 305.309 227.583 305.129 230.806C304.916 234.619 304.635 239.647 306.183 247.205C307.319 252.744 309.948 256.594 312.357 260.122C313.699 262.087 314.973 263.953 315.882 265.955C317.45 269.408 324.15 279.94 324.15 279.94C324.15 279.94 310.986 276.45 309.243 279.553C306.823 283.861 318.998 293.342 318.998 293.342C318.998 293.342 308.537 294.086 305.281 297.31C290.592 311.856 261.278 332.23 239.941 332.23C232.251 332.23 225.026 331.125 218.297 329.131C218.165 329.211 218.032 329.287 217.899 329.361C217.825 329.413 217.747 329.46 217.666 329.504C217.62 330.086 217.655 330.67 217.69 331.256C217.729 331.902 217.768 332.548 217.697 333.192C217.636 333.748 217.457 334.294 217.277 334.84C217.218 335.02 217.159 335.199 217.104 335.379L217.111 335.471C217.262 337.479 217.311 338.127 216.478 339.754L216.4 339.908C215.801 341.087 214.897 342.866 213.354 342.848C213.115 342.845 212.844 342.782 212.791 342.754C212.79 342.759 212.791 342.765 212.791 342.77C212.792 342.773 212.792 342.776 212.792 342.778C212.792 342.781 212.792 342.783 212.791 342.785C212.791 342.786 212.779 342.78 212.765 342.772L212.765 342.772C212.751 342.765 212.735 342.756 212.728 342.754C212.636 342.726 212.311 342.579 212.291 342.567C211.847 342.296 211.542 341.852 211.416 341.348C211.218 340.554 211.566 339.807 211.906 339.077L211.907 339.077C212.05 338.77 212.192 338.465 212.291 338.161C212.381 337.887 212.471 337.613 212.561 337.339L212.564 337.33L212.564 337.329L212.565 337.328C212.853 336.45 213.141 335.573 213.416 334.692C213.45 334.586 213.485 334.477 213.52 334.367L213.52 334.367C213.686 333.854 213.863 333.306 213.916 332.785C213.97 332.262 213.95 331.671 213.93 331.062C213.926 330.968 213.923 330.875 213.92 330.781C211.92 331.159 209.831 331.119 207.76 330.785C207.687 330.774 207.624 330.756 207.561 330.739C207.495 330.721 207.429 330.703 207.354 330.692C207.289 330.71 207.226 330.733 207.162 330.756L207.162 330.756C207.101 330.778 207.04 330.8 206.978 330.817L206.93 330.831C205.779 331.159 204.261 331.591 203.26 330.661C202.039 329.526 202.619 327.931 203.541 326.817C204.347 325.844 205.422 325.247 206.498 324.651L206.498 324.651C206.54 324.627 206.582 324.604 206.624 324.581C195.4 319.097 185.895 311.065 178.281 301.819C177.927 301.755 177.591 301.656 177.269 301.521C176.799 301.45 176.343 301.259 175.947 300.942C175.235 300.366 174.494 299.859 173.732 299.407C173.477 299.349 173.135 299.27 172.666 299.161C171.536 299.249 170.515 298.626 170.061 297.661C169.316 297.375 168.559 297.117 167.794 296.876C166.281 296.772 164.757 296.833 163.23 296.918C162.895 296.976 162.561 297.027 162.228 297.067C161.926 297.103 161.63 297.087 161.349 297.025C159.878 297.103 158.408 297.149 156.947 297.035C156.521 297.003 156.126 296.873 155.783 296.669C155.306 296.682 154.824 296.628 154.447 296.411C154.394 296.38 154.34 296.349 154.285 296.318L154.283 296.317C153.915 296.109 153.535 295.894 153.322 295.535C152.967 294.936 152.744 294.201 152.728 293.504C152.72 293.115 152.918 292.757 153.11 292.409L153.11 292.409C153.151 292.336 153.191 292.264 153.228 292.192C153.351 291.959 153.803 291.563 154.103 291.315C154.461 290.589 154.991 289.904 155.423 289.345L155.423 289.345L155.541 289.192C156.336 288.159 156.804 287.576 157.666 286.567C158.218 285.921 158.911 285.131 159.51 284.473C159.788 284.168 160.061 283.886 160.339 283.599C160.478 283.455 160.618 283.31 160.76 283.161C160.778 283.142 160.796 283.124 160.815 283.106L160.815 283.106L160.831 283.09L160.843 283.078L160.854 283.067L160.791 283.066C159.176 283.288 157.56 283.49 155.938 283.653C155.796 283.719 155.653 283.784 155.51 283.848C154.1 284.482 151.653 285.578 150.135 284.879L150.108 284.867C149.688 284.673 149.229 284.462 148.947 284.098C148.548 283.581 148.289 282.958 148.166 282.317C148.069 281.811 148.151 281.271 148.322 280.785C148.503 280.271 148.824 279.804 149.166 279.379C149.515 278.947 150.004 278.663 150.487 278.383L150.487 278.383L150.487 278.383C150.732 278.242 150.975 278.101 151.197 277.942C151.535 277.701 151.863 277.419 152.182 277.119ZM173.202 299.123L173.239 299.125C173.298 299.158 173.356 299.19 173.414 299.223C173.3 299.193 173.186 299.161 173.072 299.129C173.016 299.113 173.104 299.118 173.201 299.123H173.202ZM355.099 488.261L344.554 417H303.099L319.948 484.535V544.986L326.476 569L355.099 488.261ZM270.791 323.348C269.759 323.485 269.06 324.442 269.197 325.473C269.501 327.803 269.812 330.129 270.123 332.456C270.284 333.66 270.444 334.863 270.604 336.067C270.753 337.156 271.764 337.935 272.854 337.785C273.942 337.636 274.69 336.625 274.541 335.535C274.306 333.87 274.038 332.208 273.769 330.546L273.769 330.546L273.769 330.546L273.769 330.545C273.47 328.69 273.17 326.834 272.916 324.973C272.779 323.941 271.823 323.211 270.791 323.348Z" fill="white"/>
<path d="M152.791 275.973L155.153 278.117L155.156 278.114L152.791 275.973ZM152.182 277.119L154.366 279.444C154.818 279.019 155.136 278.473 155.282 277.871L152.182 277.119ZM164.822 262.154L167.253 264.219C167.371 264.08 167.477 263.931 167.57 263.775L164.822 262.154ZM166.675 258.962L169.439 260.554L169.439 260.554L166.675 258.962ZM171.104 251.598L173.774 253.345L173.774 253.344L171.104 251.598ZM174.197 247.223L176.75 249.134C176.964 248.849 177.129 248.529 177.237 248.188L174.197 247.223ZM174.313 246.847L171.261 245.922L171.261 245.922L174.313 246.847ZM174.163 231.162L171.066 231.925L171.066 231.925L174.163 231.162ZM173.906 223.703L171.056 222.271L171.056 222.271L173.906 223.703ZM216.503 192.319L217.62 195.307L217.62 195.307L216.503 192.319ZM208.738 177.565L208.307 174.405C206.97 174.587 205.893 175.591 205.616 176.911C205.34 178.23 205.923 179.582 207.073 180.286L208.738 177.565ZM226.995 185.759L225.255 188.433L225.255 188.433L226.995 185.759ZM236.504 191.516L237.942 188.669L237.942 188.669L236.504 191.516ZM236.68 165L237.013 161.828C236.033 161.725 235.061 162.081 234.379 162.791C233.697 163.502 233.382 164.487 233.524 165.462L236.68 165ZM256.789 183.063L259.258 181.045L259.258 181.045L256.789 183.063ZM263.968 190.791L262.834 193.773L262.835 193.773L263.968 190.791ZM304.377 222.947L301.486 224.295L301.486 224.295L304.377 222.947ZM305.129 230.806L301.944 230.628L301.944 230.628L305.129 230.806ZM306.183 247.205L303.059 247.845L303.059 247.846L306.183 247.205ZM312.357 260.122L309.723 261.921L309.723 261.921L312.357 260.122ZM315.882 265.955L318.787 264.636L318.787 264.636L315.882 265.955ZM324.15 279.94L323.333 283.023C324.603 283.36 325.949 282.884 326.725 281.824C327.5 280.764 327.547 279.336 326.842 278.228L324.15 279.94ZM309.243 279.553L312.024 281.115L312.024 281.115L309.243 279.553ZM318.998 293.342L319.225 296.524C320.542 296.43 321.666 295.534 322.05 294.27C322.434 293.007 322 291.637 320.958 290.825L318.998 293.342ZM305.281 297.31L303.037 295.043L303.037 295.044L305.281 297.31ZM218.297 329.131L219.203 326.073C218.344 325.818 217.417 325.937 216.65 326.399L218.297 329.131ZM217.899 329.361L216.353 326.571C216.259 326.623 216.168 326.68 216.08 326.741L217.899 329.361ZM217.666 329.504L216.148 326.699C215.198 327.213 214.573 328.173 214.487 329.249L217.666 329.504ZM217.69 331.256L214.506 331.448L214.506 331.448L217.69 331.256ZM217.697 333.192L214.527 332.843L214.527 332.844L217.697 333.192ZM217.277 334.84L214.247 333.844L214.247 333.844L217.277 334.84ZM217.104 335.379L214.053 334.449C213.938 334.827 213.894 335.223 213.923 335.618L217.104 335.379ZM217.111 335.471L213.93 335.71L213.93 335.71L217.111 335.471ZM216.478 339.754L213.638 338.301L213.635 338.307L216.478 339.754ZM216.4 339.908L213.557 338.462L213.556 338.464L216.4 339.908ZM213.354 342.848L213.314 346.038L213.317 346.038L213.354 342.848ZM212.791 342.754L214.281 339.934C213.439 339.488 212.441 339.443 211.561 339.811C210.682 340.179 210.013 340.92 209.737 341.833L212.791 342.754ZM212.791 342.77L209.632 343.211L209.632 343.213L212.791 342.77ZM212.792 342.778L215.981 342.697L215.981 342.695L212.792 342.778ZM212.791 342.785L215.816 343.798L215.818 343.79L212.791 342.785ZM212.765 342.772L214.303 339.978C214.266 339.958 214.229 339.938 214.192 339.919L212.765 342.772ZM212.765 342.772L211.225 345.566C211.263 345.586 211.3 345.606 211.338 345.625L212.765 342.772ZM212.728 342.754L211.8 345.806C211.818 345.811 211.836 345.817 211.855 345.822L212.728 342.754ZM212.291 342.567L210.63 345.29C210.636 345.294 210.643 345.298 210.649 345.302L212.291 342.567ZM211.416 341.348L208.322 342.121L208.322 342.122L211.416 341.348ZM211.906 339.077L209.053 337.651C209.04 337.677 209.028 337.703 209.016 337.729L211.906 339.077ZM211.907 339.077L214.76 340.504C214.773 340.478 214.785 340.452 214.797 340.425L211.907 339.077ZM212.291 338.161L209.259 337.17L209.259 337.171L212.291 338.161ZM212.561 337.339L215.591 338.335L215.592 338.334L212.561 337.339ZM212.564 337.33L209.546 336.297C209.542 336.309 209.538 336.322 209.533 336.334L212.564 337.33ZM212.564 337.329L215.582 338.362C215.588 338.345 215.594 338.328 215.599 338.311L212.564 337.329ZM212.565 337.328L209.534 336.332C209.533 336.336 209.531 336.341 209.53 336.346L212.565 337.328ZM213.416 334.692L210.372 333.741L210.371 333.742L213.416 334.692ZM213.52 334.367L216.556 335.347C216.559 335.338 216.562 335.328 216.565 335.318L213.52 334.367ZM213.52 334.367L210.485 333.386C210.482 333.396 210.479 333.406 210.476 333.415L213.52 334.367ZM213.916 332.785L217.089 333.111L217.089 333.11L213.916 332.785ZM213.93 331.062L210.742 331.169L210.742 331.169L213.93 331.062ZM213.92 330.781L217.109 330.682C217.08 329.75 216.645 328.877 215.918 328.293C215.191 327.71 214.244 327.473 213.328 327.646L213.92 330.781ZM207.76 330.785L208.267 327.636L208.265 327.636L207.76 330.785ZM207.561 330.739L208.402 327.662L208.402 327.662L207.561 330.739ZM207.354 330.692L207.808 327.535C207.374 327.472 206.931 327.5 206.507 327.617L207.354 330.692ZM207.162 330.756L208.123 333.798C208.162 333.785 208.202 333.772 208.241 333.758L207.162 330.756ZM207.162 330.756L206.201 327.714C206.161 327.727 206.122 327.74 206.082 327.754L207.162 330.756ZM206.978 330.817L206.108 327.748L206.105 327.749L206.978 330.817ZM206.93 330.831L206.057 327.763L206.056 327.763L206.93 330.831ZM203.26 330.661L201.089 332.998L201.089 332.998L203.26 330.661ZM203.541 326.817L205.999 328.851L205.999 328.85L203.541 326.817ZM206.498 324.651L208.045 327.441C208.065 327.429 208.085 327.418 208.105 327.406L206.498 324.651ZM206.498 324.651L204.952 321.861C204.932 321.872 204.911 321.884 204.891 321.895L206.498 324.651ZM206.624 324.581L208.172 327.37C209.212 326.793 209.844 325.686 209.813 324.497C209.782 323.309 209.093 322.237 208.025 321.715L206.624 324.581ZM178.281 301.819L180.743 299.791C180.262 299.207 179.589 298.813 178.844 298.679L178.281 301.819ZM177.269 301.521L178.498 298.578C178.257 298.477 178.005 298.407 177.747 298.368L177.269 301.521ZM175.947 300.942L173.942 303.422L173.953 303.431L175.947 300.942ZM173.732 299.407L175.356 296.663C175.073 296.495 174.765 296.372 174.443 296.298L173.732 299.407ZM172.666 299.161L173.391 296.054C173.072 295.98 172.745 295.955 172.419 295.981L172.666 299.161ZM170.061 297.661L172.948 296.305C172.598 295.559 171.973 294.978 171.204 294.683L170.061 297.661ZM167.794 296.876L168.752 293.834C168.512 293.758 168.264 293.711 168.014 293.694L167.794 296.876ZM163.23 296.918L163.053 293.733C162.93 293.74 162.807 293.754 162.686 293.775L163.23 296.918ZM162.228 297.067L161.849 293.9L161.848 293.9L162.228 297.067ZM161.349 297.025L162.034 293.91C161.754 293.848 161.467 293.825 161.18 293.84L161.349 297.025ZM156.947 297.035L157.194 293.855L157.192 293.855L156.947 297.035ZM155.783 296.669L157.413 293.927C156.894 293.618 156.297 293.463 155.693 293.48L155.783 296.669ZM154.447 296.411L152.845 299.169L152.853 299.174L154.447 296.411ZM154.285 296.318L152.713 299.094L152.714 299.094L154.285 296.318ZM154.283 296.317L155.855 293.541L155.854 293.541L154.283 296.317ZM153.322 295.535L150.578 297.161L150.579 297.162L153.322 295.535ZM152.728 293.504L149.539 293.572L149.539 293.577L152.728 293.504ZM153.11 292.409L150.386 290.75C150.363 290.788 150.34 290.827 150.318 290.867L153.11 292.409ZM153.11 292.409L155.834 294.069C155.858 294.031 155.88 293.992 155.902 293.952L153.11 292.409ZM153.228 292.192L150.405 290.707L150.403 290.711L153.228 292.192ZM154.103 291.315L156.138 293.771C156.483 293.485 156.763 293.13 156.962 292.728L154.103 291.315ZM155.423 289.345L152.91 287.381C152.906 287.385 152.903 287.389 152.9 287.394L155.423 289.345ZM155.423 289.345L157.937 291.308C157.941 291.304 157.945 291.299 157.948 291.294L155.423 289.345ZM155.541 289.192L158.066 291.141L158.069 291.137L155.541 289.192ZM157.666 286.567L155.241 284.495L155.241 284.495L157.666 286.567ZM159.51 284.473L161.869 286.62L161.869 286.62L159.51 284.473ZM160.339 283.599L162.631 285.817L162.631 285.817L160.339 283.599ZM160.76 283.161L163.069 285.362C163.087 285.343 163.104 285.325 163.121 285.306L160.76 283.161ZM160.815 283.106L163.03 285.401C163.036 285.396 163.041 285.391 163.046 285.386L160.815 283.106ZM160.815 283.106L158.595 280.816C158.591 280.819 158.587 280.823 158.584 280.826L160.815 283.106ZM160.831 283.09L163.052 285.38C163.059 285.373 163.066 285.366 163.073 285.36L160.831 283.09ZM160.843 283.078L163.085 285.348C163.095 285.337 163.106 285.327 163.116 285.316L160.843 283.078ZM160.854 283.067L163.127 285.305C164.024 284.394 164.291 283.035 163.804 281.852C163.316 280.669 162.17 279.892 160.891 279.877L160.854 283.067ZM160.791 283.066L160.827 279.877C160.67 279.875 160.513 279.885 160.357 279.906L160.791 283.066ZM155.938 283.653L155.619 280.479C155.266 280.514 154.921 280.609 154.598 280.758L155.938 283.653ZM155.51 283.848L156.818 286.757L156.821 286.756L155.51 283.848ZM150.135 284.879L151.469 281.982L151.468 281.981L150.135 284.879ZM150.108 284.867L148.775 287.764L148.775 287.764L150.108 284.867ZM148.947 284.098L146.422 286.047L146.425 286.051L148.947 284.098ZM148.166 282.317L145.034 282.918L145.034 282.918L148.166 282.317ZM148.322 280.785L145.314 279.726L145.313 279.726L148.322 280.785ZM149.166 279.379L146.683 277.377L146.681 277.379L149.166 279.379ZM150.487 278.383L152.086 281.143C152.123 281.122 152.159 281.1 152.194 281.078L150.487 278.383ZM150.487 278.383L149.263 275.438C149.095 275.508 148.933 275.592 148.78 275.689L150.487 278.383ZM150.487 278.383L151.711 281.329C151.84 281.275 151.965 281.213 152.086 281.143L150.487 278.383ZM151.197 277.942L153.05 280.539L153.05 280.538L151.197 277.942ZM173.239 299.125L174.787 296.336C174.364 296.101 173.893 295.966 173.409 295.94L173.239 299.125ZM173.202 299.123L173.372 295.938C173.315 295.935 173.258 295.934 173.202 295.934L173.202 299.123ZM173.414 299.223L172.583 302.303C174.134 302.721 175.754 301.921 176.364 300.436C176.975 298.95 176.385 297.242 174.988 296.449L173.414 299.223ZM173.072 299.129L173.941 296.06C173.936 296.058 173.932 296.057 173.927 296.056L173.072 299.129ZM173.201 299.123L173.028 302.308C173.086 302.312 173.144 302.313 173.201 302.313V299.123ZM344.554 417L347.709 416.533C347.478 414.969 346.135 413.81 344.554 413.81V417ZM355.099 488.261L358.106 489.327C358.28 488.836 358.331 488.31 358.255 487.794L355.099 488.261ZM303.099 417V413.81C302.117 413.81 301.19 414.263 300.586 415.036C299.981 415.81 299.767 416.819 300.004 417.772L303.099 417ZM319.948 484.535H323.138C323.138 484.275 323.106 484.015 323.043 483.763L319.948 484.535ZM319.948 544.986H316.758C316.758 545.268 316.796 545.55 316.87 545.822L319.948 544.986ZM326.476 569L323.398 569.837C323.764 571.183 324.962 572.135 326.356 572.188C327.75 572.24 329.016 571.381 329.482 570.066L326.476 569ZM269.197 325.473L272.36 325.061L272.359 325.053L269.197 325.473ZM270.791 323.348L271.211 326.51L271.211 326.51L270.791 323.348ZM270.123 332.456L266.961 332.879L266.961 332.879L270.123 332.456ZM270.604 336.067L267.442 336.487L267.444 336.5L270.604 336.067ZM272.854 337.785L272.421 334.625L272.419 334.625L272.854 337.785ZM274.541 335.535L277.702 335.103C277.701 335.098 277.7 335.094 277.7 335.089L274.541 335.535ZM273.769 330.546L276.918 330.038C276.918 330.033 276.917 330.027 276.916 330.022L273.769 330.546ZM273.769 330.546L270.615 331.019C270.617 331.036 270.62 331.054 270.623 331.071L273.769 330.546ZM273.769 330.546L270.613 331.007L270.615 331.019L273.769 330.546ZM273.769 330.545L276.925 330.083C276.923 330.068 276.921 330.052 276.918 330.036L273.769 330.545ZM272.916 324.973L269.754 325.393L269.756 325.404L272.916 324.973ZM150.429 273.83C149.757 274.571 149.305 275.446 149.082 276.368L155.282 277.871C155.259 277.966 155.212 278.052 155.153 278.117L150.429 273.83ZM162.391 260.089C158.442 264.738 154.494 269.341 150.427 273.832L155.156 278.114C159.294 273.544 163.296 268.878 167.253 264.219L162.391 260.089ZM163.911 257.37C163.296 258.439 162.69 259.49 162.075 260.533L167.57 263.775C168.205 262.698 168.827 261.618 169.439 260.554L163.911 257.37ZM168.435 249.852C166.808 252.339 165.333 254.901 163.911 257.37L169.439 260.554C170.877 258.058 172.262 255.655 173.774 253.345L168.435 249.852ZM171.643 245.311C170.551 246.77 169.464 248.279 168.435 249.852L173.774 253.344C174.701 251.926 175.702 250.535 176.75 249.134L171.643 245.311ZM171.261 245.922C171.227 246.034 171.192 246.146 171.156 246.258L177.237 248.188C177.281 248.05 177.324 247.912 177.366 247.772L171.261 245.922ZM171.066 231.925C172.015 235.778 173.045 240.037 171.261 245.922L177.366 247.773C179.68 240.141 178.255 234.436 177.261 230.399L171.066 231.925ZM171.056 222.271C170.179 224.017 170.048 225.78 170.185 227.383C170.316 228.911 170.717 230.508 171.066 231.925L177.261 230.399C176.879 228.848 176.621 227.77 176.541 226.838C176.468 225.982 176.573 225.5 176.756 225.135L171.056 222.271ZM215.386 189.331C207.708 192.201 198.492 196.851 190.313 202.497C182.211 208.091 174.752 214.918 171.056 222.271L176.756 225.136C179.729 219.222 186.129 213.139 193.938 207.747C201.672 202.408 210.419 197.999 217.62 195.307L215.386 189.331ZM208.738 177.565C207.073 180.286 207.073 180.286 207.072 180.285C207.072 180.285 207.072 180.285 207.072 180.285C207.072 180.285 207.072 180.285 207.072 180.285C207.073 180.286 207.075 180.287 207.078 180.288C207.083 180.292 207.093 180.298 207.107 180.306C207.134 180.323 207.177 180.35 207.235 180.387C207.35 180.46 207.524 180.57 207.743 180.714C208.183 181.001 208.806 181.419 209.524 181.932C210.98 182.973 212.742 184.345 214.168 185.774C215.738 187.346 216.344 188.446 216.421 188.923C216.431 188.98 216.419 188.836 216.502 188.722C216.519 188.698 216.317 188.983 215.386 189.331L217.62 195.307C219.226 194.707 220.684 193.819 221.664 192.47C222.709 191.031 222.962 189.408 222.719 187.905C222.292 185.26 220.323 182.908 218.683 181.266C216.9 179.48 214.818 177.875 213.233 176.742C212.431 176.168 211.733 175.7 211.233 175.373C210.983 175.21 210.781 175.081 210.639 174.991C210.568 174.947 210.512 174.912 210.472 174.887C210.452 174.875 210.437 174.865 210.425 174.858C210.419 174.854 210.415 174.851 210.411 174.849C210.409 174.848 210.408 174.847 210.406 174.846C210.406 174.846 210.405 174.845 210.405 174.845C210.404 174.845 210.403 174.844 208.738 177.565ZM228.735 183.086C225.413 180.924 221.863 178.609 218.537 176.933C215.332 175.318 211.684 173.943 208.307 174.405L209.17 180.726C210.475 180.547 212.594 181.082 215.666 182.63C218.616 184.117 221.854 186.219 225.255 188.433L228.735 183.086ZM237.942 188.669C235.169 187.269 232.067 185.254 228.735 183.086L225.255 188.433C228.503 190.546 231.919 192.774 235.067 194.364L237.942 188.669ZM236.68 165C233.524 165.462 233.524 165.462 233.524 165.462C233.524 165.462 233.524 165.462 233.524 165.462C233.524 165.463 233.524 165.464 233.525 165.465C233.525 165.468 233.526 165.473 233.527 165.479C233.528 165.492 233.531 165.511 233.535 165.537C233.542 165.589 233.554 165.667 233.568 165.769C233.597 165.974 233.639 166.276 233.692 166.66C233.796 167.43 233.941 168.529 234.102 169.842C234.424 172.473 234.806 175.938 235.052 179.319C235.302 182.75 235.398 185.909 235.202 188.01C235.096 189.153 234.936 189.544 234.95 189.518C234.968 189.483 235.242 188.96 235.981 188.646C236.854 188.276 237.615 188.503 237.942 188.669L235.067 194.364C235.941 194.805 237.182 195.067 238.474 194.519C239.633 194.027 240.265 193.113 240.587 192.504C241.209 191.331 241.439 189.84 241.554 188.601C241.802 185.937 241.668 182.329 241.415 178.855C241.158 175.33 240.763 171.752 240.435 169.066C240.27 167.721 240.121 166.593 240.013 165.8C239.959 165.403 239.915 165.09 239.885 164.875C239.87 164.768 239.858 164.685 239.849 164.628C239.845 164.6 239.842 164.578 239.84 164.563C239.839 164.555 239.838 164.55 239.838 164.545C239.837 164.543 239.837 164.542 239.837 164.541C239.837 164.54 239.837 164.54 239.837 164.539C239.837 164.539 239.837 164.539 236.68 165ZM259.258 181.045C256.262 177.379 252.59 172.882 248.909 169.227C247.066 167.398 245.144 165.702 243.23 164.403C241.36 163.134 239.234 162.06 237.013 161.828L236.348 168.173C237.049 168.246 238.142 168.66 239.648 169.682C241.108 170.673 242.716 172.069 244.415 173.755C247.817 177.133 251.277 181.36 254.319 185.082L259.258 181.045ZM265.102 187.81C265.392 187.92 265.369 187.991 264.928 187.59C264.569 187.263 264.101 186.78 263.517 186.128C262.349 184.825 260.919 183.076 259.258 181.045L254.319 185.082C255.946 187.073 257.48 188.95 258.766 190.386C259.41 191.104 260.042 191.769 260.633 192.307C261.142 192.771 261.919 193.424 262.834 193.773L265.102 187.81ZM307.268 221.599C303.814 214.19 296.66 207.078 288.91 201.256C281.098 195.387 272.298 190.546 265.102 187.81L262.835 193.773C269.414 196.274 277.693 200.809 285.078 206.357C292.526 211.952 298.69 218.299 301.486 224.295L307.268 221.599ZM308.314 230.984C308.484 227.948 308.732 224.738 307.268 221.599L301.486 224.295C302.15 225.719 302.135 227.218 301.944 230.628L308.314 230.984ZM309.308 246.565C307.842 239.409 308.106 234.704 308.314 230.984L301.944 230.628C301.726 234.534 301.427 239.884 303.059 247.845L309.308 246.565ZM314.991 258.323C312.577 254.788 310.301 251.41 309.308 246.565L303.059 247.846C304.336 254.078 307.319 258.4 309.723 261.921L314.991 258.323ZM318.787 264.636C317.743 262.338 316.302 260.242 314.991 258.323L309.723 261.921C311.097 263.933 312.203 265.568 312.978 267.274L318.787 264.636ZM324.15 279.94C326.842 278.228 326.842 278.228 326.842 278.228C326.842 278.228 326.842 278.228 326.842 278.228C326.841 278.228 326.841 278.227 326.841 278.227C326.84 278.225 326.839 278.224 326.837 278.221C326.834 278.217 326.83 278.209 326.824 278.2C326.811 278.18 326.793 278.151 326.768 278.113C326.72 278.036 326.648 277.923 326.556 277.777C326.371 277.485 326.106 277.063 325.782 276.547C325.134 275.512 324.254 274.099 323.327 272.58C321.422 269.46 319.473 266.147 318.787 264.636L312.978 267.274C313.86 269.216 316.045 272.896 317.882 275.905C318.826 277.451 319.719 278.886 320.376 279.934C320.705 280.459 320.975 280.887 321.163 281.185C321.257 281.334 321.331 281.45 321.381 281.529C321.406 281.569 321.425 281.599 321.439 281.62C321.445 281.63 321.45 281.638 321.454 281.644C321.455 281.646 321.457 281.648 321.457 281.65C321.458 281.651 321.458 281.651 321.459 281.652C321.459 281.652 321.459 281.652 321.459 281.652C321.459 281.652 321.459 281.652 324.15 279.94ZM312.024 281.115C311.745 281.614 311.388 281.71 311.524 281.658C311.65 281.61 311.966 281.528 312.543 281.486C313.688 281.401 315.237 281.511 316.914 281.743C318.555 281.969 320.166 282.29 321.378 282.558C321.981 282.691 322.477 282.809 322.819 282.894C322.991 282.936 323.123 282.969 323.211 282.992C323.254 283.003 323.287 283.011 323.308 283.017C323.318 283.019 323.325 283.021 323.33 283.023C323.332 283.023 323.333 283.023 323.334 283.024C323.334 283.024 323.334 283.024 323.334 283.024C323.334 283.024 323.334 283.024 323.334 283.024C323.333 283.024 323.333 283.023 324.15 279.94C324.968 276.857 324.967 276.857 324.967 276.857C324.967 276.857 324.966 276.856 324.966 276.856C324.965 276.856 324.964 276.856 324.962 276.855C324.96 276.855 324.956 276.854 324.952 276.853C324.944 276.85 324.932 276.847 324.917 276.844C324.888 276.836 324.847 276.825 324.794 276.812C324.688 276.784 324.535 276.746 324.343 276.699C323.959 276.604 323.413 276.474 322.754 276.329C321.444 276.039 319.654 275.681 317.787 275.423C315.955 275.17 313.886 274.99 312.073 275.123C311.17 275.19 310.173 275.345 309.245 275.7C308.327 276.051 307.178 276.717 306.462 277.991L312.024 281.115ZM318.998 293.342C320.958 290.825 320.959 290.826 320.959 290.826C320.959 290.826 320.959 290.826 320.959 290.826C320.959 290.826 320.959 290.826 320.959 290.826C320.959 290.826 320.958 290.825 320.956 290.823C320.952 290.821 320.945 290.815 320.936 290.808C320.918 290.794 320.888 290.77 320.848 290.739C320.769 290.676 320.65 290.58 320.496 290.454C320.189 290.204 319.747 289.837 319.223 289.383C318.167 288.468 316.807 287.225 315.535 285.875C314.234 284.495 313.162 283.146 312.558 282.018C311.855 280.706 312.276 280.667 312.024 281.115L306.462 277.991C305.001 280.593 306.036 283.355 306.935 285.032C307.933 286.894 309.452 288.723 310.892 290.251C312.361 291.81 313.894 293.207 315.045 294.204C315.624 294.706 316.115 295.114 316.464 295.398C316.638 295.541 316.778 295.653 316.876 295.731C316.925 295.769 316.963 295.8 316.991 295.821C317.004 295.832 317.015 295.841 317.023 295.847C317.027 295.85 317.031 295.853 317.033 295.855C317.034 295.856 317.035 295.856 317.036 295.857C317.037 295.858 317.037 295.858 317.038 295.858C317.038 295.858 317.038 295.859 318.998 293.342ZM307.526 299.577C307.849 299.257 308.596 298.798 309.888 298.328C311.113 297.882 312.55 297.525 313.971 297.248C315.38 296.973 316.705 296.791 317.682 296.677C318.168 296.621 318.563 296.582 318.832 296.557C318.966 296.545 319.069 296.536 319.136 296.531C319.17 296.528 319.194 296.526 319.209 296.525C319.216 296.524 319.222 296.524 319.224 296.524C319.226 296.524 319.226 296.524 319.226 296.524C319.226 296.524 319.226 296.524 319.226 296.524C319.226 296.524 319.225 296.524 319.225 296.524C319.225 296.524 319.225 296.524 318.998 293.342C318.772 290.16 318.772 290.16 318.771 290.16C318.771 290.16 318.77 290.16 318.77 290.161C318.769 290.161 318.768 290.161 318.767 290.161C318.764 290.161 318.761 290.161 318.757 290.161C318.75 290.162 318.74 290.163 318.727 290.164C318.703 290.166 318.668 290.168 318.624 290.172C318.536 290.179 318.411 290.189 318.253 290.204C317.937 290.232 317.489 290.277 316.944 290.34C315.857 290.467 314.364 290.672 312.751 290.986C311.15 291.298 309.36 291.732 307.708 292.332C306.123 292.909 304.342 293.751 303.037 295.043L307.526 299.577ZM239.941 335.42C251.472 335.42 264.737 329.975 276.713 322.979C288.779 315.931 299.993 307.036 307.526 299.577L303.037 295.044C295.881 302.13 285.093 310.695 273.495 317.471C261.808 324.298 249.747 329.04 239.941 329.04V335.42ZM217.391 332.19C224.412 334.27 231.941 335.42 239.941 335.42V329.04C232.56 329.04 225.641 327.98 219.203 326.073L217.391 332.19ZM216.65 326.399C216.552 326.459 216.453 326.516 216.353 326.571L219.445 332.151C219.612 332.059 219.778 331.962 219.944 331.863L216.65 326.399ZM216.08 326.741C216.106 326.722 216.129 326.709 216.148 326.699L219.185 332.309C219.365 332.212 219.543 332.103 219.718 331.982L216.08 326.741ZM214.487 329.249C214.419 330.091 214.473 330.901 214.506 331.448L220.874 331.064C220.837 330.44 220.82 330.08 220.846 329.759L214.487 329.249ZM214.506 331.448C214.548 332.14 214.563 332.514 214.527 332.843L220.868 333.541C220.973 332.582 220.91 331.664 220.874 331.064L214.506 331.448ZM214.527 332.844C214.508 333.011 214.447 333.237 214.247 333.844L220.307 335.837C220.467 335.351 220.764 334.485 220.868 333.54L214.527 332.844ZM214.247 333.844C214.19 334.017 214.12 334.23 214.053 334.449L220.155 336.309C220.198 336.168 220.246 336.022 220.307 335.837L214.247 333.844ZM213.923 335.618L213.93 335.71L220.292 335.233L220.285 335.14L213.923 335.618ZM213.93 335.71C214.014 336.817 214.025 337.136 213.996 337.38C213.983 337.484 213.958 337.676 213.638 338.301L219.318 341.207C219.831 340.205 220.197 339.259 220.331 338.13C220.448 337.141 220.36 336.133 220.292 335.233L213.93 335.71ZM213.635 338.307L213.557 338.462L219.243 341.355L219.321 341.201L213.635 338.307ZM213.556 338.464C213.402 338.768 213.271 339.022 213.13 339.265C212.99 339.507 212.875 339.673 212.785 339.78C212.692 339.89 212.685 339.868 212.782 339.811C212.906 339.739 213.126 339.655 213.392 339.658L213.317 346.038C215.465 346.063 216.902 344.801 217.677 343.874C218.444 342.959 218.974 341.885 219.244 341.353L213.556 338.464ZM213.394 339.658C213.512 339.66 213.576 339.672 213.593 339.676C213.608 339.679 213.644 339.686 213.7 339.701C213.728 339.708 213.78 339.723 213.849 339.746C213.884 339.758 213.936 339.777 213.998 339.802C214.054 339.825 214.157 339.868 214.281 339.934L211.301 345.574C211.663 345.766 212.005 345.851 212.036 345.859C212.165 345.894 212.294 345.923 212.413 345.945C212.639 345.988 212.958 346.033 213.314 346.038L213.394 339.658ZM209.737 341.833C209.601 342.286 209.595 342.668 209.603 342.879C209.607 342.989 209.616 343.077 209.622 343.128C209.625 343.154 209.627 343.176 209.629 343.189C209.63 343.196 209.631 343.201 209.631 343.205C209.632 343.207 209.632 343.208 209.632 343.209C209.632 343.21 209.632 343.211 209.632 343.211L215.951 342.33C215.946 342.296 215.971 342.457 215.978 342.645C215.986 342.85 215.98 343.227 215.845 343.675L209.737 341.833ZM209.632 343.213C209.633 343.22 209.627 343.179 209.622 343.129C209.616 343.077 209.607 342.981 209.603 342.862L215.981 342.695C215.978 342.572 215.968 342.474 215.962 342.419C215.959 342.39 215.956 342.366 215.954 342.352C215.953 342.345 215.952 342.338 215.951 342.335C215.951 342.331 215.95 342.328 215.95 342.327L209.632 343.213ZM209.603 342.859C209.598 342.645 209.609 342.248 209.764 341.78L215.818 343.79C215.975 343.318 215.986 342.916 215.981 342.697L209.603 342.859ZM209.767 341.772C210.207 340.458 211.281 339.884 211.98 339.7C212.568 339.546 213.048 339.602 213.21 339.623C213.581 339.672 213.857 339.779 213.907 339.797C214.078 339.861 214.205 339.927 214.218 339.933C214.277 339.963 214.329 339.992 214.303 339.978L211.227 345.567C211.229 345.568 211.242 345.575 211.257 345.583C211.27 345.59 211.305 345.609 211.348 345.631C211.366 345.64 211.497 345.707 211.671 345.772C211.722 345.791 211.999 345.898 212.372 345.947C212.533 345.969 213.014 346.025 213.602 345.87C214.301 345.686 215.376 345.112 215.816 343.798L209.767 341.772ZM214.192 339.919L214.191 339.919L211.338 345.625L211.339 345.625L214.192 339.919ZM214.304 339.978C214.301 339.977 214.289 339.97 214.274 339.962C214.26 339.954 214.234 339.94 214.202 339.924C214.174 339.909 214.118 339.881 214.047 339.849C214.002 339.829 213.831 339.751 213.602 339.686L211.855 345.822C211.727 345.785 211.627 345.748 211.569 345.726C211.507 345.701 211.457 345.679 211.423 345.664C211.358 345.635 211.308 345.609 211.286 345.598C211.244 345.577 211.211 345.558 211.225 345.566L214.304 339.978ZM213.657 339.702C213.708 339.718 213.747 339.731 213.767 339.738C213.79 339.746 213.806 339.752 213.815 339.756C213.832 339.762 213.839 339.765 213.833 339.763C213.822 339.758 213.797 339.748 213.763 339.733C213.731 339.719 213.702 339.706 213.684 339.697C213.674 339.693 213.674 339.693 213.682 339.697C213.685 339.698 213.7 339.705 213.72 339.715C213.73 339.72 213.75 339.73 213.775 339.743C213.788 339.75 213.807 339.76 213.829 339.773C213.85 339.784 213.887 339.805 213.934 339.832L210.649 345.302C210.73 345.35 210.797 345.385 210.813 345.394C210.841 345.408 210.863 345.42 210.877 345.426C210.904 345.44 210.928 345.451 210.942 345.458C210.972 345.472 211.001 345.486 211.026 345.497C211.078 345.521 211.139 345.548 211.202 345.576C211.238 345.592 211.535 345.725 211.8 345.806L213.657 339.702ZM213.953 339.844C214.289 340.049 214.453 340.342 214.511 340.574L208.322 342.122C208.632 343.362 209.406 344.543 210.63 345.29L213.953 339.844ZM214.511 340.575C214.545 340.71 214.552 340.833 214.547 340.927C214.542 341.014 214.528 341.058 214.533 341.042C214.538 341.024 214.555 340.97 214.601 340.86C214.649 340.744 214.707 340.618 214.797 340.426L209.016 337.729C208.781 338.233 207.803 340.043 208.322 342.121L214.511 340.575ZM214.759 340.504L214.76 340.504L209.054 337.651L209.053 337.651L214.759 340.504ZM214.797 340.425C214.924 340.154 215.154 339.671 215.324 339.151L209.259 337.171C209.23 337.259 209.176 337.385 209.016 337.729L214.797 340.425ZM215.323 339.152C215.412 338.881 215.501 338.609 215.591 338.335L209.531 336.343C209.441 336.616 209.35 336.893 209.259 337.17L215.323 339.152ZM215.592 338.334L215.595 338.325L209.533 336.334L209.53 336.344L215.592 338.334ZM215.582 338.362L215.582 338.362L209.546 336.297L209.546 336.297L215.582 338.362ZM215.599 338.311L215.6 338.31L209.53 336.346L209.529 336.347L215.599 338.311ZM215.595 338.324C215.882 337.45 216.178 336.55 216.461 335.642L210.371 333.742C210.105 334.596 209.824 335.451 209.534 336.332L215.595 338.324ZM216.461 335.643C216.489 335.554 216.519 335.46 216.556 335.347L210.485 333.387C210.45 333.494 210.41 333.617 210.372 333.741L216.461 335.643ZM216.565 335.318L216.565 335.318L210.476 333.415L210.476 333.416L216.565 335.318ZM216.556 335.347C216.698 334.906 216.995 334.028 217.089 333.111L210.743 332.459C210.73 332.584 210.674 332.801 210.485 333.386L216.556 335.347ZM217.089 333.11C217.17 332.329 217.136 331.507 217.118 330.955L210.742 331.169C210.764 331.835 210.77 332.195 210.743 332.46L217.089 333.11ZM217.118 330.955C217.114 330.861 217.111 330.771 217.109 330.682L210.732 330.879C210.735 330.978 210.739 331.076 210.742 331.169L217.118 330.955ZM213.328 327.646C211.762 327.942 210.054 327.924 208.267 327.636L207.253 333.935C209.609 334.314 212.077 334.375 214.513 333.915L213.328 327.646ZM208.265 327.636C208.33 327.646 208.38 327.657 208.407 327.664C208.42 327.667 208.427 327.669 208.426 327.669C208.424 327.668 208.42 327.667 208.402 327.662L206.719 333.816C206.77 333.83 206.99 333.892 207.256 333.935L208.265 327.636ZM208.402 327.662C208.353 327.649 208.107 327.578 207.808 327.535L206.9 333.85C206.82 333.838 206.758 333.824 206.723 333.816C206.707 333.812 206.697 333.81 206.696 333.81C206.696 333.809 206.697 333.81 206.701 333.811C206.706 333.812 206.711 333.814 206.72 333.816L208.402 327.662ZM206.507 327.617C206.305 327.673 206.127 327.738 206.083 327.754L208.241 333.758C208.258 333.751 208.267 333.748 208.275 333.746C208.282 333.743 208.283 333.743 208.28 333.744C208.277 333.745 208.268 333.748 208.255 333.752C208.243 333.756 208.224 333.761 208.201 333.768L206.507 327.617ZM206.202 327.714L206.201 327.714L208.122 333.798L208.123 333.798L206.202 327.714ZM206.082 327.754C206.074 327.757 206.068 327.759 206.063 327.761C206.057 327.763 206.053 327.765 206.05 327.766C206.043 327.769 206.041 327.769 206.043 327.769C206.045 327.768 206.052 327.766 206.062 327.762C206.073 327.759 206.089 327.754 206.108 327.748L207.849 333.886C208.034 333.834 208.198 333.773 208.241 333.758L206.082 327.754ZM206.105 327.749L206.057 327.763L207.803 333.899L207.851 333.885L206.105 327.749ZM206.056 327.763C205.757 327.849 205.53 327.912 205.31 327.962C205.094 328.011 204.957 328.028 204.878 328.032C204.799 328.036 204.843 328.023 204.962 328.057C205.102 328.096 205.279 328.182 205.431 328.324L201.089 332.998C202.447 334.26 204.06 334.461 205.2 334.403C206.274 334.349 207.294 334.044 207.804 333.899L206.056 327.763ZM205.432 328.325C205.507 328.395 205.629 328.549 205.702 328.78C205.77 328.997 205.758 329.164 205.748 329.23C205.739 329.287 205.732 329.267 205.779 329.176C205.824 329.087 205.897 328.973 205.999 328.851L201.084 324.783C200.401 325.608 199.673 326.802 199.447 328.233C199.194 329.829 199.607 331.62 201.089 332.998L205.432 328.325ZM205.999 328.85C206.359 328.416 206.883 328.085 208.045 327.441L204.951 321.861C203.961 322.41 202.335 323.271 201.083 324.784L205.999 328.85ZM208.105 327.406L208.106 327.406L204.891 321.895L204.891 321.896L208.105 327.406ZM208.045 327.441C208.087 327.417 208.13 327.393 208.172 327.37L205.076 321.792C205.035 321.815 204.994 321.838 204.952 321.861L208.045 327.441ZM175.818 303.847C183.68 313.393 193.534 321.735 205.224 327.447L208.025 321.715C197.266 316.458 188.11 308.736 180.743 299.791L175.818 303.847ZM176.039 304.465C176.576 304.689 177.135 304.854 177.717 304.958L178.844 298.679C178.718 298.657 178.606 298.623 178.498 298.578L176.039 304.465ZM173.953 303.431C174.8 304.11 175.784 304.522 176.79 304.675L177.747 298.368C177.815 298.378 177.885 298.407 177.942 298.453L173.953 303.431ZM172.107 302.152C172.747 302.531 173.359 302.951 173.942 303.422L177.953 298.461C177.111 297.781 176.242 297.186 175.356 296.663L172.107 302.152ZM171.942 302.267C172.413 302.377 172.76 302.457 173.02 302.517L174.443 296.298C174.194 296.241 173.856 296.163 173.391 296.054L171.942 302.267ZM167.175 299.018C168.186 301.171 170.448 302.533 172.913 302.341L172.419 295.981C172.624 295.965 172.843 296.081 172.948 296.305L167.175 299.018ZM166.835 299.919C167.554 300.145 168.248 300.382 168.919 300.64L171.204 294.683C170.384 294.369 169.563 294.089 168.752 293.834L166.835 299.919ZM163.408 300.103C164.921 300.019 166.274 299.969 167.574 300.058L168.014 293.694C166.287 293.575 164.592 293.647 163.053 293.733L163.408 300.103ZM162.607 300.234C163.008 300.186 163.4 300.126 163.775 300.061L162.686 293.775C162.39 293.826 162.113 293.868 161.849 293.9L162.607 300.234ZM160.664 300.14C161.29 300.278 161.946 300.314 162.609 300.234L161.848 293.9C161.906 293.893 161.97 293.896 162.034 293.91L160.664 300.14ZM156.701 300.216C158.377 300.345 160.016 300.29 161.517 300.21L161.18 293.84C159.739 293.916 158.439 293.952 157.194 293.855L156.701 300.216ZM154.154 299.411C154.912 299.862 155.78 300.145 156.703 300.216L157.192 293.855C157.263 293.86 157.341 293.884 157.413 293.927L154.154 299.411ZM152.853 299.174C153.997 299.834 155.196 299.877 155.874 299.857L155.693 293.48C155.594 293.483 155.576 293.476 155.617 293.483C155.657 293.489 155.823 293.522 156.042 293.648L152.853 299.174ZM152.714 299.094C152.771 299.127 152.81 299.149 152.845 299.169L156.05 293.653C155.978 293.611 155.908 293.571 155.856 293.542L152.714 299.094ZM152.711 299.093L152.713 299.094L155.857 293.542L155.855 293.541L152.711 299.093ZM150.579 297.162C151.302 298.381 152.509 298.979 152.712 299.093L155.854 293.541C155.755 293.485 155.705 293.456 155.663 293.431C155.625 293.408 155.626 293.407 155.648 293.423C155.691 293.455 155.888 293.607 156.066 293.908L150.579 297.162ZM149.539 293.577C149.569 294.857 149.963 296.123 150.578 297.161L156.066 293.909C155.972 293.749 155.92 293.545 155.917 293.431L149.539 293.577ZM150.318 290.867C150.222 291.04 149.509 292.171 149.539 293.572L155.917 293.436C155.925 293.809 155.831 294.063 155.807 294.124C155.794 294.156 155.789 294.163 155.806 294.129C155.826 294.091 155.85 294.046 155.902 293.952L150.318 290.867ZM150.386 290.75L150.386 290.75L155.834 294.069L155.834 294.069L150.386 290.75ZM150.403 290.711C150.384 290.747 150.362 290.788 150.318 290.867L155.902 293.952C155.939 293.885 155.997 293.781 156.054 293.673L150.403 290.711ZM152.068 288.858C151.892 289.004 151.637 289.221 151.39 289.458C151.25 289.592 150.738 290.074 150.405 290.708L156.052 293.676C156.009 293.757 155.97 293.822 155.939 293.869C155.908 293.918 155.881 293.957 155.86 293.985C155.82 294.04 155.79 294.075 155.779 294.087C155.767 294.101 155.763 294.105 155.771 294.097C155.777 294.09 155.789 294.078 155.808 294.06C155.847 294.023 155.898 293.977 155.958 293.923C156.018 293.871 156.08 293.819 156.138 293.771L152.068 288.858ZM152.9 287.394C152.501 287.909 151.767 288.842 151.243 289.901L156.962 292.728C157.156 292.337 157.48 291.899 157.947 291.296L152.9 287.394ZM152.91 287.381L152.91 287.381L157.937 291.308L157.937 291.308L152.91 287.381ZM153.016 287.243L152.899 287.395L157.948 291.294L158.066 291.141L153.016 287.243ZM155.241 284.495C154.339 285.551 153.837 286.176 153.013 287.247L158.069 291.137C158.836 290.142 159.269 289.601 160.092 288.639L155.241 284.495ZM157.152 282.326C156.526 283.012 155.811 283.828 155.241 284.495L160.091 288.639C160.625 288.014 161.296 287.25 161.869 286.62L157.152 282.326ZM158.047 281.38C157.774 281.663 157.467 281.98 157.151 282.326L161.869 286.62C162.108 286.357 162.349 286.109 162.631 285.817L158.047 281.38ZM158.451 280.96C158.319 281.099 158.187 281.235 158.047 281.38L162.631 285.817C162.769 285.674 162.918 285.521 163.069 285.362L158.451 280.96ZM158.599 280.811C158.591 280.819 158.498 280.907 158.4 281.016L163.121 285.306C163.085 285.346 163.056 285.376 163.041 285.39C163.028 285.403 163.018 285.412 163.03 285.401L158.599 280.811ZM158.584 280.826L158.583 280.827L163.046 285.386L163.046 285.385L158.584 280.826ZM158.611 280.8L158.595 280.816L163.035 285.396L163.052 285.38L158.611 280.8ZM158.602 280.808L158.59 280.82L163.073 285.36L163.085 285.348L158.602 280.808ZM158.582 280.829L158.571 280.84L163.116 285.316L163.127 285.305L158.582 280.829ZM160.754 286.256L160.818 286.257L160.891 279.877L160.827 279.877L160.754 286.256ZM156.256 286.827C157.929 286.659 159.586 286.451 161.224 286.226L160.357 279.906C158.767 280.124 157.191 280.321 155.619 280.479L156.256 286.827ZM156.821 286.756C156.974 286.687 157.126 286.618 157.277 286.548L154.598 280.758C154.465 280.819 154.332 280.88 154.2 280.94L156.821 286.756ZM148.801 287.776C150.634 288.62 152.574 288.248 153.7 287.941C154.956 287.6 156.14 287.062 156.818 286.757L154.202 280.939C153.47 281.268 152.726 281.595 152.026 281.785C151.687 281.878 151.454 281.909 151.319 281.914C151.179 281.918 151.269 281.889 151.469 281.982L148.801 287.776ZM148.775 287.764L148.802 287.777L151.468 281.981L151.441 281.969L148.775 287.764ZM146.425 286.051C147.274 287.147 148.526 287.65 148.775 287.764L151.441 281.969C151.387 281.944 151.344 281.924 151.303 281.905C151.262 281.886 151.23 281.87 151.203 281.857C151.146 281.829 151.126 281.817 151.127 281.817C151.128 281.817 151.166 281.841 151.225 281.89C151.286 281.94 151.375 282.023 151.47 282.145L146.425 286.051ZM145.034 282.918C145.238 283.983 145.679 285.084 146.422 286.047L151.473 282.149C151.418 282.078 151.341 281.933 151.299 281.716L145.034 282.918ZM145.313 279.726C145.018 280.567 144.8 281.697 145.034 282.918L151.299 281.716C151.321 281.831 151.314 281.899 151.313 281.908C151.312 281.916 151.314 281.893 151.331 281.844L145.313 279.726ZM146.681 277.379C146.262 277.9 145.674 278.702 145.314 279.726L151.331 281.844C151.327 281.856 151.338 281.821 151.393 281.733C151.448 281.645 151.529 281.531 151.651 281.379L146.681 277.379ZM148.888 275.624C148.503 275.846 147.467 276.405 146.683 277.377L151.649 281.381C151.581 281.466 151.543 281.481 151.617 281.429C151.653 281.404 151.706 281.369 151.786 281.32C151.87 281.269 151.96 281.216 152.086 281.143L148.888 275.624ZM148.78 275.689L148.78 275.689L152.194 281.078L152.194 281.078L148.78 275.689ZM149.263 275.438L149.263 275.438L151.711 281.329L151.711 281.329L149.263 275.438ZM149.345 275.345C149.266 275.401 149.157 275.468 148.888 275.624L152.086 281.143C152.306 281.016 152.683 280.8 153.05 280.539L149.345 275.345ZM149.997 274.795C149.739 275.037 149.526 275.216 149.344 275.346L153.05 280.538C153.545 280.185 153.987 279.8 154.366 279.444L149.997 274.795ZM173.409 295.94L173.372 295.938L173.032 302.309L173.069 302.311L173.409 295.94ZM174.988 296.449C174.922 296.411 174.855 296.374 174.787 296.336L171.691 301.914C171.741 301.942 171.79 301.969 171.839 301.997L174.988 296.449ZM172.204 302.198C172.331 302.234 172.458 302.269 172.583 302.303L174.245 296.144C174.142 296.116 174.041 296.088 173.941 296.06L172.204 302.198ZM173.374 295.938C173.354 295.937 173.314 295.935 173.275 295.933C173.247 295.932 173.163 295.928 173.067 295.929C173.028 295.929 172.909 295.929 172.76 295.943C172.692 295.95 172.532 295.967 172.333 296.013C172.299 296.021 171.578 296.159 170.922 296.749C170.504 297.125 169.925 297.862 169.869 298.958C169.815 300.005 170.275 300.751 170.558 301.107C171.039 301.712 171.617 301.97 171.662 301.992C171.946 302.13 172.193 302.195 172.218 302.202L173.927 296.056C173.937 296.059 174.175 296.12 174.453 296.256C174.495 296.276 175.072 296.533 175.552 297.138C175.834 297.492 176.294 298.238 176.24 299.285C176.184 300.38 175.605 301.117 175.188 301.492C174.533 302.082 173.814 302.219 173.783 302.226C173.586 302.272 173.429 302.288 173.365 302.294C173.225 302.308 173.117 302.308 173.092 302.308C173.002 302.308 172.93 302.303 173.028 302.308L173.374 295.938ZM173.202 295.934H173.201V302.313H173.202V295.934ZM341.398 417.467L351.944 488.728L358.255 487.794L347.709 416.533L341.398 417.467ZM303.099 420.19H344.554V413.81H303.099V420.19ZM323.043 483.763L306.194 416.228L300.004 417.772L316.853 485.307L323.043 483.763ZM323.138 544.986V484.535H316.758V544.986H323.138ZM329.554 568.163L323.026 544.149L316.87 545.822L323.398 569.837L329.554 568.163ZM352.093 487.196L323.47 567.934L329.482 570.066L358.106 489.327L352.093 487.196ZM272.359 325.053C272.443 325.686 272.007 326.405 271.211 326.51L270.372 320.186C267.512 320.566 265.677 323.198 266.035 325.893L272.359 325.053ZM273.284 332.034C272.973 329.706 272.663 327.385 272.36 325.061L266.034 325.885C266.338 328.221 266.65 330.553 266.961 332.879L273.284 332.034ZM273.766 335.647C273.606 334.442 273.445 333.237 273.284 332.034L266.961 332.879C267.122 334.082 267.283 335.284 267.442 336.487L273.766 335.647ZM272.419 334.625C273.102 334.531 273.678 335.004 273.765 335.635L267.444 336.5C267.828 339.308 270.426 341.339 273.289 340.945L272.419 334.625ZM271.381 335.967C271.298 335.36 271.717 334.721 272.421 334.625L273.287 340.945C276.168 340.551 278.083 337.89 277.702 335.103L271.381 335.967ZM270.62 331.055C270.89 332.722 271.153 334.353 271.383 335.981L277.7 335.089C277.459 333.387 277.186 331.695 276.918 330.038L270.62 331.055ZM270.623 331.071L270.623 331.071L276.916 330.022L276.916 330.022L270.623 331.071ZM270.615 331.019L270.615 331.019L276.924 330.073L276.924 330.072L270.615 331.019ZM270.613 331.007L270.613 331.007L276.925 330.084L276.925 330.083L270.613 331.007ZM269.756 325.404C270.016 327.31 270.322 329.204 270.62 331.053L276.918 330.036C276.618 328.175 276.324 326.358 276.077 324.542L269.756 325.404ZM271.211 326.51C270.501 326.604 269.85 326.112 269.754 325.393L276.078 324.553C275.709 321.77 273.145 319.818 270.372 320.186L271.211 326.51Z" fill="white"/>
<path d="M196.828 339.423C196.828 339.423 243.916 396.723 293.378 337.73C293.378 337.73 313.324 335.482 335.416 353.223L361.416 432.223L316.151 439.124L315.201 395.31L318.178 532.628L324.416 570.723L163.416 582.723L176.864 510.637L171.855 396.723L172.923 421L163.599 413.5L147.099 379L157.416 353.223L196.828 339.423Z" fill="#BBC1F1"/>
<path d="M237.416 281.723L241.341 285.661C241.341 285.661 244.545 283.3 245.916 281.723" stroke="#823F4B" stroke-width="8" stroke-miterlimit="10" stroke-linecap="round" stroke-linejoin="round"/>
<path d="M241.925 296C241.925 296 241.925 296 236.123 296C236.123 296 235.329 303.45 242.983 303.968C250.638 304.487 245.27 298.44 245.27 298.44C242.213 296.296 241.925 296 241.925 296Z" fill="#541F17"/>
<path d="M276.339 259.591C275.737 257.99 276.065 256.386 277.072 256.007C278.079 255.629 279.383 256.619 279.985 258.22C280.587 259.821 280.258 261.425 279.251 261.804C278.245 262.182 276.941 261.192 276.339 259.591Z" fill="white"/>
<path d="M204.389 259.386C205.944 259.081 207.229 257.744 207.258 256.399C207.287 255.053 206.049 254.209 204.494 254.513C202.938 254.817 201.654 256.155 201.624 257.5C201.595 258.846 202.833 259.69 204.389 259.386Z" fill="white"/>
<path d="M297.253 263.628C297.253 263.628 281.5 276.5 256 268C254.072 267.357 280.5 274.5 297.253 263.628Z" fill="white" stroke="#2D2145" stroke-width="1.5" stroke-miterlimit="10" stroke-linejoin="round"/>
<path d="M227.7 267.394C227.7 267.394 209.951 277.334 186.315 264.533C184.528 263.565 209.313 275.191 227.7 267.394Z" fill="white" stroke="#2D2145" stroke-width="1.5" stroke-miterlimit="10" stroke-linejoin="round"/>
<path d="M273.311 259.733C274.776 259.129 275.773 257.566 275.537 256.241C275.301 254.915 273.922 254.331 272.456 254.934C270.99 255.538 269.994 257.102 270.229 258.427C270.465 259.752 271.845 260.337 273.311 259.733Z" fill="white"/>
<path d="M293.032 272.31C293.032 272.232 293.095 272.169 293.172 272.169C293.25 272.169 293.313 272.232 293.313 272.31C293.313 272.387 293.25 272.45 293.172 272.45C293.095 272.45 293.032 272.387 293.032 272.31Z" fill="white" stroke="#000002" stroke-width="0.706675" stroke-miterlimit="10" stroke-linejoin="round"/>
<path d="M272.811 281.578C272.811 281.5 272.874 281.437 272.951 281.437C273.029 281.437 273.092 281.5 273.092 281.578C273.092 281.655 273.029 281.718 272.951 281.718C272.874 281.718 272.811 281.655 272.811 281.578Z" fill="white" stroke="#000002" stroke-width="0.706675" stroke-miterlimit="10" stroke-linejoin="round"/>
<path d="M282.36 280.595C282.36 280.44 282.423 280.314 282.5 280.314C282.578 280.314 282.641 280.44 282.641 280.595C282.641 280.75 282.578 280.876 282.5 280.876C282.423 280.876 282.36 280.75 282.36 280.595Z" fill="white" stroke="#000002" stroke-width="0.706675" stroke-miterlimit="10" stroke-linejoin="round"/>
<path d="M223.944 278.91C223.944 278.91 224.006 278.91 224.084 278.91C224.161 278.91 224.224 278.91 224.224 278.91" stroke="#000002" stroke-width="0.492477" stroke-miterlimit="10" stroke-linecap="round" stroke-linejoin="round"/>
<path d="M206.812 283.965C206.812 283.965 207 283.965 207.233 283.965C207.466 283.965 207.654 283.965 207.654 283.965" stroke="#000002" stroke-width="1.78404" stroke-miterlimit="10" stroke-linecap="round" stroke-linejoin="round"/>
<path d="M191.365 287.335C191.365 287.18 191.428 287.054 191.506 287.054C191.583 287.054 191.646 287.18 191.646 287.335C191.646 287.49 191.583 287.616 191.506 287.616C191.428 287.616 191.365 287.49 191.365 287.335Z" stroke="#000002" stroke-width="1.78404" stroke-miterlimit="10" stroke-linecap="round" stroke-linejoin="round"/>
<path d="M224.786 282.701C224.786 282.624 224.849 282.561 224.926 282.561C225.004 282.561 225.067 282.624 225.067 282.701C225.067 282.779 225.004 282.842 224.926 282.842C224.849 282.842 224.786 282.779 224.786 282.701Z" stroke="#000002" stroke-width="1.78404" stroke-miterlimit="10" stroke-linecap="round" stroke-linejoin="round"/>
<path d="M258.022 290.402C258.022 290.36 258.278 290.326 258.593 290.326C258.909 290.326 259.165 290.36 259.165 290.402C259.165 290.444 258.909 290.478 258.593 290.478C258.278 290.478 258.022 290.444 258.022 290.402Z" stroke="#000002" stroke-width="1.78404" stroke-miterlimit="10" stroke-linecap="round" stroke-linejoin="round"/>
<path d="M247.463 423.058L229.123 410.5L229.091 420.706C229.162 420.507 229.248 420.311 229.369 420.127C230.166 418.91 231.781 418.584 232.975 419.401C234.165 420.216 234.484 421.867 233.687 423.084C232.887 424.305 231.275 424.628 230.086 423.813C229.598 423.48 229.266 423.006 229.085 422.482L229.056 431.678C229.049 434.078 227.13 436.022 224.789 436.015L223.088 436.009C223.748 436.888 223.833 438.128 223.197 439.099C222.396 440.32 220.785 440.643 219.595 439.828C218.4 439.01 218.078 437.364 218.878 436.142C218.914 436.089 218.958 436.047 218.996 435.996L204.846 435.952C204.931 436.025 205.008 436.104 205.102 436.169L228.417 452.133C229.831 453.1 231.745 452.713 232.691 451.268L248.308 427.427C249.255 425.982 248.877 424.026 247.463 423.058ZM232.244 445.294C231.444 446.515 229.832 446.838 228.642 446.023C227.447 445.205 227.125 443.558 227.925 442.337C228.722 441.12 230.337 440.793 231.531 441.611C232.722 442.426 233.041 444.077 232.244 445.294ZM237.489 437.286C236.689 438.508 235.077 438.83 233.887 438.015C232.693 437.197 232.371 435.551 233.171 434.329C233.968 433.112 235.583 432.786 236.777 433.603C237.967 434.418 238.286 436.069 237.489 437.286ZM242.735 429.279C241.934 430.5 240.323 430.822 239.133 430.008C237.938 429.19 237.617 427.543 238.416 426.322C239.213 425.105 240.828 424.778 242.022 425.596C243.213 426.411 243.532 428.062 242.735 429.279Z" fill="url(#paint0_linear_101_230)"/>
<path d="M227.88 431.673L227.97 402.98C227.976 401.241 226.601 399.827 224.9 399.821L196.838 399.733C195.137 399.727 193.753 401.133 193.748 402.873L193.657 431.565C193.652 433.305 195.026 434.719 196.728 434.724L224.79 434.813C226.491 434.818 227.874 433.413 227.88 431.673ZM199.888 429.53C198.451 429.526 197.291 428.337 197.295 426.867C197.3 425.403 198.468 424.217 199.905 424.221C201.338 424.226 202.498 425.419 202.493 426.884C202.489 428.353 201.321 429.535 199.888 429.53ZM199.949 410.256C198.512 410.252 197.352 409.063 197.356 407.593C197.361 406.129 198.529 404.943 199.966 404.947C201.398 404.952 202.558 406.145 202.554 407.61C202.549 409.079 201.382 410.261 199.949 410.256ZM210.808 419.928C209.371 419.923 208.21 418.734 208.215 417.265C208.219 415.8 209.388 414.614 210.825 414.618C212.257 414.623 213.417 415.817 213.413 417.281C213.408 418.751 212.241 419.932 210.808 419.928ZM221.667 429.599C220.23 429.594 219.069 428.406 219.074 426.936C219.079 425.472 220.246 424.285 221.683 424.29C223.116 424.294 224.277 425.488 224.272 426.952C224.267 428.422 223.1 429.603 221.667 429.599ZM221.727 410.325C220.29 410.32 219.13 409.132 219.135 407.662C219.139 406.197 220.307 405.011 221.744 405.016C223.177 405.02 224.337 406.214 224.333 407.678C224.328 409.148 223.161 410.329 221.727 410.325Z" fill="#2D2145"/>
<path d="M284.475 447.936L265.281 459.145L274.493 463.538C274.343 463.389 274.204 463.227 274.089 463.039C273.33 461.798 273.725 460.199 274.975 459.469C276.22 458.742 277.849 459.159 278.608 460.4C279.37 461.645 278.972 463.241 277.727 463.967C277.217 464.266 276.647 464.364 276.096 464.303L284.397 468.261C286.563 469.294 287.5 471.86 286.492 473.973L285.76 475.509C286.836 475.287 287.994 475.741 288.6 476.731C289.361 477.977 288.963 479.572 287.718 480.299C286.468 481.029 284.842 480.616 284.08 479.371C284.047 479.316 284.028 479.258 283.998 479.202L277.907 491.974C278.009 491.928 278.114 491.893 278.213 491.835L302.614 477.585C304.093 476.721 304.561 474.826 303.659 473.353L288.787 449.041C287.885 447.567 285.955 447.072 284.475 447.936ZM298.068 471.202C298.83 472.447 298.432 474.043 297.186 474.77C295.936 475.5 294.31 475.087 293.548 473.842C292.789 472.601 293.184 471.001 294.434 470.271C295.68 469.544 297.309 469.961 298.068 471.202ZM293.072 463.037C293.834 464.282 293.436 465.877 292.191 466.604C290.941 467.334 289.315 466.921 288.553 465.675C287.794 464.434 288.189 462.835 289.439 462.105C290.684 461.378 292.313 461.795 293.072 463.037ZM288.077 454.87C288.839 456.116 288.441 457.711 287.195 458.438C285.946 459.168 284.319 458.755 283.557 457.51C282.798 456.269 283.193 454.669 284.443 453.94C285.689 453.212 287.318 453.629 288.077 454.87Z" fill="url(#paint1_linear_101_230)"/>
<path d="M283.889 469.322L257.991 456.971C256.421 456.222 254.554 456.86 253.822 458.396L241.742 483.725C241.01 485.261 241.689 487.112 243.259 487.861L269.157 500.212C270.728 500.961 272.594 500.323 273.326 498.788L285.406 473.458C286.138 471.923 285.459 470.071 283.889 469.322ZM269.982 493.709C269.364 495.007 267.793 495.547 266.467 494.915C265.145 494.284 264.572 492.721 265.19 491.424C265.807 490.131 267.382 489.593 268.704 490.223C270.03 490.856 270.599 492.416 269.982 493.709ZM252.585 485.413C251.967 486.71 250.396 487.25 249.07 486.618C247.748 485.987 247.175 484.425 247.793 483.127C248.41 481.834 249.985 481.296 251.307 481.926C252.634 482.559 253.202 484.12 252.585 485.413ZM265.971 479.732C265.353 481.029 263.782 481.57 262.455 480.938C261.133 480.307 260.561 478.744 261.179 477.447C261.796 476.154 263.371 475.616 264.693 476.246C266.019 476.879 266.588 478.439 265.971 479.732ZM279.357 474.052C278.739 475.349 277.168 475.889 275.842 475.257C274.52 474.626 273.946 473.064 274.565 471.767C275.182 470.474 276.757 469.935 278.079 470.565C279.405 471.198 279.974 472.758 279.357 474.052ZM261.96 465.755C261.342 467.052 259.771 467.593 258.445 466.96C257.123 466.33 256.55 464.767 257.168 463.47C257.785 462.177 259.36 461.638 260.682 462.268C262.009 462.901 262.577 464.462 261.96 465.755Z" fill="#2D2145"/>
<path d="M309.933 396.396L302.228 368.757C301.761 367.081 300.054 366.093 298.415 366.55L271.384 374.086C269.745 374.543 268.795 376.271 269.262 377.947L276.967 405.586C277.434 407.261 279.141 408.249 280.78 407.792L307.812 400.257C309.45 399.8 310.4 398.071 309.933 396.396ZM282.411 401.935C281.027 402.321 279.588 401.492 279.193 400.077C278.8 398.666 279.601 397.207 280.986 396.821C282.366 396.436 283.806 397.27 284.199 398.681C284.594 400.096 283.791 401.55 282.411 401.935ZM277.236 383.369C275.851 383.755 274.412 382.926 274.017 381.51C273.624 380.099 274.426 378.641 275.81 378.255C277.19 377.87 278.63 378.704 279.024 380.115C279.419 381.53 278.616 382.984 277.236 383.369ZM290.313 389.728C288.929 390.114 287.489 389.285 287.094 387.869C286.701 386.458 287.503 384.999 288.887 384.614C290.267 384.229 291.708 385.063 292.101 386.473C292.496 387.889 291.693 389.343 290.313 389.728ZM303.39 396.087C302.006 396.473 300.566 395.644 300.172 394.228C299.778 392.817 300.58 391.359 301.964 390.973C303.344 390.588 304.785 391.422 305.179 392.832C305.573 394.248 304.77 395.702 303.39 396.087ZM298.214 377.521C296.83 377.907 295.391 377.078 294.996 375.662C294.603 374.251 295.404 372.792 296.788 372.407C298.168 372.022 299.61 372.855 300.003 374.266C300.398 375.682 299.595 377.136 298.214 377.521Z" fill="#2D2145"/>
<path d="M202.829 369.452L185.924 346.268C184.899 344.862 182.954 344.535 181.58 345.538L158.905 362.072C157.531 363.074 157.247 365.026 158.272 366.432L175.177 389.615C176.202 391.021 178.147 391.347 179.522 390.345L202.196 373.811C203.571 372.809 203.854 370.857 202.829 369.452ZM178.996 384.287C177.835 385.134 176.196 384.863 175.331 383.675C174.468 382.492 174.707 380.845 175.868 379.998C177.026 379.154 178.667 379.43 179.53 380.613C180.396 381.8 180.154 383.443 178.996 384.287ZM167.64 368.714C166.479 369.561 164.84 369.289 163.974 368.102C163.112 366.918 163.351 365.271 164.512 364.424C165.67 363.58 167.311 363.856 168.174 365.04C169.04 366.227 168.798 367.87 167.64 368.714ZM182.117 370.085C180.956 370.932 179.317 370.66 178.451 369.473C177.588 368.289 177.828 366.642 178.989 365.795C180.146 364.951 181.788 365.227 182.651 366.41C183.517 367.598 183.274 369.241 182.117 370.085ZM196.593 371.456C195.432 372.303 193.794 372.031 192.928 370.844C192.065 369.66 192.304 368.013 193.465 367.166C194.623 366.322 196.265 366.598 197.128 367.781C197.993 368.968 197.751 370.612 196.593 371.456ZM185.237 355.883C184.076 356.729 182.438 356.458 181.572 355.27C180.709 354.087 180.948 352.44 182.109 351.593C183.267 350.749 184.909 351.024 185.772 352.208C186.637 353.395 186.395 355.038 185.237 355.883Z" fill="#F1E8FF"/>
<path d="M242.829 529.452L225.924 506.268C224.899 504.862 222.954 504.535 221.58 505.538L198.905 522.072C197.531 523.074 197.247 525.026 198.272 526.432L215.177 549.615C216.202 551.021 218.147 551.347 219.522 550.345L242.196 533.811C243.571 532.809 243.854 530.857 242.829 529.452ZM218.996 544.287C217.835 545.134 216.196 544.863 215.331 543.675C214.468 542.492 214.707 540.845 215.868 539.998C217.026 539.154 218.667 539.43 219.53 540.613C220.396 541.8 220.154 543.443 218.996 544.287ZM207.64 528.714C206.479 529.561 204.84 529.289 203.974 528.102C203.112 526.918 203.351 525.271 204.512 524.424C205.67 523.58 207.311 523.856 208.174 525.04C209.04 526.227 208.798 527.87 207.64 528.714ZM222.117 530.085C220.956 530.932 219.317 530.66 218.451 529.473C217.588 528.289 217.828 526.642 218.989 525.795C220.146 524.951 221.788 525.227 222.651 526.41C223.517 527.598 223.274 529.241 222.117 530.085ZM236.593 531.456C235.432 532.303 233.794 532.031 232.928 530.844C232.065 529.66 232.304 528.013 233.465 527.166C234.623 526.322 236.265 526.598 237.128 527.781C237.993 528.968 237.751 530.612 236.593 531.456ZM225.237 515.883C224.076 516.729 222.438 516.458 221.572 515.27C220.709 514.087 220.948 512.44 222.109 511.593C223.267 510.749 224.909 511.024 225.772 512.208C226.637 513.395 226.395 515.038 225.237 515.883Z" fill="#F1E8FF"/>
<path d="M304.915 548.648L313.861 521.386C314.404 519.733 313.533 517.963 311.917 517.433L285.253 508.684C283.637 508.153 281.887 509.063 281.344 510.716L272.398 537.978C271.856 539.631 272.727 541.401 274.343 541.931L301.007 550.68C302.623 551.211 304.373 550.301 304.915 548.648ZM278.953 537.967C277.588 537.519 276.851 536.03 277.309 534.633C277.766 533.242 279.243 532.474 280.609 532.922C281.97 533.369 282.704 534.862 282.248 536.254C281.79 537.65 280.315 538.413 278.953 537.967ZM284.963 519.653C283.597 519.205 282.861 517.716 283.319 516.32C283.775 514.928 285.252 514.161 286.618 514.609C287.979 515.055 288.714 516.549 288.257 517.941C287.799 519.337 286.324 520.1 284.963 519.653ZM292.305 532.205C290.939 531.757 290.202 530.268 290.66 528.872C291.117 527.48 292.595 526.713 293.96 527.161C295.321 527.607 296.056 529.101 295.599 530.492C295.141 531.889 293.666 532.652 292.305 532.205ZM299.646 544.757C298.281 544.309 297.544 542.82 298.003 541.424C298.459 540.032 299.936 539.264 301.302 539.712C302.663 540.159 303.398 541.653 302.941 543.044C302.483 544.44 301.008 545.204 299.646 544.757ZM305.656 526.443C304.29 525.995 303.554 524.507 304.012 523.11C304.469 521.719 305.945 520.951 307.311 521.399C308.672 521.846 309.407 523.339 308.951 524.731C308.492 526.127 307.017 526.89 305.656 526.443Z" fill="#F1E8FF"/>
<path d="M299.416 338.658L297.416 442.223L301.416 523.658" stroke="#2D2145" stroke-width="12"/>
<line x1="216.416" y1="391.658" x2="218.416" y2="576.658" stroke="#F1F3FF" stroke-width="12"/>
<path d="M220.986 244.843C220.986 244.843 213.813 246.594 209.129 246.057C204.444 245.521 197.147 243 197.147 243" stroke="#2D2145" stroke-width="5" stroke-linecap="round"/>
<path d="M286.907 245.314C286.907 245.314 279.928 247.726 275.214 247.628C270.5 247.53 263 245.699 263 245.699" stroke="#2D2145" stroke-width="5" stroke-linecap="round"/>
<path d="M234.099 329L245.599 337.5" stroke="#ADADAD"/>
<path d="M238.599 321L249.599 330.5" stroke="#ADADAD"/>
<path d="M250 287.5C250 287.5 237 309.5 229 319.5C221 329.5 194 428 194 428C188.396 449.634 175.903 454.07 158.802 466.828L146.305 466.57C138.788 446.555 136.56 434.87 143.442 411.499L189 330.5L199.5 309.5L202.5 275L210 260C210 260 213.631 263 213.631 270L213.631 287.5C213.631 287.5 222.132 262 229 256C235.868 250 236 253 234 260C232 267 225.5 280 225.5 280C225.5 280 237 264 242 260C247 256 253.682 256 236.5 287.5C241.409 278.5 247.5 275 252.5 275C257.5 275 250 287.5 250 287.5Z" fill="white" stroke="#ADADAD"/>
<path fill-rule="evenodd" clip-rule="evenodd" d="M138.784 444.637C136.864 433.403 137.835 423.04 143.082 407.643L166.938 362.334C174.603 368.466 180.098 376.885 182.077 386.8C186.94 411.172 166.851 439.042 139.5 444.5C139.261 444.548 139.022 444.594 138.784 444.637Z" fill="#2D2145"/>
<path d="M152.5 388.5L149 383L141.5 415L152.5 388.5Z" fill="white" stroke="white"/>
<g filter="url(#filter1_f_101_230)">
<path d="M435 254C435 359.486 351.725 445 249 445C146.275 445 63 359.486 63 254C63 148.514 146.275 63 249 63C351.725 63 435 148.514 435 254Z" fill="#6562FF" fill-opacity="0.1"/>
<path d="M434.5 254C434.5 359.223 351.436 444.5 249 444.5C146.564 444.5 63.5 359.223 63.5 254C63.5 148.777 146.564 63.5 249 63.5C351.436 63.5 434.5 148.777 434.5 254Z" stroke="black"/>
<path d="M434.5 254C434.5 359.223 351.436 444.5 249 444.5C146.564 444.5 63.5 359.223 63.5 254C63.5 148.777 146.564 63.5 249 63.5C351.436 63.5 434.5 148.777 434.5 254Z" stroke="black" stroke-opacity="0.2"/>
</g>
<g filter="url(#filter2_f_101_230)">
<path d="M338 204C338 257.019 296.139 300 244.5 300C192.861 300 151 257.019 151 204C151 150.981 192.861 108 244.5 108C296.139 108 338 150.981 338 204Z" fill="#6562FF" fill-opacity="0.33"/>
<path d="M337.5 204C337.5 256.756 295.85 299.5 244.5 299.5C193.15 299.5 151.5 256.756 151.5 204C151.5 151.244 193.15 108.5 244.5 108.5C295.85 108.5 337.5 151.244 337.5 204Z" stroke="black"/>
<path d="M337.5 204C337.5 256.756 295.85 299.5 244.5 299.5C193.15 299.5 151.5 256.756 151.5 204C151.5 151.244 193.15 108.5 244.5 108.5C295.85 108.5 337.5 151.244 337.5 204Z" stroke="black" stroke-opacity="0.2"/>
</g>
<line x1="268" y1="226" x2="268" y2="187" stroke="#211F2E" stroke-width="2"/>
<line x1="235" y1="246" x2="235" y2="207" stroke="#211F2E" stroke-width="2"/>
<line x1="177" y1="265" x2="177" y2="226" stroke="#211F2E" stroke-width="2"/>
<line x1="206" y1="227" x2="206" y2="188" stroke="#211F2E" stroke-width="2"/>
<path d="M237.645 308.675C242.629 306.983 248 307.351 253 308.675C258 310 264.229 311.597 264.229 311.597" stroke="black" stroke-width="2" stroke-linejoin="round"/>
</g>
<defs>
<filter id="filter0_d_101_230" x="59" y="63" width="380" height="536.357" filterUnits="userSpaceOnUse" color-interpolation-filters="sRGB">
<feFlood flood-opacity="0" result="BackgroundImageFix"/>
<feColorMatrix in="SourceAlpha" type="matrix" values="0 0 0 0 0 0 0 0 0 0 0 0 0 0 0 0 0 0 127 0" result="hardAlpha"/>
<feOffset dy="4"/>
<feGaussianBlur stdDeviation="2"/>
<feComposite in2="hardAlpha" operator="out"/>
<feColorMatrix type="matrix" values="0 0 0 0 0 0 0 0 0 0 0 0 0 0 0 0 0 0 0.25 0"/>
<feBlend mode="normal" in2="BackgroundImageFix" result="effect1_dropShadow_101_230"/>
<feBlend mode="normal" in="SourceGraphic" in2="effect1_dropShadow_101_230" result="shape"/>
</filter>
<filter id="filter1_f_101_230" x="0" y="0" width="498" height="508" filterUnits="userSpaceOnUse" color-interpolation-filters="sRGB">
<feFlood flood-opacity="0" result="BackgroundImageFix"/>
<feBlend mode="normal" in="SourceGraphic" in2="BackgroundImageFix" result="shape"/>
<feGaussianBlur stdDeviation="31.5" result="effect1_foregroundBlur_101_230"/>
</filter>
<filter id="filter2_f_101_230" x="88" y="45" width="313" height="318" filterUnits="userSpaceOnUse" color-interpolation-filters="sRGB">
<feFlood flood-opacity="0" result="BackgroundImageFix"/>
<feBlend mode="normal" in="SourceGraphic" in2="BackgroundImageFix" result="shape"/>
<feGaussianBlur stdDeviation="31.5" result="effect1_foregroundBlur_101_230"/>
</filter>
<linearGradient id="paint0_linear_101_230" x1="226.902" y1="410.493" x2="226.769" y2="452.655" gradientUnits="userSpaceOnUse">
<stop stop-color="#F8D9AC"/>
<stop offset="1" stop-color="#FFE4BB" stop-opacity="0"/>
</linearGradient>
<linearGradient id="paint1_linear_101_230" x1="264.325" y1="461.15" x2="302.381" y2="479.299" gradientUnits="userSpaceOnUse">
<stop stop-color="#F8D9AC"/>
<stop offset="1" stop-color="#FFE4BB" stop-opacity="0"/>
</linearGradient>
</defs>
</svg>
