<svg width="307" height="449" viewBox="0 0 307 449" fill="none" xmlns="http://www.w3.org/2000/svg">
<path d="M255.441 75.4049L255.558 75.013C256.847 70.8675 258.273 67.6885 259.837 65.4759C261.401 63.2633 263.173 61.6231 265.153 60.5553C267.134 59.4875 269.383 58.6308 271.901 57.985C273.421 57.5858 274.852 57.0059 276.194 56.2454C277.544 55.4632 278.724 54.4524 279.735 53.2132C280.769 51.9805 281.543 50.5042 282.058 48.7841C282.697 46.6504 282.75 44.6499 282.218 42.7824C281.686 40.9149 280.708 39.3057 279.286 37.9546C277.864 36.6036 276.129 35.6217 274.083 35.009C272.297 34.4745 270.467 34.3297 268.59 34.5745C266.714 34.8194 264.983 35.5703 263.396 36.8272C261.81 38.0842 260.545 39.9712 259.602 42.4882L251.372 40.0242C252.654 36.3751 254.561 33.494 257.091 31.381C259.644 29.2745 262.565 27.9548 265.856 27.4217C269.169 26.8953 272.589 27.16 276.117 28.216C279.948 29.3632 283.052 31.1226 285.426 33.494C287.822 35.872 289.395 38.6205 290.145 41.7396C290.918 44.8651 290.796 48.1262 289.779 51.5227C289.062 53.9176 288.043 55.9732 286.723 57.6893C285.424 59.4119 283.861 60.83 282.033 61.9434C280.226 63.0633 278.189 63.9243 275.921 64.5264C273.647 65.1503 271.734 65.9535 270.182 66.9362C268.637 67.8971 267.333 69.2028 266.269 70.8535C265.206 72.5042 264.248 74.6729 263.396 77.3596L263.279 77.7515L255.441 75.4049ZM253.833 95.9904C252.222 95.508 251.012 94.5171 250.203 93.0177C249.395 91.5183 249.232 89.963 249.714 88.3519C250.197 86.7407 251.188 85.5309 252.687 84.7224C254.186 83.914 255.742 83.7509 257.353 84.2333C258.964 84.7156 260.174 85.7065 260.982 87.2059C261.791 88.7053 261.954 90.2606 261.471 91.8718C261.152 92.9386 260.587 93.8369 259.775 94.5666C258.985 95.3029 258.063 95.8095 257.007 96.0866C255.98 96.3484 254.922 96.3163 253.833 95.9904Z" fill="white"/>
<path d="M245.238 180.476L245.372 180.238C246.815 177.73 248.207 175.87 249.548 174.659C250.888 173.448 252.28 172.64 253.724 172.235C255.169 171.829 256.757 171.6 258.489 171.548C259.536 171.51 260.551 171.342 261.536 171.043C262.528 170.731 263.443 170.246 264.282 169.588C265.134 168.937 265.853 168.09 266.439 167.046C267.166 165.751 267.493 164.458 267.42 163.165C267.346 161.873 266.945 160.683 266.218 159.597C265.49 158.51 264.505 157.618 263.263 156.921C262.18 156.313 261.01 155.951 259.754 155.836C258.498 155.722 257.262 155.957 256.046 156.543C254.831 157.129 253.733 158.172 252.752 159.672L247.758 156.867C249.125 154.681 250.786 153.085 252.74 152.08C254.708 151.083 256.801 150.651 259.02 150.785C261.252 150.926 263.438 151.597 265.578 152.799C267.903 154.105 269.665 155.703 270.863 157.592C272.074 159.489 272.696 161.506 272.729 163.645C272.775 165.791 272.219 167.894 271.062 169.955C270.245 171.408 269.283 172.596 268.173 173.52C267.077 174.451 265.853 175.145 264.501 175.602C263.163 176.067 261.712 176.33 260.149 176.39C258.578 176.464 257.217 176.707 256.064 177.12C254.919 177.519 253.88 178.178 252.947 179.096C252.014 180.015 251.074 181.286 250.128 182.909L249.994 183.147L245.238 180.476ZM241.187 193.631C240.209 193.082 239.567 192.261 239.26 191.168C238.953 190.074 239.074 189.039 239.623 188.061C240.172 187.084 240.993 186.441 242.086 186.134C243.18 185.827 244.215 185.949 245.193 186.498C246.171 187.047 246.813 187.868 247.12 188.961C247.427 190.055 247.306 191.09 246.757 192.068C246.393 192.715 245.894 193.217 245.26 193.573C244.638 193.936 243.964 194.131 243.237 194.157C242.531 194.178 241.847 194.002 241.187 193.631Z" fill="white"/>
<path d="M31.6678 116.598L31.5512 116.351C30.3419 113.722 29.6317 111.51 29.4206 109.716C29.2095 107.922 29.3567 106.319 29.8624 104.907C30.368 103.495 31.101 102.067 32.0615 100.625C32.6366 99.7495 33.0874 98.8242 33.4139 97.8487C33.734 96.8594 33.8686 95.8322 33.8175 94.767C33.7802 93.6953 33.5058 92.6184 32.9943 91.5362C32.3598 90.1938 31.4943 89.1783 30.398 88.4899C29.3017 87.8015 28.0999 87.4394 26.7926 87.4037C25.4853 87.3681 24.1879 87.6545 22.9002 88.2632C21.7769 88.7941 20.8049 89.5385 19.9839 90.4963C19.163 91.4542 18.6396 92.5982 18.4136 93.9284C18.1877 95.2586 18.4019 96.7578 19.0564 98.426L13.8784 100.873C12.8872 98.493 12.5479 96.215 12.8603 94.0395C13.1864 91.8575 14.0463 89.9008 15.4401 88.1695C16.8476 86.4316 18.6609 85.0382 20.8801 83.9893C23.291 82.8497 25.6134 82.3385 27.8475 82.4557C30.0952 82.5663 32.1003 83.2274 33.8628 84.4389C35.639 85.6439 37.0322 87.3149 38.0423 89.4518C38.7545 90.9586 39.1659 92.4317 39.2764 93.871C39.4006 95.3038 39.2578 96.7036 38.8481 98.0704C38.452 99.4308 37.8261 100.766 36.9703 102.075C36.1209 103.398 35.5308 104.649 35.1997 105.828C34.8622 106.993 34.7978 108.222 35.0064 109.514C35.2151 110.807 35.7071 112.309 36.4826 114.02L36.5992 114.267L31.6678 116.598ZM40.0475 127.519C39.0338 127.998 37.9924 128.046 36.9232 127.663C35.8541 127.28 35.0799 126.582 34.6008 125.568C34.1216 124.555 34.0735 123.513 34.4563 122.444C34.8392 121.375 35.5374 120.601 36.5511 120.121C37.5648 119.642 38.6062 119.594 39.6754 119.977C40.7446 120.36 41.5187 121.058 41.9979 122.072C42.3151 122.743 42.4353 123.44 42.3583 124.164C42.295 124.881 42.0635 125.543 41.6637 126.151C41.2712 126.739 40.7324 127.195 40.0475 127.519Z" fill="white"/>
<path d="M117.293 360.981C117.293 289.546 38.5589 213.513 130.244 217.897C138.814 218.307 124.199 179.667 134.529 184.443C203.054 216.123 130.981 156.791 154.221 180.347C162.679 188.92 161.339 192.653 166.994 206.434C173.235 221.641 225.77 212.785 231.579 234.526C235.305 248.473 198.584 279.933 193.594 306.751C188.243 335.512 203.357 357.154 203.357 371.675C203.357 465.078 196.93 416.5 148.547 416.5C100.164 416.5 117.293 454.383 117.293 360.981Z" fill="#E9994F" stroke="#E9994F" stroke-width="24" stroke-miterlimit="10" stroke-linejoin="round"/>
<path d="M171.463 68.558L222.075 35.146C222.075 35.146 222.908 48.201 218.437 64.999C213.966 81.797 205.077 96.569 205.077 96.569L171.463 68.558Z" fill="#B1777B" stroke="#E7944A" stroke-width="17.0485" stroke-miterlimit="10" stroke-linejoin="round"/>
<path d="M113.82 65.587L71.8979 36.414C71.8979 36.414 72.6329 56.631 76.1609 74.798C79.6889 92.965 89.9849 103.888 89.9849 103.888L113.82 65.587Z" fill="#B1777B" stroke="#E9994F" stroke-width="16.4976" stroke-miterlimit="10" stroke-linejoin="round"/>
<path fill-rule="evenodd" clip-rule="evenodd" d="M73.8582 124.434C69.785 131.553 66.0177 138.138 69.8379 146.357C71.522 149.98 73.4552 153.572 75.63 157.076C75.2717 157.054 74.9139 157.03 74.5569 157.004C73.1009 156.895 71.8219 157.986 71.7129 159.442C71.6039 160.897 72.6949 162.176 74.1509 162.285C74.8724 162.341 75.6103 162.382 76.3563 162.423L76.3569 162.423C77.3416 162.478 78.3405 162.534 79.3349 162.625C87.5174 174.037 98.3907 184.092 111.671 190.581C111.629 190.604 111.587 190.627 111.545 190.651L111.544 190.651C110.469 191.247 109.393 191.844 108.588 192.817C107.666 193.931 107.086 195.526 108.307 196.661C109.308 197.591 110.826 197.159 111.976 196.831L112.025 196.817C112.087 196.8 112.148 196.778 112.208 196.756L112.209 196.756C112.272 196.733 112.336 196.71 112.401 196.692C112.476 196.703 112.541 196.721 112.608 196.739C112.67 196.756 112.734 196.774 112.807 196.785C114.878 197.119 116.966 197.159 118.967 196.781C118.97 196.875 118.973 196.968 118.976 197.062C118.997 197.671 119.017 198.262 118.963 198.785C118.909 199.306 118.733 199.854 118.567 200.367L118.567 200.367C118.531 200.477 118.496 200.586 118.463 200.692C118.188 201.574 117.899 202.451 117.611 203.329L117.611 203.329L117.611 203.33C117.52 203.607 117.429 203.884 117.338 204.161C117.239 204.465 117.096 204.77 116.953 205.077C116.613 205.807 116.264 206.554 116.463 207.348C116.589 207.852 116.894 208.296 117.338 208.567C117.358 208.579 117.683 208.726 117.775 208.754C117.782 208.756 117.797 208.765 117.811 208.772L117.812 208.772C117.825 208.78 117.837 208.786 117.838 208.785C117.839 208.781 117.839 208.775 117.838 208.77C117.837 208.765 117.836 208.759 117.838 208.754C117.891 208.782 118.162 208.845 118.401 208.848C119.944 208.866 120.848 207.087 121.446 205.908L121.525 205.754C122.357 204.127 122.309 203.479 122.158 201.471L122.151 201.379C122.206 201.199 122.265 201.02 122.324 200.841L122.324 200.84C122.503 200.294 122.683 199.748 122.744 199.192C122.815 198.548 122.776 197.902 122.737 197.256C122.702 196.67 122.666 196.086 122.713 195.504C122.794 195.46 122.871 195.413 122.945 195.361C123.079 195.287 123.212 195.211 123.343 195.131C130.073 197.125 137.297 198.23 144.988 198.23C166.325 198.23 195.639 177.856 210.328 163.31C213.584 160.086 224.045 159.342 224.045 159.342C224.045 159.342 211.87 149.861 214.29 145.553C216.033 142.45 229.197 145.94 229.197 145.94C229.197 145.94 222.497 135.408 220.929 131.955C220.02 129.953 218.746 128.087 217.403 126.122C214.994 122.594 212.365 118.744 211.23 113.205C209.681 105.647 209.962 100.619 210.176 96.8061C210.356 93.5828 210.488 91.2281 209.424 88.9471C203.173 75.5421 182.79 62.0291 169.015 56.7911C167.763 56.3148 165.123 53.086 161.835 49.0633C155.797 41.6764 147.571 31.6126 141.727 31.0001C141.727 31.0001 145.928 59.7261 141.551 57.5161C138.591 56.0216 135.331 53.9003 132.042 51.7593L132.042 51.7593C125.318 47.3836 118.468 42.9252 113.785 43.5651C113.785 43.5651 131.696 54.5261 121.55 58.3191C106.671 63.8811 85.6209 76.4371 78.9529 89.7031C77.8926 91.813 78.4791 94.1942 79.21 97.1617C80.1818 101.107 81.4088 106.089 79.3599 112.847C78.0889 117.04 75.9338 120.806 73.8582 124.434ZM260.146 354.261L249.6 283H208.146L224.994 350.535V410.986L231.523 435L260.146 354.261ZM175.838 189.348C174.806 189.485 174.107 190.442 174.244 191.473C174.547 193.803 174.858 196.129 175.169 198.456C175.33 199.66 175.491 200.863 175.651 202.067C175.8 203.156 176.811 203.935 177.901 203.785C178.989 203.636 179.737 202.625 179.588 201.535C179.353 199.87 179.084 198.208 178.816 196.546L178.816 196.546L178.816 196.546L178.816 196.545C178.516 194.69 178.217 192.834 177.963 190.973C177.826 189.941 176.87 189.211 175.838 189.348Z" fill="#E9994F"/>
<path d="M69.8379 146.357L66.9453 147.702L66.9454 147.702L69.8379 146.357ZM73.8582 124.434L76.6268 126.018L76.6268 126.018L73.8582 124.434ZM75.63 157.076L75.4345 160.26C76.6252 160.333 77.7572 159.735 78.3688 158.711C78.9803 157.687 78.9693 156.407 78.3401 155.393L75.63 157.076ZM74.5569 157.004L74.3187 160.185L74.3247 160.186L74.5569 157.004ZM71.7129 159.442L74.8938 159.68L74.8938 159.68L71.7129 159.442ZM74.1509 162.285L74.3965 159.105L74.389 159.104L74.1509 162.285ZM76.3563 162.423L76.5941 159.242C76.5738 159.241 76.5535 159.24 76.5332 159.238L76.3563 162.423ZM76.3569 162.423L76.1191 165.604C76.1394 165.606 76.1597 165.607 76.18 165.608L76.3569 162.423ZM79.3349 162.625L81.9273 160.766C81.3878 160.014 80.5482 159.533 79.6263 159.448L79.3349 162.625ZM111.671 190.581L113.219 193.37C114.258 192.793 114.891 191.686 114.86 190.497C114.828 189.309 114.139 188.237 113.071 187.715L111.671 190.581ZM111.545 190.651L109.999 187.861C109.978 187.872 109.958 187.884 109.938 187.895L111.545 190.651ZM111.544 190.651L113.091 193.441C113.111 193.429 113.132 193.418 113.152 193.406L111.544 190.651ZM108.588 192.817L111.045 194.851L111.046 194.85L108.588 192.817ZM108.307 196.661L106.135 198.998L106.136 198.998L108.307 196.661ZM111.976 196.831L111.103 193.763L111.103 193.763L111.976 196.831ZM112.025 196.817L111.155 193.748L111.152 193.749L112.025 196.817ZM112.208 196.756L111.13 193.754L111.129 193.754L112.208 196.756ZM112.401 196.692L112.855 193.535C112.42 193.472 111.977 193.5 111.554 193.617L112.401 196.692ZM112.608 196.739L113.449 193.662L113.449 193.662L112.608 196.739ZM112.807 196.785L113.314 193.636L113.311 193.636L112.807 196.785ZM118.967 196.781L122.155 196.682C122.126 195.75 121.691 194.877 120.964 194.293C120.237 193.71 119.291 193.473 118.375 193.646L118.967 196.781ZM118.976 197.062L115.788 197.169L115.788 197.169L118.976 197.062ZM118.963 198.785L122.136 199.111L122.136 199.11L118.963 198.785ZM118.567 200.367L115.531 199.386L115.531 199.386L118.567 200.367ZM118.463 200.692L115.418 199.741L115.418 199.742L118.463 200.692ZM117.611 203.329L114.58 202.333C114.576 202.348 114.571 202.363 114.566 202.378L117.611 203.329ZM117.611 203.329L120.641 204.326C120.646 204.311 120.651 204.296 120.655 204.281L117.611 203.329ZM117.611 203.33L120.639 204.33L120.641 204.326L117.611 203.33ZM117.61 203.332L114.581 202.332L114.579 202.336L117.61 203.332ZM117.338 204.161L114.306 203.17L114.306 203.171L117.338 204.161ZM116.953 205.077L119.844 206.426L119.844 206.426L116.953 205.077ZM116.463 207.348L113.368 208.121L113.368 208.122L116.463 207.348ZM117.338 208.567L115.676 211.29C115.683 211.294 115.689 211.298 115.696 211.302L117.338 208.567ZM117.775 208.754L116.846 211.806C116.862 211.81 116.878 211.815 116.894 211.82L117.775 208.754ZM117.79 208.761L116.339 211.601L116.343 211.603L117.79 208.761ZM117.812 208.772L116.274 211.567L116.274 211.567L117.812 208.772ZM117.838 208.785L120.862 209.798L120.864 209.794L117.838 208.785ZM117.838 208.774L121.006 208.399C121.004 208.384 121.003 208.37 121.001 208.355L117.838 208.774ZM117.838 208.77L121 208.352C120.999 208.344 120.998 208.337 120.997 208.33L117.838 208.77ZM117.838 208.754L119.328 205.934C118.484 205.488 117.486 205.443 116.606 205.812C115.726 206.18 115.057 206.924 114.783 207.837L117.838 208.754ZM118.401 208.848L118.361 212.038L118.363 212.038L118.401 208.848ZM121.446 205.908L118.604 204.462L118.603 204.464L121.446 205.908ZM121.525 205.754L118.685 204.301L118.682 204.307L121.525 205.754ZM122.158 201.471L118.977 201.71L118.977 201.71L122.158 201.471ZM122.151 201.379L119.1 200.449C118.984 200.827 118.94 201.223 118.97 201.618L122.151 201.379ZM122.324 200.84L119.294 199.844L119.294 199.844L122.324 200.84ZM122.744 199.192L119.573 198.843L119.573 198.844L122.744 199.192ZM122.737 197.256L119.553 197.448L119.553 197.448L122.737 197.256ZM122.713 195.504L121.194 192.699C120.245 193.213 119.62 194.173 119.533 195.249L122.713 195.504ZM122.945 195.361L121.399 192.571C121.306 192.623 121.215 192.68 121.127 192.741L122.945 195.361ZM123.343 195.131L124.249 192.073C123.39 191.818 122.464 191.937 121.697 192.399L123.343 195.131ZM210.328 163.31L208.084 161.043L208.083 161.044L210.328 163.31ZM224.045 159.342L224.271 162.524C225.589 162.43 226.712 161.534 227.097 160.27C227.481 159.007 227.047 157.637 226.005 156.825L224.045 159.342ZM214.29 145.553L217.071 147.115L217.071 147.115L214.29 145.553ZM229.197 145.94L228.379 149.023C229.649 149.36 230.996 148.884 231.771 147.824C232.547 146.764 232.593 145.336 231.888 144.228L229.197 145.94ZM220.929 131.955L223.833 130.636L223.833 130.636L220.929 131.955ZM217.403 126.122L214.769 127.921L214.769 127.921L217.403 126.122ZM211.23 113.205L208.105 113.845L208.105 113.846L211.23 113.205ZM210.176 96.8061L206.991 96.628L206.991 96.628L210.176 96.8061ZM209.424 88.9471L206.533 90.2952L206.533 90.2953L209.424 88.9471ZM169.015 56.7911L167.881 59.7725L167.881 59.7726L169.015 56.7911ZM161.835 49.0633L164.305 47.0446L164.305 47.0446L161.835 49.0633ZM141.727 31.0001L142.059 27.8277C141.08 27.7251 140.108 28.0806 139.426 28.7911C138.744 29.5015 138.428 30.4872 138.571 31.4617L141.727 31.0001ZM141.551 57.5161L142.989 54.6687L142.989 54.6687L141.551 57.5161ZM132.042 51.7593L130.302 54.4327L130.302 54.4327L132.042 51.7593ZM113.785 43.5651L113.353 40.4047C112.017 40.5873 110.94 41.5906 110.663 42.9105C110.386 44.2305 110.97 45.5819 112.12 46.2859L113.785 43.5651ZM121.55 58.3191L122.667 61.307L122.667 61.307L121.55 58.3191ZM78.9529 89.7031L76.1029 88.2706L76.1028 88.2708L78.9529 89.7031ZM79.21 97.1617L76.1128 97.9245L76.1128 97.9245L79.21 97.1617ZM79.3599 112.847L76.3073 111.922L76.3073 111.922L79.3599 112.847ZM249.6 283L252.756 282.533C252.524 280.969 251.182 279.81 249.6 279.81V283ZM260.146 354.261L263.152 355.327C263.326 354.836 263.378 354.31 263.301 353.794L260.146 354.261ZM208.146 283V279.81C207.164 279.81 206.237 280.263 205.632 281.036C205.028 281.81 204.813 282.819 205.051 283.772L208.146 283ZM224.994 350.535H228.184C228.184 350.275 228.152 350.015 228.089 349.763L224.994 350.535ZM224.994 410.986H221.805C221.805 411.268 221.842 411.55 221.916 411.822L224.994 410.986ZM231.523 435L228.444 435.837C228.81 437.183 230.009 438.135 231.403 438.188C232.797 438.24 234.063 437.381 234.529 436.066L231.523 435ZM174.244 191.473L177.407 191.061L177.406 191.053L174.244 191.473ZM175.838 189.348L176.258 192.51L176.258 192.51L175.838 189.348ZM175.169 198.456L172.008 198.879L172.008 198.879L175.169 198.456ZM175.651 202.067L172.489 202.487L172.49 202.5L175.651 202.067ZM177.901 203.785L177.468 200.625L177.466 200.625L177.901 203.785ZM179.588 201.535L182.748 201.103C182.748 201.098 182.747 201.094 182.746 201.089L179.588 201.535ZM178.816 196.546L181.965 196.038C181.964 196.033 181.963 196.027 181.962 196.022L178.816 196.546ZM178.816 196.546L175.661 197.019C175.664 197.036 175.667 197.054 175.67 197.071L178.816 196.546ZM178.816 196.546L175.66 197.007L175.661 197.019L178.816 196.546ZM178.816 196.545L181.972 196.083C181.97 196.068 181.967 196.052 181.965 196.036L178.816 196.545ZM177.963 190.973L174.801 191.393L174.802 191.404L177.963 190.973ZM72.7305 145.013C69.6977 138.487 72.4233 133.365 76.6268 126.018L71.0895 122.85C67.1467 129.741 62.3376 137.788 66.9453 147.702L72.7305 145.013ZM78.3401 155.393C76.2336 152 74.3612 148.521 72.7305 145.013L66.9454 147.702C68.6828 151.439 70.6768 155.145 72.92 158.758L78.3401 155.393ZM74.3247 160.186C74.6971 160.213 75.0676 160.237 75.4345 160.26L75.8255 153.892C75.4758 153.87 75.1307 153.848 74.7891 153.823L74.3247 160.186ZM74.8938 159.68C74.87 159.998 74.603 160.206 74.3188 160.185L74.795 153.823C71.5988 153.584 68.7737 155.975 68.532 159.204L74.8938 159.68ZM74.389 159.104C74.7055 159.128 74.9152 159.394 74.8938 159.68L68.532 159.204C68.2926 162.4 70.6843 165.224 73.9127 165.466L74.389 159.104ZM76.5332 159.238C75.7808 159.197 75.0777 159.158 74.3965 159.105L73.9053 165.466C74.6671 165.524 75.4398 165.567 76.1794 165.608L76.5332 159.238ZM76.5947 159.242L76.5941 159.242L76.1185 165.604L76.1191 165.604L76.5947 159.242ZM79.6263 159.448C78.5652 159.351 77.5091 159.293 76.5338 159.238L76.18 165.608C77.1742 165.663 78.1158 165.716 79.0436 165.801L79.6263 159.448ZM113.071 187.715C100.341 181.495 89.8547 171.822 81.9273 160.766L76.7426 164.483C85.1801 176.251 96.4405 186.69 110.271 193.447L113.071 187.715ZM113.091 193.441C113.134 193.417 113.176 193.393 113.219 193.37L110.123 187.792C110.081 187.815 110.04 187.838 109.999 187.861L113.091 193.441ZM113.152 193.406L113.152 193.406L109.938 187.895L109.937 187.896L113.152 193.406ZM111.046 194.85C111.405 194.416 111.93 194.085 113.091 193.441L109.998 187.861C109.008 188.41 107.381 189.271 106.13 190.784L111.046 194.85ZM110.479 194.325C110.554 194.395 110.676 194.549 110.748 194.78C110.817 194.997 110.805 195.164 110.794 195.23C110.785 195.287 110.779 195.267 110.826 195.176C110.871 195.087 110.944 194.973 111.045 194.851L106.131 190.783C105.448 191.608 104.72 192.802 104.493 194.233C104.24 195.829 104.653 197.62 106.135 198.998L110.479 194.325ZM111.103 193.763C110.803 193.849 110.576 193.912 110.357 193.962C110.141 194.011 110.004 194.028 109.924 194.032C109.845 194.036 109.889 194.023 110.008 194.057C110.149 194.096 110.325 194.182 110.478 194.324L106.136 198.998C107.494 200.26 109.106 200.461 110.247 200.403C111.321 200.349 112.34 200.044 112.85 199.899L111.103 193.763ZM111.152 193.749L111.103 193.763L112.849 199.899L112.898 199.885L111.152 193.749ZM111.129 193.754C111.121 193.757 111.115 193.759 111.109 193.761C111.104 193.763 111.1 193.765 111.096 193.766C111.089 193.769 111.088 193.769 111.09 193.769C111.091 193.768 111.098 193.766 111.109 193.762C111.12 193.759 111.135 193.754 111.155 193.748L112.895 199.886C113.08 199.834 113.244 199.773 113.288 199.758L111.129 193.754ZM111.554 193.617C111.352 193.673 111.173 193.738 111.13 193.754L113.287 199.758C113.304 199.752 113.313 199.749 113.321 199.746C113.328 199.743 113.329 199.743 113.326 199.744C113.323 199.745 113.315 199.748 113.302 199.752C113.289 199.756 113.271 199.761 113.248 199.767L111.554 193.617ZM113.449 193.662C113.399 193.649 113.153 193.578 112.855 193.535L111.947 199.85C111.866 199.838 111.804 199.824 111.77 199.816C111.753 199.812 111.743 199.81 111.743 199.81C111.743 199.809 111.744 199.81 111.748 199.811C111.752 199.812 111.757 199.814 111.766 199.816L113.449 193.662ZM113.311 193.636C113.376 193.646 113.426 193.657 113.453 193.664C113.466 193.667 113.474 193.669 113.473 193.669C113.471 193.668 113.466 193.667 113.449 193.662L111.766 199.816C111.816 199.83 112.036 199.892 112.303 199.935L113.311 193.636ZM118.375 193.646C116.809 193.942 115.1 193.924 113.314 193.636L112.3 199.935C114.655 200.314 117.124 200.375 119.559 199.915L118.375 193.646ZM122.164 196.955C122.161 196.861 122.158 196.771 122.155 196.682L115.779 196.879C115.782 196.978 115.785 197.076 115.788 197.169L122.164 196.955ZM122.136 199.11C122.216 198.329 122.183 197.507 122.164 196.955L115.788 197.169C115.811 197.835 115.817 198.195 115.79 198.46L122.136 199.11ZM121.602 201.347C121.745 200.906 122.042 200.028 122.136 199.111L115.79 198.459C115.777 198.584 115.72 198.801 115.531 199.386L121.602 201.347ZM121.508 201.643C121.535 201.554 121.566 201.46 121.602 201.347L115.531 199.386C115.497 199.494 115.457 199.617 115.418 199.741L121.508 201.643ZM120.641 204.325C120.928 203.451 121.224 202.551 121.508 201.642L115.418 199.742C115.151 200.597 114.87 201.451 114.58 202.333L120.641 204.325ZM120.655 204.281L120.655 204.281L114.566 202.378L114.566 202.378L120.655 204.281ZM120.641 204.326L120.641 204.326L114.581 202.333L114.581 202.333L120.641 204.326ZM120.639 204.333L120.639 204.33L114.582 202.329L114.581 202.332L120.639 204.333ZM120.37 205.152C120.459 204.879 120.549 204.605 120.64 204.328L114.579 202.336C114.489 202.612 114.397 202.891 114.306 203.17L120.37 205.152ZM119.844 206.426C119.97 206.154 120.2 205.672 120.37 205.151L114.306 203.171C114.277 203.259 114.223 203.385 114.062 203.729L119.844 206.426ZM119.558 206.575C119.591 206.71 119.598 206.833 119.593 206.927C119.589 207.014 119.575 207.058 119.579 207.042C119.584 207.024 119.601 206.97 119.648 206.86C119.696 206.744 119.754 206.618 119.844 206.426L114.062 203.729C113.827 204.233 112.849 206.043 113.368 208.121L119.558 206.575ZM119 205.844C119.335 206.049 119.499 206.342 119.557 206.574L113.368 208.122C113.678 209.362 114.453 210.543 115.676 211.29L119 205.844ZM118.704 205.702C118.755 205.718 118.794 205.731 118.814 205.738C118.836 205.746 118.853 205.752 118.861 205.756C118.878 205.762 118.885 205.765 118.88 205.763C118.868 205.758 118.844 205.748 118.81 205.733C118.777 205.719 118.748 205.706 118.73 205.697C118.721 205.693 118.721 205.693 118.729 205.697C118.732 205.698 118.746 205.705 118.767 205.715C118.777 205.72 118.796 205.73 118.821 205.743C118.834 205.75 118.853 205.76 118.876 205.773C118.897 205.784 118.934 205.805 118.98 205.832L115.696 211.302C115.777 211.351 115.843 211.385 115.86 211.394C115.887 211.408 115.91 211.42 115.924 211.426C115.951 211.44 115.974 211.451 115.988 211.458C116.018 211.472 116.048 211.486 116.073 211.497C116.125 211.521 116.186 211.548 116.249 211.576C116.285 211.592 116.581 211.725 116.846 211.806L118.704 205.702ZM119.24 205.92C119.21 205.904 119.154 205.876 119.084 205.845C119.036 205.823 118.873 205.751 118.656 205.688L116.894 211.82C116.773 211.785 116.678 211.75 116.622 211.728C116.561 211.705 116.512 211.683 116.479 211.668C116.413 211.639 116.363 211.614 116.339 211.601L119.24 205.92ZM119.349 205.977C119.346 205.976 119.332 205.968 119.316 205.96C119.301 205.951 119.272 205.936 119.237 205.918L116.343 211.603C116.314 211.589 116.293 211.577 116.285 211.573C116.276 211.568 116.27 211.565 116.274 211.567L119.349 205.977ZM114.813 207.772C115.253 206.459 116.327 205.884 117.026 205.7C117.614 205.546 118.095 205.602 118.256 205.623C118.628 205.672 118.904 205.779 118.954 205.798C119.125 205.861 119.252 205.927 119.265 205.933C119.323 205.963 119.376 205.992 119.349 205.977L116.274 211.567C116.276 211.568 116.289 211.576 116.304 211.584C116.317 211.59 116.351 211.609 116.395 211.631C116.412 211.64 116.543 211.707 116.717 211.772C116.768 211.791 117.046 211.898 117.418 211.947C117.58 211.969 118.061 212.025 118.649 211.87C119.349 211.686 120.422 211.112 120.862 209.798L114.813 207.772ZM114.671 209.149C114.663 209.087 114.645 208.922 114.65 208.708C114.655 208.489 114.685 208.158 114.812 207.776L120.864 209.794C121.104 209.075 121.014 208.463 121.006 208.399L114.671 209.149ZM114.676 209.188L114.676 209.192L121.001 208.355L121 208.352L114.676 209.188ZM114.783 207.837C114.647 208.288 114.642 208.669 114.649 208.879C114.653 208.988 114.662 209.076 114.668 209.127C114.671 209.154 114.674 209.176 114.676 209.189C114.677 209.196 114.677 209.201 114.678 209.205C114.678 209.206 114.678 209.208 114.678 209.209C114.679 209.21 114.679 209.21 114.679 209.211L120.997 208.33C120.993 208.297 121.018 208.457 121.025 208.645C121.032 208.85 121.027 209.225 120.893 209.671L114.783 207.837ZM118.441 205.658C118.558 205.66 118.622 205.672 118.64 205.676C118.655 205.679 118.691 205.686 118.747 205.701C118.774 205.708 118.827 205.723 118.895 205.746C118.93 205.758 118.982 205.777 119.044 205.802C119.101 205.825 119.203 205.868 119.328 205.934L116.348 211.574C116.71 211.766 117.052 211.851 117.082 211.859C117.212 211.894 117.34 211.923 117.459 211.945C117.685 211.988 118.004 212.033 118.361 212.038L118.441 205.658ZM118.603 204.464C118.448 204.768 118.318 205.022 118.177 205.265C118.036 205.507 117.921 205.673 117.832 205.78C117.739 205.89 117.732 205.868 117.829 205.811C117.953 205.739 118.172 205.655 118.438 205.658L118.363 212.038C120.512 212.063 121.949 210.801 122.724 209.874C123.49 208.959 124.02 207.885 124.29 207.353L118.603 204.464ZM118.682 204.307L118.604 204.462L124.289 207.355L124.368 207.201L118.682 204.307ZM118.977 201.71C119.06 202.817 119.071 203.136 119.042 203.38C119.03 203.484 119.005 203.676 118.685 204.301L124.365 207.207C124.877 206.205 125.244 205.259 125.378 204.13C125.495 203.141 125.406 202.133 125.339 201.233L118.977 201.71ZM118.97 201.618L118.977 201.71L125.339 201.233L125.332 201.14L118.97 201.618ZM119.294 199.844C119.236 200.017 119.166 200.23 119.1 200.449L125.202 202.309C125.245 202.168 125.293 202.022 125.354 201.837L119.294 199.844ZM119.573 198.844C119.555 199.011 119.493 199.237 119.294 199.844L125.354 201.837C125.514 201.351 125.811 200.485 125.915 199.54L119.573 198.844ZM119.553 197.448C119.594 198.14 119.609 198.514 119.573 198.843L125.915 199.541C126.02 198.582 125.957 197.664 125.921 197.064L119.553 197.448ZM119.533 195.249C119.466 196.091 119.52 196.901 119.553 197.448L125.921 197.064C125.883 196.44 125.867 196.08 125.892 195.759L119.533 195.249ZM121.127 192.741C121.153 192.722 121.176 192.709 121.194 192.699L124.231 198.309C124.411 198.212 124.59 198.103 124.764 197.982L121.127 192.741ZM121.697 192.399C121.598 192.459 121.499 192.516 121.399 192.571L124.492 198.151C124.659 198.059 124.825 197.963 124.99 197.863L121.697 192.399ZM144.988 195.04C137.606 195.04 130.687 193.98 124.249 192.073L122.437 198.19C129.459 200.27 136.988 201.42 144.988 201.42V195.04ZM208.083 161.044C200.928 168.13 190.14 176.695 178.542 183.471C166.854 190.298 154.794 195.04 144.988 195.04V201.42C156.519 201.42 169.784 195.975 181.76 188.979C193.825 181.931 205.039 173.036 212.572 165.577L208.083 161.044ZM224.045 159.342C223.819 156.16 223.818 156.16 223.818 156.16C223.817 156.16 223.817 156.16 223.816 156.161C223.815 156.161 223.814 156.161 223.813 156.161C223.811 156.161 223.808 156.161 223.804 156.161C223.796 156.162 223.786 156.163 223.774 156.164C223.749 156.166 223.714 156.168 223.67 156.172C223.583 156.179 223.458 156.189 223.3 156.204C222.984 156.232 222.536 156.277 221.991 156.34C220.904 156.467 219.41 156.672 217.797 156.986C216.196 157.298 214.407 157.732 212.755 158.332C211.17 158.909 209.389 159.751 208.084 161.043L212.572 165.577C212.895 165.257 213.642 164.798 214.935 164.328C216.16 163.882 217.596 163.525 219.018 163.248C220.427 162.973 221.752 162.791 222.728 162.677C223.215 162.621 223.609 162.582 223.878 162.557C224.013 162.545 224.116 162.536 224.183 162.531C224.216 162.528 224.241 162.526 224.256 162.525C224.263 162.524 224.268 162.524 224.271 162.524C224.272 162.524 224.273 162.524 224.273 162.524C224.273 162.524 224.273 162.524 224.272 162.524C224.272 162.524 224.272 162.524 224.272 162.524C224.272 162.524 224.271 162.524 224.045 159.342ZM211.509 143.991C210.047 146.593 211.083 149.355 211.982 151.032C212.98 152.894 214.498 154.723 215.939 156.251C217.408 157.81 218.94 159.207 220.092 160.204C220.671 160.706 221.161 161.114 221.51 161.398C221.685 161.541 221.825 161.653 221.922 161.731C221.971 161.769 222.01 161.8 222.037 161.821C222.051 161.832 222.062 161.841 222.07 161.847C222.074 161.85 222.077 161.853 222.08 161.855C222.081 161.856 222.082 161.856 222.083 161.857C222.083 161.858 222.084 161.858 222.084 161.858C222.085 161.858 222.085 161.859 224.045 159.342C226.005 156.825 226.005 156.826 226.005 156.826C226.005 156.826 226.006 156.826 226.006 156.826C226.006 156.826 226.006 156.826 226.006 156.826C226.005 156.826 226.004 156.825 226.002 156.823C225.999 156.821 225.992 156.815 225.983 156.808C225.964 156.794 225.935 156.77 225.895 156.739C225.816 156.676 225.696 156.58 225.543 156.454C225.235 156.204 224.794 155.837 224.269 155.383C223.213 154.468 221.853 153.225 220.581 151.875C219.28 150.495 218.209 149.146 217.605 148.018C216.901 146.706 217.323 146.667 217.071 147.115L211.509 143.991ZM229.197 145.94C230.014 142.857 230.014 142.857 230.013 142.857C230.013 142.857 230.013 142.856 230.012 142.856C230.011 142.856 230.01 142.856 230.009 142.855C230.006 142.855 230.003 142.854 229.999 142.853C229.99 142.85 229.979 142.847 229.964 142.844C229.935 142.836 229.893 142.825 229.84 142.812C229.734 142.784 229.582 142.746 229.39 142.699C229.006 142.604 228.46 142.474 227.801 142.329C226.49 142.039 224.701 141.681 222.833 141.423C221.002 141.17 218.933 140.99 217.12 141.123C216.217 141.19 215.219 141.345 214.291 141.7C213.373 142.051 212.225 142.717 211.509 143.991L217.071 147.115C216.791 147.614 216.435 147.71 216.571 147.658C216.696 147.61 217.013 147.528 217.589 147.486C218.735 147.401 220.284 147.511 221.961 147.743C223.602 147.969 225.213 148.29 226.425 148.558C227.027 148.691 227.523 148.809 227.866 148.894C228.037 148.936 228.17 148.969 228.257 148.992C228.301 149.003 228.334 149.011 228.354 149.017C228.365 149.019 228.372 149.021 228.376 149.023C228.378 149.023 228.38 149.023 228.38 149.024C228.38 149.024 228.381 149.024 228.38 149.024C228.38 149.024 228.38 149.024 228.38 149.024C228.38 149.024 228.379 149.023 229.197 145.94ZM218.025 133.274C218.906 135.216 221.092 138.896 222.928 141.905C223.872 143.451 224.766 144.886 225.423 145.934C225.751 146.459 226.021 146.887 226.21 147.185C226.304 147.334 226.377 147.45 226.428 147.529C226.453 147.569 226.472 147.599 226.485 147.62C226.492 147.63 226.497 147.638 226.5 147.644C226.502 147.646 226.503 147.648 226.504 147.65C226.505 147.651 226.505 147.651 226.505 147.652C226.505 147.652 226.505 147.652 226.505 147.652C226.506 147.652 226.506 147.652 229.197 145.94C231.888 144.228 231.888 144.228 231.888 144.228C231.888 144.228 231.888 144.228 231.888 144.228C231.888 144.228 231.888 144.227 231.887 144.227C231.887 144.225 231.886 144.224 231.884 144.221C231.881 144.217 231.876 144.209 231.87 144.2C231.858 144.18 231.839 144.151 231.815 144.113C231.766 144.036 231.695 143.923 231.602 143.777C231.418 143.485 231.152 143.063 230.828 142.547C230.18 141.512 229.301 140.099 228.373 138.58C226.468 135.46 224.519 132.147 223.833 130.636L218.025 133.274ZM214.769 127.921C216.143 129.933 217.25 131.568 218.025 133.274L223.833 130.636C222.789 128.338 221.348 126.242 220.038 124.323L214.769 127.921ZM208.105 113.846C209.383 120.078 212.365 124.4 214.769 127.921L220.038 124.323C217.623 120.788 215.348 117.41 214.355 112.565L208.105 113.846ZM206.991 96.628C206.772 100.534 206.474 105.884 208.105 113.845L214.355 112.565C212.889 105.409 213.152 100.704 213.361 96.9842L206.991 96.628ZM206.533 90.2953C207.197 91.7186 207.182 93.2178 206.991 96.628L213.361 96.9843C213.53 93.9478 213.779 90.7377 212.315 87.5989L206.533 90.2953ZM167.881 59.7726C174.461 62.2744 182.74 66.8086 190.125 72.3568C197.573 77.9519 203.737 84.2988 206.533 90.2952L212.315 87.599C208.86 80.1904 201.707 73.0783 193.957 67.2562C186.144 61.3872 177.344 56.5458 170.149 53.8096L167.881 59.7726ZM159.366 51.082C160.993 53.0728 162.526 54.9502 163.813 56.3859C164.456 57.1038 165.089 57.7687 165.679 58.3067C166.189 58.7707 166.965 59.4243 167.881 59.7725L170.149 53.8097C170.438 53.9198 170.415 53.9911 169.975 53.5901C169.616 53.263 169.148 52.7799 168.564 52.1283C167.396 50.8248 165.966 49.0765 164.305 47.0446L159.366 51.082ZM141.394 34.1725C142.096 34.246 143.189 34.6601 144.694 35.6816C146.155 36.6727 147.763 38.0691 149.461 39.7551C152.864 43.1328 156.324 47.3604 159.366 51.082L164.305 47.0446C161.309 43.3792 157.637 38.8815 153.956 35.2275C152.112 33.3976 150.191 31.7016 148.276 30.4026C146.407 29.1341 144.28 28.0604 142.059 27.8277L141.394 34.1725ZM140.113 60.3636C140.988 60.8051 142.229 61.067 143.521 60.5188C144.68 60.0268 145.311 59.1132 145.634 58.5043C146.256 57.3308 146.486 55.8398 146.601 54.6009C146.849 51.9372 146.715 48.329 146.462 44.8551C146.205 41.3304 145.81 37.7521 145.481 35.0664C145.316 33.7207 145.167 32.5929 145.06 31.7999C145.006 31.4034 144.962 31.0902 144.931 30.8752C144.916 30.7677 144.904 30.6846 144.896 30.6279C144.892 30.5996 144.889 30.5778 144.887 30.5628C144.886 30.5553 144.885 30.5495 144.884 30.5455C144.884 30.5435 144.884 30.5419 144.883 30.5407C144.883 30.5401 144.883 30.5396 144.883 30.5393C144.883 30.5389 144.883 30.5385 141.727 31.0001C138.571 31.4617 138.571 31.4616 138.571 31.4616C138.571 31.4618 138.571 31.4619 138.571 31.4622C138.571 31.4627 138.571 31.4638 138.571 31.4652C138.572 31.4681 138.572 31.4727 138.573 31.4791C138.575 31.4917 138.578 31.5111 138.582 31.537C138.589 31.5889 138.6 31.6669 138.615 31.7692C138.644 31.9739 138.686 32.2757 138.738 32.6603C138.843 33.4297 138.988 34.5288 139.149 35.8416C139.471 38.473 139.853 41.9381 140.099 45.3187C140.349 48.75 140.444 51.9089 140.249 54.0098C140.143 55.1532 139.983 55.5438 139.996 55.5182C140.015 55.4833 140.288 54.9603 141.028 54.6463C141.9 54.276 142.661 54.5034 142.989 54.6687L140.113 60.3636ZM130.302 54.4327C133.549 56.5464 136.965 58.7743 140.113 60.3636L142.989 54.6687C140.216 53.2689 137.113 51.2542 133.781 49.0858L130.302 54.4327ZM114.217 46.7255C115.522 46.5472 117.64 47.0817 120.712 48.6299C123.663 50.1166 126.9 52.219 130.302 54.4327L133.781 49.0858C130.46 46.9238 126.91 44.6092 123.583 42.9328C120.379 41.3179 116.731 39.9431 113.353 40.4047L114.217 46.7255ZM122.667 61.307C124.273 60.7066 125.731 59.8193 126.71 58.4705C127.755 57.0313 128.009 55.4078 127.766 53.9045C127.338 51.2597 125.369 48.9082 123.729 47.2659C121.947 45.4804 119.865 43.8749 118.28 42.742C117.477 42.1683 116.78 41.7001 116.28 41.3734C116.029 41.2098 115.828 41.081 115.686 40.9914C115.615 40.9467 115.559 40.9116 115.519 40.887C115.499 40.8746 115.483 40.8648 115.472 40.8577C115.466 40.8542 115.461 40.8513 115.458 40.849C115.456 40.8479 115.454 40.847 115.453 40.8462C115.452 40.8458 115.452 40.8454 115.451 40.8452C115.451 40.8447 115.45 40.8444 113.785 43.5651C112.12 46.2859 112.119 46.2856 112.119 46.2853C112.119 46.2853 112.119 46.2851 112.119 46.285C112.118 46.2849 112.118 46.285 112.119 46.2852C112.12 46.2856 112.121 46.2867 112.124 46.2884C112.13 46.2919 112.139 46.2979 112.153 46.3064C112.181 46.3234 112.224 46.3504 112.282 46.3869C112.397 46.4597 112.57 46.5701 112.79 46.7136C113.23 47.0012 113.852 47.419 114.57 47.9321C116.026 48.9729 117.788 50.3448 119.215 51.7736C120.785 53.3457 121.391 54.4456 121.468 54.9227C121.477 54.9804 121.466 54.8356 121.548 54.7219C121.565 54.6984 121.364 54.9834 120.433 55.3313L122.667 61.307ZM81.8029 91.1357C84.7754 85.2219 91.1751 79.1385 98.9845 73.7471C106.718 68.4081 115.466 63.9988 122.667 61.307L120.433 55.3313C112.755 58.2014 103.538 62.8512 95.3601 68.4971C87.2577 74.0907 79.7984 80.9184 76.1029 88.2706L81.8029 91.1357ZM82.3073 96.3988C81.9253 94.8482 81.6678 93.7703 81.5879 92.8383C81.5145 91.9818 81.62 91.4996 81.803 91.1355L76.1028 88.2708C75.2255 90.0165 75.0942 91.7799 75.2316 93.3833C75.3626 94.9113 75.7638 96.5077 76.1128 97.9245L82.3073 96.3988ZM82.4125 113.773C84.7264 106.141 83.3016 100.436 82.3073 96.3988L76.1128 97.9245C77.062 101.778 78.0913 106.037 76.3073 111.922L82.4125 113.773ZM76.6268 126.018C78.6745 122.439 81.0199 118.366 82.4125 113.772L76.3073 111.922C75.158 115.713 73.1932 119.173 71.0895 122.85L76.6268 126.018ZM246.445 283.467L256.99 354.728L263.301 353.794L252.756 282.533L246.445 283.467ZM208.146 286.19H249.6V279.81H208.146V286.19ZM228.089 349.763L211.241 282.228L205.051 283.772L221.9 351.307L228.089 349.763ZM228.184 410.986V350.535H221.805V410.986H228.184ZM234.601 434.163L228.073 410.149L221.916 411.822L228.444 435.837L234.601 434.163ZM257.139 353.196L228.516 433.934L234.529 436.066L263.152 355.327L257.139 353.196ZM177.406 191.053C177.49 191.686 177.053 192.405 176.258 192.51L175.418 186.186C172.558 186.566 170.724 189.198 171.082 191.893L177.406 191.053ZM178.331 198.034C178.02 195.706 177.709 193.385 177.407 191.061L171.081 191.885C171.385 194.221 171.697 196.553 172.008 198.879L178.331 198.034ZM178.813 201.647C178.653 200.442 178.492 199.237 178.331 198.034L172.008 198.879C172.168 200.082 172.329 201.284 172.489 202.487L178.813 201.647ZM177.466 200.625C178.149 200.531 178.725 201.004 178.811 201.635L172.49 202.5C172.875 205.308 175.473 207.339 178.336 206.945L177.466 200.625ZM176.427 201.967C176.344 201.36 176.763 200.721 177.468 200.625L178.334 206.945C181.214 206.551 183.129 203.89 182.748 201.103L176.427 201.967ZM175.667 197.055C175.936 198.722 176.199 200.353 176.429 201.981L182.746 201.089C182.506 199.387 182.232 197.695 181.965 196.038L175.667 197.055ZM175.67 197.071L175.67 197.071L181.962 196.022L181.962 196.022L175.67 197.071ZM175.661 197.019L175.661 197.019L181.97 196.073L181.97 196.072L175.661 197.019ZM175.66 197.007L175.66 197.007L181.972 196.084L181.972 196.083L175.66 197.007ZM174.802 191.404C175.062 193.31 175.368 195.204 175.667 197.053L181.965 196.036C181.664 194.175 181.371 192.358 181.123 190.542L174.802 191.404ZM176.258 192.51C175.548 192.604 174.896 192.112 174.801 191.393L181.125 190.553C180.755 187.77 178.192 185.818 175.418 186.186L176.258 192.51Z" fill="#E9994F"/>
<path d="M206.547 169L181.547 187.5V202.5L185.547 218L172.547 225.5L151.547 233.5L124.047 225.5L107.047 191.5L95.5466 184.5L82.0466 169H206.547Z" fill="#D9D9D9"/>
<path d="M234.246 145.281C233.047 161 218.238 169.616 195.046 173.5C171.855 177.384 148.093 168.234 146.547 159C150.046 149 166.355 143.384 189.546 139.5C212.738 135.616 230.047 142.5 234.246 145.281Z" fill="#D9D9D9"/>
<path d="M67.8213 153.66C86.7831 174.832 85.3784 174.446 105.401 177.253C125.424 180.061 158.656 173.42 160.047 163.5C157.08 153.053 130.377 143.546 110.354 140.738C90.3316 137.931 62.9436 148.214 67.8213 153.66Z" fill="#D9D9D9"/>
<path d="M101.874 205.423C101.874 205.423 148.963 262.723 198.425 203.73C198.425 203.73 218.371 201.482 240.463 219.223L266.463 298.223L221.197 305.124L220.247 261.31L223.225 398.628L229.463 436.723L68.4629 448.723L81.9108 376.637L76.9019 262.723L77.9693 287L68.6459 279.5L52.1459 245L62.4629 219.223L101.874 205.423Z" fill="#53B84A"/>
<path d="M142.463 147.723L146.388 151.661C146.388 151.661 149.592 149.3 150.963 147.723" stroke="#823F4B" stroke-width="8" stroke-miterlimit="10" stroke-linecap="round" stroke-linejoin="round"/>
<path d="M146.972 162C146.972 162 146.972 162 141.169 162C141.169 162 140.376 169.45 148.03 169.969C155.684 170.487 150.317 164.44 150.317 164.44C147.26 162.296 146.972 162 146.972 162Z" fill="#541F17"/>
<path d="M181.386 125.591C180.784 123.99 181.112 122.386 182.119 122.007C183.126 121.629 184.43 122.619 185.032 124.22C185.634 125.821 185.305 127.425 184.298 127.804C183.292 128.182 181.988 127.192 181.386 125.591Z" fill="#E9994F"/>
<path d="M136.047 137C136.047 137 111.089 132.961 85.6601 132.961C79.6254 130.489 119.698 95.8928 136.047 137Z" fill="white" stroke="#2D2145" stroke-width="1.5" stroke-miterlimit="10" stroke-linejoin="round"/>
<path d="M103.173 131.048C91.5686 115.168 131.706 115.915 117.057 131.048L103.173 131.048Z" fill="#000002" stroke="#000002" stroke-opacity="0.918919" stroke-width="5.88512" stroke-miterlimit="10" stroke-linecap="round" stroke-linejoin="round"/>
<path d="M109.435 125.386C110.991 125.081 112.276 123.744 112.305 122.399C112.333 121.053 111.096 120.209 109.541 120.513C107.984 120.817 106.701 122.155 106.671 123.5C106.642 124.846 107.879 125.69 109.435 125.386Z" fill="white"/>
<path d="M210.047 130.271C210.047 130.271 185.547 132 161.505 136.146C155.326 135.028 186.991 95.7115 210.047 130.271Z" fill="white" stroke="#2D2145" stroke-width="1.5" stroke-miterlimit="10" stroke-linejoin="round"/>
<path d="M177.926 131.424C163.982 118.641 202.546 112.5 192.546 128.5L177.926 131.424Z" fill="#000002" stroke="#000002" stroke-opacity="0.918919" stroke-width="5.88512" stroke-miterlimit="10" stroke-linecap="round" stroke-linejoin="round"/>
<path d="M181.918 125.694C183.639 124.984 184.811 123.148 184.534 121.592C184.256 120.034 182.636 119.348 180.915 120.056C179.192 120.766 178.022 122.604 178.298 124.16C178.575 125.717 180.196 126.404 181.918 125.694Z" fill="white"/>
<path d="M198.079 138.31C198.079 138.232 198.142 138.169 198.219 138.169C198.297 138.169 198.36 138.232 198.36 138.31C198.36 138.387 198.297 138.45 198.219 138.45C198.142 138.45 198.079 138.387 198.079 138.31Z" fill="#E9994F" stroke="#000002" stroke-width="0.706675" stroke-miterlimit="10" stroke-linejoin="round"/>
<path d="M177.858 147.578C177.858 147.5 177.921 147.437 177.998 147.437C178.076 147.437 178.139 147.5 178.139 147.578C178.139 147.655 178.076 147.718 177.998 147.718C177.921 147.718 177.858 147.655 177.858 147.578Z" fill="#E9994F" stroke="#000002" stroke-width="0.706675" stroke-miterlimit="10" stroke-linejoin="round"/>
<path d="M187.407 146.595C187.407 146.44 187.47 146.314 187.547 146.314C187.625 146.314 187.688 146.44 187.688 146.595C187.688 146.75 187.625 146.876 187.547 146.876C187.47 146.876 187.407 146.75 187.407 146.595Z" fill="#E9994F" stroke="#000002" stroke-width="0.706675" stroke-miterlimit="10" stroke-linejoin="round"/>
<path d="M128.991 144.91C128.991 144.91 129.053 144.91 129.131 144.91C129.208 144.91 129.271 144.91 129.271 144.91" stroke="#000002" stroke-width="0.492477" stroke-miterlimit="10" stroke-linecap="round" stroke-linejoin="round"/>
<path d="M111.859 149.965C111.859 149.965 112.047 149.965 112.28 149.965C112.513 149.965 112.701 149.965 112.701 149.965" stroke="#000002" stroke-width="1.78404" stroke-miterlimit="10" stroke-linecap="round" stroke-linejoin="round"/>
<path d="M96.4119 153.335C96.4119 153.18 96.475 153.054 96.553 153.054C96.63 153.054 96.6929 153.18 96.6929 153.335C96.6929 153.49 96.63 153.616 96.553 153.616C96.475 153.616 96.4119 153.49 96.4119 153.335Z" stroke="#000002" stroke-width="1.78404" stroke-miterlimit="10" stroke-linecap="round" stroke-linejoin="round"/>
<path d="M129.833 148.701C129.833 148.624 129.896 148.561 129.973 148.561C130.051 148.561 130.114 148.624 130.114 148.701C130.114 148.779 130.051 148.842 129.973 148.842C129.896 148.842 129.833 148.779 129.833 148.701Z" stroke="#000002" stroke-width="1.78404" stroke-miterlimit="10" stroke-linecap="round" stroke-linejoin="round"/>
<path d="M163.069 156.402C163.069 156.36 163.325 156.326 163.64 156.326C163.956 156.326 164.212 156.36 164.212 156.402C164.212 156.444 163.956 156.478 163.64 156.478C163.325 156.478 163.069 156.444 163.069 156.402Z" stroke="#000002" stroke-width="1.78404" stroke-miterlimit="10" stroke-linecap="round" stroke-linejoin="round"/>
<path d="M138.047 166C135.803 163.118 140.547 164.5 147.047 160.453C147.047 160.453 154.646 165.618 160.547 163C166.448 160.382 177.547 154.5 155.547 167.047C155.547 167.047 140.29 168.882 138.047 166Z" fill="#1C0D0D"/>
<path d="M147.047 156L147.047 160.453M147.047 160.453C140.547 164.5 135.803 163.118 138.047 166C140.29 168.882 155.547 167.047 155.547 167.047C177.547 154.5 166.448 160.382 160.547 163C154.646 165.618 147.047 160.453 147.047 160.453Z" stroke="black"/>
<path d="M104.17 102.982C104.17 102.982 111.366 101.326 116.042 101.924C120.719 102.522 127.983 105.139 127.983 105.139" stroke="#82573F" stroke-width="5" stroke-linecap="round"/>
<path d="M166.52 106.945C166.52 106.945 173.083 103.562 177.763 102.987C182.443 102.411 190.127 103.153 190.127 103.153" stroke="#82573F" stroke-width="5" stroke-linecap="round"/>
<path d="M139.146 195L150.646 203.5" stroke="#ADADAD"/>
<path d="M143.646 187L154.646 196.5" stroke="#ADADAD"/>
<path d="M154.309 216.378C154.309 216.378 153.27 219.192 139.299 210.837C125.329 202.481 85.3394 290.583 85.3394 290.583C72.9707 309.197 63.2266 315.349 42.895 321.816L31.1686 317.487C30.6077 296.114 32.3216 284.342 46.4654 264.505L113.999 195.633L135.373 175.276L167.124 181.668C167.124 181.668 187.344 187.534 178.526 191.208C169.708 194.881 142.503 184.837 142.503 184.837L163.141 192.456L159.158 203.245L154.309 216.378Z" fill="#E9984F" stroke="#634923"/>
<path d="M67.5463 175.5C76.0463 177.167 93.5463 180.4 95.5463 180L82.0463 168L67.5463 175.5Z" fill="#D9D9D9"/>
<path d="M56.0463 156L72.5463 148L90.0463 170.5C85.213 169.167 68.9463 166.1 66.5463 164.5C64.1463 162.9 58.5463 158.167 56.0463 156Z" fill="#D9D9D9"/>
<path d="M209.546 177.5C202.88 181.5 179.046 192.5 179.046 192.5L191.546 170.5L209.546 177.5Z" fill="#D9D9D9"/>
<path d="M222.546 171L193.546 180L207.046 167L222.546 171Z" fill="#D9D9D9"/>
<path d="M233.046 164.5L228.546 150L222.046 164.5H233.046Z" fill="#D9D9D9"/>
<ellipse cx="148.046" cy="87.5" rx="18" ry="2.5" fill="#82573F"/>
<ellipse cx="148.046" cy="87.5" rx="18" ry="2.5" fill="#82573F"/>
<ellipse cx="148.046" cy="87.5" rx="18" ry="2.5" fill="#82573F"/>
<path d="M176.046 77C176.046 78.3807 159.749 77 147.046 77C134.344 77 121.546 78.3807 121.546 77C121.546 75.6193 134.344 72 147.046 72C159.749 72 176.046 75.6193 176.046 77Z" fill="#82573F"/>
<path d="M176.046 77C176.046 78.3807 159.749 77 147.046 77C134.344 77 121.546 78.3807 121.546 77C121.546 75.6193 134.344 72 147.046 72C159.749 72 176.046 75.6193 176.046 77Z" fill="#82573F"/>
<path d="M176.046 77C176.046 78.3807 159.749 77 147.046 77C134.344 77 121.546 78.3807 121.546 77C121.546 75.6193 134.344 72 147.046 72C159.749 72 176.046 75.6193 176.046 77Z" fill="#82573F"/>
<path d="M179.046 66C179.046 67.3807 164.391 66 147.546 66C130.702 66 115.546 67.3807 115.546 66C115.546 64.6193 130.702 61 147.546 61C164.391 61 179.046 64.6193 179.046 66Z" fill="#82573F"/>
<path d="M179.046 66C179.046 67.3807 164.391 66 147.546 66C130.702 66 115.546 67.3807 115.546 66C115.546 64.6193 130.702 61 147.546 61C164.391 61 179.046 64.6193 179.046 66Z" fill="#82573F"/>
<path d="M179.046 66C179.046 67.3807 164.391 66 147.546 66C130.702 66 115.546 67.3807 115.546 66C115.546 64.6193 130.702 61 147.546 61C164.391 61 179.046 64.6193 179.046 66Z" fill="#82573F"/>
<path d="M79.0463 305L131.813 308L221.046 300" stroke="#FFD747" stroke-width="13"/>
<path d="M57.8228 295.799C57.0041 297.85 48.4395 296.361 38.6934 292.472C28.9472 288.583 40.0464 284.425 35.5464 287.5C35.5464 289 31.9121 281.153 41.6583 285.042C51.4044 288.931 58.6415 293.747 57.8228 295.799Z" fill="#82573F"/>
<path d="M64.8227 281.799C64.0039 283.85 55.4394 282.361 45.6933 278.472C35.9471 274.583 39.2276 274.552 40.0463 272.5C40.8651 270.448 38.912 267.153 48.6582 271.042C58.4043 274.931 65.6414 279.747 64.8227 281.799Z" fill="#82573F"/>
<path d="M79.0463 331L131.813 334L221.046 326" stroke="#FFD747" stroke-width="13"/>
<path d="M47 263L54 250L56 253L47 263Z" fill="#E9984F" stroke="#E9984F"/>
</svg>
