<svg width="498" height="567" viewBox="0 0 498 567" fill="none" xmlns="http://www.w3.org/2000/svg">
<path d="M358.75 139.991C358.75 139.991 342 165.991 366.297 175.011C390.595 184.031 354.159 270.366 354.159 270.366C351.161 292.477 303.582 336.462 314.23 354.491L350.371 367.991C364.576 352.129 396.84 299.841 399.333 275.656L394.557 179.796L392.115 150.551L384 129.991L364.841 134.914C364.841 134.914 361.341 137.557 359.274 141.455L358.75 139.991Z" fill="white"/>
<path d="M139.382 258.185C139.382 258.185 165.781 280.567 142.705 298.135C119.629 315.703 179 378.991 179 378.991C189.409 401.687 192.277 393.872 186.747 416.641L169.941 445.868C149.568 433.511 150.65 441.722 140.105 416.641L114.008 312.459L107.1 280.354L109.094 255.7L131.209 254.733C131.209 254.733 135.817 256.422 139.299 259.923L139.382 258.185Z" fill="white"/>
<g filter="url(#filter0_f_101_297)">
<ellipse cx="249" cy="254.491" rx="186" ry="191" fill="#FFD362" fill-opacity="0.1"/>
<path d="M434.5 254.491C434.5 359.714 351.436 444.991 249 444.991C146.564 444.991 63.5 359.714 63.5 254.491C63.5 149.268 146.564 63.991 249 63.991C351.436 63.991 434.5 149.268 434.5 254.491Z" stroke="black"/>
<path d="M434.5 254.491C434.5 359.714 351.436 444.991 249 444.991C146.564 444.991 63.5 359.714 63.5 254.491C63.5 149.268 146.564 63.991 249 63.991C351.436 63.991 434.5 149.268 434.5 254.491Z" stroke="black" stroke-opacity="0.2"/>
</g>
<path d="M224.009 470.472C224.009 399.037 145.275 323.004 236.96 327.388C245.53 327.798 230.915 289.158 241.245 293.934C309.77 325.614 237.697 266.282 260.937 289.838C269.395 298.411 268.055 302.144 273.71 315.925C279.951 331.132 332.486 322.276 338.295 344.017C342.021 357.964 305.3 389.424 300.31 416.242C294.959 445.003 310.073 466.645 310.073 481.166C310.073 574.569 297.412 552.585 249.029 552.585C200.646 552.585 224.009 563.874 224.009 470.472Z" fill="white" stroke="white" stroke-width="24" stroke-miterlimit="10" stroke-linejoin="round"/>
<path d="M278.179 178.049L328.791 144.637C328.791 144.637 329.624 157.692 325.153 174.49C320.682 191.288 311.793 206.06 311.793 206.06L278.179 178.049Z" fill="#B1777B" stroke="#2D2145" stroke-width="17.0485" stroke-miterlimit="10" stroke-linejoin="round"/>
<path d="M220.536 175.078L178.614 145.905C178.614 145.905 179.349 166.122 182.877 184.289C186.405 202.456 196.701 213.379 196.701 213.379L220.536 175.078Z" fill="#B1777B" stroke="white" stroke-width="16.4976" stroke-miterlimit="10" stroke-linejoin="round"/>
<path fill-rule="evenodd" clip-rule="evenodd" d="M164.554 251.464C164.247 251.802 164.045 252.197 163.945 252.61C163.626 252.91 163.299 253.192 162.96 253.433C162.738 253.592 162.495 253.732 162.251 253.874H162.25C161.767 254.154 161.278 254.438 160.929 254.87C160.587 255.295 160.266 255.762 160.085 256.276C159.914 256.762 159.832 257.302 159.929 257.808C160.052 258.449 160.311 259.072 160.71 259.589C160.992 259.953 161.451 260.164 161.871 260.357L161.898 260.37C163.416 261.069 165.863 259.973 167.273 259.339C167.416 259.274 167.559 259.209 167.701 259.144C169.323 258.981 170.939 258.779 172.553 258.557L172.617 258.558C172.604 258.571 172.591 258.584 172.578 258.597L172.565 258.609L172.548 258.626L172.533 258.641L172.523 258.652C172.381 258.801 172.241 258.946 172.102 259.089C171.824 259.377 171.55 259.659 171.273 259.964C170.674 260.622 169.981 261.412 169.429 262.058C168.567 263.067 168.099 263.65 167.304 264.683L167.187 264.835C166.754 265.395 166.224 266.08 165.866 266.805C165.566 267.054 165.114 267.45 164.991 267.683C164.954 267.755 164.914 267.827 164.873 267.9C164.681 268.248 164.483 268.606 164.491 268.995C164.507 269.692 164.73 270.427 165.085 271.026C165.299 271.385 165.678 271.6 166.046 271.808C166.101 271.839 166.156 271.87 166.21 271.902C166.587 272.119 167.069 272.173 167.547 272.16C167.889 272.364 168.285 272.493 168.71 272.526C170.171 272.639 171.64 272.594 173.111 272.516C173.393 272.578 173.689 272.594 173.991 272.558C174.323 272.518 174.657 272.467 174.993 272.409C176.519 272.324 178.043 272.263 179.556 272.367C180.321 272.608 181.079 272.866 181.824 273.152C182.277 274.117 183.299 274.74 184.429 274.652C184.897 274.761 185.24 274.84 185.494 274.898C186.257 275.35 186.997 275.857 187.71 276.433C188.105 276.75 188.562 276.941 189.031 277.012C189.353 277.147 189.689 277.246 190.043 277.31C197.658 286.555 207.163 294.588 218.387 300.072L218.261 300.142C217.185 300.738 216.109 301.334 215.304 302.308C214.382 303.422 213.802 305.017 215.023 306.152C216.024 307.082 217.542 306.65 218.693 306.322L218.741 306.308C218.803 306.291 218.864 306.269 218.924 306.247C218.988 306.224 219.052 306.201 219.117 306.183C219.192 306.194 219.257 306.212 219.324 306.23C219.386 306.247 219.45 306.264 219.523 306.276C221.594 306.609 223.682 306.65 225.683 306.271C225.686 306.366 225.689 306.459 225.692 306.553C225.713 307.162 225.733 307.753 225.679 308.276C225.625 308.797 225.449 309.344 225.283 309.857V309.858C225.247 309.968 225.212 310.077 225.179 310.183C224.904 311.064 224.615 311.942 224.327 312.82L224.325 312.827C224.234 313.102 224.144 313.377 224.054 313.652C223.955 313.956 223.813 314.261 223.669 314.568C223.329 315.298 222.981 316.045 223.179 316.839C223.305 317.343 223.61 317.787 224.054 318.058C224.074 318.07 224.399 318.217 224.491 318.245C224.498 318.247 224.514 318.255 224.528 318.263C224.541 318.271 224.554 318.276 224.554 318.276C224.555 318.273 224.555 318.269 224.555 318.265L224.554 318.261C224.553 318.255 224.552 318.25 224.554 318.245C224.607 318.273 224.878 318.336 225.117 318.339C226.66 318.357 227.564 316.578 228.163 315.399L228.241 315.245C229.073 313.618 229.025 312.969 228.874 310.962L228.867 310.87C228.921 310.691 228.98 310.513 229.039 310.335L229.04 310.332V310.331C229.22 309.785 229.399 309.239 229.46 308.683C229.531 308.039 229.492 307.393 229.453 306.747C229.418 306.161 229.382 305.576 229.429 304.995C229.51 304.951 229.587 304.904 229.662 304.852C229.795 304.778 229.928 304.701 230.059 304.622C236.789 306.616 244.013 307.721 251.704 307.721C273.041 307.721 302.355 287.347 317.044 272.801C320.3 269.577 330.761 268.833 330.761 268.833C330.761 268.833 318.586 259.352 321.006 255.044C322.749 251.941 335.913 255.431 335.913 255.431C335.913 255.431 329.213 244.899 327.645 241.446C326.736 239.444 325.462 237.578 324.12 235.613C321.711 232.085 319.081 228.235 317.946 222.696C316.397 215.137 316.679 210.11 316.892 206.297C317.072 203.074 317.204 200.719 316.14 198.438C309.889 185.033 289.506 171.52 275.731 166.282C274.479 165.806 271.839 162.577 268.551 158.554C262.513 151.167 254.287 141.103 248.443 140.491C248.443 140.491 252.644 169.217 248.267 167.007C245.307 165.512 242.047 163.391 238.758 161.25C232.034 156.874 225.184 152.416 220.501 153.056C220.501 153.056 238.412 164.017 228.266 167.81C213.387 173.372 192.337 185.928 185.669 199.194C184.609 201.304 185.195 203.685 185.926 206.653C186.898 210.598 188.125 215.58 186.076 222.338C186.038 222.464 185.999 222.589 185.959 222.714C184.889 224.144 183.845 225.593 182.867 227.089C181.297 229.488 179.868 231.97 178.438 234.453C177.824 235.519 177.21 236.585 176.585 237.645C172.631 242.299 168.657 246.933 164.554 251.464ZM185.002 274.616L184.964 274.614C184.867 274.609 184.778 274.604 184.835 274.62C184.949 274.652 185.063 274.683 185.176 274.714L185.148 274.698C185.114 274.679 185.08 274.66 185.046 274.641L185.002 274.616ZM280.96 300.964C280.823 299.933 281.522 298.976 282.554 298.839C283.586 298.702 284.542 299.432 284.679 300.464C284.933 302.325 285.232 304.18 285.532 306.036C285.8 307.698 286.069 309.36 286.304 311.026C286.453 312.116 285.705 313.127 284.617 313.276C283.527 313.426 282.516 312.647 282.367 311.558C282.207 310.353 282.046 309.149 281.885 307.944C281.574 305.618 281.263 303.293 280.96 300.964Z" fill="white"/>
<path d="M163.945 252.61L166.129 254.934C166.581 254.51 166.899 253.964 167.045 253.361L163.945 252.61ZM164.554 251.464L166.917 253.608L166.919 253.605L164.554 251.464ZM162.251 253.874L160.652 251.114C160.638 251.122 160.624 251.13 160.61 251.138L162.251 253.874ZM162.25 253.874L163.849 256.634C163.863 256.626 163.877 256.618 163.891 256.61L162.25 253.874ZM160.929 254.87L158.446 252.868L158.444 252.87L160.929 254.87ZM160.085 256.276L157.077 255.216L157.076 255.217L160.085 256.276ZM159.929 257.808L156.797 258.408L156.797 258.409L159.929 257.808ZM160.71 259.589L158.185 261.538L158.188 261.542L160.71 259.589ZM161.871 260.357L160.538 263.255C160.587 263.278 160.637 263.299 160.687 263.319L161.871 260.357ZM161.871 260.357L163.204 257.459C163.155 257.437 163.106 257.416 163.056 257.396L161.871 260.357ZM161.898 260.37L163.233 257.472H163.231L161.898 260.37ZM167.273 259.339L168.582 262.248L168.584 262.247L167.273 259.339ZM167.701 259.144L167.383 255.97C167.029 256.005 166.684 256.1 166.361 256.249L167.701 259.144ZM172.553 258.557L172.59 255.368C172.433 255.366 172.275 255.376 172.12 255.397L172.553 258.557ZM172.617 258.558L174.908 260.778C175.795 259.863 176.052 258.507 175.561 257.331C175.071 256.155 173.928 255.383 172.654 255.368L172.617 258.558ZM172.578 258.597L174.788 260.896L174.794 260.891L172.578 258.597ZM172.578 258.597L170.366 256.298L170.359 256.305L172.578 258.597ZM172.565 258.609L170.347 256.316C170.34 256.323 170.333 256.33 170.326 256.337L172.565 258.609ZM172.548 258.626L170.309 256.354C170.294 256.369 170.279 256.383 170.265 256.398L172.548 258.626ZM172.533 258.641L170.25 256.414C170.232 256.432 170.215 256.45 170.197 256.469L172.533 258.641ZM172.523 258.652L174.832 260.852C174.841 260.843 174.85 260.834 174.859 260.824L172.523 258.652ZM167.304 264.683L169.829 266.632L169.832 266.628L167.304 264.683ZM167.187 264.835L169.71 266.786L169.712 266.785L167.187 264.835ZM165.866 266.805L167.901 269.262C168.246 268.976 168.527 268.621 168.725 268.219L165.866 266.805ZM164.991 267.683L162.168 266.198L162.166 266.202L164.991 267.683ZM164.873 267.9L162.081 266.357V266.358L164.873 267.9ZM164.491 268.995L161.302 269.063L161.303 269.068L164.491 268.995ZM165.085 271.026L162.341 272.652L162.342 272.653L165.085 271.026ZM166.21 271.902L164.608 274.66L164.616 274.665L166.21 271.902ZM167.547 272.16L169.176 269.418C168.657 269.109 168.06 268.954 167.456 268.971L167.547 272.16ZM168.71 272.526L168.957 269.346H168.955L168.71 272.526ZM173.111 272.516L173.796 269.401C173.516 269.339 173.229 269.316 172.943 269.331L173.111 272.516ZM174.993 272.409L174.815 269.224C174.692 269.231 174.57 269.245 174.448 269.266L174.993 272.409ZM179.556 272.367L180.515 269.325C180.275 269.249 180.027 269.202 179.776 269.185L179.556 272.367ZM181.824 273.152L184.711 271.796C184.361 271.05 183.736 270.469 182.967 270.174L181.824 273.152ZM184.429 274.652L185.153 271.545C184.835 271.471 184.508 271.446 184.182 271.472L184.429 274.652ZM185.494 274.898L187.119 272.153C186.835 271.985 186.527 271.863 186.206 271.789L185.494 274.898ZM187.71 276.433L185.704 278.913L185.715 278.922L187.71 276.433ZM189.031 277.012L190.261 274.069C190.02 273.968 189.768 273.898 189.51 273.858L189.031 277.012ZM190.043 277.31L192.506 275.282C192.025 274.698 191.352 274.304 190.607 274.17L190.043 277.31ZM218.387 300.072L219.934 302.861C220.974 302.285 221.607 301.177 221.576 299.989C221.545 298.8 220.855 297.728 219.787 297.206L218.387 300.072ZM218.261 300.142L219.807 302.932L219.808 302.931L218.261 300.142ZM215.304 302.308L217.761 304.342L217.762 304.341L215.304 302.308ZM215.023 306.152L212.851 308.488L212.852 308.489L215.023 306.152ZM218.741 306.308L217.871 303.239L217.868 303.24L218.741 306.308ZM219.117 306.183L219.571 303.026C219.136 302.963 218.693 302.991 218.269 303.108L219.117 306.183ZM219.523 306.276L220.03 303.127H220.027L219.523 306.276ZM225.683 306.271L228.871 306.173C228.843 305.241 228.407 304.368 227.68 303.784C226.953 303.2 226.007 302.964 225.091 303.137L225.683 306.271ZM225.692 306.553L228.88 306.446V306.445L225.692 306.553ZM225.283 309.857L222.248 308.877C222.231 308.927 222.216 308.977 222.203 309.028L225.283 309.857ZM225.283 309.858L228.318 310.838C228.334 310.788 228.349 310.738 228.363 310.687L225.283 309.858ZM225.179 310.183L222.134 309.232V309.233L225.179 310.183ZM224.327 312.82L221.297 311.824L221.296 311.827L224.327 312.82ZM224.325 312.827L227.355 313.823L227.356 313.82L224.325 312.827ZM224.054 313.652L221.022 312.661V312.662L224.054 313.652ZM224.054 318.058L222.392 320.781C222.399 320.784 222.405 320.788 222.411 320.792L224.054 318.058ZM224.491 318.245L223.562 321.297C223.579 321.301 223.595 321.306 223.611 321.311L224.491 318.245ZM224.528 318.263L222.989 321.058C223.026 321.078 223.063 321.097 223.101 321.116L224.528 318.263ZM224.528 318.263L226.065 315.468C226.029 315.448 225.992 315.429 225.954 315.41L224.528 318.263ZM224.554 318.276L227.577 319.294L227.58 319.285L224.554 318.276ZM224.555 318.265L227.725 317.917C227.723 317.899 227.721 317.88 227.719 317.862L224.555 318.265ZM224.554 318.261L227.718 317.857C227.716 317.843 227.715 317.83 227.713 317.816L224.554 318.261ZM224.554 318.245L226.044 315.425C225.202 314.979 224.204 314.934 223.325 315.302C222.445 315.669 221.776 316.41 221.501 317.322L224.554 318.245ZM225.117 318.339L225.077 321.528H225.079L225.117 318.339ZM228.163 315.399L225.32 313.952L225.319 313.954L228.163 315.399ZM228.241 315.245L225.401 313.792L225.398 313.798L228.241 315.245ZM228.867 310.87L225.816 309.94C225.701 310.318 225.657 310.714 225.686 311.108L228.867 310.87ZM229.039 310.335L226.012 309.326L226.008 309.338L229.039 310.335ZM229.039 310.335L232.065 311.343C232.069 311.332 232.072 311.321 232.076 311.311L229.039 310.335ZM229.04 310.332L226.005 309.35L226.003 309.356L229.04 310.332ZM229.04 310.331L226.01 309.335C226.008 309.34 226.007 309.346 226.005 309.35L229.04 310.331ZM229.453 306.747H226.263C226.263 306.811 226.265 306.875 226.269 306.939L229.453 306.747ZM229.453 306.747H232.643C232.643 306.683 232.641 306.619 232.637 306.555L229.453 306.747ZM229.429 304.995L227.911 302.19C226.961 302.704 226.336 303.663 226.249 304.74L229.429 304.995ZM229.662 304.852L228.115 302.062C228.022 302.114 227.931 302.171 227.843 302.232L229.662 304.852ZM230.059 304.622L230.966 301.564C230.107 301.309 229.18 301.428 228.413 301.89L230.059 304.622ZM330.761 268.833L330.987 272.015C332.305 271.921 333.428 271.025 333.813 269.761C334.197 268.498 333.763 267.128 332.721 266.316L330.761 268.833ZM335.913 255.431L335.096 258.514C336.365 258.851 337.712 258.375 338.487 257.315C339.263 256.254 339.309 254.827 338.604 253.719L335.913 255.431ZM248.443 140.491L248.775 137.318C247.796 137.216 246.824 137.571 246.142 138.282C245.46 138.992 245.144 139.978 245.287 140.952L248.443 140.491ZM220.501 153.056L220.069 149.895C218.733 150.078 217.656 151.081 217.379 152.401C217.102 153.721 217.686 155.073 218.836 155.777L220.501 153.056ZM185.959 222.714L188.513 224.625C188.727 224.339 188.892 224.019 189 223.679L185.959 222.714ZM178.438 234.453L175.674 232.861C175.661 232.882 175.649 232.904 175.638 232.926L178.438 234.453ZM178.438 234.453L181.202 236.046C181.214 236.024 181.226 236.003 181.238 235.981L178.438 234.453ZM176.585 237.645L179.016 239.71C179.134 239.571 179.24 239.422 179.332 239.265L176.585 237.645ZM184.964 274.614L185.134 271.429C185.078 271.426 185.021 271.424 184.964 271.424V274.614ZM185.002 274.616L186.553 271.829C186.129 271.593 185.657 271.457 185.172 271.431L185.002 274.616ZM184.964 274.614L184.791 277.799C184.849 277.802 184.906 277.804 184.964 277.804V274.614ZM184.835 274.62L185.704 271.551C185.699 271.549 185.694 271.548 185.689 271.547L184.835 274.62ZM185.176 274.714L184.346 277.794C185.897 278.212 187.517 277.412 188.127 275.926C188.737 274.439 188.147 272.731 186.749 271.939L185.176 274.714ZM185.148 274.698L186.721 271.923L186.718 271.922L185.148 274.698ZM185.046 274.641L186.601 271.855L186.597 271.853L185.046 274.641ZM331.711 520.476H328.521C328.521 520.759 328.558 521.04 328.633 521.313L331.711 520.476ZM314.862 392.491V389.301C313.88 389.301 312.953 389.753 312.348 390.527C311.744 391.301 311.529 392.31 311.767 393.263L314.862 392.491ZM280.96 300.964L284.123 300.552L284.122 300.544L280.96 300.964ZM284.679 300.464L281.517 300.884L281.518 300.895L284.679 300.464ZM286.304 311.026L289.464 310.594C289.464 310.589 289.463 310.585 289.462 310.58L286.304 311.026ZM284.617 313.276L284.184 310.116H284.182L284.617 313.276ZM282.367 311.558L279.205 311.978L279.207 311.99L282.367 311.558ZM187.362 409.216L190.371 410.275C190.714 409.299 190.563 408.217 189.965 407.373C189.367 406.528 188.397 406.026 187.362 406.026V409.216ZM186.277 409.216L183.129 409.727C183.379 411.271 184.713 412.406 186.277 412.406V409.216ZM181.862 381.991L185.011 381.48C184.772 380.008 183.545 378.898 182.057 378.807C180.568 378.716 179.216 379.668 178.799 381.1L181.862 381.991ZM177.232 397.912L174.407 399.392C175.011 400.545 176.255 401.215 177.55 401.085C178.846 400.956 179.932 400.052 180.295 398.802L177.232 397.912ZM164.367 373.359L161.521 374.801C161.528 374.814 161.534 374.827 161.541 374.84L164.367 373.359ZM145.87 332.191L142.838 331.201C142.652 331.771 142.63 332.381 142.775 332.963L145.87 332.191ZM125.862 342.991L126.982 345.978C128.075 345.568 128.857 344.595 129.021 343.439C129.185 342.284 128.705 341.132 127.77 340.434L125.862 342.991ZM167.045 253.361C167.022 253.457 166.975 253.543 166.917 253.608L162.192 249.32C161.52 250.061 161.068 250.937 160.845 251.858L167.045 253.361ZM164.813 256.029C165.308 255.676 165.75 255.291 166.129 254.934L161.761 250.285C161.502 250.528 161.289 250.707 161.107 250.836L164.813 256.029ZM163.85 256.634C164.07 256.506 164.447 256.291 164.813 256.029L161.107 250.836C161.029 250.892 160.921 250.958 160.652 251.114L163.85 256.634ZM163.892 256.609L160.61 251.138L160.61 251.139L163.892 256.609ZM163.891 256.61L163.892 256.609L160.61 251.139L163.891 256.61ZM163.412 256.872C163.344 256.957 163.307 256.972 163.38 256.92C163.416 256.895 163.469 256.86 163.549 256.811C163.633 256.76 163.723 256.707 163.849 256.634L160.651 251.114C160.266 251.337 159.23 251.896 158.446 252.868L163.412 256.872ZM163.094 257.335C163.09 257.347 163.101 257.312 163.156 257.224C163.211 257.136 163.292 257.022 163.415 256.87L158.444 252.87C158.025 253.391 157.437 254.193 157.077 255.216L163.094 257.335ZM163.062 257.207C163.084 257.321 163.077 257.39 163.076 257.398C163.075 257.407 163.077 257.384 163.094 257.335L157.076 255.217C156.781 256.058 156.563 257.188 156.797 258.408L163.062 257.207ZM163.236 257.64C163.181 257.569 163.104 257.424 163.062 257.207L156.797 258.409C157.001 259.474 157.442 260.575 158.185 261.538L163.236 257.64ZM163.205 257.46C163.15 257.435 163.107 257.415 163.066 257.395C163.025 257.377 162.993 257.361 162.966 257.348C162.91 257.32 162.89 257.308 162.89 257.308C162.89 257.308 162.929 257.332 162.989 257.381C163.049 257.431 163.138 257.514 163.233 257.636L158.188 261.542C159.037 262.638 160.289 263.141 160.538 263.255L163.205 257.46ZM163.231 257.472L163.204 257.459L160.539 263.256L160.566 263.268L163.231 257.472ZM165.965 256.43C165.233 256.759 164.489 257.086 163.789 257.276C163.45 257.368 163.218 257.4 163.082 257.405C162.943 257.409 163.032 257.38 163.233 257.472L160.564 263.267C162.397 264.111 164.337 263.739 165.463 263.432C166.719 263.091 167.904 262.553 168.582 262.248L165.965 256.43ZM166.361 256.249C166.228 256.31 166.095 256.371 165.963 256.431L168.584 262.247C168.737 262.178 168.889 262.108 169.04 262.039L166.361 256.249ZM172.12 255.397C170.529 255.615 168.954 255.812 167.383 255.97L168.019 262.318C169.692 262.15 171.349 261.942 172.987 261.717L172.12 255.397ZM172.654 255.368H172.59L172.517 261.747H172.58L172.654 255.368ZM174.794 260.891C174.801 260.884 174.852 260.835 174.908 260.778L170.326 256.337C170.344 256.319 170.357 256.307 170.362 256.302C170.365 256.299 170.366 256.298 170.366 256.298C170.366 256.298 170.365 256.299 170.361 256.303L174.794 260.891ZM174.788 260.896L170.367 256.297L170.366 256.298L174.788 260.896ZM174.783 260.901L174.795 260.89L170.359 256.305L170.347 256.316L174.783 260.901ZM174.788 260.896L174.805 260.88L170.326 256.337L170.309 256.354L174.788 260.896ZM174.816 260.868L174.831 260.853L170.265 256.398L170.25 256.414L174.816 260.868ZM174.859 260.824L174.869 260.813L170.197 256.469L170.187 256.48L174.859 260.824ZM174.394 261.308C174.532 261.165 174.68 261.012 174.832 260.852L170.214 256.451C170.082 256.59 169.95 256.726 169.81 256.871L174.394 261.308ZM173.632 262.111C173.871 261.848 174.111 261.6 174.394 261.308L169.81 256.871C169.537 257.153 169.23 257.47 168.915 257.817L173.632 262.111ZM171.854 264.13C172.388 263.505 173.059 262.74 173.632 262.111L168.915 257.817C168.289 258.503 167.574 259.319 167.004 259.986L171.854 264.13ZM169.832 266.628C170.598 265.632 171.032 265.092 171.854 264.13L167.004 259.986C166.103 261.041 165.6 261.667 164.777 262.737L169.832 266.628ZM169.712 266.785L169.829 266.632L164.78 262.734L164.662 262.886L169.712 266.785ZM168.725 268.219C168.919 267.827 169.244 267.39 169.71 266.786L164.663 262.885C164.264 263.4 163.53 264.333 163.006 265.392L168.725 268.219ZM167.815 269.167C167.773 269.248 167.733 269.312 167.703 269.36C167.671 269.409 167.644 269.448 167.623 269.476C167.583 269.531 167.553 269.566 167.542 269.578C167.53 269.592 167.527 269.595 167.534 269.588C167.54 269.581 167.553 269.569 167.571 269.551C167.61 269.514 167.661 269.467 167.721 269.414C167.781 269.362 167.843 269.31 167.901 269.262L163.831 264.349C163.655 264.495 163.4 264.712 163.153 264.949C163.013 265.083 162.501 265.565 162.168 266.198L167.815 269.167ZM167.665 269.443C167.702 269.376 167.76 269.272 167.817 269.163L162.166 266.202C162.147 266.238 162.125 266.279 162.081 266.357L167.665 269.443ZM167.681 268.927C167.688 269.3 167.594 269.553 167.57 269.615C167.557 269.647 167.552 269.654 167.569 269.62C167.589 269.582 167.613 269.537 167.665 269.443L162.081 266.358C161.986 266.531 161.273 267.661 161.302 269.063L167.681 268.927ZM167.83 269.4C167.735 269.24 167.683 269.036 167.68 268.922L161.303 269.068C161.332 270.348 161.726 271.614 162.341 272.652L167.83 269.4ZM167.617 269.032C167.518 268.976 167.468 268.947 167.426 268.922C167.388 268.899 167.389 268.898 167.411 268.914C167.454 268.946 167.651 269.098 167.829 269.398L162.342 272.653C163.065 273.872 164.272 274.469 164.475 274.584L167.617 269.032ZM167.813 269.144C167.74 269.102 167.669 269.061 167.617 269.032L164.475 274.584C164.533 274.617 164.572 274.639 164.608 274.66L167.813 269.144ZM167.456 268.971C167.358 268.974 167.34 268.967 167.38 268.973C167.42 268.98 167.586 269.013 167.805 269.139L164.616 274.665C165.76 275.325 166.959 275.367 167.637 275.348L167.456 268.971ZM168.955 269.346C169.026 269.351 169.104 269.375 169.176 269.418L165.917 274.902C166.675 275.352 167.543 275.636 168.466 275.707L168.955 269.346ZM172.943 269.331C171.502 269.407 170.202 269.442 168.957 269.346L168.464 275.706C170.139 275.836 171.779 275.781 173.28 275.701L172.943 269.331ZM173.612 269.391C173.67 269.384 173.733 269.387 173.796 269.401L172.426 275.631C173.052 275.769 173.709 275.805 174.371 275.725L173.612 269.391ZM174.448 269.266C174.153 269.317 173.875 269.359 173.612 269.391L174.371 275.725C174.772 275.677 175.162 275.617 175.537 275.552L174.448 269.266ZM179.776 269.185C178.05 269.066 176.355 269.138 174.815 269.224L175.171 275.594C176.684 275.509 178.037 275.46 179.336 275.549L179.776 269.185ZM182.967 270.174C182.147 269.86 181.326 269.58 180.515 269.325L178.598 275.41C179.317 275.636 180.01 275.873 180.682 276.13L182.967 270.174ZM184.182 271.472C184.387 271.456 184.606 271.572 184.711 271.796L178.937 274.509C179.949 276.662 182.211 278.024 184.676 277.832L184.182 271.472ZM186.206 271.789C185.957 271.732 185.619 271.654 185.153 271.545L183.705 277.758C184.176 277.868 184.523 277.948 184.783 278.008L186.206 271.789ZM189.715 273.952C188.873 273.271 188.004 272.677 187.119 272.153L183.869 277.643C184.51 278.022 185.121 278.442 185.704 278.913L189.715 273.952ZM189.51 273.858C189.577 273.869 189.648 273.898 189.705 273.944L185.715 278.922C186.563 279.601 187.547 280.013 188.553 280.166L189.51 273.858ZM190.607 274.17C190.481 274.148 190.368 274.114 190.261 274.069L187.802 279.956C188.338 280.179 188.897 280.345 189.48 280.449L190.607 274.17ZM219.787 297.206C209.029 291.949 199.872 284.227 192.506 275.282L187.581 279.337C195.443 288.884 205.296 297.226 216.987 302.938L219.787 297.206ZM219.808 302.931L219.934 302.861L216.84 297.282L216.713 297.352L219.808 302.931ZM217.762 304.341C218.121 303.907 218.646 303.576 219.807 302.932L216.714 297.352C215.724 297.901 214.097 298.762 212.846 300.275L217.762 304.341ZM217.195 303.816C217.27 303.886 217.392 304.04 217.464 304.271C217.533 304.488 217.521 304.655 217.51 304.721C217.502 304.777 217.495 304.758 217.542 304.667C217.587 304.578 217.66 304.464 217.761 304.342L212.847 300.274C212.164 301.099 211.436 302.293 211.209 303.724C210.957 305.32 211.37 307.111 212.851 308.488L217.195 303.816ZM217.819 303.254C217.519 303.339 217.293 303.403 217.073 303.453C216.857 303.501 216.72 303.519 216.64 303.523C216.561 303.527 216.605 303.514 216.725 303.548C216.865 303.587 217.041 303.673 217.194 303.815L212.852 308.489C214.21 309.751 215.823 309.952 216.963 309.894C218.037 309.84 219.056 309.535 219.566 309.39L217.819 303.254ZM217.868 303.24L217.819 303.254L219.566 309.39L219.615 309.376L217.868 303.24ZM217.846 303.245C217.838 303.248 217.831 303.25 217.825 303.252C217.82 303.254 217.816 303.256 217.812 303.257C217.806 303.259 217.804 303.26 217.806 303.259C217.808 303.259 217.814 303.255 217.825 303.252C217.836 303.249 217.851 303.245 217.871 303.239L219.611 309.377C219.796 309.324 219.96 309.264 220.004 309.249L217.846 303.245ZM218.269 303.108C218.068 303.164 217.889 303.229 217.846 303.245L220.004 309.249C220.021 309.243 220.029 309.239 220.037 309.237C220.044 309.234 220.045 309.234 220.042 309.235C220.039 309.236 220.031 309.239 220.018 309.243C220.006 309.247 219.987 309.252 219.965 309.258L218.269 303.108ZM220.165 303.153C220.116 303.14 219.869 303.069 219.571 303.026L218.663 309.341C218.583 309.329 218.52 309.315 218.486 309.307C218.47 309.303 218.459 309.3 218.459 309.3C218.459 309.3 218.46 309.301 218.464 309.302C218.469 309.303 218.474 309.304 218.482 309.307L220.165 303.153ZM220.027 303.127C220.093 303.137 220.143 303.148 220.17 303.155C220.182 303.158 220.189 303.16 220.189 303.16C220.187 303.159 220.183 303.158 220.165 303.153L218.482 309.307C218.533 309.321 218.752 309.383 219.019 309.426L220.027 303.127ZM225.091 303.137C223.525 303.433 221.816 303.414 220.03 303.127L219.016 309.425C221.371 309.804 223.84 309.866 226.275 309.406L225.091 303.137ZM228.88 306.445C228.877 306.352 228.874 306.262 228.871 306.173L222.495 306.37C222.498 306.469 222.501 306.567 222.504 306.66L228.88 306.445ZM228.852 308.602C228.932 307.821 228.899 306.998 228.88 306.446L222.504 306.66C222.527 307.326 222.533 307.685 222.506 307.951L228.852 308.602ZM228.318 310.838C228.461 310.397 228.758 309.519 228.852 308.602L222.506 307.95C222.493 308.075 222.437 308.292 222.248 308.877L228.318 310.838ZM228.224 311.133C228.252 311.045 228.282 310.951 228.318 310.838L222.247 308.877C222.213 308.985 222.173 309.108 222.134 309.232L228.224 311.133ZM227.357 313.816C227.645 312.942 227.941 312.041 228.224 311.133L222.134 309.233C221.867 310.088 221.586 310.942 221.297 311.824L227.357 313.816ZM227.356 313.82L227.358 313.813L221.296 311.827L221.293 311.834L227.356 313.82ZM227.086 314.643C227.175 314.371 227.264 314.098 227.355 313.823L221.294 311.831C221.204 312.106 221.113 312.383 221.022 312.661L227.086 314.643ZM226.56 315.917C226.686 315.645 226.916 315.163 227.086 314.643L221.022 312.662C220.993 312.75 220.939 312.876 220.778 313.22L226.56 315.917ZM226.274 316.066C226.307 316.201 226.314 316.324 226.309 316.417C226.305 316.505 226.291 316.549 226.295 316.533C226.3 316.515 226.317 316.461 226.364 316.35C226.412 316.234 226.47 316.109 226.56 315.917L220.778 313.22C220.543 313.723 219.565 315.534 220.084 317.612L226.274 316.066ZM225.716 315.335C226.051 315.54 226.215 315.834 226.274 316.066L220.084 317.612C220.395 318.853 221.169 320.034 222.392 320.781L225.716 315.335ZM225.42 315.193C225.471 315.209 225.51 315.222 225.53 315.229C225.552 315.237 225.569 315.243 225.577 315.247C225.594 315.253 225.601 315.256 225.596 315.254C225.584 315.249 225.56 315.239 225.526 315.224C225.494 315.21 225.464 315.197 225.446 315.188C225.437 315.184 225.437 315.184 225.445 315.188C225.448 315.189 225.463 315.196 225.483 315.206C225.493 315.211 225.513 315.221 225.538 315.234C225.551 315.241 225.57 315.251 225.592 315.264C225.613 315.275 225.651 315.296 225.697 315.324L222.411 320.792C222.493 320.841 222.559 320.876 222.576 320.885C222.603 320.899 222.626 320.91 222.639 320.917C222.667 320.931 222.69 320.942 222.704 320.949C222.734 320.963 222.764 320.977 222.789 320.988C222.841 321.012 222.902 321.039 222.965 321.067C223.001 321.083 223.297 321.216 223.562 321.297L225.42 315.193ZM226.066 315.469C226.063 315.467 226.05 315.46 226.036 315.453C226.022 315.445 225.996 315.431 225.965 315.415C225.937 315.4 225.882 315.373 225.812 315.341C225.767 315.321 225.598 315.244 225.371 315.179L223.611 321.311C223.484 321.275 223.385 321.238 223.329 321.215C223.267 321.191 223.217 321.169 223.184 321.154C223.119 321.125 223.07 321.1 223.048 321.089C223.007 321.068 222.974 321.049 222.989 321.058L226.066 315.469ZM221.531 317.258C221.968 315.961 223.025 315.383 223.727 315.195C224.317 315.037 224.799 315.092 224.963 315.113C225.338 315.161 225.617 315.268 225.668 315.287C225.84 315.352 225.969 315.418 225.981 315.424C226.04 315.454 226.093 315.484 226.065 315.468L222.99 321.058C222.99 321.058 223.005 321.066 223.02 321.074C223.032 321.081 223.067 321.1 223.111 321.122C223.128 321.13 223.261 321.198 223.436 321.264C223.488 321.283 223.768 321.391 224.143 321.439C224.308 321.461 224.79 321.515 225.38 321.357C226.082 321.169 227.14 320.591 227.577 319.294L221.531 317.258ZM221.384 318.613C221.375 318.537 221.36 318.37 221.367 318.157C221.375 317.94 221.408 317.626 221.528 317.267L227.58 319.285C227.808 318.6 227.737 318.024 227.725 317.917L221.384 318.613ZM221.39 318.665V318.669L227.719 317.862L227.718 317.857L221.39 318.665ZM221.501 317.322C221.364 317.775 221.358 318.157 221.366 318.37C221.37 318.48 221.379 318.569 221.385 318.621C221.388 318.648 221.39 318.67 221.392 318.683C221.393 318.69 221.394 318.696 221.395 318.7C221.395 318.703 221.395 318.706 221.395 318.706L227.713 317.816C227.708 317.784 227.734 317.946 227.741 318.136C227.748 318.343 227.743 318.72 227.607 319.167L221.501 317.322ZM225.157 315.149C225.274 315.151 225.339 315.163 225.356 315.167C225.371 315.169 225.407 315.176 225.463 315.192C225.49 315.199 225.543 315.214 225.612 315.237C225.647 315.249 225.698 315.268 225.761 315.293C225.817 315.315 225.92 315.359 226.044 315.425L223.064 321.065C223.426 321.257 223.768 321.342 223.798 321.35C223.928 321.385 224.056 321.414 224.176 321.436C224.401 321.479 224.721 321.524 225.077 321.528L225.157 315.149ZM225.319 313.954C225.164 314.258 225.034 314.513 224.893 314.756C224.752 314.998 224.637 315.164 224.548 315.271C224.455 315.381 224.448 315.359 224.545 315.302C224.669 315.229 224.888 315.146 225.155 315.149L225.079 321.528C227.228 321.554 228.665 320.292 229.44 319.365C230.206 318.45 230.736 317.376 231.007 316.843L225.319 313.954ZM225.398 313.798L225.32 313.952L231.006 316.846L231.084 316.692L225.398 313.798ZM225.693 311.201C225.776 312.308 225.787 312.627 225.758 312.871C225.746 312.975 225.721 313.167 225.401 313.792L231.081 316.697C231.593 315.696 231.96 314.749 232.094 313.621C232.211 312.632 232.122 311.623 232.055 310.723L225.693 311.201ZM225.686 311.108L225.693 311.201L232.055 310.724L232.048 310.632L225.686 311.108ZM226.008 309.338C225.952 309.511 225.882 309.722 225.816 309.94L231.918 311.8C231.961 311.66 232.008 311.515 232.069 311.332L226.008 309.338ZM226.013 309.326H226.012L232.065 311.343L226.013 309.326ZM226.003 309.356L226.002 309.358L232.076 311.311V311.308L226.003 309.356ZM226.289 308.334C226.271 308.501 226.209 308.728 226.01 309.335L232.07 311.328C232.23 310.842 232.527 309.976 232.631 309.03L226.289 308.334ZM226.269 306.939C226.311 307.631 226.326 308.005 226.289 308.334L232.631 309.032C232.736 308.073 232.673 307.155 232.637 306.555L226.269 306.939ZM226.249 304.74C226.182 305.582 226.236 306.393 226.269 306.939L232.637 306.555C232.599 305.931 232.583 305.57 232.609 305.25L226.249 304.74ZM227.843 302.232C227.869 302.213 227.892 302.2 227.911 302.19L230.947 307.8C231.127 307.703 231.306 307.594 231.48 307.473L227.843 302.232ZM228.413 301.89C228.314 301.949 228.215 302.007 228.115 302.062L231.208 307.642C231.375 307.549 231.541 307.453 231.706 307.354L228.413 301.89ZM251.704 304.531C244.323 304.531 237.404 303.471 230.966 301.564L229.153 307.68C236.175 309.761 243.704 310.911 251.704 310.911V304.531ZM314.8 270.534C307.644 277.621 296.856 286.186 285.258 292.961C273.57 299.789 261.51 304.531 251.704 304.531V310.911C263.235 310.911 276.5 305.466 288.476 298.47C300.542 291.422 311.755 282.527 319.289 275.068L314.8 270.534ZM330.761 268.833C330.535 265.651 330.534 265.651 330.534 265.651H330.532L330.529 265.652C330.527 265.652 330.524 265.652 330.52 265.652C330.512 265.653 330.503 265.654 330.49 265.655C330.465 265.656 330.431 265.659 330.387 265.663C330.299 265.67 330.174 265.68 330.016 265.695C329.7 265.723 329.252 265.768 328.707 265.831C327.62 265.958 326.126 266.163 324.513 266.477C322.912 266.789 321.123 267.222 319.471 267.823C317.886 268.399 316.105 269.242 314.8 270.534L319.288 275.068C319.611 274.748 320.359 274.289 321.651 273.819C322.876 273.373 324.313 273.016 325.734 272.739C327.143 272.464 328.468 272.282 329.445 272.168C329.931 272.111 330.325 272.072 330.595 272.048C330.729 272.036 330.832 272.027 330.899 272.022C330.932 272.019 330.957 272.017 330.972 272.016C330.979 272.015 330.984 272.015 330.987 272.015H330.989C330.989 272.015 330.987 272.015 330.761 268.833ZM318.225 253.482C316.763 256.084 317.799 258.846 318.698 260.523C319.696 262.385 321.215 264.214 322.655 265.742C324.124 267.301 325.656 268.697 326.808 269.695C327.387 270.197 327.878 270.605 328.227 270.889C328.401 271.032 328.541 271.143 328.639 271.221C328.688 271.26 328.726 271.291 328.754 271.312C328.767 271.323 328.778 271.332 328.786 271.338C328.79 271.341 328.793 271.344 328.796 271.346L328.799 271.348L328.8 271.349C328.8 271.349 328.801 271.35 330.761 268.833C332.721 266.316 332.721 266.317 332.721 266.317C332.721 266.317 332.72 266.316 332.718 266.314C332.715 266.311 332.708 266.306 332.699 266.299C332.68 266.284 332.651 266.261 332.611 266.23C332.532 266.166 332.412 266.071 332.259 265.945C331.951 265.695 331.51 265.328 330.985 264.873C329.93 263.959 328.569 262.716 327.297 261.366C325.996 259.986 324.925 258.636 324.321 257.509C323.617 256.197 324.039 256.158 323.787 256.606L318.225 253.482ZM335.913 255.431C336.73 252.348 336.73 252.347 336.73 252.347H336.728L336.725 252.346C336.722 252.346 336.719 252.345 336.715 252.344C336.706 252.341 336.695 252.338 336.68 252.335C336.651 252.327 336.609 252.316 336.556 252.303C336.45 252.275 336.298 252.237 336.106 252.19C335.722 252.095 335.176 251.965 334.517 251.82C333.207 251.53 331.417 251.172 329.55 250.914C327.718 250.661 325.649 250.48 323.836 250.614C322.933 250.681 321.935 250.835 321.007 251.191C320.089 251.542 318.941 252.208 318.225 253.482L323.787 256.606C323.507 257.105 323.151 257.201 323.287 257.149C323.412 257.101 323.729 257.019 324.305 256.977C325.451 256.892 327 257.002 328.677 257.234C330.318 257.46 331.929 257.781 333.141 258.049C333.743 258.182 334.24 258.3 334.582 258.385C334.753 258.427 334.886 258.46 334.973 258.483C335.017 258.494 335.05 258.502 335.07 258.508C335.081 258.51 335.088 258.512 335.092 258.513C335.094 258.514 335.096 258.514 335.096 258.514C335.096 258.514 335.096 258.514 335.913 255.431ZM324.741 242.765C325.623 244.707 327.808 248.387 329.645 251.396C330.588 252.942 331.482 254.377 332.139 255.425C332.468 255.95 332.738 256.378 332.926 256.676C333.02 256.825 333.093 256.941 333.144 257.02C333.169 257.06 333.188 257.09 333.201 257.111C333.208 257.121 333.213 257.129 333.216 257.135C333.218 257.137 333.219 257.139 333.22 257.141L333.221 257.142L333.222 257.143C333.222 257.143 333.222 257.143 335.913 255.431C338.604 253.719 338.604 253.719 338.604 253.719L338.603 253.717C338.603 253.717 338.602 253.715 338.6 253.712C338.597 253.707 338.592 253.7 338.586 253.69C338.574 253.671 338.555 253.642 338.531 253.604C338.483 253.527 338.411 253.413 338.319 253.268C338.134 252.976 337.868 252.554 337.545 252.038C336.896 251.003 336.017 249.59 335.09 248.071C333.184 244.951 331.235 241.638 330.549 240.127L324.741 242.765ZM321.485 237.412C322.859 239.424 323.966 241.059 324.741 242.765L330.549 240.127C329.506 237.829 328.064 235.733 326.754 233.814L321.485 237.412ZM314.821 223.336C316.099 229.569 319.081 233.891 321.485 237.412L326.754 233.814C324.34 230.278 322.064 226.9 321.071 222.055L314.821 223.336ZM313.707 206.119C313.489 210.024 313.19 215.375 314.821 223.336L321.071 222.055C319.605 214.899 319.869 210.195 320.077 206.475L313.707 206.119ZM313.249 199.786C313.913 201.209 313.898 202.709 313.707 206.119L320.077 206.475C320.246 203.439 320.495 200.228 319.031 197.09L313.249 199.786ZM274.597 169.263C281.177 171.765 289.456 176.299 296.841 181.848C304.289 187.443 310.453 193.79 313.249 199.786L319.031 197.09C315.576 189.681 308.423 182.569 300.673 176.747C292.86 170.878 284.06 166.037 276.865 163.3L274.597 169.263ZM266.082 160.573C267.709 162.564 269.243 164.441 270.529 165.877C271.173 166.595 271.805 167.259 272.395 167.797C272.905 168.261 273.681 168.915 274.597 169.263L276.865 163.3C277.155 163.41 277.131 163.482 276.691 163.081C276.332 162.754 275.864 162.271 275.28 161.619C274.112 160.316 272.682 158.567 271.021 156.535L266.082 160.573ZM248.111 143.663C248.812 143.737 249.905 144.151 251.41 145.172C252.871 146.163 254.479 147.56 256.177 149.246C259.58 152.624 263.04 156.851 266.082 160.573L271.021 156.535C268.025 152.87 264.353 148.372 260.672 144.718C258.828 142.888 256.907 141.192 254.993 139.893C253.123 138.625 250.996 137.551 248.775 137.318L248.111 143.663ZM246.829 169.854C247.704 170.296 248.945 170.558 250.237 170.009C251.396 169.518 252.028 168.604 252.35 167.995C252.972 166.822 253.202 165.331 253.317 164.092C253.565 161.428 253.431 157.82 253.178 154.346C252.921 150.821 252.526 147.243 252.197 144.557C252.032 143.211 251.884 142.084 251.776 141.291C251.722 140.894 251.678 140.581 251.647 140.366C251.632 140.258 251.62 140.175 251.612 140.119C251.608 140.09 251.605 140.069 251.603 140.054C251.602 140.046 251.601 140.04 251.6 140.036C251.6 140.034 251.6 140.031 251.6 140.031L251.599 140.03C251.599 140.03 251.599 140.029 248.443 140.491C245.287 140.952 245.287 140.952 245.287 140.952V140.956C245.288 140.959 245.288 140.963 245.289 140.97C245.291 140.982 245.294 141.002 245.298 141.028C245.305 141.08 245.316 141.158 245.331 141.26C245.36 141.465 245.402 141.766 245.454 142.151C245.559 142.92 245.704 144.02 245.865 145.332C246.187 147.964 246.569 151.429 246.815 154.809C247.065 158.241 247.161 161.4 246.965 163.501C246.859 164.644 246.699 165.035 246.713 165.009C246.731 164.974 247.004 164.451 247.744 164.137C248.616 163.767 249.377 163.994 249.705 164.159L246.829 169.854ZM237.018 163.923C240.266 166.037 243.682 168.265 246.829 169.854L249.705 164.159C246.932 162.76 243.829 160.745 240.498 158.577L237.018 163.923ZM220.933 156.216C222.238 156.038 224.356 156.572 227.429 158.121C230.379 159.607 233.616 161.71 237.018 163.923L240.498 158.577C237.176 156.415 233.626 154.1 230.3 152.424C227.095 150.809 223.447 149.434 220.069 149.895L220.933 156.216ZM229.383 170.798C230.989 170.197 232.447 169.31 233.426 167.961C234.472 166.522 234.725 164.899 234.482 163.395C234.054 160.75 232.085 158.399 230.446 156.757C228.663 154.971 226.581 153.366 224.996 152.233C224.193 151.659 223.496 151.191 222.996 150.864C222.746 150.701 222.544 150.572 222.402 150.482C222.331 150.437 222.275 150.402 222.235 150.378C222.215 150.365 222.199 150.356 222.188 150.348C222.182 150.345 222.177 150.342 222.174 150.34C222.172 150.339 222.169 150.337 222.169 150.337L222.167 150.336C222.167 150.336 222.166 150.335 220.501 153.056C218.836 155.777 218.835 155.776 218.835 155.776C218.835 155.776 218.837 155.777 218.84 155.779C218.846 155.783 218.856 155.789 218.869 155.797C218.897 155.814 218.94 155.841 218.998 155.878C219.113 155.95 219.286 156.061 219.506 156.204C219.946 156.492 220.568 156.91 221.286 157.423C222.742 158.464 224.504 159.835 225.931 161.264C227.501 162.836 228.107 163.936 228.184 164.413C228.194 164.471 228.182 164.326 228.264 164.213C228.281 164.189 228.08 164.474 227.149 164.822L229.383 170.798ZM188.519 200.626C191.492 194.713 197.891 188.629 205.701 183.238C213.434 177.899 222.182 173.49 229.383 170.798L227.149 164.822C219.471 167.692 210.254 172.342 202.076 177.988C193.974 183.581 186.515 190.409 182.819 197.761L188.519 200.626ZM189.023 205.89C188.641 204.339 188.384 203.261 188.304 202.329C188.231 201.472 188.336 200.991 188.519 200.626L182.819 197.761C181.942 199.507 181.81 201.271 181.948 202.874C182.079 204.402 182.48 205.998 182.829 207.415L189.023 205.89ZM189.129 223.263C191.443 215.631 190.018 209.927 189.023 205.89L182.829 207.415C183.778 211.269 184.807 215.528 183.023 221.412L189.129 223.263ZM189 223.679C189.043 223.541 189.086 223.403 189.129 223.263L183.023 221.412C182.989 221.525 182.955 221.637 182.919 221.748L189 223.679ZM185.536 228.835C186.464 227.417 187.464 226.026 188.513 224.625L183.406 220.802C182.314 222.261 181.226 223.77 180.197 225.343L185.536 228.835ZM181.202 236.046C182.64 233.55 184.025 231.145 185.536 228.835L180.197 225.343C178.57 227.83 177.096 230.391 175.674 232.861L181.202 236.046ZM179.332 239.265C179.967 238.189 180.589 237.109 181.202 236.046L175.674 232.861C175.058 233.929 174.453 234.981 173.838 236.024L179.332 239.265ZM166.919 253.605C171.057 249.035 175.059 244.369 179.016 239.71L174.154 235.579C170.204 240.229 166.257 244.832 162.19 249.323L166.919 253.605ZM184.794 277.799L184.832 277.801L185.172 271.431L185.134 271.429L184.794 277.799ZM185.689 271.547C185.7 271.55 185.938 271.611 186.216 271.747C186.258 271.767 186.835 272.024 187.315 272.628C187.597 272.983 188.057 273.728 188.003 274.776C187.947 275.871 187.368 276.608 186.951 276.983C186.295 277.573 185.576 277.71 185.545 277.717C185.349 277.763 185.192 277.779 185.128 277.785C184.988 277.799 184.88 277.799 184.855 277.799C184.764 277.799 184.692 277.794 184.791 277.799L185.137 271.429C185.116 271.428 185.077 271.426 185.038 271.424C185.01 271.423 184.926 271.419 184.829 271.419C184.79 271.42 184.671 271.42 184.523 271.434C184.455 271.441 184.294 271.458 184.095 271.504C184.062 271.512 183.341 271.649 182.684 272.24C182.267 272.616 181.688 273.353 181.632 274.449C181.578 275.497 182.038 276.242 182.321 276.598C182.802 277.203 183.38 277.461 183.425 277.483C183.709 277.621 183.956 277.686 183.981 277.693L185.689 271.547ZM186.007 271.634C185.905 271.607 185.804 271.579 185.704 271.551L183.966 277.689C184.094 277.725 184.221 277.76 184.346 277.794L186.007 271.634ZM183.575 277.473L183.604 277.489L186.749 271.939L186.721 271.923L183.575 277.473ZM183.491 277.426C183.52 277.442 183.549 277.458 183.578 277.474L186.718 271.922C186.679 271.899 186.64 271.877 186.601 271.855L183.491 277.426ZM183.451 277.403L183.495 277.428L186.597 271.853L186.553 271.829L183.451 277.403ZM282.134 295.677C279.275 296.057 277.44 298.689 277.798 301.384L284.122 300.544C284.206 301.177 283.769 301.895 282.974 302.001L282.134 295.677ZM287.841 300.044C287.472 297.261 284.908 295.309 282.134 295.677L282.974 302.001C282.264 302.095 281.612 301.603 281.517 300.884L287.841 300.044ZM288.681 305.527C288.38 303.665 288.087 301.849 287.84 300.033L281.518 300.895C281.778 302.801 282.084 304.695 282.383 306.544L288.681 305.527ZM289.462 310.58C289.222 308.878 288.948 307.184 288.681 305.527L282.383 306.544C282.652 308.212 282.915 309.843 283.146 311.472L289.462 310.58ZM285.05 316.436C287.931 316.042 289.845 313.381 289.464 310.594L283.144 311.458C283.061 310.851 283.479 310.212 284.184 310.116L285.05 316.436ZM279.207 311.99C279.591 314.799 282.189 316.83 285.052 316.436L284.182 310.116C284.865 310.022 285.441 310.495 285.527 311.126L279.207 311.99ZM278.723 308.367C278.884 309.572 279.045 310.774 279.205 311.978L285.529 311.138C285.369 309.932 285.208 308.726 285.047 307.522L278.723 308.367ZM277.797 301.376C278.101 303.711 278.412 306.042 278.723 308.367L285.047 307.522C284.736 305.195 284.425 302.875 284.123 300.552L277.797 301.376ZM187.362 409.216C184.353 408.157 184.354 408.156 184.354 408.156C184.354 408.156 184.353 408.158 184.352 408.16C184.351 408.163 184.349 408.169 184.346 408.177C184.34 408.193 184.331 408.219 184.319 408.253C184.295 408.321 184.257 408.425 184.207 408.562C184.108 408.835 183.959 409.24 183.764 409.755C183.373 410.787 182.8 412.26 182.074 414.014C180.618 417.53 178.565 422.127 176.155 426.53C173.716 430.985 171.034 435.011 168.378 437.559C165.619 440.206 163.859 440.419 162.656 439.881L160.049 445.703C164.974 447.908 169.529 445.296 172.795 442.163C176.164 438.93 179.219 434.218 181.751 429.594C184.311 424.916 186.463 420.091 187.969 416.454C188.723 414.631 189.321 413.096 189.731 412.013C189.936 411.471 190.094 411.041 190.202 410.745C190.256 410.597 190.297 410.482 190.325 410.403C190.34 410.363 190.35 410.333 190.358 410.311C190.362 410.301 190.365 410.292 190.367 410.286C190.368 410.283 190.369 410.281 190.369 410.279L190.37 410.277C190.37 410.277 190.371 410.275 187.362 409.216ZM186.277 412.406H187.362V406.026H186.277V412.406ZM178.713 382.502L183.129 409.727L189.426 408.705L185.011 381.48L178.713 382.502ZM180.295 398.802L184.925 382.882L178.799 381.1L174.17 397.021L180.295 398.802ZM161.541 374.84L174.407 399.392L180.058 396.431L167.192 371.879L161.541 374.84ZM162.656 439.881C161.053 439.163 159.062 437.377 156.804 434.258C154.597 431.208 152.352 427.192 150.134 422.472C145.702 413.04 141.536 401.14 138.058 389.368C134.583 377.608 131.825 366.079 130.189 357.431C129.368 353.094 128.843 349.554 128.64 347.1C128.538 345.851 128.53 345.016 128.571 344.543C128.593 344.29 128.616 344.31 128.556 344.475C128.543 344.511 128.204 345.519 126.982 345.978L124.742 340.004C123.271 340.556 122.73 341.83 122.561 342.295C122.345 342.888 122.259 343.499 122.216 343.989C122.128 345 122.17 346.257 122.282 347.624C122.511 350.401 123.082 354.191 123.92 358.617C125.601 367.496 128.411 379.233 131.939 391.175C135.464 403.104 139.736 415.344 144.36 425.185C146.67 430.102 149.109 434.507 151.637 437.999C154.115 441.422 156.912 444.299 160.049 445.703L162.656 439.881Z" fill="white"/>
<path d="M208.591 314.914C208.591 314.914 255.679 372.214 305.141 313.221C305.141 313.221 325.087 310.973 347.179 328.714L327.439 392.708L327.913 414.615L326.964 370.801L329.941 508.119L336.179 546.214L175.179 558.214L188.627 486.128L183.618 372.214L184.686 396.491L175.362 388.991L158.862 354.491L169.179 328.714L208.591 314.914Z" fill="#BBC1F1"/>
<path d="M266.873 242.817C266.873 242.817 293.5 230.491 308.27 237.967C313.296 235.011 287.555 196.564 266.873 242.817Z" fill="white" stroke="#000002" stroke-width="1.5" stroke-miterlimit="10" stroke-linejoin="round"/>
<path d="M249.179 257.214L253.104 261.152C253.104 261.152 256.308 258.791 257.679 257.214" stroke="#823F4B" stroke-width="8" stroke-miterlimit="10" stroke-linecap="round" stroke-linejoin="round"/>
<path d="M252.441 269.156C252.441 269.156 238.16 278.031 210.229 269.444C210.229 269.444 232.572 297.53 253.855 298.255C275.138 298.98 299.43 264.813 299.43 264.813C278.574 279.442 252.441 269.156 252.441 269.156Z" fill="#541F17"/>
<path d="M225.823 273.681L234.61 283.77L235.62 278.531L275.107 278.454L276.445 283.546L284.13 272.36C262.769 276.326 252.15 270.448 252.15 270.448C252.15 270.448 246.025 275.727 225.823 273.681Z" fill="#FFF8F3"/>
<path d="M237.762 284.121C237.626 279.764 247.048 283.142 254.385 282.914C261.722 282.685 272.624 279.594 272.76 283.952C272.895 288.309 261.488 294.807 254.151 295.036C246.814 295.264 237.898 288.479 237.762 284.121Z" fill="#E19F97"/>
<path d="M277 235.476C283.946 215.883 297.293 224.194 299.98 233.124C295 233.124 277.17 235.481 277.17 235.481" fill="black"/>
<path d="M277 235.476C283.946 215.883 297.293 224.194 299.98 233.124C295 233.124 277.17 235.481 277.17 235.481" stroke="#000002" stroke-opacity="0.918919" stroke-width="5.88512" stroke-miterlimit="10" stroke-linecap="round" stroke-linejoin="round"/>
<path d="M287.103 234.082C286.501 232.481 286.829 230.877 287.836 230.498C288.843 230.12 290.147 231.11 290.749 232.711C291.351 234.312 291.022 235.916 290.015 236.295C289.009 236.673 287.705 235.683 287.103 234.082Z" fill="white"/>
<path d="M241.204 243.016C241.204 243.016 213.947 233.617 200.526 242.843C195.306 240.434 215.678 198.713 241.204 243.016Z" fill="white" stroke="#000002" stroke-width="1.5" stroke-miterlimit="10" stroke-linejoin="round"/>
<path d="M231.161 237.491C225.5 215.491 206.5 223.491 208.212 236.468C213.162 235.885 231.161 237.143 231.161 237.143" fill="black"/>
<path d="M231.161 237.491C225.5 215.491 206.5 223.491 208.212 236.468C213.162 235.885 231.161 237.143 231.161 237.143" stroke="#000002" stroke-opacity="0.918919" stroke-width="5.88512" stroke-miterlimit="10" stroke-linecap="round" stroke-linejoin="round"/>
<path d="M304.795 247.801C304.795 247.723 304.858 247.66 304.935 247.66C305.013 247.66 305.076 247.723 305.076 247.801C305.076 247.878 305.013 247.941 304.935 247.941C304.858 247.941 304.795 247.878 304.795 247.801Z" fill="white" stroke="#000002" stroke-width="0.706675" stroke-miterlimit="10" stroke-linejoin="round"/>
<path d="M284.574 257.07C284.574 256.992 284.637 256.929 284.714 256.929C284.792 256.929 284.855 256.992 284.855 257.07C284.855 257.147 284.792 257.21 284.714 257.21C284.637 257.21 284.574 257.147 284.574 257.07Z" fill="white" stroke="#000002" stroke-width="0.706675" stroke-miterlimit="10" stroke-linejoin="round"/>
<path d="M294.123 256.086C294.123 255.931 294.186 255.805 294.263 255.805C294.341 255.805 294.404 255.931 294.404 256.086C294.404 256.241 294.341 256.367 294.263 256.367C294.186 256.367 294.123 256.241 294.123 256.086Z" fill="white" stroke="#000002" stroke-width="0.706675" stroke-miterlimit="10" stroke-linejoin="round"/>
<path d="M235.707 254.402C235.707 254.402 235.769 254.402 235.847 254.402C235.924 254.402 235.987 254.402 235.987 254.402" stroke="#000002" stroke-width="0.492477" stroke-miterlimit="10" stroke-linecap="round" stroke-linejoin="round"/>
<path d="M218.575 259.456C218.575 259.456 218.763 259.456 218.996 259.456C219.229 259.456 219.417 259.456 219.417 259.456" stroke="#000002" stroke-width="1.78404" stroke-miterlimit="10" stroke-linecap="round" stroke-linejoin="round"/>
<path d="M203.128 262.826C203.128 262.671 203.191 262.545 203.269 262.545C203.346 262.545 203.409 262.671 203.409 262.826C203.409 262.981 203.346 263.107 203.269 263.107C203.191 263.107 203.128 262.981 203.128 262.826Z" stroke="#000002" stroke-width="1.78404" stroke-miterlimit="10" stroke-linecap="round" stroke-linejoin="round"/>
<path d="M236.549 258.193C236.549 258.116 236.612 258.053 236.689 258.053C236.767 258.053 236.83 258.116 236.83 258.193C236.83 258.271 236.767 258.333 236.689 258.333C236.612 258.333 236.549 258.271 236.549 258.193Z" stroke="#000002" stroke-width="1.78404" stroke-miterlimit="10" stroke-linecap="round" stroke-linejoin="round"/>
<path d="M269.785 265.893C269.785 265.851 270.041 265.817 270.356 265.817C270.672 265.817 270.928 265.851 270.928 265.893C270.928 265.935 270.672 265.969 270.356 265.969C270.041 265.969 269.785 265.935 269.785 265.893Z" stroke="#000002" stroke-width="1.78404" stroke-miterlimit="10" stroke-linecap="round" stroke-linejoin="round"/>
<path d="M259.226 398.549L240.886 385.991L240.853 396.197C240.924 395.998 241.011 395.802 241.132 395.618C241.929 394.401 243.544 394.074 244.738 394.892C245.928 395.707 246.247 397.358 245.45 398.575C244.65 399.796 243.038 400.119 241.848 399.304C241.361 398.97 241.028 398.497 240.848 397.973L240.819 407.169C240.811 409.569 238.893 411.513 236.551 411.506L234.85 411.5C235.511 412.379 235.595 413.619 234.959 414.59C234.159 415.811 232.548 416.134 231.357 415.319C230.163 414.501 229.841 412.855 230.641 411.633C230.676 411.58 230.721 411.537 230.759 411.487L216.608 411.443C216.693 411.516 216.771 411.595 216.865 411.659L240.18 427.624C241.594 428.591 243.507 428.204 244.453 426.759L260.071 402.918C261.018 401.473 260.639 399.517 259.226 398.549ZM244.006 420.785C243.207 422.006 241.594 422.328 240.404 421.514C239.21 420.696 238.888 419.049 239.688 417.828C240.485 416.611 242.1 416.284 243.294 417.102C244.484 417.917 244.804 419.568 244.006 420.785ZM249.252 412.777C248.452 413.998 246.84 414.321 245.65 413.506C244.456 412.688 244.133 411.042 244.934 409.82C245.731 408.603 247.346 408.277 248.54 409.094C249.729 409.909 250.049 411.56 249.252 412.777ZM254.498 404.77C253.697 405.991 252.086 406.313 250.895 405.498C249.701 404.681 249.379 403.034 250.179 401.813C250.976 400.596 252.591 400.269 253.785 401.087C254.975 401.902 255.295 403.553 254.498 404.77Z" fill="url(#paint0_linear_101_297)"/>
<path d="M239.643 407.164L239.733 378.471C239.738 376.732 238.364 375.318 236.663 375.312L208.601 375.224C206.899 375.218 205.516 376.624 205.51 378.364L205.42 407.056C205.414 408.796 206.789 410.21 208.49 410.215L236.553 410.304C238.254 410.309 239.637 408.904 239.643 407.164ZM211.651 405.021C210.214 405.017 209.054 403.828 209.058 402.358C209.063 400.894 210.231 399.708 211.668 399.712C213.1 399.717 214.26 400.91 214.256 402.375C214.251 403.844 213.084 405.026 211.651 405.021ZM211.712 385.747C210.274 385.743 209.114 384.554 209.119 383.084C209.124 381.62 210.291 380.434 211.729 380.438C213.161 380.443 214.321 381.636 214.316 383.101C214.312 384.57 213.144 385.752 211.712 385.747ZM222.571 395.419C221.134 395.414 219.973 394.225 219.978 392.756C219.982 391.291 221.15 390.105 222.588 390.109C224.02 390.114 225.18 391.308 225.175 392.772C225.171 394.242 224.003 395.423 222.571 395.419ZM233.429 405.09C231.992 405.085 230.832 403.897 230.837 402.427C230.841 400.963 232.009 399.776 233.446 399.781C234.878 399.785 236.039 400.979 236.035 402.443C236.03 403.913 234.863 405.094 233.429 405.09ZM233.49 385.816C232.053 385.811 230.893 384.623 230.898 383.153C230.902 381.688 232.07 380.502 233.507 380.507C234.939 380.511 236.1 381.705 236.095 383.169C236.091 384.639 234.923 385.82 233.49 385.816Z" fill="#2D2145"/>
<path d="M296.238 423.427L277.044 434.636L286.256 439.029C286.106 438.88 285.966 438.718 285.852 438.53C285.092 437.289 285.488 435.69 286.738 434.96C287.983 434.233 289.612 434.65 290.371 435.891C291.133 437.136 290.735 438.732 289.49 439.459C288.98 439.757 288.41 439.855 287.859 439.794L296.16 443.753C298.326 444.786 299.263 447.351 298.255 449.465L297.522 451C298.599 450.778 299.756 451.233 300.362 452.222C301.124 453.468 300.726 455.063 299.48 455.79C298.231 456.52 296.605 456.107 295.842 454.862C295.809 454.807 295.79 454.749 295.761 454.693L289.67 467.465C289.772 467.42 289.877 467.384 289.975 467.326L314.376 453.077C315.856 452.212 316.324 450.317 315.422 448.844L300.549 424.532C299.647 423.058 297.717 422.563 296.238 423.427ZM309.831 446.693C310.593 447.938 310.194 449.534 308.949 450.261C307.699 450.991 306.073 450.578 305.311 449.333C304.552 448.092 304.947 446.492 306.197 445.763C307.442 445.035 309.071 445.452 309.831 446.693ZM304.835 438.528C305.597 439.773 305.199 441.368 303.954 442.095C302.704 442.825 301.077 442.412 300.316 441.167C299.556 439.925 299.952 438.326 301.201 437.596C302.447 436.869 304.076 437.287 304.835 438.528ZM299.84 430.361C300.601 431.607 300.204 433.202 298.958 433.929C297.708 434.659 296.082 434.246 295.32 433.001C294.561 431.76 294.956 430.161 296.206 429.431C297.452 428.703 299.081 429.12 299.84 430.361Z" fill="url(#paint1_linear_101_297)"/>
<path d="M295.652 444.813L269.753 432.462C268.183 431.713 266.317 432.351 265.585 433.887L253.505 459.216C252.773 460.752 253.452 462.603 255.022 463.352L280.92 475.703C282.49 476.452 284.357 475.814 285.089 474.279L297.169 448.949C297.901 447.414 297.222 445.562 295.652 444.813ZM281.745 469.2C281.126 470.498 279.556 471.038 278.229 470.406C276.907 469.775 276.334 468.212 276.953 466.915C277.57 465.622 279.145 465.084 280.467 465.714C281.793 466.347 282.362 467.907 281.745 469.2ZM264.348 460.904C263.729 462.201 262.159 462.741 260.832 462.109C259.51 461.478 258.937 459.916 259.556 458.618C260.173 457.325 261.748 456.787 263.07 457.417C264.396 458.05 264.965 459.611 264.348 460.904ZM277.734 455.223C277.115 456.52 275.544 457.061 274.218 456.429C272.896 455.798 272.323 454.235 272.942 452.938C273.559 451.645 275.134 451.107 276.456 451.737C277.782 452.37 278.351 453.93 277.734 455.223ZM291.12 449.543C290.501 450.84 288.931 451.38 287.604 450.748C286.282 450.117 285.709 448.555 286.328 447.258C286.944 445.965 288.52 445.426 289.842 446.056C291.168 446.689 291.737 448.249 291.12 449.543ZM273.723 441.246C273.104 442.543 271.534 443.084 270.207 442.451C268.885 441.821 268.312 440.258 268.931 438.961C269.547 437.668 271.123 437.129 272.445 437.759C273.771 438.392 274.34 439.953 273.723 441.246Z" fill="#2D2145"/>
<path d="M218.301 236.155C217.699 234.554 218.027 232.95 219.034 232.571C220.041 232.193 221.345 233.183 221.947 234.784C222.549 236.385 222.22 237.989 221.213 238.368C220.207 238.746 218.903 237.756 218.301 236.155Z" fill="white"/>
<path d="M321.696 371.887L313.991 344.248C313.524 342.572 311.817 341.584 310.178 342.041L283.146 349.577C281.508 350.034 280.558 351.762 281.025 353.438L288.73 381.077C289.197 382.752 290.904 383.74 292.543 383.283L319.575 375.748C321.213 375.291 322.163 373.562 321.696 371.887ZM294.174 377.426C292.789 377.812 291.35 376.983 290.956 375.568C290.562 374.157 291.364 372.698 292.748 372.312C294.128 371.927 295.569 372.761 295.962 374.172C296.357 375.587 295.554 377.041 294.174 377.426ZM288.998 358.86C287.614 359.246 286.174 358.417 285.78 357.001C285.386 355.59 286.188 354.132 287.573 353.746C288.952 353.361 290.393 354.195 290.786 355.606C291.181 357.021 290.378 358.475 288.998 358.86ZM302.076 365.219C300.691 365.605 299.251 364.776 298.857 363.36C298.463 361.949 299.266 360.49 300.65 360.105C302.03 359.72 303.47 360.554 303.864 361.964C304.258 363.38 303.456 364.834 302.076 365.219ZM315.153 371.578C313.768 371.964 312.329 371.135 311.934 369.719C311.541 368.308 312.342 366.85 313.727 366.464C315.107 366.079 316.548 366.913 316.941 368.323C317.336 369.739 316.533 371.193 315.153 371.578ZM309.977 353.012C308.592 353.398 307.153 352.569 306.759 351.153C306.365 349.742 307.167 348.283 308.551 347.898C309.931 347.513 311.372 348.346 311.766 349.757C312.16 351.173 311.357 352.627 309.977 353.012Z" fill="#2D2145"/>
<path d="M214.592 344.943L197.687 321.759C196.662 320.353 194.717 320.026 193.342 321.029L170.668 337.563C169.294 338.565 169.01 340.517 170.035 341.923L186.94 365.106C187.965 366.512 189.91 366.838 191.285 365.836L213.959 349.302C215.334 348.3 215.617 346.348 214.592 344.943ZM190.759 359.778C189.598 360.625 187.959 360.354 187.093 359.166C186.23 357.983 186.47 356.336 187.631 355.489C188.788 354.645 190.43 354.921 191.293 356.104C192.159 357.291 191.916 358.934 190.759 359.778ZM179.403 344.205C178.242 345.052 176.603 344.78 175.737 343.593C174.874 342.409 175.114 340.762 176.275 339.915C177.432 339.071 179.074 339.347 179.937 340.531C180.803 341.718 180.56 343.361 179.403 344.205ZM193.88 345.576C192.718 346.423 191.079 346.151 190.213 344.964C189.35 343.78 189.59 342.133 190.752 341.286C191.909 340.442 193.55 340.718 194.413 341.901C195.279 343.089 195.037 344.732 193.88 345.576ZM208.356 346.947C207.195 347.794 205.556 347.522 204.69 346.335C203.827 345.151 204.067 343.504 205.228 342.657C206.385 341.813 208.027 342.089 208.89 343.272C209.756 344.459 209.514 346.103 208.356 346.947ZM197 331.374C195.839 332.22 194.2 331.949 193.334 330.761C192.471 329.578 192.711 327.931 193.872 327.084C195.029 326.24 196.671 326.515 197.534 327.699C198.4 328.886 198.158 330.529 197 331.374Z" fill="#F1E8FF"/>
<path d="M254.592 504.943L237.687 481.759C236.662 480.353 234.717 480.026 233.342 481.029L210.668 497.563C209.293 498.565 209.01 500.517 210.035 501.923L226.94 525.106C227.965 526.512 229.91 526.838 231.285 525.836L253.959 509.302C255.334 508.3 255.617 506.348 254.592 504.943ZM230.759 519.778C229.598 520.625 227.959 520.354 227.093 519.166C226.23 517.983 226.47 516.336 227.631 515.489C228.788 514.645 230.43 514.921 231.293 516.104C232.159 517.291 231.916 518.934 230.759 519.778ZM219.403 504.205C218.242 505.052 216.603 504.78 215.737 503.593C214.874 502.409 215.114 500.762 216.275 499.915C217.432 499.071 219.074 499.347 219.937 500.531C220.803 501.718 220.56 503.361 219.403 504.205ZM233.88 505.576C232.718 506.423 231.079 506.151 230.213 504.964C229.35 503.78 229.59 502.133 230.752 501.286C231.909 500.442 233.55 500.718 234.413 501.901C235.279 503.089 235.037 504.732 233.88 505.576ZM248.356 506.947C247.195 507.794 245.556 507.522 244.69 506.335C243.827 505.151 244.067 503.504 245.228 502.657C246.385 501.813 248.027 502.089 248.89 503.272C249.756 504.459 249.514 506.103 248.356 506.947ZM237 491.374C235.839 492.22 234.2 491.949 233.334 490.761C232.471 489.578 232.711 487.931 233.872 487.084C235.029 486.24 236.671 486.515 237.534 487.699C238.4 488.886 238.158 490.529 237 491.374Z" fill="#F1E8FF"/>
<path d="M316.678 524.139L325.624 496.877C326.166 495.224 325.296 493.454 323.679 492.924L297.016 484.175C295.399 483.644 293.649 484.554 293.107 486.207L284.161 513.469C283.619 515.122 284.489 516.892 286.106 517.422L312.77 526.171C314.386 526.702 316.136 525.792 316.678 524.139ZM290.716 513.458C289.35 513.01 288.614 511.521 289.072 510.124C289.529 508.733 291.006 507.965 292.371 508.413C293.732 508.86 294.467 510.353 294.01 511.745C293.552 513.141 292.077 513.904 290.716 513.458ZM296.725 495.144C295.359 494.696 294.623 493.207 295.081 491.811C295.538 490.419 297.015 489.652 298.381 490.1C299.742 490.546 300.476 492.04 300.02 493.432C299.562 494.828 298.086 495.591 296.725 495.144ZM304.067 507.696C302.702 507.248 301.965 505.759 302.423 504.363C302.88 502.971 304.357 502.204 305.723 502.652C307.084 503.098 307.818 504.592 307.362 505.983C306.904 507.38 305.428 508.143 304.067 507.696ZM311.409 520.248C310.043 519.8 309.307 518.311 309.765 516.915C310.222 515.523 311.699 514.755 313.064 515.203C314.425 515.65 315.161 517.144 314.704 518.535C314.246 519.931 312.771 520.695 311.409 520.248ZM317.418 501.934C316.053 501.486 315.316 499.998 315.774 498.601C316.231 497.21 317.708 496.442 319.073 496.89C320.434 497.337 321.17 498.83 320.713 500.222C320.255 501.618 318.78 502.381 317.418 501.934Z" fill="#F1E8FF"/>
<path d="M311.179 314.149L309.179 417.714L313.179 499.149" stroke="#2D2145" stroke-width="12"/>
<path d="M228.179 367.149L230.179 552.149" stroke="#F1F3FF" stroke-width="12"/>
<path d="M269 208.991C269 208.991 272.183 206.268 274.683 205.268C277.183 204.268 281.5 203.491 281.5 203.491" stroke="#2D2145" stroke-width="5" stroke-linecap="round"/>
<path d="M224 203.491C224 203.491 228.188 203.61 230.712 204.548C233.236 205.486 236.956 207.809 236.956 207.809" stroke="#2D2145" stroke-width="5" stroke-linecap="round"/>
<path d="M334 274.491L401 317.991L364.5 357.491L328.5 386.991L321 317.991L334 274.491Z" fill="#BBC1F1"/>
<g clip-path="url(#clip0_101_297)">
<path d="M274.337 129.04C270.521 128.32 268.011 124.644 268.73 120.828C268.783 120.55 268.853 120.274 268.938 120.004L273.084 105.352L265.078 92.0898C264.101 90.4892 263.817 88.5602 264.293 86.7459C264.75 84.966 265.889 83.4362 267.463 82.4871C268.496 81.8596 269.679 81.5202 270.888 81.5018L286.27 80.9163L296.392 69.1959C298.003 67.3153 300.495 66.4389 302.928 66.8969C304.158 67.1068 305.31 67.6392 306.267 68.4402C307.182 69.2287 307.871 70.2448 308.266 71.3858L313.592 85.8535L318.2 87.8244C319.217 88.2526 320.316 88.6867 321.432 89.1331C323.848 90.0968 326.352 91.0859 328.369 92.1359C331.793 93.9231 333.119 98.1484 331.332 101.573C330.878 102.443 330.247 103.206 329.479 103.815L317.303 113.403L315.969 128.847C315.816 130.716 314.907 132.443 313.453 133.627C312.044 134.807 310.229 135.386 308.397 135.242C308.192 135.205 307.984 135.167 307.773 135.128C306.838 134.956 305.949 134.594 305.16 134.063L292.269 125.44L277.193 128.971C276.268 129.192 275.307 129.221 274.371 129.056L274.337 129.04Z" fill="#FFE64C"/>
<path d="M294.25 114.818C290.63 114.174 287.987 111.037 287.966 107.36L287.968 106.266L303.07 109.016L302.677 110.048C301.379 113.454 297.847 115.46 294.257 114.829L294.25 114.818Z" fill="#EB6B75"/>
<path d="M285.071 97.0582C286.938 99.7462 291.025 96.9263 289.159 94.2293C287.293 91.5323 283.214 94.3628 285.071 97.0582Z" fill="white"/>
<path d="M306.152 97.2766C305 98.077 304.715 99.6592 305.515 100.811C306.316 101.964 307.898 102.249 309.05 101.449C310.199 100.65 310.486 99.0731 309.692 97.9211C308.896 96.7659 307.314 96.4751 306.16 97.2714C306.158 97.2729 306.155 97.2751 306.152 97.2766Z" fill="white"/>
<path d="M274.337 129.04C270.521 128.321 268.011 124.644 268.73 120.828C268.783 120.55 268.853 120.274 268.938 120.004L273.084 105.352L265.078 92.0899C264.101 90.4893 263.817 88.5602 264.293 86.746C264.751 84.966 265.889 83.4362 267.463 82.4871C268.496 81.8597 269.679 81.5203 270.888 81.5019L286.27 80.9163L296.392 69.1959C298.003 67.3153 300.495 66.439 302.928 66.8969L295.621 107.033L287.852 105.619C287.688 105.589 287.529 105.698 287.499 105.863C287.093 108.015 287.572 110.24 288.826 112.035C290.024 113.825 291.897 115.051 294.017 115.431L292.269 125.44L277.193 128.971C276.256 129.192 275.283 129.215 274.337 129.04ZM287.673 92.6305C286.001 92.3327 284.405 93.4472 284.108 95.1179C283.967 95.9107 284.143 96.7285 284.598 97.3932C285.039 98.0655 285.734 98.5298 286.525 98.6794C288.176 99.0744 289.834 98.0566 290.229 96.4055C290.625 94.7544 289.607 93.0958 287.956 92.7007C287.846 92.6743 287.736 92.6542 287.625 92.6405L287.673 92.6305Z" fill="#F9C65B"/>
<path d="M311.88 83.9047L307.411 71.7634C307.069 70.7628 306.466 69.872 305.665 69.1817C304.851 68.4854 303.87 68.013 302.818 67.8121C301.765 67.6063 300.677 67.6824 299.663 68.0328C298.661 68.3864 297.772 68.999 297.085 69.8084L287.049 81.4136L286.704 81.8185L286.177 81.8348L270.974 82.4155C269.927 82.4372 268.905 82.7356 268.011 83.279C267.1 83.8334 266.348 84.615 265.83 85.5478C265.308 86.4818 265.042 87.5371 265.058 88.6064C265.078 89.6717 265.382 90.7122 265.94 91.62L273.817 104.766L274.091 105.218L273.951 105.725L269.827 120.259C269.474 121.309 269.421 122.436 269.674 123.514C269.918 124.543 270.422 125.491 271.137 126.269C271.843 127.063 272.744 127.659 273.75 127.998C274.794 128.333 275.909 128.374 276.974 128.117L291.94 124.575L292.458 124.454L292.9 124.75L305.665 133.295C306.505 133.863 307.476 134.207 308.486 134.295C309.574 134.383 310.666 134.183 311.651 133.711C312.639 133.24 313.483 132.511 314.093 131.602C314.659 130.751 314.999 129.77 315.08 128.751L316.374 113.421L316.423 112.897L316.838 112.57L328.909 103.094C329.592 102.563 330.152 101.89 330.55 101.12C331.626 98.997 331.384 96.4452 329.929 94.562C329.396 93.8963 328.726 93.3534 327.965 92.9696C325.963 91.941 323.46 90.9428 321.07 89.9932C319.945 89.5451 318.836 89.1094 317.838 88.6844L313.339 86.7802L312.852 86.5793L312.672 86.0788L311.88 83.9047ZM288.017 104.713L303.563 107.544C304.228 107.665 304.669 108.301 304.548 108.967C303.645 113.922 298.896 117.207 293.94 116.304C288.986 115.401 285.701 110.653 286.603 105.7C286.723 105.038 287.355 104.597 288.017 104.713ZM295.345 108.545L288.89 107.37C288.897 111.059 291.894 114.044 295.585 114.037C298.356 114.032 300.837 112.315 301.819 109.724L295.345 108.545ZM288.397 94.7641C287.911 94.061 286.946 93.8853 286.243 94.3718C285.539 94.8583 285.364 95.8235 285.85 96.5266C286.342 97.2223 287.3 97.3967 288.005 96.919C288.705 96.43 288.88 95.4684 288.397 94.7641ZM287.838 91.725C290.002 92.121 291.436 94.1968 291.04 96.3621C290.85 97.3995 290.257 98.3196 289.39 98.9203C287.584 100.17 285.108 99.7197 283.859 97.9142C283.859 97.9142 283.859 97.9142 283.858 97.9131C282.608 96.1037 283.059 93.6247 284.867 92.3721C285.732 91.7701 286.801 91.5372 287.838 91.725ZM308.868 98.4913C308.384 97.7885 307.421 97.6113 306.718 98.096C306.717 98.0968 306.715 98.0983 306.714 98.099C306.018 98.5906 305.843 99.5486 306.321 100.254C306.813 100.949 307.771 101.124 308.476 100.646C309.176 100.157 309.351 99.1956 308.868 98.4913ZM308.309 95.4522C310.473 95.8482 311.907 97.924 311.511 100.089C311.321 101.127 310.728 102.047 309.861 102.648C308.055 103.897 305.579 103.447 304.33 101.641C304.33 101.641 304.33 101.641 304.329 101.64C303.076 99.837 303.523 97.36 305.326 96.1074C305.33 96.1045 305.333 96.1023 305.338 96.0993C306.203 95.4982 307.272 95.2653 308.309 95.4522ZM309.677 70.9318L314.138 83.0624L314.768 84.7393L318.777 86.4046C319.784 86.8312 320.866 87.262 321.965 87.696C324.408 88.6646 326.973 89.6835 329.076 90.768C330.152 91.3166 331.096 92.0918 331.843 93.0397C333.906 95.6781 334.244 99.2755 332.71 102.252C332.152 103.331 331.368 104.276 330.41 105.023L318.752 114.182L317.497 128.985C317.396 130.412 316.933 131.79 316.151 132.987C314.402 135.552 311.409 136.979 308.315 136.724C306.893 136.601 305.525 136.117 304.343 135.317L291.974 127.06L277.534 130.436C276.039 130.797 274.474 130.738 273.009 130.267C270.146 129.341 267.97 126.993 267.263 124.067C266.916 122.58 266.981 121.026 267.454 119.574L271.418 105.563L263.785 92.8739C263.002 91.5967 262.574 90.1335 262.546 88.6354C262.526 87.1398 262.901 85.6665 263.632 84.362C264.354 83.0529 265.405 81.9544 266.682 81.1756C267.96 80.4019 269.422 79.9833 270.916 79.9634L285.563 79.4032L295.207 68.2037C296.173 67.07 297.424 66.2126 298.83 65.7204C300.246 65.2307 301.766 65.1239 303.237 65.4095C304.705 65.6899 306.075 66.3491 307.21 67.321C308.338 68.2849 309.188 69.5314 309.677 70.9318Z" fill="#98402F"/>
</g>
<g clip-path="url(#clip1_101_297)">
<path d="M170.43 126.585C166.227 127.795 161.837 125.369 160.626 121.166C160.538 120.859 160.469 120.547 160.418 120.231L157.16 103.39L142.382 94.1074C140.588 92.9925 139.324 91.1959 138.883 89.1299C138.441 87.1071 138.81 84.9911 139.912 83.2383C140.634 82.083 141.651 81.1421 142.858 80.5106L158.035 72.123L162.276 55.2006C162.943 52.4921 165.006 50.3468 167.685 49.574C169.029 49.1616 170.458 49.1132 171.827 49.4337C173.146 49.7634 174.355 50.4359 175.331 51.3836L188.024 63.2374L193.659 62.8837C194.898 62.7992 196.225 62.6783 197.574 62.5616C200.492 62.3063 203.513 62.0316 206.074 62.0655C210.425 62.1271 213.901 65.7054 213.84 70.0566C213.824 71.1615 213.576 72.2494 213.112 73.252L205.725 89.0703L212.213 105.283C213.007 107.241 212.967 109.439 212.105 111.367C211.286 113.268 209.754 114.771 207.838 115.554C207.612 115.621 207.384 115.688 207.152 115.757C206.124 116.058 205.046 116.144 203.984 116.01L186.644 113.87L173.268 125.067C172.449 125.758 171.498 126.274 170.472 126.583L170.43 126.585Z" fill="#FFE64C"/>
<path d="M183.251 102.182C179.283 103.369 175.033 101.553 173.148 97.8652L172.596 96.7633L189.182 91.8727L189.31 93.1106C189.731 97.195 187.195 101.004 183.264 102.189L183.251 102.182Z" fill="#EB6B75"/>
<path d="M165.013 88.9692C168.255 90.7262 170.936 85.8176 167.691 84.0506C164.447 82.2837 161.778 87.1993 165.013 88.9692Z" fill="white"/>
<path d="M186.331 78.5006C185.578 79.89 186.093 81.6263 187.483 82.3796C188.872 83.1329 190.608 82.6177 191.362 81.2283C192.113 79.8427 191.602 78.1105 190.219 77.3542C188.833 76.5958 187.094 77.1053 186.336 78.4916C186.335 78.4942 186.333 78.498 186.331 78.5006Z" fill="white"/>
<path d="M170.43 126.585C166.227 127.795 161.837 125.369 160.626 121.166C160.538 120.859 160.469 120.546 160.418 120.231L157.16 103.39L142.382 94.1073C140.588 92.9924 139.324 91.1958 138.883 89.1298C138.441 87.107 138.81 84.991 139.912 83.2382C140.634 82.0829 141.652 81.142 142.858 80.5105L158.035 72.1229L162.276 55.2005C162.943 52.492 165.006 50.3468 167.685 49.574L180.683 93.6547L172.151 96.1703C171.97 96.2237 171.867 96.4143 171.92 96.5952C172.603 98.9663 174.212 100.961 176.384 102.131C178.496 103.324 181.002 103.608 183.327 102.916L186.644 113.87L173.268 125.067C172.437 125.764 171.47 126.28 170.43 126.585ZM165.386 83.1957C163.553 83.7436 162.513 85.6738 163.061 87.5053C163.321 88.3743 163.912 89.1078 164.707 89.5457C165.492 89.9986 166.427 90.1131 167.298 89.8628C169.159 89.4231 170.311 87.5583 169.872 85.697C169.432 83.8358 167.567 82.6833 165.706 83.123C165.582 83.1518 165.461 83.1875 165.343 83.23L165.386 83.1957Z" fill="#F9C65B"/>
<path d="M185.313 62.1451L174.663 52.1967C173.811 51.3638 172.752 50.7733 171.596 50.4852C170.425 50.1971 169.199 50.2194 168.038 50.5508C166.874 50.8777 165.819 51.5057 164.976 52.3723C164.148 53.2359 163.564 54.3029 163.283 55.4655L159.071 72.2281L158.93 72.8103L158.408 73.0938L143.408 81.386C142.366 81.9386 141.489 82.7572 140.865 83.7571C140.23 84.7767 139.869 85.9444 139.821 87.1453C139.77 88.3493 140.037 89.5458 140.595 90.6135C141.156 91.6749 141.99 92.5672 143.011 93.1977L157.6 102.428L158.104 102.744L158.221 103.326L161.441 120.037C161.618 121.272 162.136 122.434 162.938 123.389C163.705 124.3 164.692 124.998 165.806 125.419C166.918 125.86 168.127 126.002 169.311 125.833C170.531 125.641 171.673 125.117 172.615 124.319L185.874 113.168L186.334 112.784L186.928 112.857L204.102 114.981C205.235 115.127 206.386 114.981 207.447 114.556C208.587 114.094 209.583 113.339 210.335 112.365C211.09 111.39 211.569 110.229 211.722 109.005C211.86 107.862 211.704 106.703 211.269 105.637L204.799 89.5593L204.582 89.0072L204.834 88.4682L212.173 72.8156C212.591 71.9347 212.813 70.9731 212.823 69.9976C212.829 67.3164 211.292 64.8718 208.873 63.7151C208 63.3155 207.051 63.109 206.09 63.1091C203.555 63.0892 200.531 63.354 197.645 63.6104C196.286 63.7301 194.95 63.8539 193.73 63.9325L188.239 64.2978L187.647 64.3427L187.212 63.9305L185.313 62.1451ZM171.858 95.176L188.931 90.1417C189.662 89.9262 190.428 90.3434 190.644 91.0743C192.248 96.5168 189.136 102.229 183.693 103.833C178.251 105.436 172.539 102.326 170.935 96.8855C170.721 96.1586 171.133 95.3953 171.858 95.176ZM181.173 95.3153L174.083 97.4058C175.961 101.114 180.489 102.597 184.198 100.719C186.984 99.3087 188.609 96.3241 188.282 93.2189L181.173 95.3153ZM167.196 84.9748C166.35 84.5141 165.29 84.8267 164.83 85.6726C164.369 86.5186 164.682 87.5786 165.528 88.0392C166.375 88.4898 167.427 88.1796 167.894 87.3414C168.35 86.4947 168.039 85.4386 167.196 84.9748ZM165.092 82.2014C167.471 81.5023 169.965 82.8635 170.665 85.2426C171 86.3825 170.87 87.6087 170.302 88.6526C169.119 90.8248 166.4 91.6277 164.228 90.4448C164.228 90.4448 164.228 90.4448 164.226 90.4441C162.051 89.2578 161.248 86.5352 162.432 84.3585C162.997 83.3141 163.954 82.5381 165.092 82.2014ZM189.679 78.3455C188.835 77.8843 187.777 78.1943 187.315 79.0382C187.315 79.0395 187.313 79.0421 187.313 79.0434C186.862 79.8906 187.172 80.9427 188.01 81.41C188.858 81.8605 189.91 81.5503 190.377 80.7122C190.833 79.8654 190.522 78.8094 189.679 78.3455ZM187.575 75.5721C189.953 74.8731 192.448 76.2342 193.148 78.6134C193.483 79.7532 193.352 80.9794 192.785 82.0234C191.602 84.1955 188.883 84.9984 186.71 83.8155C186.71 83.8155 186.71 83.8155 186.709 83.8148C184.535 82.6358 183.728 79.9176 184.907 77.7434C184.91 77.7382 184.912 77.7344 184.915 77.7292C185.48 76.6859 186.437 75.9098 187.575 75.5721ZM176.52 50.2115L187.158 60.1529L188.642 61.5204L193.519 61.1631C194.749 61.0815 196.055 60.9665 197.381 60.8457C200.33 60.5816 203.426 60.3063 206.092 60.3308C207.453 60.3371 208.795 60.6384 210.027 61.2133C213.44 62.8214 215.604 66.2688 215.57 70.0413C215.556 71.4094 215.246 72.7579 214.661 73.9951L207.577 89.1186L213.82 104.647C214.442 106.133 214.674 107.754 214.495 109.355C214.036 112.822 211.749 115.775 208.506 117.087C207.014 117.685 205.393 117.891 203.797 117.686L187.168 115.65L174.354 126.368C173.033 127.488 171.428 128.223 169.717 128.492C166.366 129.012 162.987 127.752 160.792 125.168C159.689 123.848 158.967 122.251 158.707 120.551L155.591 104.447L141.479 95.5518C140.043 94.664 138.871 93.4089 138.083 91.9163C137.305 90.4218 136.935 88.7496 137.009 87.0664C137.072 85.3835 137.573 83.7455 138.462 82.3149C139.356 80.8884 140.614 79.7263 142.106 78.949L156.557 70.9591L160.581 54.8033C160.978 53.1731 161.801 51.6765 162.966 50.4682C164.142 49.258 165.617 48.38 167.241 47.9215C168.86 47.4593 170.573 47.4278 172.208 47.8298C173.831 48.2278 175.318 49.0505 176.52 50.2115Z" fill="#98402F"/>
</g>
<g clip-path="url(#clip2_101_297)">
<path d="M119.97 232.627C118.59 234.424 116.015 234.762 114.219 233.383C114.087 233.282 113.963 233.173 113.844 233.057L107.31 227.041L98.2986 227.715C97.2081 227.802 96.1293 227.442 95.3102 226.716C94.5043 226.009 94.0078 225.014 93.9283 223.945C93.874 223.241 94.0087 222.537 94.3176 221.902L98.0638 213.742L94.6293 205.387C94.0747 204.053 94.275 202.525 95.154 201.379C95.5873 200.794 96.1678 200.335 96.8367 200.048C97.488 199.779 98.1985 199.688 98.8963 199.783L107.829 200.821L110.069 198.942C110.559 198.525 111.075 198.067 111.601 197.604C112.739 196.6 113.913 195.557 114.991 194.784C116.823 193.473 119.372 193.895 120.684 195.727C121.017 196.193 121.248 196.722 121.363 197.283L123.146 206.145L130.834 210.907C131.766 211.479 132.425 212.407 132.659 213.476C132.902 214.519 132.725 215.617 132.168 216.532C132.094 216.629 132.02 216.728 131.944 216.827C131.608 217.269 131.186 217.636 130.702 217.906L122.818 222.345L120.686 231.122C120.557 231.662 120.319 232.17 119.987 232.613L119.97 232.627Z" fill="#FFE64C"/>
<path d="M117.812 218.517C116.523 220.231 114.193 220.781 112.274 219.824L111.706 219.534L117.114 212.398L117.548 212.875C118.979 214.447 119.093 216.814 117.819 218.516L117.812 218.517Z" fill="#EB6B75"/>
<path d="M106.15 218.617C108.041 218.353 107.65 215.483 105.754 215.744C103.859 216.005 104.258 218.874 106.15 218.617Z" fill="white"/>
<path d="M111.816 207.702C111.929 208.512 112.677 209.078 113.488 208.964C114.298 208.851 114.864 208.103 114.75 207.292C114.638 206.484 113.892 205.919 113.084 206.029C112.273 206.139 111.704 206.886 111.815 207.697C111.815 207.698 111.815 207.7 111.816 207.702Z" fill="white"/>
<path d="M119.97 232.627C118.59 234.424 116.015 234.762 114.219 233.383C114.087 233.282 113.962 233.173 113.844 233.057L107.31 227.041L98.2985 227.715C97.2081 227.802 96.1293 227.442 95.3102 226.716C94.5043 226.009 94.0078 225.014 93.9283 223.945C93.874 223.241 94.0087 222.537 94.3176 221.902L98.0638 213.742L94.6293 205.387C94.0746 204.053 94.2749 202.525 95.154 201.379L114.12 215.753L111.338 219.424C111.279 219.502 111.294 219.613 111.372 219.672C112.386 220.45 113.67 220.787 114.934 220.607C116.181 220.455 117.313 219.803 118.069 218.8L122.818 222.345L120.686 231.122C120.554 231.668 120.31 232.18 119.97 232.627ZM104.531 216.097C103.935 216.888 104.095 218.013 104.886 218.607C105.262 218.889 105.734 219.013 106.2 218.952C106.666 218.899 107.091 218.659 107.377 218.287C108.017 217.532 107.924 216.401 107.169 215.76C106.413 215.12 105.282 215.213 104.642 215.968C104.599 216.018 104.559 216.07 104.523 216.124L104.531 216.097Z" fill="#F9C65B"/>
<path d="M106.364 201.199L98.8678 200.327C98.2568 200.242 97.6343 200.321 97.0639 200.557C96.4874 200.797 95.9831 201.183 95.6013 201.678C95.2169 202.172 94.97 202.758 94.8853 203.378C94.8055 203.992 94.8903 204.617 95.1306 205.187L98.528 213.467L98.6479 213.754L98.5176 214.032L94.8159 222.098C94.5515 222.649 94.4375 223.26 94.4849 223.868C94.5335 224.488 94.7422 225.086 95.0914 225.601C95.4401 226.118 95.9193 226.535 96.48 226.808C97.0399 227.078 97.6616 227.194 98.281 227.143L107.198 226.504L107.505 226.481L107.733 226.688L114.211 232.662C114.665 233.122 115.238 233.447 115.865 233.599C116.465 233.743 117.091 233.73 117.684 233.563C118.284 233.405 118.831 233.093 119.273 232.658C119.722 232.203 120.037 231.634 120.184 231.011L122.282 222.289L122.355 221.987L122.625 221.835L130.435 217.441C130.951 217.154 131.386 216.739 131.698 216.237C132.031 215.693 132.214 215.072 132.228 214.435C132.243 213.797 132.086 213.166 131.773 212.609C131.479 212.09 131.058 211.655 130.549 211.345L122.911 206.634L122.651 206.47L122.59 206.168L120.837 197.39C120.74 196.894 120.537 196.425 120.242 196.015C119.42 194.896 118.028 194.35 116.665 194.611C116.178 194.713 115.719 194.919 115.319 195.214C114.256 195.985 113.077 197.025 111.953 198.019C111.424 198.487 110.905 198.949 110.421 199.357L108.245 201.197L108.012 201.398L107.704 201.359L106.364 201.199ZM110.91 219.1L116.478 211.754C116.716 211.439 117.163 211.378 117.478 211.616C119.819 213.391 120.278 216.728 118.503 219.069C116.728 221.41 113.392 221.87 111.051 220.096C110.739 219.859 110.675 219.414 110.91 219.1ZM114.835 216.295L112.523 219.345C114.445 220.313 116.788 219.539 117.756 217.617C118.484 216.173 118.244 214.429 117.153 213.236L114.835 216.295ZM105.832 216.282C105.338 216.35 104.992 216.806 105.06 217.3C105.128 217.794 105.584 218.14 106.079 218.072C106.57 217.999 106.913 217.546 106.85 217.053C106.78 216.56 106.326 216.216 105.832 216.282ZM104.103 215.773C104.879 214.75 106.337 214.551 107.36 215.327C107.85 215.699 108.172 216.25 108.257 216.86C108.431 218.128 107.545 219.299 106.276 219.474C106.276 219.474 106.276 219.474 106.275 219.474C105.004 219.648 103.833 218.76 103.657 217.489C103.572 216.88 103.732 216.263 104.103 215.773ZM113.163 206.608C112.67 206.675 112.324 207.13 112.391 207.623C112.391 207.624 112.391 207.626 112.392 207.626C112.464 208.118 112.917 208.461 113.41 208.398C113.901 208.325 114.244 207.873 114.182 207.38C114.111 206.887 113.657 206.542 113.163 206.608ZM111.434 206.099C112.21 205.077 113.668 204.877 114.691 205.654C115.181 206.026 115.504 206.577 115.588 207.186C115.763 208.455 114.876 209.625 113.608 209.8C113.608 209.8 113.608 209.8 113.607 209.8C112.338 209.977 111.167 209.093 110.99 207.824C110.989 207.821 110.989 207.819 110.988 207.816C110.903 207.207 111.064 206.59 111.434 206.099ZM99.0316 198.929L106.52 199.802L107.559 199.916L109.482 198.268C109.969 197.856 110.478 197.406 110.994 196.948C112.141 195.932 113.347 194.865 114.465 194.056C115.034 193.64 115.686 193.353 116.376 193.214C118.293 192.835 120.255 193.607 121.4 195.189C121.815 195.764 122.1 196.421 122.236 197.116L123.933 205.596L131.308 210.148C132.024 210.576 132.619 211.18 133.036 211.902C133.911 213.488 133.865 215.422 132.917 216.965C132.479 217.673 131.867 218.258 131.139 218.662L123.584 222.926L121.538 231.331C121.332 232.204 120.889 233.003 120.259 233.641C119.022 234.888 117.227 235.402 115.518 234.999C114.652 234.789 113.861 234.345 113.23 233.717L106.981 227.964L98.3661 228.595C97.495 228.666 96.6207 228.503 95.8335 228.123C95.0499 227.74 94.3818 227.157 93.8954 226.432C93.4042 225.712 93.1093 224.875 93.0401 224.006C92.974 223.137 93.1411 222.266 93.5241 221.483L97.0902 213.711L93.8008 205.742C93.4651 204.941 93.3482 204.064 93.4624 203.202C93.5804 202.337 93.9251 201.517 94.4611 200.827C94.9937 200.137 95.6976 199.597 96.5025 199.262C97.3011 198.929 98.174 198.815 99.0316 198.929Z" fill="#98402F"/>
</g>
<defs>
<filter id="filter0_f_101_297" x="0" y="0.490967" width="498" height="508" filterUnits="userSpaceOnUse" color-interpolation-filters="sRGB">
<feFlood flood-opacity="0" result="BackgroundImageFix"/>
<feBlend mode="normal" in="SourceGraphic" in2="BackgroundImageFix" result="shape"/>
<feGaussianBlur stdDeviation="31.5" result="effect1_foregroundBlur_101_297"/>
</filter>
<linearGradient id="paint0_linear_101_297" x1="238.664" y1="385.984" x2="238.532" y2="428.146" gradientUnits="userSpaceOnUse">
<stop stop-color="#F8D9AC"/>
<stop offset="1" stop-color="#FFE4BB" stop-opacity="0"/>
</linearGradient>
<linearGradient id="paint1_linear_101_297" x1="276.088" y1="436.641" x2="314.143" y2="454.79" gradientUnits="userSpaceOnUse">
<stop stop-color="#F8D9AC"/>
<stop offset="1" stop-color="#FFE4BB" stop-opacity="0"/>
</linearGradient>
<clipPath id="clip0_101_297">
<rect width="72" height="72" fill="white" transform="translate(268.031 57.6245) rotate(10.319)"/>
</clipPath>
<clipPath id="clip1_101_297">
<rect width="81.1087" height="81.1087" fill="white" transform="translate(127.879 57.9392) rotate(-16.4286)"/>
</clipPath>
<clipPath id="clip2_101_297">
<rect width="42" height="42" fill="white" transform="translate(81.1371 217.101) rotate(-52.8422)"/>
</clipPath>
</defs>
</svg>
