<svg width="498" height="560" viewBox="0 0 498 560" fill="none" xmlns="http://www.w3.org/2000/svg">
<path d="M224.293 471.981C224.293 400.546 145.559 324.513 237.244 328.897C245.814 329.307 231.199 290.667 241.529 295.443C310.054 327.123 237.981 267.791 261.221 291.347C269.679 299.92 268.339 303.653 273.994 317.434C280.235 332.641 332.77 323.785 338.579 345.526C342.305 359.473 305.584 390.933 300.594 417.751C295.243 446.512 310.357 468.154 310.357 482.675C310.357 576.078 303.93 527.5 255.547 527.5C207.164 527.5 224.293 565.383 224.293 471.981Z" fill="#E9994F" stroke="#E9994F" stroke-width="24" stroke-miterlimit="10" stroke-linejoin="round"/>
<path d="M278.463 179.558L329.075 146.146C329.075 146.146 329.908 159.201 325.437 175.999C320.966 192.797 312.077 207.569 312.077 207.569L278.463 179.558Z" fill="#B1777B" stroke="#E7944A" stroke-width="17.0485" stroke-miterlimit="10" stroke-linejoin="round"/>
<path d="M220.82 176.587L178.898 147.414C178.898 147.414 179.633 167.631 183.161 185.798C186.689 203.965 196.985 214.888 196.985 214.888L220.82 176.587Z" fill="#B1777B" stroke="#E9994F" stroke-width="16.4976" stroke-miterlimit="10" stroke-linejoin="round"/>
<path fill-rule="evenodd" clip-rule="evenodd" d="M176.838 257.357C173.018 249.138 176.785 242.553 180.858 235.434C182.934 231.806 185.089 228.04 186.36 223.847C188.409 217.089 187.182 212.107 186.21 208.162C185.479 205.194 184.893 202.813 185.953 200.703C192.621 187.437 213.671 174.881 228.55 169.319C238.696 165.526 220.785 154.565 220.785 154.565C225.468 153.925 232.318 158.384 239.042 162.759L239.042 162.759C242.331 164.9 245.591 167.022 248.551 168.516C252.928 170.726 248.727 142 248.727 142C254.571 142.613 262.797 152.676 268.835 160.063C272.123 164.086 274.763 167.315 276.015 167.791C289.79 173.029 310.173 186.542 316.424 199.947C317.488 202.228 317.356 204.583 317.176 207.806C316.962 211.619 316.681 216.647 318.23 224.205C319.365 229.744 321.994 233.594 324.403 237.122C325.746 239.087 327.02 240.953 327.929 242.955C329.497 246.408 336.197 256.94 336.197 256.94C336.197 256.94 323.033 253.45 321.29 256.553C318.87 260.861 331.045 270.342 331.045 270.342C331.045 270.342 320.584 271.086 317.328 274.31C302.639 288.856 273.325 309.23 251.988 309.23C244.297 309.23 237.073 308.125 230.343 306.131C230.212 306.211 230.079 306.287 229.945 306.361C229.871 306.413 229.794 306.46 229.713 306.504C229.666 307.086 229.702 307.67 229.737 308.256C229.776 308.902 229.815 309.548 229.744 310.192C229.683 310.748 229.503 311.294 229.324 311.84L229.324 311.841C229.265 312.02 229.206 312.199 229.151 312.379L229.158 312.471C229.309 314.479 229.357 315.127 228.525 316.754L228.446 316.908C227.848 318.087 226.944 319.866 225.401 319.848C225.162 319.845 224.891 319.782 224.838 319.754C224.836 319.759 224.837 319.765 224.838 319.77C224.839 319.775 224.839 319.781 224.838 319.785C224.837 319.786 224.825 319.78 224.812 319.772L224.811 319.772C224.797 319.765 224.782 319.756 224.775 319.754C224.683 319.726 224.358 319.579 224.338 319.567C223.894 319.296 223.589 318.852 223.463 318.348C223.264 317.554 223.613 316.807 223.953 316.077C224.096 315.77 224.239 315.465 224.338 315.161C224.429 314.884 224.52 314.607 224.611 314.33L224.611 314.329L224.611 314.329C224.899 313.451 225.188 312.574 225.463 311.692C225.496 311.586 225.531 311.477 225.567 311.367L225.567 311.367C225.733 310.854 225.909 310.306 225.963 309.785C226.017 309.262 225.997 308.671 225.976 308.062C225.973 307.968 225.97 307.875 225.967 307.781C223.966 308.159 221.878 308.119 219.807 307.785C219.734 307.774 219.67 307.756 219.608 307.739C219.541 307.721 219.476 307.703 219.401 307.692C219.336 307.71 219.272 307.733 219.209 307.756L219.208 307.756C219.148 307.778 219.087 307.8 219.025 307.817L218.976 307.831C217.826 308.159 216.308 308.591 215.307 307.661C214.086 306.526 214.666 304.931 215.588 303.817C216.393 302.844 217.469 302.247 218.544 301.651L218.545 301.651C218.587 301.627 218.629 301.604 218.671 301.581C205.391 295.092 194.517 285.037 186.335 273.625C185.341 273.534 184.342 273.478 183.357 273.423L183.356 273.423C182.61 273.382 181.872 273.341 181.151 273.285C179.695 273.176 178.604 271.897 178.713 270.442C178.822 268.986 180.101 267.895 181.557 268.004C181.914 268.03 182.272 268.054 182.63 268.076C180.455 264.572 178.522 260.98 176.838 257.357ZM282.838 300.348C281.806 300.485 281.107 301.442 281.244 302.473C281.547 304.803 281.858 307.129 282.169 309.456C282.33 310.66 282.491 311.863 282.651 313.067C282.8 314.156 283.811 314.935 284.901 314.785C285.989 314.636 286.737 313.625 286.588 312.535C286.353 310.87 286.084 309.208 285.816 307.546L285.816 307.546L285.816 307.546L285.816 307.545C285.516 305.69 285.217 303.834 284.963 301.973C284.826 300.941 283.87 300.211 282.838 300.348Z" fill="#E9994F"/>
<path d="M180.858 235.434L183.627 237.018L183.627 237.018L180.858 235.434ZM176.838 257.357L173.945 258.702L173.945 258.702L176.838 257.357ZM186.36 223.847L183.307 222.922L183.307 222.922L186.36 223.847ZM186.21 208.162L183.113 208.925L183.113 208.925L186.21 208.162ZM185.953 200.703L183.103 199.271L183.103 199.271L185.953 200.703ZM228.55 169.319L229.667 172.307L229.667 172.307L228.55 169.319ZM220.785 154.565L220.353 151.405C219.017 151.587 217.94 152.591 217.663 153.911C217.386 155.23 217.97 156.582 219.12 157.286L220.785 154.565ZM239.042 162.759L237.302 165.433C237.318 165.443 237.334 165.454 237.351 165.464L239.042 162.759ZM239.042 162.759L240.782 160.086C240.765 160.075 240.749 160.065 240.732 160.054L239.042 162.759ZM248.551 168.516L249.989 165.669L249.989 165.669L248.551 168.516ZM248.727 142L249.059 138.828C248.08 138.725 247.108 139.081 246.426 139.791C245.744 140.502 245.428 141.487 245.571 142.462L248.727 142ZM268.835 160.063L271.305 158.045L271.305 158.045L268.835 160.063ZM276.015 167.791L274.881 170.773L274.881 170.773L276.015 167.791ZM316.424 199.947L313.533 201.295L313.533 201.295L316.424 199.947ZM317.176 207.806L313.991 207.628L313.991 207.628L317.176 207.806ZM318.23 224.205L315.105 224.845L315.105 224.846L318.23 224.205ZM324.403 237.122L321.769 238.921L321.769 238.921L324.403 237.122ZM327.929 242.955L330.833 241.636L330.833 241.636L327.929 242.955ZM336.197 256.94L335.379 260.023C336.649 260.36 337.996 259.884 338.771 258.824C339.547 257.764 339.593 256.336 338.888 255.228L336.197 256.94ZM321.29 256.553L324.071 258.115L324.071 258.115L321.29 256.553ZM331.045 270.342L331.271 273.524C332.589 273.43 333.712 272.534 334.097 271.27C334.481 270.007 334.047 268.637 333.005 267.825L331.045 270.342ZM317.328 274.31L315.084 272.043L315.083 272.044L317.328 274.31ZM230.343 306.131L231.249 303.073C230.39 302.818 229.464 302.937 228.697 303.399L230.343 306.131ZM229.945 306.361L228.399 303.571C228.306 303.623 228.215 303.68 228.127 303.741L229.945 306.361ZM229.713 306.504L228.194 303.699C227.245 304.213 226.62 305.173 226.533 306.249L229.713 306.504ZM229.737 308.256L232.921 308.064L232.921 308.064L229.737 308.256ZM229.744 310.192L226.573 309.843L226.573 309.844L229.744 310.192ZM229.324 311.84L232.31 312.96C232.326 312.92 232.34 312.879 232.354 312.837L229.324 311.84ZM229.324 311.841L226.337 310.721C226.322 310.761 226.307 310.803 226.293 310.844L229.324 311.841ZM229.151 312.379L226.1 311.449C225.984 311.827 225.94 312.223 225.97 312.618L229.151 312.379ZM229.158 312.471L225.977 312.71L225.977 312.71L229.158 312.471ZM228.525 316.754L225.685 315.301L225.682 315.308L228.525 316.754ZM228.446 316.908L225.604 315.462L225.603 315.464L228.446 316.908ZM225.401 319.848L225.361 323.038L225.363 323.038L225.401 319.848ZM224.838 319.754L226.328 316.934C225.484 316.488 224.486 316.443 223.606 316.812C222.726 317.18 222.057 317.924 221.783 318.837L224.838 319.754ZM224.838 319.77L227.997 319.33L227.997 319.33L224.838 319.77ZM224.838 319.785L227.862 320.798L227.863 320.795L224.838 319.785ZM224.812 319.772L226.349 316.977C226.312 316.957 226.275 316.938 226.238 316.919L224.812 319.772ZM224.811 319.772L223.272 322.566C223.309 322.586 223.347 322.606 223.385 322.625L224.811 319.772ZM224.775 319.754L223.846 322.806C223.864 322.811 223.883 322.817 223.901 322.822L224.775 319.754ZM224.338 319.567L222.676 322.29C222.683 322.294 222.689 322.298 222.696 322.302L224.338 319.567ZM223.463 318.348L220.368 319.121L220.368 319.122L223.463 318.348ZM223.953 316.077L226.844 317.426L226.844 317.426L223.953 316.077ZM224.338 315.161L221.306 314.17L221.306 314.171L224.338 315.161ZM224.611 314.33L221.581 313.333L221.58 313.334L224.611 314.33ZM224.611 314.329L227.641 315.326C227.646 315.311 227.651 315.296 227.655 315.281L224.611 314.329ZM224.611 314.329L221.58 313.333C221.576 313.348 221.571 313.363 221.566 313.378L224.611 314.329ZM225.463 311.692L222.418 310.741L222.418 310.742L225.463 311.692ZM225.567 311.367L222.55 310.33C222.544 310.349 222.537 310.368 222.531 310.387L225.567 311.367ZM225.567 311.367L228.583 312.404C228.59 312.385 228.596 312.366 228.602 312.347L225.567 311.367ZM225.963 309.785L229.136 310.111L229.136 310.11L225.963 309.785ZM225.976 308.062L222.788 308.169L222.788 308.169L225.976 308.062ZM225.967 307.781L229.155 307.682C229.126 306.75 228.691 305.877 227.964 305.293C227.237 304.71 226.291 304.473 225.375 304.646L225.967 307.781ZM219.807 307.785L220.314 304.636L220.311 304.636L219.807 307.785ZM219.608 307.739L220.449 304.662L220.449 304.662L219.608 307.739ZM219.401 307.692L219.855 304.535C219.42 304.472 218.977 304.5 218.554 304.617L219.401 307.692ZM219.209 307.756L220.169 310.798C220.209 310.785 220.248 310.772 220.288 310.758L219.209 307.756ZM219.208 307.756L218.248 304.714C218.208 304.727 218.168 304.74 218.129 304.754L219.208 307.756ZM219.025 307.817L218.155 304.748L218.152 304.749L219.025 307.817ZM218.976 307.831L218.103 304.763L218.103 304.763L218.976 307.831ZM215.307 307.661L213.135 309.998L213.136 309.998L215.307 307.661ZM215.588 303.817L218.045 305.851L218.046 305.85L215.588 303.817ZM218.544 301.651L220.091 304.441C220.111 304.429 220.132 304.418 220.152 304.406L218.544 301.651ZM218.545 301.651L216.999 298.861C216.978 298.872 216.958 298.884 216.938 298.895L218.545 301.651ZM218.671 301.581L220.219 304.37C221.258 303.793 221.891 302.686 221.86 301.497C221.828 300.309 221.139 299.237 220.071 298.715L218.671 301.581ZM186.335 273.625L188.927 271.766C188.388 271.014 187.548 270.533 186.626 270.448L186.335 273.625ZM183.357 273.423L183.119 276.604C183.139 276.606 183.16 276.607 183.18 276.608L183.357 273.423ZM183.356 273.423L183.594 270.242C183.574 270.241 183.553 270.24 183.533 270.238L183.356 273.423ZM181.151 273.285L181.396 270.105L181.389 270.104L181.151 273.285ZM178.713 270.442L181.894 270.68L181.894 270.68L178.713 270.442ZM181.557 268.004L181.319 271.185L181.325 271.186L181.557 268.004ZM182.63 268.076L182.435 271.26C183.625 271.333 184.757 270.735 185.369 269.711C185.98 268.687 185.969 267.407 185.34 266.393L182.63 268.076ZM281.244 302.473L284.407 302.061L284.406 302.053L281.244 302.473ZM282.838 300.348L283.258 303.51L283.258 303.51L282.838 300.348ZM282.169 309.456L279.008 309.879L279.008 309.879L282.169 309.456ZM282.651 313.067L279.489 313.487L279.49 313.5L282.651 313.067ZM284.901 314.785L284.468 311.625L284.466 311.625L284.901 314.785ZM286.588 312.535L289.748 312.103C289.748 312.098 289.747 312.094 289.746 312.089L286.588 312.535ZM285.816 307.546L288.965 307.038C288.964 307.033 288.963 307.027 288.962 307.022L285.816 307.546ZM285.816 307.546L282.661 308.019C282.664 308.036 282.667 308.054 282.67 308.071L285.816 307.546ZM285.816 307.546L282.66 308.007L282.661 308.019L285.816 307.546ZM285.816 307.545L288.972 307.083C288.97 307.068 288.967 307.052 288.965 307.036L285.816 307.545ZM284.963 301.973L281.801 302.393L281.802 302.404L284.963 301.973ZM178.09 233.85C174.147 240.741 169.338 248.788 173.945 258.702L179.731 256.013C176.698 249.487 179.423 244.365 183.627 237.018L178.09 233.85ZM183.307 222.922C182.158 226.713 180.193 230.173 178.09 233.85L183.627 237.018C185.675 233.439 188.02 229.366 189.413 224.772L183.307 222.922ZM183.113 208.925C184.062 212.778 185.091 217.037 183.307 222.922L189.412 224.773C191.726 217.141 190.302 211.436 189.307 207.399L183.113 208.925ZM183.103 199.271C182.225 201.017 182.094 202.78 182.232 204.383C182.363 205.911 182.764 207.508 183.113 208.925L189.307 207.399C188.925 205.848 188.668 204.77 188.588 203.838C188.514 202.982 188.62 202.5 188.803 202.135L183.103 199.271ZM227.433 166.331C219.755 169.201 210.538 173.851 202.36 179.497C194.258 185.091 186.798 191.918 183.103 199.271L188.803 202.136C191.775 196.222 198.175 190.139 205.985 184.747C213.718 179.408 222.466 174.999 229.667 172.307L227.433 166.331ZM220.785 154.565C219.12 157.286 219.119 157.286 219.119 157.285C219.119 157.285 219.119 157.285 219.119 157.285C219.118 157.285 219.118 157.285 219.119 157.285C219.12 157.286 219.121 157.287 219.124 157.288C219.13 157.292 219.139 157.298 219.153 157.306C219.181 157.323 219.224 157.35 219.282 157.387C219.397 157.46 219.57 157.57 219.79 157.714C220.23 158.001 220.852 158.419 221.57 158.932C223.026 159.973 224.788 161.345 226.215 162.774C227.785 164.346 228.391 165.446 228.468 165.923C228.477 165.98 228.466 165.836 228.548 165.722C228.565 165.698 228.364 165.983 227.433 166.331L229.667 172.307C231.273 171.707 232.731 170.819 233.71 169.47C234.755 168.031 235.009 166.408 234.766 164.905C234.338 162.26 232.369 159.908 230.729 158.266C228.947 156.48 226.865 154.875 225.28 153.742C224.477 153.168 223.78 152.7 223.28 152.373C223.029 152.21 222.828 152.081 222.686 151.991C222.615 151.947 222.559 151.912 222.519 151.887C222.499 151.875 222.483 151.865 222.472 151.858C222.466 151.854 222.461 151.851 222.458 151.849C222.456 151.848 222.454 151.847 222.453 151.846C222.452 151.846 222.452 151.845 222.451 151.845C222.451 151.845 222.45 151.844 220.785 154.565ZM240.781 160.086C237.46 157.924 233.91 155.609 230.583 153.933C227.379 152.318 223.731 150.943 220.353 151.405L221.217 157.726C222.522 157.547 224.64 158.082 227.712 159.63C230.663 161.117 233.9 163.219 237.302 165.433L240.781 160.086ZM240.732 160.054L240.732 160.054L237.351 165.464L237.351 165.464L240.732 160.054ZM249.989 165.669C247.216 164.269 244.113 162.254 240.782 160.086L237.302 165.433C240.549 167.546 243.965 169.774 247.113 171.364L249.989 165.669ZM248.727 142C245.571 142.462 245.571 142.462 245.571 142.462C245.571 142.462 245.571 142.462 245.571 142.462C245.571 142.463 245.571 142.464 245.571 142.465C245.572 142.468 245.572 142.473 245.573 142.479C245.575 142.492 245.578 142.511 245.582 142.537C245.589 142.589 245.6 142.667 245.615 142.769C245.644 142.974 245.686 143.276 245.738 143.66C245.843 144.43 245.988 145.529 246.149 146.842C246.471 149.473 246.853 152.938 247.099 156.319C247.349 159.75 247.444 162.909 247.249 165.01C247.143 166.153 246.983 166.544 246.996 166.518C247.015 166.483 247.288 165.96 248.028 165.646C248.9 165.276 249.661 165.503 249.989 165.669L247.113 171.364C247.988 171.805 249.229 172.067 250.521 171.519C251.68 171.027 252.311 170.113 252.634 169.504C253.256 168.331 253.486 166.84 253.601 165.601C253.849 162.937 253.715 159.329 253.462 155.855C253.205 152.33 252.81 148.752 252.481 146.066C252.316 144.721 252.167 143.593 252.06 142.8C252.006 142.403 251.962 142.09 251.931 141.875C251.916 141.768 251.904 141.685 251.896 141.628C251.892 141.6 251.889 141.578 251.887 141.563C251.886 141.555 251.885 141.55 251.884 141.545C251.884 141.543 251.884 141.542 251.883 141.541C251.883 141.54 251.883 141.54 251.883 141.539C251.883 141.539 251.883 141.539 248.727 142ZM271.305 158.045C268.309 154.379 264.637 149.882 260.956 146.227C259.112 144.398 257.191 142.702 255.276 141.403C253.407 140.134 251.28 139.06 249.059 138.828L248.394 145.173C249.096 145.246 250.189 145.66 251.694 146.682C253.155 147.673 254.763 149.069 256.461 150.755C259.864 154.133 263.324 158.36 266.366 162.082L271.305 158.045ZM277.149 164.81C277.438 164.92 277.415 164.991 276.975 164.59C276.616 164.263 276.148 163.78 275.564 163.128C274.396 161.825 272.966 160.076 271.305 158.045L266.366 162.082C267.993 164.073 269.526 165.95 270.813 167.386C271.456 168.104 272.089 168.769 272.679 169.307C273.189 169.771 273.965 170.424 274.881 170.773L277.149 164.81ZM319.315 198.599C315.86 191.19 308.707 184.078 300.957 178.256C293.144 172.387 284.344 167.546 277.149 164.81L274.881 170.773C281.461 173.274 289.74 177.809 297.125 183.357C304.573 188.952 310.737 195.299 313.533 201.295L319.315 198.599ZM320.361 207.984C320.53 204.948 320.779 201.738 319.315 198.599L313.533 201.295C314.197 202.719 314.182 204.218 313.991 207.628L320.361 207.984ZM321.355 223.565C319.889 216.409 320.152 211.704 320.361 207.984L313.991 207.628C313.772 211.534 313.474 216.884 315.105 224.845L321.355 223.565ZM327.038 235.323C324.623 231.788 322.348 228.41 321.355 223.565L315.105 224.846C316.383 231.078 319.365 235.4 321.769 238.921L327.038 235.323ZM330.833 241.636C329.789 239.338 328.348 237.242 327.038 235.323L321.769 238.921C323.143 240.933 324.25 242.568 325.025 244.274L330.833 241.636ZM336.197 256.94C338.888 255.228 338.888 255.228 338.888 255.228C338.888 255.228 338.888 255.228 338.888 255.228C338.888 255.228 338.888 255.227 338.887 255.227C338.887 255.225 338.886 255.224 338.884 255.221C338.881 255.217 338.876 255.209 338.87 255.2C338.858 255.18 338.839 255.151 338.815 255.113C338.766 255.036 338.695 254.923 338.602 254.777C338.418 254.485 338.152 254.063 337.828 253.547C337.18 252.512 336.301 251.099 335.373 249.58C333.468 246.46 331.519 243.147 330.833 241.636L325.025 244.274C325.906 246.216 328.092 249.896 329.928 252.905C330.872 254.451 331.766 255.886 332.423 256.934C332.751 257.459 333.021 257.887 333.21 258.185C333.304 258.334 333.377 258.45 333.428 258.529C333.453 258.569 333.472 258.599 333.485 258.62C333.492 258.63 333.497 258.638 333.5 258.644C333.502 258.646 333.503 258.648 333.504 258.65C333.505 258.651 333.505 258.651 333.505 258.652C333.505 258.652 333.505 258.652 333.505 258.652C333.506 258.652 333.506 258.652 336.197 256.94ZM324.071 258.115C323.791 258.614 323.435 258.71 323.571 258.658C323.696 258.61 324.013 258.528 324.589 258.486C325.735 258.401 327.284 258.511 328.961 258.743C330.602 258.969 332.213 259.29 333.425 259.558C334.027 259.691 334.523 259.809 334.866 259.894C335.037 259.936 335.17 259.969 335.257 259.992C335.301 260.003 335.334 260.011 335.354 260.017C335.365 260.019 335.372 260.021 335.376 260.023C335.378 260.023 335.38 260.023 335.38 260.024C335.38 260.024 335.381 260.024 335.38 260.024C335.38 260.024 335.38 260.024 335.38 260.024C335.38 260.024 335.379 260.023 336.197 256.94C337.014 253.857 337.014 253.857 337.013 253.857C337.013 253.857 337.013 253.856 337.012 253.856C337.011 253.856 337.01 253.856 337.009 253.855C337.006 253.855 337.003 253.854 336.999 253.853C336.99 253.85 336.979 253.847 336.964 253.844C336.935 253.836 336.893 253.825 336.84 253.812C336.734 253.784 336.582 253.746 336.39 253.699C336.006 253.604 335.46 253.474 334.801 253.329C333.49 253.039 331.701 252.681 329.833 252.423C328.002 252.17 325.933 251.99 324.12 252.123C323.217 252.19 322.219 252.345 321.291 252.7C320.373 253.051 319.225 253.717 318.509 254.991L324.071 258.115ZM331.045 270.342C333.005 267.825 333.005 267.826 333.005 267.826C333.005 267.826 333.006 267.826 333.006 267.826C333.006 267.826 333.006 267.826 333.006 267.826C333.005 267.826 333.004 267.825 333.002 267.823C332.999 267.821 332.992 267.815 332.983 267.808C332.964 267.794 332.935 267.77 332.895 267.739C332.816 267.676 332.696 267.58 332.543 267.454C332.235 267.204 331.794 266.837 331.269 266.383C330.213 265.468 328.853 264.225 327.581 262.875C326.28 261.495 325.209 260.146 324.605 259.018C323.901 257.706 324.323 257.667 324.071 258.115L318.509 254.991C317.047 257.593 318.083 260.355 318.982 262.032C319.98 263.894 321.498 265.723 322.939 267.251C324.408 268.81 325.94 270.207 327.092 271.204C327.671 271.706 328.161 272.114 328.51 272.398C328.685 272.541 328.825 272.653 328.923 272.731C328.971 272.769 329.01 272.8 329.037 272.821C329.051 272.832 329.062 272.841 329.07 272.847C329.074 272.85 329.077 272.853 329.08 272.855C329.081 272.856 329.082 272.856 329.083 272.857C329.083 272.858 329.084 272.858 329.084 272.858C329.085 272.858 329.085 272.859 331.045 270.342ZM319.572 276.577C319.895 276.257 320.642 275.798 321.935 275.328C323.16 274.882 324.596 274.525 326.018 274.248C327.427 273.973 328.752 273.791 329.728 273.677C330.215 273.621 330.609 273.582 330.878 273.557C331.013 273.545 331.116 273.536 331.183 273.531C331.216 273.528 331.241 273.526 331.256 273.525C331.263 273.524 331.268 273.524 331.271 273.524C331.272 273.524 331.273 273.524 331.273 273.524C331.273 273.524 331.273 273.524 331.272 273.524C331.272 273.524 331.272 273.524 331.272 273.524C331.272 273.524 331.271 273.524 331.045 270.342C330.819 267.16 330.818 267.16 330.818 267.16C330.817 267.16 330.817 267.16 330.816 267.161C330.815 267.161 330.814 267.161 330.813 267.161C330.811 267.161 330.808 267.161 330.804 267.161C330.796 267.162 330.786 267.163 330.774 267.164C330.749 267.166 330.714 267.168 330.67 267.172C330.583 267.179 330.458 267.189 330.3 267.204C329.984 267.232 329.536 267.277 328.991 267.34C327.904 267.467 326.41 267.672 324.797 267.986C323.196 268.298 321.407 268.732 319.755 269.332C318.17 269.909 316.389 270.751 315.084 272.043L319.572 276.577ZM251.988 312.42C263.519 312.42 276.784 306.975 288.76 299.979C300.825 292.931 312.039 284.036 319.572 276.577L315.083 272.044C307.928 279.13 297.14 287.695 285.542 294.471C273.854 301.298 261.794 306.04 251.988 306.04V312.42ZM229.437 309.19C236.459 311.27 243.988 312.42 251.988 312.42V306.04C244.606 306.04 237.687 304.98 231.249 303.073L229.437 309.19ZM228.697 303.399C228.598 303.459 228.499 303.516 228.399 303.571L231.492 309.151C231.659 309.059 231.825 308.963 231.99 308.863L228.697 303.399ZM228.127 303.741C228.153 303.722 228.176 303.709 228.194 303.699L231.231 309.309C231.411 309.212 231.59 309.103 231.764 308.982L228.127 303.741ZM226.533 306.249C226.466 307.091 226.52 307.901 226.553 308.448L232.921 308.064C232.883 307.44 232.867 307.08 232.892 306.759L226.533 306.249ZM226.553 308.448C226.594 309.14 226.609 309.514 226.573 309.843L232.915 310.541C233.02 309.582 232.957 308.664 232.921 308.064L226.553 308.448ZM226.573 309.844C226.555 310.011 226.493 310.237 226.294 310.844L232.354 312.837C232.514 312.351 232.811 311.485 232.915 310.54L226.573 309.844ZM226.337 310.72L226.337 310.721L232.31 312.961L232.31 312.96L226.337 310.72ZM226.293 310.844C226.236 311.018 226.166 311.23 226.1 311.449L232.202 313.309C232.245 313.168 232.293 313.022 232.354 312.837L226.293 310.844ZM225.97 312.618L225.977 312.71L232.339 312.233L232.332 312.14L225.97 312.618ZM225.977 312.71C226.06 313.817 226.071 314.136 226.042 314.38C226.03 314.484 226.005 314.676 225.685 315.301L231.365 318.207C231.877 317.205 232.244 316.259 232.378 315.13C232.495 314.141 232.406 313.133 232.339 312.233L225.977 312.71ZM225.682 315.308L225.604 315.462L231.289 318.355L231.368 318.2L225.682 315.308ZM225.603 315.464C225.448 315.768 225.318 316.022 225.177 316.265C225.036 316.507 224.921 316.673 224.832 316.78C224.739 316.89 224.732 316.868 224.828 316.811C224.953 316.739 225.172 316.655 225.438 316.658L225.363 323.038C227.512 323.063 228.949 321.801 229.724 320.874C230.49 319.959 231.02 318.885 231.29 318.353L225.603 315.464ZM225.441 316.658C225.558 316.66 225.622 316.672 225.64 316.676C225.655 316.679 225.691 316.686 225.747 316.701C225.774 316.708 225.827 316.723 225.895 316.746C225.93 316.758 225.982 316.777 226.044 316.802C226.101 316.825 226.203 316.868 226.328 316.934L223.348 322.574C223.71 322.766 224.052 322.851 224.082 322.859C224.212 322.894 224.34 322.923 224.459 322.945C224.685 322.988 225.004 323.033 225.361 323.038L225.441 316.658ZM221.783 318.837C221.647 319.288 221.642 319.669 221.649 319.879C221.653 319.988 221.662 320.076 221.668 320.127C221.671 320.154 221.674 320.176 221.676 320.189C221.677 320.196 221.677 320.201 221.678 320.205C221.678 320.206 221.678 320.208 221.678 320.209C221.679 320.21 221.679 320.21 221.679 320.211L227.997 319.33C227.993 319.297 228.018 319.457 228.025 319.645C228.032 319.85 228.027 320.225 227.893 320.671L221.783 318.837ZM221.679 320.21C221.684 320.247 221.658 320.082 221.651 319.889C221.644 319.681 221.648 319.266 221.812 318.775L227.863 320.795C228.029 320.299 228.034 319.879 228.027 319.666C228.023 319.553 228.013 319.463 228.008 319.412C228.005 319.386 228.002 319.364 228 319.351C227.999 319.345 227.998 319.339 227.998 319.336C227.998 319.334 227.998 319.333 227.997 319.332C227.997 319.331 227.997 319.33 227.997 319.33L221.679 320.21ZM221.813 318.772C222.253 317.459 223.327 316.884 224.026 316.7C224.614 316.546 225.095 316.602 225.256 316.623C225.628 316.672 225.904 316.779 225.954 316.798C226.125 316.861 226.252 316.927 226.265 316.933C226.323 316.963 226.376 316.992 226.349 316.977L223.274 322.567C223.276 322.568 223.289 322.576 223.304 322.584C223.317 322.59 223.351 322.609 223.395 322.631C223.412 322.64 223.543 322.707 223.717 322.772C223.768 322.791 224.046 322.898 224.418 322.947C224.58 322.969 225.061 323.025 225.649 322.87C226.349 322.686 227.422 322.112 227.862 320.798L221.813 318.772ZM226.238 316.919L226.238 316.919L223.385 322.625L223.385 322.625L226.238 316.919ZM226.351 316.978C226.348 316.977 226.335 316.97 226.321 316.962C226.306 316.954 226.28 316.94 226.249 316.924C226.22 316.909 226.164 316.881 226.094 316.849C226.048 316.829 225.878 316.751 225.649 316.686L223.901 322.822C223.773 322.785 223.673 322.748 223.616 322.726C223.554 322.701 223.503 322.679 223.47 322.664C223.404 322.635 223.355 322.609 223.332 322.598C223.291 322.577 223.257 322.558 223.272 322.566L226.351 316.978ZM225.704 316.702C225.755 316.718 225.794 316.731 225.814 316.738C225.836 316.746 225.853 316.752 225.861 316.756C225.878 316.762 225.885 316.765 225.88 316.763C225.868 316.758 225.844 316.748 225.81 316.733C225.777 316.719 225.748 316.706 225.73 316.697C225.72 316.693 225.721 316.693 225.729 316.697C225.732 316.698 225.746 316.705 225.767 316.715C225.777 316.72 225.796 316.73 225.821 316.743C225.834 316.75 225.853 316.76 225.876 316.773C225.897 316.784 225.934 316.805 225.98 316.832L222.696 322.302C222.777 322.351 222.843 322.385 222.86 322.394C222.887 322.408 222.91 322.42 222.924 322.426C222.951 322.44 222.974 322.451 222.988 322.458C223.018 322.472 223.048 322.486 223.073 322.497C223.125 322.521 223.186 322.548 223.249 322.576C223.285 322.592 223.581 322.725 223.846 322.806L225.704 316.702ZM226 316.844C226.335 317.049 226.499 317.342 226.557 317.574L220.368 319.122C220.678 320.362 221.453 321.543 222.676 322.29L226 316.844ZM226.558 317.575C226.591 317.71 226.598 317.833 226.593 317.927C226.589 318.014 226.575 318.058 226.579 318.042C226.584 318.024 226.601 317.97 226.648 317.86C226.696 317.744 226.754 317.618 226.844 317.426L221.062 314.729C220.827 315.233 219.849 317.043 220.368 319.121L226.558 317.575ZM226.844 317.426C226.97 317.154 227.2 316.672 227.37 316.151L221.306 314.171C221.277 314.259 221.223 314.385 221.062 314.729L226.844 317.426ZM227.37 316.152C227.459 315.878 227.55 315.603 227.641 315.325L221.58 313.334C221.489 313.61 221.398 313.89 221.306 314.17L227.37 316.152ZM227.641 315.326L227.641 315.326L221.581 313.333L221.581 313.333L227.641 315.326ZM227.655 315.281L227.655 315.281L221.566 313.378L221.566 313.378L227.655 315.281ZM227.641 315.325C227.928 314.451 228.224 313.551 228.508 312.642L222.418 310.742C222.151 311.597 221.87 312.451 221.58 313.333L227.641 315.325ZM228.508 312.643C228.535 312.554 228.566 312.46 228.602 312.347L222.531 310.387C222.497 310.494 222.457 310.618 222.418 310.741L228.508 312.643ZM228.583 312.404L228.583 312.404L222.55 310.33L222.55 310.33L228.583 312.404ZM228.602 312.347C228.745 311.906 229.042 311.028 229.136 310.111L222.79 309.459C222.777 309.584 222.72 309.801 222.531 310.386L228.602 312.347ZM229.136 310.11C229.216 309.329 229.183 308.507 229.164 307.955L222.788 308.169C222.811 308.835 222.817 309.195 222.79 309.46L229.136 310.11ZM229.164 307.955C229.161 307.861 229.158 307.771 229.155 307.682L222.779 307.879C222.782 307.978 222.785 308.076 222.788 308.169L229.164 307.955ZM225.375 304.646C223.809 304.942 222.1 304.924 220.314 304.636L219.3 310.935C221.655 311.314 224.124 311.375 226.559 310.915L225.375 304.646ZM220.311 304.636C220.376 304.646 220.426 304.657 220.453 304.664C220.466 304.667 220.474 304.669 220.473 304.669C220.471 304.668 220.466 304.667 220.449 304.662L218.766 310.816C218.816 310.83 219.036 310.892 219.303 310.935L220.311 304.636ZM220.449 304.662C220.399 304.649 220.153 304.578 219.855 304.535L218.947 310.85C218.866 310.838 218.804 310.824 218.77 310.816C218.753 310.812 218.743 310.81 218.743 310.81C218.743 310.809 218.744 310.81 218.748 310.811C218.752 310.812 218.757 310.814 218.766 310.816L220.449 304.662ZM218.554 304.617C218.352 304.673 218.173 304.738 218.13 304.754L220.288 310.758C220.305 310.751 220.314 310.748 220.321 310.746C220.328 310.743 220.329 310.743 220.326 310.744C220.323 310.745 220.315 310.748 220.302 310.752C220.289 310.756 220.271 310.761 220.248 310.768L218.554 304.617ZM218.248 304.714L218.248 304.714L220.169 310.798L220.169 310.798L218.248 304.714ZM218.129 304.754C218.121 304.757 218.115 304.759 218.109 304.761C218.104 304.763 218.1 304.765 218.096 304.766C218.089 304.769 218.088 304.769 218.09 304.769C218.091 304.768 218.098 304.766 218.109 304.762C218.12 304.759 218.135 304.754 218.155 304.748L219.895 310.886C220.08 310.834 220.244 310.773 220.288 310.758L218.129 304.754ZM218.152 304.749L218.103 304.763L219.849 310.899L219.898 310.885L218.152 304.749ZM218.103 304.763C217.803 304.849 217.576 304.912 217.357 304.962C217.141 305.011 217.004 305.028 216.924 305.032C216.845 305.036 216.889 305.023 217.008 305.057C217.149 305.096 217.325 305.182 217.478 305.324L213.136 309.998C214.494 311.26 216.106 311.461 217.247 311.403C218.321 311.349 219.34 311.044 219.85 310.899L218.103 304.763ZM217.479 305.325C217.554 305.395 217.676 305.549 217.748 305.78C217.817 305.997 217.805 306.164 217.794 306.23C217.785 306.287 217.779 306.267 217.826 306.176C217.871 306.087 217.944 305.973 218.045 305.851L213.131 301.783C212.448 302.608 211.72 303.802 211.493 305.233C211.24 306.829 211.653 308.62 213.135 309.998L217.479 305.325ZM218.046 305.85C218.405 305.416 218.93 305.085 220.091 304.441L216.998 298.861C216.008 299.41 214.381 300.271 213.13 301.784L218.046 305.85ZM220.152 304.406L220.152 304.406L216.938 298.895L216.937 298.896L220.152 304.406ZM220.091 304.441C220.134 304.417 220.176 304.393 220.219 304.37L217.123 298.792C217.081 298.815 217.04 298.838 216.999 298.861L220.091 304.441ZM183.743 275.483C192.18 287.251 203.441 297.69 217.271 304.447L220.071 298.715C207.341 292.495 196.855 282.822 188.927 271.766L183.743 275.483ZM183.18 276.608C184.174 276.663 185.116 276.716 186.044 276.801L186.626 270.448C185.565 270.351 184.509 270.293 183.534 270.238L183.18 276.608ZM183.118 276.604L183.119 276.604L183.595 270.242L183.594 270.242L183.118 276.604ZM180.905 276.466C181.667 276.524 182.44 276.567 183.179 276.608L183.533 270.238C182.781 270.197 182.078 270.158 181.396 270.105L180.905 276.466ZM175.532 270.204C175.293 273.4 177.684 276.224 180.913 276.466L181.389 270.104C181.705 270.128 181.915 270.394 181.894 270.68L175.532 270.204ZM181.795 264.823C178.599 264.584 175.774 266.975 175.532 270.204L181.894 270.68C181.87 270.998 181.603 271.206 181.319 271.185L181.795 264.823ZM182.826 264.892C182.476 264.87 182.131 264.848 181.789 264.823L181.325 271.186C181.697 271.213 182.068 271.237 182.435 271.26L182.826 264.892ZM173.945 258.702C175.683 262.439 177.677 266.145 179.92 269.758L185.34 266.393C183.234 263 181.361 259.521 179.73 256.013L173.945 258.702ZM284.406 302.053C284.49 302.686 284.053 303.405 283.258 303.51L282.418 297.186C279.558 297.566 277.724 300.198 278.082 302.893L284.406 302.053ZM285.331 309.034C285.02 306.706 284.709 304.385 284.407 302.061L278.081 302.885C278.385 305.221 278.697 307.553 279.008 309.879L285.331 309.034ZM285.813 312.647C285.653 311.442 285.492 310.237 285.331 309.034L279.008 309.879C279.168 311.082 279.329 312.284 279.489 313.487L285.813 312.647ZM284.466 311.625C285.149 311.531 285.725 312.004 285.811 312.635L279.49 313.5C279.875 316.308 282.473 318.339 285.336 317.945L284.466 311.625ZM283.427 312.967C283.344 312.36 283.763 311.721 284.468 311.625L285.334 317.945C288.214 317.551 290.129 314.89 289.748 312.103L283.427 312.967ZM282.667 308.055C282.936 309.722 283.199 311.353 283.429 312.981L289.746 312.089C289.506 310.387 289.232 308.695 288.965 307.038L282.667 308.055ZM282.67 308.071L282.67 308.071L288.962 307.022L288.962 307.022L282.67 308.071ZM282.661 308.019L282.661 308.019L288.97 307.073L288.97 307.072L282.661 308.019ZM282.66 308.007L282.66 308.007L288.972 307.084L288.972 307.083L282.66 308.007ZM281.802 302.404C282.062 304.31 282.368 306.204 282.667 308.053L288.965 307.036C288.664 305.175 288.371 303.358 288.123 301.542L281.802 302.404ZM283.258 303.51C282.548 303.604 281.896 303.112 281.801 302.393L288.125 301.553C287.755 298.77 285.192 296.818 282.418 297.186L283.258 303.51Z" fill="#E9994F"/>
<path d="M313.547 280L288.547 298.5V313.5L292.547 329L279.547 336.5L258.547 344.5L231.047 336.5L221 313.5L213.5 308.5V303.5L203 298.5L189.047 280H313.547Z" fill="#D9D9D9"/>
<path d="M341.246 256.281C340.047 272 325.238 280.616 302.046 284.5C278.855 288.384 255.093 279.234 253.547 270C257.047 260 273.355 254.384 296.546 250.5C319.738 246.616 337.047 253.5 341.246 256.281Z" fill="#D9D9D9"/>
<path d="M174.821 264.66C193.783 285.832 192.378 285.446 212.401 288.253C232.424 291.061 265.656 284.42 267.047 274.5C264.08 264.053 237.377 254.546 217.354 251.738C197.332 248.931 169.944 259.214 174.821 264.66Z" fill="#D9D9D9"/>
<path d="M208.874 316.423C208.874 316.423 255.963 373.723 305.425 314.73C305.425 314.73 325.371 312.482 347.463 330.223L368.5 347.5L327.436 381L327.247 372.31L330.225 509.628L336.463 547.723L175.463 559.723L188.911 487.637L183.902 373.723L184.969 398L175.646 390.5L159.146 356L169.463 330.223L208.874 316.423Z" fill="#53B84A"/>
<path d="M249.463 258.723L253.388 262.661C253.388 262.661 256.592 260.3 257.963 258.723" stroke="#823F4B" stroke-width="8" stroke-miterlimit="10" stroke-linecap="round" stroke-linejoin="round"/>
<path d="M253.972 273C253.972 273 253.972 273 248.169 273C248.169 273 247.376 280.45 255.03 280.969C262.684 281.487 257.317 275.44 257.317 275.44C254.26 273.296 253.972 273 253.972 273Z" fill="#541F17"/>
<path d="M288.386 236.591C287.784 234.99 288.112 233.386 289.119 233.007C290.126 232.629 291.43 233.619 292.032 235.22C292.634 236.821 292.305 238.425 291.298 238.804C290.292 239.182 288.988 238.192 288.386 236.591Z" fill="#E9994F"/>
<path d="M216.435 236.386C217.991 236.081 219.276 234.744 219.305 233.399C219.333 232.053 218.096 231.209 216.541 231.513C214.984 231.817 213.701 233.155 213.671 234.5C213.642 235.846 214.879 236.69 216.435 236.386Z" fill="white"/>
<path d="M288.918 236.694C290.639 235.984 291.811 234.148 291.534 232.591C291.256 231.034 289.636 230.348 287.914 231.056C286.192 231.766 285.022 233.603 285.298 235.16C285.575 236.717 287.196 237.404 288.918 236.694Z" fill="white"/>
<path d="M305.079 249.31C305.079 249.232 305.142 249.169 305.219 249.169C305.297 249.169 305.36 249.232 305.36 249.31C305.36 249.387 305.297 249.45 305.219 249.45C305.142 249.45 305.079 249.387 305.079 249.31Z" fill="#E9994F" stroke="#000002" stroke-width="0.706675" stroke-miterlimit="10" stroke-linejoin="round"/>
<path d="M284.858 258.578C284.858 258.5 284.921 258.437 284.998 258.437C285.076 258.437 285.139 258.5 285.139 258.578C285.139 258.655 285.076 258.718 284.998 258.718C284.921 258.718 284.858 258.655 284.858 258.578Z" fill="#E9994F" stroke="#000002" stroke-width="0.706675" stroke-miterlimit="10" stroke-linejoin="round"/>
<path d="M294.407 257.595C294.407 257.44 294.47 257.314 294.547 257.314C294.625 257.314 294.688 257.44 294.688 257.595C294.688 257.75 294.625 257.876 294.547 257.876C294.47 257.876 294.407 257.75 294.407 257.595Z" fill="#E9994F" stroke="#000002" stroke-width="0.706675" stroke-miterlimit="10" stroke-linejoin="round"/>
<path d="M235.991 255.91C235.991 255.91 236.053 255.91 236.131 255.91C236.208 255.91 236.271 255.91 236.271 255.91" stroke="#000002" stroke-width="0.492477" stroke-miterlimit="10" stroke-linecap="round" stroke-linejoin="round"/>
<path d="M218.859 260.965C218.859 260.965 219.047 260.965 219.28 260.965C219.513 260.965 219.701 260.965 219.701 260.965" stroke="#000002" stroke-width="1.78404" stroke-miterlimit="10" stroke-linecap="round" stroke-linejoin="round"/>
<path d="M203.412 264.335C203.412 264.18 203.475 264.054 203.553 264.054C203.63 264.054 203.693 264.18 203.693 264.335C203.693 264.49 203.63 264.616 203.553 264.616C203.475 264.616 203.412 264.49 203.412 264.335Z" stroke="#000002" stroke-width="1.78404" stroke-miterlimit="10" stroke-linecap="round" stroke-linejoin="round"/>
<path d="M236.833 259.701C236.833 259.624 236.896 259.561 236.973 259.561C237.051 259.561 237.114 259.624 237.114 259.701C237.114 259.779 237.051 259.842 236.973 259.842C236.896 259.842 236.833 259.779 236.833 259.701Z" stroke="#000002" stroke-width="1.78404" stroke-miterlimit="10" stroke-linecap="round" stroke-linejoin="round"/>
<path d="M270.069 267.402C270.069 267.36 270.325 267.326 270.64 267.326C270.956 267.326 271.212 267.36 271.212 267.402C271.212 267.444 270.956 267.478 270.64 267.478C270.325 267.478 270.069 267.444 270.069 267.402Z" stroke="#000002" stroke-width="1.78404" stroke-miterlimit="10" stroke-linecap="round" stroke-linejoin="round"/>
<path d="M245.047 277C242.803 274.118 247.547 275.5 254.047 271.453C254.047 271.453 261.646 276.618 267.547 274C273.448 271.382 284.547 265.5 262.547 278.047C262.547 278.047 247.29 279.882 245.047 277Z" fill="#1C0D0D"/>
<path d="M254.047 267L254.047 271.453M254.047 271.453C247.547 275.5 242.803 274.118 245.047 277C247.29 279.882 262.547 278.047 262.547 278.047C284.547 265.5 273.448 271.382 267.547 274C261.646 276.618 254.047 271.453 254.047 271.453Z" stroke="black"/>
<path d="M174.546 286.5C183.046 288.167 200.546 291.4 202.546 291L189.046 279L174.546 286.5Z" fill="#D9D9D9"/>
<path d="M163.046 267L179.546 259L197.046 281.5C192.213 280.167 175.946 277.1 173.546 275.5C171.146 273.9 165.546 269.167 163.046 267Z" fill="#D9D9D9"/>
<path d="M316.546 288.5C309.88 292.5 286.046 303.5 286.046 303.5L298.546 281.5L316.546 288.5Z" fill="#D9D9D9"/>
<path d="M329.546 282L300.546 291L314.046 278L329.546 282Z" fill="#D9D9D9"/>
<path d="M340.046 275.5L335.546 261L329.046 275.5H340.046Z" fill="#D9D9D9"/>
<ellipse cx="255.046" cy="198.5" rx="18" ry="2.5" fill="#82573F"/>
<ellipse cx="255.046" cy="198.5" rx="18" ry="2.5" fill="#82573F"/>
<ellipse cx="255.046" cy="198.5" rx="18" ry="2.5" fill="#82573F"/>
<path d="M283.046 188C283.046 189.381 266.749 188 254.046 188C241.344 188 228.546 189.381 228.546 188C228.546 186.619 241.344 183 254.046 183C266.749 183 283.046 186.619 283.046 188Z" fill="#82573F"/>
<path d="M283.046 188C283.046 189.381 266.749 188 254.046 188C241.344 188 228.546 189.381 228.546 188C228.546 186.619 241.344 183 254.046 183C266.749 183 283.046 186.619 283.046 188Z" fill="#82573F"/>
<path d="M283.046 188C283.046 189.381 266.749 188 254.046 188C241.344 188 228.546 189.381 228.546 188C228.546 186.619 241.344 183 254.046 183C266.749 183 283.046 186.619 283.046 188Z" fill="#82573F"/>
<path d="M286.046 177C286.046 178.381 271.391 177 254.546 177C237.702 177 222.546 178.381 222.546 177C222.546 175.619 237.702 172 254.546 172C271.391 172 286.046 175.619 286.046 177Z" fill="#82573F"/>
<path d="M286.046 177C286.046 178.381 271.391 177 254.546 177C237.702 177 222.546 178.381 222.546 177C222.546 175.619 237.702 172 254.546 172C271.391 172 286.046 175.619 286.046 177Z" fill="#82573F"/>
<path d="M286.046 177C286.046 178.381 271.391 177 254.546 177C237.702 177 222.546 178.381 222.546 177C222.546 175.619 237.702 172 254.546 172C271.391 172 286.046 175.619 286.046 177Z" fill="#82573F"/>
<path d="M186.046 416L238.813 419L328.046 411" stroke="#FFD747" stroke-width="13"/>
<path d="M186.046 442L238.813 445L328.046 437" stroke="#FFD747" stroke-width="13"/>
<path d="M154 374L161 361L163 364L154 374Z" fill="#E9984F" stroke="#E9984F"/>
<path d="M358.75 139.991C358.75 139.991 342 165.991 366.297 175.011C390.595 184.031 354.159 270.366 354.159 270.366C351.161 292.477 329.352 308.971 340 327L350.371 367.991C364.576 352.129 396.84 299.841 399.333 275.656L394.557 179.796L392.115 150.551L384 129.991L364.841 134.914C364.841 134.914 361.341 137.557 359.274 141.455L358.75 139.991Z" fill="#E9984F"/>
<path d="M139.382 258.185C139.382 258.185 165.781 280.567 142.705 298.135C119.629 315.703 179 378.991 179 378.991C189.409 401.687 192.277 393.872 186.747 416.641L169.941 445.868C149.568 433.511 150.65 441.722 140.105 416.641L114.008 312.459L107.1 280.354L109.094 255.7L131.209 254.733C131.209 254.733 135.817 256.422 139.299 259.923L139.382 258.185Z" fill="#E9984F"/>
<g filter="url(#filter0_f_101_810)">
<ellipse cx="249" cy="254.491" rx="186" ry="191" fill="#FFD362" fill-opacity="0.1"/>
<path d="M434.5 254.491C434.5 359.714 351.436 444.991 249 444.991C146.564 444.991 63.5 359.714 63.5 254.491C63.5 149.268 146.564 63.991 249 63.991C351.436 63.991 434.5 149.268 434.5 254.491Z" stroke="black"/>
<path d="M434.5 254.491C434.5 359.714 351.436 444.991 249 444.991C146.564 444.991 63.5 359.714 63.5 254.491C63.5 149.268 146.564 63.991 249 63.991C351.436 63.991 434.5 149.268 434.5 254.491Z" stroke="black" stroke-opacity="0.2"/>
</g>
<path d="M266.873 242.817C266.873 242.817 293.5 230.491 308.27 237.967C313.296 235.011 287.555 196.563 266.873 242.817Z" fill="white" stroke="#000002" stroke-width="1.5" stroke-miterlimit="10" stroke-linejoin="round"/>
<path d="M249.179 257.214L253.104 261.152C253.104 261.152 256.308 258.791 257.679 257.214" stroke="#823F4B" stroke-width="8" stroke-miterlimit="10" stroke-linecap="round" stroke-linejoin="round"/>
<path d="M252.441 269.156C252.441 269.156 238.16 278.031 210.229 269.444C210.229 269.444 232.572 297.53 253.855 298.255C275.138 298.98 299.43 264.813 299.43 264.813C278.574 279.442 252.441 269.156 252.441 269.156Z" fill="#541F17"/>
<path d="M225.823 273.681L234.61 283.77L235.62 278.531L275.107 278.454L276.445 283.546L284.13 272.36C262.769 276.326 252.15 270.448 252.15 270.448C252.15 270.448 246.025 275.727 225.823 273.681Z" fill="#FFF8F3"/>
<path d="M237.762 284.121C237.626 279.764 247.048 283.142 254.385 282.914C261.722 282.685 272.624 279.594 272.76 283.952C272.895 288.309 261.488 294.807 254.151 295.036C246.814 295.264 237.898 288.479 237.762 284.121Z" fill="#E19F97"/>
<path d="M277 235.476C283.946 215.883 297.293 224.194 299.98 233.124C295 233.124 277.17 235.481 277.17 235.481" fill="black"/>
<path d="M277 235.476C283.946 215.883 297.293 224.194 299.98 233.124C295 233.124 277.17 235.481 277.17 235.481" stroke="#000002" stroke-opacity="0.918919" stroke-width="5.88512" stroke-miterlimit="10" stroke-linecap="round" stroke-linejoin="round"/>
<path d="M287.103 234.082C286.501 232.481 286.829 230.877 287.836 230.498C288.843 230.12 290.147 231.11 290.749 232.711C291.351 234.312 291.022 235.916 290.015 236.295C289.009 236.673 287.705 235.683 287.103 234.082Z" fill="white"/>
<path d="M241.204 243.016C241.204 243.016 213.947 233.617 200.526 242.843C195.306 240.434 215.678 198.713 241.204 243.016Z" fill="white" stroke="#000002" stroke-width="1.5" stroke-miterlimit="10" stroke-linejoin="round"/>
<path d="M231.161 237.491C225.5 215.491 206.5 223.491 208.212 236.468C213.162 235.886 231.161 237.143 231.161 237.143" fill="black"/>
<path d="M231.161 237.491C225.5 215.491 206.5 223.491 208.212 236.468C213.162 235.886 231.161 237.143 231.161 237.143" stroke="#000002" stroke-opacity="0.918919" stroke-width="5.88512" stroke-miterlimit="10" stroke-linecap="round" stroke-linejoin="round"/>
<path d="M269.785 265.893C269.785 265.851 270.041 265.817 270.356 265.817C270.672 265.817 270.928 265.851 270.928 265.893C270.928 265.935 270.672 265.969 270.356 265.969C270.041 265.969 269.785 265.935 269.785 265.893Z" stroke="#000002" stroke-width="1.78404" stroke-miterlimit="10" stroke-linecap="round" stroke-linejoin="round"/>
<path d="M218.301 236.155C217.699 234.554 218.027 232.95 219.034 232.571C220.041 232.193 221.345 233.183 221.947 234.784C222.549 236.385 222.22 237.989 221.213 238.368C220.207 238.746 218.903 237.756 218.301 236.155Z" fill="white"/>
<path d="M269 208.991C269 208.991 272.183 206.268 274.683 205.268C277.183 204.268 281.5 203.491 281.5 203.491" stroke="#82573F" stroke-width="5" stroke-linecap="round"/>
<path d="M224 203.491C224 203.491 228.188 203.61 230.712 204.548C233.236 205.486 236.956 207.809 236.956 207.809" stroke="#82573F" stroke-width="5" stroke-linecap="round"/>
<path d="M334 274.491L401 317.991L364.5 357.491L328.5 386.991L321 317.991L334 274.491Z" fill="#53B84A"/>
<g clip-path="url(#clip0_101_810)">
<path d="M274.337 129.04C270.521 128.32 268.011 124.644 268.73 120.828C268.783 120.55 268.853 120.274 268.938 120.004L273.084 105.352L265.078 92.0898C264.101 90.4892 263.817 88.5602 264.293 86.7459C264.751 84.966 265.889 83.4362 267.463 82.4871C268.496 81.8596 269.679 81.5202 270.888 81.5018L286.27 80.9163L296.392 69.1959C298.003 67.3153 300.495 66.4389 302.928 66.8969C304.158 67.1068 305.31 67.6392 306.267 68.4402C307.182 69.2287 307.871 70.2448 308.266 71.3858L313.592 85.8535L318.2 87.8244C319.217 88.2526 320.316 88.6867 321.432 89.1331C323.848 90.0968 326.352 91.0859 328.369 92.1359C331.794 93.9231 333.12 98.1484 331.332 101.573C330.878 102.443 330.247 103.206 329.479 103.815L317.303 113.403L315.969 128.847C315.816 130.716 314.907 132.443 313.453 133.627C312.044 134.807 310.229 135.386 308.398 135.242C308.192 135.205 307.984 135.167 307.773 135.128C306.838 134.956 305.949 134.594 305.161 134.063L292.269 125.44L277.193 128.971C276.268 129.192 275.307 129.221 274.371 129.056L274.337 129.04Z" fill="#FFE64C"/>
<path d="M294.25 114.818C290.63 114.174 287.986 111.037 287.965 107.36L287.968 106.266L303.07 109.016L302.676 110.048C301.379 113.454 297.847 115.46 294.257 114.829L294.25 114.818Z" fill="#EB6B75"/>
<path d="M285.071 97.0582C286.938 99.7462 291.025 96.9263 289.159 94.2293C287.293 91.5323 283.214 94.3628 285.071 97.0582Z" fill="#E9984F"/>
<path d="M306.152 97.2766C305 98.077 304.715 99.6592 305.515 100.811C306.316 101.964 307.898 102.249 309.05 101.449C310.199 100.65 310.486 99.0731 309.692 97.9211C308.896 96.7659 307.314 96.4751 306.16 97.2714C306.158 97.2729 306.155 97.2751 306.152 97.2766Z" fill="#E9984F"/>
<path d="M274.337 129.04C270.521 128.32 268.011 124.644 268.73 120.828C268.783 120.55 268.853 120.274 268.938 120.004L273.084 105.352L265.078 92.0898C264.101 90.4892 263.817 88.5602 264.293 86.746C264.751 84.966 265.889 83.4362 267.463 82.4871C268.496 81.8596 269.679 81.5202 270.888 81.5018L286.27 80.9163L296.392 69.1959C298.003 67.3153 300.495 66.4389 302.928 66.8969L295.621 107.033L287.852 105.619C287.688 105.589 287.529 105.698 287.499 105.863C287.093 108.015 287.572 110.24 288.826 112.035C290.024 113.825 291.897 115.051 294.017 115.431L292.269 125.44L277.193 128.971C276.256 129.192 275.283 129.215 274.337 129.04ZM287.673 92.6305C286.001 92.3326 284.405 93.4471 284.108 95.1178C283.967 95.9107 284.143 96.7284 284.598 97.3931C285.039 98.0655 285.734 98.5298 286.525 98.6793C288.176 99.0744 289.834 98.0565 290.229 96.4054C290.625 94.7543 289.607 93.0957 287.956 92.7007C287.846 92.6742 287.736 92.6541 287.625 92.6405L287.673 92.6305Z" fill="#F9C65B"/>
<path d="M311.88 83.9048L307.411 71.7635C307.069 70.7629 306.466 69.872 305.665 69.1817C304.851 68.4855 303.87 68.0131 302.818 67.8122C301.765 67.6064 300.677 67.6824 299.663 68.0328C298.661 68.3864 297.772 68.9991 297.085 69.8085L287.049 81.4137L286.704 81.8185L286.177 81.8349L270.974 82.4155C269.927 82.4373 268.905 82.7356 268.011 83.2791C267.1 83.8335 266.348 84.6151 265.83 85.5479C265.308 86.4818 265.042 87.5372 265.058 88.6064C265.078 89.6718 265.382 90.7122 265.94 91.6201L273.817 104.766L274.091 105.218L273.951 105.725L269.827 120.259C269.474 121.309 269.421 122.437 269.674 123.514C269.918 124.543 270.422 125.491 271.137 126.269C271.843 127.064 272.744 127.659 273.75 127.998C274.794 128.333 275.909 128.374 276.974 128.118L291.94 124.575L292.458 124.454L292.9 124.75L305.665 133.295C306.505 133.863 307.476 134.207 308.486 134.295C309.574 134.383 310.666 134.183 311.651 133.711C312.639 133.24 313.483 132.511 314.093 131.602C314.659 130.751 314.999 129.77 315.08 128.751L316.374 113.421L316.423 112.897L316.838 112.57L328.909 103.094C329.592 102.563 330.152 101.89 330.55 101.12C331.626 98.9971 331.384 96.4452 329.929 94.5621C329.396 93.8964 328.726 93.3534 327.965 92.9697C325.963 91.9411 323.46 90.9429 321.07 89.9932C319.945 89.5452 318.836 89.1095 317.838 88.6845L313.339 86.7803L312.852 86.5793L312.672 86.0788L311.88 83.9048ZM288.017 104.713L303.563 107.544C304.228 107.665 304.669 108.302 304.548 108.967C303.645 113.922 298.896 117.207 293.94 116.304C288.986 115.401 285.701 110.653 286.603 105.7C286.723 105.038 287.355 104.597 288.017 104.713ZM295.345 108.545L288.89 107.37C288.897 111.059 291.894 114.044 295.585 114.037C298.356 114.032 300.837 112.316 301.819 109.724L295.345 108.545ZM288.397 94.7642C287.911 94.061 286.946 93.8853 286.243 94.3719C285.539 94.8584 285.364 95.8235 285.85 96.5267C286.342 97.2223 287.3 97.3968 288.005 96.919C288.705 96.43 288.88 95.4685 288.397 94.7642ZM287.838 91.7251C290.002 92.1211 291.436 94.1968 291.04 96.3622C290.85 97.3996 290.257 98.3196 289.39 98.9204C287.584 100.17 285.108 99.7197 283.859 97.9142C283.859 97.9142 283.859 97.9142 283.858 97.9132C282.608 96.1037 283.059 93.6247 284.867 92.3722C285.732 91.7702 286.801 91.5372 287.838 91.7251ZM308.868 98.4914C308.384 97.7886 307.421 97.6114 306.718 98.0961C306.717 98.0968 306.715 98.0983 306.714 98.0991C306.018 98.5907 305.843 99.5486 306.321 100.254C306.813 100.95 307.771 101.124 308.476 100.646C309.176 100.157 309.351 99.1957 308.868 98.4914ZM308.309 95.4523C310.473 95.8483 311.907 97.924 311.511 100.089C311.321 101.127 310.728 102.047 309.861 102.648C308.055 103.897 305.579 103.447 304.33 101.641C304.33 101.641 304.33 101.641 304.329 101.64C303.076 99.8371 303.523 97.36 305.326 96.1075C305.33 96.1045 305.333 96.1023 305.338 96.0994C306.203 95.4983 307.272 95.2654 308.309 95.4523ZM309.677 70.9318L314.138 83.0625L314.768 84.7393L318.777 86.4047C319.784 86.8313 320.866 87.262 321.965 87.6961C324.408 88.6647 326.973 89.6835 329.076 90.7681C330.152 91.3166 331.096 92.0919 331.843 93.0398C333.906 95.6781 334.244 99.2756 332.71 102.252C332.152 103.331 331.368 104.276 330.41 105.023L318.752 114.182L317.497 128.985C317.396 130.412 316.933 131.79 316.151 132.987C314.402 135.552 311.409 136.979 308.315 136.724C306.893 136.601 305.525 136.118 304.343 135.318L291.974 127.06L277.534 130.436C276.039 130.797 274.474 130.738 273.009 130.267C270.146 129.341 267.97 126.993 267.263 124.067C266.916 122.58 266.981 121.026 267.454 119.574L271.418 105.563L263.785 92.874C263.002 91.5967 262.574 90.1335 262.546 88.6354C262.526 87.1399 262.901 85.6666 263.632 84.3621C264.354 83.053 265.405 81.9545 266.682 81.1757C267.96 80.4019 269.422 79.9833 270.916 79.9634L285.563 79.4032L295.207 68.2037C296.173 67.0701 297.424 66.2127 298.83 65.7205C300.246 65.2308 301.766 65.124 303.237 65.4096C304.705 65.69 306.075 66.3491 307.21 67.321C308.338 68.2849 309.188 69.5314 309.677 70.9318Z" fill="#98402F"/>
</g>
<g clip-path="url(#clip1_101_810)">
<path d="M170.43 126.585C166.226 127.795 161.837 125.369 160.626 121.166C160.538 120.859 160.468 120.546 160.418 120.231L157.16 103.39L142.382 94.1073C140.588 92.9924 139.324 91.1958 138.882 89.1298C138.441 87.1071 138.81 84.9911 139.912 83.2383C140.634 82.083 141.651 81.142 142.858 80.5105L158.035 72.1229L162.276 55.2005C162.943 52.492 165.006 50.3468 167.685 49.574C169.029 49.1615 170.458 49.1131 171.827 49.4337C173.146 49.7633 174.355 50.4358 175.331 51.3836L188.024 63.2373L193.659 62.8836C194.898 62.7991 196.225 62.6783 197.574 62.5615C200.492 62.3062 203.513 62.0315 206.074 62.0654C210.425 62.127 213.901 65.7053 213.84 70.0565C213.824 71.1614 213.576 72.2494 213.112 73.252L205.725 89.0702L212.213 105.283C213.007 107.241 212.967 109.439 212.105 111.367C211.286 113.268 209.754 114.771 207.838 115.554C207.612 115.621 207.384 115.688 207.152 115.757C206.124 116.058 205.046 116.144 203.984 116.01L186.644 113.87L173.268 125.067C172.449 125.758 171.498 126.274 170.472 126.583L170.43 126.585Z" fill="#FFE64C"/>
<path d="M183.251 102.182C179.283 103.369 175.033 101.553 173.148 97.8652L172.596 96.7633L189.182 91.8727L189.31 93.1106C189.731 97.195 187.195 101.004 183.264 102.189L183.251 102.182Z" fill="#EB6B75"/>
<path d="M165.013 88.9693C168.255 90.7263 170.936 85.8177 167.691 84.0507C164.447 82.2837 161.778 87.1994 165.013 88.9693Z" fill="#E9984F"/>
<path d="M186.331 78.5005C185.578 79.89 186.093 81.6263 187.482 82.3795C188.872 83.1328 190.608 82.6176 191.361 81.2282C192.113 79.8427 191.602 78.1105 190.219 77.3541C188.833 76.5957 187.094 77.1052 186.336 78.4915C186.335 78.4941 186.333 78.498 186.331 78.5005Z" fill="#E9984F"/>
<path d="M170.43 126.585C166.226 127.795 161.837 125.369 160.626 121.166C160.538 120.859 160.468 120.546 160.418 120.231L157.16 103.39L142.382 94.1073C140.588 92.9925 139.324 91.1958 138.882 89.1298C138.441 87.1071 138.81 84.9911 139.912 83.2383C140.634 82.083 141.651 81.1421 142.858 80.5106L158.035 72.123L162.276 55.2006C162.943 52.4921 165.006 50.3468 167.685 49.574L180.683 93.6547L172.151 96.1704C171.97 96.2238 171.866 96.4143 171.92 96.5953C172.603 98.9663 174.212 100.961 176.384 102.131C178.496 103.324 181.002 103.608 183.327 102.916L186.644 113.87L173.268 125.067C172.437 125.764 171.47 126.28 170.43 126.585ZM165.386 83.1958C163.553 83.7437 162.513 85.6738 163.06 87.5054C163.321 88.3743 163.912 89.1079 164.707 89.5457C165.491 89.9987 166.427 90.1131 167.297 89.8628C169.159 89.4232 170.311 87.5583 169.872 85.6971C169.432 83.8358 167.567 82.6834 165.706 83.123C165.582 83.1518 165.461 83.1876 165.343 83.23L165.386 83.1958Z" fill="#F9C65B"/>
<path d="M185.313 62.1452L174.663 52.1967C173.811 51.3638 172.753 50.7734 171.596 50.4852C170.425 50.1972 169.199 50.2195 168.038 50.5508C166.874 50.8778 165.819 51.5057 164.976 52.3724C164.148 53.236 163.564 54.303 163.283 55.4655L159.071 72.2282L158.93 72.8104L158.408 73.0939L143.408 81.386C142.366 81.9387 141.489 82.7572 140.865 83.7572C140.23 84.7768 139.869 85.9444 139.821 87.1453C139.77 88.3494 140.037 89.5459 140.595 90.6135C141.156 91.675 141.99 92.5673 143.011 93.1978L157.6 102.428L158.104 102.744L158.221 103.326L161.441 120.037C161.618 121.272 162.136 122.434 162.938 123.389C163.705 124.3 164.692 124.998 165.806 125.419C166.918 125.86 168.127 126.002 169.311 125.834C170.531 125.641 171.673 125.118 172.615 124.319L185.874 113.168L186.334 112.784L186.929 112.857L204.102 114.981C205.235 115.127 206.386 114.981 207.447 114.557C208.587 114.094 209.583 113.339 210.335 112.365C211.09 111.39 211.569 110.229 211.722 109.005C211.86 107.862 211.704 106.703 211.269 105.637L204.799 89.5594L204.582 89.0073L204.834 88.4683L212.173 72.8156C212.591 71.9347 212.813 70.9732 212.823 69.9976C212.829 67.3165 211.292 64.8719 208.873 63.7152C208 63.3155 207.051 63.1091 206.09 63.1092C203.555 63.0893 200.531 63.354 197.645 63.6105C196.286 63.7302 194.95 63.854 193.73 63.9326L188.239 64.2979L187.647 64.3428L187.212 63.9306L185.313 62.1452ZM171.858 95.176L188.931 90.1418C189.662 89.9263 190.428 90.3435 190.644 91.0744C192.248 96.5169 189.136 102.229 183.693 103.833C178.251 105.436 172.539 102.326 170.935 96.8856C170.721 96.1587 171.133 95.3953 171.858 95.176ZM181.173 95.3154L174.083 97.4059C175.961 101.114 180.489 102.597 184.198 100.719C186.984 99.3087 188.609 96.3241 188.282 93.219L181.173 95.3154ZM167.196 84.9749C166.351 84.5142 165.29 84.8267 164.83 85.6727C164.369 86.5186 164.682 87.5786 165.528 88.0393C166.375 88.4898 167.427 88.1796 167.894 87.3415C168.35 86.4947 168.039 85.4387 167.196 84.9749ZM165.092 82.2014C167.471 81.5024 169.966 82.8635 170.665 85.2427C171 86.3825 170.87 87.6087 170.302 88.6527C169.119 90.8248 166.4 91.6277 164.228 90.4448C164.228 90.4448 164.228 90.4448 164.226 90.4441C162.051 89.2579 161.248 86.5353 162.432 84.3585C162.997 83.3142 163.954 82.5381 165.092 82.2014ZM189.679 78.3456C188.835 77.8843 187.777 78.1943 187.315 79.0383C187.315 79.0396 187.313 79.0421 187.313 79.0434C186.862 79.8907 187.172 80.9427 188.01 81.41C188.858 81.8606 189.91 81.5504 190.377 80.7122C190.833 79.8655 190.522 78.8094 189.679 78.3456ZM187.575 75.5722C189.953 74.8731 192.448 76.2343 193.148 78.6134C193.483 79.7533 193.353 80.9795 192.785 82.0234C191.602 84.1956 188.883 84.9985 186.711 83.8156C186.711 83.8156 186.711 83.8156 186.709 83.8149C184.535 82.6359 183.728 79.9177 184.907 77.7435C184.91 77.7383 184.912 77.7344 184.915 77.7293C185.481 76.6859 186.437 75.9099 187.575 75.5722ZM176.52 50.2116L187.158 60.153L188.642 61.5204L193.519 61.1631C194.749 61.0816 196.055 60.9666 197.381 60.8458C200.33 60.5816 203.426 60.3063 206.092 60.3308C207.453 60.3372 208.795 60.6384 210.027 61.2133C213.44 62.8215 215.604 66.2689 215.57 70.0414C215.556 71.4095 215.246 72.758 214.661 73.9951L207.577 89.1187L213.82 104.647C214.442 106.133 214.674 107.754 214.495 109.355C214.036 112.822 211.749 115.775 208.506 117.087C207.014 117.685 205.393 117.891 203.798 117.686L187.169 115.65L174.354 126.368C173.033 127.488 171.428 128.223 169.717 128.492C166.366 129.012 162.987 127.752 160.792 125.168C159.689 123.848 158.967 122.252 158.707 120.551L155.591 104.447L141.479 95.5519C140.043 94.6641 138.871 93.409 138.083 91.9164C137.305 90.4218 136.935 88.7497 137.01 87.0665C137.072 85.3836 137.573 83.7455 138.462 82.3149C139.356 80.8885 140.614 79.7263 142.106 78.949L156.557 70.9592L160.581 54.8033C160.978 53.1731 161.801 51.6766 162.966 50.4683C164.142 49.258 165.617 48.38 167.241 47.9216C168.86 47.4594 170.573 47.4278 172.208 47.8299C173.831 48.2279 175.318 49.0505 176.52 50.2116Z" fill="#98402F"/>
</g>
<g clip-path="url(#clip2_101_810)">
<path d="M119.97 232.627C118.59 234.424 116.015 234.762 114.219 233.383C114.087 233.282 113.963 233.173 113.844 233.057L107.31 227.041L98.2986 227.715C97.2081 227.802 96.1293 227.442 95.3102 226.716C94.5043 226.009 94.0078 225.014 93.9283 223.945C93.874 223.241 94.0087 222.537 94.3176 221.902L98.0638 213.742L94.6293 205.387C94.0747 204.053 94.275 202.525 95.154 201.379C95.5873 200.794 96.1678 200.335 96.8367 200.048C97.488 199.779 98.1985 199.688 98.8963 199.783L107.829 200.821L110.069 198.942C110.559 198.525 111.075 198.067 111.601 197.604C112.739 196.601 113.913 195.557 114.991 194.784C116.823 193.473 119.372 193.895 120.684 195.727C121.017 196.193 121.248 196.722 121.363 197.283L123.146 206.145L130.834 210.907C131.766 211.479 132.425 212.407 132.659 213.476C132.902 214.519 132.725 215.617 132.168 216.532C132.094 216.629 132.02 216.728 131.944 216.827C131.608 217.269 131.186 217.636 130.702 217.907L122.818 222.345L120.686 231.122C120.557 231.662 120.319 232.17 119.987 232.614L119.97 232.627Z" fill="#FFE64C"/>
<path d="M117.812 218.517C116.523 220.231 114.193 220.781 112.274 219.824L111.706 219.534L117.114 212.398L117.548 212.875C118.979 214.447 119.093 216.814 117.819 218.516L117.812 218.517Z" fill="#EB6B75"/>
<path d="M106.15 218.617C108.041 218.353 107.649 215.483 105.754 215.744C103.859 216.005 104.258 218.874 106.15 218.617Z" fill="#E9984F"/>
<path d="M111.816 207.702C111.929 208.512 112.677 209.078 113.488 208.964C114.298 208.851 114.864 208.103 114.75 207.292C114.638 206.484 113.892 205.919 113.084 206.029C112.273 206.139 111.704 206.886 111.815 207.697C111.815 207.698 111.815 207.7 111.816 207.702Z" fill="#E9984F"/>
<path d="M119.97 232.627C118.59 234.424 116.015 234.762 114.219 233.383C114.087 233.282 113.963 233.173 113.844 233.057L107.31 227.041L98.2986 227.715C97.2081 227.802 96.1293 227.442 95.3102 226.716C94.5043 226.009 94.0078 225.014 93.9283 223.945C93.874 223.241 94.0087 222.537 94.3176 221.902L98.0639 213.742L94.6293 205.387C94.0747 204.053 94.275 202.525 95.1541 201.379L114.12 215.753L111.338 219.424C111.279 219.502 111.294 219.613 111.372 219.672C112.386 220.45 113.67 220.787 114.934 220.607C116.181 220.455 117.313 219.803 118.069 218.8L122.818 222.345L120.686 231.122C120.554 231.668 120.31 232.18 119.97 232.627ZM104.531 216.097C103.935 216.888 104.095 218.013 104.886 218.607C105.262 218.889 105.734 219.013 106.2 218.952C106.666 218.899 107.091 218.659 107.377 218.287C108.017 217.532 107.924 216.401 107.169 215.76C106.413 215.12 105.282 215.213 104.642 215.968C104.599 216.018 104.559 216.07 104.523 216.124L104.531 216.097Z" fill="#F9C65B"/>
<path d="M106.364 201.199L98.8678 200.327C98.2568 200.242 97.6343 200.321 97.0639 200.557C96.4874 200.797 95.9831 201.183 95.6013 201.678C95.2169 202.172 94.97 202.758 94.8853 203.378C94.8055 203.992 94.8903 204.617 95.1306 205.187L98.528 213.467L98.6479 213.754L98.5176 214.032L94.8159 222.098C94.5515 222.649 94.4375 223.26 94.4849 223.868C94.5335 224.488 94.7422 225.086 95.0914 225.601C95.4401 226.118 95.9193 226.535 96.48 226.808C97.0399 227.078 97.6616 227.194 98.281 227.143L107.198 226.504L107.505 226.481L107.733 226.688L114.211 232.662C114.665 233.122 115.238 233.447 115.865 233.599C116.465 233.743 117.091 233.73 117.684 233.563C118.284 233.405 118.831 233.093 119.273 232.658C119.722 232.203 120.037 231.634 120.184 231.011L122.282 222.289L122.355 221.987L122.625 221.835L130.435 217.441C130.951 217.154 131.386 216.739 131.698 216.237C132.031 215.693 132.214 215.072 132.228 214.435C132.243 213.797 132.086 213.166 131.773 212.609C131.479 212.09 131.058 211.655 130.549 211.345L122.911 206.634L122.651 206.47L122.59 206.168L120.837 197.39C120.74 196.894 120.537 196.425 120.242 196.015C119.42 194.896 118.028 194.35 116.665 194.611C116.178 194.713 115.719 194.919 115.319 195.214C114.256 195.985 113.077 197.025 111.953 198.019C111.424 198.487 110.905 198.949 110.421 199.357L108.245 201.197L108.012 201.398L107.704 201.359L106.364 201.199ZM110.91 219.1L116.478 211.754C116.716 211.439 117.163 211.378 117.478 211.616C119.819 213.391 120.278 216.728 118.503 219.069C116.728 221.41 113.392 221.87 111.051 220.096C110.739 219.859 110.675 219.414 110.91 219.1ZM114.835 216.295L112.523 219.345C114.445 220.313 116.788 219.539 117.756 217.617C118.484 216.173 118.244 214.429 117.153 213.236L114.835 216.295ZM105.832 216.282C105.338 216.35 104.992 216.806 105.06 217.3C105.128 217.794 105.584 218.14 106.079 218.072C106.57 217.999 106.913 217.546 106.85 217.053C106.78 216.56 106.326 216.216 105.832 216.282ZM104.103 215.773C104.879 214.75 106.337 214.551 107.36 215.327C107.85 215.699 108.172 216.25 108.257 216.86C108.431 218.128 107.545 219.299 106.276 219.474C106.276 219.474 106.276 219.474 106.275 219.474C105.004 219.648 103.833 218.76 103.657 217.489C103.572 216.88 103.732 216.263 104.103 215.773ZM113.163 206.608C112.67 206.675 112.324 207.13 112.391 207.623C112.391 207.624 112.391 207.626 112.392 207.626C112.464 208.118 112.917 208.461 113.41 208.398C113.901 208.325 114.244 207.873 114.182 207.38C114.111 206.887 113.657 206.542 113.163 206.608ZM111.434 206.099C112.21 205.077 113.668 204.877 114.691 205.654C115.181 206.026 115.504 206.577 115.588 207.186C115.763 208.455 114.876 209.625 113.608 209.8C113.608 209.8 113.608 209.8 113.607 209.8C112.338 209.977 111.167 209.093 110.99 207.824C110.989 207.821 110.989 207.819 110.988 207.816C110.903 207.207 111.064 206.59 111.434 206.099ZM99.0316 198.929L106.52 199.802L107.559 199.916L109.482 198.268C109.969 197.856 110.478 197.406 110.994 196.948C112.141 195.932 113.347 194.865 114.465 194.056C115.034 193.64 115.686 193.353 116.376 193.214C118.293 192.835 120.255 193.607 121.4 195.189C121.815 195.764 122.1 196.421 122.236 197.116L123.933 205.596L131.308 210.148C132.024 210.576 132.619 211.18 133.036 211.902C133.911 213.488 133.865 215.422 132.917 216.965C132.479 217.673 131.867 218.258 131.139 218.662L123.584 222.926L121.538 231.331C121.332 232.204 120.889 233.003 120.259 233.641C119.022 234.888 117.227 235.402 115.518 234.999C114.652 234.789 113.861 234.345 113.23 233.717L106.981 227.964L98.3661 228.595C97.495 228.666 96.6207 228.503 95.8335 228.123C95.0499 227.74 94.3818 227.157 93.8954 226.432C93.4042 225.712 93.1093 224.875 93.0401 224.006C92.974 223.137 93.1411 222.266 93.5241 221.483L97.0902 213.711L93.8008 205.742C93.4651 204.941 93.3482 204.064 93.4624 203.202C93.5804 202.337 93.9251 201.517 94.4611 200.827C94.9937 200.137 95.6976 199.597 96.5025 199.262C97.3011 198.929 98.174 198.815 99.0316 198.929Z" fill="#98402F"/>
</g>
<defs>
<filter id="filter0_f_101_810" x="0" y="0.490967" width="498" height="508" filterUnits="userSpaceOnUse" color-interpolation-filters="sRGB">
<feFlood flood-opacity="0" result="BackgroundImageFix"/>
<feBlend mode="normal" in="SourceGraphic" in2="BackgroundImageFix" result="shape"/>
<feGaussianBlur stdDeviation="31.5" result="effect1_foregroundBlur_101_810"/>
</filter>
<clipPath id="clip0_101_810">
<rect width="72" height="72" fill="white" transform="translate(268.031 57.6245) rotate(10.319)"/>
</clipPath>
<clipPath id="clip1_101_810">
<rect width="81.1087" height="81.1087" fill="white" transform="translate(127.879 57.9392) rotate(-16.4286)"/>
</clipPath>
<clipPath id="clip2_101_810">
<rect width="42" height="42" fill="white" transform="translate(81.1371 217.101) rotate(-52.8422)"/>
</clipPath>
</defs>
</svg>
