<svg width="195" height="195" viewBox="0 0 195 195" fill="none" xmlns="http://www.w3.org/2000/svg">
<g clip-path="url(#clip0_25_2)">
<path d="M192.144 97.5C192.144 149.77 149.77 192.144 97.5 192.144C45.23 192.144 2.85645 149.77 2.85645 97.5C2.85645 45.23 45.23 2.85645 97.5 2.85645C149.77 2.85645 192.144 45.23 192.144 97.5Z" fill="white" fill-opacity="0.2"/>
<path d="M90.6758 161.456C98.4849 154.053 101.947 143.829 101.947 143.829L89.3606 133.143C89.3606 133.143 73.8942 103.43 73.9894 103.504C39.4576 63.3476 65.5257 8.90109 65.8217 8.28815C29.1343 21.3192 2.85645 56.3434 2.85645 97.5C2.85645 146.213 39.6659 186.331 86.9832 191.566C80.8181 182.228 82.224 169.466 90.6758 161.456Z" fill="white" fill-opacity="0.3"/>
<path d="M97.5 195C71.4573 195 46.9722 184.858 28.557 166.443C10.1419 148.028 0 123.543 0 97.5C0 75.312 7.26162 54.4078 20.9993 37.046C21.9783 35.8097 23.774 35.5999 25.0117 36.5789C26.2495 37.5578 26.4578 39.3535 25.4789 40.5913C12.5475 56.934 5.71289 76.6122 5.71289 97.5C5.71289 122.018 15.2597 145.067 32.5962 162.404C49.9327 179.74 72.9822 189.287 97.5 189.287C122.018 189.287 145.067 179.74 162.404 162.404C179.74 145.067 189.287 122.018 189.287 97.5C189.287 72.9822 179.74 49.9327 162.404 32.5962C145.067 15.2597 122.018 5.71289 97.5 5.71289C73.3482 5.71289 50.5457 15.0172 33.291 31.9104C32.1648 33.0128 30.3557 32.9949 29.2518 31.8672C28.1479 30.7395 28.1672 28.9319 29.2934 27.828C47.6223 9.883 71.8456 0 97.5 0C123.543 0 148.028 10.1419 166.443 28.557C184.858 46.9722 195 71.4573 195 97.5C195 123.543 184.858 148.028 166.443 166.443C148.028 184.858 123.543 195 97.5 195Z" fill="white"/>
<path d="M91.7157 151.229C88.0082 151.229 84.4957 150.03 81.5574 147.765L36.9418 113.349C33.4234 110.634 31.1709 106.711 30.6026 102.302C30.0328 97.8942 31.2156 93.5292 33.9292 90.0093C36.6443 86.4908 40.5674 84.2398 44.9756 83.67C49.3837 83.1017 53.7502 84.283 57.2687 86.9981L89.6938 112.011L135.549 61.2648C138.527 57.9665 142.614 56.0265 147.052 55.8018C151.491 55.5772 155.752 57.0932 159.05 60.0731C162.349 63.0531 164.289 67.1399 164.513 71.5792C164.738 76.0171 163.221 80.278 160.241 83.5763L152.629 91.9999C151.572 93.1707 149.765 93.2615 148.595 92.2037C147.425 91.1459 147.333 89.3398 148.391 88.1704L156.002 79.7469C160.041 75.2763 159.72 68.3211 155.22 64.3132C148.848 58.636 141.744 62.9281 139.787 65.0942L92.162 117.802C91.1622 118.908 89.4796 119.059 88.2984 118.148L53.7785 91.5208C51.4695 89.7385 43.3064 87.071 38.4534 93.498C33.6004 99.9265 38.1201 107.042 40.4306 108.825L85.0462 143.24C86.9758 144.73 89.2817 145.515 91.7157 145.515C94.8027 145.515 97.7603 144.203 99.8283 141.915L140.519 96.8811C141.577 95.7103 143.383 95.6195 144.554 96.6773C145.723 97.7336 145.816 99.5412 144.758 100.711L104.067 145.746C100.917 149.23 96.4154 151.229 91.7157 151.229Z" fill="white"/>
</g>
<defs>
<clipPath id="clip0_25_2">
<rect width="195" height="195" fill="white"/>
</clipPath>
</defs>
</svg>
