<svg width="350" height="375" viewBox="0 0 350 375" fill="none" xmlns="http://www.w3.org/2000/svg">
<g clip-path="url(#clip0_341_1379)">
<path d="M345.137 209.28C345.063 300.851 268.554 375.218 174.003 375.142C79.4524 375.065 3.06347 300.574 3.13759 209.003C3.21172 117.432 79.7212 43.0651 174.272 43.1417C268.823 43.2182 345.212 117.709 345.137 209.28Z" stroke="white" stroke-opacity="0.9" stroke-width="8"/>
<g clip-path="url(#clip1_341_1379)">
<path d="M154.147 335.981C154.147 264.546 75.413 188.513 167.098 192.897C175.668 193.307 161.053 154.667 171.383 159.443C239.908 191.123 167.835 131.791 191.075 155.347C199.533 163.92 198.193 167.653 203.848 181.434C210.089 196.641 262.624 187.785 268.433 209.526C272.159 223.473 235.438 254.933 230.448 281.751C225.097 310.512 240.211 332.154 240.211 346.675C240.211 440.078 227.55 418.094 179.167 418.094C130.784 418.094 154.147 429.383 154.147 335.981Z" fill="white" stroke="white" stroke-width="24" stroke-miterlimit="10" stroke-linejoin="round"/>
<path d="M208.317 43.558L258.929 10.146C258.929 10.146 259.762 23.201 255.291 39.999C250.82 56.797 241.931 71.569 241.931 71.569L208.317 43.558Z" fill="#B1777B" stroke="#2D2145" stroke-width="17.0485" stroke-miterlimit="10" stroke-linejoin="round"/>
<path d="M150.674 40.5871L108.752 11.4141C108.752 11.4141 109.487 31.6311 113.015 49.7981C116.543 67.9651 126.839 78.8881 126.839 78.8881L150.674 40.5871Z" fill="#B1777B" stroke="white" stroke-width="16.4976" stroke-miterlimit="10" stroke-linejoin="round"/>
<path fill-rule="evenodd" clip-rule="evenodd" d="M94.692 116.973C94.385 117.311 94.1826 117.706 94.0825 118.119C93.7634 118.419 93.4361 118.701 93.098 118.942C92.8756 119.101 92.6329 119.241 92.3887 119.383H92.3876C91.9044 119.663 91.4156 119.947 91.067 120.379C90.725 120.804 90.404 121.271 90.223 121.785C90.052 122.271 89.97 122.811 90.067 123.317C90.19 123.958 90.449 124.581 90.848 125.098C91.1299 125.462 91.5882 125.673 92.0089 125.866L92.036 125.879C93.554 126.578 96.001 125.482 97.411 124.848C97.5538 124.783 97.6963 124.718 97.8384 124.653C99.4604 124.49 101.077 124.288 102.691 124.066L102.755 124.067C102.742 124.08 102.729 124.093 102.716 124.106L102.703 124.118L102.686 124.135L102.671 124.15L102.661 124.161C102.519 124.31 102.379 124.455 102.24 124.598C101.962 124.886 101.688 125.168 101.411 125.473C100.812 126.131 100.119 126.921 99.567 127.567C98.705 128.576 98.237 129.159 97.442 130.192L97.3242 130.344C96.8915 130.904 96.3619 131.589 96.0033 132.314C95.7037 132.563 95.2514 132.959 95.129 133.192C95.0912 133.264 95.0512 133.336 95.0109 133.409C94.8188 133.757 94.6208 134.115 94.629 134.504C94.645 135.201 94.868 135.936 95.223 136.535C95.4361 136.894 95.8154 137.109 96.1836 137.317C96.2389 137.348 96.2939 137.379 96.348 137.411C96.7247 137.628 97.2065 137.682 97.6841 137.669C98.027 137.873 98.4221 138.002 98.848 138.035C100.309 138.148 101.778 138.103 103.249 138.025C103.531 138.087 103.827 138.103 104.129 138.067C104.461 138.027 104.795 137.976 105.131 137.918C106.657 137.833 108.181 137.772 109.694 137.876C110.459 138.117 111.217 138.375 111.962 138.661C112.415 139.626 113.437 140.249 114.567 140.161C115.035 140.27 115.378 140.349 115.632 140.407C116.395 140.859 117.135 141.366 117.848 141.942C118.243 142.259 118.7 142.45 119.169 142.521C119.491 142.656 119.827 142.755 120.181 142.819C127.796 152.064 137.301 160.097 148.525 165.581L148.399 165.651C147.323 166.247 146.247 166.843 145.442 167.817C144.52 168.931 143.94 170.526 145.161 171.661C146.162 172.591 147.68 172.159 148.831 171.831L148.879 171.817C148.941 171.8 149.002 171.778 149.062 171.756C149.126 171.733 149.19 171.71 149.255 171.692C149.33 171.703 149.395 171.721 149.462 171.739C149.524 171.756 149.588 171.773 149.661 171.785C151.732 172.118 153.82 172.159 155.821 171.78C155.824 171.875 155.827 171.968 155.83 172.062C155.851 172.671 155.871 173.262 155.817 173.785C155.763 174.306 155.587 174.853 155.421 175.366V175.367C155.385 175.477 155.35 175.586 155.317 175.692C155.042 176.573 154.753 177.451 154.465 178.329L154.463 178.336C154.372 178.611 154.282 178.886 154.192 179.161C154.093 179.465 153.951 179.77 153.807 180.077C153.467 180.807 153.119 181.554 153.317 182.348C153.443 182.852 153.748 183.296 154.192 183.567C154.212 183.579 154.537 183.726 154.629 183.754C154.636 183.756 154.652 183.764 154.666 183.772C154.679 183.78 154.691 183.786 154.692 183.785C154.693 183.782 154.693 183.778 154.693 183.774L154.692 183.77C154.691 183.764 154.69 183.759 154.692 183.754C154.745 183.782 155.016 183.845 155.255 183.848C156.798 183.866 157.702 182.087 158.301 180.908L158.379 180.754C159.211 179.127 159.163 178.478 159.012 176.471L159.005 176.379C159.059 176.2 159.118 176.022 159.177 175.844L159.178 175.841V175.84C159.358 175.294 159.537 174.748 159.598 174.192C159.669 173.548 159.63 172.902 159.591 172.256C159.556 171.67 159.52 171.085 159.567 170.504C159.648 170.46 159.725 170.413 159.8 170.361C159.933 170.287 160.066 170.21 160.197 170.131C166.927 172.125 174.151 173.23 181.842 173.23C203.179 173.23 232.493 152.856 247.182 138.31C250.438 135.086 260.899 134.342 260.899 134.342C260.899 134.342 248.724 124.861 251.144 120.553C252.887 117.45 266.051 120.94 266.051 120.94C266.051 120.94 259.351 110.408 257.783 106.955C256.874 104.953 255.6 103.087 254.258 101.122C251.849 97.5939 249.219 93.7438 248.084 88.205C246.535 80.6464 246.817 75.6186 247.03 71.806C247.21 68.5827 247.342 66.228 246.278 63.947C240.027 50.542 219.644 37.029 205.869 31.791C204.617 31.3147 201.977 28.0858 198.689 24.0632C192.651 16.6763 184.425 6.61247 178.581 6C178.581 6 182.782 34.726 178.405 32.516C175.445 31.0215 172.185 28.9002 168.896 26.7592C162.172 22.3835 155.322 17.9251 150.639 18.565C150.639 18.565 168.55 29.526 158.404 33.319C143.525 38.881 122.475 51.437 115.807 64.703C114.747 66.8128 115.333 69.1941 116.064 72.1616C117.036 76.1071 118.263 81.0889 116.214 87.847C116.176 87.9727 116.137 88.0979 116.097 88.2228C115.027 89.6527 113.983 91.1021 113.005 92.598C111.435 94.9966 110.006 97.4794 108.576 99.9622C107.962 101.028 107.348 102.094 106.723 103.154C102.769 107.808 98.7947 112.442 94.692 116.973ZM115.14 140.125L115.102 140.123C115.005 140.118 114.916 140.113 114.973 140.129C115.087 140.161 115.201 140.192 115.314 140.223L115.286 140.207C115.252 140.188 115.218 140.169 115.184 140.15L115.14 140.125ZM286.455 258L297 329.261L268.377 410L261.849 385.985V325.535L245 258H286.455ZM211.098 166.473C210.961 165.442 211.66 164.485 212.692 164.348C213.724 164.211 214.68 164.941 214.817 165.973C215.071 167.834 215.37 169.689 215.67 171.545C215.938 173.207 216.207 174.869 216.442 176.535C216.591 177.625 215.843 178.636 214.755 178.785C213.665 178.935 212.654 178.156 212.505 177.067C212.345 175.862 212.184 174.658 212.023 173.453C211.712 171.127 211.401 168.802 211.098 166.473ZM91.4897 308.301C103.746 313.789 117.5 274.725 117.5 274.725H116.415L112 247.5L107.37 263.421L94.5042 238.868C94.5042 238.868 78.2943 206.871 76.008 197.7C76.987 194.701 78.388 190.907 79.8763 186.876C84.5974 174.089 90.1967 158.925 85.9873 159.222C83.9321 159.367 82.1469 160.954 80.2584 162.633C77.0588 165.477 73.5625 168.585 67.9537 165.394C63.2184 162.7 59.6422 152.875 56.6965 144.782C54.0937 137.631 51.9831 131.832 50 133.5C47.9956 135.185 48.4417 140.759 48.9092 146.6C49.4278 153.079 49.9728 159.887 47.2292 162.084C43.9501 164.711 38.8978 157.958 34.2782 151.784C31.5497 148.137 28.9721 144.692 27 143.5C24.41 141.935 27.3268 148.708 30.8199 156.819C34.4899 165.34 38.796 175.339 38.021 178.698C37.146 182.495 31.2436 177.806 26.5254 174.059C23.0943 171.333 20.2895 169.105 20.5 171C24.5 185 56 208.5 56 208.5C52 210 72.5328 299.814 91.4897 308.301Z" fill="white"/>
<path d="M94.0825 118.119L96.2669 120.443C96.7184 120.019 97.0365 119.473 97.1825 118.87L94.0825 118.119ZM94.692 116.973L97.0541 119.117L97.0565 119.114L94.692 116.973ZM92.3887 119.383L90.7895 116.623C90.7755 116.631 90.7615 116.639 90.7476 116.647L92.3887 119.383ZM92.3876 119.383L93.9869 122.143C94.0009 122.135 94.0148 122.127 94.0287 122.119L92.3876 119.383ZM91.067 120.379L88.584 118.377L88.5819 118.379L91.067 120.379ZM90.223 121.785L87.2143 120.725L87.214 120.726L90.223 121.785ZM90.067 123.317L86.9342 123.917L86.9343 123.918L90.067 123.317ZM90.848 125.098L88.3228 127.047L88.3258 127.051L90.848 125.098ZM92.0089 125.866L90.6757 128.764C90.7247 128.787 90.7742 128.808 90.8242 128.828L92.0089 125.866ZM92.0089 125.866L93.3417 122.968C93.2929 122.946 93.2435 122.925 93.1937 122.905L92.0089 125.866ZM92.036 125.879L93.3702 122.981H93.3686L92.036 125.879ZM97.411 124.848L98.7191 127.757L98.7217 127.756L97.411 124.848ZM97.8384 124.653L97.5201 121.479C97.1665 121.514 96.8213 121.609 96.4988 121.758L97.8384 124.653ZM102.691 124.066L102.728 120.877C102.571 120.875 102.413 120.885 102.258 120.906L102.691 124.066ZM102.755 124.067L105.046 126.287C105.933 125.372 106.19 124.016 105.699 122.84C105.209 121.664 104.066 120.892 102.792 120.877L102.755 124.067ZM102.716 124.106L104.926 126.405L104.932 126.4L102.716 124.106ZM102.716 124.106L100.504 121.807L100.497 121.814L102.716 124.106ZM102.703 124.118L100.485 121.825C100.478 121.832 100.471 121.839 100.464 121.846L102.703 124.118ZM102.686 124.135L100.447 121.863C100.432 121.878 100.417 121.892 100.403 121.907L102.686 124.135ZM102.671 124.15L100.388 121.923C100.37 121.941 100.353 121.959 100.335 121.978L102.671 124.15ZM102.661 124.161L104.97 126.361C104.979 126.352 104.988 126.343 104.997 126.333L102.661 124.161ZM97.442 130.192L99.9669 132.141L99.9699 132.137L97.442 130.192ZM97.3242 130.344L99.8478 132.295L99.8491 132.294L97.3242 130.344ZM96.0033 132.314L98.0383 134.771C98.3832 134.485 98.6641 134.13 98.8626 133.728L96.0033 132.314ZM95.129 133.192L92.3057 131.707L92.3036 131.711L95.129 133.192ZM95.0109 133.409L92.219 131.866V131.867L95.0109 133.409ZM94.629 134.504L91.44 134.572L91.4401 134.577L94.629 134.504ZM95.223 136.535L92.479 138.161L92.4796 138.162L95.223 136.535ZM96.348 137.411L94.7458 140.169L94.7536 140.174L96.348 137.411ZM97.6841 137.669L99.3137 134.927C98.7943 134.618 98.1979 134.463 97.5939 134.48L97.6841 137.669ZM98.848 138.035L99.0946 134.855H99.0929L98.848 138.035ZM103.249 138.025L103.934 134.91C103.654 134.848 103.367 134.825 103.081 134.84L103.249 138.025ZM104.129 138.067L103.75 134.9H103.749L104.129 138.067ZM105.131 137.918L104.953 134.733C104.83 134.74 104.708 134.754 104.586 134.775L105.131 137.918ZM109.694 137.876L110.653 134.834C110.413 134.758 110.165 134.711 109.914 134.694L109.694 137.876ZM111.962 138.661L114.849 137.305C114.499 136.559 113.874 135.978 113.105 135.683L111.962 138.661ZM114.567 140.161L115.291 137.054C114.973 136.98 114.646 136.955 114.32 136.981L114.567 140.161ZM115.632 140.407L117.257 137.662C116.973 137.494 116.665 137.372 116.344 137.298L115.632 140.407ZM117.848 141.942L115.842 144.422L115.853 144.431L117.848 141.942ZM119.169 142.521L120.399 139.578C120.158 139.477 119.906 139.407 119.648 139.367L119.169 142.521ZM120.181 142.819L122.644 140.791C122.163 140.207 121.49 139.813 120.745 139.679L120.181 142.819ZM148.525 165.581L150.072 168.37C151.112 167.794 151.745 166.686 151.714 165.498C151.683 164.309 150.993 163.237 149.925 162.715L148.525 165.581ZM148.399 165.651L149.945 168.441L149.946 168.44L148.399 165.651ZM145.442 167.817L147.899 169.851L147.9 169.85L145.442 167.817ZM145.161 171.661L142.989 173.997L142.99 173.998L145.161 171.661ZM148.879 171.817L148.009 168.748L148.006 168.749L148.879 171.817ZM149.255 171.692L149.709 168.535C149.274 168.472 148.831 168.5 148.407 168.617L149.255 171.692ZM149.661 171.785L150.168 168.636H150.165L149.661 171.785ZM155.821 171.78L159.009 171.682C158.981 170.75 158.545 169.877 157.818 169.293C157.091 168.709 156.145 168.473 155.229 168.646L155.821 171.78ZM155.83 172.062L159.018 171.955V171.954L155.83 172.062ZM155.421 175.366L152.386 174.386C152.369 174.436 152.354 174.486 152.341 174.537L155.421 175.366ZM155.421 175.367L158.456 176.347C158.472 176.297 158.487 176.247 158.501 176.196L155.421 175.367ZM155.317 175.692L152.272 174.741V174.742L155.317 175.692ZM154.465 178.329L151.435 177.333L151.434 177.336L154.465 178.329ZM154.463 178.336L157.493 179.332L157.494 179.329L154.463 178.336ZM154.192 179.161L151.16 178.17V178.171L154.192 179.161ZM154.192 183.567L152.53 186.29C152.537 186.293 152.543 186.297 152.549 186.301L154.192 183.567ZM154.629 183.754L153.7 186.806C153.717 186.81 153.733 186.815 153.749 186.82L154.629 183.754ZM154.666 183.772L153.127 186.567C153.164 186.587 153.201 186.606 153.239 186.625L154.666 183.772ZM154.666 183.772L156.203 180.977C156.167 180.957 156.13 180.938 156.092 180.919L154.666 183.772ZM154.692 183.785L157.715 184.803L157.718 184.794L154.692 183.785ZM154.693 183.774L157.863 183.426C157.861 183.408 157.859 183.389 157.857 183.371L154.693 183.774ZM154.692 183.77L157.856 183.366C157.854 183.352 157.853 183.339 157.851 183.325L154.692 183.77ZM154.692 183.754L156.182 180.934C155.34 180.488 154.342 180.443 153.463 180.811C152.583 181.178 151.914 181.919 151.639 182.831L154.692 183.754ZM155.255 183.848L155.215 187.037H155.217L155.255 183.848ZM158.301 180.908L155.458 179.461L155.457 179.463L158.301 180.908ZM158.379 180.754L155.539 179.301L155.536 179.307L158.379 180.754ZM159.005 176.379L155.954 175.449C155.839 175.827 155.795 176.223 155.824 176.617L159.005 176.379ZM159.177 175.844L156.15 174.835L156.146 174.847L159.177 175.844ZM159.177 175.844L162.203 176.852C162.207 176.841 162.21 176.83 162.214 176.82L159.177 175.844ZM159.178 175.841L156.143 174.859L156.141 174.865L159.178 175.841ZM159.178 175.84L156.148 174.844C156.146 174.849 156.145 174.855 156.143 174.859L159.178 175.84ZM159.591 172.256H156.401C156.401 172.32 156.403 172.384 156.407 172.448L159.591 172.256ZM159.591 172.256H162.781C162.781 172.192 162.779 172.128 162.775 172.064L159.591 172.256ZM159.567 170.504L158.049 167.699C157.099 168.213 156.474 169.172 156.387 170.249L159.567 170.504ZM159.8 170.361L158.253 167.571C158.16 167.623 158.069 167.68 157.981 167.741L159.8 170.361ZM160.197 170.131L161.104 167.073C160.245 166.818 159.318 166.937 158.551 167.399L160.197 170.131ZM260.899 134.342L261.125 137.524C262.443 137.43 263.566 136.534 263.951 135.27C264.335 134.007 263.901 132.637 262.859 131.825L260.899 134.342ZM266.051 120.94L265.234 124.023C266.503 124.36 267.85 123.884 268.625 122.824C269.401 121.763 269.447 120.336 268.742 119.228L266.051 120.94ZM178.581 5.99987L178.913 2.82745C177.934 2.7248 176.962 3.08036 176.28 3.79082C175.598 4.50128 175.282 5.48696 175.425 6.46145L178.581 5.99987ZM150.639 18.5649L150.207 15.4045C148.871 15.5871 147.794 16.5903 147.517 17.9103C147.24 19.2303 147.824 20.5817 148.974 21.2857L150.639 18.5649ZM116.097 88.2227L118.651 90.1343C118.865 89.8483 119.03 89.5284 119.138 89.1879L116.097 88.2227ZM108.576 99.9621L105.812 98.3702C105.799 98.3915 105.787 98.413 105.776 98.4346L108.576 99.9621ZM108.576 99.9621L111.34 101.555C111.352 101.533 111.364 101.512 111.376 101.49L108.576 99.9621ZM106.723 103.154L109.154 105.219C109.272 105.08 109.378 104.931 109.47 104.774L106.723 103.154ZM115.102 140.123L115.272 136.938C115.216 136.935 115.159 136.933 115.102 136.933V140.123ZM115.14 140.125L116.691 137.338C116.267 137.102 115.795 136.966 115.31 136.94L115.14 140.125ZM115.102 140.123L114.929 143.308C114.987 143.311 115.044 143.313 115.102 143.313L115.102 140.123ZM114.973 140.129L115.842 137.06C115.837 137.058 115.832 137.057 115.827 137.056L114.973 140.129ZM115.314 140.223L114.484 143.303C116.035 143.721 117.655 142.921 118.265 141.435C118.875 139.948 118.285 138.24 116.887 137.448L115.314 140.223ZM115.286 140.207L116.859 137.432L116.856 137.431L115.286 140.207ZM115.184 140.15L116.739 137.364L116.735 137.362L115.184 140.15ZM297 329.261L300.006 330.327C300.181 329.836 300.232 329.31 300.155 328.794L297 329.261ZM286.455 258L289.61 257.533C289.379 255.969 288.036 254.81 286.455 254.81V258ZM268.377 410L265.299 410.837C265.665 412.183 266.863 413.135 268.257 413.188C269.651 413.24 270.917 412.381 271.383 411.066L268.377 410ZM261.849 385.985H258.659C258.659 386.268 258.696 386.549 258.771 386.822L261.849 385.985ZM261.849 325.535H265.038C265.038 325.275 265.007 325.015 264.944 324.763L261.849 325.535ZM245 258V254.81C244.018 254.81 243.091 255.262 242.486 256.036C241.882 256.81 241.667 257.819 241.905 258.772L245 258ZM211.098 166.473L214.261 166.061L214.26 166.053L211.098 166.473ZM214.817 165.973L211.655 166.393L211.656 166.404L214.817 165.973ZM216.442 176.535L219.602 176.103C219.602 176.098 219.601 176.094 219.6 176.089L216.442 176.535ZM214.755 178.785L214.322 175.625H214.32L214.755 178.785ZM212.505 177.067L209.343 177.487L209.345 177.499L212.505 177.067ZM117.5 274.725L120.509 275.784C120.852 274.808 120.701 273.726 120.103 272.882C119.505 272.037 118.535 271.535 117.5 271.535V274.725ZM116.415 274.725L113.267 275.236C113.517 276.78 114.851 277.915 116.415 277.915V274.725ZM112 247.5L115.149 246.989C114.91 245.517 113.683 244.407 112.195 244.316C110.706 244.225 109.354 245.177 108.937 246.609L112 247.5ZM107.37 263.421L104.545 264.901C105.149 266.054 106.393 266.724 107.688 266.594C108.984 266.465 110.07 265.561 110.433 264.311L107.37 263.421ZM94.5042 238.868L91.6587 240.31C91.6653 240.323 91.672 240.336 91.6788 240.349L94.5042 238.868ZM76.008 197.7L72.9757 196.71C72.7898 197.28 72.768 197.89 72.913 198.472L76.008 197.7ZM20.5 171L17.3297 171.352C17.3494 171.53 17.384 171.705 17.433 171.876L20.5 171ZM56 208.5L57.12 211.487C58.2124 211.077 58.9941 210.104 59.1581 208.948C59.3222 207.793 58.8425 206.641 57.9074 205.943L56 208.5ZM97.1825 118.87C97.1593 118.966 97.1126 119.052 97.0541 119.117L92.3299 114.829C91.6574 115.57 91.2058 116.446 90.9825 117.367L97.1825 118.87ZM94.9509 121.538C95.4458 121.185 95.8872 120.8 96.2669 120.443L91.8981 115.794C91.6396 116.037 91.4264 116.216 91.245 116.345L94.9509 121.538ZM93.988 122.143C94.2074 122.015 94.5842 121.8 94.9509 121.538L91.245 116.345C91.1669 116.401 91.0584 116.467 90.7895 116.623L93.988 122.143ZM94.0298 122.118L90.7476 116.647L90.7475 116.648L94.0298 122.118ZM94.0287 122.119L94.0298 122.118L90.7475 116.648L94.0287 122.119ZM93.55 122.381C93.4817 122.466 93.4441 122.481 93.5178 122.429C93.5536 122.404 93.6062 122.369 93.6868 122.32C93.7706 122.269 93.8609 122.216 93.9869 122.143L90.7883 116.623C90.4037 116.846 89.3677 117.405 88.584 118.377L93.55 122.381ZM93.2317 122.844C93.2277 122.856 93.2386 122.821 93.2932 122.733C93.3483 122.645 93.4298 122.531 93.5521 122.379L88.5819 118.379C88.1625 118.9 87.5748 119.702 87.2143 120.725L93.2317 122.844ZM93.1997 122.716C93.2216 122.83 93.2144 122.899 93.2135 122.907C93.2125 122.916 93.2143 122.893 93.2317 122.844L87.214 120.726C86.9183 121.567 86.7003 122.697 86.9342 123.917L93.1997 122.716ZM93.3732 123.149C93.3186 123.078 93.2414 122.933 93.1997 122.716L86.9343 123.918C87.1386 124.983 87.5794 126.084 88.3228 127.047L93.3732 123.149ZM93.3421 122.969C93.2879 122.944 93.2449 122.924 93.2034 122.904C93.163 122.886 93.1308 122.87 93.1035 122.857C93.0471 122.829 93.0268 122.816 93.0273 122.817C93.0283 122.817 93.067 122.841 93.1261 122.89C93.1864 122.94 93.2757 123.023 93.3702 123.145L88.3258 127.051C89.1744 128.147 90.4265 128.65 90.6757 128.764L93.3421 122.969ZM93.3686 122.981L93.3417 122.968L90.6764 128.765L90.7033 128.777L93.3686 122.981ZM96.1029 121.939C95.3709 122.268 94.6264 122.595 93.927 122.785C93.5876 122.877 93.3551 122.909 93.2195 122.914C93.0801 122.918 93.1699 122.889 93.3702 122.981L90.7018 128.776C92.5347 129.62 94.4748 129.248 95.601 128.941C96.857 128.6 98.0411 128.062 98.7191 127.757L96.1029 121.939ZM96.4988 121.758C96.3657 121.819 96.2329 121.88 96.1002 121.94L98.7217 127.756C98.8748 127.687 99.0268 127.617 99.1779 127.548L96.4988 121.758ZM102.258 120.906C100.667 121.124 99.0913 121.321 97.5201 121.479L98.1567 127.827C99.8296 127.659 101.487 127.451 103.125 127.226L102.258 120.906ZM102.792 120.877H102.728L102.655 127.256H102.718L102.792 120.877ZM104.932 126.4C104.939 126.393 104.99 126.344 105.046 126.287L100.464 121.847C100.482 121.829 100.495 121.816 100.5 121.811C100.503 121.808 100.504 121.806 100.504 121.807C100.503 121.807 100.503 121.808 100.499 121.812L104.932 126.4ZM104.926 126.406L104.926 126.405L100.505 121.806L100.504 121.807L104.926 126.406ZM104.921 126.41L104.933 126.399L100.497 121.814L100.485 121.825L104.921 126.41ZM104.926 126.406L104.943 126.389L100.464 121.846L100.447 121.863L104.926 126.406ZM104.954 126.377L104.969 126.362L100.403 121.907L100.388 121.923L104.954 126.377ZM104.997 126.333L105.007 126.322L100.335 121.978L100.325 121.989L104.997 126.333ZM104.532 126.817C104.67 126.674 104.818 126.521 104.97 126.361L100.352 121.96C100.22 122.099 100.088 122.235 99.9476 122.38L104.532 126.817ZM103.77 127.62C104.009 127.357 104.249 127.109 104.532 126.817L99.9476 122.38C99.6744 122.662 99.3673 122.979 99.0521 123.326L103.77 127.62ZM101.992 129.639C102.526 129.014 103.197 128.249 103.77 127.62L99.0521 123.326C98.427 124.012 97.7118 124.828 97.1419 125.495L101.992 129.639ZM99.9699 132.137C100.736 131.141 101.17 130.601 101.992 129.639L97.1419 125.495C96.2402 126.55 95.7377 127.176 94.9141 128.246L99.9699 132.137ZM99.8491 132.294L99.9669 132.141L94.9171 128.243L94.7992 128.395L99.8491 132.294ZM98.8626 133.728C99.0564 133.336 99.3811 132.899 99.8478 132.295L94.8005 128.394C94.402 128.909 93.6673 129.842 93.144 130.901L98.8626 133.728ZM97.9524 134.676C97.9101 134.757 97.8709 134.821 97.8401 134.869C97.809 134.918 97.7816 134.957 97.7607 134.985C97.7203 135.04 97.6904 135.075 97.6798 135.087C97.6679 135.101 97.6641 135.104 97.6713 135.097C97.6779 135.09 97.6902 135.078 97.709 135.06C97.7476 135.023 97.7983 134.976 97.859 134.923C97.9187 134.871 97.9803 134.819 98.0383 134.771L93.9683 129.858C93.7926 130.004 93.5372 130.221 93.2905 130.458C93.1506 130.592 92.6386 131.074 92.3057 131.707L97.9524 134.676ZM97.8027 134.952C97.84 134.885 97.8974 134.781 97.9544 134.672L92.3036 131.711C92.285 131.747 92.2623 131.788 92.219 131.866L97.8027 134.952ZM97.8181 134.436C97.826 134.809 97.7318 135.062 97.7074 135.124C97.6943 135.156 97.6896 135.163 97.7069 135.129C97.7263 135.091 97.7507 135.046 97.8027 134.952L92.219 131.867C92.1231 132.04 91.4101 133.17 91.44 134.572L97.8181 134.436ZM97.9671 134.909C97.8725 134.749 97.8206 134.545 97.818 134.431L91.4401 134.577C91.4695 135.857 91.8636 137.123 92.479 138.161L97.9671 134.909ZM97.7547 134.541C97.6555 134.485 97.6053 134.456 97.5633 134.431C97.5252 134.408 97.5267 134.407 97.549 134.423C97.5913 134.455 97.7884 134.607 97.9664 134.907L92.4796 138.162C93.2027 139.381 94.4099 139.978 94.6127 140.093L97.7547 134.541ZM97.9502 134.653C97.8778 134.611 97.8069 134.57 97.7547 134.541L94.6127 140.093C94.671 140.126 94.7099 140.148 94.7458 140.169L97.9502 134.653ZM97.5939 134.48C97.4951 134.483 97.4772 134.476 97.5176 134.482C97.5574 134.489 97.7237 134.522 97.9424 134.648L94.7536 140.174C95.8978 140.834 97.0963 140.876 97.7742 140.857L97.5939 134.48ZM99.0929 134.855C99.1635 134.86 99.2413 134.884 99.3137 134.927L96.0544 140.411C96.8128 140.861 97.6808 141.145 98.6032 141.216L99.0929 134.855ZM103.081 134.84C101.64 134.916 100.34 134.951 99.0946 134.855L98.6015 141.215C100.277 141.345 101.917 141.29 103.418 141.21L103.081 134.84ZM103.749 134.9C103.807 134.893 103.871 134.896 103.934 134.91L102.564 141.14C103.19 141.278 103.847 141.314 104.509 141.234L103.749 134.9ZM104.586 134.775C104.291 134.826 104.013 134.868 103.75 134.9L104.508 141.234C104.909 141.186 105.3 141.126 105.675 141.061L104.586 134.775ZM109.914 134.694C108.188 134.575 106.493 134.647 104.953 134.733L105.309 141.103C106.822 141.018 108.175 140.969 109.474 141.058L109.914 134.694ZM113.105 135.683C112.285 135.369 111.464 135.089 110.653 134.834L108.736 140.919C109.455 141.145 110.148 141.382 110.82 141.639L113.105 135.683ZM114.32 136.981C114.525 136.965 114.744 137.081 114.849 137.305L109.075 140.018C110.087 142.171 112.349 143.533 114.814 143.341L114.32 136.981ZM116.344 137.298C116.095 137.241 115.757 137.163 115.291 137.054L113.843 143.267C114.314 143.377 114.661 143.457 114.921 143.517L116.344 137.298ZM119.853 139.461C119.011 138.78 118.142 138.186 117.257 137.662L114.007 143.152C114.648 143.531 115.259 143.951 115.842 144.422L119.853 139.461ZM119.648 139.367C119.715 139.378 119.786 139.407 119.843 139.453L115.853 144.431C116.701 145.11 117.685 145.522 118.691 145.675L119.648 139.367ZM120.745 139.679C120.619 139.657 120.506 139.623 120.399 139.578L117.94 145.465C118.476 145.688 119.035 145.854 119.618 145.958L120.745 139.679ZM149.925 162.715C139.167 157.458 130.01 149.736 122.644 140.791L117.719 144.846C125.581 154.393 135.434 162.735 147.125 168.447L149.925 162.715ZM149.946 168.44L150.072 168.37L146.978 162.791L146.851 162.861L149.946 168.44ZM147.9 169.85C148.259 169.416 148.784 169.085 149.945 168.441L146.852 162.861C145.862 163.41 144.235 164.271 142.984 165.784L147.9 169.85ZM147.333 169.325C147.408 169.395 147.53 169.549 147.602 169.78C147.671 169.997 147.659 170.164 147.648 170.23C147.64 170.286 147.633 170.267 147.68 170.176C147.725 170.087 147.798 169.973 147.899 169.851L142.985 165.783C142.302 166.608 141.574 167.802 141.347 169.233C141.095 170.829 141.508 172.62 142.989 173.997L147.333 169.325ZM147.957 168.763C147.657 168.848 147.431 168.912 147.211 168.962C146.995 169.01 146.858 169.028 146.778 169.032C146.699 169.036 146.743 169.023 146.863 169.057C147.003 169.096 147.179 169.182 147.332 169.324L142.99 173.998C144.348 175.26 145.961 175.461 147.101 175.403C148.175 175.349 149.194 175.044 149.704 174.899L147.957 168.763ZM148.006 168.749L147.957 168.763L149.704 174.899L149.753 174.885L148.006 168.749ZM147.984 168.754C147.976 168.757 147.969 168.759 147.963 168.761C147.958 168.763 147.954 168.765 147.95 168.766C147.944 168.768 147.942 168.769 147.944 168.768C147.946 168.768 147.952 168.764 147.963 168.761C147.974 168.758 147.989 168.754 148.009 168.748L149.749 174.886C149.934 174.833 150.098 174.773 150.142 174.758L147.984 168.754ZM148.407 168.617C148.206 168.673 148.027 168.738 147.984 168.754L150.142 174.758C150.159 174.752 150.167 174.748 150.175 174.746C150.182 174.743 150.183 174.743 150.18 174.744C150.177 174.745 150.169 174.748 150.156 174.752C150.144 174.756 150.125 174.761 150.103 174.767L148.407 168.617ZM150.303 168.662C150.254 168.649 150.007 168.578 149.709 168.535L148.801 174.85C148.721 174.838 148.658 174.824 148.624 174.816C148.608 174.812 148.597 174.81 148.597 174.809C148.597 174.809 148.598 174.81 148.602 174.811C148.607 174.812 148.612 174.813 148.62 174.816L150.303 168.662ZM150.165 168.636C150.231 168.646 150.281 168.657 150.308 168.664C150.32 168.667 150.328 168.669 150.327 168.669C150.325 168.668 150.321 168.667 150.303 168.662L148.62 174.816C148.671 174.83 148.89 174.892 149.157 174.935L150.165 168.636ZM155.229 168.646C153.663 168.942 151.954 168.923 150.168 168.636L149.154 174.934C151.509 175.313 153.978 175.375 156.413 174.915L155.229 168.646ZM159.018 171.954C159.015 171.861 159.012 171.771 159.009 171.682L152.633 171.879C152.636 171.978 152.639 172.076 152.642 172.169L159.018 171.954ZM158.99 174.111C159.07 173.33 159.037 172.507 159.018 171.955L152.642 172.169C152.665 172.835 152.671 173.194 152.644 173.46L158.99 174.111ZM158.456 176.347C158.599 175.906 158.896 175.028 158.99 174.111L152.644 173.459C152.631 173.584 152.575 173.801 152.386 174.386L158.456 176.347ZM158.362 176.642C158.39 176.554 158.42 176.46 158.456 176.347L152.385 174.386C152.351 174.494 152.311 174.617 152.272 174.741L158.362 176.642ZM157.495 179.325C157.783 178.451 158.079 177.55 158.362 176.642L152.272 174.742C152.005 175.597 151.724 176.451 151.435 177.333L157.495 179.325ZM157.494 179.329L157.496 179.322L151.434 177.336L151.431 177.343L157.494 179.329ZM157.224 180.152C157.313 179.88 157.402 179.607 157.493 179.332L151.432 177.34C151.342 177.615 151.251 177.892 151.16 178.17L157.224 180.152ZM156.698 181.426C156.824 181.154 157.054 180.672 157.224 180.152L151.16 178.171C151.131 178.259 151.077 178.385 150.916 178.729L156.698 181.426ZM156.412 181.575C156.445 181.71 156.452 181.833 156.447 181.926C156.443 182.014 156.429 182.058 156.433 182.042C156.438 182.024 156.455 181.97 156.502 181.859C156.55 181.743 156.608 181.618 156.698 181.426L150.916 178.729C150.681 179.232 149.703 181.043 150.222 183.121L156.412 181.575ZM155.854 180.844C156.189 181.049 156.353 181.343 156.412 181.575L150.222 183.121C150.533 184.362 151.307 185.543 152.53 186.29L155.854 180.844ZM155.558 180.702C155.609 180.718 155.648 180.731 155.668 180.738C155.69 180.746 155.707 180.752 155.715 180.756C155.732 180.762 155.739 180.765 155.734 180.763C155.722 180.758 155.698 180.748 155.664 180.733C155.632 180.719 155.602 180.706 155.584 180.697C155.575 180.693 155.575 180.693 155.583 180.697C155.586 180.698 155.601 180.705 155.621 180.715C155.631 180.72 155.651 180.73 155.676 180.743C155.689 180.75 155.708 180.76 155.73 180.773C155.751 180.784 155.789 180.805 155.835 180.833L152.549 186.301C152.631 186.35 152.697 186.385 152.714 186.394C152.741 186.408 152.764 186.419 152.777 186.426C152.805 186.44 152.828 186.451 152.842 186.458C152.872 186.472 152.902 186.486 152.927 186.497C152.979 186.521 153.04 186.548 153.103 186.576C153.139 186.592 153.435 186.725 153.7 186.806L155.558 180.702ZM156.204 180.978C156.201 180.976 156.188 180.969 156.174 180.962C156.16 180.954 156.134 180.94 156.103 180.924C156.075 180.909 156.02 180.882 155.95 180.85C155.905 180.83 155.736 180.753 155.509 180.688L153.749 186.82C153.622 186.784 153.523 186.747 153.467 186.724C153.405 186.7 153.355 186.678 153.322 186.663C153.257 186.634 153.208 186.609 153.186 186.598C153.145 186.577 153.112 186.558 153.127 186.567L156.204 180.978ZM151.669 182.767C152.106 181.47 153.163 180.892 153.865 180.704C154.455 180.546 154.937 180.601 155.101 180.622C155.476 180.67 155.755 180.777 155.806 180.796C155.978 180.861 156.107 180.927 156.119 180.933C156.178 180.963 156.231 180.993 156.203 180.977L153.128 186.567C153.129 186.568 153.143 186.575 153.158 186.583C153.17 186.59 153.205 186.609 153.249 186.631C153.266 186.639 153.399 186.707 153.574 186.773C153.626 186.792 153.906 186.9 154.281 186.948C154.446 186.97 154.928 187.024 155.518 186.866C156.22 186.678 157.278 186.1 157.715 184.803L151.669 182.767ZM151.522 184.122C151.513 184.046 151.498 183.879 151.505 183.666C151.513 183.449 151.546 183.135 151.666 182.776L157.718 184.794C157.946 184.109 157.875 183.533 157.863 183.426L151.522 184.122ZM151.528 184.174V184.178L157.857 183.371L157.856 183.366L151.528 184.174ZM151.639 182.831C151.502 183.284 151.496 183.666 151.504 183.879C151.508 183.989 151.517 184.078 151.523 184.13C151.526 184.157 151.528 184.179 151.53 184.192C151.531 184.199 151.532 184.205 151.533 184.209C151.533 184.212 151.533 184.215 151.533 184.215L157.851 183.325C157.846 183.293 157.872 183.455 157.879 183.645C157.886 183.852 157.881 184.229 157.745 184.676L151.639 182.831ZM155.295 180.658C155.412 180.66 155.477 180.672 155.494 180.676C155.509 180.678 155.545 180.685 155.601 180.701C155.628 180.708 155.681 180.723 155.75 180.746C155.785 180.758 155.836 180.777 155.899 180.802C155.955 180.824 156.058 180.868 156.182 180.934L153.202 186.574C153.564 186.766 153.906 186.851 153.936 186.859C154.066 186.894 154.194 186.923 154.314 186.945C154.539 186.988 154.859 187.033 155.215 187.037L155.295 180.658ZM155.457 179.463C155.302 179.767 155.172 180.022 155.031 180.265C154.89 180.507 154.775 180.673 154.686 180.78C154.593 180.89 154.586 180.868 154.683 180.811C154.807 180.738 155.026 180.655 155.293 180.658L155.217 187.037C157.366 187.063 158.803 185.801 159.578 184.874C160.344 183.959 160.874 182.885 161.145 182.352L155.457 179.463ZM155.536 179.307L155.458 179.461L161.144 182.355L161.222 182.201L155.536 179.307ZM155.831 176.71C155.914 177.817 155.925 178.136 155.896 178.38C155.884 178.484 155.859 178.676 155.539 179.301L161.219 182.206C161.731 181.205 162.098 180.258 162.232 179.13C162.349 178.141 162.26 177.132 162.193 176.232L155.831 176.71ZM155.824 176.617L155.831 176.71L162.193 176.233L162.186 176.141L155.824 176.617ZM156.146 174.847C156.09 175.02 156.02 175.231 155.954 175.449L162.056 177.309C162.099 177.169 162.146 177.024 162.207 176.841L156.146 174.847ZM156.151 174.835H156.15L162.203 176.852L156.151 174.835ZM156.141 174.865L156.14 174.867L162.214 176.82V176.817L156.141 174.865ZM156.427 173.843C156.409 174.01 156.347 174.237 156.148 174.844L162.208 176.837C162.368 176.351 162.665 175.485 162.769 174.539L156.427 173.843ZM156.407 172.448C156.449 173.14 156.464 173.514 156.427 173.843L162.769 174.541C162.874 173.582 162.811 172.664 162.775 172.064L156.407 172.448ZM156.387 170.249C156.32 171.091 156.374 171.902 156.407 172.448L162.775 172.064C162.737 171.44 162.721 171.079 162.747 170.759L156.387 170.249ZM157.981 167.741C158.007 167.722 158.03 167.709 158.049 167.699L161.085 173.309C161.265 173.212 161.444 173.103 161.618 172.982L157.981 167.741ZM158.551 167.399C158.452 167.458 158.353 167.516 158.253 167.571L161.346 173.151C161.513 173.058 161.679 172.962 161.844 172.863L158.551 167.399ZM181.842 170.04C174.461 170.04 167.542 168.98 161.104 167.073L159.291 173.189C166.313 175.27 173.842 176.42 181.842 176.42V170.04ZM244.938 136.043C237.782 143.13 226.994 151.695 215.396 158.47C203.708 165.298 191.648 170.04 181.842 170.04V176.42C193.373 176.42 206.638 170.975 218.614 163.979C230.68 156.931 241.893 148.036 249.427 140.577L244.938 136.043ZM260.899 134.342C260.673 131.16 260.672 131.16 260.672 131.16C260.671 131.16 260.671 131.16 260.67 131.16C260.67 131.16 260.668 131.161 260.667 131.161C260.665 131.161 260.662 131.161 260.658 131.161C260.65 131.162 260.641 131.163 260.628 131.164C260.603 131.165 260.569 131.168 260.525 131.172C260.437 131.179 260.312 131.189 260.154 131.204C259.838 131.232 259.39 131.277 258.845 131.34C257.758 131.467 256.264 131.672 254.651 131.986C253.05 132.298 251.261 132.731 249.609 133.332C248.024 133.908 246.243 134.751 244.938 136.043L249.426 140.577C249.749 140.257 250.497 139.798 251.789 139.328C253.014 138.882 254.451 138.525 255.872 138.248C257.281 137.973 258.606 137.791 259.583 137.677C260.069 137.62 260.463 137.581 260.733 137.557C260.867 137.545 260.97 137.536 261.037 137.531C261.07 137.528 261.095 137.526 261.11 137.525C261.117 137.524 261.122 137.524 261.125 137.524C261.126 137.524 261.127 137.524 261.127 137.524C261.127 137.524 261.125 137.524 260.899 134.342ZM248.363 118.991C246.901 121.593 247.937 124.355 248.836 126.032C249.834 127.894 251.353 129.723 252.793 131.251C254.262 132.81 255.794 134.206 256.946 135.204C257.525 135.706 258.016 136.114 258.365 136.398C258.539 136.541 258.679 136.652 258.777 136.73C258.826 136.769 258.864 136.8 258.892 136.821C258.905 136.832 258.916 136.841 258.924 136.847C258.928 136.85 258.931 136.853 258.934 136.855C258.935 136.856 258.936 136.856 258.937 136.857C258.938 136.857 258.938 136.858 258.938 136.858C258.939 136.858 258.939 136.859 260.899 134.342C262.859 131.825 262.859 131.826 262.859 131.826C262.86 131.826 262.86 131.826 262.86 131.826C262.859 131.826 262.858 131.825 262.856 131.823C262.853 131.82 262.846 131.815 262.837 131.808C262.818 131.793 262.789 131.77 262.749 131.739C262.67 131.675 262.55 131.58 262.397 131.454C262.089 131.204 261.648 130.837 261.123 130.382C260.068 129.468 258.707 128.225 257.435 126.875C256.134 125.495 255.063 124.145 254.459 123.018C253.755 121.706 254.177 121.667 253.925 122.115L248.363 118.991ZM266.051 120.94C266.868 117.857 266.868 117.857 266.868 117.856C266.867 117.856 266.867 117.856 266.866 117.856C266.865 117.856 266.864 117.856 266.863 117.855C266.86 117.855 266.857 117.854 266.853 117.853C266.844 117.85 266.833 117.847 266.818 117.844C266.789 117.836 266.747 117.825 266.694 117.812C266.588 117.784 266.436 117.746 266.244 117.699C265.86 117.604 265.314 117.474 264.655 117.329C263.345 117.039 261.555 116.681 259.688 116.423C257.856 116.17 255.787 115.989 253.974 116.123C253.071 116.19 252.073 116.344 251.145 116.7C250.227 117.051 249.079 117.717 248.363 118.991L253.925 122.115C253.645 122.614 253.289 122.71 253.425 122.658C253.55 122.61 253.867 122.528 254.443 122.486C255.589 122.401 257.138 122.511 258.815 122.743C260.456 122.969 262.067 123.29 263.279 123.558C263.881 123.691 264.378 123.809 264.72 123.894C264.891 123.936 265.024 123.969 265.111 123.992C265.155 124.003 265.188 124.011 265.208 124.017C265.219 124.019 265.226 124.021 265.23 124.022C265.232 124.023 265.234 124.023 265.234 124.023C265.235 124.024 265.235 124.024 265.235 124.024C265.234 124.024 265.234 124.023 265.234 124.023C265.234 124.023 265.234 124.023 266.051 120.94ZM254.879 108.274C255.761 110.216 257.946 113.896 259.783 116.905C260.726 118.451 261.62 119.886 262.277 120.934C262.606 121.459 262.876 121.887 263.064 122.185C263.158 122.334 263.231 122.45 263.282 122.529C263.307 122.569 263.326 122.599 263.339 122.62C263.346 122.63 263.351 122.638 263.354 122.644C263.356 122.646 263.357 122.648 263.358 122.65C263.359 122.65 263.359 122.651 263.359 122.651C263.359 122.652 263.359 122.652 263.36 122.652C263.36 122.652 263.36 122.652 266.051 120.94C268.742 119.228 268.742 119.228 268.742 119.228C268.742 119.227 268.742 119.227 268.741 119.226C268.741 119.225 268.74 119.224 268.738 119.221C268.735 119.216 268.73 119.209 268.724 119.199C268.712 119.18 268.693 119.151 268.669 119.113C268.621 119.036 268.549 118.922 268.457 118.777C268.272 118.485 268.006 118.063 267.683 117.547C267.034 116.512 266.155 115.099 265.228 113.58C263.322 110.46 261.373 107.147 260.687 105.636L254.879 108.274ZM251.623 102.921C252.997 104.933 254.104 106.568 254.879 108.274L260.687 105.636C259.644 103.338 258.202 101.242 256.892 99.3228L251.623 102.921ZM244.959 88.8452C246.237 95.078 249.219 99.4002 251.623 102.921L256.892 99.3228C254.478 95.7874 252.202 92.4093 251.209 87.5644L244.959 88.8452ZM243.845 71.6278C243.627 75.5333 243.328 80.8841 244.959 88.8452L251.209 87.5644C249.743 80.4083 250.007 75.7036 250.215 71.984L243.845 71.6278ZM243.387 65.295C244.051 66.7183 244.036 68.2176 243.845 71.6278L250.215 71.984C250.384 68.9476 250.633 65.7375 249.169 62.5987L243.387 65.295ZM204.735 34.7723C211.315 37.2741 219.594 41.8084 226.979 47.3566C234.427 52.9517 240.591 59.2986 243.387 65.295L249.169 62.5987C245.714 55.1901 238.561 48.0781 230.811 42.256C222.998 36.3869 214.198 31.5456 207.003 28.8094L204.735 34.7723ZM196.22 26.0818C197.847 28.0726 199.381 29.95 200.667 31.3857C201.311 32.1036 201.943 32.7685 202.533 33.3064C203.043 33.7705 203.819 34.424 204.735 34.7723L207.003 28.8094C207.293 28.9195 207.269 28.9909 206.829 28.5899C206.47 28.2628 206.002 27.7797 205.418 27.1281C204.25 25.8246 202.82 24.0762 201.159 22.0443L196.22 26.0818ZM178.249 9.17229C178.95 9.2458 180.043 9.65981 181.548 10.6813C183.009 11.6725 184.617 13.0689 186.315 14.7549C189.718 18.1326 193.178 22.3602 196.22 26.0818L201.159 22.0443C198.163 18.379 194.491 13.8813 190.81 10.2272C188.966 8.39738 187.045 6.7013 185.131 5.40237C183.261 4.13381 181.134 3.06018 178.913 2.82745L178.249 9.17229ZM176.967 35.3633C177.842 35.8049 179.083 36.0668 180.375 35.5185C181.534 35.0266 182.166 34.113 182.488 33.5041C183.11 32.3306 183.34 30.8396 183.455 29.6007C183.703 26.937 183.569 23.3288 183.316 19.8549C183.059 16.3302 182.664 12.7519 182.335 10.0662C182.17 8.72048 182.022 7.59262 181.914 6.79968C181.86 6.4031 181.816 6.08998 181.785 5.87494C181.77 5.76741 181.758 5.68438 181.75 5.62767C181.746 5.59932 181.743 5.57754 181.741 5.56256C181.74 5.55508 181.739 5.54929 181.738 5.54524C181.738 5.54321 181.738 5.54161 181.738 5.54046C181.737 5.53988 181.737 5.53933 181.737 5.53904C181.737 5.53861 181.737 5.53829 178.581 5.99987C175.425 6.46145 175.425 6.46145 175.425 6.46145C175.425 6.46115 175.425 6.4616 175.425 6.46145C175.425 6.46203 175.425 6.46352 175.425 6.46497C175.426 6.46787 175.426 6.47249 175.427 6.4788C175.429 6.49142 175.432 6.51082 175.436 6.53674C175.443 6.5886 175.454 6.6666 175.469 6.76893C175.498 6.9736 175.54 7.27549 175.592 7.66007C175.697 8.42945 175.842 9.52854 176.003 10.8414C176.325 13.4728 176.707 16.9379 176.953 20.3185C177.203 23.7498 177.299 26.9087 177.103 29.0096C176.997 30.153 176.837 30.5436 176.851 30.518C176.869 30.4831 177.142 29.9601 177.882 29.6461C178.754 29.2758 179.515 29.5032 179.843 29.6685L176.967 35.3633ZM167.156 29.4325C170.404 31.5462 173.82 33.774 176.967 35.3633L179.843 29.6685C177.07 28.2686 173.967 26.254 170.636 24.0856L167.156 29.4325ZM151.071 21.7253C152.376 21.547 154.494 22.0815 157.567 23.6297C160.517 25.1164 163.754 27.2188 167.156 29.4325L170.636 24.0856C167.314 21.9236 163.764 19.609 160.438 17.9326C157.233 16.3177 153.585 14.9429 150.207 15.4045L151.071 21.7253ZM159.521 36.3068C161.127 35.7065 162.585 34.8191 163.564 33.4702C164.61 32.031 164.863 30.4076 164.62 28.9043C164.192 26.2595 162.223 23.9079 160.584 22.2657C158.801 20.4801 156.719 18.8747 155.134 17.7417C154.331 17.168 153.634 16.6999 153.134 16.3732C152.884 16.2096 152.682 16.0808 152.54 15.9912C152.469 15.9464 152.413 15.9114 152.373 15.8867C152.353 15.8744 152.337 15.8646 152.326 15.8575C152.32 15.8539 152.315 15.851 152.312 15.8488C152.31 15.8477 152.308 15.8468 152.307 15.846C152.306 15.8456 152.306 15.8451 152.305 15.8449C152.305 15.8445 152.304 15.8442 150.639 18.5649C148.974 21.2857 148.974 21.2854 148.973 21.2851C148.973 21.2849 148.973 21.285 148.973 21.2851C148.974 21.2855 148.975 21.2865 148.978 21.2882C148.984 21.2917 148.994 21.2977 149.007 21.3062C149.035 21.3232 149.078 21.3502 149.136 21.3866C149.251 21.4595 149.424 21.5699 149.644 21.7134C150.084 22.0009 150.706 22.4188 151.424 22.9319C152.88 23.9727 154.642 25.3445 156.069 26.7733C157.639 28.3455 158.245 29.4454 158.322 29.9225C158.332 29.9802 158.32 29.8354 158.402 29.7216C158.419 29.6982 158.218 29.9832 157.287 30.3311L159.521 36.3068ZM118.657 66.1355C121.63 60.2217 128.029 54.1383 135.839 48.7469C143.572 43.4079 152.32 38.9986 159.521 36.3068L157.287 30.3311C149.609 33.2013 140.392 37.8509 132.214 43.4969C124.112 49.0905 116.653 55.9182 112.957 63.2704L118.657 66.1355ZM119.161 71.3986C118.779 69.848 118.522 68.77 118.442 67.8381C118.369 66.9815 118.474 66.4997 118.657 66.1355L112.957 63.2704C112.08 65.0161 111.948 66.7796 112.086 68.383C112.217 69.911 112.618 71.5075 112.967 72.9243L119.161 71.3986ZM119.267 88.7724C121.581 81.1403 120.156 75.4358 119.161 71.3986L112.967 72.9243C113.916 76.7781 114.945 81.0373 113.161 86.9214L119.267 88.7724ZM119.138 89.1879C119.181 89.05 119.224 88.9116 119.267 88.7724L113.161 86.9214C113.127 87.0336 113.093 87.1457 113.057 87.2575L119.138 89.1879ZM115.674 94.3444C116.602 92.9262 117.602 91.5351 118.651 90.1343L113.544 86.3112C112.452 87.7701 111.364 89.2786 110.335 90.8521L115.674 94.3444ZM111.34 101.554C112.778 99.058 114.163 96.6544 115.674 94.3444L110.335 90.8521C108.708 93.3393 107.234 95.9005 105.812 98.3702L111.34 101.554ZM109.47 104.774C110.105 103.698 110.727 102.618 111.34 101.555L105.812 98.3702C105.196 99.4385 104.591 100.49 103.976 101.533L109.47 104.774ZM97.0565 119.114C101.195 114.544 105.197 109.878 109.154 105.219L104.292 101.088C100.342 105.738 96.3946 110.341 92.3276 114.832L97.0565 119.114ZM114.932 143.308L114.97 143.31L115.31 136.94L115.272 136.938L114.932 143.308ZM115.827 137.056C115.838 137.059 116.076 137.12 116.354 137.256C116.396 137.276 116.973 137.533 117.453 138.137C117.735 138.492 118.195 139.237 118.141 140.285C118.085 141.38 117.506 142.117 117.089 142.492C116.433 143.082 115.714 143.219 115.683 143.226C115.487 143.272 115.33 143.288 115.266 143.294C115.126 143.308 115.018 143.308 114.993 143.308C114.902 143.308 114.83 143.303 114.929 143.308L115.275 136.938C115.254 136.937 115.215 136.935 115.176 136.933C115.148 136.932 115.064 136.928 114.967 136.928C114.928 136.929 114.809 136.929 114.661 136.943C114.593 136.95 114.432 136.967 114.233 137.013C114.2 137.021 113.479 137.158 112.822 137.749C112.405 138.125 111.826 138.862 111.77 139.958C111.716 141.006 112.176 141.751 112.459 142.107C112.94 142.712 113.518 142.97 113.563 142.992C113.847 143.13 114.094 143.195 114.119 143.202L115.827 137.056ZM116.145 137.143C116.043 137.116 115.942 137.088 115.842 137.06L114.104 143.198C114.232 143.234 114.359 143.269 114.484 143.303L116.145 137.143ZM113.713 142.982L113.742 142.998L116.887 137.448L116.859 137.432L113.713 142.982ZM113.629 142.935C113.658 142.951 113.687 142.967 113.716 142.983L116.856 137.431C116.817 137.408 116.778 137.386 116.739 137.364L113.629 142.935ZM113.589 142.912L113.633 142.937L116.735 137.362L116.691 137.338L113.589 142.912ZM300.155 328.794L289.61 257.533L283.299 258.467L293.845 329.728L300.155 328.794ZM271.383 411.066L300.006 330.327L293.994 328.195L265.37 408.934L271.383 411.066ZM258.771 386.822L265.299 410.837L271.455 409.163L264.927 385.149L258.771 386.822ZM258.659 325.535V385.985H265.038V325.535H258.659ZM241.905 258.772L258.754 326.307L264.944 324.763L248.095 257.228L241.905 258.772ZM286.455 254.81H245V261.19H286.455V254.81ZM212.272 161.186C209.413 161.566 207.578 164.198 207.936 166.893L214.26 166.053C214.344 166.686 213.907 167.404 213.112 167.51L212.272 161.186ZM217.979 165.553C217.61 162.77 215.046 160.818 212.272 161.186L213.112 167.51C212.402 167.604 211.75 167.112 211.655 166.393L217.979 165.553ZM218.819 171.036C218.518 169.174 218.225 167.358 217.978 165.542L211.656 166.404C211.916 168.31 212.222 170.204 212.521 172.053L218.819 171.036ZM219.6 176.089C219.36 174.387 219.086 172.693 218.819 171.036L212.521 172.053C212.79 173.721 213.053 175.352 213.284 176.981L219.6 176.089ZM215.188 181.945C218.069 181.551 219.983 178.89 219.602 176.103L213.282 176.967C213.199 176.36 213.617 175.721 214.322 175.625L215.188 181.945ZM209.345 177.499C209.729 180.308 212.327 182.339 215.19 181.945L214.32 175.625C215.003 175.531 215.579 176.004 215.665 176.635L209.345 177.499ZM208.861 173.876C209.022 175.081 209.183 176.283 209.343 177.487L215.667 176.647C215.507 175.441 215.346 174.235 215.185 173.031L208.861 173.876ZM207.935 166.885C208.239 169.22 208.55 171.551 208.861 173.876L215.185 173.031C214.874 170.704 214.563 168.384 214.261 166.061L207.935 166.885ZM117.5 274.725C114.491 273.666 114.491 273.665 114.492 273.665C114.492 273.664 114.491 273.665 114.492 273.665C114.491 273.665 114.491 273.667 114.49 273.669C114.489 273.672 114.487 273.678 114.484 273.686C114.478 273.702 114.469 273.728 114.457 273.762C114.433 273.83 114.395 273.934 114.345 274.071C114.246 274.344 114.097 274.749 113.902 275.264C113.511 276.296 112.938 277.769 112.212 279.523C110.756 283.039 108.703 287.636 106.293 292.039C103.854 296.494 101.172 300.52 98.516 303.068C95.7566 305.715 93.9963 305.928 92.7933 305.39L90.1862 311.212C95.1111 313.417 99.6661 310.805 102.933 307.672C106.302 304.439 109.357 299.727 111.889 295.103C114.449 290.425 116.601 285.6 118.107 281.963C118.861 280.14 119.459 278.605 119.869 277.522C120.074 276.98 120.232 276.55 120.34 276.254C120.394 276.106 120.435 275.991 120.463 275.912C120.478 275.872 120.488 275.842 120.496 275.82C120.5 275.81 120.503 275.801 120.505 275.795C120.506 275.792 120.507 275.79 120.507 275.788C120.508 275.787 120.508 275.786 120.508 275.786C120.509 275.785 120.509 275.784 117.5 274.725ZM116.415 277.915H117.5V271.535H116.415V277.915ZM108.851 248.011L113.267 275.236L119.564 274.214L115.149 246.989L108.851 248.011ZM110.433 264.311L115.063 248.391L108.937 246.609L104.308 262.53L110.433 264.311ZM91.6788 240.349L104.545 264.901L110.196 261.94L97.3295 237.388L91.6788 240.349ZM72.913 198.472C73.5551 201.047 75.0974 204.987 76.9314 209.26C78.7949 213.601 81.0544 218.501 83.2315 223.09C85.4104 227.684 87.5163 231.987 89.0768 235.14C89.8573 236.717 90.5019 238.008 90.9518 238.905C91.1767 239.354 91.353 239.704 91.4733 239.943C91.5334 240.062 91.5795 240.153 91.6107 240.215C91.6263 240.246 91.6382 240.27 91.6462 240.285C91.6503 240.293 91.6533 240.299 91.6554 240.303C91.6564 240.305 91.6572 240.307 91.6578 240.308C91.658 240.309 91.6583 240.309 91.6584 240.309C91.6586 240.31 91.6587 240.31 94.5042 238.868C97.3497 237.427 97.3496 237.427 97.3496 237.427C97.3495 237.426 97.3493 237.426 97.3491 237.426C97.3487 237.425 97.348 237.424 97.347 237.422C97.3452 237.418 97.3424 237.412 97.3386 237.405C97.331 237.39 97.3196 237.367 97.3045 237.338C97.2742 237.278 97.229 237.188 97.1699 237.071C97.0515 236.836 96.8773 236.49 96.6546 236.046C96.2091 235.157 95.5694 233.877 94.7945 232.311C93.2442 229.178 91.1548 224.908 88.9955 220.356C86.8343 215.8 84.6126 210.981 82.7938 206.743C80.9454 202.437 79.6042 198.938 79.1031 196.929L72.913 198.472ZM76.884 185.771C75.4033 189.781 73.9778 193.64 72.9757 196.71L79.0404 198.69C79.9962 195.762 81.3727 192.032 82.8687 187.981L76.884 185.771ZM86.2118 162.404C86.004 162.418 85.6226 162.396 85.1978 162.176C84.7679 161.953 84.5071 161.639 84.3735 161.411C84.1764 161.074 84.285 160.991 84.2824 161.606C84.2776 162.734 83.9282 164.653 83.2039 167.301C81.7848 172.49 79.2618 179.331 76.884 185.771L82.8687 187.981C85.212 181.634 87.8491 174.5 89.3575 168.984C90.097 166.28 90.6533 163.664 90.662 161.633C90.6661 160.668 90.5585 159.349 89.8803 158.19C89.5062 157.55 88.9386 156.929 88.1306 156.51C87.3277 156.095 86.4967 155.988 85.7628 156.04L86.2118 162.404ZM82.3776 165.017C83.3618 164.142 84.1087 163.486 84.827 163.008C85.523 162.545 85.9463 162.423 86.2118 162.404L85.7628 156.04C83.9731 156.167 82.4762 156.91 81.2937 157.697C80.1335 158.468 79.0435 159.445 78.1391 160.249L82.3776 165.017ZM66.3763 168.167C69.9354 170.192 73.193 170.354 76.1202 169.267C78.757 168.288 80.8752 166.353 82.3776 165.017L78.1391 160.249C76.442 161.758 75.2123 162.799 73.8988 163.287C72.8758 163.667 71.5809 163.788 69.5311 162.622L66.3763 168.167ZM53.6991 145.873C55.1587 149.883 56.8457 154.527 58.7866 158.51C59.7606 160.509 60.8388 162.426 62.04 164.063C63.225 165.677 64.6509 167.185 66.3763 168.167L69.5311 162.622C68.8888 162.256 68.092 161.526 67.1826 160.287C66.2894 159.071 65.4016 157.521 64.5214 155.715C62.7539 152.088 61.18 147.774 59.6939 143.691L53.6991 145.873ZM52.0527 135.941C51.8231 136.134 51.3073 136.435 50.5875 136.398C49.9391 136.365 49.5646 136.077 49.5042 136.028C49.4717 136.002 49.7536 136.273 50.2808 137.296C51.2661 139.206 52.3667 142.212 53.6991 145.873L59.6939 143.691C58.4235 140.2 57.1675 136.731 55.951 134.372C55.3773 133.259 54.597 131.947 53.5297 131.079C52.9519 130.609 52.0668 130.086 50.9132 130.027C49.6882 129.964 48.6723 130.449 47.9469 131.059L52.0527 135.941ZM52.0889 146.345C51.8504 143.366 51.6426 140.714 51.7155 138.601C51.7518 137.551 51.8547 136.791 51.995 136.278C52.1435 135.735 52.2505 135.775 52.0527 135.941L47.9473 131.058C46.7473 132.067 46.1584 133.436 45.8415 134.595C45.5162 135.783 45.3841 137.097 45.3397 138.381C45.2515 140.937 45.5005 143.992 45.7296 146.854L52.0889 146.345ZM49.2228 164.574C50.5822 163.486 51.3329 161.993 51.7675 160.598C52.2051 159.193 52.4003 157.639 52.4782 156.11C52.6329 153.072 52.3433 149.524 52.0889 146.345L45.7296 146.854C45.9938 150.155 46.2359 153.25 46.1068 155.786C46.0428 157.044 45.8923 158.008 45.6766 158.7C45.458 159.402 45.2479 159.584 45.2355 159.594L49.2228 164.574ZM31.7242 153.694C33.9769 156.705 36.5714 160.19 39.0628 162.55C40.2948 163.717 41.7646 164.87 43.3975 165.454C45.2181 166.106 47.3645 166.062 49.2228 164.574L45.2355 159.594C45.4542 159.419 45.7395 159.517 45.5462 159.448C45.1651 159.311 44.4683 158.883 43.45 157.918C41.4405 156.015 39.1991 153.036 36.8323 149.873L31.7242 153.694ZM25.3504 146.23C25.8443 146.529 26.6912 147.319 27.9134 148.773C29.0757 150.156 30.3448 151.851 31.7242 153.694L36.8323 149.873C35.4832 148.069 34.0992 146.218 32.7975 144.669C31.5557 143.191 30.1278 141.663 28.6496 140.77L25.3504 146.23ZM33.7496 155.557C31.9776 151.442 30.4424 147.871 29.6531 145.517C29.4602 144.942 29.3325 144.499 29.259 144.177C29.1723 143.797 29.2093 143.79 29.1957 143.993C29.1946 144.009 29.0828 145.746 27.2434 146.33C26.5178 146.561 25.9331 146.436 25.6996 146.369C25.4535 146.299 25.3269 146.216 25.3504 146.23L28.6496 140.77C28.3494 140.589 27.9421 140.375 27.4559 140.236C26.9822 140.1 26.1981 139.969 25.3111 140.25C23.1491 140.938 22.8676 143.01 22.8303 143.568C22.7805 144.313 22.9149 145.052 23.0399 145.599C23.178 146.203 23.3763 146.865 23.6045 147.545C24.4994 150.214 26.1691 154.084 27.8903 158.08L33.7496 155.557ZM41.1292 179.415C41.4984 177.815 41.2116 175.941 40.8487 174.351C40.4551 172.626 39.826 170.656 39.0876 168.611C37.61 164.518 35.5741 159.793 33.7496 155.557L27.8903 158.08C29.7357 162.365 31.6878 166.901 33.087 170.777C33.787 172.716 34.3185 174.409 34.629 175.77C34.7838 176.449 34.8713 176.992 34.9057 177.407C34.9422 177.846 34.9071 178.006 34.9128 177.981L41.1292 179.415ZM24.5414 176.556C26.8171 178.364 29.723 180.687 32.2072 182.019C33.3672 182.641 34.9958 183.368 36.6714 183.288C37.6243 183.243 38.6923 182.93 39.5977 182.118C40.4763 181.331 40.9186 180.33 41.1292 179.415L34.9128 177.981C34.9047 178.016 34.9712 177.698 35.341 177.367C35.7377 177.011 36.1642 176.926 36.367 176.916C36.5423 176.907 36.2364 176.94 35.2216 176.396C33.3563 175.396 30.9519 173.501 28.5095 171.561L24.5414 176.556ZM23.6703 170.648C23.6754 170.694 23.6888 170.839 23.665 171.05C23.6415 171.258 23.5722 171.614 23.3532 172.012C22.7887 173.039 21.781 173.442 21.0367 173.481C20.7358 173.497 20.5127 173.456 20.4053 173.431C20.2917 173.405 20.227 173.379 20.2225 173.377C20.2212 173.377 20.3092 173.414 20.5086 173.534C21.3858 174.059 22.7443 175.129 24.5414 176.556L28.5095 171.561C26.8756 170.263 25.1159 168.856 23.7856 168.06C23.4331 167.849 23.0261 167.628 22.5961 167.456C22.2239 167.307 21.5321 167.067 20.7037 167.11C19.6724 167.164 18.4533 167.682 17.7623 168.94C17.2267 169.914 17.2775 170.882 17.3297 171.352L23.6703 170.648ZM56 208.5C57.9074 205.943 57.9074 205.943 57.9074 205.943C57.9077 205.943 57.9073 205.943 57.9074 205.943C57.9068 205.942 57.9054 205.942 57.9039 205.941C57.9009 205.938 57.8959 205.935 57.8891 205.929C57.8755 205.919 57.8544 205.903 57.8261 205.882C57.7695 205.84 57.6841 205.775 57.5716 205.69C57.3465 205.519 57.0132 205.266 56.586 204.936C55.7315 204.278 54.5022 203.318 53.013 202.122C50.0316 199.728 46.0224 196.397 41.8975 192.641C37.7635 188.877 33.5635 184.733 30.1736 180.71C26.7156 176.607 24.3725 172.943 23.5671 170.124L17.433 171.876C18.6275 176.057 21.7219 180.581 25.2952 184.821C28.9365 189.142 33.3616 193.497 37.6026 197.359C41.8527 201.228 45.9684 204.647 49.0183 207.096C50.5447 208.322 51.8076 209.308 52.6914 209.989C53.1333 210.33 53.4807 210.594 53.719 210.775C53.8382 210.865 53.9301 210.935 53.993 210.982C54.0244 211.005 54.0486 211.024 54.0653 211.036C54.0736 211.042 54.0801 211.047 54.0846 211.051C54.0869 211.052 54.0887 211.054 54.0901 211.055C54.0907 211.055 54.0914 211.056 54.0917 211.056C54.0922 211.056 54.0926 211.057 56 208.5ZM92.7933 305.39C91.191 304.672 89.1994 302.886 86.9419 299.767C84.7341 296.717 82.4894 292.701 80.2715 287.981C75.8392 278.549 71.6734 266.649 68.1951 254.877C64.7207 243.117 61.9629 231.588 60.3261 222.94C59.5053 218.603 58.9803 215.063 58.778 212.609C58.6751 211.36 58.6676 210.525 58.7089 210.052C58.7309 209.799 58.7537 209.819 58.6939 209.984C58.6807 210.02 58.3419 211.028 57.12 211.487L54.88 205.513C53.4081 206.065 52.8673 207.339 52.6983 207.804C52.4827 208.397 52.3961 209.008 52.3534 209.498C52.2652 210.509 52.3073 211.766 52.42 213.133C52.649 215.91 53.22 219.7 54.0578 224.126C55.7383 233.005 58.5486 244.742 62.077 256.684C65.6015 268.613 69.8733 280.853 74.4976 290.694C76.8079 295.611 79.2462 300.016 81.7742 303.508C84.2524 306.931 87.0493 309.808 90.1862 311.212L92.7933 305.39Z" fill="white"/>
<path d="M138.729 180.423C138.729 180.423 185.817 237.723 235.279 178.73C235.279 178.73 255.225 176.482 277.317 194.223L303.317 273.223L258.051 280.124L257.102 236.31L260.079 373.628L266.317 411.723L105.317 423.723L118.765 351.637L113.756 237.723L114.824 262L105.5 254.5L89 220L99.317 194.223L138.729 180.423Z" fill="#BBC1F1"/>
<path d="M197.011 108.326C197.011 108.326 220.07 114.264 238.408 103.476C243.434 100.52 217.693 62.0725 197.011 108.326Z" fill="white" stroke="#000002" stroke-width="1.5" stroke-miterlimit="10" stroke-linejoin="round"/>
<path d="M179.317 122.723L183.242 126.661C183.242 126.661 186.446 124.3 187.817 122.723" stroke="#823F4B" stroke-width="8" stroke-miterlimit="10" stroke-linecap="round" stroke-linejoin="round"/>
<path d="M182.579 134.665C182.579 134.665 168.298 143.54 140.367 134.953C140.367 134.953 162.71 163.039 183.993 163.764C205.276 164.489 229.568 130.322 229.568 130.322C208.712 144.951 182.579 134.665 182.579 134.665Z" fill="#541F17"/>
<path d="M155.961 139.19L164.748 149.279L165.758 144.04L205.245 143.963L206.583 149.055L214.268 137.869C192.907 141.835 182.288 135.957 182.288 135.957C182.288 135.957 176.163 141.236 155.961 139.19Z" fill="#FFF8F3"/>
<path d="M167.9 149.63C167.764 145.273 177.186 148.651 184.523 148.423C191.86 148.194 202.762 145.103 202.898 149.461C203.033 153.818 191.626 160.316 184.289 160.545C176.952 160.773 168.036 153.988 167.9 149.63Z" fill="#E19F97"/>
<path d="M206.98 107.387C213.917 77.3723 227.247 90.1043 229.931 103.784C230.728 107.842 207.15 107.395 207.15 107.395" fill="#000002"/>
<path d="M206.98 107.387C213.917 77.3723 227.247 90.1043 229.931 103.784C230.728 107.842 207.15 107.395 207.15 107.395" stroke="#000002" stroke-opacity="0.918919" stroke-width="5.88512" stroke-miterlimit="10" stroke-linecap="round" stroke-linejoin="round"/>
<path d="M218.24 100.591C217.638 98.9902 217.966 97.3862 218.973 97.0072C219.98 96.6292 221.284 97.6192 221.886 99.2202C222.488 100.821 222.159 102.425 221.152 102.804C220.146 103.182 218.842 102.192 218.24 100.591Z" fill="white"/>
<path d="M169.263 108.748C169.263 108.748 145.561 114.58 127.165 104.02C122.123 101.126 155.604 60.6306 169.263 108.748Z" fill="white" stroke="#2D2145" stroke-width="1.5" stroke-miterlimit="10" stroke-linejoin="round"/>
<path d="M135.598 105.168C148.904 76.8616 158.916 91.7716 158.58 105.793C158.48 109.952 136.163 105.511 136.163 105.511" fill="#000002"/>
<path d="M135.598 105.168C148.904 76.8616 158.916 91.7716 158.58 105.793C158.48 109.952 136.163 105.511 136.163 105.511" stroke="#000002" stroke-opacity="0.918919" stroke-width="5.88512" stroke-miterlimit="10" stroke-linecap="round" stroke-linejoin="round"/>
<path d="M150.925 101.297C151.058 99.7176 150.124 98.1156 148.838 97.7196C147.551 97.3236 146.401 98.2826 146.267 99.8616C146.134 101.442 147.069 103.043 148.355 103.44C149.641 103.836 150.792 102.877 150.925 101.297Z" fill="white"/>
<path d="M234.933 113.31C234.933 113.232 234.996 113.169 235.073 113.169C235.151 113.169 235.214 113.232 235.214 113.31C235.214 113.387 235.151 113.45 235.073 113.45C234.996 113.45 234.933 113.387 234.933 113.31Z" fill="white" stroke="#000002" stroke-width="0.706675" stroke-miterlimit="10" stroke-linejoin="round"/>
<path d="M214.712 122.579C214.712 122.501 214.775 122.438 214.852 122.438C214.93 122.438 214.993 122.501 214.993 122.579C214.993 122.656 214.93 122.719 214.852 122.719C214.775 122.719 214.712 122.656 214.712 122.579Z" fill="white" stroke="#000002" stroke-width="0.706675" stroke-miterlimit="10" stroke-linejoin="round"/>
<path d="M224.261 121.595C224.261 121.44 224.324 121.314 224.401 121.314C224.479 121.314 224.542 121.44 224.542 121.595C224.542 121.75 224.479 121.876 224.401 121.876C224.324 121.876 224.261 121.75 224.261 121.595Z" fill="white" stroke="#000002" stroke-width="0.706675" stroke-miterlimit="10" stroke-linejoin="round"/>
<path d="M165.845 119.911C165.845 119.911 165.907 119.911 165.985 119.911C166.062 119.911 166.125 119.911 166.125 119.911" stroke="#000002" stroke-width="0.492477" stroke-miterlimit="10" stroke-linecap="round" stroke-linejoin="round"/>
<path d="M148.713 124.965C148.713 124.965 148.901 124.965 149.134 124.965C149.367 124.965 149.555 124.965 149.555 124.965" stroke="#000002" stroke-width="1.78404" stroke-miterlimit="10" stroke-linecap="round" stroke-linejoin="round"/>
<path d="M133.266 128.335C133.266 128.18 133.329 128.054 133.407 128.054C133.484 128.054 133.547 128.18 133.547 128.335C133.547 128.49 133.484 128.616 133.407 128.616C133.329 128.616 133.266 128.49 133.266 128.335Z" stroke="#000002" stroke-width="1.78404" stroke-miterlimit="10" stroke-linecap="round" stroke-linejoin="round"/>
<path d="M166.687 123.702C166.687 123.625 166.75 123.562 166.827 123.562C166.905 123.562 166.968 123.625 166.968 123.702C166.968 123.78 166.905 123.842 166.827 123.842C166.75 123.842 166.687 123.78 166.687 123.702Z" stroke="#000002" stroke-width="1.78404" stroke-miterlimit="10" stroke-linecap="round" stroke-linejoin="round"/>
<path d="M199.923 131.402C199.923 131.36 200.179 131.326 200.494 131.326C200.81 131.326 201.066 131.36 201.066 131.402C201.066 131.444 200.81 131.478 200.494 131.478C200.179 131.478 199.923 131.444 199.923 131.402Z" stroke="#000002" stroke-width="1.78404" stroke-miterlimit="10" stroke-linecap="round" stroke-linejoin="round"/>
<path d="M189.364 264.058L171.024 251.5L170.991 261.706C171.062 261.507 171.149 261.311 171.27 261.127C172.067 259.91 173.682 259.583 174.876 260.401C176.066 261.216 176.385 262.867 175.588 264.084C174.788 265.305 173.176 265.628 171.986 264.813C171.499 264.479 171.166 264.006 170.986 263.482L170.957 272.678C170.949 275.078 169.031 277.022 166.689 277.015L164.988 277.009C165.649 277.888 165.733 279.128 165.097 280.099C164.297 281.32 162.686 281.643 161.495 280.828C160.301 280.01 159.979 278.364 160.779 277.142C160.814 277.089 160.859 277.046 160.897 276.996L146.746 276.952C146.831 277.025 146.909 277.104 147.003 277.168L170.318 293.133C171.732 294.1 173.645 293.713 174.591 292.268L190.209 268.427C191.156 266.982 190.777 265.026 189.364 264.058ZM174.144 286.294C173.345 287.515 171.732 287.837 170.542 287.023C169.348 286.205 169.026 284.558 169.826 283.337C170.623 282.12 172.238 281.793 173.432 282.611C174.622 283.426 174.942 285.077 174.144 286.294ZM179.39 278.286C178.59 279.507 176.978 279.83 175.788 279.015C174.594 278.197 174.271 276.551 175.072 275.329C175.869 274.112 177.484 273.786 178.678 274.603C179.867 275.418 180.187 277.069 179.39 278.286ZM184.636 270.279C183.835 271.5 182.224 271.822 181.033 271.007C179.839 270.19 179.517 268.543 180.317 267.322C181.114 266.105 182.729 265.778 183.923 266.596C185.113 267.411 185.433 269.062 184.636 270.279Z" fill="url(#paint0_linear_341_1379)"/>
<path d="M169.781 272.673L169.871 243.98C169.876 242.241 168.502 240.827 166.801 240.821L138.739 240.733C137.037 240.727 135.654 242.133 135.648 243.873L135.558 272.565C135.552 274.305 136.927 275.719 138.628 275.724L166.691 275.813C168.392 275.818 169.775 274.413 169.781 272.673ZM141.789 270.53C140.352 270.526 139.192 269.337 139.196 267.867C139.201 266.403 140.369 265.217 141.806 265.221C143.238 265.226 144.398 266.419 144.394 267.884C144.389 269.353 143.222 270.535 141.789 270.53ZM141.85 251.256C140.412 251.252 139.252 250.063 139.257 248.593C139.262 247.129 140.429 245.943 141.867 245.947C143.299 245.952 144.459 247.145 144.454 248.61C144.45 250.079 143.282 251.261 141.85 251.256ZM152.709 260.928C151.272 260.923 150.111 259.734 150.116 258.265C150.12 256.8 151.288 255.614 152.726 255.618C154.158 255.623 155.318 256.817 155.313 258.281C155.309 259.751 154.141 260.932 152.709 260.928ZM163.567 270.599C162.13 270.594 160.97 269.406 160.975 267.936C160.979 266.472 162.147 265.285 163.584 265.29C165.016 265.294 166.177 266.488 166.173 267.952C166.168 269.422 165.001 270.603 163.567 270.599ZM163.628 251.325C162.191 251.32 161.031 250.132 161.036 248.662C161.04 247.197 162.208 246.011 163.645 246.016C165.077 246.02 166.238 247.214 166.233 248.678C166.229 250.148 165.061 251.329 163.628 251.325Z" fill="#2D2145"/>
<path d="M226.376 288.936L207.182 300.145L216.394 304.538C216.244 304.389 216.104 304.227 215.99 304.039C215.23 302.798 215.626 301.199 216.876 300.469C218.121 299.742 219.75 300.159 220.509 301.4C221.271 302.645 220.873 304.241 219.628 304.968C219.118 305.266 218.548 305.364 217.997 305.303L226.298 309.262C228.464 310.295 229.401 312.86 228.393 314.974L227.66 316.509C228.737 316.287 229.894 316.742 230.5 317.731C231.262 318.977 230.864 320.572 229.618 321.299C228.369 322.029 226.743 321.616 225.98 320.371C225.947 320.316 225.928 320.258 225.899 320.202L219.808 332.974C219.91 332.929 220.015 332.893 220.113 332.835L244.514 318.586C245.994 317.721 246.462 315.826 245.56 314.353L230.687 290.041C229.785 288.567 227.855 288.072 226.376 288.936ZM239.969 312.202C240.731 313.447 240.332 315.043 239.087 315.77C237.837 316.5 236.211 316.087 235.449 314.842C234.69 313.601 235.085 312.001 236.335 311.272C237.58 310.544 239.209 310.961 239.969 312.202ZM234.973 304.037C235.735 305.282 235.337 306.877 234.092 307.604C232.842 308.334 231.215 307.921 230.454 306.676C229.694 305.434 230.09 303.835 231.339 303.105C232.585 302.378 234.214 302.796 234.973 304.037ZM229.978 295.87C230.739 297.116 230.342 298.711 229.096 299.438C227.846 300.168 226.22 299.755 225.458 298.51C224.699 297.269 225.094 295.67 226.344 294.94C227.59 294.212 229.219 294.629 229.978 295.87Z" fill="url(#paint1_linear_341_1379)"/>
<path d="M225.79 310.322L199.891 297.971C198.321 297.222 196.455 297.86 195.723 299.396L183.643 324.725C182.911 326.261 183.59 328.112 185.16 328.861L211.058 341.212C212.628 341.961 214.495 341.323 215.227 339.788L227.307 314.458C228.039 312.923 227.36 311.071 225.79 310.322ZM211.883 334.709C211.264 336.007 209.694 336.547 208.367 335.915C207.045 335.284 206.472 333.721 207.091 332.424C207.708 331.131 209.283 330.593 210.605 331.223C211.931 331.856 212.5 333.416 211.883 334.709ZM194.486 326.413C193.867 327.71 192.297 328.25 190.97 327.618C189.648 326.987 189.075 325.425 189.694 324.127C190.311 322.834 191.886 322.296 193.208 322.926C194.534 323.559 195.103 325.12 194.486 326.413ZM207.872 320.732C207.253 322.029 205.682 322.57 204.356 321.938C203.034 321.307 202.461 319.744 203.08 318.447C203.697 317.154 205.272 316.616 206.594 317.246C207.92 317.879 208.489 319.439 207.872 320.732ZM221.258 315.052C220.639 316.349 219.069 316.889 217.742 316.257C216.42 315.626 215.847 314.064 216.466 312.767C217.082 311.474 218.658 310.935 219.98 311.565C221.306 312.198 221.875 313.758 221.258 315.052ZM203.861 306.755C203.242 308.052 201.672 308.593 200.345 307.96C199.023 307.33 198.45 305.767 199.069 304.47C199.685 303.177 201.261 302.638 202.583 303.268C203.909 303.901 204.478 305.462 203.861 306.755Z" fill="#2D2145"/>
<path d="M251.834 237.396L244.129 209.757C243.662 208.081 241.955 207.093 240.316 207.55L213.284 215.086C211.646 215.543 210.696 217.271 211.163 218.947L218.868 246.586C219.335 248.261 221.042 249.249 222.681 248.792L249.713 241.257C251.351 240.8 252.301 239.071 251.834 237.396ZM224.312 242.935C222.927 243.321 221.488 242.492 221.094 241.077C220.7 239.666 221.502 238.207 222.886 237.821C224.266 237.436 225.707 238.27 226.1 239.681C226.495 241.096 225.692 242.55 224.312 242.935ZM219.136 224.369C217.752 224.755 216.312 223.926 215.918 222.51C215.524 221.099 216.326 219.641 217.711 219.255C219.09 218.87 220.531 219.704 220.924 221.115C221.319 222.53 220.516 223.984 219.136 224.369ZM232.214 230.728C230.829 231.114 229.389 230.285 228.995 228.869C228.601 227.458 229.404 225.999 230.788 225.614C232.168 225.229 233.608 226.063 234.002 227.473C234.396 228.889 233.594 230.343 232.214 230.728ZM245.291 237.087C243.906 237.473 242.467 236.644 242.072 235.228C241.679 233.817 242.48 232.359 243.865 231.973C245.245 231.588 246.686 232.422 247.079 233.832C247.474 235.248 246.671 236.702 245.291 237.087ZM240.115 218.521C238.73 218.907 237.291 218.078 236.897 216.662C236.503 215.251 237.305 213.792 238.689 213.407C240.069 213.022 241.51 213.855 241.904 215.266C242.298 216.682 241.495 218.136 240.115 218.521Z" fill="#2D2145"/>
<path d="M144.73 210.452L127.825 187.268C126.8 185.862 124.855 185.535 123.48 186.538L100.806 203.072C99.4314 204.074 99.1478 206.026 100.173 207.432L117.078 230.615C118.103 232.021 120.048 232.347 121.423 231.345L144.097 214.811C145.472 213.809 145.755 211.857 144.73 210.452ZM120.897 225.287C119.736 226.134 118.097 225.863 117.231 224.675C116.368 223.492 116.608 221.845 117.769 220.998C118.926 220.154 120.568 220.43 121.431 221.613C122.297 222.8 122.054 224.443 120.897 225.287ZM109.541 209.714C108.38 210.561 106.741 210.289 105.875 209.102C105.012 207.918 105.252 206.271 106.413 205.424C107.57 204.58 109.212 204.856 110.075 206.04C110.941 207.227 110.698 208.87 109.541 209.714ZM124.018 211.085C122.856 211.932 121.217 211.66 120.351 210.473C119.488 209.289 119.728 207.642 120.89 206.795C122.047 205.951 123.688 206.227 124.551 207.41C125.417 208.598 125.175 210.241 124.018 211.085ZM138.494 212.456C137.333 213.303 135.694 213.031 134.828 211.844C133.965 210.66 134.205 209.013 135.366 208.166C136.523 207.322 138.165 207.598 139.028 208.781C139.894 209.968 139.652 211.612 138.494 212.456ZM127.138 196.883C125.977 197.729 124.338 197.458 123.472 196.27C122.609 195.087 122.849 193.44 124.01 192.593C125.167 191.749 126.809 192.024 127.672 193.208C128.538 194.395 128.296 196.038 127.138 196.883Z" fill="#F1E8FF"/>
<path d="M184.73 370.452L167.825 347.268C166.8 345.862 164.855 345.535 163.48 346.538L140.806 363.072C139.431 364.074 139.148 366.026 140.173 367.432L157.078 390.615C158.103 392.021 160.048 392.347 161.423 391.345L184.097 374.811C185.472 373.809 185.755 371.857 184.73 370.452ZM160.897 385.287C159.736 386.134 158.097 385.863 157.231 384.675C156.368 383.492 156.608 381.845 157.769 380.998C158.926 380.154 160.568 380.43 161.431 381.613C162.297 382.8 162.054 384.443 160.897 385.287ZM149.541 369.714C148.38 370.561 146.741 370.289 145.875 369.102C145.012 367.918 145.252 366.271 146.413 365.424C147.57 364.58 149.212 364.856 150.075 366.04C150.941 367.227 150.698 368.87 149.541 369.714ZM164.018 371.085C162.856 371.932 161.217 371.66 160.351 370.473C159.488 369.289 159.728 367.642 160.89 366.795C162.047 365.951 163.688 366.227 164.551 367.41C165.417 368.598 165.175 370.241 164.018 371.085ZM178.494 372.456C177.333 373.303 175.694 373.031 174.828 371.844C173.965 370.66 174.205 369.013 175.366 368.166C176.523 367.322 178.165 367.598 179.028 368.781C179.894 369.968 179.652 371.612 178.494 372.456ZM167.138 356.883C165.977 357.729 164.338 357.458 163.472 356.27C162.609 355.087 162.849 353.44 164.01 352.593C165.167 351.749 166.809 352.024 167.672 353.208C168.538 354.395 168.296 356.038 167.138 356.883Z" fill="#F1E8FF"/>
<path d="M246.816 389.648L255.762 362.386C256.304 360.733 255.434 358.963 253.817 358.433L227.154 349.684C225.537 349.153 223.787 350.063 223.245 351.716L214.299 378.978C213.757 380.631 214.627 382.401 216.244 382.931L242.908 391.68C244.524 392.211 246.274 391.301 246.816 389.648ZM220.854 378.967C219.488 378.519 218.752 377.03 219.21 375.633C219.667 374.242 221.144 373.474 222.509 373.922C223.87 374.369 224.605 375.862 224.148 377.254C223.69 378.65 222.215 379.413 220.854 378.967ZM226.863 360.653C225.497 360.205 224.761 358.716 225.219 357.32C225.676 355.928 227.153 355.161 228.519 355.609C229.88 356.055 230.614 357.549 230.158 358.941C229.7 360.337 228.224 361.1 226.863 360.653ZM234.205 373.205C232.84 372.757 232.103 371.268 232.561 369.872C233.018 368.48 234.495 367.713 235.861 368.161C237.222 368.607 237.956 370.101 237.5 371.492C237.042 372.889 235.566 373.652 234.205 373.205ZM241.547 385.757C240.181 385.309 239.445 383.82 239.903 382.424C240.36 381.032 241.837 380.264 243.202 380.712C244.563 381.159 245.299 382.653 244.842 384.044C244.384 385.44 242.909 386.204 241.547 385.757ZM247.556 367.443C246.191 366.995 245.454 365.507 245.912 364.11C246.369 362.719 247.846 361.951 249.211 362.399C250.572 362.846 251.308 364.339 250.851 365.731C250.393 367.127 248.918 367.89 247.556 367.443Z" fill="#F1E8FF"/>
<path d="M241.317 179.658L239.317 283.223L243.317 364.658" stroke="#2D2145" stroke-width="12"/>
<path d="M158.317 232.658L160.317 417.658" stroke="#F1F3FF" stroke-width="12"/>
<path d="M199.317 82.7232C199.317 82.7232 202.5 80 205 79C207.5 78 211.817 77.2231 211.817 77.2231" stroke="#2D2145" stroke-width="5" stroke-linecap="round"/>
<path d="M151.829 77.7168C151.829 77.7168 156.017 77.8363 158.541 78.774C161.065 79.7117 164.785 82.0348 164.785 82.0348" stroke="#2D2145" stroke-width="5" stroke-linecap="round"/>
</g>
</g>
<defs>
<linearGradient id="paint0_linear_341_1379" x1="168.802" y1="251.493" x2="168.67" y2="293.655" gradientUnits="userSpaceOnUse">
<stop stop-color="#F8D9AC"/>
<stop offset="1" stop-color="#FFE4BB" stop-opacity="0"/>
</linearGradient>
<linearGradient id="paint1_linear_341_1379" x1="206.226" y1="302.15" x2="244.281" y2="320.299" gradientUnits="userSpaceOnUse">
<stop stop-color="#F8D9AC"/>
<stop offset="1" stop-color="#FFE4BB" stop-opacity="0"/>
</linearGradient>
<clipPath id="clip0_341_1379">
<rect y="-22" width="350" height="397" rx="175" fill="white"/>
</clipPath>
<clipPath id="clip1_341_1379">
<rect width="287" height="432" fill="white" transform="translate(17 1)"/>
</clipPath>
</defs>
</svg>
