<!-- icon666.com - MILLIONS vector ICONS FREE --><svg viewBox="0 0 32 32" xmlns="http://www.w3.org/2000/svg" xmlns:xlink="http://www.w3.org/1999/xlink"><linearGradient id="linear-gradient" gradientUnits="userSpaceOnUse" x1="4" x2="28" y1="16" y2="16"><stop offset="0" stop-color="#0fdcdd"></stop><stop offset="1" stop-color="#46a1e8"></stop></linearGradient><g id="Ikon"><path d="m28 8a3.00328 3.00328 0 0 0 -3-3h-5.0238a3.0097 3.0097 0 0 0 -2.9972-3h-1.96484a3.00328 3.00328 0 0 0 -3 3h-5.01416a2.99169 2.99169 0 0 0 -.95239 5.83051l.968 16.34674a3.00256 3.00256 0 0 0 2.99464 2.82275h11.9795a3.00256 3.00256 0 0 0 2.99463-2.82275l.968-16.34668a2.9941 2.9941 0 0 0 2.04762-2.83057zm-12.98584-4h1.96484a1.00155 1.00155 0 0 1 .998 1h-3.96284a1.0013 1.0013 0 0 1 1-1zm7.97412 23.05908a1.001 1.001 0 0 1 -.99853.94092h-11.9795a1.001 1.001 0 0 1 -.99853-.94092l-.95072-16.05908h15.878zm2.01172-18.05908h-18a1 1 0 0 1 0-2h18a1 1 0 0 1 0 2zm-12.53564 12.12158 2.12158-2.12158-2.12158-2.12158a.99989.99989 0 1 1 1.41406-1.41406l2.12158 2.12158 2.12158-2.12158a.99989.99989 0 0 1 1.41406 1.41406l-2.12158 2.12158 2.12158 2.12158a.99989.99989 0 0 1 -1.41406 1.41406l-2.12158-2.12158-2.12158 2.12158a.99989.99989 0 1 1 -1.41406-1.41406z" fill="url(#linear-gradient)" style="fill: rgb(219, 0, 27);"></path></g></svg>