<!-- icon666.com - MILLIONS vector ICONS FREE --><svg id="Layer_1" viewBox="0 0 64 64" xmlns="http://www.w3.org/2000/svg"><g id="XMLID_1_"><g><path d="m37.73 11.86v10.91l-5.75 5.74-5.74-5.74v-10.91l5.74-5.74z" fill="#71cbd3" style="fill: rgb(255, 255, 255);"></path><path d="m58.48 25.01v6.37l-26.5 26.5-26.5-26.5v-6.37h6.37l19.07 19.08c.57.561 1.56.561 2.12 0l19.08-19.08z" fill="#71cbd3" style="fill: rgb(255, 255, 255);"></path><path d="m61.48 23.51v8.49c0 .4-.15.78-.44 1.06l-28 28c-.29.29-.67.44-1.06.44-.38 0-.76-.15-1.06-.44l-28-28c-.28-.28-.44-.66-.44-1.06v-8.49c0-.819.68-1.5 1.5-1.5h8.49c.4 0 .78.16 1.06.44l18.45 18.46 18.46-18.46c.28-.28.66-.44 1.06-.44h8.48c.83 0 1.5.68 1.5 1.5zm-3 7.87v-6.37h-6.36l-19.08 19.08c-.56.561-1.55.561-2.12 0l-19.07-19.08h-6.37v6.37l26.5 26.5z" fill="#000000" style="fill: rgb(255, 255, 255);"></path><path d="m40.73 11.24v12.15c0 .4-.16.78-.44 1.061l-7.25 7.24c-.29.3-.67.439-1.06.439-.38 0-.76-.14-1.06-.439l-7.24-7.24c-.28-.28-.44-.66-.44-1.061v-12.15c0-.4.16-.78.44-1.061l7.24-7.239c.59-.591 1.54-.591 2.12 0l7.25 7.239c.28.281.44.661.44 1.061zm-3 11.53v-10.91l-5.75-5.74-5.74 5.74v10.91l5.74 5.74z" fill="#000000" style="fill: rgb(255, 255, 255);"></path></g></g></svg>