<!-- icon666.com - MILLIONS vector ICONS FREE --><svg id="Capa_1" enable-background="new 0 0 448.028 448.028" viewBox="0 0 448.028 448.028" xmlns="http://www.w3.org/2000/svg"><g><g id="_98_edit"><path d="m372.967 166.268-66.72-66.72c-1.629.714-3.098 1.748-4.32 3.04l-241.6 254.4c-2.801 2.991-4.347 6.943-4.32 11.04v80h64c4.411.027 8.637-1.767 11.68-4.96l241.6-254.4c6.01-6.308 5.868-16.266-.32-22.4z" fill="#55ace3" style="fill: rgb(228, 179, 255);"></path><path d="m435.367 100.668-66.72-66.72c-1.572.732-2.985 1.765-4.16 3.04l-43.36 45.44-19.04 20.16c-1.096 1.039-1.967 2.291-2.56 3.68l77.92 77.92 14.4-15.04 43.68-46.08c6.054-6.265 5.983-16.222-.16-22.4z" fill="#ffc10e" style="fill: rgb(192, 184, 255);"></path><path d="m435.367 100.668-96-96c-2.878-3.202-7.063-4.912-11.36-4.64-4.299.06-8.394 1.847-11.36 4.96l-304 320c-2.917 2.941-4.581 6.898-4.64 11.04v96c0 8.837 7.163 16 16 16h288c8.837 0 16-7.163 16-16s-7.163-16-16-16h-154.72l278.24-292.96c6.054-6.265 5.983-16.222-.16-22.4zm-395.36 315.36v-73.6l228.64-240 73.44 73.28-228.96 240.32zm324-264.16-73.28-73.28 37.28-39.68 73.6 73.12zm60 280.16c0 8.837-7.163 16-16 16s-16-7.163-16-16 7.163-16 16-16 16 7.164 16 16zm-48 0c0 8.837-7.163 16-16 16s-16-7.163-16-16 7.163-16 16-16 16 7.164 16 16z" fill="#1a5083" style="fill: rgb(255, 255, 255);"></path></g></g></svg>