<!-- icon666.com - MILLIONS vector ICONS FREE --><svg viewBox="0 0 128 128" xmlns="http://www.w3.org/2000/svg"><g><g><path d="m105.844 67.407a20.379 20.379 0 0 0 -17.575 10.067 26.432 26.432 0 0 1 0 20.678 20.4 20.4 0 1 0 17.575-30.745z" fill="#4d5680" style="fill: rgb(231, 46, 255);"></path><path d="m22.155 67.407a20.378 20.378 0 0 1 17.575 10.067 26.443 26.443 0 0 0 0 20.678 20.4 20.4 0 1 1 -17.575-30.745z" fill="#4d5680" style="fill: rgb(231, 46, 255);"></path><path d="m110.858 93.579h-10.027a8.774 8.774 0 0 0 -8.774 8.774v.5a20.4 20.4 0 0 0 27.575 0v-.5a8.775 8.775 0 0 0 -8.774-8.774z" fill="#ffd830" style="fill: rgb(255, 220, 66);"></path><path d="m105.844 87.111a5.17 5.17 0 0 1 -5.17-5.17v-2.041a5.17 5.17 0 0 1 5.17-5.17 5.171 5.171 0 0 1 5.171 5.17v2.037a5.17 5.17 0 0 1 -5.171 5.174z" fill="#ffd9b3" style="fill: rgb(251, 209, 167);"></path><path d="m17.142 93.579h10.027a8.775 8.775 0 0 1 8.774 8.774v.5a20.4 20.4 0 0 1 -27.575 0v-.5a8.774 8.774 0 0 1 8.774-8.774z" fill="#80ecc6" style="fill: rgb(126, 168, 236);"></path><path d="m22.155 87.111a5.17 5.17 0 0 0 5.171-5.17v-2.041a5.171 5.171 0 0 0 -5.171-5.17 5.17 5.17 0 0 0 -5.17 5.17v2.037a5.17 5.17 0 0 0 5.17 5.174z" fill="#ffd9b3" style="fill: rgb(251, 209, 167);"></path><circle cx="64" cy="87.813" fill="#f3f5f9" r="26.375" style="fill: rgb(255, 251, 143);"></circle><path d="m70.48 92.679h-12.96a11.341 11.341 0 0 0 -11.34 11.341v3.234a26.365 26.365 0 0 0 35.64 0v-3.234a11.341 11.341 0 0 0 -11.34-11.341z" fill="#4d5680" style="fill: rgb(231, 46, 255);"></path><path d="m64 86.906a6.683 6.683 0 0 1 -6.683-6.683v-2.632a6.683 6.683 0 0 1 6.683-6.683 6.683 6.683 0 0 1 6.683 6.683v2.632a6.683 6.683 0 0 1 -6.683 6.683z" fill="#ffd9b3" style="fill: rgb(251, 209, 167);"></path><path d="m87.695 35.535-13.687 4.004-10.008-10.008-10.008 10.008-13.688-4.004 10.008 18.496h27.375z" fill="#ffd830" style="fill: rgb(255, 220, 66);"></path><g fill="#fab049"><path d="m59.031 18.781a4.969 4.969 0 1 1 4.969 4.968 4.969 4.969 0 0 1 -4.969-4.968z" fill="#fab049"></path><path d="m87.7 26.442a4.969 4.969 0 1 1 4.969 4.969 4.969 4.969 0 0 1 -4.969-4.969z" fill="#fab049"></path><path d="m40.3 26.442a4.969 4.969 0 1 0 -4.968 4.969 4.969 4.969 0 0 0 4.968-4.969z" fill="#fab049"></path></g></g><g><path d="m98.925 79.9v2.037a6.92 6.92 0 0 0 13.84 0v-2.037a6.92 6.92 0 0 0 -13.84 0zm10.34 0v2.037a3.42 3.42 0 0 1 -6.84 0v-2.037a3.42 3.42 0 0 1 6.84 0z" fill="#000000" style="fill: rgb(255, 255, 255);"></path><path d="m115.693 71.966a18.99 18.99 0 0 1 2.153 1.563 1.75 1.75 0 0 0 2.254-2.679 22.581 22.581 0 0 0 -2.555-1.85 1.75 1.75 0 0 0 -1.852 2.971z" fill="#000000" style="fill: rgb(255, 255, 255);"></path><path d="m126.962 81.091a1.75 1.75 0 1 0 -3.336 1.06 18.6 18.6 0 0 1 -2.83 16.772 10.533 10.533 0 0 0 -9.938-7.094h-10.027a10.532 10.532 0 0 0 -9.938 7.1q-.35-.468-.671-.961a28.02 28.02 0 0 0 0-20.3 18.73 18.73 0 0 1 15.623-8.506 1.75 1.75 0 0 0 0-3.5 22.249 22.249 0 0 0 -17.332 8.392 28.1 28.1 0 0 0 -49.026 0 22.156 22.156 0 1 0 0 27.528 28.1 28.1 0 0 0 49.026 0 22.15 22.15 0 0 0 38.449-20.486zm-116.829 20.965a7.027 7.027 0 0 1 7.009-6.727h10.027a7.027 7.027 0 0 1 7.008 6.713 18.559 18.559 0 0 1 -24.044.014zm26.974-3.132a10.532 10.532 0 0 0 -9.938-7.1h-10.027a10.533 10.533 0 0 0 -9.942 7.099 18.621 18.621 0 0 1 14.955-29.766 18.73 18.73 0 0 1 15.623 8.506 28.02 28.02 0 0 0 0 20.3q-.321.494-.671.961zm10.823 7.524v-2.428a9.6 9.6 0 0 1 9.589-9.59h12.961a9.6 9.6 0 0 1 9.59 9.59v2.428a24.548 24.548 0 0 1 -32.14 0zm35.579-3.634a13.1 13.1 0 0 0 -13.029-11.884h-12.961a13.1 13.1 0 0 0 -13.028 11.884 24.625 24.625 0 1 1 39.018 0zm10.314-.772a7.027 7.027 0 0 1 7.008-6.713h10.027a7.027 7.027 0 0 1 7.009 6.727 18.559 18.559 0 0 1 -24.044-.014z" fill="#000000" style="fill: rgb(255, 255, 255);"></path><path d="m22.155 72.984a6.929 6.929 0 0 0 -6.92 6.92v2.037a6.92 6.92 0 1 0 13.84 0v-2.041a6.928 6.928 0 0 0 -6.92-6.916zm3.42 8.957a3.42 3.42 0 1 1 -6.84 0v-2.041a3.42 3.42 0 1 1 6.84 0z" fill="#000000" style="fill: rgb(255, 255, 255);"></path><path d="m64 69.158a8.443 8.443 0 0 0 -8.433 8.433v2.633a8.433 8.433 0 0 0 16.866 0v-2.633a8.443 8.443 0 0 0 -8.433-8.433zm4.933 11.066a4.933 4.933 0 0 1 -9.866 0v-2.633a4.933 4.933 0 0 1 9.866 0z" fill="#000000" style="fill: rgb(255, 255, 255);"></path><path d="m38.943 34.435a1.752 1.752 0 0 0 -.177 1.933l10.007 18.495a1.751 1.751 0 0 0 1.539.917h27.375a1.751 1.751 0 0 0 1.54-.917l10.007-18.495a1.75 1.75 0 0 0 -2.03-2.513l-12.692 3.713-9.275-9.275a1.8 1.8 0 0 0 -2.474 0l-3.735 3.735a1.75 1.75 0 0 0 2.472 2.472l2.5-2.5 8.77 8.77a1.758 1.758 0 0 0 1.729.443l9.66-2.826-7.515 13.893h-25.289l-7.514-13.887 9.66 2.826a1.75 1.75 0 0 0 .982-3.36l-13.687-4a1.753 1.753 0 0 0 -1.853.576z" fill="#000000" style="fill: rgb(255, 255, 255);"></path><path d="m64 25.5a6.719 6.719 0 1 0 -6.719-6.719 6.726 6.726 0 0 0 6.719 6.719zm0-9.938a3.219 3.219 0 1 1 -3.219 3.219 3.224 3.224 0 0 1 3.219-3.22z" fill="#000000" style="fill: rgb(255, 255, 255);"></path><path d="m92.664 33.16a6.719 6.719 0 1 0 -6.719-6.719 6.726 6.726 0 0 0 6.719 6.719zm0-9.937a3.219 3.219 0 1 1 -3.219 3.218 3.223 3.223 0 0 1 3.219-3.218z" fill="#000000" style="fill: rgb(255, 255, 255);"></path><path d="m35.336 33.16a6.719 6.719 0 1 0 -6.719-6.719 6.726 6.726 0 0 0 6.719 6.719zm0-9.937a3.219 3.219 0 1 1 -3.219 3.218 3.223 3.223 0 0 1 3.219-3.218z" fill="#000000" style="fill: rgb(255, 255, 255);"></path></g></g></svg>