<svg width="129" height="104" viewBox="0 0 129 104" fill="none" xmlns="http://www.w3.org/2000/svg">
<path d="M105.875 55.345C102.322 55.3454 98.8315 56.2746 95.7486 58.0405C92.6657 59.8064 90.0981 62.3476 88.3003 65.412C89.69 68.6817 90.4063 72.1981 90.4063 75.751C90.4063 79.3038 89.69 82.8202 88.3003 86.09C90.1128 89.1705 92.7028 91.7207 95.811 93.4853C98.9191 95.2499 102.436 96.1669 106.01 96.1446C109.585 96.1222 113.09 95.1612 116.176 93.3578C119.262 91.5544 121.819 88.9719 123.593 85.869C125.367 82.766 126.294 79.2515 126.283 75.6774C126.271 72.1033 125.32 68.595 123.526 65.5039C121.732 62.4127 119.157 59.8472 116.059 58.0643C112.961 56.2814 109.449 55.3437 105.875 55.345Z" fill="#3733FF" fill-opacity="0.79"/>
<path d="M22.1862 55.345C25.7391 55.3453 29.2301 56.2745 32.313 58.0404C35.3959 59.8063 37.9635 62.3475 39.7612 65.412C38.3721 68.6819 37.6562 72.1982 37.6562 75.751C37.6562 79.3037 38.3721 82.82 39.7612 86.09C37.9487 89.1705 35.3587 91.7207 32.2506 93.4853C29.1424 95.2499 25.6252 96.1669 22.0511 96.1446C18.477 96.1222 14.9715 95.1612 11.8857 93.3578C8.79988 91.5544 6.24201 88.9719 4.46824 85.869C2.69448 82.766 1.76708 79.2515 1.77892 75.6774C1.79076 72.1033 2.74142 68.595 4.53569 65.5039C6.32997 62.4127 8.90489 59.8472 12.0026 58.0643C15.1003 56.2814 18.6121 55.3437 22.1862 55.345Z" fill="#BC2EFF"/>
<path d="M110.889 81.5171H100.862C98.5354 81.5171 96.3037 82.4415 94.6582 84.0869C93.0128 85.7324 92.0884 87.9641 92.0884 90.2911V90.7911C95.8511 94.2415 100.771 96.1556 105.876 96.1556C110.981 96.1556 115.901 94.2415 119.663 90.7911V90.2911C119.663 87.9642 118.739 85.7326 117.093 84.0872C115.448 82.4418 113.216 81.5174 110.889 81.5171Z" fill="#A5D4FF"/>
<path d="M105.875 75.049C104.504 75.049 103.189 74.5043 102.219 73.5347C101.25 72.5651 100.705 71.2501 100.705 69.879V67.838C100.705 66.4668 101.25 65.1518 102.219 64.1822C103.189 63.2127 104.504 62.668 105.875 62.668C107.246 62.668 108.561 63.2126 109.531 64.1822C110.501 65.1517 111.046 66.4667 111.046 67.838V69.875C111.047 70.5543 110.913 71.2271 110.654 71.8549C110.394 72.4827 110.013 73.0531 109.533 73.5336C109.053 74.0142 108.482 74.3953 107.855 74.6553C107.227 74.9153 106.554 75.0491 105.875 75.049Z" fill="white"/>
<path d="M17.1734 81.5171H27.2004C29.5273 81.5174 31.7589 82.4418 33.4043 84.0872C35.0497 85.7326 35.9741 87.9642 35.9744 90.2911V90.7911C32.2117 94.2415 27.2921 96.1556 22.1869 96.1556C17.0817 96.1556 12.1621 94.2415 8.39941 90.7911V90.2911C8.39941 87.9641 9.32382 85.7324 10.9693 84.0869C12.6147 82.4415 14.8464 81.5171 17.1734 81.5171Z" fill="#F1B8FF"/>
<path d="M22.1861 75.049C22.8651 75.0491 23.5375 74.9155 24.1649 74.6557C24.7923 74.396 25.3623 74.0152 25.8425 73.5351C26.3227 73.055 26.7036 72.485 26.9635 71.8577C27.2234 71.2303 27.3571 70.558 27.3571 69.879V67.838C27.3568 66.4667 26.8119 65.1517 25.8422 64.1822C24.8725 63.2126 23.5574 62.668 22.1861 62.668C21.5072 62.668 20.8349 62.8017 20.2076 63.0615C19.5804 63.3213 19.0105 63.7021 18.5304 64.1822C18.0503 64.6623 17.6695 65.2322 17.4097 65.8595C17.1498 66.4867 17.0161 67.159 17.0161 67.838V69.875C17.0156 70.5542 17.1489 71.227 17.4085 71.8547C17.6681 72.4824 18.0488 73.0528 18.529 73.5333C19.0091 74.0138 19.5792 74.395 20.2067 74.655C20.8342 74.9151 21.5068 75.049 22.1861 75.049Z" fill="white"/>
<path d="M64.0312 102.126C78.5978 102.126 90.4062 90.3175 90.4062 75.751C90.4062 61.1845 78.5978 49.376 64.0312 49.376C49.4647 49.376 37.6562 61.1845 37.6562 75.751C37.6562 90.3175 49.4647 102.126 64.0312 102.126Z" fill="#FFF496"/>
<path d="M70.5114 80.6169H57.5514C54.5438 80.6172 51.6594 81.8122 49.5328 83.939C47.4061 86.0658 46.2114 88.9503 46.2114 91.9579V95.1919C51.0744 99.6518 57.433 102.126 64.0314 102.126C70.6298 102.126 76.9884 99.6518 81.8514 95.1919V91.9579C81.8514 88.9503 80.6567 86.0658 78.5301 83.939C76.4034 81.8122 73.5191 80.6172 70.5114 80.6169Z" fill="#FFDA15"/>
<path d="M64.0311 74.8439C62.2587 74.8439 60.5589 74.1398 59.3055 72.8865C58.0522 71.6332 57.3481 69.9334 57.3481 68.1609V65.529C57.3481 63.7565 58.0522 62.0567 59.3055 60.8034C60.5589 59.55 62.2587 58.8459 64.0311 58.8459C65.8036 58.8459 67.5034 59.55 68.7567 60.8034C70.01 62.0567 70.7141 63.7565 70.7141 65.529V68.1609C70.7141 69.9334 70.01 71.6332 68.7567 72.8865C67.5034 74.1398 65.8036 74.8439 64.0311 74.8439Z" fill="white"/>
<path d="M87.7264 23.473L74.0395 27.477L64.0314 17.469L54.0234 27.477L40.3354 23.473L51.5 42.5H77L87.7264 23.473Z" fill="#FFE455"/>
<path d="M59.062 6.71903C59.0618 5.73621 59.3531 4.7754 59.899 3.95813C60.4448 3.14085 61.2208 2.5038 62.1288 2.12756C63.0367 1.75131 64.0358 1.65276 64.9998 1.84438C65.9638 2.036 66.8492 2.50917 67.5443 3.20406C68.2393 3.89895 68.7127 4.78434 68.9045 5.74825C69.0963 6.71217 68.9979 7.71132 68.6219 8.61935C68.2458 9.52737 67.6089 10.3035 66.7917 10.8495C65.9746 11.3956 65.0138 11.687 64.031 11.687C62.7133 11.687 61.4496 11.1636 60.5178 10.232C59.5859 9.30034 59.0623 8.03671 59.062 6.71903Z" fill="#FFE455"/>
<path d="M87.731 14.3801C87.731 13.3974 88.0224 12.4367 88.5684 11.6195C89.1144 10.8024 89.8904 10.1655 90.7984 9.78938C91.7064 9.41329 92.7055 9.31488 93.6694 9.50661C94.6333 9.69834 95.5187 10.1716 96.2136 10.8665C96.9085 11.5614 97.3817 12.4468 97.5735 13.4107C97.7652 14.3746 97.6668 15.3737 97.2907 16.2817C96.9146 17.1897 96.2777 17.9657 95.4606 18.5117C94.6434 19.0577 93.6827 19.3491 92.7 19.3491C91.3821 19.3491 90.1182 18.8256 89.1863 17.8937C88.2545 16.9619 87.731 15.698 87.731 14.3801Z" fill="#FFE455"/>
<path d="M40.3311 14.3801C40.3311 13.3973 40.0396 12.4366 39.4936 11.6194C38.9475 10.8022 38.1714 10.1653 37.2634 9.78928C36.3554 9.41322 35.3562 9.31488 34.3923 9.50669C33.4284 9.6985 32.543 10.1718 31.8481 10.8669C31.1532 11.5619 30.68 12.4474 30.4884 13.4113C30.2968 14.3753 30.3954 15.3744 30.7716 16.2824C31.1478 17.1903 31.7849 17.9663 32.6022 18.5122C33.4194 19.0581 34.3803 19.3493 35.3631 19.3491C36.6808 19.3489 37.9444 18.8252 38.876 17.8934C39.8077 16.9616 40.3311 15.6978 40.3311 14.3801Z" fill="#FFE455"/>
<path d="M98.9561 67.838V69.875C98.9561 71.7103 99.6851 73.4704 100.983 74.7681C102.281 76.0659 104.041 76.795 105.876 76.795C107.711 76.795 109.471 76.0659 110.769 74.7681C112.067 73.4704 112.796 71.7103 112.796 69.875V67.838C112.796 66.0027 112.067 64.2425 110.769 62.9448C109.471 61.647 107.711 60.918 105.876 60.918C104.041 60.918 102.281 61.647 100.983 62.9448C99.6851 64.2425 98.9561 66.0027 98.9561 67.838ZM109.296 67.838V69.875C109.296 70.782 108.936 71.6519 108.294 72.2933C107.653 72.9346 106.783 73.295 105.876 73.295C104.969 73.295 104.099 72.9346 103.458 72.2933C102.816 71.6519 102.456 70.782 102.456 69.875V67.838C102.456 66.9309 102.816 66.061 103.458 65.4197C104.099 64.7783 104.969 64.418 105.876 64.418C106.783 64.418 107.653 64.7783 108.294 65.4197C108.936 66.061 109.296 66.9309 109.296 67.838Z" fill="#A5D4FF"/>
<path d="M115.724 59.9041C116.477 60.3741 117.197 60.8964 117.877 61.4671C118.232 61.766 118.692 61.9115 119.154 61.8717C119.617 61.8318 120.045 61.6098 120.343 61.2546C120.642 60.8993 120.788 60.4399 120.748 59.9773C120.708 59.5148 120.486 59.087 120.131 58.7881C119.323 58.1126 118.47 57.4944 117.576 56.9381C117.182 56.6925 116.707 56.6135 116.254 56.7184C115.802 56.8233 115.41 57.1036 115.164 57.4976C114.919 57.8916 114.84 58.367 114.945 58.8192C115.05 59.2715 115.33 59.6635 115.724 59.9091V59.9041Z" fill="white"/>
<path d="M126.993 69.029C126.852 68.5866 126.542 68.2182 126.13 68.0048C125.718 67.7914 125.237 67.7504 124.795 67.891C124.353 68.0316 123.984 68.3421 123.771 68.7543C123.557 69.1665 123.516 69.6466 123.657 70.089C124.553 72.9082 124.764 75.9005 124.272 78.8174C123.779 81.7344 122.598 84.4919 120.827 86.861C120.113 84.7928 118.772 82.9984 116.991 81.7271C115.21 80.4558 113.077 79.7707 110.889 79.767H100.862C98.6731 79.771 96.5398 80.4569 94.7588 81.7293C92.9777 83.0018 91.6373 84.7976 90.924 86.867C90.6907 86.555 90.467 86.2347 90.253 85.906C92.7904 79.3772 92.7904 72.1348 90.253 65.606C91.948 63.0043 94.2632 60.8648 96.9903 59.38C99.7174 57.8952 102.771 57.1117 105.876 57.1C106.34 57.1 106.785 56.9156 107.113 56.5874C107.442 56.2592 107.626 55.8141 107.626 55.35C107.626 54.8859 107.442 54.4407 107.113 54.1126C106.785 53.7844 106.34 53.6 105.876 53.6C102.543 53.6112 99.255 54.3712 96.2551 55.8237C93.2552 57.2763 90.6199 59.3843 88.544 61.992C86.1028 57.6359 82.5448 54.009 78.2364 51.4847C73.9279 48.9603 69.0246 47.6296 64.031 47.6296C59.0375 47.6296 54.1342 48.9603 49.8257 51.4847C45.5173 54.009 41.9593 57.6359 39.518 61.992C36.6607 58.3878 32.7525 55.7621 28.3356 54.4792C23.9187 53.1964 19.212 53.3199 14.8685 54.8328C10.525 56.3456 6.75996 59.1727 4.09569 62.9219C1.43142 66.6711 0 71.1566 0 75.756C0 80.3554 1.43142 84.8409 4.09569 88.5901C6.75996 92.3393 10.525 95.1664 14.8685 96.6792C19.212 98.192 23.9187 98.3156 28.3356 97.0328C32.7525 95.7499 36.6607 93.1242 39.518 89.52C41.9593 93.8761 45.5173 97.503 49.8257 100.027C54.1342 102.552 59.0375 103.882 64.031 103.882C69.0246 103.882 73.9279 102.552 78.2364 100.027C82.5448 97.503 86.1028 93.8761 88.544 89.52C91.767 93.5728 96.3079 96.3683 101.378 97.4209C106.448 98.4735 111.726 97.7166 116.296 95.2817C120.866 92.8469 124.438 88.888 126.392 84.0928C128.347 79.2977 128.559 73.9695 126.993 69.034V69.029ZM10.164 89.994C10.2413 88.1859 11.0132 86.4773 12.3188 85.2242C13.6245 83.9711 15.3633 83.27 17.173 83.267H27.2C29.0073 83.2701 30.7439 83.9693 32.049 85.2195C33.354 86.4696 34.1273 88.1746 34.208 89.98C30.8539 92.8353 26.5935 94.4045 22.1886 94.4071C17.7837 94.4097 13.5215 92.8454 10.164 89.994ZM37.138 86.862C36.4248 84.7926 35.0844 82.9968 33.3033 81.7243C31.5223 80.4519 29.389 79.766 27.2 79.762H17.173C14.9836 79.7652 12.8496 80.4506 11.0678 81.7229C9.28592 82.9952 7.94485 84.7912 7.23105 86.861C5.16112 84.0904 3.90366 80.7982 3.59959 77.3532C3.29552 73.9081 3.95685 70.4465 5.50948 67.3562C7.0621 64.2659 9.44466 61.6691 12.3901 59.8567C15.3356 58.0443 18.7276 57.088 22.186 57.095C25.2912 57.1067 28.3446 57.8902 31.0718 59.375C33.7989 60.8598 36.1141 62.9993 37.809 65.601C35.2717 72.1298 35.2717 79.3722 37.809 85.901C37.595 86.2303 37.3714 86.5507 37.138 86.862ZM47.961 94.386V91.958C47.9637 89.4156 48.9748 86.978 50.7725 85.1801C52.5701 83.3822 55.0076 82.3709 57.55 82.368H70.511C73.0537 82.3706 75.4914 83.3819 77.2893 85.1798C79.0872 86.9777 80.0984 89.4154 80.101 91.958V94.386C75.6389 98.2501 69.9338 100.377 64.031 100.377C58.1283 100.377 52.4232 98.2501 47.961 94.386ZM83.54 90.752C83.2373 87.5047 81.7342 84.4872 79.3247 82.2894C76.9151 80.0916 73.7724 78.8716 70.511 78.868H57.55C54.2889 78.8718 51.1464 80.0919 48.7371 82.2897C46.3277 84.4875 44.8248 87.5049 44.522 90.752C41.7151 87.1077 39.9851 82.75 39.5279 78.1728C39.0708 73.5956 39.9049 68.9819 41.9356 64.8545C43.9664 60.727 47.1127 57.2509 51.0179 54.82C54.9231 52.3891 59.4311 51.1007 64.031 51.1007C68.631 51.1007 73.139 52.3891 77.0442 54.82C80.9494 57.2509 84.0957 60.727 86.1264 64.8545C88.1572 68.9819 88.9913 73.5956 88.5341 78.1728C88.077 82.75 86.347 87.1077 83.54 90.752ZM93.854 89.98C93.9348 88.1746 94.708 86.4696 96.0131 85.2195C97.3182 83.9693 99.0548 83.2701 100.862 83.267H110.889C112.699 83.27 114.438 83.9711 115.743 85.2242C117.049 86.4773 117.821 88.1859 117.898 89.994C114.541 92.8454 110.278 94.4097 105.873 94.4071C101.469 94.4045 97.2082 92.8353 93.854 89.98Z" fill="white"/>
<path d="M22.1861 60.9221C20.3515 60.9245 18.5928 61.6543 17.2956 62.9516C15.9983 64.2488 15.2685 66.0076 15.2661 67.8421V69.8791C15.2661 70.7879 15.4451 71.6877 15.7929 72.5273C16.1406 73.3669 16.6504 74.1297 17.2929 74.7723C17.9355 75.4149 18.6984 75.9246 19.5379 76.2724C20.3775 76.6201 21.2774 76.7991 22.1861 76.7991C23.0949 76.7991 23.9947 76.6201 24.8343 76.2724C25.6739 75.9246 26.4367 75.4149 27.0793 74.7723C27.7219 74.1297 28.2316 73.3669 28.5794 72.5273C28.9271 71.6877 29.1061 70.7879 29.1061 69.8791V67.8381C29.1029 66.0042 28.3727 64.2463 27.0755 62.9499C25.7784 61.6534 24.0201 60.9242 22.1861 60.9221ZM25.6061 69.8791C25.6061 70.7862 25.2458 71.656 24.6044 72.2974C23.963 72.9388 23.0932 73.2991 22.1861 73.2991C21.2791 73.2991 20.4092 72.9388 19.7678 72.2974C19.1264 71.656 18.7661 70.7862 18.7661 69.8791V67.8381C18.7661 66.9311 19.1264 66.0612 19.7678 65.4198C20.4092 64.7784 21.2791 64.4181 22.1861 64.4181C23.0932 64.4181 23.963 64.7784 24.6044 65.4198C25.2458 66.0612 25.6061 66.9311 25.6061 67.8381V69.8791Z" fill="#F1B8FF"/>
<path d="M64.0311 57.0959C61.7954 57.0986 59.652 57.9879 58.071 59.5688C56.4901 61.1498 55.6008 63.2932 55.5981 65.529V68.1619C55.5981 70.3985 56.4866 72.5435 58.0681 74.125C59.6496 75.7065 61.7946 76.5949 64.0311 76.5949C66.2677 76.5949 68.4127 75.7065 69.9942 74.125C71.5757 72.5435 72.4641 70.3985 72.4641 68.1619V65.529C72.4615 63.2932 71.5722 61.1498 69.9912 59.5688C68.4103 57.9879 66.2669 57.0986 64.0311 57.0959ZM68.9641 68.1619C68.9641 69.4703 68.4444 70.725 67.5193 71.6501C66.5942 72.5752 65.3395 73.0949 64.0311 73.0949C62.7228 73.0949 61.4681 72.5752 60.543 71.6501C59.6179 70.725 59.0981 69.4703 59.0981 68.1619V65.529C59.0981 64.2206 59.6179 62.9659 60.543 62.0408C61.4681 61.1157 62.7228 60.5959 64.0311 60.5959C65.3395 60.5959 66.5942 61.1157 67.5193 62.0408C68.4444 62.9659 68.9641 64.2206 68.9641 65.529V68.1619Z" fill="#FFDA15"/>
<path d="M38.9739 22.3729C38.7572 22.6418 38.6247 22.9687 38.5932 23.3127C38.5617 23.6566 38.6326 24.0021 38.7969 24.3059L48.8039 42.8009C48.9541 43.0782 49.1764 43.3097 49.4472 43.4711C49.7181 43.6325 50.0276 43.7178 50.3429 43.7179H77.7179C78.0334 43.718 78.343 43.6328 78.6141 43.4714C78.8852 43.31 79.1076 43.0783 79.2579 42.8009L89.2649 24.3059C89.4294 24.0022 89.5003 23.6565 89.4687 23.3125C89.4371 22.9686 89.3044 22.6416 89.0874 22.3729C88.8703 22.1042 88.5786 21.9057 88.2489 21.8025C87.9193 21.6993 87.5665 21.696 87.2349 21.7929L74.5429 25.5059L65.2679 16.2309C64.9337 15.9147 64.491 15.7385 64.0309 15.7385C63.5708 15.7385 63.1281 15.9147 62.7939 16.2309L59.0589 19.9659C58.7567 20.2987 58.5942 20.7351 58.605 21.1845C58.6159 21.6339 58.7992 22.0619 59.1171 22.3797C59.4349 22.6976 59.8629 22.881 60.3123 22.8918C60.7618 22.9026 61.1981 22.7401 61.5309 22.4379L64.0309 19.9379L72.8009 28.7079C73.0233 28.9294 73.301 29.0873 73.605 29.1652C73.909 29.2431 74.2284 29.2381 74.5299 29.1509L84.1899 26.3249L76.6749 40.2179H51.3859L43.8719 26.3309L53.5319 29.1569C53.9775 29.2871 54.4565 29.235 54.8636 29.012C55.2708 28.7891 55.5727 28.4135 55.7029 27.9679C55.8331 27.5224 55.781 27.0433 55.558 26.6362C55.3351 26.229 54.9595 25.9271 54.5139 25.7969L40.8269 21.7969C40.4956 21.6998 40.1431 21.7027 39.8134 21.8051C39.4838 21.9076 39.1917 22.1051 38.9739 22.3729Z" fill="white"/>
<path d="M64.031 13.438C65.3599 13.438 66.659 13.0439 67.7639 12.3056C68.8688 11.5674 69.73 10.518 70.2386 9.29025C70.7471 8.06252 70.8802 6.71155 70.6209 5.40819C70.3617 4.10483 69.7217 2.90762 68.7821 1.96795C67.8424 1.02828 66.6452 0.388361 65.3418 0.129107C64.0385 -0.130147 62.6875 0.00291067 61.4598 0.511456C60.232 1.02 59.1827 1.88119 58.4444 2.98613C57.7061 4.09106 57.312 5.39011 57.312 6.719C57.3139 8.50042 58.0224 10.2084 59.282 11.468C60.5417 12.7277 62.2496 13.4361 64.031 13.438ZM64.031 3.5C64.6677 3.5 65.29 3.68879 65.8194 4.0425C66.3488 4.39621 66.7613 4.89895 67.005 5.48715C67.2486 6.07534 67.3124 6.72257 67.1882 7.347C67.064 7.97142 66.7574 8.54499 66.3072 8.99518C65.857 9.44536 65.2834 9.75195 64.659 9.87615C64.0346 10.0004 63.3874 9.93661 62.7992 9.69297C62.211 9.44933 61.7082 9.03674 61.3545 8.50738C61.0008 7.97802 60.812 7.35566 60.812 6.719C60.8131 5.8655 61.1525 5.04725 61.7559 4.44364C62.3594 3.84003 63.1775 3.50033 64.031 3.499V3.5Z" fill="white"/>
<path d="M92.6951 21.0979C94.024 21.0979 95.323 20.7039 96.4279 19.9656C97.5329 19.2273 98.3941 18.1779 98.9026 16.9502C99.4112 15.7224 99.5442 14.3715 99.285 13.0681C99.0257 11.7647 98.3858 10.5675 97.4461 9.62786C96.5065 8.6882 95.3092 8.04827 94.0059 7.78902C92.7025 7.52976 91.3516 7.66282 90.1238 8.17137C88.8961 8.67991 87.8467 9.54111 87.1084 10.646C86.3701 11.751 85.9761 13.05 85.9761 14.3789C85.9779 16.1603 86.6864 17.8683 87.9461 19.1279C89.2057 20.3876 90.9137 21.0961 92.6951 21.0979ZM92.6951 11.1609C93.3318 11.1609 93.9542 11.3497 94.4836 11.7035C95.0129 12.0572 95.4255 12.56 95.6691 13.1483C95.9127 13.7365 95.9764 14.3838 95.8521 15.0083C95.7279 15.6327 95.4212 16.2063 94.9709 16.6564C94.5206 17.1066 93.9469 17.4131 93.3225 17.5372C92.698 17.6613 92.0507 17.5974 91.4625 17.3536C90.8743 17.1098 90.3717 16.6971 90.0181 16.1676C89.6645 15.6381 89.4759 15.0156 89.4761 14.3789C89.4774 13.5257 89.817 12.7078 90.4204 12.1046C91.0238 11.5013 91.8418 11.162 92.6951 11.1609Z" fill="white"/>
<path d="M35.3669 21.0979C36.6958 21.0979 37.9949 20.7039 39.0998 19.9656C40.2048 19.2273 41.0659 18.1779 41.5745 16.9502C42.083 15.7224 42.2161 14.3715 41.9568 13.0681C41.6976 11.7647 41.0577 10.5675 40.118 9.62786C39.1783 8.6882 37.9811 8.04827 36.6778 7.78902C35.3744 7.52976 34.0234 7.66282 32.7957 8.17137C31.568 8.67991 30.5186 9.54111 29.7803 10.646C29.042 11.751 28.6479 13.05 28.6479 14.3789C28.6498 16.1603 29.3583 17.8683 30.6179 19.1279C31.8776 20.3876 33.5855 21.0961 35.3669 21.0979ZM35.3669 11.1609C36.0036 11.1609 36.6261 11.3497 37.1554 11.7035C37.6848 12.0572 38.0974 12.56 38.341 13.1483C38.5846 13.7365 38.6483 14.3838 38.524 15.0083C38.3997 15.6327 38.0931 16.2063 37.6428 16.6564C37.1925 17.1066 36.6188 17.4131 35.9943 17.5372C35.3698 17.6613 34.7226 17.5974 34.1344 17.3536C33.5462 17.1098 33.0435 16.6971 32.69 16.1676C32.3364 15.6381 32.1478 15.0156 32.1479 14.3789C32.1493 13.5257 32.4889 12.7078 33.0923 12.1046C33.6957 11.5013 34.5137 11.162 35.3669 11.1609Z" fill="white"/>
</svg>
