<svg width="425" height="66" viewBox="0 0 425 66" fill="none" xmlns="http://www.w3.org/2000/svg">
<path fill-rule="evenodd" clip-rule="evenodd" d="M17.9661 7.88721H0.14209V48.9952H18.6771V40.7682H10.8311V31.7292H17.5091V23.9092H10.8311V16.1142H17.9661V7.88721ZM186.504 25.7782H175.814V22.0452C175.814 19.6922 175.713 18.2202 175.509 17.6272C175.306 17.0352 174.824 16.7392 174.062 16.7392C173.402 16.7392 172.953 16.9922 172.716 17.5002C172.479 18.0082 172.361 19.3112 172.361 21.4102V41.1392C172.361 42.9842 172.479 44.1982 172.716 44.7822C172.953 45.3662 173.427 45.6582 174.138 45.6582C174.917 45.6582 175.446 45.3282 175.725 44.6682C176.005 44.0082 176.144 42.7222 176.144 40.8092V35.9342H173.986V29.6882H186.504V51.7522H179.775L178.785 48.8072C178.057 50.0762 177.139 51.0292 176.03 51.6632C174.921 52.2982 173.614 52.6152 172.107 52.6152C170.313 52.6152 168.633 52.1802 167.067 51.3082C165.501 50.4362 164.312 49.3572 163.5 48.0712C162.687 46.7842 162.179 45.4342 161.976 44.0212C161.773 42.6072 161.671 40.4872 161.671 37.6602V25.4482C161.671 21.5202 161.883 18.6682 162.306 16.8912C162.729 15.1142 163.944 13.4842 165.95 12.0032C167.956 10.5222 170.55 9.78223 173.732 9.78223C176.864 9.78223 179.462 10.4252 181.527 11.7112C183.592 12.9982 184.938 14.5252 185.564 16.2942C186.19 18.0632 186.504 20.6322 186.504 24.0002V25.7782ZM198.191 31.1102H188.568V28.8502C188.568 26.2432 188.868 24.2332 189.469 22.8202C190.07 21.4062 191.276 20.1582 193.087 19.0742C194.898 17.9912 197.251 17.4492 200.146 17.4492C203.616 17.4492 206.231 18.0632 207.991 19.2902C209.752 20.5182 210.81 22.0242 211.165 23.8102C211.521 25.5962 211.698 29.2732 211.698 34.8422V51.7522H201.72V48.7562C201.094 49.9582 200.285 50.8592 199.295 51.4602C198.305 52.0612 197.124 52.3622 195.753 52.3622C193.959 52.3622 192.313 51.8582 190.815 50.8512C189.317 49.8442 188.568 47.6392 188.568 44.2372V41.4692C188.568 38.9472 188.965 37.2292 189.761 36.3152C190.557 35.4012 192.529 34.3342 195.677 33.1152C199.045 31.7952 200.848 30.9072 201.085 30.4492C201.322 29.9922 201.441 29.0612 201.441 27.6572C201.441 25.8962 201.309 24.7492 201.047 24.2162C200.785 23.6832 200.349 23.4162 199.739 23.4162C199.045 23.4162 198.614 23.6412 198.445 24.0892C198.275 24.5382 198.191 25.7012 198.191 27.5802V31.1102ZM201.441 35.7312C199.799 36.9332 198.847 37.9402 198.584 38.7522C198.322 39.5652 198.191 40.7332 198.191 42.2562C198.191 44.0002 198.305 45.1252 198.533 45.6332C198.762 46.1412 199.215 46.3952 199.892 46.3952C200.535 46.3952 200.954 46.1962 201.149 45.7982C201.343 45.4002 201.441 44.3552 201.441 42.6622V35.7312ZM223.868 21.2582L224.046 18.0592H213.915V51.7522H223.868V28.3932C223.868 26.7682 223.885 25.7062 223.919 25.2062C223.953 24.7072 224.13 24.2842 224.452 23.9372C224.774 23.5902 225.163 23.4162 225.62 23.4162C226.348 23.4162 226.792 23.7462 226.953 24.4072C227.114 25.0672 227.194 27.0472 227.194 30.3482V51.7522H237.147V29.7892C237.147 26.8952 237.253 25.1092 237.465 24.4322C237.676 23.7552 238.146 23.4162 238.874 23.4162C239.585 23.4162 240.038 23.7592 240.232 24.4452C240.427 25.1302 240.524 26.9122 240.524 29.7892V51.7522H250.477V27.8092C250.477 25.0502 250.317 23.0572 249.995 21.8292C249.673 20.6022 248.941 19.5652 247.799 18.7192C246.656 17.8732 245.213 17.4492 243.47 17.4492C242.149 17.4492 240.947 17.7672 239.864 18.4022C238.781 19.0362 237.807 19.9892 236.944 21.2582C235.37 18.7192 233.212 17.4492 230.47 17.4492C229.065 17.4492 227.812 17.7672 226.712 18.4022C225.611 19.0362 224.664 19.9892 223.868 21.2582ZM275.926 35.5022H262.647V42.7892C262.647 44.3132 262.757 45.2952 262.977 45.7352C263.197 46.1752 263.62 46.3952 264.246 46.3952C265.025 46.3952 265.546 46.1032 265.808 45.5192C266.07 44.9352 266.202 43.8052 266.202 42.1292V37.6862H275.926V40.1742C275.926 42.2562 275.795 43.8562 275.533 44.9732C275.27 46.0902 274.657 47.2832 273.692 48.5532C272.727 49.8232 271.504 50.7752 270.023 51.4092C268.542 52.0442 266.684 52.3622 264.45 52.3622C262.283 52.3622 260.37 52.0482 258.711 51.4222C257.052 50.7962 255.762 49.9372 254.839 48.8452C253.917 47.7532 253.278 46.5512 252.922 45.2402C252.567 43.9282 252.389 42.0192 252.389 39.5142V29.6882C252.389 26.7422 252.787 24.4192 253.582 22.7182C254.378 21.0172 255.681 19.7132 257.493 18.8082C259.304 17.9022 261.386 17.4492 263.739 17.4492C266.616 17.4492 268.99 17.9952 270.861 19.0872C272.731 20.1792 274.043 21.6262 274.796 23.4292C275.55 25.2322 275.926 27.7672 275.926 31.0332V35.5022ZM265.643 30.0182V27.5552C265.643 25.8112 265.55 24.6862 265.364 24.1782C265.177 23.6702 264.797 23.4162 264.221 23.4162C263.51 23.4162 263.07 23.6322 262.901 24.0642C262.731 24.4952 262.647 25.6592 262.647 27.5552V30.0182H265.643ZM307.654 18.871V10.645H284.294V18.871H290.617V51.752H301.306V18.871H307.654ZM318.732 10.645V19.887C319.612 19.074 320.564 18.465 321.588 18.059C322.612 17.653 323.708 17.449 324.876 17.449C326.67 17.449 328.198 17.907 329.459 18.821C330.72 19.735 331.49 20.788 331.77 21.982C332.049 23.175 332.189 25.354 332.189 28.52V51.752H321.931V28.037C321.931 26.074 321.833 24.813 321.639 24.254C321.444 23.696 321.008 23.416 320.331 23.416C319.705 23.416 319.282 23.704 319.062 24.28C318.842 24.855 318.732 25.998 318.732 27.707V51.752H308.474V10.645H318.732ZM344.358 35.5022H357.637V31.0332C357.637 27.7672 357.261 25.2322 356.508 23.4292C355.754 21.6262 354.442 20.1792 352.572 19.0872C350.702 17.9952 348.328 17.4492 345.45 17.4492C343.097 17.4492 341.015 17.9022 339.204 18.8082C337.393 19.7132 336.089 21.0172 335.294 22.7182C334.498 24.4192 334.1 26.7422 334.1 29.6882V39.5142C334.1 42.0192 334.278 43.9282 334.634 45.2402C334.989 46.5512 335.628 47.7532 336.551 48.8452C337.473 49.9372 338.764 50.7962 340.423 51.4222C342.081 52.0482 343.994 52.3622 346.161 52.3622C348.395 52.3622 350.253 52.0442 351.734 51.4092C353.215 50.7752 354.438 49.8232 355.403 48.5532C356.368 47.2832 356.982 46.0902 357.244 44.9732C357.506 43.8562 357.637 42.2562 357.637 40.1742V37.6862H347.913V42.1292C347.913 43.8052 347.782 44.9352 347.519 45.5192C347.257 46.1032 346.736 46.3952 345.958 46.3952C345.331 46.3952 344.908 46.1752 344.688 45.7352C344.468 45.2952 344.358 44.3132 344.358 42.7892V35.5022ZM347.354 27.5552V30.0182H344.358V27.5552C344.358 25.6592 344.443 24.4952 344.612 24.0642C344.781 23.6322 345.221 23.4162 345.932 23.4162C346.508 23.4162 346.889 23.6702 347.075 24.1782C347.261 24.6862 347.354 25.8112 347.354 27.5552ZM382.883 29.8912V38.1432C382.883 41.1732 382.731 43.3942 382.426 44.8082C382.121 46.2212 381.47 47.5422 380.471 48.7692C379.472 49.9962 378.19 50.9022 376.624 51.4862C375.059 52.0702 373.26 52.3622 371.229 52.3622C368.961 52.3622 367.039 52.1122 365.465 51.6132C363.891 51.1132 362.668 50.3602 361.796 49.3532C360.924 48.3462 360.302 47.1272 359.93 45.6972C359.558 44.2662 359.371 42.1212 359.371 39.2602V30.6272C359.371 27.4962 359.71 25.0502 360.387 23.2892C361.064 21.5292 362.283 20.1152 364.043 19.0492C365.804 17.9832 368.055 17.4492 370.797 17.4492C373.099 17.4492 375.076 17.7922 376.726 18.4782C378.376 19.1632 379.65 20.0562 380.547 21.1572C381.444 22.2572 382.058 23.3912 382.388 24.5592C382.718 25.7272 382.883 27.5042 382.883 29.8912ZM372.625 27.3522C372.625 25.6252 372.532 24.5382 372.346 24.0892C372.16 23.6412 371.762 23.4162 371.153 23.4162C370.543 23.4162 370.137 23.6412 369.934 24.0892C369.731 24.5382 369.629 25.6252 369.629 27.3522V42.5612C369.629 44.1522 369.731 45.1892 369.934 45.6712C370.137 46.1542 370.535 46.3952 371.127 46.3952C371.737 46.3952 372.139 46.1752 372.333 45.7352C372.528 45.2952 372.625 44.3472 372.625 42.8912V27.3522ZM394.799 22.4772L395.205 18.0592H384.947V51.7522H395.205V38.4482C395.205 35.1812 395.307 33.0942 395.51 32.1892C395.713 31.2832 396.254 30.5762 397.135 30.0692C398.015 29.5612 399.394 29.3072 401.273 29.3072V19.169L406.664 46.2421C407.087 48.3241 407.298 49.5011 407.298 49.7721C407.298 50.3301 407.07 50.6901 406.613 50.8511C406.156 51.0121 405.132 51.0921 403.541 51.0921V56.4751H409.761C412.605 56.4751 414.674 56.2591 415.969 55.8271C417.264 55.3961 418.276 54.7231 419.003 53.8091C419.731 52.8951 420.252 51.7351 420.565 50.3301C420.878 48.9251 421.263 46.2931 421.72 42.4341L424.666 18.0591H415.347L413.722 40.7831L410.371 18.0591H401.273V17.4492C398.447 17.6362 396.288 19.3112 394.799 22.4772ZM44.7791 7.88721V48.9952H34.5211V46.5572C33.5391 47.5732 32.5071 48.3342 31.4231 48.8422C30.3401 49.3502 29.2061 49.6042 28.0211 49.6042C26.4301 49.6042 25.0501 49.1852 23.8821 48.3472C22.7141 47.5092 21.9651 46.5402 21.6351 45.4402C21.3051 44.3402 21.1401 42.5452 21.1401 40.0572V24.2892C21.1401 21.7002 21.3051 19.8632 21.6351 18.7802C21.9651 17.6962 22.7231 16.7442 23.9081 15.9232C25.0931 15.1022 26.5061 14.6922 28.1481 14.6922C29.4171 14.6922 30.5811 14.9202 31.6391 15.3772C32.6971 15.8342 33.6581 16.5202 34.5211 17.4342V7.88721H44.7791ZM34.5211 23.7822C34.5211 22.5462 34.4151 21.7172 34.2041 21.2932C33.9921 20.8702 33.5731 20.6592 32.9471 20.6592C32.3371 20.6592 31.9271 20.8492 31.7151 21.2302C31.5041 21.6112 31.3981 22.4612 31.3981 23.7822V40.2862C31.3981 41.6572 31.4991 42.5582 31.7031 42.9902C31.9061 43.4212 32.2951 43.6372 32.8711 43.6372C33.5311 43.6372 33.9711 43.3962 34.1911 42.9132C34.4111 42.4312 34.5211 41.2502 34.5211 39.3712V23.7822ZM71.9471 48.9952V15.3012H61.6891V37.9752C61.6891 40.7342 61.6171 42.3682 61.4731 42.8752C61.3291 43.3832 60.8761 43.6372 60.1151 43.6372C59.4041 43.6372 58.9681 43.3922 58.8071 42.9012C58.6461 42.4102 58.5661 40.8532 58.5661 38.2292V15.3012H48.3081V38.0262C48.3081 40.9202 48.3671 42.8542 48.4861 43.8282C48.6041 44.8012 48.9051 45.7362 49.3871 46.6332C49.8701 47.5302 50.6191 48.2502 51.6341 48.7912C52.6501 49.3332 53.9281 49.6042 55.4681 49.6042C56.8221 49.6042 58.0201 49.3202 59.0611 48.7532C60.1021 48.1862 60.9781 47.3362 61.6891 46.2022L61.5111 48.9952H71.9471Z" fill="white"/>
<path d="M151.255 28.9676L127.928 13.4517V26.1202C128.017 25.8727 128.126 25.6298 128.279 25.4008C129.286 23.8869 131.334 23.4752 132.853 24.4856C134.366 25.4924 134.778 27.5404 133.771 29.0542C132.761 30.5733 130.716 30.9797 129.203 29.9729C128.583 29.5611 128.159 28.9745 127.928 28.3248V39.7405C127.928 42.7194 125.501 45.1397 122.529 45.1397H120.37C121.212 46.2274 121.324 47.767 120.521 48.9747C119.51 50.4938 117.466 50.9002 115.952 49.8933C114.433 48.8829 114.018 46.8404 115.028 45.3211C115.073 45.2546 115.129 45.2021 115.177 45.1397H97.2178C97.3258 45.2298 97.4242 45.328 97.5441 45.4077L127.199 65.1327C128.997 66.3284 131.424 65.8405 132.619 64.0428L152.345 34.3883C153.541 32.5903 153.053 30.1635 151.255 28.9676ZM132.028 56.6288C131.018 58.1478 128.973 58.5543 127.459 57.5475C125.94 56.537 125.525 54.4943 126.535 52.9754C127.542 51.4615 129.59 51.0498 131.109 52.0602C132.623 53.067 133.035 55.1149 132.028 56.6288ZM138.653 46.6685C137.643 48.1875 135.598 48.5939 134.085 47.5871C132.566 46.5768 132.15 44.534 133.161 43.015C134.168 41.5012 136.216 41.0894 137.735 42.0998C139.248 43.1067 139.66 45.1546 138.653 46.6685ZM145.279 36.7083C144.268 38.2273 142.224 38.6338 140.71 37.6269C139.191 36.6165 138.776 34.5739 139.786 33.0548C140.793 31.5411 142.841 31.1293 144.36 32.1396C145.874 33.1467 146.286 35.1946 145.279 36.7083Z" fill="url(#paint0_linear_322_1147)"/>
<path d="M126.435 39.7388V4.12237C126.435 1.96317 124.685 0.212891 122.526 0.212891H86.9096C84.7504 0.212891 83 1.96317 83 4.12237V39.7388C83 41.898 84.7504 43.6482 86.9096 43.6482H122.526C124.685 43.6482 126.435 41.898 126.435 39.7388ZM90.9003 37.1883C89.0759 37.1883 87.5988 35.7175 87.5988 33.8932C87.5988 32.0753 89.0761 30.5981 90.9003 30.5981C92.7183 30.5981 94.1954 32.0754 94.1954 33.8932C94.1956 35.7173 92.7184 37.1883 90.9003 37.1883ZM90.9003 13.2633C89.0759 13.2633 87.5988 11.7924 87.5988 9.9682C87.5988 8.15011 89.0761 6.67314 90.9003 6.67314C92.7183 6.67314 94.1954 8.15025 94.1954 9.9682C94.1956 11.7924 92.7184 13.2633 90.9003 13.2633ZM104.721 25.2258C102.897 25.2258 101.419 23.7548 101.419 21.9306C101.419 20.1125 102.897 18.6355 104.721 18.6355C106.539 18.6355 108.016 20.1128 108.016 21.9306C108.016 23.7549 106.539 25.2258 104.721 25.2258ZM118.541 37.1883C116.717 37.1883 115.24 35.7175 115.24 33.8932C115.24 32.0753 116.717 30.5981 118.541 30.5981C120.359 30.5981 121.837 32.0754 121.837 33.8932C121.837 35.7173 120.36 37.1883 118.541 37.1883ZM118.541 13.2633C116.717 13.2633 115.24 11.7924 115.24 9.9682C115.24 8.15011 116.717 6.67314 118.541 6.67314C120.359 6.67314 121.837 8.15025 121.837 9.9682C121.837 11.7924 120.36 13.2633 118.541 13.2633Z" fill="url(#paint1_linear_322_1147)"/>
<defs>
<linearGradient id="paint0_linear_322_1147" x1="80" y1="60.5" x2="149" y2="25.5" gradientUnits="userSpaceOnUse">
<stop offset="0.28125" stop-color="#3A3D84"/>
<stop offset="0.619792" stop-color="#945CCC"/>
<stop offset="1" stop-color="#FFD0B6"/>
</linearGradient>
<linearGradient id="paint1_linear_322_1147" x1="73" y1="64.5" x2="119.5" y2="5" gradientUnits="userSpaceOnUse">
<stop offset="0.28125" stop-color="#3A3D84"/>
<stop offset="0.619792" stop-color="#945CCC"/>
<stop offset="0.99463" stop-color="#FFD0B6"/>
</linearGradient>
</defs>
</svg>
