<svg width="431" height="66" viewBox="0 0 431 66" fill="none" xmlns="http://www.w3.org/2000/svg">
<path fill-rule="evenodd" clip-rule="evenodd" d="M17.9661 7.88721H0.14209V48.9952H18.6771V40.7682H10.8311V31.7292H17.5091V23.9092H10.8311V16.1142H17.9661V7.88721ZM186.504 25.7782H175.814V22.0452C175.814 19.6922 175.713 18.2202 175.509 17.6272C175.306 17.0352 174.824 16.7392 174.062 16.7392C173.402 16.7392 172.953 16.9922 172.716 17.5002C172.479 18.0082 172.361 19.3112 172.361 21.4102V41.1392C172.361 42.9842 172.479 44.1982 172.716 44.7822C172.953 45.3662 173.427 45.6582 174.138 45.6582C174.917 45.6582 175.446 45.3282 175.725 44.6682C176.005 44.0082 176.144 42.7222 176.144 40.8092V35.9342H173.986V29.6882H186.504V51.7522H179.775L178.785 48.8072C178.057 50.0762 177.139 51.0292 176.03 51.6632C174.921 52.2982 173.614 52.6152 172.107 52.6152C170.313 52.6152 168.633 52.1802 167.067 51.3082C165.501 50.4362 164.312 49.3572 163.5 48.0712C162.687 46.7842 162.179 45.4342 161.976 44.0212C161.773 42.6072 161.671 40.4872 161.671 37.6602V25.4482C161.671 21.5202 161.883 18.6682 162.306 16.8912C162.729 15.1142 163.944 13.4842 165.95 12.0032C167.956 10.5222 170.55 9.78223 173.732 9.78223C176.864 9.78223 179.462 10.4252 181.527 11.7112C183.592 12.9982 184.938 14.5252 185.564 16.2942C186.19 18.0632 186.504 20.6322 186.504 24.0002V25.7782ZM202.428 28.8812L193.228 26.0613L193.89 23.9005C194.654 21.408 195.53 19.5741 196.518 18.3992C197.507 17.2234 199.026 16.3836 201.075 15.8779C203.124 15.3731 205.533 15.5444 208.3 16.3928C211.618 17.4096 213.938 18.763 215.262 20.4518C216.585 22.142 217.156 23.8919 216.972 25.7035C216.789 27.5154 215.88 31.0829 214.249 36.4074L209.293 52.5751L199.753 49.6511L200.631 46.7867C199.68 47.7525 198.643 48.3769 197.52 48.6614C196.398 48.9459 195.18 48.8876 193.87 48.4858C192.154 47.9601 190.728 46.9959 189.591 45.5941C188.454 44.1924 188.384 41.8647 189.381 38.612L190.192 35.9655C190.931 33.5543 191.814 32.028 192.843 31.3874C193.872 30.7468 196.07 30.3045 199.437 30.0615C203.044 29.7864 205.028 29.4657 205.389 29.0973C205.749 28.7298 206.136 27.8745 206.547 26.5321C207.063 24.8484 207.273 23.7131 207.179 23.1267C207.085 22.5404 206.746 22.1573 206.163 21.9786C205.499 21.7752 205.021 21.864 204.728 22.2428C204.434 22.6223 204.013 23.7096 203.463 25.5061L202.428 28.8812ZM204.181 34.2517C202.259 34.9198 201.054 35.6036 200.564 36.3029C200.076 37.0034 199.608 38.0817 199.162 39.5379C198.651 41.2053 198.43 42.3144 198.499 42.8669C198.569 43.4197 198.928 43.7953 199.575 43.9937C200.19 44.1821 200.649 44.1146 200.952 43.7912C201.254 43.4675 201.654 42.4971 202.15 40.8784L204.181 34.2517ZM229.953 20.6132L230.131 17.4142H220V51.1072H229.953V27.7482C229.953 26.1232 229.97 25.0612 230.004 24.5612C230.038 24.0622 230.215 23.6392 230.537 23.2922C230.859 22.9452 231.248 22.7712 231.705 22.7712C232.433 22.7712 232.877 23.1012 233.038 23.7622C233.199 24.4222 233.279 26.4022 233.279 29.7032V51.1072H243.232V29.1442C243.232 26.2502 243.338 24.4642 243.55 23.7872C243.761 23.1102 244.231 22.7712 244.959 22.7712C245.67 22.7712 246.123 23.1142 246.317 23.8002C246.512 24.4852 246.609 26.2672 246.609 29.1442V51.1072H256.562V27.1642C256.562 24.4052 256.402 22.4122 256.08 21.1842C255.758 19.9572 255.026 18.9202 253.884 18.0742C252.741 17.2282 251.298 16.8042 249.555 16.8042C248.234 16.8042 247.032 17.1222 245.949 17.7572C244.866 18.3912 243.892 19.3442 243.029 20.6132C241.455 18.0742 239.297 16.8042 236.555 16.8042C235.15 16.8042 233.897 17.1222 232.797 17.7572C231.696 18.3912 230.749 19.3442 229.953 20.6132ZM282.011 34.8572H268.732V42.1442C268.732 43.6682 268.842 44.6502 269.062 45.0902C269.282 45.5302 269.705 45.7502 270.331 45.7502C271.11 45.7502 271.631 45.4582 271.893 44.8742C272.155 44.2902 272.287 43.1602 272.287 41.4842V37.0412H282.011V39.5292C282.011 41.6112 281.88 43.2112 281.618 44.3282C281.355 45.4452 280.742 46.6382 279.777 47.9082C278.812 49.1782 277.589 50.1302 276.108 50.7642C274.627 51.3992 272.769 51.7172 270.535 51.7172C268.368 51.7172 266.455 51.4032 264.796 50.7772C263.137 50.1512 261.847 49.2922 260.924 48.2002C260.002 47.1082 259.363 45.9062 259.007 44.5952C258.652 43.2832 258.474 41.3742 258.474 38.8692V29.0432C258.474 26.0972 258.872 23.7742 259.667 22.0732C260.463 20.3722 261.766 19.0682 263.578 18.1632C265.389 17.2572 267.471 16.8042 269.824 16.8042C272.701 16.8042 275.075 17.3502 276.946 18.4422C278.816 19.5342 280.128 20.9812 280.881 22.7842C281.635 24.5872 282.011 27.1222 282.011 30.3882V34.8572ZM271.728 29.3732V26.9102C271.728 25.1662 271.635 24.0412 271.449 23.5332C271.262 23.0252 270.882 22.7712 270.306 22.7712C269.595 22.7712 269.155 22.9872 268.986 23.4192C268.816 23.8502 268.732 25.0142 268.732 26.9102V29.3732H271.728ZM313.739 18.226V10H290.379V18.226H296.702V51.107H307.391V18.226H313.739ZM324.817 10V19.242C325.697 18.429 326.649 17.82 327.673 17.414C328.697 17.008 329.793 16.804 330.961 16.804C332.755 16.804 334.283 17.262 335.544 18.176C336.805 19.09 337.575 20.143 337.855 21.337C338.134 22.53 338.274 24.709 338.274 27.875V51.107H328.016V27.392C328.016 25.429 327.918 24.168 327.724 23.609C327.529 23.051 327.093 22.771 326.416 22.771C325.79 22.771 325.367 23.059 325.147 23.635C324.927 24.21 324.817 25.353 324.817 27.062V51.107H314.559V10H324.817ZM350.443 34.8572H363.722V30.3882C363.722 27.1222 363.346 24.5872 362.593 22.7842C361.839 20.9812 360.527 19.5342 358.657 18.4422C356.787 17.3502 354.413 16.8042 351.535 16.8042C349.182 16.8042 347.1 17.2572 345.289 18.1632C343.478 19.0682 342.174 20.3722 341.379 22.0732C340.583 23.7742 340.185 26.0972 340.185 29.0432V38.8692C340.185 41.3742 340.363 43.2832 340.719 44.5952C341.074 45.9062 341.713 47.1082 342.636 48.2002C343.558 49.2922 344.849 50.1512 346.508 50.7772C348.166 51.4032 350.079 51.7172 352.246 51.7172C354.48 51.7172 356.338 51.3992 357.819 50.7642C359.3 50.1302 360.523 49.1782 361.488 47.9082C362.453 46.6382 363.067 45.4452 363.329 44.3282C363.591 43.2112 363.722 41.6112 363.722 39.5292V37.0412H353.998V41.4842C353.998 43.1602 353.867 44.2902 353.604 44.8742C353.342 45.4582 352.821 45.7502 352.043 45.7502C351.416 45.7502 350.993 45.5302 350.773 45.0902C350.553 44.6502 350.443 43.6682 350.443 42.1442V34.8572ZM353.439 26.9102V29.3732H350.443V26.9102C350.443 25.0142 350.528 23.8502 350.697 23.4192C350.866 22.9872 351.306 22.7712 352.017 22.7712C352.593 22.7712 352.974 23.0252 353.16 23.5332C353.346 24.0412 353.439 25.1662 353.439 26.9102ZM388.968 29.2462V37.4982C388.968 40.5282 388.816 42.7492 388.511 44.1632C388.206 45.5762 387.555 46.8972 386.556 48.1242C385.557 49.3512 384.275 50.2572 382.709 50.8412C381.144 51.4252 379.345 51.7172 377.314 51.7172C375.046 51.7172 373.124 51.4672 371.55 50.9682C369.976 50.4682 368.753 49.7152 367.881 48.7082C367.009 47.7012 366.387 46.4822 366.015 45.0522C365.643 43.6212 365.456 41.4762 365.456 38.6152V29.9822C365.456 26.8512 365.795 24.4052 366.472 22.6442C367.149 20.8842 368.368 19.4702 370.128 18.4042C371.889 17.3382 374.14 16.8042 376.882 16.8042C379.184 16.8042 381.161 17.1472 382.811 17.8332C384.461 18.5182 385.735 19.4112 386.632 20.5122C387.529 21.6122 388.143 22.7462 388.473 23.9142C388.803 25.0822 388.968 26.8592 388.968 29.2462ZM378.71 26.7072C378.71 24.9802 378.617 23.8932 378.431 23.4442C378.245 22.9962 377.847 22.7712 377.238 22.7712C376.628 22.7712 376.222 22.9962 376.019 23.4442C375.816 23.8932 375.714 24.9802 375.714 26.7072V41.9162C375.714 43.5072 375.816 44.5442 376.019 45.0262C376.222 45.5092 376.62 45.7502 377.212 45.7502C377.822 45.7502 378.224 45.5302 378.418 45.0902C378.613 44.6502 378.71 43.7022 378.71 42.2462V26.7072ZM400.884 21.8322L401.29 17.4142H391.032V51.1072H401.29V37.8032C401.29 34.5362 401.392 32.4492 401.595 31.5442C401.798 30.6382 402.339 29.9312 403.22 29.4242C404.1 28.9162 405.479 28.6622 407.358 28.6622V18.5239L412.749 45.5971C413.172 47.6791 413.383 48.8561 413.383 49.1271C413.383 49.6851 413.155 50.0451 412.698 50.2061C412.241 50.3671 411.217 50.4471 409.626 50.4471V55.8301H415.846C418.69 55.8301 420.759 55.6141 422.054 55.1821C423.349 54.7511 424.361 54.0781 425.088 53.1641C425.816 52.2501 426.337 51.0901 426.65 49.6851C426.963 48.2801 427.348 45.6481 427.805 41.7891L430.751 17.4141H421.432L419.807 40.1381L416.456 17.4141H407.358V16.8042C404.532 16.9912 402.373 18.6662 400.884 21.8322ZM44.7791 7.88721V48.9952H34.5211V46.5572C33.5391 47.5732 32.5071 48.3342 31.4231 48.8422C30.3401 49.3502 29.2061 49.6042 28.0211 49.6042C26.4301 49.6042 25.0501 49.1852 23.8821 48.3472C22.7141 47.5092 21.9651 46.5402 21.6351 45.4402C21.3051 44.3402 21.1401 42.5452 21.1401 40.0572V24.2892C21.1401 21.7002 21.3051 19.8632 21.6351 18.7802C21.9651 17.6962 22.7231 16.7442 23.9081 15.9232C25.0931 15.1022 26.5061 14.6922 28.1481 14.6922C29.4171 14.6922 30.5811 14.9202 31.6391 15.3772C32.6971 15.8342 33.6581 16.5202 34.5211 17.4342V7.88721H44.7791ZM34.5211 23.7822C34.5211 22.5462 34.4151 21.7172 34.2041 21.2932C33.9921 20.8702 33.5731 20.6592 32.9471 20.6592C32.3371 20.6592 31.9271 20.8492 31.7151 21.2302C31.5041 21.6112 31.3981 22.4612 31.3981 23.7822V40.2862C31.3981 41.6572 31.4991 42.5582 31.7031 42.9902C31.9061 43.4212 32.2951 43.6372 32.8711 43.6372C33.5311 43.6372 33.9711 43.3962 34.1911 42.9132C34.4111 42.4312 34.5211 41.2502 34.5211 39.3712V23.7822ZM71.9471 48.9952V15.3012H61.6891V37.9752C61.6891 40.7342 61.6171 42.3682 61.4731 42.8752C61.3291 43.3832 60.8761 43.6372 60.1151 43.6372C59.4041 43.6372 58.9681 43.3922 58.8071 42.9012C58.6461 42.4102 58.5661 40.8532 58.5661 38.2292V15.3012H48.3081V38.0262C48.3081 40.9202 48.3671 42.8542 48.4861 43.8282C48.6041 44.8012 48.9051 45.7362 49.3871 46.6332C49.8701 47.5302 50.6191 48.2502 51.6341 48.7912C52.6501 49.3332 53.9281 49.6042 55.4681 49.6042C56.8221 49.6042 58.0201 49.3202 59.0611 48.7532C60.1021 48.1862 60.9781 47.3362 61.6891 46.2022L61.5111 48.9952H71.9471Z" fill="white"/>
<path d="M151.255 28.9676L127.928 13.4517V26.1202C128.017 25.8727 128.126 25.6298 128.279 25.4008C129.286 23.8869 131.334 23.4752 132.853 24.4856C134.366 25.4924 134.778 27.5404 133.771 29.0542C132.761 30.5733 130.716 30.9797 129.203 29.9729C128.583 29.5611 128.159 28.9745 127.928 28.3248V39.7405C127.928 42.7194 125.501 45.1397 122.529 45.1397H120.37C121.212 46.2274 121.324 47.767 120.521 48.9747C119.51 50.4938 117.466 50.9002 115.952 49.8933C114.433 48.8829 114.018 46.8404 115.028 45.3211C115.073 45.2546 115.129 45.2021 115.177 45.1397H97.2178C97.3258 45.2298 97.4242 45.328 97.5441 45.4077L127.199 65.1327C128.997 66.3284 131.424 65.8405 132.619 64.0428L152.345 34.3883C153.541 32.5903 153.053 30.1635 151.255 28.9676ZM132.028 56.6288C131.018 58.1478 128.973 58.5543 127.459 57.5475C125.94 56.537 125.525 54.4943 126.535 52.9754C127.542 51.4615 129.59 51.0498 131.109 52.0602C132.623 53.067 133.035 55.1149 132.028 56.6288ZM138.653 46.6685C137.643 48.1875 135.598 48.5939 134.085 47.5871C132.566 46.5768 132.15 44.534 133.161 43.015C134.168 41.5012 136.216 41.0894 137.735 42.0998C139.248 43.1067 139.66 45.1546 138.653 46.6685ZM145.279 36.7083C144.268 38.2273 142.224 38.6338 140.71 37.6269C139.191 36.6165 138.776 34.5739 139.786 33.0548C140.793 31.5411 142.841 31.1293 144.36 32.1396C145.874 33.1467 146.286 35.1946 145.279 36.7083Z" fill="url(#paint0_linear_322_1147)"/>
<path d="M126.435 39.7388V4.12237C126.435 1.96317 124.685 0.212891 122.526 0.212891H86.9096C84.7504 0.212891 83 1.96317 83 4.12237V39.7388C83 41.898 84.7504 43.6482 86.9096 43.6482H122.526C124.685 43.6482 126.435 41.898 126.435 39.7388ZM90.9003 37.1883C89.0759 37.1883 87.5988 35.7175 87.5988 33.8932C87.5988 32.0753 89.0761 30.5981 90.9003 30.5981C92.7183 30.5981 94.1954 32.0754 94.1954 33.8932C94.1956 35.7173 92.7184 37.1883 90.9003 37.1883ZM90.9003 13.2633C89.0759 13.2633 87.5988 11.7924 87.5988 9.9682C87.5988 8.15011 89.0761 6.67314 90.9003 6.67314C92.7183 6.67314 94.1954 8.15025 94.1954 9.9682C94.1956 11.7924 92.7184 13.2633 90.9003 13.2633ZM104.721 25.2258C102.897 25.2258 101.419 23.7548 101.419 21.9306C101.419 20.1125 102.897 18.6355 104.721 18.6355C106.539 18.6355 108.016 20.1128 108.016 21.9306C108.016 23.7549 106.539 25.2258 104.721 25.2258ZM118.541 37.1883C116.717 37.1883 115.24 35.7175 115.24 33.8932C115.24 32.0753 116.717 30.5981 118.541 30.5981C120.359 30.5981 121.837 32.0754 121.837 33.8932C121.837 35.7173 120.36 37.1883 118.541 37.1883ZM118.541 13.2633C116.717 13.2633 115.24 11.7924 115.24 9.9682C115.24 8.15011 116.717 6.67314 118.541 6.67314C120.359 6.67314 121.837 8.15025 121.837 9.9682C121.837 11.7924 120.36 13.2633 118.541 13.2633Z" fill="url(#paint1_linear_322_1147)"/>
<defs>
<linearGradient id="paint0_linear_322_1147" x1="80" y1="60.5" x2="149" y2="25.5" gradientUnits="userSpaceOnUse">
<stop offset="0.28125" stop-color="#3A3D84"/>
<stop offset="0.619792" stop-color="#945CCC"/>
<stop offset="1" stop-color="#FFD0B6"/>
</linearGradient>
<linearGradient id="paint1_linear_322_1147" x1="73" y1="64.5" x2="119.5" y2="5" gradientUnits="userSpaceOnUse">
<stop offset="0.28125" stop-color="#3A3D84"/>
<stop offset="0.619792" stop-color="#945CCC"/>
<stop offset="0.99463" stop-color="#FFD0B6"/>
</linearGradient>
</defs>
</svg>
