<svg width="433" height="67" viewBox="0 0 433 67" fill="none" xmlns="http://www.w3.org/2000/svg">
<path fill-rule="evenodd" clip-rule="evenodd" d="M17.9661 7.88721H0.14209V48.9952H18.6771V40.7682H10.8311V31.7292H17.5091V23.9092H10.8311V16.1142H17.9661V7.88721ZM186.504 25.7782H175.814V22.0452C175.814 19.6922 175.713 18.2202 175.509 17.6272C175.306 17.0352 174.824 16.7392 174.062 16.7392C173.402 16.7392 172.953 16.9922 172.716 17.5002C172.479 18.0082 172.361 19.3112 172.361 21.4102V41.1392C172.361 42.9842 172.479 44.1982 172.716 44.7822C172.953 45.3662 173.427 45.6582 174.138 45.6582C174.917 45.6582 175.446 45.3282 175.725 44.6682C176.005 44.0082 176.144 42.7222 176.144 40.8092V35.9342H173.986V29.6882H186.504V51.7522H179.775L178.785 48.8072C178.057 50.0762 177.139 51.0292 176.03 51.6632C174.921 52.2982 173.614 52.6152 172.107 52.6152C170.313 52.6152 168.633 52.1802 167.067 51.3082C165.501 50.4362 164.312 49.3572 163.5 48.0712C162.687 46.7842 162.179 45.4342 161.976 44.0212C161.773 42.6072 161.671 40.4872 161.671 37.6602V25.4482C161.671 21.5202 161.883 18.6682 162.306 16.8912C162.729 15.1142 163.944 13.4842 165.95 12.0032C167.956 10.5222 170.55 9.78223 173.732 9.78223C176.864 9.78223 179.462 10.4252 181.527 11.7112C183.592 12.9982 184.938 14.5252 185.564 16.2942C186.19 18.0632 186.504 20.6322 186.504 24.0002V25.7782ZM203.373 29.8646L194.163 27.0739L194.819 24.911C195.575 22.4161 196.445 20.5795 197.43 19.4015C198.415 18.2225 199.931 17.3779 201.979 16.8657C204.026 16.3544 206.435 16.5181 209.205 17.3577C212.526 18.364 214.851 19.71 216.179 21.3946C217.509 23.0806 218.084 24.8287 217.906 26.6409C217.729 28.4533 216.832 32.0237 215.217 37.3533L210.313 53.5366L200.764 50.643L201.633 47.7757C200.685 48.7445 199.649 49.3722 198.528 49.6603C197.406 49.9483 196.188 49.8939 194.876 49.4963C193.159 48.976 191.73 48.0163 190.589 46.6182C189.447 45.22 189.37 42.8926 190.356 39.6368L191.159 36.9877C191.89 34.5741 192.769 33.0451 193.796 32.4012C194.822 31.7573 197.019 31.3081 200.385 31.0544C203.991 30.7679 205.974 30.4409 206.334 30.0713C206.693 29.7027 207.077 28.8462 207.484 27.5025C207.995 25.8172 208.201 24.6812 208.105 24.0952C208.009 23.5091 207.669 23.1271 207.085 22.9502C206.421 22.7489 205.944 22.8393 205.652 23.219C205.359 23.5994 204.941 24.6881 204.396 26.4863L203.373 29.8646ZM205.143 35.2296C203.223 35.9037 202.02 36.5914 201.533 37.2922C201.046 37.9943 200.582 39.0741 200.14 40.5316C199.635 42.2007 199.417 43.3104 199.488 43.8627C199.56 44.4153 199.92 44.7897 200.568 44.9861C201.183 45.1725 201.642 45.1036 201.944 44.7793C202.245 44.4546 202.642 43.4829 203.133 41.8627L205.143 35.2296ZM231.953 20.6132L232.131 17.4142H222V51.1072H231.953V27.7482C231.953 26.1232 231.97 25.0612 232.004 24.5612C232.038 24.0622 232.215 23.6392 232.537 23.2922C232.859 22.9452 233.248 22.7712 233.705 22.7712C234.433 22.7712 234.877 23.1012 235.038 23.7622C235.199 24.4222 235.279 26.4022 235.279 29.7032V51.1072H245.232V29.1442C245.232 26.2502 245.338 24.4642 245.55 23.7872C245.761 23.1102 246.231 22.7712 246.959 22.7712C247.67 22.7712 248.123 23.1142 248.317 23.8002C248.512 24.4852 248.609 26.2672 248.609 29.1442V51.1072H258.562V27.1642C258.562 24.4052 258.402 22.4122 258.08 21.1842C257.758 19.9572 257.026 18.9202 255.884 18.0742C254.741 17.2282 253.298 16.8042 251.555 16.8042C250.234 16.8042 249.032 17.1222 247.949 17.7572C246.866 18.3912 245.892 19.3442 245.029 20.6132C243.455 18.0742 241.297 16.8042 238.555 16.8042C237.15 16.8042 235.897 17.1222 234.797 17.7572C233.696 18.3912 232.749 19.3442 231.953 20.6132ZM284.011 34.8572H270.732V42.1442C270.732 43.6682 270.842 44.6502 271.062 45.0902C271.282 45.5302 271.705 45.7502 272.331 45.7502C273.11 45.7502 273.631 45.4582 273.893 44.8742C274.155 44.2902 274.287 43.1602 274.287 41.4842V37.0412H284.011V39.5292C284.011 41.6112 283.88 43.2112 283.618 44.3282C283.355 45.4452 282.742 46.6382 281.777 47.9082C280.812 49.1782 279.589 50.1302 278.108 50.7642C276.627 51.3992 274.769 51.7172 272.535 51.7172C270.368 51.7172 268.455 51.4032 266.796 50.7772C265.137 50.1512 263.847 49.2922 262.924 48.2002C262.002 47.1082 261.363 45.9062 261.007 44.5952C260.652 43.2832 260.474 41.3742 260.474 38.8692V29.0432C260.474 26.0972 260.872 23.7742 261.667 22.0732C262.463 20.3722 263.766 19.0682 265.578 18.1632C267.389 17.2572 269.471 16.8042 271.824 16.8042C274.701 16.8042 277.075 17.3502 278.946 18.4422C280.816 19.5342 282.128 20.9812 282.881 22.7842C283.635 24.5872 284.011 27.1222 284.011 30.3882V34.8572ZM273.728 29.3732V26.9102C273.728 25.1662 273.635 24.0412 273.449 23.5332C273.262 23.0252 272.882 22.7712 272.306 22.7712C271.595 22.7712 271.155 22.9872 270.986 23.4192C270.816 23.8502 270.732 25.0142 270.732 26.9102V29.3732H273.728ZM315.739 18.226V10H292.379V18.226H298.702V51.107H309.391V18.226H315.739ZM326.817 10V19.242C327.697 18.429 328.649 17.82 329.673 17.414C330.697 17.008 331.793 16.804 332.961 16.804C334.755 16.804 336.283 17.262 337.544 18.176C338.805 19.09 339.575 20.143 339.855 21.337C340.134 22.53 340.274 24.709 340.274 27.875V51.107H330.016V27.392C330.016 25.429 329.918 24.168 329.724 23.609C329.529 23.051 329.093 22.771 328.416 22.771C327.79 22.771 327.367 23.059 327.147 23.635C326.927 24.21 326.817 25.353 326.817 27.062V51.107H316.559V10H326.817ZM352.443 34.8572H365.722V30.3882C365.722 27.1222 365.346 24.5872 364.593 22.7842C363.839 20.9812 362.527 19.5342 360.657 18.4422C358.787 17.3502 356.413 16.8042 353.535 16.8042C351.182 16.8042 349.1 17.2572 347.289 18.1632C345.478 19.0682 344.174 20.3722 343.379 22.0732C342.583 23.7742 342.185 26.0972 342.185 29.0432V38.8692C342.185 41.3742 342.363 43.2832 342.719 44.5952C343.074 45.9062 343.713 47.1082 344.636 48.2002C345.558 49.2922 346.849 50.1512 348.508 50.7772C350.166 51.4032 352.079 51.7172 354.246 51.7172C356.48 51.7172 358.338 51.3992 359.819 50.7642C361.3 50.1302 362.523 49.1782 363.488 47.9082C364.453 46.6382 365.067 45.4452 365.329 44.3282C365.591 43.2112 365.722 41.6112 365.722 39.5292V37.0412H355.998V41.4842C355.998 43.1602 355.867 44.2902 355.604 44.8742C355.342 45.4582 354.821 45.7502 354.043 45.7502C353.416 45.7502 352.993 45.5302 352.773 45.0902C352.553 44.6502 352.443 43.6682 352.443 42.1442V34.8572ZM355.439 26.9102V29.3732H352.443V26.9102C352.443 25.0142 352.528 23.8502 352.697 23.4192C352.866 22.9872 353.306 22.7712 354.017 22.7712C354.593 22.7712 354.974 23.0252 355.16 23.5332C355.346 24.0412 355.439 25.1662 355.439 26.9102ZM390.968 29.2462V37.4982C390.968 40.5282 390.816 42.7492 390.511 44.1632C390.206 45.5762 389.555 46.8972 388.556 48.1242C387.557 49.3512 386.275 50.2572 384.709 50.8412C383.144 51.4252 381.345 51.7172 379.314 51.7172C377.046 51.7172 375.124 51.4672 373.55 50.9682C371.976 50.4682 370.753 49.7152 369.881 48.7082C369.009 47.7012 368.387 46.4822 368.015 45.0522C367.643 43.6212 367.456 41.4762 367.456 38.6152V29.9822C367.456 26.8512 367.795 24.4052 368.472 22.6442C369.149 20.8842 370.368 19.4702 372.128 18.4042C373.889 17.3382 376.14 16.8042 378.882 16.8042C381.184 16.8042 383.161 17.1472 384.811 17.8332C386.461 18.5182 387.735 19.4112 388.632 20.5122C389.529 21.6122 390.143 22.7462 390.473 23.9142C390.803 25.0822 390.968 26.8592 390.968 29.2462ZM380.71 26.7072C380.71 24.9802 380.617 23.8932 380.431 23.4442C380.245 22.9962 379.847 22.7712 379.238 22.7712C378.628 22.7712 378.222 22.9962 378.019 23.4442C377.816 23.8932 377.714 24.9802 377.714 26.7072V41.9162C377.714 43.5072 377.816 44.5442 378.019 45.0262C378.222 45.5092 378.62 45.7502 379.212 45.7502C379.822 45.7502 380.224 45.5302 380.418 45.0902C380.613 44.6502 380.71 43.7022 380.71 42.2462V26.7072ZM402.884 21.8322L403.29 17.4142H393.032V51.1072H403.29V37.8032C403.29 34.5362 403.392 32.4492 403.595 31.5442C403.798 30.6382 404.339 29.9312 405.22 29.4242C406.1 28.9162 407.479 28.6622 409.358 28.6622V18.5239L414.749 45.5971C415.172 47.6791 415.383 48.8561 415.383 49.1271C415.383 49.6851 415.155 50.0451 414.698 50.2061C414.241 50.3671 413.217 50.4471 411.626 50.4471V55.8301H417.846C420.69 55.8301 422.759 55.6141 424.054 55.1821C425.349 54.7511 426.361 54.0781 427.088 53.1641C427.816 52.2501 428.337 51.0901 428.65 49.6851C428.963 48.2801 429.348 45.6481 429.805 41.7891L432.751 17.4141H423.432L421.807 40.1381L418.456 17.4141H409.358V16.8042C406.532 16.9912 404.373 18.6662 402.884 21.8322ZM44.7791 7.88721V48.9952H34.5211V46.5572C33.5391 47.5732 32.5071 48.3342 31.4231 48.8422C30.3401 49.3502 29.2061 49.6042 28.0211 49.6042C26.4301 49.6042 25.0501 49.1852 23.8821 48.3472C22.7141 47.5092 21.9651 46.5402 21.6351 45.4402C21.3051 44.3402 21.1401 42.5452 21.1401 40.0572V24.2892C21.1401 21.7002 21.3051 19.8632 21.6351 18.7802C21.9651 17.6962 22.7231 16.7442 23.9081 15.9232C25.0931 15.1022 26.5061 14.6922 28.1481 14.6922C29.4171 14.6922 30.5811 14.9202 31.6391 15.3772C32.6971 15.8342 33.6581 16.5202 34.5211 17.4342V7.88721H44.7791ZM34.5211 23.7822C34.5211 22.5462 34.4151 21.7172 34.2041 21.2932C33.9921 20.8702 33.5731 20.6592 32.9471 20.6592C32.3371 20.6592 31.9271 20.8492 31.7151 21.2302C31.5041 21.6112 31.3981 22.4612 31.3981 23.7822V40.2862C31.3981 41.6572 31.4991 42.5582 31.7031 42.9902C31.9061 43.4212 32.2951 43.6372 32.8711 43.6372C33.5311 43.6372 33.9711 43.3962 34.1911 42.9132C34.4111 42.4312 34.5211 41.2502 34.5211 39.3712V23.7822ZM71.9471 48.9952V15.3012H61.6891V37.9752C61.6891 40.7342 61.6171 42.3682 61.4731 42.8752C61.3291 43.3832 60.8761 43.6372 60.1151 43.6372C59.4041 43.6372 58.9681 43.3922 58.8071 42.9012C58.6461 42.4102 58.5661 40.8532 58.5661 38.2292V15.3012H48.3081V38.0262C48.3081 40.9202 48.3671 42.8542 48.4861 43.8282C48.6041 44.8012 48.9051 45.7362 49.3871 46.6332C49.8701 47.5302 50.6191 48.2502 51.6341 48.7912C52.6501 49.3332 53.9281 49.6042 55.4681 49.6042C56.8221 49.6042 58.0201 49.3202 59.0611 48.7532C60.1021 48.1862 60.9781 47.3362 61.6891 46.2022L61.5111 48.9952H71.9471Z" fill="white"/>
<path fill-rule="evenodd" clip-rule="evenodd" d="M128 21.0451L138.016 21.0127L138.041 28.5619L141.803 23.1164L153.26 31.0323L129.039 66.0868L117.582 58.1709L120.824 53.4792L113.027 53.5044L113 45.2004L123.016 45.168L123.033 50.2823L130.915 38.8754L128.058 38.8846L128 21.0451Z" fill="white"/>
<path d="M151.255 28.9676L127.928 13.4517V26.1202C128.017 25.8727 128.126 25.6298 128.279 25.4008C129.286 23.8869 131.334 23.4752 132.853 24.4856C134.366 25.4924 134.778 27.5404 133.771 29.0542C132.761 30.5733 130.716 30.9797 129.203 29.9729C128.583 29.5611 128.159 28.9745 127.928 28.3248V39.7405C127.928 42.7194 125.501 45.1397 122.529 45.1397H120.37C121.212 46.2274 121.324 47.767 120.521 48.9747C119.51 50.4938 117.466 50.9002 115.952 49.8933C114.433 48.8829 114.018 46.8404 115.028 45.3211C115.073 45.2546 115.129 45.2021 115.177 45.1397H97.2178C97.3258 45.2298 97.4242 45.328 97.5441 45.4077L127.199 65.1327C128.997 66.3284 131.424 65.8405 132.619 64.0428L152.345 34.3883C153.541 32.5903 153.053 30.1635 151.255 28.9676ZM132.028 56.6288C131.018 58.1478 128.973 58.5543 127.459 57.5475C125.94 56.537 125.525 54.4943 126.535 52.9754C127.542 51.4615 129.59 51.0498 131.109 52.0602C132.623 53.067 133.035 55.1149 132.028 56.6288ZM138.653 46.6685C137.643 48.1875 135.598 48.5939 134.085 47.5871C132.566 46.5768 132.15 44.534 133.161 43.015C134.168 41.5012 136.216 41.0894 137.735 42.0998C139.248 43.1067 139.66 45.1546 138.653 46.6685ZM145.279 36.7083C144.268 38.2273 142.224 38.6338 140.71 37.6269C139.191 36.6165 138.776 34.5739 139.786 33.0548C140.793 31.5411 142.841 31.1293 144.36 32.1396C145.874 33.1467 146.286 35.1946 145.279 36.7083Z" fill="url(#paint0_linear_322_1147)"/>
<path fill-rule="evenodd" clip-rule="evenodd" d="M87.5989 33.8934C87.5989 35.7177 89.076 37.1885 90.9004 37.1885C92.7185 37.1885 94.1957 35.7175 94.1954 33.8934C94.1954 32.0756 92.7183 30.5983 90.9004 30.5983C89.0761 30.5983 87.5989 32.0755 87.5989 33.8934ZM87.5989 9.96841C87.5989 11.7926 89.076 13.2635 90.9004 13.2635C92.7185 13.2635 94.1957 11.7926 94.1954 9.96841C94.1954 8.15045 92.7183 6.67334 90.9004 6.67334C89.0761 6.67334 87.5989 8.15032 87.5989 9.96841ZM101.42 21.9308C101.42 23.755 102.897 25.226 104.721 25.226C106.539 25.226 108.016 23.7551 108.016 21.9308C108.016 20.113 106.539 18.6357 104.721 18.6357C102.897 18.6357 101.42 20.1127 101.42 21.9308ZM115.24 33.8934C115.24 35.7177 116.717 37.1885 118.542 37.1885C120.36 37.1885 121.837 35.7175 121.837 33.8934C121.837 32.0756 120.359 30.5983 118.542 30.5983C116.717 30.5983 115.24 32.0755 115.24 33.8934ZM115.24 9.96841C115.24 11.7926 116.717 13.2635 118.542 13.2635C120.36 13.2635 121.837 11.7926 121.837 9.96841C121.837 8.15045 120.359 6.67334 118.542 6.67334C116.717 6.67334 115.24 8.15032 115.24 9.96841Z" fill="white"/>
<path d="M126.435 39.7388V4.12237C126.435 1.96317 124.685 0.212891 122.526 0.212891H86.9096C84.7504 0.212891 83 1.96317 83 4.12237V39.7388C83 41.898 84.7504 43.6483 86.9096 43.6483H122.526C124.685 43.6483 126.435 41.898 126.435 39.7388ZM90.9003 37.1883C89.0759 37.1883 87.5988 35.7175 87.5988 33.8932C87.5988 32.0753 89.0761 30.5981 90.9003 30.5981C92.7183 30.5981 94.1954 32.0754 94.1954 33.8932C94.1956 35.7173 92.7184 37.1883 90.9003 37.1883ZM90.9003 13.2633C89.0759 13.2633 87.5988 11.7924 87.5988 9.9682C87.5988 8.15011 89.0761 6.67314 90.9003 6.67314C92.7183 6.67314 94.1954 8.15025 94.1954 9.9682C94.1956 11.7924 92.7184 13.2633 90.9003 13.2633ZM104.721 25.2258C102.897 25.2258 101.419 23.7548 101.419 21.9306C101.419 20.1125 102.897 18.6355 104.721 18.6355C106.539 18.6355 108.016 20.1128 108.016 21.9306C108.016 23.7549 106.539 25.2258 104.721 25.2258ZM118.541 37.1883C116.717 37.1883 115.24 35.7175 115.24 33.8932C115.24 32.0753 116.717 30.5981 118.541 30.5981C120.359 30.5981 121.837 32.0754 121.837 33.8932C121.837 35.7173 120.36 37.1883 118.541 37.1883ZM118.541 13.2633C116.717 13.2633 115.24 11.7924 115.24 9.9682C115.24 8.15011 116.717 6.67314 118.541 6.67314C120.359 6.67314 121.837 8.15025 121.837 9.9682C121.837 11.7924 120.36 13.2633 118.541 13.2633Z" fill="url(#paint1_linear_322_1147)"/>
<defs>
<linearGradient id="paint0_linear_322_1147" x1="80" y1="60.5" x2="149" y2="25.5" gradientUnits="userSpaceOnUse">
<stop offset="0.28125" stop-color="#3A3D84"/>
<stop offset="0.619792" stop-color="#945CCC"/>
<stop offset="1" stop-color="#FFD0B6"/>
</linearGradient>
<linearGradient id="paint1_linear_322_1147" x1="73" y1="64.5" x2="119.5" y2="5" gradientUnits="userSpaceOnUse">
<stop offset="0.28125" stop-color="#3A3D84"/>
<stop offset="0.619792" stop-color="#945CCC"/>
<stop offset="0.99463" stop-color="#FFD0B6"/>
</linearGradient>
</defs>
</svg>
