<svg width="438" height="59" viewBox="0 0 438 59" fill="none" xmlns="http://www.w3.org/2000/svg">
<path d="M41.1421 7.88721H58.9661V16.1142H51.8311V23.9092H58.5091V31.7292H51.8311V40.7682H59.6771V48.9952H41.1421V7.88721Z" fill="white"/>
<path d="M85.7791 7.88721V48.9952H75.5211V46.5572C74.5391 47.5732 73.5071 48.3342 72.4231 48.8422C71.3401 49.3502 70.2061 49.6042 69.0211 49.6042C67.4301 49.6042 66.0501 49.1852 64.8821 48.3472C63.7141 47.5092 62.9651 46.5402 62.6351 45.4402C62.3051 44.3402 62.1401 42.5452 62.1401 40.0572V24.2892C62.1401 21.7002 62.3051 19.8632 62.6351 18.7802C62.9651 17.6962 63.7231 16.7442 64.9081 15.9232C66.0931 15.1022 67.5061 14.6922 69.1481 14.6922C70.4171 14.6922 71.5811 14.9202 72.6391 15.3772C73.6971 15.8342 74.6581 16.5202 75.5211 17.4342V7.88721H85.7791ZM75.5211 23.7822C75.5211 22.5462 75.4151 21.7172 75.2041 21.2932C74.9921 20.8702 74.5731 20.6592 73.9471 20.6592C73.3371 20.6592 72.9271 20.8492 72.7151 21.2302C72.5041 21.6112 72.3981 22.4612 72.3981 23.7822V40.2862C72.3981 41.6572 72.4991 42.5582 72.7031 42.9902C72.9061 43.4212 73.2951 43.6372 73.8711 43.6372C74.5311 43.6372 74.9711 43.3962 75.1911 42.9132C75.4111 42.4312 75.5211 41.2502 75.5211 39.3712V23.7822Z" fill="white"/>
<path d="M112.947 15.3013V48.9953H102.511L102.689 46.2023C101.978 47.3363 101.102 48.1863 100.061 48.7533C99.0201 49.3203 97.8221 49.6043 96.4681 49.6043C94.9281 49.6043 93.6501 49.3333 92.6341 48.7913C91.6191 48.2503 90.8701 47.5303 90.3871 46.6333C89.9051 45.7363 89.6041 44.8013 89.4861 43.8283C89.3671 42.8543 89.3081 40.9203 89.3081 38.0263V15.3013H99.5661V38.2293C99.5661 40.8533 99.6461 42.4103 99.8071 42.9013C99.9681 43.3923 100.404 43.6373 101.115 43.6373C101.876 43.6373 102.329 43.3833 102.473 42.8753C102.617 42.3683 102.689 40.7343 102.689 37.9753V15.3013H112.947Z" fill="white"/>
<path d="M199.504 25.7782H188.814V22.0452C188.814 19.6922 188.713 18.2202 188.509 17.6272C188.306 17.0352 187.824 16.7392 187.062 16.7392C186.402 16.7392 185.953 16.9922 185.716 17.5002C185.479 18.0082 185.361 19.3112 185.361 21.4102V41.1392C185.361 42.9842 185.479 44.1982 185.716 44.7822C185.953 45.3662 186.427 45.6582 187.138 45.6582C187.917 45.6582 188.446 45.3282 188.725 44.6682C189.005 44.0082 189.144 42.7222 189.144 40.8092V35.9342H186.986V29.6882H199.504V51.7522H192.775L191.785 48.8072C191.057 50.0762 190.139 51.0292 189.03 51.6632C187.921 52.2982 186.614 52.6152 185.107 52.6152C183.313 52.6152 181.633 52.1802 180.067 51.3082C178.501 50.4362 177.312 49.3572 176.5 48.0712C175.687 46.7842 175.179 45.4342 174.976 44.0212C174.773 42.6072 174.671 40.4872 174.671 37.6602V25.4482C174.671 21.5202 174.883 18.6682 175.306 16.8912C175.729 15.1142 176.944 13.4842 178.95 12.0032C180.956 10.5222 183.55 9.78223 186.732 9.78223C189.864 9.78223 192.462 10.4252 194.527 11.7112C196.592 12.9982 197.938 14.5252 198.564 16.2942C199.19 18.0632 199.504 20.6322 199.504 24.0002V25.7782Z" fill="white"/>
<path d="M211.191 31.1102H201.568V28.8502C201.568 26.2432 201.868 24.2332 202.469 22.8202C203.07 21.4062 204.276 20.1582 206.087 19.0742C207.898 17.9912 210.251 17.4492 213.146 17.4492C216.616 17.4492 219.231 18.0632 220.991 19.2902C222.752 20.5182 223.81 22.0242 224.165 23.8102C224.521 25.5962 224.698 29.2732 224.698 34.8422V51.7522H214.72V48.7562C214.094 49.9582 213.285 50.8592 212.295 51.4602C211.305 52.0612 210.124 52.3622 208.753 52.3622C206.959 52.3622 205.313 51.8582 203.815 50.8512C202.317 49.8442 201.568 47.6392 201.568 44.2372V41.4692C201.568 38.9472 201.965 37.2292 202.761 36.3152C203.557 35.4012 205.529 34.3342 208.677 33.1152C212.045 31.7952 213.848 30.9072 214.085 30.4492C214.322 29.9922 214.441 29.0612 214.441 27.6572C214.441 25.8962 214.309 24.7492 214.047 24.2162C213.785 23.6832 213.349 23.4162 212.739 23.4162C212.045 23.4162 211.614 23.6412 211.445 24.0892C211.275 24.5382 211.191 25.7012 211.191 27.5802V31.1102ZM214.441 35.7312C212.799 36.9332 211.847 37.9402 211.584 38.7522C211.322 39.5652 211.191 40.7332 211.191 42.2562C211.191 44.0002 211.305 45.1252 211.533 45.6332C211.762 46.1412 212.215 46.3952 212.892 46.3952C213.535 46.3952 213.954 46.1962 214.149 45.7982C214.343 45.4002 214.441 44.3552 214.441 42.6622V35.7312Z" fill="white"/>
<path d="M237.046 18.0592L236.868 21.2582C237.664 19.9892 238.611 19.0362 239.712 18.4022C240.812 17.7672 242.065 17.4492 243.47 17.4492C246.212 17.4492 248.37 18.7192 249.944 21.2582C250.807 19.9892 251.781 19.0362 252.864 18.4022C253.947 17.7672 255.149 17.4492 256.47 17.4492C258.213 17.4492 259.656 17.8732 260.799 18.7192C261.941 19.5652 262.673 20.6022 262.995 21.8292C263.317 23.0572 263.477 25.0502 263.477 27.8092V51.7522H253.524V29.7892C253.524 26.9122 253.427 25.1302 253.232 24.4452C253.038 23.7592 252.585 23.4162 251.874 23.4162C251.146 23.4162 250.676 23.7552 250.465 24.4322C250.253 25.1092 250.147 26.8952 250.147 29.7892V51.7522H240.194V30.3482C240.194 27.0472 240.114 25.0672 239.953 24.4072C239.792 23.7462 239.348 23.4162 238.62 23.4162C238.163 23.4162 237.774 23.5902 237.452 23.9372C237.13 24.2842 236.953 24.7072 236.919 25.2062C236.885 25.7062 236.868 26.7682 236.868 28.3932V51.7522H226.915V18.0592H237.046Z" fill="white"/>
<path d="M288.926 35.5022H275.647V42.7892C275.647 44.3132 275.757 45.2952 275.977 45.7352C276.197 46.1752 276.62 46.3952 277.246 46.3952C278.025 46.3952 278.546 46.1032 278.808 45.5192C279.07 44.9352 279.202 43.8052 279.202 42.1292V37.6862H288.926V40.1742C288.926 42.2562 288.795 43.8562 288.533 44.9732C288.27 46.0902 287.657 47.2832 286.692 48.5532C285.727 49.8232 284.504 50.7752 283.023 51.4092C281.542 52.0442 279.684 52.3622 277.45 52.3622C275.283 52.3622 273.37 52.0482 271.711 51.4222C270.052 50.7962 268.762 49.9372 267.839 48.8452C266.917 47.7532 266.278 46.5512 265.922 45.2402C265.567 43.9282 265.389 42.0192 265.389 39.5142V29.6882C265.389 26.7422 265.787 24.4192 266.582 22.7182C267.378 21.0172 268.681 19.7132 270.493 18.8082C272.304 17.9022 274.386 17.4492 276.739 17.4492C279.616 17.4492 281.99 17.9952 283.861 19.0872C285.731 20.1792 287.043 21.6262 287.796 23.4292C288.55 25.2322 288.926 27.7672 288.926 31.0332V35.5022ZM278.643 30.0182V27.5552C278.643 25.8112 278.55 24.6862 278.364 24.1782C278.177 23.6702 277.797 23.4162 277.221 23.4162C276.51 23.4162 276.07 23.6322 275.901 24.0642C275.731 24.4952 275.647 25.6592 275.647 27.5552V30.0182H278.643Z" fill="white"/>
<path d="M320.654 10.645V18.871H314.306V51.752H303.617V18.871H297.294V10.645H320.654Z" fill="white"/>
<path d="M331.732 10.645V19.887C332.612 19.074 333.564 18.465 334.588 18.059C335.612 17.653 336.708 17.449 337.876 17.449C339.67 17.449 341.198 17.907 342.459 18.821C343.72 19.735 344.49 20.788 344.77 21.982C345.049 23.175 345.189 25.354 345.189 28.52V51.752H334.931V28.037C334.931 26.074 334.833 24.813 334.639 24.254C334.444 23.696 334.008 23.416 333.331 23.416C332.705 23.416 332.282 23.704 332.062 24.28C331.842 24.855 331.732 25.998 331.732 27.707V51.752H321.474V10.645H331.732Z" fill="white"/>
<path d="M370.637 35.5022H357.358V42.7892C357.358 44.3132 357.468 45.2952 357.688 45.7352C357.908 46.1752 358.331 46.3952 358.958 46.3952C359.736 46.3952 360.257 46.1032 360.519 45.5192C360.782 44.9352 360.913 43.8052 360.913 42.1292V37.6862H370.637V40.1742C370.637 42.2562 370.506 43.8562 370.244 44.9732C369.982 46.0902 369.368 47.2832 368.403 48.5532C367.438 49.8232 366.215 50.7752 364.734 51.4092C363.253 52.0442 361.395 52.3622 359.161 52.3622C356.994 52.3622 355.081 52.0482 353.423 51.4222C351.764 50.7962 350.473 49.9372 349.551 48.8452C348.628 47.7532 347.989 46.5512 347.634 45.2402C347.278 43.9282 347.1 42.0192 347.1 39.5142V29.6882C347.1 26.7422 347.498 24.4192 348.294 22.7182C349.089 21.0172 350.393 19.7132 352.204 18.8082C354.015 17.9022 356.097 17.4492 358.45 17.4492C361.328 17.4492 363.702 17.9952 365.572 19.0872C367.442 20.1792 368.754 21.6262 369.508 23.4292C370.261 25.2322 370.637 27.7672 370.637 31.0332V35.5022ZM360.354 30.0182V27.5552C360.354 25.8112 360.261 24.6862 360.075 24.1782C359.889 23.6702 359.508 23.4162 358.932 23.4162C358.221 23.4162 357.781 23.6322 357.612 24.0642C357.443 24.4952 357.358 25.6592 357.358 27.5552V30.0182H360.354Z" fill="white"/>
<path d="M395.883 29.8912V38.1432C395.883 41.1732 395.731 43.3942 395.426 44.8082C395.121 46.2212 394.47 47.5422 393.471 48.7692C392.472 49.9962 391.19 50.9022 389.624 51.4862C388.059 52.0702 386.26 52.3622 384.229 52.3622C381.961 52.3622 380.039 52.1122 378.465 51.6132C376.891 51.1132 375.668 50.3602 374.796 49.3532C373.924 48.3462 373.302 47.1272 372.93 45.6972C372.558 44.2662 372.371 42.1212 372.371 39.2602V30.6272C372.371 27.4962 372.71 25.0502 373.387 23.2892C374.064 21.5292 375.283 20.1152 377.043 19.0492C378.804 17.9832 381.055 17.4492 383.797 17.4492C386.099 17.4492 388.076 17.7922 389.726 18.4782C391.376 19.1632 392.65 20.0562 393.547 21.1572C394.444 22.2572 395.058 23.3912 395.388 24.5592C395.718 25.7272 395.883 27.5042 395.883 29.8912ZM385.625 27.3522C385.625 25.6252 385.532 24.5382 385.346 24.0892C385.16 23.6412 384.762 23.4162 384.153 23.4162C383.543 23.4162 383.137 23.6412 382.934 24.0892C382.731 24.5382 382.629 25.6252 382.629 27.3522V42.5612C382.629 44.1522 382.731 45.1892 382.934 45.6712C383.137 46.1542 383.535 46.3952 384.127 46.3952C384.737 46.3952 385.139 46.1752 385.333 45.7352C385.528 45.2952 385.625 44.3472 385.625 42.8912V27.3522Z" fill="white"/>
<path d="M408.205 18.0592L407.799 22.4772C409.288 19.3112 411.447 17.6362 414.273 17.4492V29.3072C412.394 29.3072 411.015 29.5612 410.135 30.0692C409.254 30.5762 408.713 31.2832 408.51 32.1892C408.307 33.0942 408.205 35.1812 408.205 38.4482V51.7522H397.947V18.0592H408.205Z" fill="white"/>
<path d="M437.666 18.0591L434.72 42.4341C434.263 46.2931 433.878 48.9251 433.565 50.3301C433.252 51.7351 432.731 52.8951 432.003 53.8091C431.276 54.7231 430.264 55.3961 428.969 55.8271C427.674 56.2591 425.605 56.4751 422.761 56.4751H416.541V51.0921C418.132 51.0921 419.156 51.0121 419.613 50.8511C420.07 50.6901 420.298 50.3301 420.298 49.7721C420.298 49.5011 420.087 48.3241 419.664 46.2421L414.052 18.0591H423.371L426.722 40.7831L428.347 18.0591H437.666Z" fill="white"/>
<path d="M130.762 16.876L158.003 47.669" stroke="white" stroke-width="4" stroke-miterlimit="10" stroke-linecap="square" stroke-linejoin="round"/>
<path d="M140.185 12.8183C140.185 9.93225 142.524 7.59326 145.41 7.59326C148.296 7.59326 150.635 9.93225 150.635 12.8183C150.635 15.7033 148.296 18.0433 145.41 18.0433C142.524 18.0433 140.185 15.7033 140.185 12.8183Z" stroke="white" stroke-width="4" stroke-miterlimit="10" stroke-linejoin="round"/>
<path d="M131.477 48.5204C131.477 45.6354 134.011 43.2964 137.137 43.2964C140.263 43.2964 142.798 45.6354 142.798 48.5204C142.798 51.4064 140.263 53.7454 137.137 53.7454C134.011 53.7454 131.477 51.4064 131.477 48.5204Z" stroke="white" stroke-width="4" stroke-miterlimit="10" stroke-linejoin="round"/>
<path d="M156.295 28.492C156.295 25.366 158.829 22.832 161.955 22.832C165.081 22.832 167.615 25.366 167.615 28.492C167.615 31.618 165.081 34.152 161.955 34.152C158.829 34.152 156.295 31.618 156.295 28.492Z" stroke="white" stroke-width="4" stroke-miterlimit="10" stroke-linejoin="round"/>
<path d="M14 2.67725L15.165 55.9862" stroke="white" stroke-width="6" stroke-miterlimit="10"/>
<path d="M30.818 0.347168L30 58.5392" stroke="white" stroke-width="6" stroke-miterlimit="10"/>
<path d="M0.0991211 27.438H53.1161" stroke="white" stroke-width="8" stroke-miterlimit="10"/>
<path d="M4.66699 12L54.281 12.347" stroke="white" stroke-width="8" stroke-miterlimit="10"/>
<path d="M5 45L54.614 45.167" stroke="white" stroke-width="8" stroke-miterlimit="10"/>
</svg>
