<svg width="82" height="82" viewBox="0 0 82 82" fill="none" xmlns="http://www.w3.org/2000/svg">
<path d="M40.8333 81.6667C18.375 81.6667 0 63.2917 0 40.8333C0 18.375 18.375 0 40.8333 0C63.2917 0 81.6667 18.375 81.6667 40.8333C81.6667 63.2917 63.2917 81.6667 40.8333 81.6667ZM40.8333 4.08333C20.4167 4.08333 4.08333 20.4167 4.08333 40.8333C4.08333 61.25 20.4167 77.5833 40.8333 77.5833C61.25 77.5833 77.5833 61.25 77.5833 40.8333C77.5833 20.4167 61.25 4.08333 40.8333 4.08333Z" fill="white"/>
<path d="M40.8333 73.5C25.3166 73.5 11.8416 62.475 8.98328 47.3667C8.57495 46.1417 9.39162 45.325 10.6166 44.9167C11.8416 44.5084 12.6583 45.325 13.0666 46.55C15.5166 59.6167 27.3583 69.4167 40.8333 69.4167C56.7583 69.4167 69.4166 56.7584 69.4166 40.8334C69.4166 24.9084 56.7583 12.25 40.8333 12.25C27.3583 12.25 15.5166 22.05 12.6583 35.1167C12.6583 36.3417 11.4333 36.75 10.2083 36.75C8.98328 36.3417 8.57495 35.525 8.57495 34.3C11.8416 19.1917 25.3166 8.16669 40.8333 8.16669C58.7999 8.16669 73.4999 22.8667 73.4999 40.8334C73.4999 58.8 58.7999 73.5 40.8333 73.5Z" fill="white"/>
<path d="M63.2916 46.9583H18.3749C17.1499 46.9583 16.3333 46.1416 16.3333 44.9166V36.75C16.3333 36.3416 16.7416 35.525 16.7416 35.1166C17.1499 34.7083 17.5583 34.7083 18.3749 34.7083H63.2916C63.6999 34.7083 64.5166 35.1166 64.9249 35.1166C65.3333 35.525 65.3333 35.9333 65.3333 36.75V44.9166C65.3333 46.1416 64.5166 46.9583 63.2916 46.9583ZM20.4166 42.875H61.2499V38.7916H20.4166V42.875Z" fill="white"/>
<path d="M10.2084 42.875C11.336 42.875 12.2501 41.9609 12.2501 40.8334C12.2501 39.7058 11.336 38.7917 10.2084 38.7917C9.08083 38.7917 8.16675 39.7058 8.16675 40.8334C8.16675 41.9609 9.08083 42.875 10.2084 42.875Z" fill="white"/>
</svg>
