<svg width="76" height="77" viewBox="0 0 76 77" fill="none" xmlns="http://www.w3.org/2000/svg">
<path d="M37.5467 5.12006C56.3986 5.12006 71.6802 20.4016 71.6802 39.2536C71.6802 58.1055 56.3986 73.3871 37.5467 73.3871C18.6947 73.3871 3.41313 58.1055 3.41313 39.2536C3.41313 20.4016 18.6947 5.12006 37.5467 5.12006Z" fill="#B9CBFF" fill-opacity="0.3"/>
<path d="M1.7069 15.3601C0.764813 15.3601 0.000221848 16.1247 0.000221848 17.0668C0.000221848 18.0089 0.764813 18.7735 1.7069 18.7735C2.64898 18.7735 3.41357 18.0089 3.41357 17.0668C3.41357 16.1247 2.64898 15.3601 1.7069 15.3601Z" fill="white"/>
<path d="M1.7069 59.7336C0.764813 59.7336 0.000221848 60.4982 0.000221848 61.4403C0.000221848 62.3824 0.764813 63.147 1.7069 63.147C2.64898 63.147 3.41357 62.3824 3.41357 61.4403C3.41357 60.4982 2.64898 59.7336 1.7069 59.7336Z" fill="white"/>
<path d="M13.6532 0C12.7111 0 11.9465 0.764591 11.9465 1.70668C11.9465 2.64876 12.7111 3.41335 13.6532 3.41335C14.5953 3.41335 15.3599 2.64876 15.3599 1.70668C15.3599 0.764591 14.5953 0 13.6532 0Z" fill="white"/>
<path d="M63.1468 73.3871C62.2048 73.3871 61.4402 74.1517 61.4402 75.0938C61.4402 76.0358 62.2048 76.8004 63.1468 76.8004C64.0889 76.8004 64.8535 76.0358 64.8535 75.0938C64.8535 74.1517 64.0889 73.3871 63.1468 73.3871Z" fill="white"/>
<path d="M73.3871 17.0668C72.445 17.0668 71.6804 17.8314 71.6804 18.7734C71.6804 19.7155 72.445 20.4801 73.3871 20.4801C74.3292 20.4801 75.0938 19.7155 75.0938 18.7734C75.0938 17.8314 74.3292 17.0668 73.3871 17.0668Z" fill="white"/>
<path d="M73.3871 59.7336C72.445 59.7336 71.6804 60.4982 71.6804 61.4403C71.6804 62.3824 72.445 63.147 73.3871 63.147C74.3292 63.147 75.0938 62.3824 75.0938 61.4403C75.0938 60.4982 74.3292 59.7336 73.3871 59.7336Z" fill="white"/>
<path d="M37.547 75.0937C57.3093 75.0937 73.3872 59.0158 73.3872 39.2535C73.3872 19.4912 57.3093 3.41333 37.547 3.41333C17.7847 3.41333 1.70681 19.4912 1.70681 39.2535C1.70681 59.0158 17.7847 75.0937 37.547 75.0937ZM37.547 6.82668C55.4273 6.82668 69.9739 21.3732 69.9739 39.2535C69.9739 57.1339 55.4273 71.6804 37.547 71.6804C19.6667 71.6804 5.12016 57.1339 5.12016 39.2535C5.12016 21.3732 19.6667 6.82668 37.547 6.82668Z" fill="white"/>
<path d="M37.5468 64.8537C51.6627 64.8537 63.147 53.3694 63.147 39.2535C63.147 25.1376 51.6627 13.6534 37.5468 13.6534C23.4309 13.6534 11.9467 25.1376 11.9467 39.2535C11.9467 53.3694 23.4309 64.8537 37.5468 64.8537ZM37.5468 17.0667C49.7806 17.0667 59.7336 27.0197 59.7336 39.2535C59.7336 51.4875 49.7806 61.4403 37.5468 61.4403C25.3129 61.4403 15.36 51.4875 15.36 39.2535C15.36 27.0197 25.3129 17.0667 37.5468 17.0667Z" fill="white"/>
<path fill-rule="evenodd" clip-rule="evenodd" d="M69.9737 7.68004C69.9737 6.26845 68.8253 5.12002 67.4137 5.12002C66.0021 5.12002 64.8537 6.26845 64.8537 7.68004C64.8537 9.09163 66.0021 10.2401 67.4137 10.2401C68.8253 10.2401 69.9737 9.09163 69.9737 7.68004ZM63.1468 7.68002C63.1468 5.3231 65.0566 3.41333 67.4135 3.41333C69.7704 3.41333 71.6802 5.3231 71.6802 7.68002C71.6802 10.0369 69.7704 11.9467 67.4135 11.9467C65.0566 11.9467 63.1468 10.0369 63.1468 7.68002Z" fill="white"/>
<path fill-rule="evenodd" clip-rule="evenodd" d="M11.9467 73.3871C11.9467 72.4461 11.1811 71.6805 10.2401 71.6805C9.299 71.6805 8.53338 72.4461 8.53338 73.3871C8.53338 74.3282 9.299 75.0938 10.2401 75.0938C11.1811 75.0938 11.9467 74.3282 11.9467 73.3871ZM6.82662 73.3871C6.82662 71.5012 8.35409 69.9738 10.24 69.9738C12.1258 69.9738 13.6533 71.5012 13.6533 73.3871C13.6533 75.273 12.1258 76.8005 10.24 76.8005C8.35409 76.8005 6.82662 75.273 6.82662 73.3871Z" fill="white"/>
<mask id="path-12-inside-1_19_30" fill="white">
<path fill-rule="evenodd" clip-rule="evenodd" d="M13.6535 39.2536C13.6535 26.0576 24.3509 15.3601 37.547 15.3601C50.743 15.3601 61.4404 26.0576 61.4404 39.2536C61.4404 52.4496 50.743 63.147 37.547 63.147C24.3509 63.147 13.6535 52.4496 13.6535 39.2536ZM48.168 35.5624C50.1321 35.5624 51.7243 37.1546 51.7243 39.1186C51.7243 41.0827 50.1321 42.6749 48.168 42.6749H26.8306C24.8666 42.6749 23.2744 41.0827 23.2744 39.1186C23.2744 37.1546 24.8666 35.5624 26.8306 35.5624H48.168Z"/>
</mask>
<path fill-rule="evenodd" clip-rule="evenodd" d="M13.6535 39.2536C13.6535 26.0576 24.3509 15.3601 37.547 15.3601C50.743 15.3601 61.4404 26.0576 61.4404 39.2536C61.4404 52.4496 50.743 63.147 37.547 63.147C24.3509 63.147 13.6535 52.4496 13.6535 39.2536ZM48.168 35.5624C50.1321 35.5624 51.7243 37.1546 51.7243 39.1186C51.7243 41.0827 50.1321 42.6749 48.168 42.6749H26.8306C24.8666 42.6749 23.2744 41.0827 23.2744 39.1186C23.2744 37.1546 24.8666 35.5624 26.8306 35.5624H48.168Z" fill="url(#paint0_linear_19_30)"/>
<path d="M37.547 17.9601C25.7869 17.9601 16.2535 27.4935 16.2535 39.2536H11.0535C11.0535 24.6216 22.915 12.7601 37.547 12.7601V17.9601ZM58.8404 39.2536C58.8404 27.4935 49.307 17.9601 37.547 17.9601V12.7601C52.1789 12.7601 64.0404 24.6216 64.0404 39.2536H58.8404ZM37.547 60.547C49.307 60.547 58.8404 51.0137 58.8404 39.2536H64.0404C64.0404 53.8855 52.1789 65.747 37.547 65.747V60.547ZM16.2535 39.2536C16.2535 51.0137 25.7869 60.547 37.547 60.547V65.747C22.915 65.747 11.0535 53.8855 11.0535 39.2536H16.2535ZM49.1243 39.1186C49.1243 38.5905 48.6962 38.1624 48.168 38.1624V32.9624C51.568 32.9624 54.3243 35.7186 54.3243 39.1186H49.1243ZM48.168 40.0749C48.6962 40.0749 49.1243 39.6467 49.1243 39.1186H54.3243C54.3243 42.5186 51.568 45.2749 48.168 45.2749V40.0749ZM26.8306 40.0749H48.168V45.2749H26.8306V40.0749ZM25.8744 39.1186C25.8744 39.6467 26.3025 40.0749 26.8306 40.0749V45.2749C23.4306 45.2749 20.6744 42.5186 20.6744 39.1186H25.8744ZM26.8306 38.1624C26.3025 38.1624 25.8744 38.5905 25.8744 39.1186H20.6744C20.6744 35.7186 23.4306 32.9624 26.8306 32.9624V38.1624ZM48.168 38.1624H26.8306V32.9624H48.168V38.1624Z" fill="white" mask="url(#path-12-inside-1_19_30)"/>
<defs>
<linearGradient id="paint0_linear_19_30" x1="20.9565" y1="21.8058" x2="53.4706" y2="58.8923" gradientUnits="userSpaceOnUse">
<stop stop-color="#FFF6D7"/>
<stop offset="0.567708" stop-color="#A553B3"/>
<stop offset="1" stop-color="#171B39"/>
</linearGradient>
</defs>
</svg>
