<svg width="75" height="74" viewBox="0 0 75 74" fill="none" xmlns="http://www.w3.org/2000/svg">
<path d="M37.6719 5.07812C19.118 5.07812 4.07812 20.118 4.07812 38.6719C4.07812 57.2257 19.118 72.2656 37.6719 72.2656C56.2257 72.2656 71.2656 57.2257 71.2656 38.6719C71.2656 20.118 56.2257 5.07812 37.6719 5.07812Z" fill="#B9CBFF" fill-opacity="0.3"/>
<path fill-rule="evenodd" clip-rule="evenodd" d="M61.1875 38.6719C61.1875 25.6845 50.6592 15.1562 37.6719 15.1562C24.6845 15.1562 14.1562 25.6845 14.1562 38.6719C14.1562 51.6592 24.6845 62.1875 37.6719 62.1875C50.6592 62.1875 61.1875 51.6592 61.1875 38.6719ZM50.2695 38.6719C50.2695 37.7447 49.8933 36.9048 49.2852 36.2968C48.6772 35.6887 47.8373 35.3125 46.9102 35.3125H41.0312V29.4336C41.0312 27.5775 39.5279 26.0742 37.6719 26.0742C36.7447 26.0742 35.9048 26.4505 35.2968 27.0585C34.6887 27.6666 34.3125 28.5064 34.3125 29.4336V35.3125H28.4336C26.5775 35.3125 25.0742 36.8158 25.0742 38.6719C25.0742 39.5991 25.4505 40.4389 26.0585 41.047C26.6666 41.655 27.5064 42.0312 28.4336 42.0312H34.3125V47.9102C34.3125 49.7662 35.8158 51.2695 37.6719 51.2695C38.5991 51.2695 39.4389 50.8933 40.047 50.2852C40.655 49.6772 41.0312 48.8373 41.0312 47.9102V42.0312H46.9102C48.7662 42.0312 50.2695 40.5279 50.2695 38.6719Z" fill="url(#paint0_linear_19_9)"/>
<path d="M72.9453 15.1562C73.8725 15.1562 74.625 15.9088 74.625 16.8359C74.625 17.7631 73.8725 18.5156 72.9453 18.5156C72.0181 18.5156 71.2656 17.7631 71.2656 16.8359C71.2656 15.9088 72.0181 15.1562 72.9453 15.1562Z" fill="white"/>
<path d="M72.9453 58.8281C73.8725 58.8281 74.625 59.5806 74.625 60.5078C74.625 61.435 73.8725 62.1875 72.9453 62.1875C72.0181 62.1875 71.2656 61.435 71.2656 60.5078C71.2656 59.5806 72.0181 58.8281 72.9453 58.8281Z" fill="white"/>
<path d="M61.1875 0.0390625C62.1147 0.0390625 62.8672 0.791563 62.8672 1.71875C62.8672 2.64594 62.1147 3.39844 61.1875 3.39844C60.2603 3.39844 59.5078 2.64594 59.5078 1.71875C59.5078 0.791563 60.2603 0.0390625 61.1875 0.0390625Z" fill="white"/>
<path d="M2.39844 16.8359C3.32562 16.8359 4.07812 17.5884 4.07812 18.5156C4.07812 19.4428 3.32562 20.1953 2.39844 20.1953C1.47125 20.1953 0.71875 19.4428 0.71875 18.5156C0.71875 17.5884 1.47125 16.8359 2.39844 16.8359Z" fill="white"/>
<path d="M2.39844 58.8281C3.32562 58.8281 4.07812 59.5806 4.07812 60.5078C4.07812 61.435 3.32562 62.1875 2.39844 62.1875C1.47125 62.1875 0.71875 61.435 0.71875 60.5078C0.71875 59.5806 1.47125 58.8281 2.39844 58.8281Z" fill="white"/>
<path d="M37.6719 52.9492C34.8933 52.9492 32.6328 50.6887 32.6328 47.9102V43.7109H28.4336C27.0882 43.7109 25.8229 43.1867 24.8708 42.2347C23.9188 41.2824 23.3945 40.0173 23.3945 38.6719C23.3945 35.8933 25.6551 33.6328 28.4336 33.6328H32.6328V29.4336C32.6328 28.0882 33.157 26.8229 34.1089 25.8708C35.0611 24.9188 36.3264 24.3945 37.6719 24.3945C40.4504 24.3945 42.7109 26.6551 42.7109 29.4336V33.6328H46.9102C48.2556 33.6328 49.5207 34.157 50.4728 35.1091C51.425 36.0611 51.9492 37.3264 51.9492 38.6719C51.9492 41.4504 49.6887 43.7109 46.9102 43.7109H42.7109V47.9102C42.7109 49.2556 42.1867 50.5209 41.2347 51.4729C40.2826 52.425 39.0173 52.9492 37.6719 52.9492ZM28.4336 36.9922C27.5074 36.9922 26.7539 37.7457 26.7539 38.6719C26.7539 39.12 26.9288 39.5418 27.2462 39.8592C27.5637 40.1767 27.9855 40.3516 28.4336 40.3516H34.3125C35.2402 40.3516 35.9922 41.1037 35.9922 42.0312V47.9102C35.9922 48.8363 36.7457 49.5898 37.6719 49.5898C38.12 49.5898 38.5418 49.415 38.8591 49.0974C39.1767 48.7799 39.3516 48.3583 39.3516 47.9102V42.0312C39.3516 41.1037 40.1037 40.3516 41.0312 40.3516H46.9102C47.8363 40.3516 48.5898 39.5981 48.5898 38.6719C48.5898 38.2237 48.415 37.802 48.0974 37.4845C47.7799 37.167 47.3583 36.9922 46.9102 36.9922H41.0312C40.1037 36.9922 39.3516 36.2402 39.3516 35.3125V29.4336C39.3516 28.5074 38.5981 27.7539 37.6719 27.7539C37.2237 27.7539 36.802 27.9288 36.4845 28.2464C36.167 28.5639 35.9922 28.9855 35.9922 29.4336V35.3125C35.9922 36.2402 35.2402 36.9922 34.3125 36.9922H28.4336Z" fill="white"/>
<path d="M37.6719 73.9453C18.2221 73.9453 2.39844 58.1216 2.39844 38.6719C2.39844 19.2221 18.2221 3.39844 37.6719 3.39844C57.1216 3.39844 72.9453 19.2221 72.9453 38.6719C72.9453 58.1216 57.1216 73.9453 37.6719 73.9453ZM37.6719 6.75781C20.0743 6.75781 5.75781 21.0743 5.75781 38.6719C5.75781 56.2695 20.0743 70.5859 37.6719 70.5859C55.2695 70.5859 69.5859 56.2695 69.5859 38.6719C69.5859 21.0743 55.2695 6.75781 37.6719 6.75781Z" fill="white"/>
<path d="M37.6719 63.8672C23.7792 63.8672 12.4766 52.5646 12.4766 38.6719C12.4766 24.7792 23.7792 13.4766 37.6719 13.4766C51.5646 13.4766 62.8672 24.7792 62.8672 38.6719C62.8672 52.5646 51.5646 63.8672 37.6719 63.8672ZM37.6719 16.8359C25.6315 16.8359 15.8359 26.6315 15.8359 38.6719C15.8359 50.7124 25.6315 60.5078 37.6719 60.5078C49.7124 60.5078 59.5078 50.7124 59.5078 38.6719C59.5078 26.6315 49.7124 16.8359 37.6719 16.8359Z" fill="white"/>
<path fill-rule="evenodd" clip-rule="evenodd" d="M5.75781 7.59766C5.75781 6.20839 6.88807 5.07812 8.27734 5.07812C9.66661 5.07812 10.7969 6.20839 10.7969 7.59766C10.7969 8.98693 9.66661 10.1172 8.27734 10.1172C6.88807 10.1172 5.75781 8.98693 5.75781 7.59766ZM12.4766 7.59766C12.4766 5.27801 10.597 3.39844 8.27734 3.39844C5.9577 3.39844 4.07812 5.27801 4.07812 7.59766C4.07812 9.9173 5.9577 11.7969 8.27734 11.7969C10.597 11.7969 12.4766 9.9173 12.4766 7.59766Z" fill="white"/>
<path fill-rule="evenodd" clip-rule="evenodd" d="M62.4609 71.4531C62.4609 70.751 63.0322 70.1797 63.7344 70.1797C64.4365 70.1797 65.0078 70.751 65.0078 71.4531C65.0078 72.1553 64.4365 72.7266 63.7344 72.7266C63.0322 72.7266 62.4609 72.1553 62.4609 71.4531ZM66.2812 71.4531C66.2812 70.046 65.1415 68.9062 63.7344 68.9062C62.3272 68.9062 61.1875 70.046 61.1875 71.4531C61.1875 72.8603 62.3272 74 63.7344 74C65.1415 74 66.2812 72.8603 66.2812 71.4531Z" fill="white"/>
<defs>
<linearGradient id="paint0_linear_19_9" x1="54" y1="21.5" x2="22" y2="58" gradientUnits="userSpaceOnUse">
<stop stop-color="#FFF6D7"/>
<stop offset="0.567708" stop-color="#A553B3"/>
<stop offset="1" stop-color="#171B39"/>
</linearGradient>
</defs>
</svg>
