<svg width="60" height="60" viewBox="0 0 60 60" fill="none" xmlns="http://www.w3.org/2000/svg">
<path d="M24.2703 50.14V39.23L30.0203 33.49L35.7603 39.23V50.14L30.0203 55.88L24.2703 50.14Z" fill="white"/>
<path d="M3.52002 36.99V30.62L30.02 4.11999L56.52 30.62V36.99H50.15L31.08 17.91C30.51 17.349 29.52 17.349 28.96 17.91L9.88002 36.99H3.52002Z" fill="white"/>
<path d="M0.52002 38.49V30C0.52002 29.6 0.670018 29.22 0.960018 28.94L28.96 0.939987C29.25 0.649987 29.63 0.499992 30.02 0.499992C30.4 0.499992 30.78 0.649987 31.08 0.939987L59.08 28.94C59.36 29.22 59.52 29.6 59.52 30V38.49C59.52 39.309 58.84 39.99 58.02 39.99H49.53C49.13 39.99 48.75 39.83 48.47 39.55L30.02 21.09L11.56 39.55C11.28 39.83 10.9 39.99 10.5 39.99H2.02002C1.19002 39.99 0.52002 39.31 0.52002 38.49ZM3.52002 30.62V36.99H9.88002L28.96 17.91C29.52 17.349 30.51 17.349 31.08 17.91L50.15 36.99H56.52V30.62L30.02 4.11999L3.52002 30.62Z" fill="white"/>
<path d="M21.2703 50.76L21.2703 38.61C21.2703 38.21 21.4303 37.83 21.7103 37.549L28.9603 30.309C29.2503 30.009 29.6303 29.87 30.0203 29.87C30.4003 29.87 30.7803 30.01 31.0803 30.309L38.3203 37.549C38.6003 37.829 38.7603 38.209 38.7603 38.61V50.76C38.7603 51.16 38.6003 51.54 38.3203 51.821L31.0803 59.06C30.4903 59.651 29.5403 59.651 28.9603 59.06L21.7103 51.821C21.4303 51.54 21.2703 51.16 21.2703 50.76ZM24.2703 39.23V50.14L30.0203 55.88L35.7603 50.14V39.23L30.0203 33.49L24.2703 39.23Z" fill="white"/>
</svg>
